<svg width="41" height="43" viewBox="0 0 41 43" fill="none" xmlns="http://www.w3.org/2000/svg">
<path d="M15.816 10.3504C16.671 9.83342 16.619 8.26944 15.517 8.06544C12.361 7.48244 10.171 4.53743 10.495 1.34943C10.575 0.562433 10.009 0.167425 9.39503 0.156425C8.74003 -0.171575 7.87602 -0.0115731 7.72302 0.902427C7.08402 4.70243 4.52703 8.04942 0.890028 9.43842C-0.204972 9.85642 -0.384972 11.5014 0.890028 11.8494C5.47403 13.1004 7.67302 17.5914 8.37402 21.9554C8.47202 22.5664 9.19003 22.9264 9.74603 22.8504C10.407 22.7614 10.754 22.2514 10.83 21.6224C11.317 17.5574 11.975 12.6754 15.816 10.3504Z" fill="#FFD335"/>
<path d="M39.5665 27.5055C35.9605 26.1245 33.8525 22.2455 34.2935 18.4815C34.4015 17.5595 33.6115 17.1785 32.8895 17.3235C32.2445 16.9965 31.3725 17.1645 31.1615 18.0665C30.2195 22.0875 27.8125 25.5975 24.3455 27.8575C23.4905 28.4145 23.5445 29.8875 24.6445 30.1425C29.4895 31.2665 31.1605 36.3695 30.8775 40.8275C30.7885 42.2235 33.0475 42.5425 33.3325 41.1595C34.2295 36.8165 35.3735 31.7395 39.8665 29.7895C40.9615 29.3145 40.4455 27.8425 39.5665 27.5055Z" fill="#FFD335"/>
</svg>
