<svg width="57" height="52" viewBox="0 0 57 52" fill="none" xmlns="http://www.w3.org/2000/svg">
<path d="M6.17186 33.0377C6.30576 33.0377 6.44031 33.0261 6.57409 33.0021C6.98808 32.9279 7.37435 32.7416 7.6912 32.4631L36.0207 7.55991C36.4018 8.21264 37.0949 8.66668 37.9046 8.70618C38.0788 8.71476 38.2543 8.70343 38.4252 8.67284C39.4908 8.48218 40.2718 7.59336 40.3248 6.51035L40.5098 2.63313C40.5718 1.36079 39.5872 0.275029 38.319 0.21309L34.4123 0.00284723C33.7971 -0.0274074 33.2045 0.184265 32.7472 0.599029C32.2902 1.01357 32.0219 1.58137 31.9918 2.19779C31.9533 2.9864 32.3169 3.70338 32.902 4.14928L28.3691 8.13387C28.0268 8.43466 27.9932 8.95613 28.2941 9.29829C28.5947 9.64044 29.1161 9.67422 29.4586 9.37321L35.0626 4.44709C35.3078 4.23168 35.4028 3.89228 35.3054 3.58093C35.208 3.26958 34.9365 3.04493 34.6123 3.00763L34.3214 2.97407C34.3033 2.97198 34.2853 2.97055 34.2672 2.96956C33.9036 2.95185 33.6224 2.6416 33.6401 2.278C33.6487 2.10186 33.7253 1.93959 33.8559 1.82121C33.9866 1.70283 34.1563 1.64265 34.3275 1.65079L38.2343 1.86103C38.5979 1.87875 38.8791 2.18899 38.8614 2.55348L38.6764 6.4307C38.6615 6.73511 38.4337 6.99475 38.1346 7.04833C38.0858 7.05713 38.0353 7.06032 37.9849 7.05779C37.6213 7.03997 37.3401 6.72983 37.3578 6.36612C37.358 6.36238 37.3581 6.35852 37.3583 6.35478L37.3697 6.02902C37.3811 5.69985 37.196 5.39544 36.8983 5.2544C36.6008 5.11346 36.2477 5.16286 36.0003 5.38048L6.60159 31.2237C6.51094 31.3033 6.40081 31.3566 6.28342 31.3776C6.05305 31.4191 5.82388 31.3387 5.66997 31.1636C5.42969 30.8902 5.45664 30.4723 5.72993 30.232L26.55 11.9301C26.8922 11.6293 26.9258 11.1078 26.6249 10.7657C26.3241 10.4234 25.8027 10.3898 25.4605 10.6908L4.64043 28.9926C3.68361 29.8337 3.58944 31.2964 4.43052 32.2532C4.87135 32.7548 5.51308 33.0377 6.17186 33.0377Z" fill="white"/>
<path d="M42.6664 11.4827L43.7224 12.2057L43.0846 13.3154C42.8165 13.7818 42.8602 14.355 43.1957 14.7756C43.5311 15.1962 44.08 15.3664 44.5947 15.2088L45.8183 14.8339L46.2883 16.0243C46.4859 16.5247 46.9611 16.848 47.4992 16.848C48.0373 16.848 48.5124 16.5247 48.7101 16.0242L49.18 14.8338L50.4039 15.2086C50.9182 15.3662 51.4674 15.1962 51.8028 14.7755C52.1383 14.3549 52.1818 13.7817 51.9138 13.3151L51.2761 12.2056L52.3321 11.4826C52.776 11.1786 52.9855 10.6433 52.8658 10.1187C52.7461 9.59415 52.3251 9.20271 51.7933 9.12151L50.5282 8.92821L50.6212 7.65191C50.6603 7.11536 50.3724 6.61775 49.8877 6.38429C49.4028 6.15062 48.8342 6.23588 48.4392 6.60114L47.4994 7.46972L46.5595 6.60114C46.1644 6.23599 45.596 6.15084 45.1113 6.38418C44.6265 6.61764 44.3385 7.11514 44.3775 7.65191L44.4706 8.92821L43.2056 9.12151C42.6737 9.20282 42.2527 9.59426 42.133 10.1187C42.013 10.6434 42.2224 11.1787 42.6664 11.4827ZM45.4734 10.4445C45.899 10.3794 46.2031 9.99813 46.1718 9.56873L46.0873 8.41202L46.9392 9.19919C47.2553 9.49128 47.743 9.49139 48.0593 9.19919L48.9109 8.41202L48.8265 9.56873C48.7953 9.99813 49.0993 10.3793 49.5249 10.4444L50.6714 10.6195L49.7145 11.2748C49.3592 11.518 49.2508 11.9935 49.4652 12.3668L50.0431 13.3723L48.9341 13.0327C48.5223 12.9069 48.083 13.1183 47.9251 13.5187L47.4992 14.5974L47.0732 13.5186C46.946 13.1962 46.6364 12.9963 46.3058 12.9963C46.2257 12.9963 46.1443 13.0081 46.0641 13.0326L44.9553 13.3722L45.5332 12.3667C45.7476 11.9934 45.6391 11.5179 45.2839 11.2747L44.327 10.6194L45.4734 10.4445Z" fill="white"/>
<path d="M55.5035 49.7954H53.5551V21.5059C53.5551 20.135 52.4392 19.0195 51.0677 19.0195H44.3368C42.9651 19.0195 41.8493 20.1349 41.8493 21.5059V32.9449C41.6334 32.9412 41.5092 32.8707 40.5192 32.9359V29.2885C40.5192 27.9169 39.4033 26.801 38.0319 26.801H31.2998C29.9281 26.801 28.8123 27.9169 28.8123 29.2885V49.7954H27.4837V36.0434C27.4837 34.6721 26.3679 33.5563 24.9965 33.5563H23.5563C23.1006 33.5563 22.7311 33.9257 22.7311 34.3814C22.7311 34.8371 23.1006 35.2065 23.5563 35.2065H24.9965C25.4579 35.2065 25.8334 35.582 25.8334 36.0434V49.7954H17.4267V36.0434C17.4267 35.582 17.8021 35.2065 18.2635 35.2065H19.7006C20.1563 35.2065 20.5257 34.8371 20.5257 34.3814C20.5257 33.9257 20.1563 33.5563 19.7006 33.5563H18.2635C16.8921 33.5563 15.7764 34.6721 15.7764 36.0434V49.7954H14.4472V43.136C14.4472 41.7646 13.3314 40.649 11.96 40.649H5.26057C3.88921 40.649 2.77342 41.7646 2.77342 43.136V49.7954H0.825127C0.369437 49.7954 0 50.1649 0 50.6206C0 51.0763 0.369437 51.4457 0.825127 51.4457H55.5035C55.9593 51.4457 56.3287 51.0763 56.3287 50.6206C56.3287 50.1649 55.9593 49.7954 55.5035 49.7954ZM4.42367 49.7954V43.136C4.42367 42.6746 4.79916 42.2992 5.26057 42.2992H11.9602C12.4216 42.2992 12.7971 42.6746 12.7971 43.136V49.7954H4.42367ZM43.4996 21.5059C43.4996 21.0449 43.8752 20.6698 44.3368 20.6698H51.0677C51.5293 20.6698 51.9049 21.0448 51.9049 21.5059V49.7954H43.4996V46.177C46.1111 45.2113 47.9778 42.6964 47.9778 39.7533C47.9778 36.8103 46.1111 34.2955 43.4996 33.3298V21.5059ZM41.1316 46.5996C41.374 46.5996 41.6134 46.5865 41.8492 46.5617V49.7953H40.5192V46.5706C40.7211 46.5888 40.9251 46.5996 41.1316 46.5996ZM46.3276 39.7533C46.3276 42.6184 43.9967 44.9493 41.1316 44.9493C38.2665 44.9493 35.9356 42.6184 35.9356 39.7533C35.9356 36.8883 38.2665 34.5573 41.1316 34.5573C43.9967 34.5573 46.3276 36.8883 46.3276 39.7533ZM30.4626 29.2885C30.4626 28.8269 30.8382 28.4513 31.2998 28.4513H38.0318C38.4934 28.4513 38.8689 28.8269 38.8689 29.2885V33.2931C36.2027 34.2297 34.2853 36.7712 34.2853 39.7533C34.2853 42.7354 36.2027 45.2769 38.8689 46.2136V49.7954H30.4625V29.2885H30.4626Z" fill="white"/>
<path d="M40.5298 40.9765C40.6736 41.0828 40.8458 41.1382 41.0204 41.1382C41.1014 41.1382 41.1828 41.1263 41.2619 41.102L43.0916 40.5418C43.5274 40.4085 43.7724 39.9471 43.6392 39.5113C43.5057 39.0756 43.0443 38.8306 42.6086 38.9638L41.8456 39.1975V37.6884C41.8456 37.2327 41.4762 36.8633 41.0204 36.8633C40.5646 36.8633 40.1953 37.2327 40.1953 37.6884V40.313C40.1952 40.5748 40.3193 40.8209 40.5298 40.9765Z" fill="white"/>
</svg>
