<svg width="52" height="52" viewBox="0 0 52 52" fill="none" xmlns="http://www.w3.org/2000/svg">
<g clip-path="url(#clip0_1_699)">
<path d="M28.2538 39.4695C28.1036 39.3346 27.9031 39.2703 27.7023 39.2918C27.2161 39.3445 26.7256 39.3712 26.2442 39.3712C18.8721 39.3712 12.8746 33.3736 12.8746 26.0016C12.8746 18.6296 18.8721 12.6321 26.2442 12.6321C26.7256 12.6321 27.2162 12.6589 27.7023 12.7116C27.903 12.7333 28.1036 12.6688 28.2538 12.5338C28.404 12.399 28.4899 12.2066 28.4899 12.0048V1.11719C28.4899 0.724547 28.1716 0.40625 27.779 0.40625H22.1034C21.7637 0.40625 21.4715 0.646445 21.4058 0.979672L20.4928 5.60991L15.899 7.51552L11.9769 4.88526C11.6946 4.69615 11.3183 4.73291 11.0781 4.97301L5.2192 10.8319C4.97901 11.072 4.94224 11.4485 5.13145 11.7307L7.76162 15.6528L5.856 20.2466L1.22577 21.1595C0.892539 21.2252 0.652344 21.5174 0.652344 21.8571V30.1429C0.652344 30.4826 0.892539 30.7748 1.22577 30.8405L5.856 31.7534L7.76162 36.3472L5.13145 40.2693C4.94234 40.5514 4.97911 40.9279 5.2192 41.168L11.0781 47.027C11.3182 47.2671 11.6946 47.3038 11.9769 47.1147L15.899 44.4845L20.4928 46.3901L21.4058 51.0203C21.4715 51.3535 21.7637 51.5937 22.1034 51.5937H27.779C28.1716 51.5937 28.4899 51.2754 28.4899 50.8828V39.9986C28.4899 39.7967 28.4041 39.6043 28.2538 39.4695ZM27.068 50.1719H22.6878L21.8143 45.7417C21.7683 45.5084 21.6088 45.3136 21.3892 45.2225L16.092 43.0251C15.8721 42.9339 15.6212 42.9588 15.4236 43.0913L11.6705 45.6083L6.63803 40.5758L9.15495 36.8227C9.28749 36.6251 9.31237 36.3741 9.22117 36.1543L7.02377 30.857C6.93266 30.6374 6.73787 30.4779 6.50458 30.4319L2.07442 29.5583V22.4413L6.50458 21.5678C6.73787 21.5218 6.93266 21.3624 7.02377 21.1427L9.22117 15.8454C9.31237 15.6255 9.28749 15.3746 9.15495 15.177L6.63803 11.4239L11.6705 6.39143L15.4236 8.90835C15.6212 9.04089 15.8722 9.06577 16.092 8.97457L21.3892 6.77716C21.6087 6.68606 21.7683 6.49127 21.8143 6.25798L22.6878 1.82782H27.068V11.2333C26.7922 11.218 26.517 11.2102 26.2442 11.2102C18.0881 11.2102 11.4527 17.8455 11.4527 26.0015C11.4527 34.1575 18.0881 40.793 26.2442 40.793C26.517 40.793 26.7922 40.7853 27.068 40.7698V50.1718V50.1719ZM51.2873 24.2466C51.3265 24.0557 51.3471 23.858 51.3471 23.6557C51.3471 22.6137 50.8009 21.6973 49.9802 21.1762C50.453 20.6549 50.7414 19.9635 50.7414 19.206C50.7414 17.5873 49.4245 16.2702 47.8057 16.2702H41.59C41.9256 13.4676 42.3667 8.02141 39.9862 5.60219C39.0619 4.66284 37.8319 4.27223 36.3301 4.44092C35.4492 4.53995 34.8174 5.30938 34.8918 6.19287C35.5102 13.5342 33.8099 16.4475 28.1858 17.4462C27.8402 16.9023 27.234 16.5397 26.5433 16.5397H22.9069C21.8336 16.5397 20.9604 17.4129 20.9604 18.4863V33.5168C20.9604 34.5903 21.8336 35.4635 22.9069 35.4635H26.5433C27.3355 35.4635 28.0173 34.9871 28.3209 34.3063C28.5351 34.3235 28.7335 34.3448 28.9204 34.3693C28.9635 34.3749 29.0065 34.3806 29.0483 34.3866C29.3649 34.432 29.6479 34.4873 29.9143 34.5495C30.3009 34.6399 30.6541 34.7448 31.0268 34.856C31.6217 35.0335 32.2368 35.2169 33.0778 35.3702C34.0566 35.5484 35.1155 35.6155 36.205 35.6155H36.2053C38.003 35.6155 39.8832 35.4325 41.6187 35.2636C42.3465 35.1928 43.0343 35.1259 43.693 35.0739H46.7971C48.3009 35.0739 49.5244 33.8505 49.5244 32.3465C49.5244 31.7569 49.3357 31.2108 49.0163 30.7642C49.9724 30.3155 50.6489 29.3665 50.7054 28.2561C50.7079 28.2061 50.7092 28.1559 50.7092 28.1053C50.7092 27.3541 50.4253 26.6682 49.9595 26.1484C50.6315 25.7294 51.1229 25.0471 51.2871 24.2466H51.2873ZM47.7737 29.6193H42.7068C41.8721 29.6193 41.1929 28.9401 41.1929 28.1054C41.1929 27.2706 41.8721 26.5915 42.7068 26.5915H47.7737C48.6084 26.5915 49.2876 27.2706 49.2876 28.1054C49.2876 28.9401 48.6084 29.6193 47.7737 29.6193ZM49.9174 23.8103C49.8397 24.5727 49.1938 25.1696 48.4113 25.1696H42.5292C41.6945 25.1696 41.0153 24.4905 41.0153 23.6557C41.0153 22.821 41.6945 22.1418 42.5292 22.1418H48.4113C49.1939 22.1418 49.8397 22.7387 49.9174 23.5012C49.9225 23.5519 49.9252 23.6035 49.9252 23.6557C49.9252 23.7079 49.9225 23.7594 49.9174 23.8103ZM47.8057 17.6922C48.6404 17.6922 49.3196 18.3713 49.3196 19.2061C49.3196 20.0408 48.6404 20.72 47.8057 20.72H43.3925C42.5577 20.72 41.8786 20.0408 41.8786 19.2061C41.8786 18.3713 42.5577 17.6922 43.3925 17.6922H47.8057ZM35.1606 14.8399C36.2998 12.8748 36.6539 10.1712 36.3087 6.07374C36.2996 5.96487 36.3804 5.86635 36.489 5.85406C37.5494 5.73503 38.3618 5.97878 38.9727 6.59963C41.1228 8.78465 40.3374 14.8856 40.0792 16.8905C40.0788 16.8937 40.0789 16.8969 40.0785 16.9001C40.0768 16.9151 40.0759 16.9304 40.075 16.9457C40.0745 16.9556 40.0738 16.9654 40.0738 16.9753C40.0738 16.9889 40.0744 17.0026 40.0751 17.0164C40.0757 17.0277 40.0761 17.039 40.0772 17.0502C40.0775 17.053 40.0774 17.0557 40.0777 17.0585C40.5293 21.1899 39.4789 23.2815 36.4519 24.2779C36.079 24.4006 35.8761 24.8026 35.9989 25.1754C36.0974 25.4746 36.3754 25.6642 36.674 25.6642C36.7478 25.6642 36.8227 25.6527 36.8964 25.6284C38.0605 25.2453 38.9505 24.7201 39.6269 24.0981C39.7407 24.8482 40.1398 25.5054 40.7093 25.9567C40.1327 26.4931 39.7712 27.2576 39.7712 28.1054C39.7712 29.2744 40.4581 30.2857 41.4495 30.7577C41.1272 31.2055 40.9367 31.7541 40.9367 32.3467C40.9367 32.9049 41.1055 33.4242 41.3944 33.857C41.0582 33.8897 40.7168 33.9227 40.3717 33.9548C37.9728 34.1777 35.4078 34.3492 33.3329 33.9714C32.5687 33.8323 31.9916 33.6601 31.4336 33.4937C31.0947 33.3926 30.7616 33.2937 30.4013 33.2042C30.3042 33.1802 30.2059 33.1565 30.1041 33.1339C30.096 33.1321 30.0874 33.1305 30.0792 33.1287C29.7135 33.0484 29.3115 32.9797 28.8448 32.9285C28.7306 32.916 28.6127 32.9044 28.4901 32.8942V18.8356C31.8066 18.2321 33.9356 16.9536 35.1609 14.8398L35.1606 14.8399ZM27.0679 33.5169C27.0679 33.8063 26.8326 34.0417 26.5433 34.0417H22.9069C22.6176 34.0417 22.3822 33.8063 22.3822 33.5169V18.4864C22.3822 18.1971 22.6176 17.9616 22.9069 17.9616H26.5433C26.8326 17.9616 27.0679 18.1971 27.0679 18.4864V33.5169ZM46.7972 33.6521H43.6638C42.944 33.6521 42.3583 33.0665 42.3583 32.3466C42.3583 31.6268 42.9439 31.0412 43.6638 31.0412H46.7972C47.5169 31.0412 48.1026 31.6268 48.1026 32.3466C48.1026 33.0665 47.517 33.6521 46.7972 33.6521ZM37.4526 37.7246C33.6289 37.7246 30.5179 40.8354 30.5179 44.6592C30.5179 48.4829 33.6288 51.5938 37.4526 51.5938C41.2764 51.5938 44.3872 48.483 44.3872 44.6592C44.3872 40.8353 41.2763 37.7246 37.4526 37.7246ZM37.4526 50.172C34.4128 50.172 31.9398 47.6989 31.9398 44.6592C31.9398 41.6194 34.4128 39.1465 37.4526 39.1465C40.4924 39.1465 42.9653 41.6195 42.9653 44.6592C42.9653 47.6988 40.4923 50.172 37.4526 50.172ZM40.4927 42.2649C40.7703 42.5425 40.7703 42.9927 40.4927 43.2703L36.7097 47.0534C36.5755 47.1876 36.3943 47.2616 36.207 47.2616C36.1762 47.2616 36.1452 47.2596 36.1142 47.2555C35.895 47.2267 35.7018 47.0976 35.5914 46.9061L34.2995 44.6686C34.1032 44.3286 34.2197 43.8938 34.5597 43.6975C34.8996 43.5011 35.3345 43.6176 35.5308 43.9577L36.3595 45.3927L39.4873 42.2648C39.7649 41.9873 40.2151 41.9873 40.4927 42.2648V42.2649Z" fill="white"/>
</g>
<defs>
<clipPath id="clip0_1_699">
<rect width="52" height="52" fill="white"/>
</clipPath>
</defs>
</svg>
