<svg width="60" height="60" viewBox="0 0 60 60" fill="none" xmlns="http://www.w3.org/2000/svg">
<path d="M40.3681 38.0904C42.0603 36.2904 43.1538 33.8713 43.5864 31.014C50.351 33.6667 51.7679 19.2344 45.4807 18.9751C45.3943 18.8163 45.302 18.6631 45.203 18.5158C45.3014 18.0788 45.3873 17.6373 45.4569 17.1983C48.9228 16.2931 49.3894 11.502 46.1791 9.92265C46.2925 9.43376 46.328 8.93091 46.2848 8.42256C46.1104 6.369 44.6463 4.65876 42.6417 4.16658C42.17 4.05077 41.6942 4.33923 41.5785 4.81078C41.4627 5.28221 41.7511 5.75833 42.2226 5.87413C43.474 6.18146 44.4242 7.29053 44.5331 8.57166C44.5681 8.98413 44.522 9.38992 44.3963 9.77766C44.1786 10.4482 44.5301 11.166 45.1964 11.4116C47.234 12.1768 46.9729 15.1565 44.8247 15.5384C44.2699 15.6346 43.8433 16.0768 43.7631 16.6388C43.745 16.7655 43.7255 16.8927 43.7046 17.02C43.1299 16.6322 42.4628 16.3307 41.7035 16.1155C41.5188 14.1829 41.0019 12.9282 40.123 12.2869C39.7176 11.9912 39.0275 11.6856 38.0429 11.9113C37.5404 12.0264 37.0693 12.1371 36.6224 12.2422C31.6561 13.584 28.1899 13.5312 23.1911 12.2051C21.8754 11.8896 20.8669 11.5506 19.8631 12.3016C18.9919 12.9444 18.4778 14.1947 18.2938 16.1159C17.5094 16.3384 16.823 16.6531 16.2356 17.0598C16.217 16.9264 16.1996 16.7932 16.184 16.6604C16.1175 16.0922 15.6974 15.6389 15.1389 15.5323C13.0176 15.1152 12.7821 12.1693 14.8026 11.4117C15.4689 11.166 15.8203 10.4483 15.6027 9.77777C15.4769 9.39015 15.4308 8.98436 15.4659 8.57178C15.5884 7.1303 16.7197 5.96743 18.1558 5.80697C18.5318 5.76489 18.905 5.79044 19.265 5.88327C19.6105 5.97224 19.9822 5.91609 20.2845 5.72891C20.587 5.5416 20.8032 5.23357 20.8776 4.88392C21.3083 2.71233 24.0397 1.72047 25.7537 3.13019C26.0293 3.34867 26.373 3.44619 26.7212 3.40564C27.0698 3.36461 27.3817 3.1895 27.5996 2.91252C28.7597 1.36802 31.2394 1.36825 32.3993 2.91252C32.6171 3.1895 32.9291 3.3645 33.2776 3.40564C33.6263 3.44643 33.9695 3.34867 34.2452 3.13019C35.4304 2.15615 37.3032 2.28403 38.3431 3.41466C38.6784 3.7656 39.2349 3.77826 39.586 3.44279C39.937 3.10733 39.9497 2.55081 39.6141 2.19987C38.0759 0.531119 35.3772 0.236564 33.502 1.5007C31.7147 -0.500351 28.2839 -0.500116 26.4969 1.5007C23.8996 -0.265222 20.1537 1.10581 19.27 4.09016C18.8395 4.02077 18.4007 4.01045 17.9604 4.05968C15.6934 4.31286 13.9075 6.14782 13.714 8.42268C13.6709 8.93115 13.7065 9.43399 13.8199 9.92277C10.6356 11.4885 11.065 16.2201 14.4774 17.1806C14.5418 17.6634 14.6243 18.1481 14.7226 18.6267C14.6508 18.7394 14.5832 18.856 14.5183 18.9751C8.2395 19.2573 9.64453 33.6423 16.3995 31.0188C17.2265 36.7173 20.612 40.394 26.0309 41.5496V42.7188C26.0278 42.7169 26.0251 42.7146 26.0219 42.7127C25.7393 42.5426 25.396 42.4996 25.08 42.5949L20.9431 43.8401C16.4824 45.1192 13.2359 49.4865 13.2966 54.1266V58.4172C13.2966 59.2897 14.0065 59.9996 14.879 59.9996H23.5527C24.7168 59.9592 24.7158 58.2813 23.5527 58.2414H20.095V56.952C20.0546 55.788 18.3767 55.7889 18.3368 56.952V58.2414H15.0548V54.1266C15.0548 54.0302 15.0576 53.9343 15.0606 53.8385L18.7867 52.7156C20.1301 52.3108 21.1713 51.3208 21.6435 49.9995C22.1155 48.6782 21.9373 47.2525 21.1547 46.0881L20.9004 45.7098C21.0808 45.6429 21.2633 45.5797 21.4498 45.5236L24.9889 44.4584C26.5166 50.7654 33.4898 50.7504 35.0098 44.4584L38.549 45.5236C38.7355 45.5797 38.918 45.6429 39.0983 45.7098L38.844 46.088C38.0613 47.2525 37.8831 48.6782 38.3553 49.9995C38.8273 51.3207 39.8685 52.3107 41.212 52.7155L44.9381 53.8384C44.9411 53.9343 44.9439 54.0302 44.9439 54.1266V58.2414H41.6619V56.952C41.6216 55.788 39.9437 55.7889 39.9037 56.952V58.2414H27.7919C26.6279 58.2817 26.6288 59.9596 27.7919 59.9996H45.1199C45.9925 59.9996 46.7023 59.2897 46.7023 58.4172V54.1266C46.7023 51.8008 45.9689 49.5846 44.5812 47.718C43.1937 45.8513 41.283 44.5104 39.0557 43.8401L34.9188 42.5949C34.603 42.4997 34.2595 42.5428 33.977 42.7127C33.9738 42.7146 33.971 42.7169 33.9679 42.7189V41.5467C36.5882 40.9862 38.732 39.8307 40.3681 38.0904ZM19.6956 47.0688C20.1638 47.7652 20.2702 48.6178 19.9879 49.4079C19.7056 50.198 19.0829 50.7901 18.2796 51.0321L15.3241 51.9228C15.8891 49.6536 17.3151 47.7091 19.3041 46.4864L19.6956 47.0688ZM44.675 51.9227L41.7195 51.0321C40.9161 50.7901 40.2934 50.198 40.0111 49.4079C39.7289 48.6178 39.8354 47.7652 40.3034 47.0688L40.6949 46.4864C42.6838 47.709 44.1099 49.6535 44.675 51.9227ZM47.7572 24.793C47.7866 27.694 46.2664 30.767 43.7713 29.1163C43.773 29.0803 43.7752 29.0446 43.7767 29.0085C46.0616 27.574 46.7771 23.9442 46.1809 20.9698C47.3236 21.584 47.7572 23.2305 47.7572 24.793ZM44.6115 23.0385C44.6115 26.941 42.7711 28.6061 38.4578 28.6061C34.2596 28.6061 32.3042 26.837 32.3042 23.0385C32.3042 19.24 34.2596 17.4709 38.4578 17.4709C42.7711 17.4709 44.6115 19.136 44.6115 23.0385ZM29.2978 21.2022H30.7012C30.5202 22.2453 30.503 23.2462 30.615 24.2888H29.3838C29.496 23.2463 29.4788 22.2452 29.2978 21.2022ZM20.9071 13.7161C21.0198 13.6329 21.1959 13.5481 21.5609 13.6317C21.9919 13.7305 22.4008 13.8258 22.7917 13.9171C27.9843 15.3016 31.859 15.3553 37.0247 13.9536C37.4687 13.8493 37.9366 13.7393 38.4357 13.6249C38.7984 13.5419 38.9744 13.6252 39.0868 13.7071C39.2709 13.8414 39.685 14.3019 39.8953 15.7812C35.6482 15.3101 32.2634 16.835 31.2348 19.4442H28.7641C27.7326 16.8315 24.3494 15.311 20.1029 15.7813C20.312 14.3151 20.7217 13.8529 20.9071 13.7161ZM21.5412 17.4709C25.7396 17.4709 27.6949 19.24 27.6949 23.0385C27.6949 26.837 25.7396 28.6061 21.5412 28.6061C17.2279 28.6061 15.3876 26.941 15.3876 23.0385C15.3876 19.136 17.2279 17.4709 21.5412 17.4709ZM14.8592 29.5724C11.9642 29.5193 11.2318 22.3875 13.8182 20.9685C13.222 23.9423 13.9364 27.5703 16.2184 29.0058C16.2198 29.0433 16.221 29.0811 16.2227 29.1185C15.7949 29.4188 15.3371 29.5724 14.8592 29.5724ZM18.0386 29.8858C22.7641 31.2104 27.8597 29.9035 28.9964 26.047H31.0026C32.1418 29.9069 37.2358 31.2074 41.9555 29.8874C41.5873 33.6491 39.8097 38.7301 33.1005 39.9242C32.9943 39.9213 32.8905 39.9415 32.7954 39.9749C22.9578 41.4407 18.3875 35.8495 18.0386 29.8858ZM32.8977 45.1754C31.6594 48.159 28.3371 48.1548 27.1013 45.1755C27.5418 44.6227 27.7893 43.9288 27.7893 43.2171V41.8281C29.1915 41.9812 30.8101 41.9784 32.2097 41.8254V43.2171C32.2097 43.9288 32.4572 44.6226 32.8977 45.1754Z" fill="white"/>
<path d="M35.4103 34.9756C35.8345 34.7395 35.987 34.2042 35.7509 33.7799C35.5147 33.3557 34.9796 33.2031 34.5552 33.4393C31.7457 35.0029 28.255 35.003 25.4455 33.4393C25.0213 33.2031 24.4858 33.3557 24.2498 33.7799C24.0136 34.2042 24.1662 34.7395 24.5904 34.9756C27.9274 36.8328 32.0734 36.8328 35.4103 34.9756Z" fill="white"/>
<path d="M27.7837 31.5857C27.9483 31.7234 28.1483 31.7907 28.3474 31.7905C28.5987 31.7905 28.8481 31.6833 29.022 31.4756C29.3978 30.9577 30.6151 30.9473 30.9897 31.4684C31.2975 31.844 31.8515 31.8987 32.2269 31.5909C32.6023 31.2831 32.6571 30.7292 32.3493 30.3537C31.3111 28.982 28.7181 28.9927 27.6736 30.3472C27.3621 30.7196 27.4114 31.2741 27.7837 31.5857Z" fill="white"/>
<path d="M18.1679 26.0866C19.3928 27.0472 23.3336 27.2112 24.896 26.0512C26.2931 25.144 26.2929 20.9354 24.896 20.0284C23.335 18.8689 19.3928 19.0321 18.1679 19.993C16.7981 20.8572 16.7983 25.2226 18.1679 26.0866ZM19.235 21.3903C19.7128 20.9292 23.0467 20.7875 23.818 21.4174C23.9839 21.5461 24.1775 22.0482 24.1775 23.0398C24.1775 24.0314 23.9839 24.5336 23.818 24.6623C23.0365 25.2951 19.7065 25.1475 19.2349 24.6892C18.7961 24.3367 18.8002 21.7341 19.235 21.3903Z" fill="white"/>
<path d="M35.1024 20.0285C33.7053 20.9355 33.7056 25.1446 35.1024 26.0513C36.6638 27.2109 40.6052 27.0476 41.8305 26.0867C43.2004 25.2224 43.2 20.8572 41.8306 19.9932C40.606 19.0325 36.665 18.8684 35.1024 20.0285ZM41.0955 23.0399C41.0955 24.1851 40.8558 24.6189 40.7636 24.6893C40.2856 25.1504 36.9521 25.2924 36.1804 24.6624C36.0145 24.5337 35.8209 24.0315 35.8209 23.0399C35.8209 22.0483 36.0145 21.5462 36.1804 21.4175C36.9619 20.7846 40.2921 20.9322 40.7635 21.3905C40.8559 21.4609 41.0955 21.8947 41.0955 23.0399Z" fill="white"/>
</svg>
