<svg width="60" height="56" viewBox="0 0 60 56" fill="none" xmlns="http://www.w3.org/2000/svg">
<path d="M52.0898 22.5352H40.793C38.3203 22.5352 36.3164 20.5312 36.3164 18.0586C36.3164 15.5859 38.3203 13.582 40.793 13.582C41.0977 13.582 41.4023 13.6172 41.6953 13.6758C42.7383 12.1641 44.4609 11.25 46.3242 11.25C48.2227 11.25 49.9453 12.1758 50.9883 13.7109C51.3398 13.6172 51.7031 13.582 52.0781 13.582C54.5508 13.582 56.5547 15.5859 56.5547 18.0586C56.5781 20.5312 54.5625 22.5352 52.0898 22.5352ZM40.8047 15.3398C39.3047 15.3398 38.0859 16.5586 38.0859 18.0586C38.0859 19.5586 39.3047 20.7773 40.8047 20.7773H52.1016C53.6016 20.7773 54.8203 19.5586 54.8203 18.0586C54.8203 16.5586 53.6016 15.3398 52.1016 15.3398C51.7148 15.3398 51.3398 15.4219 50.9766 15.5859C50.543 15.7852 50.0391 15.5977 49.8281 15.1758C49.1719 13.8398 47.8359 13.0195 46.3477 13.0195C44.8945 13.0195 43.5703 13.8281 42.9023 15.1172C42.6914 15.5156 42.2227 15.6914 41.8008 15.5273C41.4727 15.3984 41.1445 15.3398 40.8047 15.3398Z" fill="white"/>
<path d="M32.6602 7.95703H25.2891C23.5078 7.95703 22.0664 6.50391 22.0664 4.73438C22.0664 2.95313 23.5195 1.51172 25.2891 1.51172C25.4414 1.51172 25.5937 1.52344 25.7461 1.54688C26.4961 0.574219 27.6445 0 28.9102 0C30.1758 0 31.3359 0.585938 32.0859 1.57031C32.2734 1.53516 32.4727 1.52344 32.6602 1.52344C33.5273 1.52344 34.3359 1.86328 34.9453 2.47266C35.5547 3.08203 35.8945 3.89062 35.8945 4.75781C35.8945 6.50391 34.4414 7.95703 32.6602 7.95703ZM25.2891 3.25781C24.4805 3.25781 23.8242 3.91406 23.8242 4.72266C23.8242 5.53125 24.4805 6.1875 25.2891 6.1875H32.6602C33.4688 6.1875 34.125 5.53125 34.125 4.72266C34.125 4.32422 33.9727 3.96094 33.6914 3.67969C33.4102 3.39844 33.0469 3.24609 32.6484 3.24609C32.4375 3.24609 32.2383 3.29297 32.0391 3.375C31.6055 3.57422 31.1016 3.38672 30.8906 2.96484C30.5156 2.20313 29.7422 1.72266 28.8867 1.72266C28.0547 1.72266 27.293 2.17969 26.9063 2.92969C26.6953 3.32813 26.2266 3.50391 25.8047 3.33984C25.6523 3.28125 25.4766 3.25781 25.2891 3.25781Z" fill="white"/>
<path d="M25.5234 55.3594H1.69922C0.761719 55.3594 0 54.5977 0 53.6602V34.1953C0 33.2578 0.761719 32.4961 1.69922 32.4961H24.7031C25.6406 32.4961 26.4023 33.2578 26.4023 34.1953V54.4805C26.4023 54.9727 26.0039 55.3594 25.5234 55.3594ZM1.75781 53.6016H24.6445V34.2656H1.75781V53.6016Z" fill="white"/>
<path d="M22.4526 17.8828H3.9487C3.30417 17.8828 2.74167 17.5195 2.47214 16.9336C2.20261 16.3477 2.29636 15.6914 2.71823 15.1992L11.976 4.40625C12.2807 4.04297 12.7378 3.84375 13.2065 3.84375C13.6753 3.84375 14.1323 4.05469 14.437 4.40625L23.6948 15.1992C24.1167 15.6914 24.2104 16.3477 23.9409 16.9336C23.6596 17.5195 23.0971 17.8828 22.4526 17.8828ZM4.24167 16.125H22.1596L13.2065 5.68359L4.24167 16.125Z" fill="white"/>
<path d="M21.8203 34.2656H4.58203C4.10156 34.2656 3.70312 33.8672 3.70312 33.3867V27.9023C3.70312 27.4219 4.10156 27.0234 4.58203 27.0234C5.0625 27.0234 5.46094 27.4219 5.46094 27.9023V32.5078H20.9414V17.4609C20.9414 16.9805 21.3398 16.582 21.8203 16.582C22.3008 16.582 22.6992 16.9805 22.6992 17.4609V33.3867C22.6992 33.8672 22.3008 34.2656 21.8203 34.2656Z" fill="white"/>
<path d="M4.58203 24.6797C4.10156 24.6797 3.70312 24.2812 3.70312 23.8008V17.4609C3.70312 16.9805 4.10156 16.582 4.58203 16.582C5.0625 16.582 5.46094 16.9805 5.46094 17.4609V23.8008C5.46094 24.2812 5.0625 24.6797 4.58203 24.6797Z" fill="white"/>
<path d="M13.1953 30.1992C10.4297 30.1992 8.17969 27.9492 8.17969 25.1836C8.17969 22.418 10.4414 20.168 13.1953 20.168C15.9609 20.168 18.2109 22.418 18.2109 25.1836C18.2109 27.9492 15.9609 30.1992 13.1953 30.1992ZM13.1953 21.9258C11.4023 21.9258 9.9375 23.3906 9.9375 25.1836C9.9375 26.9766 11.4023 28.4414 13.1953 28.4414C14.9883 28.4414 16.4531 26.9766 16.4531 25.1836C16.4531 23.3906 14.9883 21.9258 13.1953 21.9258Z" fill="white"/>
<path d="M18.1875 55.3594H8.21484C7.73438 55.3594 7.33594 54.9609 7.33594 54.4805V42.9141C7.33594 39.9141 9.77344 37.4648 12.7852 37.4648H13.6289C16.6289 37.4648 19.0781 39.9023 19.0781 42.9141V54.4805C19.0664 54.9727 18.668 55.3594 18.1875 55.3594ZM9.09375 53.6016H17.3086V42.9141C17.3086 40.8867 15.6562 39.2227 13.6172 39.2227H12.7734C10.7461 39.2227 9.08203 40.875 9.08203 42.9141V53.6016H9.09375Z" fill="white"/>
<path d="M4.71094 38.0059C4.65234 38.0059 4.59375 38.0059 4.53516 37.9941C4.47656 37.9824 4.42969 37.9707 4.37109 37.9473C4.3125 37.9238 4.26563 37.9004 4.21875 37.8652C4.17188 37.8301 4.125 37.7949 4.08984 37.7598C4.05469 37.7246 4.00781 37.6777 3.98438 37.6309C3.94922 37.584 3.92578 37.5371 3.90234 37.4785C3.87891 37.4199 3.86719 37.373 3.85547 37.3145C3.84375 37.2559 3.84375 37.1973 3.84375 37.1387C3.84375 37.0801 3.84375 37.0215 3.85547 36.9629C3.86719 36.9043 3.87891 36.8457 3.90234 36.7988C3.92578 36.752 3.94922 36.6934 3.98438 36.6465C4.01953 36.5996 4.05469 36.5527 4.08984 36.5176C4.125 36.4824 4.17188 36.4355 4.21875 36.4121C4.26563 36.377 4.3125 36.3535 4.37109 36.3301C4.42969 36.3066 4.47656 36.2949 4.53516 36.2832C4.65234 36.2598 4.76953 36.2598 4.875 36.2832C4.93359 36.2949 4.99219 36.3066 5.03906 36.3301C5.08594 36.3535 5.14453 36.377 5.19141 36.4121C5.23828 36.4473 5.28516 36.4824 5.32031 36.5176C5.36719 36.5527 5.40234 36.5996 5.42578 36.6465C5.44922 36.6934 5.48438 36.752 5.50781 36.7988C5.53125 36.8574 5.54297 36.9043 5.55469 36.9629C5.56641 37.0215 5.56641 37.0801 5.56641 37.1387C5.56641 37.373 5.47266 37.5957 5.30859 37.7598C5.27344 37.7949 5.22656 37.8418 5.17969 37.8652C5.13281 37.9004 5.08594 37.9238 5.02734 37.9473C4.96875 37.9707 4.92188 37.9824 4.86328 37.9941C4.82813 38.0059 4.76953 38.0059 4.71094 38.0059Z" fill="white"/>
<path d="M21.4805 38.2164C21.4219 38.2164 21.3633 38.2164 21.3047 38.2047C21.2461 38.1929 21.1992 38.1812 21.1406 38.1578C21.0938 38.1343 21.0352 38.1109 20.9883 38.0758C20.9414 38.0406 20.8945 38.0054 20.8594 37.9703C20.8242 37.9351 20.7773 37.8883 20.7539 37.8414C20.7305 37.7945 20.6953 37.7476 20.6719 37.689C20.6484 37.6304 20.6367 37.5836 20.625 37.525C20.6133 37.4664 20.6133 37.4078 20.6133 37.3492C20.6133 37.2906 20.6133 37.232 20.625 37.1734C20.6367 37.1148 20.6484 37.0562 20.6719 37.0094C20.6953 36.9625 20.7188 36.9039 20.7539 36.857C20.7891 36.8101 20.8242 36.7633 20.8594 36.7281C20.9063 36.6929 20.9414 36.6461 20.9883 36.6226C21.0352 36.5875 21.0938 36.564 21.1406 36.5406C21.1992 36.5172 21.2461 36.5054 21.3047 36.4937C21.5859 36.4351 21.8906 36.5289 22.1016 36.7398C22.1367 36.775 22.1836 36.8218 22.207 36.8687C22.2305 36.9156 22.2656 36.9742 22.2891 37.0211C22.3125 37.0797 22.3242 37.1265 22.3359 37.1851C22.3477 37.2437 22.3477 37.3023 22.3477 37.3609C22.3477 37.4195 22.3477 37.4781 22.3359 37.5367C22.3242 37.5953 22.3125 37.6539 22.2891 37.7008C22.2656 37.7594 22.2422 37.8062 22.207 37.8531C22.1719 37.9 22.1367 37.9468 22.1016 37.982C21.9375 38.1226 21.7148 38.2164 21.4805 38.2164Z" fill="white"/>
<path d="M58.043 55.3594H50.0391C49.043 55.3594 48.1055 54.9844 47.3906 54.293L27.1172 34.8047C26.7305 34.4297 26.2148 34.2305 25.6875 34.2305H21.8672C21.3867 34.2305 20.9883 33.832 20.9883 33.3516V25.7695C20.9883 25.2891 21.3867 24.8906 21.8672 24.8906H28.2422C29.5547 24.8906 30.7969 25.3945 31.7461 26.2969L51.293 45.0938C51.9141 45.6914 52.7227 46.0078 53.5781 46.0078H54.9492C57.7383 46.0078 60 48.2695 60 51.0586V53.3906C60 54.4805 59.1211 55.3594 58.043 55.3594ZM22.7344 32.4727H25.6758C26.6719 32.4727 27.6094 32.8477 28.3242 33.5391L48.5859 53.0273C48.9727 53.4023 49.4883 53.6016 50.0156 53.6016H58.0195C58.1367 53.6016 58.2187 53.5078 58.2187 53.4023V51.0703C58.2187 49.2539 56.7422 47.7773 54.9258 47.7773H53.5547C52.2422 47.7773 51 47.2734 50.0508 46.3711L30.5273 27.5625C29.9062 26.9648 29.0977 26.6484 28.2422 26.6484H22.7344V32.4727Z" fill="white"/>
<path d="M33.1055 55.3594H25.5234C25.043 55.3594 24.6445 54.9609 24.6445 54.4805V33.9844C24.6445 33.5039 25.043 33.1055 25.5234 33.1055C26.0039 33.1055 26.4023 33.5039 26.4023 33.9844V53.6016H33.1055C33.5859 53.6016 33.9844 54 33.9844 54.4805C33.9844 54.9609 33.5859 55.3594 33.1055 55.3594Z" fill="white"/>
<path d="M50.9766 55.3594H37.207C36.7266 55.3594 36.3281 54.9609 36.3281 54.4805C36.3281 54 36.7266 53.6016 37.207 53.6016H50.9766C51.457 53.6016 51.8555 54 51.8555 54.4805C51.8555 54.9609 51.457 55.3594 50.9766 55.3594Z" fill="white"/>
</svg>
