<svg width="60" height="60" viewBox="0 0 60 60" fill="none" xmlns="http://www.w3.org/2000/svg">
<path d="M25.9677 20.0068L26.7919 21.9849C26.9376 22.3347 27.2163 22.6122 27.5667 22.7565C27.917 22.9007 28.3104 22.8999 28.6601 22.7542C29.0099 22.6085 29.2874 22.3298 29.4317 21.9794C29.5759 21.6291 29.5751 21.2357 29.4294 20.886L24.6675 9.45741C24.559 9.19703 24.3759 8.97458 24.1413 8.8181C23.9066 8.66163 23.6308 8.57812 23.3487 8.57812C23.0667 8.57812 22.7909 8.66163 22.5562 8.8181C22.3216 8.97458 22.1385 9.19703 22.03 9.45741L17.2681 20.886C17.1959 21.0592 17.1586 21.2449 17.1582 21.4325C17.1578 21.6201 17.1944 21.8059 17.2658 21.9794C17.3373 22.1529 17.4422 22.3106 17.5745 22.4435C17.7069 22.5765 17.8642 22.682 18.0374 22.7542C18.2106 22.8264 18.3963 22.8637 18.5839 22.8641C18.7715 22.8645 18.9573 22.8279 19.1308 22.7565C19.3043 22.685 19.462 22.5801 19.5949 22.4478C19.7279 22.3154 19.8334 22.1581 19.9056 21.9849L20.7296 20.0068H25.9677ZM23.3487 13.7211L24.7773 17.1497H21.9201L23.3487 13.7211Z" fill="white"/>
<path d="M16.5635 37.1484H11.8016C11.4227 37.1484 11.0594 37.2989 10.7915 37.5669C10.5236 37.8348 10.373 38.1981 10.373 38.577V50.0056C10.373 50.3845 10.5236 50.7478 10.7915 51.0157C11.0594 51.2836 11.4227 51.4342 11.8016 51.4342H16.5635C17.391 51.4346 18.2009 51.1953 18.8953 50.7452C19.5897 50.2951 20.1389 49.6535 20.4763 48.8979C20.8138 48.1424 20.9252 47.3052 20.797 46.4877C20.6688 45.6702 20.3066 44.9073 19.754 44.2913C20.3066 43.6753 20.6688 42.9124 20.797 42.0949C20.9252 41.2774 20.8138 40.4402 20.4763 39.6847C20.1389 38.9291 19.5897 38.2875 18.8953 37.8374C18.2009 37.3873 17.391 37.148 16.5635 37.1484ZM13.2302 40.0056H16.5635C16.9424 40.0056 17.3058 40.1561 17.5737 40.424C17.8416 40.6919 17.9921 41.0553 17.9921 41.4342C17.9921 41.813 17.8416 42.1764 17.5737 42.4443C17.3058 42.7122 16.9424 42.8627 16.5635 42.8627H13.2302V40.0056ZM16.5635 48.577H13.2302V45.7199H16.5635C16.9424 45.7199 17.3058 45.8704 17.5737 46.1383C17.8416 46.4062 17.9921 46.7696 17.9921 47.1484C17.9921 47.5273 17.8416 47.8907 17.5737 48.1586C17.3058 48.4265 16.9424 48.577 16.5635 48.577Z" fill="white"/>
<path d="M52.8571 28.5714H37.6151C38.5463 27.3368 39.0492 25.8321 39.0476 24.2857V7.14286C39.0455 5.24911 38.2922 3.43354 36.9532 2.09446C35.6141 0.75538 33.7985 0.0021426 31.9048 0H14.7619C12.8682 0.0021426 11.0526 0.75538 9.71351 2.09446C8.37443 3.43354 7.62119 5.24911 7.61905 7.14286V24.2857C7.61743 25.8321 8.12038 27.3368 9.05155 28.5714H7.14286C5.24911 28.5736 3.43354 29.3268 2.09446 30.6659C0.75538 32.005 0.0021426 33.8205 0 35.7143V52.8571C0.0021426 54.7509 0.75538 56.5665 2.09446 57.9055C3.43354 59.2446 5.24911 59.9979 7.14286 60H24.2857C25.3951 59.9999 26.4892 59.7412 27.4812 59.2444C28.4731 58.7475 29.3355 58.0263 30 57.1379C30.6645 58.0263 31.5269 58.7475 32.5188 59.2444C33.5108 59.7412 34.6049 59.9999 35.7143 60H52.8571C54.7509 59.9979 56.5665 59.2446 57.9055 57.9055C59.2446 56.5665 59.9979 54.7509 60 52.8571V35.7143C59.9979 33.8205 59.2446 32.005 57.9055 30.6659C56.5665 29.3268 54.7509 28.5736 52.8571 28.5714ZM10.4762 24.2857V7.14286C10.4775 6.0066 10.9294 4.91725 11.7328 4.11379C12.5363 3.31034 13.6256 2.8584 14.7619 2.85714H31.9048C33.041 2.8584 34.1304 3.31034 34.9338 4.11379C35.7373 4.91725 36.1892 6.0066 36.1905 7.14286V24.2857C36.1892 25.422 35.7373 26.5113 34.9338 27.3148C34.1304 28.1182 33.041 28.5702 31.9048 28.5714H14.7619C13.6256 28.5702 12.5363 28.1182 11.7328 27.3148C10.9294 26.5113 10.4775 25.422 10.4762 24.2857ZM30.0039 31.4286L30 31.4336L29.9961 31.4286H30.0039ZM24.2857 57.1429H7.14286C6.0066 57.1416 4.91725 56.6897 4.11379 55.8862C3.31034 55.0828 2.8584 53.9934 2.85714 52.8571V35.7143C2.8584 34.578 3.31034 33.4887 4.11379 32.6852C4.91725 31.8818 6.0066 31.4298 7.14286 31.4286H24.2857C25.422 31.4298 26.5113 31.8818 27.3148 32.6852C28.1182 33.4887 28.5702 34.578 28.5714 35.7143V52.8571C28.5702 53.9934 28.1182 55.0828 27.3148 55.8862C26.5113 56.6897 25.422 57.1416 24.2857 57.1429ZM57.1429 52.8571C57.1416 53.9934 56.6897 55.0828 55.8862 55.8862C55.0828 56.6897 53.9934 57.1416 52.8571 57.1429H35.7143C34.578 57.1416 33.4887 56.6897 32.6852 55.8862C31.8818 55.0828 31.4298 53.9934 31.4286 52.8571V35.7143C31.4298 34.578 31.8818 33.4887 32.6852 32.6852C33.4887 31.8818 34.578 31.4298 35.7143 31.4286H52.8571C53.9934 31.4298 55.0828 31.8818 55.8862 32.6852C56.6897 33.4887 57.1416 34.578 57.1429 35.7143V52.8571Z" fill="white"/>
<path d="M44.3016 39.8845H48.1111C48.49 39.8845 48.8533 39.734 49.1212 39.4661C49.3892 39.1982 49.5397 38.8348 49.5397 38.4559C49.5397 38.077 49.3892 37.7137 49.1212 37.4458C48.8533 37.1779 48.49 37.0273 48.1111 37.0273H44.3016C42.9128 37.029 41.5814 37.5813 40.5995 38.5633C39.6175 39.5453 39.0651 40.8767 39.0635 42.2654V46.075C39.0651 47.4637 39.6174 48.7951 40.5994 49.7771C41.5814 50.7591 42.9128 51.3115 44.3016 51.3131H48.1111C48.49 51.3131 48.8533 51.1625 49.1212 50.8946C49.3892 50.6267 49.5397 50.2634 49.5397 49.8845C49.5397 49.5056 49.3892 49.1422 49.1212 48.8743C48.8533 48.6064 48.49 48.4559 48.1111 48.4559H44.3016C43.6703 48.4552 43.0651 48.2041 42.6188 47.7577C42.1724 47.3114 41.9213 46.7062 41.9206 46.075V42.2654C41.9214 41.6342 42.1725 41.029 42.6188 40.5827C43.0652 40.1363 43.6703 39.8852 44.3016 39.8845Z" fill="white"/>
</svg>
