<svg width="56" height="55" viewBox="0 0 56 55" fill="none" xmlns="http://www.w3.org/2000/svg">
<path d="M55.3423 18.9413C55.0536 17.6071 54.2803 16.4274 53.1719 15.6305C52.0636 14.8336 50.699 14.4761 49.3423 14.6273L52.0003 10.4573C52.0867 10.3243 52.1169 10.1625 52.0843 10.0073C52.0516 9.85217 51.9589 9.71627 51.8263 9.62931L39.1123 1.44531C38.5613 1.08739 37.945 0.841918 37.2988 0.722987C36.6526 0.604056 35.9893 0.614016 35.3469 0.752295C34.7046 0.890574 34.0959 1.15445 33.5559 1.52874C33.0159 1.90303 32.5552 2.38037 32.2003 2.93331L24.0343 15.6413C23.9486 15.775 23.9194 15.9373 23.9531 16.0925C23.9869 16.2477 24.0808 16.3832 24.2143 16.4693L29.5723 19.9253C29.6729 19.9911 29.7909 20.0252 29.911 20.0232C30.0312 20.0211 30.148 19.9831 30.2462 19.9139C30.3445 19.8447 30.4197 19.7476 30.4622 19.6352C30.5046 19.5228 30.5123 19.4002 30.4843 19.2833C30.3517 18.7177 30.3365 18.1308 30.4397 17.5591C30.5429 16.9874 30.7623 16.4429 31.0843 15.9593C31.7233 15.0408 32.6938 14.406 33.7914 14.1887C34.8891 13.9713 36.0282 14.1883 36.9691 14.7941C37.9099 15.3998 38.579 16.3469 38.8355 17.436C39.092 18.5252 38.9159 19.6714 38.3443 20.6333C38.0323 21.1222 37.624 21.5424 37.1444 21.8683C36.6647 22.1943 36.1237 22.4192 35.5543 22.5293C35.436 22.5511 35.327 22.6079 35.2414 22.6925C35.1558 22.777 35.0976 22.8853 35.0743 23.0033C35.0554 23.1181 35.0702 23.236 35.1171 23.3425C35.164 23.4491 35.2408 23.5397 35.3383 23.6033L40.6003 27.0293C40.734 27.115 40.8963 27.1442 41.0515 27.1105C41.2067 27.0767 41.3422 26.9828 41.4283 26.8493L44.6863 21.7913C45.123 23.1359 46.0591 24.2617 47.3014 24.9366C48.5437 25.6115 49.9976 25.7839 51.3633 25.4185C52.729 25.053 53.9024 24.1774 54.6416 22.9723C55.3809 21.7672 55.6295 20.3243 55.3363 18.9413H55.3423ZM53.5723 22.4453C53.0694 23.2243 52.3288 23.8205 51.4605 24.1456C50.5921 24.4706 49.6421 24.5073 48.7513 24.2501C47.8605 23.9928 47.0762 23.4555 46.5148 22.7175C45.9534 21.9796 45.6446 21.0805 45.6343 20.1533C45.634 20.0239 45.5918 19.8981 45.5141 19.7946C45.4365 19.6912 45.3274 19.6156 45.2033 19.5791C45.0791 19.5427 44.9465 19.5474 44.8252 19.5925C44.704 19.6375 44.6005 19.7206 44.5303 19.8293L40.7503 25.6973L37.0243 23.2973C37.9151 22.8784 38.6776 22.2286 39.2324 21.4155C39.7873 20.6024 40.1144 19.6555 40.1797 18.6733C40.245 17.691 40.0461 16.7092 39.6038 15.8298C39.1614 14.9504 38.4917 14.2054 37.6642 13.6722C36.8367 13.1391 35.8815 12.8372 34.8979 12.7979C33.9142 12.7586 32.938 12.9834 32.0706 13.4488C31.2032 13.9143 30.4762 14.6035 29.9651 15.4448C29.4541 16.2862 29.1775 17.249 29.1643 18.2333L25.3663 15.7853L33.2263 3.59931C33.7698 2.75523 34.6263 2.16159 35.6075 1.94893C36.5886 1.73628 37.6141 1.92202 38.4583 2.46531L50.6623 10.3253L47.4583 15.2993C47.3885 15.4077 47.3556 15.5357 47.3642 15.6642C47.3728 15.7928 47.4227 15.9152 47.5063 16.0133C47.5896 16.1114 47.7022 16.1801 47.8275 16.2092C47.9529 16.2384 48.0842 16.2265 48.2023 16.1753C49.0523 15.7889 50.0048 15.6887 50.9166 15.8897C51.8285 16.0908 52.6504 16.5823 53.2591 17.2904C53.8678 17.9985 54.2303 18.8849 54.2922 19.8166C54.3541 20.7483 54.112 21.6749 53.6023 22.4573L53.5723 22.4453Z" fill="white"/>
<path d="M40.0004 34.0193H33.4844C33.3545 34.0183 33.2278 34.0595 33.1233 34.1367C33.0188 34.2139 32.9422 34.323 32.905 34.4474C32.8678 34.5719 32.872 34.7051 32.917 34.8269C32.962 34.9488 33.0453 35.0528 33.1544 35.1233C33.9312 35.6339 34.5225 36.3815 34.8406 37.2549C35.1587 38.1284 35.1866 39.0811 34.9201 39.9717C34.6536 40.8622 34.1069 41.643 33.3613 42.1982C32.6157 42.7533 31.711 43.0532 30.7814 43.0532C29.8518 43.0532 28.947 42.7533 28.2015 42.1982C27.4559 41.643 26.9092 40.8622 26.6427 39.9717C26.3762 39.0811 26.4041 38.1284 26.7222 37.2549C27.0403 36.3815 27.6316 35.6339 28.4084 35.1233C28.5175 35.0528 28.6008 34.9488 28.6458 34.8269C28.6907 34.7051 28.6949 34.5719 28.6577 34.4474C28.6205 34.323 28.5439 34.2139 28.4395 34.1367C28.335 34.0595 28.2083 34.0183 28.0784 34.0193H21.1004V29.5853C21.9357 30.1101 22.8963 30.4015 23.8824 30.4291C24.8684 30.4568 25.8439 30.2197 26.7073 29.7425C27.5706 29.2653 28.2904 28.5655 28.7915 27.7158C29.2927 26.8662 29.5571 25.8977 29.5571 24.9113C29.5571 23.9248 29.2927 22.9564 28.7915 22.1067C28.2904 21.2571 27.5706 20.5573 26.7073 20.0801C25.8439 19.6029 24.8684 19.3658 23.8824 19.3935C22.8963 19.4211 21.9357 19.7125 21.1004 20.2373V15.1193C21.1004 14.9602 21.0372 14.8075 20.9247 14.695C20.8121 14.5825 20.6595 14.5193 20.5004 14.5193H5.38639C4.06451 14.5209 2.79722 15.0467 1.86251 15.9814C0.927798 16.9161 0.401978 18.1834 0.400391 19.5053V49.7333C0.401978 51.0552 0.927798 52.3225 1.86251 53.2572C2.79722 54.1919 4.06451 54.7177 5.38639 54.7193H35.6144C36.9363 54.7177 38.2036 54.1919 39.1383 53.2572C40.073 52.3225 40.5988 51.0552 40.6004 49.7333V34.6193C40.6004 34.4602 40.5372 34.3075 40.4247 34.195C40.3121 34.0825 40.1595 34.0193 40.0004 34.0193ZM1.60039 19.5053C1.60198 18.5017 2.00137 17.5396 2.71104 16.8299C3.42071 16.1203 4.38277 15.7209 5.38639 15.7193H19.9004V21.4973C19.9015 21.6164 19.938 21.7326 20.0053 21.8309C20.0726 21.9292 20.1677 22.0052 20.2784 22.0493C20.3888 22.0937 20.5099 22.1044 20.6264 22.0798C20.7428 22.0552 20.8494 21.9966 20.9324 21.9113C21.3329 21.4924 21.8144 21.1593 22.3477 20.9324C22.881 20.7054 23.4548 20.5894 24.0344 20.5913C25.1515 20.6329 26.2089 21.106 26.9845 21.911C27.7601 22.7161 28.1934 23.7904 28.1934 24.9083C28.1934 26.0262 27.7601 27.1005 26.9845 27.9055C26.2089 28.7106 25.1515 29.1836 24.0344 29.2253C23.4556 29.2278 22.8825 29.112 22.3501 28.885C21.8177 28.658 21.3373 28.3246 20.9384 27.9053C20.8549 27.8188 20.7473 27.7594 20.6296 27.7348C20.5119 27.7102 20.3896 27.7215 20.2784 27.7673C20.1677 27.8114 20.0726 27.8874 20.0053 27.9857C19.938 28.084 19.9015 28.2001 19.9004 28.3193V34.0193H14.5964C15.1994 33.1966 15.5627 32.223 15.646 31.2064C15.7292 30.1898 15.5292 29.17 15.068 28.2602C14.6069 27.3504 13.9027 26.5862 13.0336 26.0523C12.1644 25.5185 11.1644 25.2358 10.1444 25.2358C9.12439 25.2358 8.12434 25.5185 7.25522 26.0523C6.38609 26.5862 5.68189 27.3504 5.22074 28.2602C4.7596 29.17 4.55955 30.1898 4.64281 31.2064C4.72607 32.223 5.08936 33.1966 5.69239 34.0193H1.60039V19.5053ZM1.60039 49.7333V35.2193H7.10239C7.22642 35.2188 7.34725 35.1799 7.44825 35.1079C7.54925 35.0359 7.62546 34.9344 7.66639 34.8173C7.70656 34.6994 7.70908 34.572 7.6736 34.4527C7.63813 34.3334 7.56641 34.228 7.46839 34.1513C6.76296 33.5957 6.2482 32.834 5.99569 31.9723C5.74319 31.1106 5.7655 30.1915 6.05952 29.3431C6.35353 28.4946 6.90464 27.7588 7.63621 27.2381C8.36777 26.7174 9.24342 26.4375 10.1414 26.4375C11.0394 26.4375 11.915 26.7174 12.6466 27.2381C13.3781 27.7588 13.9292 28.4946 14.2233 29.3431C14.5173 30.1915 14.5396 31.1106 14.2871 31.9723C14.0346 32.834 13.5198 33.5957 12.8144 34.1513C12.7199 34.2268 12.6505 34.329 12.6152 34.4447C12.5798 34.5603 12.5803 34.6839 12.6164 34.7993C12.6577 34.9173 12.7348 35.0195 12.837 35.0916C12.9392 35.1637 13.0613 35.202 13.1864 35.2013H19.9004V41.5493C19.0874 40.9038 18.1089 40.5006 17.0772 40.386C16.0455 40.2714 15.0024 40.4501 14.0676 40.9015C13.1328 41.3529 12.3442 42.0587 11.7924 42.9379C11.2406 43.8172 10.9479 44.8342 10.9479 45.8723C10.9479 46.9104 11.2406 47.9274 11.7924 48.8066C12.3442 49.6859 13.1328 50.3917 14.0676 50.8431C15.0024 51.2945 16.0455 51.4731 17.0772 51.3586C18.1089 51.244 19.0874 50.8408 19.9004 50.1953V53.5193H5.38639C4.38277 53.5177 3.42071 53.1183 2.71104 52.4086C2.00137 51.699 1.60198 50.7369 1.60039 49.7333ZM39.4004 49.7333C39.3988 50.7369 38.9994 51.699 38.2897 52.4086C37.5801 53.1183 36.618 53.5177 35.6144 53.5193H21.1004V48.7193C21.1064 48.5869 21.0685 48.4563 20.9926 48.3478C20.9166 48.2392 20.8068 48.1589 20.6804 48.1193C20.5587 48.0809 20.4279 48.0823 20.3071 48.1233C20.1862 48.1643 20.0816 48.2428 20.0084 48.3473C19.4809 49.0991 18.7276 49.6633 17.8577 49.958C16.9879 50.2526 16.0468 50.2623 15.171 49.9858C14.2952 49.7092 13.5303 49.1607 12.9875 48.42C12.4446 47.6792 12.1519 46.7847 12.1519 45.8663C12.1519 44.9479 12.4446 44.0534 12.9875 43.3126C13.5303 42.5718 14.2952 42.0234 15.171 41.7468C16.0468 41.4702 16.9879 41.48 17.8577 41.7746C18.7276 42.0693 19.4809 42.6334 20.0084 43.3853C20.0816 43.4898 20.1862 43.5683 20.3071 43.6093C20.4279 43.6503 20.5587 43.6517 20.6804 43.6133C20.8068 43.5737 20.9166 43.4933 20.9926 43.3848C21.0685 43.2763 21.1064 43.1456 21.1004 43.0133V35.2133H26.5004C25.8358 36.0212 25.4144 37.0014 25.2855 38.0396C25.1565 39.0778 25.3253 40.1313 25.772 41.0773C26.2188 42.0233 26.9252 42.8228 27.8089 43.3828C28.6926 43.9427 29.7172 44.24 30.7634 44.24C31.8096 44.24 32.8342 43.9427 33.7179 43.3828C34.6016 42.8228 35.308 42.0233 35.7548 41.0773C36.2015 40.1313 36.3703 39.0778 36.2413 38.0396C36.1123 37.0014 35.691 36.0212 35.0264 35.2133H39.4004V49.7333Z" fill="white"/>
</svg>
