<svg width="94" height="96" viewBox="0 0 94 96" fill="none" xmlns="http://www.w3.org/2000/svg">
<path d="M5.23612 69.9129C4.2067 69.7659 3.32435 70.207 2.73612 70.9423C2.14788 71.6776 1.7067 72.56 1.55964 73.4423C0.677292 76.8247 0.971409 80.3541 1.41259 83.7365C1.55964 85.6482 1.7067 87.707 3.03023 89.1776C3.91259 90.3541 5.67729 91.0894 7.14788 90.6482H7.29494C7.14788 92.1188 6.85376 93.2953 6.7067 94.4717C6.55965 94.9129 6.85376 95.3541 7.14788 95.6482C7.29494 95.7953 7.58906 95.7953 7.73612 95.7953C7.88317 95.7953 8.17729 95.7953 8.32435 95.6482C10.6773 94.3247 12.8832 92.56 14.7949 90.6482H28.7655C31.4126 90.6482 33.4714 88.5894 33.4714 85.9423V82.2659C47.442 88.4423 65.5302 86.0894 77.2949 73.0012C91.1185 59.1776 91.8538 35.5012 77.0008 20.7953H89.6479C91.5597 20.7953 93.0302 19.3247 93.0302 17.4129V3.58938C93.0302 1.67762 91.4126 0.207031 89.6479 0.207031H65.2361C64.5008 0.207031 63.9126 0.35409 63.4714 0.795267C61.8538 1.08938 60.8244 2.26586 60.8244 5.05997C60.8244 7.26586 60.8244 9.47174 60.6773 11.6776C51.8538 9.17762 41.7067 10.207 32.5891 15.5011C11.7067 25.7953 5.82435 51.0894 17.5891 69.4717C7.442 69.6188 6.85376 69.1776 5.23612 69.9129ZM31.2655 85.9423C31.2655 87.2659 30.0891 88.4423 28.7655 88.4423C13.4714 88.4423 14.0596 88.2953 13.4714 88.7365C12.1479 90.06 10.6773 91.2364 9.2067 92.4129C9.35376 91.8247 9.50082 90.207 9.50082 89.6188C9.50082 89.0306 9.50082 89.3247 9.35376 89.1776C9.2067 89.0306 9.05964 88.7364 8.76553 88.5894L8.47141 88.4423H7.00082C5.67729 88.4423 4.50082 87.2659 4.50082 85.9423V74.0306C4.50082 72.707 5.67729 71.5306 7.00082 71.5306H28.6185C29.942 71.5306 31.1185 72.707 31.1185 74.0306V85.9423H31.2655ZM63.6185 58.7364C54.0597 57.56 44.2067 57.707 34.6479 59.1776C32.8832 50.3541 33.1773 41.5306 35.6773 33.0011C44.0596 34.1776 52.5891 34.4717 61.5597 33.2953C63.4714 41.5306 64.2067 50.207 63.6185 58.7364ZM24.5008 69.4717C23.1773 67.8541 22.0008 66.2365 20.9714 64.4717C24.942 63.2953 28.9126 62.4129 33.0302 61.6776C34.6479 68.2953 37.2949 74.6188 40.9714 80.3541C38.3244 79.6188 35.8244 78.4423 33.4714 77.1188V74.1776C33.4714 71.5306 31.4126 69.4717 28.7655 69.4717H24.5008ZM61.7067 80.06C63.7655 74.0306 65.0891 67.707 65.6773 61.2364C70.8244 61.9717 75.9714 63.1482 80.9714 64.6188C76.8538 71.6776 70.2361 77.2659 61.7067 80.06ZM59.2067 80.6482C54.2067 81.8247 49.0596 81.9717 44.0596 80.9423C43.9126 79.9129 38.1773 73.5894 35.2361 61.2364C44.6479 59.9129 54.2067 59.7659 63.6185 60.9423C62.8832 67.707 61.4126 74.3247 59.2067 80.6482ZM32.5891 59.4717C28.3244 60.207 24.0596 61.2364 19.942 62.4129C14.942 52.1188 15.0891 39.9129 21.2655 29.6188C25.2361 30.7953 29.3538 31.8247 33.4714 32.56C31.1185 41.0894 30.6773 50.06 32.5891 59.4717ZM22.5891 27.707C27.2949 20.9423 34.5008 15.7953 42.5891 13.5894C38.9126 18.7364 36.1185 24.3247 34.2067 30.3541C30.2361 29.7659 26.4126 28.8835 22.5891 27.707ZM82.0008 62.707C79.3538 61.8247 72.442 60.06 65.8244 59.0306C66.4126 50.3541 65.6773 41.3835 63.7655 32.8541C73.4714 31.3835 80.3832 28.8835 80.5302 28.8835C86.8538 39.1776 87.2949 51.9717 82.0008 62.707ZM90.8244 3.58938V17.4129C90.8244 18.1482 90.2361 18.5894 89.6479 18.5894C72.8832 18.5894 73.7655 18.2953 73.1773 18.5894C72.442 18.7364 72.8832 18.7364 69.6479 21.5306C69.6479 21.0894 69.7949 19.7659 69.6479 19.3247C69.6479 19.1776 69.6479 19.1776 69.5008 18.8835C69.0596 18.2953 68.7655 18.4423 65.2361 18.4423C64.5008 18.4423 64.0596 17.8541 64.0596 17.2659V3.58938C64.0596 2.85409 64.6479 2.41291 65.2361 2.41291H89.6479C90.3832 2.41291 90.8244 3.00115 90.8244 3.58938ZM60.9714 18.4423C61.4126 19.4717 62.2949 20.06 63.3244 20.3541C64.6479 21.2364 65.6773 20.7953 67.442 20.9423C67.2949 22.1188 67.1479 23.2953 67.0008 24.3247C66.8538 24.7659 67.1479 25.207 67.5891 25.5012C68.0302 25.7953 68.4714 25.6482 68.9126 25.3541C70.2361 24.1776 72.442 22.56 73.9126 20.9423C75.9714 22.707 77.7361 24.7659 79.3538 26.9717C74.0597 28.7364 68.7655 29.9129 63.3244 30.7953C61.7067 24.6188 59.3538 18.5894 56.4126 12.8541C57.8832 13.0012 59.3538 13.4423 60.8244 13.8835C60.6773 15.9423 60.5302 17.4129 60.9714 18.4423ZM53.6185 12.56C53.9126 13.4423 58.0302 19.9129 60.9714 30.9423C52.7361 31.9717 44.5008 31.8247 36.2655 30.6482C38.3244 24.1776 41.5596 18.1482 45.8244 12.8541C48.9126 12.4129 51.2655 12.4129 53.6185 12.56Z" fill="white"/>
<path d="M18.4723 75.2086C18.1781 74.4733 17.0017 74.3263 16.5605 75.0615L10.5311 83.4439C10.237 83.8851 10.237 84.6204 10.8252 84.9145C11.2664 85.2086 12.0017 85.2086 12.2958 84.6204L13.9134 82.4145C14.3546 82.5615 13.6193 82.4145 19.2076 82.4145C19.5017 83.1498 19.9428 84.0321 20.237 84.7674C20.5311 85.3557 21.1193 85.5027 21.7076 85.3557C22.2958 85.0615 22.4428 84.4733 22.2958 83.8851C21.1193 81.3851 19.6487 77.8557 18.4723 75.2086ZM17.2958 78.0027C17.5899 78.738 18.0311 79.6204 18.3252 80.3557H15.5311L17.2958 78.0027Z" fill="white"/>
<path d="M71.2657 8.73761H74.6481C73.6187 11.3847 73.1775 11.5317 73.4716 12.267C73.7657 12.8553 74.2069 12.8553 75.8246 13.2964C74.7952 13.7376 73.7657 14.1788 72.7363 14.1788C72.1481 14.1788 71.7069 14.767 71.7069 15.3553C71.7069 15.9435 72.1481 16.3847 72.7363 16.3847C72.8834 16.3847 75.6775 16.3847 78.3246 14.3259C79.354 14.767 80.3834 15.3553 81.2657 16.0906C81.7069 16.3847 82.4422 16.3847 82.7363 15.7964C83.0304 15.3553 83.0304 14.62 82.4422 14.3259C81.5599 13.7376 80.8246 13.2964 79.9422 12.7082C80.8246 11.5317 81.4128 10.2082 81.7069 8.73761H82.8834C83.4716 8.73761 84.0599 8.29644 84.0599 7.56114C84.0599 6.82585 83.6187 6.38467 82.8834 6.38467H77.7363C77.8834 5.64938 78.1775 5.06114 78.3246 4.32585C78.4716 3.73761 78.1775 3.14938 77.5893 3.00232C77.001 2.85526 76.4128 3.14938 76.2657 3.73761C75.9716 4.61997 75.8246 5.50232 75.5304 6.38467H71.4128C70.8246 6.38467 70.2363 6.82585 70.2363 7.56114C70.2363 8.29644 70.6775 8.73761 71.2657 8.73761ZM79.501 8.73761C79.2069 9.91409 78.6187 10.9435 77.8834 11.6788C77.2952 11.3847 76.7069 11.2376 75.9716 10.9435C76.2657 10.2082 76.5599 9.32585 76.854 8.59056H79.501V8.73761Z" fill="white"/>
<path d="M16.2664 17.4114C15.8253 17.8526 15.8253 18.5879 16.2664 19.0291C18.7664 21.2349 18.7664 21.6761 19.5017 21.6761C20.5311 21.6761 20.9723 20.4997 20.237 19.7644L17.737 17.4114C17.2958 16.8232 16.5605 16.9702 16.2664 17.4114Z" fill="white"/>
<path d="M24.6473 17.9998C25.2355 17.7057 25.3826 17.1174 25.0885 16.5292L22.0002 10.6468C21.7061 10.0586 21.1179 9.91153 20.5296 10.2057C19.9414 10.4998 19.7943 11.088 20.0885 11.6762L23.1767 17.5586C23.4708 18.1468 24.0591 18.2939 24.6473 17.9998Z" fill="white"/>
<path d="M27.8825 15.4993C28.6178 15.4993 29.0589 14.9111 28.9119 14.1758L28.3237 10.3523C28.1766 9.76403 27.7354 9.32285 27.1472 9.46991C26.5589 9.61697 26.1178 10.0581 26.2648 10.6464L26.8531 14.4699C27.0001 15.2052 27.4413 15.4993 27.8825 15.4993Z" fill="white"/>
</svg>
