<svg width="96" height="82" viewBox="0 0 96 82" fill="none" xmlns="http://www.w3.org/2000/svg">
<path d="M95.5273 52.3841C94.8659 38.0545 94.1311 12.4817 94.1311 12.4817C93.9841 11.159 93.6902 9.83623 93.2492 8.58698C91.5591 3.36953 87.9583 0.87104 82.6674 0.43013C73.0408 -0.157752 16.3103 0.209674 13.077 0.503615C12.4156 0.5771 11.7542 0.650585 11.0929 0.797555C9.77013 1.0915 8.44739 1.67938 7.4186 2.48771C6.31633 3.29605 5.4345 4.32484 4.84662 5.42712C3.52389 7.63167 3.00949 9.83623 2.64207 11.8938C-1.10567 31.2939 0.584485 62.4516 1.61328 62.4516C3.22995 62.4516 1.46631 37.3197 4.18526 18.581C5.28753 18.7279 6.90421 18.8749 9.10876 19.0954C12.93 19.3893 18.2209 19.7567 24.0997 20.0507C35.7839 20.6385 49.746 21.1529 58.6377 21.2264C74.8045 21.4469 83.0348 21.2999 87.2969 21.006C91.4856 20.712 91.7061 20.3446 91.7061 19.9772C91.7061 19.6097 91.5591 19.1688 87.2969 18.8749C83.1083 18.581 74.878 18.434 58.7112 18.2135C49.893 18.0666 35.9308 17.9931 24.2467 17.9196C18.3679 17.9196 13.077 17.8461 9.25573 17.9196C7.12466 17.9196 5.4345 17.9931 4.40571 18.0666C4.69965 16.2294 4.99359 14.3923 5.36102 12.4082C5.72844 10.4976 6.31633 8.51349 7.27163 6.82334C8.22694 5.13318 9.77013 3.95742 11.8277 3.58999C12.3421 3.44302 12.8565 3.44302 13.4444 3.36954C15.1345 3.22257 72.306 2.85514 82.5939 3.44302C88.3257 3.88393 90.5303 7.04379 91.4121 12.9226C91.7795 15.2741 91.7795 17.7726 91.7795 20.3446C91.7061 30.9999 92.3674 39.9651 93.0288 52.5311C93.1758 55.25 93.2492 57.969 93.3962 60.7614C93.4697 62.1576 93.4697 63.4804 93.3962 64.8031C93.3227 66.1258 93.1758 67.4486 92.8818 68.6243C92.2939 71.0493 91.0447 73.2539 88.9871 74.5766C87.9583 75.238 86.856 75.8259 85.6068 76.1933C84.431 76.6342 83.1083 76.8547 81.7856 77.1486C76.5681 78.2509 71.2772 78.9857 66.1332 79.4266C48.6438 80.9698 30.346 79.8676 13.2239 77.2221C11.5338 77.0016 9.9171 76.7812 8.52088 76.2668C7.12466 75.8259 5.87541 75.1645 4.92011 74.2827C3.9648 73.4009 3.37692 72.2986 3.00949 71.2698C2.64207 70.241 2.42161 69.2122 2.34813 68.2569C2.12767 66.4198 2.12767 64.8766 1.9807 63.9213C1.90722 62.8925 1.83373 62.3781 1.76025 62.3781C1.68676 62.3781 1.68676 62.8925 1.61328 63.9213C1.61328 64.9501 1.53979 66.4198 1.68676 68.3304C1.76025 69.2857 1.90722 70.388 2.27464 71.4903C2.64207 72.666 3.22995 73.8418 4.25874 74.8706C5.28753 75.8994 6.68375 76.6342 8.15345 77.1486C12.0482 78.5448 39.7521 83.3948 66.2802 81.4107C71.4976 81.0433 76.8621 80.3085 82.2265 79.2797C84.8719 78.7653 87.8113 78.1039 90.3098 76.4138C91.5591 75.6054 92.6614 74.5031 93.5432 73.1804C94.3515 71.9312 94.9394 70.4615 95.3068 69.0652C96.0417 66.1993 96.0417 63.2599 95.9682 60.541C95.7477 57.8955 95.6008 55.1031 95.5273 52.3841Z" fill="white"/>
<path d="M18.956 6.82543C18.1476 6.38452 17.2658 6.16406 16.531 6.16406C15.1348 6.23755 14.0325 6.9724 13.3711 7.70725C13.0772 8.07468 12.7832 8.4421 12.6363 8.80953C12.4158 9.17695 12.3423 9.54438 12.1953 9.9118C12.0484 10.6467 12.1219 11.3815 12.2688 11.8959C12.4158 12.4103 12.7097 12.7777 12.9302 12.9982C13.3711 13.4391 13.7385 13.5126 13.959 13.5126C14.1794 13.5126 14.3264 13.3656 14.4734 13.1451C14.6204 12.9982 14.6938 12.8512 14.7673 12.6308C14.8408 12.4103 14.7673 12.1898 14.6938 11.8224C14.6204 11.455 14.6204 11.1611 14.8408 10.6467C14.9143 10.4997 14.9878 10.3527 15.0613 10.2057C15.1348 10.0588 15.3552 9.83832 15.5022 9.69135C15.7961 9.39741 16.1635 9.17695 16.6045 9.17695C17.0454 9.10347 17.7802 9.39741 18.2211 10.1323C18.4416 10.4997 18.5886 10.9406 18.5886 11.455C18.5886 11.8959 18.4416 12.3368 18.2211 12.6308C18.0007 12.9247 17.5598 13.2186 17.1923 13.2921C16.7514 13.4391 16.3105 13.4391 15.9431 13.3656C15.2082 13.2921 14.6938 13.0717 14.5469 13.2186C14.3999 13.3656 14.6938 13.9535 15.5757 14.4679C16.0166 14.6883 16.6045 14.9088 17.3393 14.9823C18.0742 14.9823 18.956 14.7618 19.6908 14.2474C20.4257 13.6595 20.9401 12.7777 21.087 11.8224C21.234 10.9406 21.1605 9.9118 20.7931 9.02998C20.3522 8.00119 19.6908 7.26634 18.956 6.82543Z" fill="white"/>
<path d="M29.7587 6.8233C28.0686 5.79451 25.717 6.01497 24.1738 7.77861C23.8799 8.14603 23.586 8.51346 23.439 8.88089C23.2185 9.24831 23.1451 9.61574 22.9981 9.98316C22.8511 10.718 22.9246 11.4529 23.0716 11.9673C23.2185 12.4817 23.5125 12.8491 23.7329 13.0695C24.1738 13.5104 24.5413 13.5839 24.7617 13.5839C24.9822 13.5839 25.1291 13.437 25.2761 13.2165C25.4231 13.0695 25.4966 12.9226 25.5701 12.7021C25.6435 12.4817 25.5701 12.2612 25.4966 11.8938C25.4231 11.5263 25.4231 11.2324 25.6435 10.718C25.717 10.571 25.7905 10.4241 25.864 10.2771C25.9375 10.1301 26.1579 9.90968 26.3049 9.76271C26.5989 9.46877 26.9663 9.24831 27.4072 9.24831C27.8481 9.17483 28.5829 9.46877 29.0239 10.2036C29.2443 10.571 29.3913 11.012 29.3913 11.5263C29.3913 11.9673 29.2443 12.4082 29.0239 12.7021C28.8034 12.9961 28.3625 13.29 27.9951 13.3635C27.5542 13.5104 27.1132 13.5104 26.7458 13.437C26.011 13.3635 25.4966 13.143 25.3496 13.29C25.2026 13.437 25.4966 14.0248 26.3784 14.5392C26.8193 14.7597 27.4072 14.9802 28.142 15.0536C28.8769 15.0536 29.7587 14.8332 30.4936 14.3188C31.2284 13.7309 31.7428 12.8491 31.8898 11.8938C32.0367 11.012 31.9633 9.98316 31.5958 9.10134C31.2284 7.99906 30.567 7.26421 29.7587 6.8233Z" fill="white"/>
<path d="M40.6337 6.82543C39.8254 6.38452 38.9436 6.16406 38.2087 6.16406C36.8125 6.23755 35.7102 6.9724 35.0488 7.70725C34.7549 8.07468 34.461 8.4421 34.314 8.80953C34.0935 9.17695 34.0201 9.54438 33.8731 9.9118C33.7261 10.6467 33.7996 11.3815 33.9466 11.8959C34.0935 12.4103 34.3875 12.7777 34.6079 12.9982C35.0488 13.4391 35.4163 13.5126 35.6367 13.5126C35.8572 13.5126 36.0041 13.3656 36.1511 13.1451C36.2981 12.9982 36.3716 12.8512 36.4451 12.6308C36.5185 12.4103 36.4451 12.1898 36.3716 11.8224C36.2981 11.455 36.2981 11.1611 36.5185 10.6467C36.592 10.4997 36.6655 10.3527 36.739 10.2057C36.8125 10.0588 37.0329 9.83832 37.1799 9.69135C37.4739 9.39741 37.8413 9.17695 38.2822 9.17695C38.7231 9.10347 39.458 9.39741 39.8989 10.1323C40.1193 10.4997 40.2663 10.9406 40.2663 11.455C40.2663 11.8959 40.1193 12.3368 39.8989 12.6308C39.6784 12.9247 39.2375 13.2186 38.8701 13.2921C38.4292 13.4391 37.9882 13.4391 37.6208 13.3656C36.886 13.2921 36.3716 13.0717 36.2246 13.2186C36.0776 13.3656 36.3716 13.9535 37.2534 14.4679C37.6943 14.6883 38.2822 14.9088 39.017 14.9823C39.7519 14.9823 40.6337 14.7618 41.3686 14.2474C42.1034 13.6595 42.6178 12.7777 42.7648 11.8224C42.9117 10.9406 42.8383 9.9118 42.4708 9.02998C42.0299 8.00119 41.3686 7.26634 40.6337 6.82543Z" fill="white"/>
<path d="M28.8761 67.3038C29.9784 67.8917 31.2276 68.0387 32.1829 67.7447C33.1382 67.4508 33.7996 66.7159 34.0935 66.0546C34.314 65.3932 34.167 64.8053 34.0935 64.5114C34.02 64.2174 33.8731 63.997 33.7996 64.0705C33.7261 64.0705 33.7261 64.2909 33.7261 64.5849C33.7261 64.8788 33.7261 65.3932 33.4322 65.8341C33.2117 66.275 32.6238 66.7159 31.889 66.8629C31.1541 67.0099 30.2723 66.8629 29.3905 66.275C27.4064 65.0993 13.8116 48.3446 13.3707 47.3893C13.0768 46.728 13.0033 46.1401 13.1503 45.5522C13.2238 45.2583 13.3707 44.9643 13.5177 44.7439C13.7381 44.4499 13.9586 44.156 14.2525 43.862C14.8404 43.2742 22.7768 36.587 28.2882 32.6923C28.9496 32.2514 29.6109 31.8105 30.1988 31.3696C30.7867 30.9287 31.3011 30.6347 31.6685 30.5612H31.9625C32.0359 30.5612 32.1829 30.7082 32.3299 30.7817C32.5503 31.0021 32.7708 31.3696 32.9178 31.737C32.9913 31.884 32.9913 32.1044 32.9913 32.2514V32.4718V32.9128C32.9178 33.3537 32.7708 33.7946 32.6238 34.162C31.4481 36.9544 24.7609 42.8333 23.6586 44.7439C23.3647 45.2583 23.1442 45.9931 23.2912 46.728C23.3647 47.0954 23.4382 47.3893 23.5852 47.6833C23.6586 47.7568 23.6586 47.8302 23.6586 47.8302C26.1571 52.1659 28.1412 55.5462 30.7867 59.8083C32.0359 61.8659 32.6238 62.9682 33.0647 63.4826C33.4322 63.997 33.6526 63.997 33.8731 63.9235C34.0935 63.85 34.2405 63.7765 34.167 63.0417C34.0935 62.3068 33.7261 61.0576 32.6973 58.7795C31.1541 55.6931 28.1412 50.2552 26.3776 46.8749L26.2306 46.6545L26.1571 46.581C26.1571 46.5075 26.0836 46.5075 26.0836 46.5075C26.0836 46.434 26.0836 46.434 26.0836 46.434C26.0836 46.434 26.0836 46.3605 26.1571 46.2136C26.6715 45.2583 33.8731 38.7916 35.3428 35.4113C35.5632 34.8234 35.7837 34.162 35.9307 33.4272L36.0041 32.9128C36.0041 32.6923 36.0041 32.4718 36.0041 32.3249C36.0041 31.884 35.9307 31.5165 35.8572 31.0756C35.6367 30.1938 35.1958 29.312 34.3875 28.6506C33.9466 28.2832 33.5791 28.0627 32.9178 27.8423C32.3299 27.6218 31.6685 27.6953 31.0806 27.7688C29.9784 28.0627 29.2435 28.5771 28.5821 29.018C27.9208 29.459 27.3329 29.8999 26.6715 30.4143C21.0132 34.5294 12.7828 41.8779 12.4889 42.1719C12.1215 42.5393 11.8275 42.9802 11.5336 43.4211C11.2397 43.862 10.9457 44.4499 10.8722 45.0378C10.5783 46.2136 10.8722 47.4628 11.3131 48.4181C12.048 50.0348 26.3041 65.9811 28.8761 67.3038Z" fill="white"/>
<path d="M60.843 34.4537C61.7248 39.4506 69.5877 45.3295 70.6165 47.2401C70.9105 47.7545 62.9741 60.3939 62.6067 64.2151C62.5332 64.95 62.7536 65.0235 62.9006 65.097C63.1211 65.1704 63.3415 65.1704 63.7089 64.656C63.7824 64.5826 73.262 49.6651 73.4825 47.9014C73.6294 47.1666 73.3355 46.4317 73.115 45.9173C71.4249 43.0514 63.562 37.0991 63.7824 33.4984C63.7824 33.3514 63.7824 33.1309 63.8559 32.984C63.9294 32.6165 64.1498 32.2491 64.4438 32.0286C64.5173 31.9552 64.7377 31.8082 64.8112 31.8082H65.1051C65.4726 31.8817 65.987 32.1756 66.5749 32.6165C73.5559 37.4665 82.1537 44.7416 82.5211 45.109C82.8151 45.4029 83.0355 45.6969 83.256 45.9908C83.4764 46.2848 83.5499 46.5052 83.6234 46.7992C84.1378 48.8567 82.5211 50.3264 69.8817 65.097C69.0733 66.1258 68.265 66.9341 67.3832 67.4485C66.5749 67.9629 65.6195 68.1833 64.8847 68.0364C64.1498 67.8894 63.562 67.4485 63.3415 67.0076C63.0476 66.5667 63.0476 66.0523 63.0476 65.7583C63.0476 65.4644 63.0476 65.2439 62.9741 65.2439C62.9006 65.2439 62.8271 65.3909 62.6801 65.6848C62.6067 65.9788 62.4597 66.5667 62.6801 67.228C62.9006 67.8894 63.562 68.6242 64.5908 68.9182C65.5461 69.2121 66.7953 69.0652 67.8976 68.4773C68.9999 67.8894 69.9552 67.0076 70.837 66.0523C84.3583 52.0166 86.7098 49.6651 85.9014 46.2113C85.7545 45.6234 85.534 45.0355 85.2401 44.5946C84.9461 44.1537 84.5787 43.7128 84.2848 43.3454C83.7704 42.7575 75.3931 35.3355 68.1915 30.1915C67.5302 29.7506 66.7953 29.2362 65.693 28.9423C65.1786 28.7953 64.5173 28.7953 63.8559 29.0158C63.268 29.2362 62.8271 29.4567 62.3862 29.8241C61.5779 30.4855 61.137 31.3673 60.9165 32.2491C60.843 32.6165 60.7695 33.0574 60.7695 33.4984V34.0862L60.843 34.4537Z" fill="white"/>
<path d="M34.5344 75.458C34.9018 75.605 35.2693 75.6785 36.6655 73.4004C39.164 69.2852 60.7686 25.5616 59.9603 25.1207C58.858 24.5328 39.5314 59.1443 34.7549 72.5186C33.8731 75.0171 34.167 75.2375 34.5344 75.458Z" fill="white"/>
</svg>
