<svg width="99" height="96" viewBox="0 0 99 96" fill="none" xmlns="http://www.w3.org/2000/svg">
<path d="M98.8352 22.4019C98.7626 17.3928 98.2079 12.3358 94.6867 9.27348C91.5966 6.57734 87.3446 6.35331 82.8948 6.35331C78.1793 6.36721 73.4668 6.36721 68.7528 6.36721C68.3557 5.21305 67.8922 4.22266 67.3314 3.37442L67.3298 3.37288C65.9253 1.26541 63.8009 0.0139056 61.644 0C59.6431 0.0278112 57.6036 1.23914 56.3197 3.16584C55.7171 4.08206 55.269 5.14661 54.9461 6.37957C52.1774 6.39039 49.4071 6.39039 46.6367 6.39039C46.3123 5.14816 45.8658 4.07897 45.2616 3.1612C43.9792 1.23914 41.9398 0.0278112 39.9404 0C39.9188 0 39.8972 0 39.874 0C37.7928 0 35.6452 1.28704 34.2546 3.37288C33.6937 4.21339 33.2426 5.17751 32.8177 6.40893L24.7385 6.4182C19.9365 6.4182 13.9617 6.4182 9.24 9.40172C5.10695 12.0082 2.14969 16.8953 1.12686 22.8113C0.116388 28.7707 0.970809 34.8752 0.383684 40.7372C-0.334771 48.0562 0.0932123 55.7938 0.552097 62.4685C1.08669 70.4905 3.68549 74.0534 13.4766 74.0534C13.784 74.0534 14.09 74.0503 14.3928 74.0457L18.0608 74.004C17.8506 74.8151 17.6328 75.5846 17.3964 76.2922C17.1183 77.1266 16.8108 77.9439 16.5064 78.7535C15.3198 81.8993 14.0915 85.1516 14.8888 88.9834C15.4172 91.4818 17.1167 93.8133 19.3231 95.0694C20.9562 95.9995 22.8103 96.2807 24.5439 95.6921C28.1871 94.4591 29.6395 90.3832 30.5804 86.5607L33.7169 73.8139C45.0654 73.6857 56.417 73.559 67.7763 73.4199C68.6462 76.9767 69.5207 80.5272 70.4014 84.084C71.4845 88.4689 72.532 94.1671 77.039 95.6921C78.8065 96.2915 80.6591 95.9794 82.2613 95.0694C84.4677 93.8117 86.1657 91.4802 86.6926 88.9834C86.6926 88.9818 86.6926 88.9818 86.6926 88.9803C87.6907 84.189 85.5229 80.314 84.1865 76.2922C83.8759 75.359 83.5947 74.313 83.3243 73.1805C86.7126 72.9842 90.3976 72.36 93.1664 69.8957C96.8189 66.6356 97.4987 61.3623 97.8479 56.6745C97.8634 56.4551 97.8727 56.2342 97.8896 56.0148C97.9206 55.9978 97.9592 56.0009 97.9854 55.9746C98.1322 55.8278 98.1322 55.5914 97.9854 55.4447L97.9298 55.389C98.6993 44.4484 99.0129 33.358 98.8352 22.4019ZM62.88 6.37185L63.3683 5.88361L63.855 6.3703C63.5305 6.37185 63.206 6.37185 62.88 6.37185ZM60.034 6.37494C60.1174 6.30696 60.1762 6.2158 60.1777 6.09992L60.4527 6.37494C60.3137 6.37494 60.1731 6.37494 60.034 6.37494ZM59.5535 5.47726L59.7976 5.72138H59.3109L59.5535 5.47726ZM57.5696 3.99399C58.5801 2.47674 60.1499 1.52189 61.6641 1.50026H61.712C63.6016 1.50026 65.2038 2.89236 66.0783 4.20258C66.4908 4.82524 66.8493 5.53906 67.166 6.36721C66.4151 6.36876 65.6642 6.36876 64.9133 6.36876L63.8967 5.35211L64.3664 4.88241L65.2223 5.73837C65.3676 5.88361 65.604 5.8867 65.7523 5.73837C65.8991 5.59159 65.8991 5.3552 65.7523 5.20841L64.8994 4.35399L65.2656 3.98781C65.4124 3.84103 65.4124 3.60464 65.2656 3.45786C65.1188 3.31107 64.8824 3.31107 64.7356 3.45786L64.3695 3.82404L64.1532 3.60773C64.0048 3.4594 63.7684 3.46249 63.6232 3.60773C63.4764 3.75451 63.4764 3.9909 63.6232 4.13768L63.8395 4.35399L63.3698 4.82369L62.5231 3.97854C62.3763 3.83176 62.1399 3.83176 61.9932 3.97854C61.8464 4.12532 61.8464 4.36172 61.9932 4.5085L62.8399 5.35365L61.9932 6.20035C61.9453 6.24824 61.9375 6.31314 61.9221 6.37339C61.7413 6.37339 61.5621 6.37339 61.3813 6.37339C61.372 6.2915 61.3504 6.20962 61.2871 6.14781L60.085 4.94575L61.8695 3.1612C62.0163 3.01442 62.0163 2.77803 61.8695 2.63125C61.7243 2.48601 61.4879 2.48292 61.3396 2.63125L58.2495 5.71983H57.7396C57.5325 5.71983 57.3641 5.88824 57.3641 6.09528C57.3641 6.21425 57.429 6.3085 57.5156 6.37803C57.1741 6.37803 56.8326 6.37957 56.4912 6.37957C56.7631 5.46489 57.1185 4.67846 57.5696 3.99399ZM37.5178 5.5885L38.3289 6.4012L36.8735 6.40275L36.7885 6.31623L37.5178 5.5885ZM40.9293 6.39811L41.6292 5.69974L42.326 6.39657L40.9293 6.39811ZM35.4999 4.20567C36.3744 2.89236 37.9782 1.5018 39.8663 1.5018H39.9157C41.4283 1.52189 42.9981 2.47828 44.007 3.9909C44.4598 4.68 44.8167 5.46953 45.0901 6.39502L44.1059 6.39657L43.3133 6.39811C43.3118 6.39502 43.3118 6.39193 43.3102 6.38884L44.1894 5.5097C44.3361 5.36292 44.3361 5.12653 44.1894 4.97974C44.0426 4.83296 43.8062 4.83296 43.6594 4.97974L42.8127 5.82644L42.1576 5.17133L42.6644 4.66455L43.0151 5.01528C43.1604 5.16052 43.3968 5.16361 43.5451 5.01528C43.6919 4.8685 43.6919 4.6321 43.5451 4.48532L42.0773 3.01906C41.9289 2.87073 41.6925 2.87382 41.5473 3.01906C41.4005 3.16584 41.4005 3.40223 41.5473 3.54901L42.1344 4.13614L41.6277 4.64292L41.1363 4.15159C41.1997 4.14077 41.2661 4.1315 41.3171 4.0867C41.4731 3.95073 41.4917 3.71434 41.3573 3.55828L41.1162 3.28017C41.0467 3.20137 40.9494 3.15348 40.8458 3.15039C40.7454 3.15966 40.6404 3.18747 40.5677 3.26009L38.8064 5.02146C38.6596 5.16824 38.6596 5.40464 38.8064 5.55142C38.9516 5.69665 39.1895 5.6982 39.3363 5.55142L40.4055 4.48223L41.0977 5.16979L39.9914 6.27451C39.9574 6.3085 39.9574 6.35794 39.9404 6.39966H39.3889L38.0477 5.057L39.3116 3.79313C39.4584 3.64635 39.4584 3.40996 39.3116 3.26318C39.1648 3.1164 38.9284 3.1164 38.7816 3.26318L36.2601 5.78627L35.9325 5.45871C35.7858 5.31193 35.5494 5.31193 35.4026 5.45871C35.2558 5.6055 35.2558 5.84189 35.4026 5.98867L35.7301 6.31623L35.6436 6.40275L34.406 6.40429C34.7351 5.52824 35.0843 4.82833 35.4999 4.20567ZM14.3758 72.5485C4.55227 72.6845 2.54369 69.8199 2.04926 62.3696C1.59502 55.7521 1.17012 48.0902 1.87622 40.8871C2.47107 34.9247 1.62437 28.8247 2.60549 23.0663C3.55416 17.5705 6.2642 13.0527 10.0388 10.6718C14.3959 7.91846 20.1312 7.91846 24.737 7.91846L46.0558 7.89219C49.2139 7.89219 52.3705 7.89219 55.5255 7.87983C59.7605 7.87983 63.9832 7.87983 68.2182 7.86747C73.1099 7.86747 78.0047 7.86747 82.8948 7.85511C87.0479 7.85511 91.0002 8.04979 93.6994 10.406C96.7787 13.0836 97.267 17.7636 97.3334 22.4251C97.5003 32.7322 97.2191 43.1521 96.5439 53.4593C96.5269 53.4299 96.5315 53.3928 96.5068 53.3681C96.36 53.2213 96.1236 53.2213 95.9769 53.3681L95.9398 53.4052L95.0745 52.5399C94.9278 52.3932 94.6914 52.3932 94.5446 52.5399C94.3978 52.6867 94.3978 52.9231 94.5446 53.0699L95.4098 53.9351L93.188 56.1569C93.1077 56.2373 93.0814 56.3423 93.0891 56.4474C92.9408 56.3207 92.723 56.3192 92.5854 56.4582C92.4387 56.605 92.4387 56.8414 92.5854 56.9882L94.1815 58.5827C94.0378 58.5008 93.8617 58.4977 93.7396 58.6198L91.4189 60.9405L89.7997 59.3212C89.6529 59.1744 89.4165 59.1744 89.2697 59.3212C89.1229 59.468 89.1229 59.7044 89.2697 59.8512L90.889 61.4704L90.6263 61.7331C90.4795 61.8799 90.4795 62.1162 90.6263 62.263C90.7715 62.4083 91.0095 62.4098 91.1563 62.263L91.4189 62.0004L92.2069 62.7884C92.1621 62.8069 92.1127 62.8069 92.0771 62.8424L89.8368 65.0843L87.7293 62.9769L89.4598 61.2464C89.6066 61.0996 89.6066 60.8632 89.4598 60.7164C89.313 60.5696 89.0766 60.5696 88.9298 60.7164L87.1993 62.4469L85.8814 61.129C85.7346 60.9822 85.4982 60.9822 85.3514 61.129C85.2047 61.2757 85.2047 61.5121 85.3514 61.6589L86.6694 62.9769L84.9389 64.7073L83.2841 63.0526L87.7123 58.6244C87.8591 58.4776 87.8591 58.2412 87.7123 58.0944C87.5655 57.9477 87.3291 57.9477 87.1823 58.0944L82.7542 62.5226L82.7171 62.4855C82.5703 62.3387 82.3339 62.3387 82.1872 62.4855C82.0404 62.6323 82.0404 62.8687 82.1872 63.0155L82.2242 63.0526L82.1872 63.0896C82.0404 63.2364 82.0404 63.4728 82.1872 63.6196C82.3324 63.7648 82.5703 63.7664 82.7171 63.6196L82.7542 63.5825L84.409 65.2373L82.0744 67.5719L79.2886 64.7861L83.4155 60.6593C83.5623 60.5125 83.5623 60.2761 83.4155 60.1293C83.2687 59.9825 83.0323 59.9825 82.8855 60.1293L78.7432 64.2716C78.5964 64.1665 78.3987 64.1619 78.2673 64.2932C78.136 64.4246 78.1406 64.6239 78.2457 64.7691L76.6496 66.3652L75.0304 64.746C74.8836 64.5992 74.6472 64.5992 74.5005 64.746C74.3537 64.8927 74.3537 65.1291 74.5005 65.2759L76.1197 66.8951L74.1636 68.8512L71.5648 66.2524C71.4211 66.1087 71.1894 66.1087 71.0426 66.2493L75.8586 61.4333C76.0053 61.2866 76.0053 61.0502 75.8586 60.9034C75.7118 60.7566 75.4754 60.7566 75.3286 60.9034L68.3604 67.8716L67.3453 66.855C67.2 66.7097 66.9621 66.7066 66.8153 66.855C66.6685 67.0017 66.6685 67.2381 66.8153 67.3849L67.8304 68.4016L66.0242 70.2078L63.4254 67.609C63.3822 67.5657 63.3235 67.5611 63.2678 67.5441L66.0459 64.766C66.1926 64.6193 66.1926 64.3829 66.0459 64.2361C65.8991 64.0893 65.6627 64.0893 65.5159 64.2361L60.6737 69.0783L59.657 68.0617C59.5102 67.9149 59.2738 67.9149 59.1271 68.0617C58.9803 68.2084 58.9803 68.4448 59.1271 68.5916L60.1437 69.6083L58.4735 71.2785C58.4627 71.2646 58.4673 71.2445 58.4534 71.2321L56.2285 69.0057L59.8718 65.3624C60.0186 65.2157 60.0186 64.9793 59.8718 64.8325C59.725 64.6857 59.4886 64.6857 59.3418 64.8325L55.6986 68.4757L55.4359 68.2131C55.2907 68.0678 55.0543 68.0648 54.9059 68.2131C54.7592 68.3599 54.7592 68.5963 54.9059 68.743L55.1686 69.0057L53.7363 70.4364L52.1171 68.8172C51.9703 68.6689 51.7339 68.672 51.5871 68.8172C51.4404 68.964 51.4404 69.2004 51.5871 69.3472L53.2064 70.9664L52.1897 71.983C52.1573 72.0155 52.1588 72.0634 52.1403 72.1036C51.5362 72.1113 50.9305 72.1175 50.3264 72.1252C50.3743 72.1066 50.4268 72.1066 50.4654 72.068C50.6122 71.9212 50.6122 71.6848 50.4654 71.5381L49.5955 70.6666L52.4817 67.7805C52.6285 67.6337 52.6285 67.3973 52.4817 67.2505C52.3349 67.1037 52.0986 67.1037 51.9518 67.2505L49.0656 70.1367L48.4986 69.5712C48.3533 69.4259 48.1169 69.4229 47.9686 69.5712C47.8218 69.718 47.8218 69.9544 47.9686 70.1012L48.5325 70.6651L47.5159 71.6817C47.3846 71.8131 47.3892 72.0108 47.4927 72.1576C46.3015 72.1715 45.1118 72.1854 43.919 72.1993L44.6776 71.4407L45.2431 72.0062C45.3883 72.1515 45.6247 72.1545 45.7731 72.0062C45.9198 71.8594 45.9198 71.623 45.7731 71.4763L45.2076 70.9108L47.006 69.1123C47.1528 68.9655 47.1528 68.7291 47.006 68.5824C46.8592 68.4356 46.6228 68.4356 46.4761 68.5824L44.6761 70.3808L43.25 68.9547C43.1016 68.8064 42.8652 68.8095 42.72 68.9547C42.5732 69.1015 42.5732 69.3379 42.72 69.4847L44.1461 70.9108L42.8931 72.1638C42.8807 72.1762 42.8838 72.1963 42.873 72.2102C41.5195 72.2256 40.1691 72.2411 38.8141 72.2565L39.8616 71.209L40.6882 72.0356C40.8335 72.1808 41.0714 72.1824 41.2182 72.0356C41.365 71.8888 41.365 71.6524 41.2182 71.5056L40.3916 70.679L40.5786 70.4921C40.7253 70.3453 40.7253 70.1089 40.5786 69.9621C40.4318 69.8153 40.1954 69.8153 40.0486 69.9621L39.8616 70.149L39.0659 69.3533C38.9192 69.2066 38.6828 69.2066 38.536 69.3533C38.3892 69.5001 38.3892 69.7365 38.536 69.8833L39.3317 70.679L37.9133 72.0974L36.8395 71.0236L37.2397 70.6234C37.3864 70.4766 37.3864 70.2402 37.2397 70.0934C37.0944 69.9482 36.858 69.9451 36.7097 70.0934L36.3095 70.4936L35.6282 69.8122C35.4829 69.667 35.2465 69.6639 35.0982 69.8122C34.9514 69.959 34.9514 70.1954 35.0982 70.3422L35.778 71.0236L34.4941 72.3075C34.4941 72.3075 29.1373 72.3801 19.1748 72.4929L19.0187 72.4945H19.0172L14.3758 72.5485ZM96.3508 56.5664C96.2812 57.4996 96.1901 58.4575 96.0727 59.4155L93.4538 56.7981C93.5511 56.7981 93.6454 56.7611 93.7195 56.6884L95.9413 54.4666L96.4512 54.9765C96.4126 55.5034 96.3894 56.038 96.3508 56.5664ZM94.9401 64.4632L91.9489 61.472L94.2696 59.1513C94.3916 59.0292 94.387 58.8531 94.3066 58.7094L95.9444 60.3456C95.7281 61.7671 95.416 63.1623 94.9401 64.4632ZM84.7875 70.2896L82.6028 68.1049L84.9374 65.7703L87.0448 67.8778L84.8987 70.0254C84.8246 70.0965 84.7875 70.1938 84.7875 70.2896ZM85.4673 65.2388L87.1978 63.5084L89.3037 65.6158L87.5732 67.3463L85.4673 65.2388ZM78.7571 65.3192L81.5429 68.1049L79.9638 69.684L77.1781 66.8982L78.7571 65.3192ZM64.85 71.9104C64.8793 71.9398 64.9226 71.9382 64.9581 71.9552C64.3231 71.963 63.6835 71.9691 63.0484 71.9769C63.1875 71.8301 63.189 71.5999 63.0453 71.4562L61.199 69.6098L62.8244 67.9844C62.8414 68.0385 62.846 68.0987 62.8893 68.142L65.4881 70.7408L64.8484 71.3805C64.7032 71.5272 64.7032 71.7636 64.85 71.9104ZM53.9264 71.6879C54.0716 71.8332 54.3095 71.8347 54.4563 71.6879C54.6031 71.5412 54.6031 71.3047 54.4563 71.158L54.2663 70.9679L55.6955 69.5387L57.9204 71.7652C57.9791 71.8239 58.0563 71.8409 58.132 71.8532C58.1428 71.9181 58.1629 71.9815 58.2077 72.0356C56.5205 72.0557 54.8287 72.0742 53.1415 72.0943L53.7363 71.4994L53.9264 71.6879ZM62.5123 71.9846C61.2701 72 60.0247 72.0124 58.7825 72.0278L60.669 70.1413L62.5123 71.9846ZM50.0792 72.1283C49.4225 72.136 48.7659 72.1437 48.1092 72.1515L49.064 71.1966L49.9339 72.068C49.9725 72.1082 50.0282 72.1097 50.0792 72.1283ZM37.0342 72.2781C36.5444 72.2843 36.0592 72.289 35.5695 72.2951L36.3111 71.5551L37.0342 72.2781ZM28.1392 75.2215L27.2323 74.3145L27.6541 73.8927C28.0512 73.8881 28.4467 73.8835 28.8422 73.8788L29.1621 74.1987L28.1392 75.2215ZM25.2067 75.2787C25.1464 75.3389 25.1279 75.4162 25.1171 75.4934L24.1221 74.4984L24.6937 73.9267C24.8251 73.9252 24.9564 73.9236 25.0877 73.9221C25.3149 73.919 25.5435 73.9159 25.7706 73.9144L26.1708 74.3145L25.2067 75.2787ZM20.4943 73.9777C21.1664 73.97 21.8446 73.9607 22.5167 73.953L23.0621 74.4984L22.0393 75.5212L20.4943 73.9777ZM23.5643 73.9406H23.6215L23.5921 73.97L23.5643 73.9406ZM17.4427 80.535C17.5942 80.1193 17.7502 79.7037 17.9078 79.285C17.9124 79.2711 17.9186 79.2557 17.9233 79.2418L18.3296 79.6481L17.4427 80.535ZM18.8611 79.1181L18.206 78.463C18.206 78.4615 18.2076 78.46 18.2076 78.4584C18.2106 78.4553 18.2168 78.4569 18.2199 78.4538L19.2536 77.4201L19.8515 78.0181C19.8824 78.049 19.9272 78.0474 19.9658 78.066C19.938 78.0814 19.9025 78.0783 19.8778 78.1015L18.8611 79.1181ZM29.1234 86.2054C28.2798 89.6339 27.0191 93.274 24.0618 94.2737C22.441 94.8206 20.9964 94.3 20.0647 93.7684C18.2462 92.7348 16.7907 90.7339 16.355 88.6775C15.8699 86.3367 16.2438 84.2292 16.8989 82.1387L17.4458 81.5918C17.4536 81.5918 17.4597 81.6011 17.4675 81.6011C17.5648 81.6011 17.6591 81.564 17.7332 81.4914C17.812 81.4126 17.8414 81.3075 17.8336 81.204L20.4077 78.6299C20.5545 78.4831 20.5545 78.2467 20.4077 78.0999C20.3768 78.069 20.332 78.0706 20.2934 78.0521C20.3212 78.0366 20.3567 78.0397 20.3815 78.0165C20.5282 77.8697 20.5282 77.6333 20.3815 77.4866L19.7835 76.8886L20.6148 76.0574C20.7615 75.9106 20.7615 75.6742 20.6148 75.5274C20.468 75.3806 20.2316 75.3806 20.0848 75.5274L19.2536 76.3587L19.0187 76.1238C19.2149 75.4934 19.4034 74.8368 19.5827 74.1276L21.5789 76.1238C21.5727 76.2273 21.6005 76.3308 21.6793 76.4112C21.7519 76.4838 21.8477 76.5209 21.9451 76.5209C21.9528 76.5209 21.959 76.5132 21.9667 76.5116L22.2155 76.7604C22.3607 76.9056 22.5986 76.9072 22.7454 76.7604C22.8922 76.6136 22.8922 76.3772 22.7454 76.2304L22.5677 76.0527L23.5906 75.0299L24.788 76.2273C24.9348 76.3741 25.1727 76.3726 25.3179 76.2273C25.4106 76.1346 25.423 76.0095 25.3983 75.889C25.4246 75.8936 25.4446 75.9183 25.4709 75.9183C25.5682 75.9183 25.6625 75.8812 25.7367 75.8086L26.7008 74.8445L27.7406 75.8843C27.8936 76.0373 28.0388 76.0079 28.1887 75.9183C28.2273 75.9322 28.2597 75.9647 28.3015 75.9647C28.3988 75.9647 28.4931 75.9276 28.5672 75.855L29.6936 74.7286L30.2297 75.2648L29.984 75.5104C29.8373 75.6572 29.8373 75.8936 29.984 76.0404C30.1293 76.1856 30.3672 76.1872 30.514 76.0404L30.7597 75.7947L31.0177 76.0527C31.1629 76.198 31.4009 76.1995 31.5476 76.0527C31.6944 75.906 31.6944 75.6696 31.5476 75.5228L31.2896 75.2648L31.9864 74.5679L29.1234 86.2054ZM32.0961 74.1291C32.0776 74.0812 32.0761 74.0272 32.0374 73.9885C31.8906 73.8418 31.6543 73.8418 31.5075 73.9885L30.7612 74.7348L30.2251 74.1987L30.2436 74.1801C30.3317 74.092 30.3487 73.9746 30.3317 73.8603C30.9435 73.8526 31.5569 73.8464 32.1688 73.8387L32.0961 74.1291ZM71.7641 73.3782L71.2759 73.8665L70.7985 73.389C71.1199 73.386 71.4428 73.3829 71.7641 73.3782ZM77.5705 73.3133C77.518 73.3319 77.4593 73.335 77.4175 73.3767L76.3252 74.469L75.1957 73.3411C75.9883 73.3319 76.7794 73.3226 77.5705 73.3133ZM69.7494 73.4014L70.7459 74.398L70.4462 74.6977C70.2994 74.8445 70.2994 75.0809 70.4462 75.2277C70.5914 75.3729 70.8294 75.3745 70.9762 75.2277L71.2759 74.9279L72.478 76.13L71.1245 77.4835L70.0553 76.4143C69.8096 75.4115 69.5593 74.4088 69.3137 73.406C69.4604 73.4045 69.6057 73.4029 69.7494 73.4014ZM71.0658 80.5164C70.9391 80.005 70.8139 79.4936 70.6872 78.9822L71.1245 78.5449L72.6665 80.0869L71.6514 81.102L71.0658 80.5164ZM70.4787 78.1309C70.4539 78.0273 70.4277 77.9254 70.4029 77.8218L70.5945 78.0134L70.4787 78.1309ZM85.2247 88.6759C84.789 90.7355 83.3351 92.7333 81.5181 93.77C80.5834 94.3015 79.1326 94.8222 77.5195 94.2752C73.7696 93.0052 72.8102 87.5805 71.8584 83.7286C71.741 83.2543 71.6251 82.7815 71.5092 82.3087L71.6544 82.1635L72.1473 82.6563C72.2926 82.8016 72.5305 82.8031 72.6773 82.6563C72.8241 82.5096 72.8241 82.2732 72.6773 82.1264L72.1844 81.6335L73.6028 80.2151C73.7495 80.0684 73.7495 79.832 73.6028 79.6852C73.5054 79.5878 73.3756 79.5801 73.252 79.611L71.6575 78.0165L73.011 76.663L73.2783 76.9303C73.4251 77.0771 73.6615 77.0771 73.8083 76.9303C73.955 76.7836 73.955 76.5472 73.8083 76.4004L71.8074 74.3995L72.838 73.369C73.2752 73.3643 73.7125 73.3597 74.1482 73.3535L75.7952 75.0021L75.5712 75.2261C75.4244 75.3729 75.4244 75.6093 75.5712 75.7561C75.7164 75.9013 75.9544 75.9029 76.1011 75.7561L76.3252 75.5321L76.5508 75.7576C76.6991 75.906 76.937 75.9029 77.0807 75.7576C77.2275 75.6108 77.2275 75.3745 77.0807 75.2277L76.8551 75.0021L77.9475 73.9097C78.0943 73.763 78.0943 73.5266 77.9475 73.3798C77.9042 73.3365 77.844 73.3319 77.7884 73.3133C78.1144 73.3087 78.4404 73.3072 78.7679 73.3025L79.3751 73.9097L78.6598 74.6251C78.513 74.7719 78.513 75.0083 78.6598 75.1551C78.805 75.3003 79.0429 75.3018 79.1897 75.1551L79.9051 74.4397L80.2836 74.8182C80.4289 74.9635 80.6653 74.9666 80.8136 74.8182C80.9604 74.6714 80.9604 74.4351 80.8136 74.2883L80.3887 73.8634C80.4304 73.7336 80.4258 73.5945 80.3238 73.491C80.2203 73.3875 80.0812 73.3844 79.9514 73.4261L79.817 73.2917C79.9221 73.2902 80.0272 73.2902 80.1322 73.2886C80.6823 73.2778 81.2308 73.2701 81.7854 73.2546C82.0867 74.5571 82.4096 75.7144 82.7619 76.7727C84.1308 80.8702 86.1193 84.3791 85.2247 88.6759ZM68.3526 71.9166C67.3298 71.929 66.3023 71.9398 65.2811 71.9521C65.3135 71.9351 65.3537 71.9382 65.3815 71.9104L66.0211 71.2708L66.5125 71.7621C66.6577 71.9073 66.8956 71.9089 67.0424 71.7621C67.1892 71.6153 67.1892 71.3789 67.0424 71.2321L66.5511 70.7408L68.3573 68.9346L70.9607 71.5396C71.109 71.6879 71.347 71.6848 71.4907 71.5396C71.6375 71.3928 71.6375 71.1564 71.4907 71.0096L68.8857 68.4047L71.0271 66.2632C70.8866 66.41 70.8865 66.6417 71.0302 66.7854L73.629 69.3842L72.3868 70.6265C72.24 70.7733 72.24 71.0096 72.3868 71.1564C72.532 71.3017 72.77 71.3032 72.9168 71.1564L74.159 69.9142L75.0999 70.8551C75.2452 71.0004 75.4831 71.0019 75.6299 70.8551C75.7767 70.7084 75.7767 70.472 75.6299 70.3252L74.6889 69.3842L76.645 67.4282L79.4308 70.2139L79.3195 70.3267C79.1727 70.4735 79.1727 70.7099 79.3195 70.8567C79.4648 71.0019 79.7027 71.0035 79.8495 70.8567L79.9607 70.7439L80.4211 71.2043C80.7703 71.5535 81.3049 71.0266 80.9511 70.6744L80.4907 70.2139L82.0697 68.6349L84.772 71.3372C84.9173 71.4824 85.1552 71.484 85.302 71.3372C85.4488 71.1904 85.4488 70.954 85.302 70.8072L85.1599 70.6651C85.2572 70.6651 85.3514 70.628 85.4256 70.5554L87.5717 68.4078L89.3454 70.1815C89.4181 70.2541 89.5139 70.2912 89.6112 70.2912C89.7085 70.2912 89.8028 70.2541 89.8769 70.1815C90.0237 70.0347 90.0237 69.7983 89.8769 69.6515L88.1032 67.8778L89.8337 66.1473L92.312 68.6256C92.2594 68.6735 92.2208 68.7322 92.1683 68.7801C88.2654 72.2519 82.8963 71.7698 68.3526 71.9166ZM92.8234 68.0756L90.3652 65.6158L92.6055 63.3739C92.6411 63.3384 92.6411 63.2874 92.6596 63.2442L94.6327 65.2172C94.1753 66.2709 93.5805 67.2335 92.8234 68.0756ZM96.4697 53.9351L96.5068 53.8981C96.5145 53.8903 96.5115 53.878 96.5192 53.8687C96.5176 53.9042 96.5145 53.9398 96.513 53.9753L96.4697 53.9351Z" fill="white"/>
<path d="M22.388 50.671C24.0644 50.671 25.8412 50.396 27.6644 49.846C28.0599 49.727 28.2855 49.3083 28.165 48.9112C28.046 48.5157 27.6335 48.2916 27.2302 48.4106C24.1803 49.3299 21.2972 49.4195 18.9023 48.6671C16.1398 47.8049 13.938 45.6728 13.2938 43.2377C12.5908 40.591 13.8793 37.6322 16.166 36.6418C17.0035 36.2788 18.0387 36.254 18.8622 36.58C19.2623 36.7392 19.7954 37.0575 20.0611 37.6724C20.5447 38.7957 19.7861 40.2032 18.7741 40.8166C17.4855 41.5938 15.8246 41.498 14.658 41.2832C14.2579 41.2091 13.8593 41.4733 13.7835 41.8827C13.7078 42.2906 13.9751 42.6815 14.383 42.7572C16.4194 43.1373 18.2102 42.9117 19.5513 42.1006C21.1319 41.1473 22.2706 39.0073 21.4393 37.0791C21.0685 36.2185 20.3702 35.5649 19.4169 35.1864C18.2225 34.7136 16.781 34.743 15.5696 35.2652C12.6309 36.5399 10.9592 40.2897 11.8445 43.6225C12.6309 46.5874 15.1633 49.0704 18.4558 50.1009C19.6733 50.481 20.9959 50.671 22.388 50.671Z" fill="white"/>
<path d="M36.4915 40.9932C36.8808 40.9932 37.2115 40.6919 37.2377 40.2964C37.2671 39.8839 36.955 39.5239 36.5425 39.4945L27.1778 38.8348C26.7993 38.7992 26.4053 39.116 26.3759 39.53C26.3466 39.9426 26.6587 40.3026 27.0712 40.3319L36.4359 40.9917C36.4559 40.9932 36.4729 40.9932 36.4915 40.9932Z" fill="white"/>
<path d="M37.848 45.7383C37.8418 45.7383 37.8356 45.7383 37.8325 45.7383L30.5089 45.9021C30.0964 45.9129 29.7673 46.2559 29.7766 46.67C29.7858 47.0779 30.1196 47.4023 30.5259 47.4023H30.5429L37.8634 47.2385C38.2775 47.2293 38.6066 46.8863 38.5973 46.4722C38.5896 46.0643 38.2559 45.7383 37.848 45.7383Z" fill="white"/>
<path d="M40.6523 35.3736C40.2537 35.3195 39.8674 35.6161 39.818 36.0271C39.7685 36.4381 40.0605 36.812 40.4715 36.8615C42.2792 37.0809 43.9634 38.116 44.9785 39.6271C45.8113 40.8678 46.2624 42.5226 46.2871 44.4106C46.3103 46.1643 45.9889 47.9535 45.6753 49.6839C45.6027 50.0918 45.8731 50.4827 46.281 50.5554C46.3258 50.5631 46.3706 50.5677 46.4154 50.5677C46.7692 50.5677 47.0859 50.3143 47.1524 49.9512C47.4768 48.1512 47.8152 46.2894 47.7874 44.3906C47.7642 42.6199 47.3872 41.0254 46.7198 39.6889C47.3332 39.0956 47.9728 38.5147 48.6851 38.1191C49.5457 37.6463 50.448 37.5057 51.1711 37.7344C52.3407 38.1068 53.1766 39.4154 53.6509 41.6249C54.3477 44.8695 54.4698 48.1806 54.0156 51.4654C53.9584 51.8764 54.2458 52.2534 54.6552 52.3106C54.6908 52.3152 54.7247 52.3183 54.7587 52.3183C55.1265 52.3183 55.4494 52.0464 55.5004 51.6709C55.9793 48.213 55.8511 44.7289 55.1187 41.3112C55.0044 40.7766 54.8607 40.2961 54.7031 39.8434C55.386 38.7665 56.1168 38.0002 56.9388 37.5397C57.9524 36.9696 59.1591 36.8924 60.0181 37.3481C61.4195 38.0898 61.8815 40.0566 62.1055 41.4719C62.6154 44.664 62.7158 47.921 62.4037 51.1502C62.3635 51.5612 62.6664 51.9289 63.0789 51.9691C63.1036 51.9706 63.1268 51.9722 63.1531 51.9722C63.5332 51.9722 63.8607 51.6817 63.8993 51.2939C64.2223 47.938 64.1172 44.5543 63.5888 41.2355C63.3138 39.502 62.7158 37.0762 60.7211 36.0225C59.4078 35.3287 57.6805 35.406 56.2065 36.2326C55.3845 36.6946 54.6459 37.3682 53.9692 38.2628C53.3574 37.274 52.5786 36.6096 51.6284 36.3068C50.499 35.9514 49.1996 36.126 47.962 36.8089C47.1848 37.2384 46.5313 37.8009 45.9163 38.3833C44.6417 36.7394 42.715 35.6239 40.6523 35.3736Z" fill="white"/>
<path d="M69.3707 47.9333C69.468 47.9812 69.5747 48.0044 69.6782 48.0044C69.9702 48.0044 70.2622 47.8282 70.3997 47.5563L70.5295 47.2921C70.7118 46.9197 70.5558 46.4717 70.1834 46.2893C69.8172 46.1117 69.363 46.2615 69.1807 46.6354L69.0571 46.8826L69.0138 46.9692C68.8299 47.34 69.0014 47.7479 69.3707 47.9333Z" fill="white"/>
<path d="M83.5532 48.7876C83.9394 48.6362 84.1295 48.202 83.9796 47.8157C83.8282 47.4295 83.394 47.2379 83.0078 47.3893C80.9219 48.202 78.2567 47.329 77.0639 45.4379C75.8696 43.5467 76.2249 40.7625 77.855 39.2298C79.4866 37.6986 82.2878 37.521 84.1001 38.8343C84.437 39.0753 84.9051 39.0027 85.1477 38.6659C85.3903 38.3306 85.3145 37.8624 84.9793 37.6183C82.5736 35.8786 78.9921 36.1041 76.8306 38.1374C74.666 40.1708 74.2117 43.729 75.7969 46.2382C77.3791 48.749 80.786 49.8691 83.5532 48.7876Z" fill="white"/>
<path d="M83.3369 27.2101C83.615 26.9907 84.0785 26.9721 84.3721 27.1745C84.6641 27.3785 84.8093 27.8188 84.6996 28.1572C84.5976 28.4693 84.3041 28.7752 83.9935 29.1012C83.513 29.6034 82.9166 30.2291 82.8811 31.1314C82.8363 32.3876 83.9255 33.2914 84.9746 33.5046C85.2172 33.5525 85.4582 33.5742 85.6962 33.5742C86.4162 33.5742 87.0975 33.3857 87.6754 33.225C88.074 33.1153 88.3089 32.7012 88.1976 32.3026C88.0895 31.9055 87.68 31.6691 87.2752 31.7819C86.6325 31.9611 85.897 32.1651 85.2759 32.0353C84.8418 31.9472 84.369 31.578 84.3844 31.1886C84.3968 30.8549 84.7135 30.5242 85.0797 30.138C85.4721 29.727 85.9171 29.2619 86.1257 28.6269C86.4455 27.6535 86.0685 26.5256 85.2296 25.9446C84.389 25.3591 83.1993 25.3992 82.4006 26.042C82.0761 26.3 82.0251 26.7728 82.2847 27.0957C82.5458 27.4186 83.017 27.4696 83.3369 27.2101Z" fill="white"/>
<path d="M12.3886 22.5075C12.4272 22.5214 12.4659 22.526 12.506 22.526C12.6621 22.526 12.8104 22.4271 12.8614 22.268C12.9263 22.0718 12.8197 21.8585 12.6219 21.7952C12.0889 21.6191 11.5867 21.3579 11.1031 21.0628C11.8308 19.884 12.8598 18.8163 14.116 17.9619C14.6938 18.3945 15.3227 18.7622 15.984 19.0481C16.0334 19.0682 16.0828 19.079 16.1338 19.079C16.2791 19.079 16.4166 18.994 16.4784 18.8534C16.5603 18.6633 16.4722 18.4409 16.2837 18.359C15.763 18.1349 15.2717 17.8476 14.8066 17.5231C16.6174 16.4663 18.6368 15.856 20.6902 15.4573C21.4118 16.4292 22.4532 17.1662 23.6336 17.4659C23.6645 17.4736 23.6954 17.4783 23.7263 17.4783C23.8932 17.4783 24.0477 17.3655 24.0894 17.1955C24.1404 16.9947 24.0198 16.7907 23.819 16.7397C22.9275 16.5126 22.1349 15.9904 21.5338 15.3013C22.2523 15.1792 22.9723 15.0773 23.6846 14.9876C25.191 14.7991 26.7083 14.6616 28.2286 14.5442L28.7277 16.4014C28.7725 16.5682 28.9239 16.6779 29.0892 16.6779C29.1217 16.6779 29.1541 16.6733 29.1865 16.664C29.3859 16.61 29.5048 16.4045 29.4508 16.2036L28.9872 14.4809C30.8166 14.3526 32.6475 14.2692 34.4784 14.212C34.5155 14.8022 34.6283 15.3878 34.8245 15.9409C34.8786 16.0955 35.0238 16.1897 35.1768 16.1897C35.22 16.1897 35.2617 16.182 35.3035 16.1681C35.4981 16.0985 35.6017 15.8838 35.5306 15.6891C35.3606 15.2101 35.2633 14.7049 35.2277 14.195C36.385 14.1626 37.5423 14.1301 38.6933 14.1147C38.8571 14.7497 39.0842 15.3693 39.3824 15.9487C39.4504 16.0769 39.5802 16.1526 39.7162 16.1526C39.7749 16.1526 39.832 16.1387 39.8877 16.1109C40.0715 16.0151 40.1441 15.7895 40.0499 15.6057C39.8058 15.1298 39.6111 14.6245 39.4643 14.1054C40.9321 14.0884 42.3968 14.0776 43.8477 14.0683C44.0547 14.0668 44.2216 13.8984 44.22 13.6913C44.2185 13.4843 44.0516 13.3174 43.8446 13.3174C43.8446 13.3174 43.843 13.3174 43.8415 13.3174C42.3366 13.3267 40.8162 13.3375 39.2913 13.3561C39.2341 13.0409 39.1877 12.7241 39.1677 12.4074C39.1553 12.2003 38.9869 12.0273 38.7706 12.0567C38.5635 12.069 38.4075 12.2467 38.4199 12.4537C38.4384 12.7597 38.4739 13.064 38.5265 13.3669C37.4295 13.3823 36.3278 13.4132 35.2262 13.4441C35.2478 13.1088 35.288 12.7767 35.3668 12.4522C35.4178 12.2498 35.2942 12.0474 35.0949 11.9979C34.8863 11.9408 34.6885 12.0706 34.6406 12.2699C34.5433 12.6592 34.5 13.0579 34.4784 13.4596C32.5811 13.5198 30.6822 13.6033 28.7848 13.7392L28.4774 12.5974C28.4233 12.3981 28.224 12.2807 28.0169 12.3332C27.8176 12.3873 27.6986 12.5928 27.7527 12.7936L28.0247 13.8072C26.5414 13.9231 25.0581 14.056 23.5841 14.2414C22.7405 14.348 21.8877 14.47 21.0363 14.623C20.7845 14.2012 20.5929 13.7439 20.4925 13.2603C20.4507 13.0579 20.2561 12.9358 20.049 12.9682C19.8466 13.01 19.7168 13.2077 19.757 13.4117C19.8559 13.8891 20.0259 14.348 20.2545 14.7744C18.1316 15.207 16.0411 15.8699 14.1608 17.0209C13.8023 16.7166 13.4593 16.3921 13.1565 16.0321C13.0221 15.8745 12.7857 15.8544 12.6281 15.9873C12.4705 16.1202 12.4489 16.3581 12.5833 16.5157C12.8691 16.8556 13.1874 17.1662 13.5196 17.4613C12.2619 18.3497 11.2267 19.4421 10.4774 20.6488C9.73109 20.0879 9.07907 19.4019 8.59083 18.617C8.47959 18.4409 8.24937 18.3883 8.07323 18.4949C7.8971 18.6046 7.84302 18.8364 7.95117 19.0125C8.50585 19.904 9.25521 20.675 10.1096 21.3008C9.40199 22.6635 9.03117 24.1267 9.12079 25.5574C9.13469 25.7567 9.30001 25.9097 9.49624 25.9097H9.51941C9.72645 25.8958 9.8825 25.7181 9.87014 25.5111C9.7898 24.2395 10.1158 22.937 10.7369 21.7149C11.2669 22.0362 11.8107 22.3174 12.3886 22.5075Z" fill="white"/>
<path d="M56.8402 26.0712L59.4715 23.4384L60.122 24.0888C60.2672 24.2341 60.5051 24.2356 60.6519 24.0888C60.7987 23.9421 60.7987 23.7057 60.6519 23.5589L60.0014 22.9084L61.9529 20.9554L62.6033 21.6059C62.7486 21.7512 62.9865 21.7527 63.1333 21.6059C63.2801 21.4591 63.2801 21.2227 63.1333 21.076L62.4828 20.4255L64.0495 18.8588C64.1963 18.712 64.1963 18.4756 64.0495 18.3288C63.9027 18.1821 63.6663 18.1821 63.5196 18.3288L61.9529 19.8955L60.6457 18.5884C60.499 18.4416 60.2626 18.4416 60.1158 18.5884C59.969 18.7352 59.969 18.9716 60.1158 19.1184L61.4229 20.4255L59.4715 22.3785L57.999 20.906C57.8523 20.7592 57.6159 20.7592 57.4691 20.906C57.3223 21.0528 57.3223 21.2892 57.4691 21.436L58.9415 22.9084L56.3103 25.5412C56.1635 25.688 56.1635 25.9244 56.3103 26.0712C56.4555 26.2164 56.6919 26.2179 56.8402 26.0712Z" fill="white"/>
<path d="M18.819 61.4096C18.9643 61.5548 19.2022 61.5564 19.349 61.4096C19.4958 61.2628 19.4958 61.0264 19.349 60.8796L18.6197 60.1504L20.6546 58.1155L21.1722 58.6331C21.3174 58.7784 21.5554 58.7799 21.7021 58.6331C21.8489 58.4863 21.8489 58.25 21.7021 58.1032L21.1845 57.5856L21.835 56.9351C21.9818 56.7883 21.9818 56.5519 21.835 56.4051C21.6898 56.2584 21.4518 56.2584 21.3051 56.4051L20.6561 57.0541L19.4309 55.8288C19.2841 55.6821 19.0477 55.6821 18.9009 55.8288C18.7542 55.9756 18.7542 56.212 18.9009 56.3588L20.1262 57.5825L18.0913 59.6173L16.4535 57.9796C16.3068 57.8328 16.0704 57.8328 15.9236 57.9796C15.7768 58.1263 15.7768 58.3627 15.9236 58.5095L17.5614 60.1473L15.0954 62.6132C14.9487 62.76 14.9487 62.9964 15.0954 63.1432C15.2438 63.2915 15.4817 63.2884 15.6254 63.1432L18.0913 60.6773L18.819 61.4096Z" fill="white"/>
</svg>
