<svg width="104" height="100" viewBox="0 0 104 100" fill="none" xmlns="http://www.w3.org/2000/svg">
<path d="M0.648446 71.5236C-1.75458 65.0838 2.88664 57.9103 8.56535 54.961C14.0501 52.1103 20.4722 51.9213 26.6535 51.9407C27.4599 34.7639 26.6309 17.2398 24.2521 1.20717C24.2198 0.995471 24.2747 0.778924 24.4024 0.607625C24.5301 0.434711 24.7224 0.319973 24.9341 0.289268C26.2463 0.0985774 27.6134 0 28.9984 0C46.1492 0 66.8505 14.402 57.5939 49.5392C57.4824 49.9643 57.0477 50.2277 56.6275 50.1194C55.2717 49.801 54.7109 49.6152 53.4617 49.3211C53.2484 49.2726 53.0642 49.1368 52.9511 48.9462C52.8396 48.7587 52.8089 48.5308 52.8671 48.3191C56.6437 34.5878 44.0775 21.4301 33.4263 22.4062C38.4521 40.079 32.9948 63.9477 25.3462 72.6371C16.353 82.8584 3.66718 79.6183 0.648446 71.5236ZM26.1202 53.5551C20.3785 53.5551 14.3507 53.7748 9.30872 56.3944C4.24087 59.0285 0.0666768 65.3456 2.16104 70.9596C5.48198 79.8607 23.3019 82.553 30.351 59.4681C34.4072 46.1892 34.8661 32.5225 31.6131 21.9731C31.5452 21.7501 31.5743 21.5109 31.6955 21.3121C32.691 19.6961 43.3083 20.2714 50.359 29.5215C54.5477 35.0176 56.0829 41.687 54.6301 47.9458C55.0907 48.0606 55.6692 48.2206 56.23 48.3628C64.6721 14.9757 45.1182 1.61764 28.9984 1.61764C27.9706 1.61764 26.9557 1.6742 25.9683 1.78571C28.3051 17.9379 29.0856 35.5542 28.2291 52.7907C28.2081 53.2222 27.8526 53.5599 27.4211 53.5599C27.4211 53.5599 27.4195 53.5599 27.4179 53.5599L26.1202 53.5551Z" fill="white"/>
<path d="M50.2116 100.001C40.8112 100.001 35.9147 90.4116 45.3167 83.6712C49.9692 80.3357 56.1037 78.8926 61.7904 79.7976C61.7145 66.9696 61.3541 54.5391 61.2943 41.7547C61.2927 41.3992 61.5238 41.0841 61.8648 40.9806C76.2425 36.5544 89.7864 31.5334 102.123 26.0583C102.658 25.8223 103.256 26.2118 103.259 26.7936C103.443 66.4573 103.98 70.3794 101.512 76.9291C98.9396 83.76 92.9474 89.1252 85.8741 90.9287C72.5758 94.3256 67.8344 80.5959 79.7041 73.3189C83.9865 70.6929 89.8511 69.4211 95.0902 69.9834C94.2774 60.9725 94.161 52.831 94.7396 45.1791C86.6158 50.0078 77.2768 53.3707 67.5968 54.9512C66.6918 66.6302 70.8434 80.7478 64.006 91.7319C60.8742 96.7529 55.4605 100.001 50.2116 100.001ZM58.3467 81.1405C54.0061 81.1405 49.7139 82.506 46.2588 84.9834C39.2372 90.0189 41.3736 96.4862 47.5678 98.0586C52.8247 99.387 59.2905 96.239 62.6324 90.8738C69.2435 80.25 64.9223 66.1842 66.0374 54.1739C66.0713 53.8038 66.3525 53.5064 66.7177 53.4499C76.9552 51.8646 86.8194 48.2414 95.2438 42.9748C95.8126 42.6209 96.535 43.0718 96.4768 43.7311C95.7383 52.0246 95.8401 60.8901 96.7887 70.8351C96.8129 71.084 96.7208 71.3296 96.5398 71.4993C96.3588 71.6706 96.1019 71.7498 95.8627 71.711C90.7625 70.9304 84.7929 72.0907 80.546 74.6958C70.218 81.029 74.0286 92.283 85.4717 89.3628C92.0408 87.6886 97.6064 82.7048 99.9965 76.3603C102.333 70.1547 101.824 66.5849 101.645 28.0331C89.7218 33.269 76.6983 38.0815 62.9103 42.3478C62.9798 55.2518 63.3483 67.8067 63.4081 80.7656C63.4081 81.008 63.2998 81.2407 63.1107 81.3942C62.9217 81.5509 62.676 81.6091 62.4352 81.5606C61.1085 81.2811 59.7316 81.1405 58.3467 81.1405Z" fill="white"/>
<path d="M11.809 78.6073L6.50354 73.3002C6.34517 73.1419 6.34517 72.8865 6.50354 72.7282C6.66191 72.5698 6.91725 72.5698 7.07562 72.7282L12.3826 78.0336C12.541 78.1919 12.541 78.4473 12.3826 78.6056C12.2227 78.764 11.9673 78.764 11.809 78.6073Z" fill="white"/>
<path d="M16.5389 76.4928L10.7955 70.7494C10.6372 70.5911 10.6372 70.3357 10.7955 70.1774C10.9539 70.019 11.2092 70.019 11.3676 70.1774L17.111 75.9207C17.2693 76.0791 17.2693 76.3344 17.111 76.4928C16.9526 76.6512 16.6956 76.6512 16.5389 76.4928Z" fill="white"/>
<path d="M18.8432 74.1973L14.9276 70.2817C14.5527 69.9067 15.1199 69.3314 15.4997 69.7096L19.4153 73.6252C19.5737 73.7836 19.5737 74.0389 19.4153 74.1973C19.2569 74.3557 19.0016 74.3557 18.8432 74.1973Z" fill="white"/>
<path d="M22.641 70.5148L19.0631 66.9369C18.9047 66.7786 18.9047 66.5232 19.0631 66.3649C19.2215 66.2065 19.4768 66.2065 19.6352 66.3649L23.2131 69.9428C23.3714 70.1011 23.3714 70.3565 23.2131 70.5148C23.0531 70.6716 22.7977 70.6716 22.641 70.5148Z" fill="white"/>
<path d="M25.1073 67.5801L21.9237 64.3949C21.5488 64.02 22.116 63.4447 22.4958 63.8229L25.6793 67.008C25.8377 67.1664 25.8377 67.4217 25.6793 67.5801C25.521 67.7385 25.2656 67.7385 25.1073 67.5801Z" fill="white"/>
<path d="M27.5676 63.8392L24.1481 60.4213C23.9897 60.2629 23.9897 60.0076 24.1481 59.8492C24.3064 59.6909 24.5618 59.6909 24.7201 59.8492L28.1397 63.2671C28.298 63.4255 28.298 63.6808 28.1397 63.8392C27.9813 63.9976 27.726 63.9976 27.5676 63.8392Z" fill="white"/>
<path d="M28.84 60.6608L25.7389 57.558C25.5805 57.3997 25.5805 57.1443 25.7389 56.986C25.8973 56.8276 26.1526 56.8276 26.311 56.986L29.4121 60.0887C29.7951 60.4717 29.2117 61.0309 28.84 60.6608Z" fill="white"/>
<path d="M29.6831 58.0101L27.1686 55.4955C27.0102 55.3372 27.0102 55.0818 27.1686 54.9235C27.327 54.7651 27.5823 54.7651 27.7407 54.9235L30.2552 57.438C30.4136 57.5964 30.4136 57.8517 30.2552 58.0101C30.0968 58.1668 29.8415 58.1668 29.6831 58.0101Z" fill="white"/>
<path d="M31.4633 53.2649L29.3964 51.1996C29.0215 50.8247 29.5887 50.2494 29.9668 50.6276L32.0337 52.6928C32.1921 52.8512 32.1921 53.1065 32.0337 53.2649C31.877 53.4233 31.6216 53.4233 31.4633 53.2649Z" fill="white"/>
<path d="M31.0681 48.5775L29.8739 47.3832C29.499 47.0083 30.0662 46.433 30.446 46.8111L31.6402 48.0054C31.7986 48.1638 31.7986 48.4191 31.6402 48.5775C31.4818 48.7342 31.2265 48.7342 31.0681 48.5775Z" fill="white"/>
<path d="M32.3406 43.4915L30.5096 41.6606C30.1347 41.2856 30.7019 40.7103 31.0817 41.0885L32.9127 42.9194C33.071 43.0778 33.071 43.3332 32.9127 43.4899C32.7527 43.6499 32.4973 43.6499 32.3406 43.4915Z" fill="white"/>
<path d="M32.6749 38.4188L31.1461 36.8901C30.9878 36.7317 30.9878 36.4764 31.1461 36.318C31.3045 36.1596 31.5598 36.1596 31.7166 36.318L33.2453 37.8468C33.4037 38.0051 33.4037 38.2605 33.2453 38.4188C33.087 38.5772 32.8316 38.5772 32.6749 38.4188Z" fill="white"/>
<path d="M32.9898 34.7592L31.3043 33.0737C31.146 32.9153 31.146 32.66 31.3043 32.5016C31.4627 32.3432 31.718 32.3432 31.8764 32.5016L33.5619 34.1871C33.7203 34.3455 33.7203 34.6008 33.5619 34.7592C33.4035 34.9159 33.1482 34.9159 32.9898 34.7592Z" fill="white"/>
<path d="M33.4649 30.0005L31.621 28.1567C31.2461 27.7817 31.8133 27.2064 32.1914 27.5846L34.0353 29.4285C34.1937 29.5868 34.1937 29.8422 34.0353 30.0005C33.8786 30.1573 33.6232 30.1573 33.4649 30.0005Z" fill="white"/>
<path d="M32.8121 25.2041L31.3043 23.6948C31.146 23.5364 31.146 23.2811 31.3043 23.1227C31.4627 22.9643 31.718 22.9643 31.8764 23.1227L33.3841 24.6321C33.5425 24.7904 33.5425 25.0458 33.3841 25.2041C33.2258 25.3609 32.9704 25.3609 32.8121 25.2041Z" fill="white"/>
<path d="M5.61095 76.798L14.929 67.4784C15.3039 67.1035 15.8792 67.6707 15.501 68.0505L6.18303 77.3701C5.80811 77.745 5.2328 77.1778 5.61095 76.798Z" fill="white"/>
<path d="M9.68666 77.1203L21.7374 65.068C21.8957 64.9096 22.1511 64.9096 22.3094 65.068C22.4678 65.2264 22.4678 65.4817 22.3094 65.6401L10.2587 77.6924C9.8822 78.0689 9.31013 77.4968 9.68666 77.1203Z" fill="white"/>
<path d="M14.3991 77.1868C14.2407 77.0285 14.2407 76.7731 14.3991 76.6148L26.3512 64.6626C26.7261 64.2861 27.3014 64.855 26.9216 65.2347L14.9695 77.1868C14.8128 77.3436 14.5574 77.3436 14.3991 77.1868Z" fill="white"/>
<path d="M23.1532 64.2519C22.796 64.2519 22.6134 63.8171 22.8671 63.5618L30.0326 56.3964C30.4075 56.0214 30.9828 56.5887 30.603 56.9684L23.4376 64.1323C23.36 64.2131 23.2566 64.2519 23.1532 64.2519Z" fill="white"/>
<path d="M25.8619 57.7582C25.7036 57.5998 25.7036 57.3445 25.8619 57.1861L29.4915 53.5565C29.8665 53.1816 30.4418 53.7488 30.062 54.1286L26.4324 57.7582C26.2756 57.9165 26.0187 57.9165 25.8619 57.7582Z" fill="white"/>
<path d="M28.9178 51.7092L34.1505 46.4782C34.3089 46.3198 34.5642 46.3198 34.7226 46.4782C34.8809 46.6365 34.8809 46.8919 34.7226 47.0502L29.4899 52.2813C29.1133 52.6562 28.5396 52.0874 28.9178 51.7092Z" fill="white"/>
<path d="M30.2545 45.4103L33.1827 42.4821C33.3411 42.3237 33.5964 42.3237 33.7548 42.4821C33.9132 42.6404 33.9132 42.8958 33.7548 43.0541L30.8266 45.9808C30.4517 46.3573 29.8764 45.7884 30.2545 45.4103Z" fill="white"/>
<path d="M30.5096 40.8301L32.8043 38.537C33.1792 38.1621 33.7545 38.7293 33.3764 39.1091L31.0833 41.4022C30.7051 41.7771 30.1314 41.2083 30.5096 40.8301Z" fill="white"/>
<path d="M30.9547 37.0066C30.7963 36.8482 30.7963 36.5929 30.9547 36.4361L33.2171 34.1737C33.5921 33.7988 34.1674 34.366 33.7892 34.7458L31.5268 37.0082C31.3684 37.165 31.1131 37.165 30.9547 37.0066Z" fill="white"/>
<path d="M31.02 34.0117L33.659 31.3727C33.8174 31.2143 34.0727 31.2143 34.2295 31.3727C34.3878 31.5311 34.3878 31.7864 34.2295 31.9448L31.5905 34.5837C31.2156 34.9586 30.6403 34.3898 31.02 34.0117Z" fill="white"/>
<path d="M31.2104 28.9157L32.597 27.5292C32.9735 27.1543 33.5472 27.7215 33.1691 28.1012L31.7825 29.4878C31.406 29.8627 30.8307 29.2939 31.2104 28.9157Z" fill="white"/>
<path d="M30.7643 25.985C30.6059 25.8267 30.6059 25.5713 30.7643 25.4146L31.9117 24.2672C32.07 24.1088 32.3254 24.1088 32.4837 24.2672C32.6421 24.4256 32.6421 24.6809 32.4837 24.8377L31.3364 25.985C31.178 26.1434 30.9227 26.1434 30.7643 25.985Z" fill="white"/>
<path d="M28.5478 5.28326L24.9069 1.64236C24.7485 1.48399 24.7485 1.22866 24.9069 1.0719C25.0652 0.913532 25.3206 0.913532 25.4789 1.0719L29.1198 4.71281C29.4948 5.08611 28.9275 5.66141 28.5478 5.28326Z" fill="white"/>
<path d="M32.801 4.37881C32.5279 4.37881 29.3928 1.13868 29.1989 0.944757C29.0405 0.786386 29.0405 0.531054 29.1989 0.372684C29.3572 0.214314 29.6126 0.214314 29.7709 0.372684L33.087 3.68877C33.3407 3.9441 33.1581 4.37881 32.801 4.37881Z" fill="white"/>
<path d="M36.954 4.23146L34.3667 1.64421C33.9902 1.26929 34.5591 0.693983 34.9388 1.07375L37.5261 3.661C37.6844 3.81937 37.6844 4.07471 37.5261 4.23146C37.3677 4.38983 37.1124 4.38983 36.954 4.23146Z" fill="white"/>
<path d="M40.7271 5.29298L38.3951 2.96267C38.2368 2.8043 38.2368 2.54897 38.3951 2.39222C38.5535 2.23384 38.8088 2.23384 38.9672 2.39222L41.2991 4.72252C41.6741 5.09744 41.1052 5.67274 40.7271 5.29298Z" fill="white"/>
<path d="M42.8789 5.86932L41.8124 4.80436C41.4375 4.42944 42.0047 3.85414 42.3844 4.2339L43.451 5.29886C43.6094 5.45724 43.6094 5.71257 43.451 5.87094C43.291 6.02769 43.0357 6.02769 42.8789 5.86932Z" fill="white"/>
<path d="M28.0741 8.74904L25.608 6.28298C25.4497 6.12461 25.4497 5.86928 25.608 5.71253C25.7664 5.55416 26.0217 5.55416 26.1801 5.71253L28.6462 8.17858C29.0211 8.5535 28.4522 9.12719 28.0741 8.74904Z" fill="white"/>
<path d="M27.5793 11.8517L26.2203 10.4926C25.8437 10.1177 26.4126 9.54237 26.7923 9.92052L28.1514 11.2796C28.5263 11.6561 27.9575 12.2298 27.5793 11.8517Z" fill="white"/>
<path d="M27.8282 14.6333L26.2203 13.027C25.8437 12.6521 26.4126 12.0768 26.7923 12.4566L28.4003 14.0629C28.7736 14.4378 28.2064 15.0115 27.8282 14.6333Z" fill="white"/>
<path d="M26.5709 15.6556C26.4126 15.4972 26.4126 15.2419 26.5709 15.0835L29.344 12.3104C29.7189 11.9355 30.2942 12.5027 29.9161 12.8825L27.143 15.6556C26.9846 15.8123 26.7277 15.8123 26.5709 15.6556Z" fill="white"/>
<path d="M26.3299 10.7881C25.9728 10.7881 25.7902 10.3534 26.0439 10.098L28.337 7.80651C28.7119 7.4316 29.2873 7.99882 28.9075 8.37859C28.72 8.56766 26.5982 10.7881 26.3299 10.7881Z" fill="white"/>
<path d="M26.3306 6.58244C26.2272 6.58244 26.1237 6.54365 26.0446 6.46447C25.8862 6.3061 25.8862 6.05076 26.0446 5.89239L28.1923 3.7447C28.5672 3.36816 29.1425 3.937 28.7627 4.31515C28.5753 4.50584 26.5989 6.58244 26.3306 6.58244Z" fill="white"/>
<path d="M29.9871 4.14068L32.0088 2.11903C32.3837 1.74412 32.959 2.31134 32.5808 2.68949L30.5592 4.71114C30.1827 5.08767 29.609 4.51883 29.9871 4.14068Z" fill="white"/>
<path d="M33.2274 3.96226L35.0276 2.162C35.4041 1.78709 35.9778 2.35431 35.5997 2.73246L33.7994 4.53271C33.4229 4.90924 32.8492 4.34202 33.2274 3.96226Z" fill="white"/>
<path d="M36.9077 4.05917L38.4559 2.5094C38.6143 2.35103 38.8696 2.35103 39.028 2.5094C39.1863 2.66777 39.1863 2.9231 39.028 3.08148L37.4782 4.62963C37.1033 5.00616 36.528 4.43732 36.9077 4.05917Z" fill="white"/>
<path d="M39.6219 5.10131L41.288 3.43518C41.4464 3.27681 41.7017 3.27681 41.8601 3.43518C42.0185 3.59355 42.0185 3.84889 41.8601 4.00726L40.194 5.67338C39.8174 6.0483 39.2437 5.48107 39.6219 5.10131Z" fill="white"/>
<path d="M80.6836 90.1793L77.0751 86.5707C76.7002 86.1958 77.2674 85.6205 77.6471 85.9986L81.2557 89.6072C81.4141 89.7656 81.4141 90.0209 81.2557 90.1793C81.0974 90.3361 80.842 90.3361 80.6836 90.1793Z" fill="white"/>
<path d="M83.8319 89.8541L80.2701 86.2924C80.1118 86.134 80.1118 85.8787 80.2701 85.7203C80.4285 85.562 80.6838 85.562 80.8422 85.7203L84.4039 89.2821C84.5623 89.4404 84.5623 89.6958 84.4039 89.8525C84.2456 90.0109 83.9902 90.0109 83.8319 89.8541Z" fill="white"/>
<path d="M87.3546 88.3603L84.1969 85.2026C84.0385 85.0442 84.0385 84.7889 84.1969 84.6305C84.3553 84.4721 84.6106 84.4721 84.769 84.6305L87.9267 87.7882C88.0851 87.9466 88.0851 88.2019 87.9267 88.3603C87.7683 88.5187 87.513 88.5187 87.3546 88.3603Z" fill="white"/>
<path d="M91.2022 85.8075L88.6715 83.2768C88.5131 83.1184 88.5131 82.8631 88.6715 82.7047C88.8299 82.5463 89.0852 82.5463 89.2436 82.7047L91.7743 85.2354C91.9327 85.3938 91.9327 85.6491 91.7743 85.8075C91.6159 85.9642 91.359 85.9642 91.2022 85.8075Z" fill="white"/>
<path d="M94.2896 83.7835L91.775 81.269C91.6167 81.1106 91.6167 80.8553 91.775 80.6969C91.9334 80.5385 92.1887 80.5385 92.3455 80.6969L94.86 83.2114C95.2366 83.588 94.6693 84.1617 94.2896 83.7835Z" fill="white"/>
<path d="M97.6891 81.3552C97.4257 81.3552 95.7951 79.6293 95.6092 79.4418C95.2343 79.0669 95.8016 78.4916 96.1813 78.8697L97.9751 80.6635C98.1335 80.8219 98.1335 81.0772 97.9751 81.2356C97.8959 81.3148 97.7925 81.3552 97.6891 81.3552Z" fill="white"/>
<path d="M98.8523 79.051C98.5873 79.051 96.8016 77.1683 96.6141 76.9809C96.2392 76.606 96.8064 76.0307 97.1862 76.4088L99.1384 78.361C99.2967 78.5193 99.2967 78.7747 99.1384 78.933C99.0592 79.0122 98.9557 79.051 98.8523 79.051Z" fill="white"/>
<path d="M100.178 75.6117L98.2577 73.6918C97.8828 73.3169 98.45 72.7416 98.8282 73.1197L100.748 75.0396C100.906 75.1979 100.906 75.4533 100.748 75.6117C100.591 75.77 100.336 75.77 100.178 75.6117Z" fill="white"/>
<path d="M101.24 71.8325L99.2635 69.8561C98.8886 69.4795 99.4559 68.9059 99.8356 69.284L101.812 71.2604C101.97 71.4188 101.97 71.6741 101.812 71.8325C101.654 71.9908 101.397 71.9908 101.24 71.8325Z" fill="white"/>
<path d="M101.82 67.7562L99.994 65.9301C99.6191 65.5552 100.186 64.9799 100.566 65.358L102.392 67.1841C102.551 67.3425 102.551 67.5978 102.392 67.7562C102.234 67.913 101.977 67.913 101.82 67.7562Z" fill="white"/>
<path d="M102.276 64.2009L100.54 62.4653C100.165 62.0903 100.732 61.515 101.112 61.8932L102.848 63.6288C103.006 63.7872 103.006 64.0425 102.848 64.2009C102.689 64.3576 102.434 64.3576 102.276 64.2009Z" fill="white"/>
<path d="M101.731 60.5557L100.084 58.9106C99.7089 58.5356 100.276 57.9603 100.656 58.3385L102.303 59.9836C102.461 60.142 102.461 60.3973 102.303 60.5557C102.144 60.7141 101.889 60.7141 101.731 60.5557Z" fill="white"/>
<path d="M101.545 57.9815L99.9921 56.4301C99.6171 56.0552 100.184 55.4799 100.564 55.858L102.116 57.4094C102.274 57.5678 102.274 57.8231 102.116 57.9815C101.959 58.1399 101.703 58.1399 101.545 57.9815Z" fill="white"/>
<path d="M76.8904 89.2793L82.1603 84.0094C82.3187 83.851 82.574 83.851 82.7324 84.0094C82.8908 84.1678 82.8908 84.4231 82.7324 84.5815L77.4625 89.8513C77.086 90.2262 76.5123 89.6574 76.8904 89.2793Z" fill="white"/>
<path d="M81.2749 89.5558L89.1611 81.6696C89.3195 81.5112 89.5748 81.5112 89.7332 81.6696C89.8915 81.8279 89.8915 82.0833 89.7332 82.2416L81.847 90.1278C81.4704 90.5028 80.8951 89.9339 81.2749 89.5558Z" fill="white"/>
<path d="M86.7535 89.5745C86.5952 89.4162 86.5952 89.1608 86.7535 89.0025L96.7066 79.0494C97.0816 78.6728 97.6569 79.2417 97.2771 79.6214L87.324 89.5745C87.1672 89.7313 86.9119 89.7313 86.7535 89.5745Z" fill="white"/>
<path d="M96.6141 75.6801L99.5423 72.7518C99.9172 72.3769 100.493 72.9441 100.114 73.3239L97.1862 76.2521C96.8096 76.6271 96.2359 76.0598 96.6141 75.6801Z" fill="white"/>
<path d="M98.4403 70.8378L101.042 68.236C101.2 68.0776 101.456 68.0776 101.614 68.236C101.772 68.3943 101.772 68.6497 101.614 68.808L99.0123 71.4098C98.6358 71.7848 98.0621 71.2159 98.4403 70.8378Z" fill="white"/>
<path d="M99.7191 64.4451L101.639 62.5253C102.014 62.1503 102.589 62.7176 102.211 63.0973L100.291 65.0172C99.913 65.3937 99.3426 64.8216 99.7191 64.4451Z" fill="white"/>
<path d="M99.7186 60.0681L101.152 58.6346C101.527 58.2597 102.102 58.8269 101.724 59.2067L100.291 60.6401C99.9141 61.015 99.3404 60.4462 99.7186 60.0681Z" fill="white"/>
<path d="M102.705 58.015H100.279C99.7462 58.015 99.7446 57.207 100.279 57.207H102.705C102.928 57.207 103.109 57.388 103.109 57.611C103.109 57.834 102.928 58.015 102.705 58.015Z" fill="white"/>
<path d="M49.4003 99.5293L45.3231 95.4537C44.9482 95.0772 45.5154 94.5035 45.8952 94.8817L49.9724 98.9573C50.3473 99.3338 49.7785 99.9075 49.4003 99.5293Z" fill="white"/>
<path d="M52.7618 99.1423C52.4984 99.1423 48.4341 94.9811 48.2321 94.7807C48.0737 94.6223 48.0737 94.367 48.2321 94.2086C48.3904 94.0503 48.6458 94.0503 48.8041 94.2086L53.0478 98.4523C53.3031 98.7076 53.1189 99.1423 52.7618 99.1423Z" fill="white"/>
<path d="M54.9681 97.438L51.8912 94.3627C51.7329 94.2044 51.7329 93.949 51.8912 93.7907C52.0496 93.6323 52.3049 93.6323 52.4633 93.7907L55.5402 96.8659C55.6986 97.0243 55.6986 97.2796 55.5402 97.438C55.3819 97.5964 55.1265 97.5964 54.9681 97.438Z" fill="white"/>
<path d="M57.339 95.3994L55.0524 93.1127C54.894 92.9544 54.894 92.699 55.0524 92.5407C55.2107 92.3823 55.4661 92.3823 55.6244 92.5407L57.9111 94.8273C58.0695 94.9857 58.0695 95.241 57.9111 95.3994C57.7528 95.5578 57.4958 95.5578 57.339 95.3994Z" fill="white"/>
<path d="M59.5716 93.6469L57.7116 91.7885C57.5532 91.6301 57.5532 91.3748 57.7116 91.2164C57.8699 91.0581 58.1253 91.0581 58.282 91.2164L60.1421 93.0749C60.3004 93.2332 60.3004 93.4886 60.1421 93.6469C59.9853 93.8053 59.73 93.8053 59.5716 93.6469Z" fill="white"/>
<path d="M61.917 91.0818L60.3737 89.5385C60.2153 89.3801 60.2153 89.1248 60.3737 88.9664C60.532 88.8081 60.7874 88.8081 60.9457 88.9664L62.489 90.5097C62.6474 90.6681 62.6474 90.9234 62.489 91.0818C62.3307 91.2402 62.0737 91.2402 61.917 91.0818Z" fill="white"/>
<path d="M62.971 88.9825L61.2887 87.3002C61.1303 87.1419 61.1303 86.8865 61.2887 86.7282C61.4471 86.5698 61.7024 86.5698 61.8608 86.7282L63.5414 88.4104C63.918 88.787 63.3491 89.3607 62.971 88.9825Z" fill="white"/>
<path d="M64.4671 86.7364L62.7848 85.0541C62.6264 84.8958 62.6264 84.6404 62.7848 84.4821C62.9432 84.3237 63.1985 84.3237 63.3569 84.4821L65.0391 86.1643C65.4141 86.5409 64.8452 87.1146 64.4671 86.7364Z" fill="white"/>
<path d="M44.9071 97.5346L49.7018 92.7399C49.8602 92.5815 50.1155 92.5815 50.2739 92.7399C50.4322 92.8982 50.4322 93.1536 50.2739 93.3119L45.4791 98.1067C45.1026 98.48 44.5289 97.9128 44.9071 97.5346Z" fill="white"/>
<path d="M48.6494 97.4516L53.6737 92.4274C53.832 92.269 54.0874 92.269 54.2457 92.4274C54.4041 92.5857 54.4041 92.8411 54.2457 92.9994L49.2215 98.0237C48.8434 98.4002 48.2713 97.8281 48.6494 97.4516Z" fill="white"/>
<path d="M52.3074 97.536L58.8103 91.0331C59.1869 90.6582 59.7605 91.2254 59.3824 91.6051L52.8795 98.108C52.503 98.4813 51.9293 97.9141 52.3074 97.536Z" fill="white"/>
<path d="M58.9598 94.1228L64.1214 88.9628C64.4963 88.5879 65.0716 89.1551 64.6934 89.5332L59.5319 94.6932C59.1553 95.0697 58.5816 94.5025 58.9598 94.1228Z" fill="white"/>
<path d="M62.0367 88.3783C61.8784 88.2199 61.8784 87.9646 62.0367 87.8062L65.306 84.537C65.6809 84.1621 66.2562 84.7293 65.878 85.1075L62.6088 88.3767C62.4504 88.5351 62.1951 88.5351 62.0367 88.3783Z" fill="white"/>
<path d="M94.8885 33.3172L101.185 27.0211C101.343 26.8628 101.598 26.8628 101.757 27.0211C101.915 27.1795 101.915 27.4348 101.757 27.5932L95.4606 33.8876C95.084 34.2641 94.5103 33.6969 94.8885 33.3172Z" fill="white"/>
<path d="M89.4575 34.8546L94.6643 29.6461C94.8227 29.4878 95.0781 29.4878 95.2364 29.6461C95.3948 29.8045 95.3948 30.0598 95.2364 30.2182L90.0296 35.4266C89.6531 35.8016 89.0778 35.2343 89.4575 34.8546Z" fill="white"/>
<path d="M85.8003 36.3427L89.7466 32.3964C90.1215 32.0214 90.6968 32.5887 90.3187 32.9684L86.3724 36.9148C85.9958 37.2897 85.4205 36.7225 85.8003 36.3427Z" fill="white"/>
<path d="M80.1375 38.0063L83.111 35.0328C83.2694 34.8745 83.5247 34.8745 83.6831 35.0328C83.8414 35.1912 83.8414 35.4465 83.6831 35.6049L80.7096 38.5784C80.3331 38.9533 79.7594 38.3845 80.1375 38.0063Z" fill="white"/>
<path d="M75.8483 39.8867C75.6899 39.7284 75.6899 39.473 75.8483 39.3147L78.7652 36.3961C78.9236 36.2378 79.1789 36.2378 79.3373 36.3961C79.4956 36.5545 79.4956 36.8098 79.3373 36.9682L76.4203 39.8867C76.262 40.0435 76.0066 40.0435 75.8483 39.8867Z" fill="white"/>
<path d="M71.2572 40.3624L73.733 37.8883C73.8913 37.7299 74.1467 37.7299 74.305 37.8883C74.4634 38.0467 74.4634 38.302 74.305 38.4604L71.8293 40.9345C71.4511 41.3094 70.8758 40.7422 71.2572 40.3624Z" fill="white"/>
<path d="M68.1141 41.6751L70.0711 39.7164C70.2295 39.5581 70.4848 39.5581 70.6432 39.7164C70.8015 39.8748 70.8015 40.1301 70.6432 40.2885L68.6862 42.2471C68.3096 42.622 67.7359 42.0548 68.1141 41.6751Z" fill="white"/>
<path d="M68.5122 44.4495L65.7262 41.6635C65.5678 41.5051 65.5678 41.2498 65.7262 41.0914C65.8846 40.9331 66.1399 40.9331 66.2983 41.0914L69.0843 43.8775C69.2427 44.0358 69.2427 44.2912 69.0843 44.4495C68.9259 44.6079 68.669 44.6079 68.5122 44.4495Z" fill="white"/>
<path d="M73.9301 41.4048L71.902 39.3767C71.7436 39.2184 71.7436 38.963 71.902 38.8063C72.0604 38.6479 72.3157 38.6479 72.4741 38.8063L74.5022 40.8344C74.6605 40.9928 74.6605 41.2481 74.5022 41.4048C74.3438 41.5632 74.0885 41.5632 73.9301 41.4048Z" fill="white"/>
<path d="M77.6069 39.9362L75.9069 38.2361C75.7485 38.0777 75.7485 37.8224 75.9069 37.6657C76.0652 37.5073 76.3206 37.5073 76.4789 37.6657L78.179 39.3657C78.3374 39.5241 78.3374 39.7794 78.179 39.9378C78.0206 40.0945 77.7637 40.0945 77.6069 39.9362Z" fill="white"/>
<path d="M82.3065 38.4548L80.0231 36.1713C79.8647 36.0129 79.8647 35.7576 80.0231 35.5992C80.1814 35.4409 80.4368 35.4409 80.5951 35.5992L82.8786 37.8827C83.037 38.0411 83.037 38.2964 82.8786 38.4548C82.7202 38.6131 82.4649 38.6131 82.3065 38.4548Z" fill="white"/>
<path d="M88.478 35.3705H84.9987C84.7757 35.3705 84.5947 35.1895 84.5947 34.9665C84.5947 34.7435 84.7757 34.5625 84.9987 34.5625H88.478C89.0097 34.5625 89.0129 35.3705 88.478 35.3705Z" fill="white"/>
<path d="M94.1835 33.4291H91.2892C90.756 33.4291 90.7543 32.6211 91.2892 32.6211H94.1835C94.7152 32.6211 94.7168 33.4291 94.1835 33.4291Z" fill="white"/>
<path d="M96.3125 32.5597L94.0905 30.3393C93.9321 30.1809 93.9321 29.9256 94.0905 29.7672C94.2488 29.6088 94.5042 29.6088 94.6625 29.7672L96.8846 31.9876C97.2595 32.3642 96.6923 32.9395 96.3125 32.5597Z" fill="white"/>
<path d="M99.926 31.5986L97.6393 29.3119C97.4809 29.1536 97.4809 28.8982 97.6393 28.7399C97.7977 28.5815 98.053 28.5815 98.2097 28.7399L100.498 31.0265C100.656 31.1849 100.656 31.4403 100.498 31.5986C100.34 31.7554 100.083 31.7554 99.926 31.5986Z" fill="white"/>
<path d="M101.713 37.0462L99.0096 34.3442C98.6347 33.9692 99.2019 33.3939 99.5817 33.7721L102.285 36.4741C102.444 36.6325 102.444 36.8878 102.285 37.0445C102.127 37.2045 101.872 37.2045 101.713 37.0462Z" fill="white"/>
<path d="M101.851 39.8149L99.8104 37.7738C99.4355 37.3989 100.003 36.8236 100.382 37.2018L102.424 39.2428C102.807 39.6258 102.222 40.185 101.851 39.8149Z" fill="white"/>
<path d="M102.478 44.4439L100.268 42.2348C99.8935 41.8599 100.461 41.2846 100.841 41.6627L103.05 43.8718C103.208 44.0302 103.208 44.2855 103.05 44.4439C102.891 44.6023 102.636 44.6023 102.478 44.4439Z" fill="white"/>
<path d="M101.928 48.9235L99.6962 46.6918C99.3212 46.3169 99.8885 45.7416 100.268 46.1197L102.5 48.3515C102.658 48.5098 102.658 48.7652 102.5 48.9235C102.342 49.0819 102.086 49.0819 101.928 48.9235Z" fill="white"/>
<path d="M102.217 52.5311L100.725 51.0395C100.351 50.6646 100.918 50.0892 101.298 50.4674L102.789 51.959C102.947 52.1174 102.947 52.3727 102.789 52.5311C102.631 52.6894 102.375 52.6894 102.217 52.5311Z" fill="white"/>
<path d="M100.383 52.8755L103.3 49.9586C103.458 49.8003 103.714 49.8003 103.872 49.9586C104.031 50.117 104.031 50.3723 103.872 50.5307L100.955 53.4476C100.577 53.8242 100.007 53.2521 100.383 52.8755Z" fill="white"/>
<path d="M99.3535 48.524L102.27 45.6071C102.429 45.4487 102.684 45.4487 102.843 45.6071C103.001 45.7654 103.001 46.0208 102.843 46.1791L99.9256 49.0961C99.5475 49.4726 98.9754 48.9021 99.3535 48.524Z" fill="white"/>
<path d="M99.1246 44.7522C98.9663 44.5939 98.9663 44.3385 99.1246 44.1802L101.584 41.7206C101.959 41.3457 102.534 41.9129 102.156 42.2926L99.6967 44.7522C99.5383 44.9106 99.283 44.9106 99.1246 44.7522Z" fill="white"/>
<path d="M99.0096 39.1455L101.87 36.2867C102.028 36.1284 102.284 36.1284 102.442 36.2867C102.6 36.4451 102.6 36.7004 102.442 36.8572L99.5817 39.7176C99.2051 40.0925 98.6314 39.5236 99.0096 39.1455Z" fill="white"/>
<path d="M98.4383 35.0237L101.3 32.1617C101.459 32.0034 101.714 32.0034 101.872 32.1617C102.031 32.3201 102.031 32.5754 101.872 32.7338L99.0104 35.5958C98.6338 35.9707 98.0602 35.4019 98.4383 35.0237Z" fill="white"/>
<path d="M98.4395 31.821L100.369 29.8931C100.744 29.5166 101.319 30.0854 100.941 30.4652L99.0115 32.3931C98.6334 32.7696 98.0613 32.1992 98.4395 31.821Z" fill="white"/>
</svg>
