<svg width="104" height="88" viewBox="0 0 104 88" fill="none" xmlns="http://www.w3.org/2000/svg">
<path d="M92.5024 33.1714L84.6417 38.7149C86.1506 34.3918 88.7307 25.1839 90.4884 16.4245C90.8432 14.6559 91.1744 12.8315 90.8354 11.0599C90.7554 10.6419 89.9734 8.30228 89.1149 8.08277C88.454 6.86431 87.4205 6.18481 86.246 5.96647C75.9499 4.10468 65.4486 3.45375 55.2928 2.82441C46.0039 2.24906 36.4004 1.65366 26.9218 0.135845C26.3695 0.0448375 25.7911 0.382643 25.6091 0.936398L23.4531 7.52496C18.0609 7.08153 13.4317 11.1511 12.8635 15.4975C12.4005 19.016 14.6803 22.4298 18.1518 23.7248L17.3927 26.0443C11.9734 25.5657 7.31339 29.65 6.74133 34.0128C6.27589 37.5509 8.58355 40.9805 12.0868 42.2585L10.9687 45.6753C5.69361 45.3463 1.13644 49.3422 0.571365 53.6634C0.116233 57.1234 2.30869 60.4889 5.68164 61.832C3.00928 70.4351 2.44982 70.4386 3.31343 71.2618C3.41182 71.7633 4.04619 73.3382 4.23787 73.8161C5.00603 75.7365 6.76139 77.1093 8.82061 77.3977C15.37 78.314 21.921 79.5526 28.2545 80.7511C46.9538 84.2908 45.0782 83.6491 60.7718 85.9046C78.0691 88.3853 74.2526 91.333 81.5153 58.4674L101.074 44.6738C102.336 43.7838 103.166 42.3261 103.411 40.5677C104.324 34.0192 96.9955 30.005 92.5024 33.1714ZM65.3786 66.9471C65.2102 65.4378 64.8643 64.598 63.6536 63.6061C73.5542 56.7479 84.6972 49.4489 93.9183 41.9781L95.6173 44.28C95.7946 45.3646 95.4906 45.0551 95.4914 45.7098C82.4937 54.8765 76.2119 59.3068 65.3786 66.9471ZM57.8602 69.3564C56.9942 68.1247 56.1992 66.7187 55.1618 65.6822C55.233 65.521 56.5294 62.5768 56.8827 61.7537C57.4276 61.7685 58.6195 62.1893 59.2216 62.5944C60.5437 63.4867 59.9829 64.6818 61.2021 64.8989C61.7435 64.9961 62.649 65.7195 62.8171 66.1915C63.051 66.8505 63.1067 67.8335 63.0102 68.2949C61.442 68.7294 59.6541 69.0702 57.8602 69.3564ZM89.9169 37.8943C90.3882 37.9991 90.8632 38.1934 91.3279 38.4682L92.5098 40.0696C81.2039 49.2443 64.9785 59.5855 61.8682 61.9715C61.0928 60.8274 60.1509 60.2862 58.8445 59.8071C66.0121 54.7523 82.1388 43.3796 89.9169 37.8943ZM15.2127 15.8053C15.5951 12.8805 18.9058 9.82873 22.6982 9.83147L18.8852 21.4837C16.4738 20.5465 14.8976 18.2039 15.2127 15.8053ZM9.08901 34.3213C9.47442 31.3851 12.8041 28.3167 16.6383 28.3501L12.8202 40.0173C10.3772 39.0954 8.77289 36.7377 9.08901 34.3213ZM2.92058 53.9719C3.29556 51.1036 6.47895 48.1112 10.2061 48.0059L6.41481 59.5914C4.10126 58.6115 2.61305 56.313 2.92058 53.9719ZM12.597 48.3186C14.1973 48.8083 15.5274 49.8318 16.2203 51.1653C15.6106 52.5229 17.2802 53.2319 18.8939 52.7044C20.1507 52.2934 20.9568 51.3093 20.6942 50.5063C20.4457 49.7463 19.3279 49.429 18.1431 49.7449C17.1241 48.0366 15.3748 46.7374 13.3258 46.091L18.9972 28.7592C20.62 29.3165 21.9532 30.4095 22.556 31.8331C22.0718 33.1823 23.7804 33.7533 25.2733 33.2652C26.5302 32.8542 27.3363 31.8701 27.0737 31.0672C26.819 30.2881 25.6514 29.9719 24.4344 30.3285C23.4769 28.5749 21.7679 27.2213 19.7297 26.5209L25.0627 10.2231C26.7449 10.7848 28.1296 11.9183 28.7201 13.4017C27.9966 14.7497 29.6111 15.6132 31.3513 15.0441C34.1795 14.1193 33.586 11.3599 30.683 12.0637C29.7506 10.172 27.9545 8.71075 25.7954 7.98366L27.5465 2.63237C47.086 5.6292 66.7586 4.85092 85.8187 8.2964C86.7313 8.46674 87.4467 9.35557 87.2209 10.5006C86.8861 12.1904 86.5391 13.9388 85.9977 15.5662C83.6222 22.6478 82.0504 29.8134 80.5295 36.7438C80.0866 38.8041 79.7992 39.9235 79.3326 42.4589C54.3452 60.1621 55.4279 59.1155 55.1756 59.7192C53.265 64.3015 51.5659 67.4402 50.5589 71.2401C50.3314 72.0874 51.0831 72.8857 51.9425 72.7039C54.3336 72.2104 63.6373 71.0666 64.9658 70.1388L76.0772 62.3025C75.5349 64.9937 72.1272 80.8538 72.1137 80.9316C54.0885 74.8671 34.5475 75.8525 5.65079 69.5465L12.597 48.3186ZM70.3337 84.8449C28.2795 79.3625 27.8193 77.6662 9.14917 75.0501C7.9306 74.8804 6.89096 74.069 6.43747 72.9369C6.31966 72.6421 6.20725 72.3518 6.09532 72.0626C34.7347 78.187 53.1814 77.227 70.8742 83.0474C70.6651 83.7556 70.5409 84.1433 70.3337 84.8449Z" fill="white"/>
</svg>
