<svg width="18" height="16" viewBox="0 0 18 16" fill="none" xmlns="http://www.w3.org/2000/svg">
<path d="M17.25 14.5075H16.5V10.75C16.499 10.0211 16.2857 9.3084 15.8861 8.69888C15.4865 8.08937 14.918 7.6095 14.25 7.31798V6.99998C14.2483 6.42077 14.1118 5.84991 13.8515 5.3325C13.5912 4.81509 13.2141 4.36532 12.75 4.01873L12.1207 0.849984C12.0861 0.680454 11.994 0.528103 11.8599 0.418752C11.7258 0.309401 11.558 0.249777 11.385 0.249985H11.115C10.942 0.249777 10.7742 0.309401 10.6401 0.418752C10.506 0.528103 10.4139 0.680454 10.3792 0.849984L9.9 3.24998H7.6875L8.25 0.999984C8.25 0.801072 8.17098 0.610307 8.03033 0.469655C7.88968 0.329003 7.69891 0.249985 7.5 0.249985H6C5.80109 0.249985 5.61032 0.329003 5.46967 0.469655C5.32902 0.610307 5.25 0.801072 5.25 0.999984L5.90475 3.61973C5.26219 3.92107 4.71848 4.3988 4.33699 4.99726C3.9555 5.59572 3.75193 6.29027 3.75 6.99998V7.31798C3.08202 7.6095 2.51347 8.08937 2.11387 8.69888C1.71428 9.3084 1.50096 10.0211 1.5 10.75V14.5075H0.75C0.551088 14.5075 0.360322 14.5865 0.21967 14.7271C0.0790176 14.8678 0 15.0586 0 15.2575C0 15.4564 0.0790176 15.6471 0.21967 15.7878C0.360322 15.9284 0.551088 16.0075 0.75 16.0075H17.25C17.4489 16.0075 17.6397 15.9284 17.7803 15.7878C17.921 15.6471 18 15.4564 18 15.2575C18 15.0586 17.921 14.8678 17.7803 14.7271C17.6397 14.5865 17.4489 14.5075 17.25 14.5075V14.5075ZM7.5 4.74998H10.5C11.0967 4.74998 11.669 4.98703 12.091 5.40899C12.5129 5.83094 12.75 6.40324 12.75 6.99998H5.25C5.25 6.40324 5.48705 5.83094 5.90901 5.40899C6.33097 4.98703 6.90326 4.74998 7.5 4.74998V4.74998ZM5.25 8.49997H12.75C13.3467 8.49997 13.919 8.73703 14.341 9.15898C14.7629 9.58094 15 10.1532 15 10.75V11.485C14.298 11.41 13.875 10.96 13.875 10.75C13.875 10.5511 13.796 10.3603 13.6553 10.2196C13.5147 10.079 13.3239 9.99997 13.125 9.99997C12.9261 9.99997 12.7353 10.079 12.5947 10.2196C12.454 10.3603 12.375 10.5511 12.375 10.75C12.375 11.008 11.8635 11.5 11.0625 11.5C10.2458 11.5 9.75 10.9795 9.75 10.75C9.75 10.5511 9.67098 10.3603 9.53033 10.2196C9.38968 10.079 9.19891 9.99997 9 9.99997C8.80109 9.99997 8.61032 10.079 8.46967 10.2196C8.32902 10.3603 8.25 10.5511 8.25 10.75C8.25 11.008 7.7385 11.5 6.9375 11.5C6.12075 11.5 5.625 10.9795 5.625 10.75C5.625 10.5511 5.54598 10.3603 5.40533 10.2196C5.26468 10.079 5.07391 9.99997 4.875 9.99997C4.67609 9.99997 4.48532 10.079 4.34467 10.2196C4.20402 10.3603 4.125 10.5511 4.125 10.75C4.125 10.987 3.69075 11.416 3 11.4857V10.75C3 10.1532 3.23705 9.58094 3.65901 9.15898C4.08097 8.73703 4.65326 8.49997 5.25 8.49997V8.49997ZM3 12.9842C3.68902 12.9536 4.34845 12.6954 4.875 12.25C5.45352 12.7322 6.18231 12.9973 6.93547 12.9993C7.68863 13.0014 8.41886 12.7403 9 12.2612C9.58114 12.7403 10.3114 13.0014 11.0645 12.9993C11.8177 12.9973 12.5465 12.7322 13.125 12.25C13.6517 12.6951 14.3111 12.9531 15 12.9835V14.5075H3V12.9842Z" fill="white"/>
</svg>
