<svg width="16" height="16" viewBox="0 0 16 16" fill="none" xmlns="http://www.w3.org/2000/svg">
<path fill-rule="evenodd" clip-rule="evenodd" d="M3.62489 14.5478C4.91992 15.4131 6.44248 15.875 8 15.875C10.0886 15.875 12.0916 15.0453 13.5685 13.5685C15.0453 12.0916 15.875 10.0886 15.875 8C15.875 6.44248 15.4131 4.91992 14.5478 3.62489C13.6825 2.32985 12.4526 1.32049 11.0136 0.724452C9.57467 0.128412 7.99127 -0.0275391 6.46367 0.276319C4.93607 0.580178 3.53288 1.3302 2.43154 2.43154C1.3302 3.53288 0.580178 4.93607 0.276319 6.46367C-0.0275391 7.99127 0.128412 9.57467 0.724452 11.0136C1.32049 12.4526 2.32985 13.6825 3.62489 14.5478ZM4.2499 2.38758C5.35994 1.64588 6.66498 1.25 8 1.25C9.79021 1.25 11.5071 1.96116 12.773 3.22703C14.0388 4.4929 14.75 6.20979 14.75 8C14.75 9.33503 14.3541 10.6401 13.6124 11.7501C12.8707 12.8601 11.8165 13.7253 10.5831 14.2362C9.34971 14.7471 7.99252 14.8808 6.68314 14.6203C5.37377 14.3599 4.17104 13.717 3.22703 12.773C2.28303 11.829 1.64015 10.6262 1.3797 9.31686C1.11925 8.00749 1.25293 6.65029 1.76382 5.41689C2.27471 4.18349 3.13987 3.12928 4.2499 2.38758ZM7.4375 8.23063L10.5819 11.375L11.375 10.5819L8.5625 7.76375V2.9375H7.4375V8.23063Z" fill="white"/>
</svg>
