<svg width="20" height="20" viewBox="0 0 20 20" fill="none" xmlns="http://www.w3.org/2000/svg">
<g clip-path="url(#clip0_2079_4744)">
<path d="M19.3923 7.84907C18.0998 5.74407 15.1598 2.2124 9.9998 2.2124C4.8398 2.2124 1.8998 5.74407 0.607299 7.84907C0.207739 8.49532 -0.00390625 9.2401 -0.00390625 9.9999C-0.00390625 10.7597 0.207739 11.5045 0.607299 12.1507C1.8998 14.2557 4.8398 17.7874 9.9998 17.7874C15.1598 17.7874 18.0998 14.2557 19.3923 12.1507C19.7919 11.5045 20.0035 10.7597 20.0035 9.9999C20.0035 9.2401 19.7919 8.49532 19.3923 7.84907ZM17.9715 11.2782C16.8615 13.0832 14.349 16.1207 9.9998 16.1207C5.65063 16.1207 3.13813 13.0832 2.02813 11.2782C1.79074 10.8941 1.66501 10.4515 1.66501 9.9999C1.66501 9.54834 1.79074 9.1057 2.02813 8.72157C3.13813 6.91657 5.65063 3.87907 9.9998 3.87907C14.349 3.87907 16.8615 6.91324 17.9715 8.72157C18.2089 9.1057 18.3346 9.54834 18.3346 9.9999C18.3346 10.4515 18.2089 10.8941 17.9715 11.2782Z" fill="white"/>
<path d="M10.0007 5.83325C9.17656 5.83325 8.37098 6.07762 7.68578 6.53546C7.00057 6.9933 6.46652 7.64405 6.15115 8.4054C5.83579 9.16676 5.75328 10.0045 5.91405 10.8128C6.07482 11.621 6.47166 12.3635 7.05437 12.9462C7.63709 13.5289 8.37952 13.9258 9.18778 14.0865C9.99603 14.2473 10.8338 14.1648 11.5952 13.8494C12.3565 13.5341 13.0073 13 13.4651 12.3148C13.9229 11.6296 14.1673 10.824 14.1673 9.99992C14.166 8.89526 13.7266 7.83622 12.9455 7.0551C12.1644 6.27399 11.1053 5.83458 10.0007 5.83325ZM10.0007 12.4999C9.5062 12.4999 9.02285 12.3533 8.61173 12.0786C8.2006 11.8039 7.88017 11.4134 7.69095 10.9566C7.50173 10.4998 7.45223 9.99715 7.54869 9.51219C7.64515 9.02724 7.88325 8.58178 8.23289 8.23215C8.58252 7.88252 9.02797 7.64442 9.51293 7.54796C9.99788 7.45149 10.5005 7.501 10.9574 7.69022C11.4142 7.87944 11.8046 8.19987 12.0793 8.61099C12.354 9.02212 12.5007 9.50547 12.5007 9.99992C12.5007 10.663 12.2373 11.2988 11.7684 11.7677C11.2996 12.2365 10.6637 12.4999 10.0007 12.4999Z" fill="white"/>
</g>
<defs>
<clipPath id="clip0_2079_4744">
<rect width="20" height="20" fill="white"/>
</clipPath>
</defs>
</svg>
