<svg width="16" height="16" viewBox="0 0 16 16" fill="none" xmlns="http://www.w3.org/2000/svg">
<path fill-rule="evenodd" clip-rule="evenodd" d="M11.0306 1.89513C10.2398 1.859 10.0026 1.85137 8 1.85137V1.85131C5.99744 1.85131 5.76019 1.859 4.96938 1.89506C4.49378 1.90072 4.02269 1.98808 3.57669 2.15331C3.25324 2.27812 2.9595 2.46925 2.71436 2.7144C2.46922 2.95955 2.27811 3.2533 2.15331 3.57675C1.98808 4.02276 1.90072 4.49384 1.89506 4.96944C1.85894 5.76025 1.85131 5.9975 1.85131 8.00006C1.85131 10.0026 1.859 10.2399 1.89506 11.0307C1.90072 11.5063 1.98808 11.9774 2.15331 12.4234C2.27812 12.7468 2.46923 13.0405 2.71437 13.2857C2.95951 13.5308 3.25325 13.7219 3.57669 13.8467C4.02269 14.012 4.49378 14.0993 4.96938 14.105C5.76013 14.1411 5.99725 14.1487 8 14.1487C10.0028 14.1487 10.2399 14.1411 11.0306 14.105C11.5062 14.0993 11.9773 14.012 12.4233 13.8467C12.7467 13.7219 13.0405 13.5308 13.2856 13.2857C13.5308 13.0405 13.7219 12.7468 13.8467 12.4234C14.0119 11.9774 14.0993 11.5063 14.1049 11.0307C14.1411 10.2399 14.1487 10.0026 14.1487 8.00006C14.1487 5.9975 14.141 5.76025 14.1049 4.96944C14.0993 4.49384 14.0119 4.02276 13.8467 3.57675C13.7219 3.25331 13.5308 2.95958 13.2856 2.71444C13.0405 2.4693 12.7467 2.27818 12.4233 2.15338C11.9773 1.98814 11.5062 1.90079 11.0306 1.89513ZM4.90775 0.545125C5.70769 0.508625 5.96312 0.5 8 0.5C10.0369 0.5 10.2923 0.508625 11.0919 0.545438C11.7141 0.557899 12.3297 0.675778 12.9125 0.894062C13.4108 1.08672 13.8633 1.38135 14.2411 1.75907C14.6188 2.13679 14.9135 2.58927 15.1063 3.0875C15.3245 3.67018 15.4424 4.28566 15.4549 4.90775C15.4914 5.70769 15.5 5.96312 15.5 8C15.5 10.0369 15.4914 10.2923 15.4552 11.0919C15.4427 11.7141 15.3248 12.3297 15.1066 12.9125C14.9139 13.4108 14.6192 13.8633 14.2414 14.2411C13.8636 14.6189 13.4111 14.9136 12.9128 15.1063C12.33 15.3245 11.7144 15.4424 11.0922 15.4549C10.2923 15.4914 10.0369 15.5 8 15.5C5.96312 15.5 5.70769 15.4914 4.90806 15.4552C4.28586 15.4427 3.67028 15.3249 3.0875 15.1066C2.58921 14.9139 2.13667 14.6192 1.7589 14.2414C1.38112 13.8636 1.08645 13.4111 0.89375 12.9128C0.675466 12.33 0.557586 11.7144 0.545125 11.0922C0.508625 10.2923 0.5 10.0369 0.5 8C0.5 5.96312 0.508625 5.70769 0.545125 4.90806C0.557579 4.28586 0.675459 3.67028 0.89375 3.0875C1.08645 2.58921 1.38112 2.13667 1.7589 1.7589C2.13667 1.38112 2.58921 1.08645 3.0875 0.89375C3.67018 0.675493 4.28566 0.557614 4.90775 0.545125ZM12.0035 4.89644C12.5005 4.89644 12.9035 4.49349 12.9035 3.99644C12.9035 3.49938 12.5005 3.09644 12.0035 3.09644C11.5064 3.09644 11.1035 3.49938 11.1035 3.99644C11.1035 4.49349 11.5064 4.89644 12.0035 4.89644ZM7.99998 4.14868C7.23825 4.14868 6.49363 4.37456 5.86027 4.79776C5.22692 5.22095 4.73328 5.82245 4.44178 6.5262C4.15027 7.22995 4.074 8.00433 4.22261 8.75142C4.37122 9.49852 4.73802 10.1848 5.27665 10.7234C5.81527 11.262 6.50152 11.6288 7.24862 11.7774C7.99571 11.926 8.77009 11.8498 9.47384 11.5583C10.1776 11.2668 10.7791 10.7731 11.2023 10.1398C11.6255 9.50641 11.8514 8.76179 11.8514 8.00006C11.8514 6.97861 11.4456 5.999 10.7233 5.27672C10.001 4.55445 9.02143 4.14868 7.99998 4.14868ZM7.99998 10.5001C7.50553 10.5001 7.02218 10.3534 6.61106 10.0787C6.19993 9.80403 5.8795 9.41358 5.69028 8.95677C5.50106 8.49995 5.45156 7.99728 5.54802 7.51233C5.64448 7.02738 5.88258 6.58192 6.23221 6.23229C6.58185 5.88266 7.0273 5.64456 7.51226 5.54809C7.99721 5.45163 8.49988 5.50114 8.95669 5.69036C9.41351 5.87958 9.80395 6.20001 10.0787 6.61113C10.3534 7.02225 10.5 7.5056 10.5 8.00006C10.5 8.6631 10.2366 9.29898 9.76775 9.76782C9.29891 10.2367 8.66302 10.5001 7.99998 10.5001Z" fill="white"/>
</svg>
