<svg width="16" height="16" viewBox="0 0 16 16" fill="none" xmlns="http://www.w3.org/2000/svg">
<path d="M14.3812 0.50002H1.61875C1.32795 0.498272 1.04803 0.610457 0.838927 0.812551C0.629823 1.01465 0.508163 1.29058 0.5 1.58127V14.375C0.506563 14.6662 0.627723 14.9431 0.837178 15.1455C1.04663 15.348 1.32748 15.4596 1.61875 15.4563H14.3812C14.6725 15.4596 14.9534 15.348 15.1628 15.1455C15.3723 14.9431 15.4934 14.6662 15.5 14.375V1.58127C15.4918 1.29058 15.3702 1.01465 15.1611 0.812551C14.952 0.610457 14.672 0.498272 14.3812 0.50002V0.50002ZM4.94375 13.2563H2.74375V6.12502H4.94375V13.2563ZM3.86875 5.13127C3.53097 5.13137 3.20655 4.99936 2.9648 4.76345C2.72306 4.52755 2.58316 4.20645 2.575 3.86877C2.56888 3.69723 2.59816 3.52626 2.66102 3.36653C2.72387 3.2068 2.81895 3.06172 2.94032 2.94034C3.0617 2.81897 3.20678 2.72389 3.36651 2.66104C3.52624 2.59818 3.69721 2.5689 3.86875 2.57502C4.19553 2.59777 4.50151 2.74364 4.72494 2.98317C4.94838 3.2227 5.07263 3.53808 5.07263 3.86565C5.07263 4.19321 4.94838 4.50859 4.72494 4.74812C4.50151 4.98765 4.19553 5.13352 3.86875 5.15627V5.13127ZM13.3 13.2125H11.125V9.72502C11.125 8.89377 11.125 7.81252 9.9625 7.81252C8.8 7.81252 8.625 8.72502 8.625 9.64377V13.175H6.4V6.12502H8.475V7.06252H8.51875C8.73143 6.69316 9.04155 6.38937 9.41522 6.18435C9.78888 5.97933 10.2117 5.88097 10.6375 5.90002C12.8812 5.90002 13.3 7.40002 13.3 9.30627V13.2125Z" fill="#FFD335"/>
<path d="M14.3812 0.50002H1.61875C1.32795 0.498272 1.04803 0.610457 0.838927 0.812551C0.629823 1.01465 0.508163 1.29058 0.5 1.58127V14.375C0.506563 14.6662 0.627723 14.9431 0.837178 15.1455C1.04663 15.348 1.32748 15.4596 1.61875 15.4563H14.3812C14.6725 15.4596 14.9534 15.348 15.1628 15.1455C15.3723 14.9431 15.4934 14.6662 15.5 14.375V1.58127C15.4918 1.29058 15.3702 1.01465 15.1611 0.812551C14.952 0.610457 14.672 0.498272 14.3812 0.50002V0.50002ZM4.94375 13.2563H2.74375V6.12502H4.94375V13.2563ZM3.86875 5.13127C3.53097 5.13137 3.20655 4.99936 2.9648 4.76345C2.72306 4.52755 2.58316 4.20645 2.575 3.86877C2.56888 3.69723 2.59816 3.52626 2.66102 3.36653C2.72387 3.2068 2.81895 3.06172 2.94032 2.94034C3.0617 2.81897 3.20678 2.72389 3.36651 2.66104C3.52624 2.59818 3.69721 2.5689 3.86875 2.57502C4.19553 2.59777 4.50151 2.74364 4.72494 2.98317C4.94838 3.2227 5.07263 3.53808 5.07263 3.86565C5.07263 4.19321 4.94838 4.50859 4.72494 4.74812C4.50151 4.98765 4.19553 5.13352 3.86875 5.15627V5.13127ZM13.3 13.2125H11.125V9.72502C11.125 8.89377 11.125 7.81252 9.9625 7.81252C8.8 7.81252 8.625 8.72502 8.625 9.64377V13.175H6.4V6.12502H8.475V7.06252H8.51875C8.73143 6.69316 9.04155 6.38937 9.41522 6.18435C9.78888 5.97933 10.2117 5.88097 10.6375 5.90002C12.8812 5.90002 13.3 7.40002 13.3 9.30627V13.2125Z" fill="white"/>
</svg>
