<svg width="18" height="14" viewBox="0 0 18 14" fill="none" xmlns="http://www.w3.org/2000/svg">
<path d="M17.3817 2.7875C17.2821 2.41753 17.0871 2.0802 16.8162 1.80927C16.5453 1.53835 16.2079 1.34334 15.838 1.24375C14.4755 0.875 9.00047 0.875 9.00047 0.875C9.00047 0.875 3.52547 0.875 2.16297 1.24375C1.79299 1.34334 1.45567 1.53835 1.18474 1.80927C0.913819 2.0802 0.718806 2.41753 0.61922 2.7875C0.364811 4.17704 0.241353 5.58739 0.25047 7C0.241353 8.41261 0.364811 9.82296 0.61922 11.2125C0.718806 11.5825 0.913819 11.9198 1.18474 12.1907C1.45567 12.4617 1.79299 12.6567 2.16297 12.7563C3.52547 13.125 9.00047 13.125 9.00047 13.125C9.00047 13.125 14.4755 13.125 15.838 12.7563C16.2079 12.6567 16.5453 12.4617 16.8162 12.1907C17.0871 11.9198 17.2821 11.5825 17.3817 11.2125C17.6361 9.82296 17.7596 8.41261 17.7505 7C17.7596 5.58739 17.6361 4.17704 17.3817 2.7875V2.7875ZM7.25047 9.625V4.375L11.7942 7L7.25047 9.625Z" fill="#FFD335"/>
<path d="M17.3817 2.7875C17.2821 2.41753 17.0871 2.0802 16.8162 1.80927C16.5453 1.53835 16.2079 1.34334 15.838 1.24375C14.4755 0.875 9.00047 0.875 9.00047 0.875C9.00047 0.875 3.52547 0.875 2.16297 1.24375C1.79299 1.34334 1.45567 1.53835 1.18474 1.80927C0.913819 2.0802 0.718806 2.41753 0.61922 2.7875C0.364811 4.17704 0.241353 5.58739 0.25047 7C0.241353 8.41261 0.364811 9.82296 0.61922 11.2125C0.718806 11.5825 0.913819 11.9198 1.18474 12.1907C1.45567 12.4617 1.79299 12.6567 2.16297 12.7563C3.52547 13.125 9.00047 13.125 9.00047 13.125C9.00047 13.125 14.4755 13.125 15.838 12.7563C16.2079 12.6567 16.5453 12.4617 16.8162 12.1907C17.0871 11.9198 17.2821 11.5825 17.3817 11.2125C17.6361 9.82296 17.7596 8.41261 17.7505 7C17.7596 5.58739 17.6361 4.17704 17.3817 2.7875V2.7875ZM7.25047 9.625V4.375L11.7942 7L7.25047 9.625Z" fill="white"/>
</svg>
