<svg width="70" height="70" viewBox="0 0 70 70" fill="none" xmlns="http://www.w3.org/2000/svg">
<path d="M17.9257 34.3043C21.7216 33.5489 27.1679 33.3605 31.5751 36.7242C31.7109 36.8278 31.871 36.878 32.0293 36.878C32.7468 36.878 33.0515 35.9645 32.4853 35.5319C27.6337 31.8278 21.7294 32.0201 17.6347 32.8326C17.2285 32.9132 16.9638 33.3082 17.0449 33.7145C17.125 34.1212 17.5263 34.3844 17.9257 34.3043Z" fill="white"/>
<path d="M15.8568 39.2447C15.9701 39.6432 16.3832 39.8746 16.7826 39.7618C21.3295 38.4737 26.348 39.0963 30.5541 41.4674C30.6703 41.5328 30.7972 41.5641 30.9213 41.5641C31.6923 41.5641 31.9596 40.5369 31.2904 40.1607C26.7377 37.5943 21.3002 36.9239 16.3744 38.3184C15.976 38.4312 15.7435 38.8458 15.8568 39.2447Z" fill="white"/>
<path d="M52.385 38.057C48.3342 35.8373 43.3117 36.4291 38.9514 39.639C38.6174 39.8846 38.5461 40.3539 38.7912 40.6874C39.0371 41.0212 39.507 41.0925 39.84 40.847C43.7199 37.9911 48.1408 37.4408 51.6643 39.3724C52.0295 39.5721 52.4846 39.4378 52.6828 39.0751C52.8811 38.7118 52.7482 38.2562 52.385 38.057Z" fill="white"/>
<path d="M19.0576 28.5193C22.8525 27.7659 28.3008 27.574 32.706 30.9392C32.8418 31.0427 33.0019 31.093 33.1601 31.093C33.8777 31.093 34.1824 30.1795 33.6162 29.7468C28.7666 26.0422 22.8642 26.2351 18.7666 27.0476C18.3594 27.1282 18.0957 27.5232 18.1767 27.9294C18.2568 28.3362 18.6562 28.5984 19.0576 28.5193Z" fill="white"/>
<path d="M38.9709 34.7757C38.6369 35.0213 38.5656 35.4906 38.8107 35.8241C39.0566 36.1579 39.5266 36.2292 39.8596 35.9837C43.7385 33.1302 48.1594 32.5765 51.6848 34.5091C52.05 34.7088 52.5041 34.5746 52.7033 34.2118C52.9016 33.8485 52.7688 33.3924 52.4055 33.1937C48.3527 30.974 43.3313 31.5658 38.9709 34.7757Z" fill="white"/>
<path d="M39.6955 31.0659C43.5744 28.2109 47.9953 27.6591 51.5207 29.5908C51.885 29.7905 52.341 29.6562 52.5393 29.2934C52.7375 28.9301 52.6047 28.4741 52.2414 28.2754C48.1916 26.0561 43.1672 26.6479 38.8068 29.8579C38.4729 30.1035 38.4016 30.5727 38.6467 30.9067C38.8916 31.2385 39.3611 31.3124 39.6955 31.0659Z" fill="white"/>
<path d="M5.88135 54.7413C12.9929 55.3019 20.1943 53.2488 27.2728 54.3757C28.8882 54.6328 30.5639 55.0498 32.1194 54.485C32.9068 54.1991 33.6474 53.6653 34.4727 53.6443C35.2294 53.6251 35.8377 54.0399 36.5088 54.3461C40.4303 56.1353 47.3637 52.5343 63.8092 54.5985C66.9002 54.9865 67.1535 52.9307 67.0867 52.6604C66.9922 52.1192 66.0278 45.4381 65.9315 44.8718C63.5385 30.46 63.683 31.4977 63.6141 31.3675C63.1669 30.5279 61.8033 30.3085 61.3445 30.0413C59.5175 28.968 58.0195 26.8314 56.7645 23.5083L56.7508 23.408C56.5661 22.0703 54.3278 23.3126 47.8133 22.4885C45.5412 22.2005 44.1452 22.0672 41.9744 22.6443C39.4757 23.3097 37.3489 24.582 35.92 26.774C35.4921 26.0211 34.9103 25.331 34.1639 24.7717C31.5228 22.7731 28.3348 22.834 25.283 22.9754C14.6875 23.5117 14.9382 23.2437 14.5355 23.638C14.1725 23.6943 14.0603 23.9108 13.9484 24.0404C13.6104 24.218 13.319 24.5083 13.0446 24.803C10.7627 27.2539 10.6756 27.7991 9.82465 28.2672C8.80933 28.8257 7.71918 29.6115 7.453 30.9614C7.41788 31.1396 3.40325 51.4788 3.26593 52.1745C3.15021 52.7206 3.021 53.2628 2.90527 53.8089C2.94916 53.8276 2.99109 53.8343 3.03436 53.8509C3.23663 54.9946 5.09564 54.6794 5.88135 54.7413ZM58.1749 44.9938C60.4343 47.2255 62.4792 49.9738 64.0814 51.8722C55.924 51.1195 48.4412 50.7423 40.9725 52.2293C38.9533 52.6331 39.3675 52.1552 37.9389 51.3422C39.4137 49.924 42.6969 48.4433 46.6404 48.5496C49.4527 48.619 52.262 49.3789 55.0994 48.5872C55.4988 48.4759 55.7322 48.0623 55.6209 47.6634C55.5096 47.2644 55.0975 47.032 54.6971 47.1419C52.2062 47.8359 49.4561 47.1199 46.6776 47.0496C43.0434 46.9645 38.5825 48.2231 36.4709 50.7414C35.8243 50.58 35.5873 50.5987 35.4869 50.5917L35.5427 49.3997C35.7112 48.9409 35.9683 48.4869 36.324 48.0462C38.1522 45.7473 41.077 44.9973 43.9725 44.5281C46.5226 44.0876 47.373 44.2104 50.1971 44.5559C52.8327 44.8709 55.5191 45.0151 58.1749 44.9938ZM33.9813 50.0164C33.9941 50.0434 34.0002 50.0726 34.0085 50.1015L33.9824 50.6612C33.7253 50.7027 33.4755 50.7631 33.2291 50.8356C31.5158 49.094 29.0428 47.9093 26.2537 47.4998C24.0008 47.1687 21.5701 47.2957 18.5984 47.8982C18.1932 47.9802 17.9305 48.3762 18.0125 48.782C18.0945 49.1883 18.4871 49.448 18.8973 49.3679C23.4005 48.4565 28.2827 48.4349 31.7387 51.4936C28.6337 53.4065 32.6273 50.8261 12.6238 52.1116C10.3729 52.256 8.06457 52.3893 5.77685 52.4479L10.4692 46.6519C11.2337 46.7662 16.4435 44.5964 25.5311 44.9163C29.7116 45.0545 32.415 46.0304 33.9813 50.0164ZM9.33478 45.3592C9.26536 45.5054 9.12922 45.612 9.12494 45.9284L5.12238 50.8726C10.0582 28.1176 9.31283 31.6581 9.37775 31.1995C9.40314 31.0281 9.44904 30.7088 9.47736 30.6394C9.53302 30.5803 9.76837 30.4929 9.90802 30.4407C11.6581 29.7866 12.9742 27.8191 14.0812 26.3015L9.33478 45.3592ZM62.2606 32.0471C62.4885 34.0418 63.002 35.887 65.3267 51.0175C64.1435 49.64 61.8111 46.5553 59.5652 44.2705C59.6184 43.9288 59.718 45.2442 57.4003 28.1447C59.7549 31.7104 61.6661 31.6155 62.2606 32.0471ZM44.1385 23.7722C45.6745 23.6435 47.2448 23.9587 48.8895 24.1262C51.0722 24.3481 53.2773 24.2876 55.3534 24.2604L57.9909 43.4929C49.5015 43.5328 48.7758 42.176 43.7254 43.0486C40.7834 43.5251 37.8036 44.3053 35.6765 46.5393L36.5039 28.8461C37.7388 25.7324 41.1201 23.9798 44.1385 23.7722ZM29.5399 24.534C31.9873 24.8755 34.4361 26.1636 35.0414 28.5282C33.7801 54.777 34.2581 44.8286 34.146 47.162C32.0153 44.2002 29.2163 43.5372 25.5818 43.4173C20.6823 43.2454 15.7588 43.796 10.9589 45.0434L15.9807 24.88C26.8548 24.4185 27.7211 24.2952 29.5399 24.534Z" fill="white"/>
<path d="M60.3947 20.1492C60.0216 20.3299 59.8664 20.7786 60.047 21.1512C60.2288 21.5256 60.6791 21.6786 61.049 21.4988L63.714 20.2059C64.0871 20.0252 64.2423 19.577 64.0617 19.2039C63.881 18.8328 63.4347 18.6756 63.0597 18.8563L60.3947 20.1492Z" fill="white"/>
<path d="M57.9697 16.1184L56.9443 18.4783C56.7288 18.9779 57.0985 19.5266 57.6328 19.5266C57.9218 19.5266 58.1982 19.3577 58.3212 19.075L59.3447 16.7161C59.5097 16.3362 59.3359 15.8943 58.956 15.7293C58.5781 15.5667 58.1347 15.7381 57.9697 16.1184Z" fill="white"/>
<path d="M53.8457 15.1702C53.4483 15.2859 53.2197 15.7024 53.336 16.1004L53.9287 18.1409C54.0244 18.469 54.3242 18.6819 54.6494 18.6819C55.1481 18.6819 55.509 18.2026 55.3701 17.7229L54.7754 15.6805C54.6602 15.2825 54.2451 15.0559 53.8457 15.1702Z" fill="white"/>
</svg>
