<svg width="62" height="60" viewBox="0 0 62 60" fill="none" xmlns="http://www.w3.org/2000/svg">
<path d="M29.0463 36.9349C27.5411 36.9349 26.0992 36.606 24.8217 35.9481C22.8612 34.9487 21.5331 33.3295 21.0904 31.3686C20.1924 27.371 23.3419 23.2596 28.1103 22.1843C32.8788 21.109 37.4828 23.4873 38.3808 27.4849C38.8235 29.4331 38.3176 31.4698 36.9642 33.2156C35.6361 34.9234 33.6503 36.1505 31.361 36.6692C30.5894 36.8463 29.8052 36.9349 29.0463 36.9349ZM30.4123 23.0698C29.742 23.0698 29.0589 23.1457 28.3633 23.2975C24.2146 24.2337 21.4446 27.7379 22.2035 31.1156C22.5703 32.7349 23.6834 34.0885 25.3403 34.9234C27.0352 35.7837 29.0842 36.0114 31.1206 35.5433C33.157 35.0879 34.9152 34.0126 36.0788 32.5072C37.2172 31.0397 37.6472 29.3445 37.2804 27.7252C36.6354 24.9295 33.7515 23.0698 30.4123 23.0698Z" fill="white" fill-opacity="0.2"/>
<path d="M31.8543 29.3315C30.6653 29.3315 29.6914 28.4333 29.6914 27.32C29.6914 26.2068 30.6653 25.3086 31.8543 25.3086C33.0433 25.3086 34.0172 26.2068 34.0172 27.32C34.0172 28.4333 33.0433 29.3315 31.8543 29.3315ZM31.8543 26.4471C31.2978 26.4471 30.8298 26.8393 30.8298 27.32C30.8298 27.8008 31.2851 28.1929 31.8543 28.1929C32.4108 28.1929 32.8788 27.8008 32.8788 27.32C32.8788 26.8393 32.4235 26.4471 31.8543 26.4471Z" fill="white" fill-opacity="0.2"/>
<path d="M37.2425 26.663C37.1033 26.663 36.9642 26.6124 36.863 26.5112C36.6353 26.2961 36.6227 25.9419 36.8251 25.7015L37.8496 24.5883L36.2433 25.1196C36.0156 25.1955 35.7626 25.1196 35.6108 24.9298C35.4591 24.7401 35.4464 24.4744 35.5855 24.272L37.0907 21.919L34.2575 23.6901C33.9918 23.8545 33.6377 23.7786 33.4732 23.513C33.3088 23.2473 33.3847 22.8931 33.6503 22.7286L38.6338 19.6039C38.8615 19.4648 39.1524 19.4901 39.3421 19.6798C39.5319 19.8696 39.5571 20.1606 39.418 20.3883L37.4069 23.5256L39.5698 22.8045C39.8101 22.7286 40.0884 22.8172 40.2275 23.0323C40.3666 23.2473 40.3414 23.5383 40.1643 23.728L37.6472 26.4606C37.546 26.5997 37.3943 26.663 37.2425 26.663Z" fill="white" fill-opacity="0.2"/>
<path d="M4.36913 52.7744C3.09164 52.7744 1.8268 52.7617 0.549312 52.7238C0.271046 52.7111 0.0433683 52.5087 0.00542299 52.2304C-0.0325223 51.9521 0.131889 51.6991 0.397506 51.6105C3.16751 50.7123 4.97625 48.081 6.73438 45.2346L11.8064 37.037C12.8056 35.4178 13.8554 33.7352 15.2974 32.3816C16.9923 30.7876 19.2057 29.7376 21.5078 29.434C21.8113 29.3961 22.1022 29.6111 22.1528 29.9148C22.1908 30.231 21.9758 30.5093 21.6722 30.5599C19.5978 30.8382 17.612 31.787 16.0942 33.2166C14.7535 34.469 13.7542 36.0883 12.793 37.6443L7.72097 45.8419C6.30434 48.119 4.86241 50.2822 2.9019 51.6358C7.91068 51.6864 12.9447 51.4714 17.9156 50.9654C20.1417 50.7377 22.4817 50.4467 24.5054 49.4726C26.8201 48.372 28.8438 46.3099 30.2225 43.6786C31.3735 41.4648 32.1198 38.8208 32.4992 35.5949C32.5372 35.2786 32.8154 35.0635 33.1316 35.1015C33.4479 35.1395 33.6629 35.4178 33.625 35.734C33.2329 39.0991 32.4487 41.8696 31.2218 44.2099C29.7292 47.0563 27.5158 49.2955 24.9861 50.4973C22.7979 51.5473 20.3441 51.8636 18.0168 52.0913C13.4886 52.5467 8.92257 52.7744 4.36913 52.7744Z" fill="white" fill-opacity="0.2"/>
<path d="M13.564 48.2193C13.2352 48.2193 12.9063 48.1813 12.5901 48.0801C12.3878 48.0169 11.8312 47.8397 11.7174 47.3337C11.6162 46.8277 12.0083 46.4861 12.3624 46.1825C12.7798 45.8157 13.096 45.3223 13.4249 44.7657L15.5625 41.2108C16.0305 40.4391 16.6123 39.4777 17.5483 38.9084C18.5475 38.3012 20.0527 38.3012 20.8242 39.3385C21.2922 39.9711 21.3681 40.9072 21.0266 41.7801C20.7737 42.4126 20.3689 42.9187 19.9768 43.412L19.8503 43.5638C19.6606 43.8042 19.4709 44.0446 19.2811 44.2849C18.4969 45.3096 17.6874 46.3723 16.587 47.1566C15.8028 47.7132 14.6771 48.2193 13.564 48.2193ZM13.1087 47.0428C14.0194 47.2199 15.1704 46.7771 15.9293 46.2331C16.8906 45.55 17.6116 44.6012 18.3831 43.5891C18.5728 43.3361 18.7626 43.0958 18.9523 42.8428L19.0788 42.6909C19.4329 42.2482 19.7744 41.8181 19.9642 41.35C20.1665 40.8566 20.1412 40.3253 19.9136 40.009C19.5468 39.5156 18.6867 39.5536 18.1301 39.8825C17.4345 40.3 16.9538 41.097 16.5364 41.7928L14.3989 45.3476C14.0194 45.9675 13.6399 46.562 13.1087 47.0428Z" fill="white" fill-opacity="0.2"/>
<path d="M20.1419 46.1055C20.1166 46.1055 20.0913 46.1055 20.066 46.1055C19.2438 46.0043 18.5355 45.3338 18.1561 44.3091C18.0549 44.0308 17.979 43.7651 17.9031 43.4868C17.7893 43.082 17.6755 42.6898 17.4984 42.3609C17.3466 42.0826 17.4351 41.741 17.7134 41.5892C17.9917 41.4374 18.3332 41.526 18.4849 41.8043C18.7379 42.2597 18.877 42.7278 19.0035 43.1832C19.0794 43.4362 19.1427 43.6766 19.2312 43.9043C19.4083 44.385 19.7624 44.9037 20.2304 44.9669C20.5466 45.0049 20.7617 45.2958 20.7237 45.5995C20.6731 45.9031 20.4328 46.1055 20.1419 46.1055Z" fill="white" fill-opacity="0.2"/>
<path d="M18.902 59.9981C18.6996 59.9981 18.5099 59.8843 18.4087 59.7072L18.2823 59.4795C18.219 59.3656 18.2064 59.2391 18.219 59.1252C17.4981 56.6331 17.1818 54.0523 17.2704 51.459C17.283 51.1427 17.5486 50.9023 17.8522 50.9023C18.1684 50.915 18.4087 51.1807 18.4087 51.4843C18.3202 54.1156 18.6744 56.7343 19.4586 59.2517C19.5471 59.5301 19.408 59.8337 19.1424 59.9475C19.0538 59.9855 18.9779 59.9981 18.902 59.9981Z" fill="white" fill-opacity="0.2"/>
<path d="M14.21 59.2636C13.9823 59.2636 13.7799 59.137 13.6914 58.922C13.5649 58.631 13.704 58.3021 13.9949 58.1756C16.474 57.1256 19.2061 56.7461 21.8749 57.113C22.1911 57.1509 22.4062 57.4419 22.3682 57.7581C22.3303 58.0744 22.0393 58.2895 21.7231 58.2515C19.2567 57.9226 16.7396 58.2642 14.4376 59.2383C14.3617 59.2383 14.2859 59.2636 14.21 59.2636Z" fill="white" fill-opacity="0.2"/>
<path d="M27.5285 57.9479C27.2882 57.9479 27.0732 57.796 26.9847 57.5683C26.2004 55.2786 25.0368 52.5207 23.949 50.3575C23.8099 50.0792 23.9237 49.7376 24.202 49.5985C24.4803 49.4593 24.8218 49.5732 24.9609 49.8515C26.074 52.0906 27.2376 54.8358 28.0471 57.2015C28.1483 57.4924 27.9965 57.8213 27.6929 57.9226C27.655 57.9352 27.5918 57.9479 27.5285 57.9479Z" fill="white" fill-opacity="0.2"/>
<path d="M24.2019 57.6822C24.0754 57.6822 23.9362 57.6316 23.835 57.5431C23.5947 57.3406 23.5694 56.9738 23.7718 56.7461C25.492 54.7473 28.1987 53.6973 30.817 54.0009C31.1332 54.0388 31.3482 54.3171 31.3103 54.6334C31.2723 54.9497 30.9941 55.1647 30.6778 55.1268C28.4644 54.8611 26.0865 55.7846 24.6319 57.4798C24.5181 57.619 24.3663 57.6822 24.2019 57.6822Z" fill="white" fill-opacity="0.2"/>
<path d="M44.3111 10.3464C44.2225 10.3464 44.1213 10.3337 44.0328 10.3211C43.5522 10.2325 43.1348 9.92891 42.945 9.5241C42.7553 9.14458 42.7553 8.6765 42.945 8.25903C43.1348 7.82891 43.4889 7.5 43.919 7.36084C44.1972 7.27229 44.4881 7.27229 44.7664 7.33554C44.8043 5.61506 44.602 3.90723 44.1719 2.2247C44.134 2.06024 44.1593 1.89578 44.2478 1.75663C44.3364 1.61747 44.4881 1.52891 44.6526 1.51626C46.4486 1.28855 48.1941 0.795182 49.8511 0.0487958C50.0282 -0.0271078 50.2305 -0.0144588 50.3949 0.0867461C50.5594 0.187951 50.6606 0.365058 50.6606 0.567468C50.6732 3.23675 50.5847 5.95663 50.3697 8.61326C50.3444 8.91687 50.2938 9.63795 49.7119 9.99217C49.4337 10.1566 49.1175 10.1946 48.7886 10.106C48.3712 9.97952 47.9665 9.63795 47.7514 9.20783C47.4858 8.6765 47.4226 8.11988 47.587 7.6265C47.7894 6.99397 48.3712 6.5512 49.0036 6.5512C49.1301 6.5512 49.2566 6.5765 49.3831 6.61446C49.4843 4.89397 49.5349 3.16085 49.5349 1.44036C48.2194 1.97169 46.8408 2.3512 45.4494 2.56626C45.8668 4.4006 46.0186 6.28555 45.9047 8.17049C45.9553 8.25904 45.9933 8.34759 46.0312 8.43615C46.1198 8.68916 46.0186 8.95482 45.8036 9.09398C45.7277 9.41024 45.5885 9.71385 45.3356 9.96687C45.0447 10.2199 44.6905 10.3464 44.3111 10.3464ZM44.3743 8.43615C44.3364 8.43615 44.2984 8.43614 44.2605 8.44879C44.1466 8.48675 44.0454 8.58795 43.9949 8.71446C43.9443 8.82832 43.9442 8.95482 43.9822 9.03073C44.0201 9.11928 44.1213 9.18253 44.2478 9.20783C44.3617 9.23313 44.4628 9.20783 44.5134 9.15723C44.6399 9.04338 44.6779 8.80302 44.7031 8.55C44.602 8.4741 44.4755 8.43615 44.3743 8.43615ZM48.9657 7.68976C48.8392 7.68976 48.6874 7.82892 48.6368 7.98073C48.5736 8.18314 48.6115 8.43615 48.738 8.68916C48.8519 8.90422 49.0416 9.01807 49.1048 9.01807C49.1048 9.01807 49.1807 8.95482 49.2187 8.5247C49.2313 8.4235 49.2313 8.32229 49.244 8.22108C49.1554 8.10723 49.1048 7.94278 49.1301 7.79097C49.1175 7.76567 49.0416 7.68976 48.9657 7.68976Z" fill="white" fill-opacity="0.2"/>
<path d="M46.9921 20.9988C46.7771 20.9988 46.5621 20.9482 46.3597 20.8217C45.6261 20.3789 45.6514 19.4048 45.6641 19.038L45.7905 15.0151C45.3225 15.2175 44.7913 15.2934 44.2854 15.2048C43.3115 15.0277 42.4893 14.2687 42.249 13.3072C42.1731 13.0036 42.3502 12.6874 42.6537 12.6115C42.9573 12.5356 43.2735 12.7127 43.3494 13.0163C43.4885 13.5476 43.9565 13.9777 44.4877 14.0789C45.019 14.1801 45.6135 13.9398 45.9297 13.4844C46.0688 13.2819 46.3344 13.1934 46.5747 13.2693C46.8151 13.3452 46.9668 13.5729 46.9668 13.8259L46.853 17.6717C46.9036 17.6591 46.9542 17.6591 47.0048 17.6591C47.4475 17.6464 47.8649 17.8109 48.1558 18.1145C48.6617 18.6585 48.7376 19.5313 48.3329 20.2018C48.042 20.6699 47.5234 20.9988 46.9921 20.9988ZM46.8024 18.9368V19.0886C46.7898 19.6705 46.891 19.8223 46.9416 19.8603C47.0174 19.9109 47.2451 19.8223 47.3463 19.6452C47.4854 19.4175 47.4728 19.1012 47.321 18.9368C47.2578 18.8735 47.1439 18.8229 47.0301 18.8356C46.9415 18.8356 46.8657 18.8609 46.8404 18.9115C46.8151 18.9115 46.8151 18.9241 46.8024 18.9368Z" fill="white" fill-opacity="0.2"/>
<path d="M54.0884 13.8768C53.3168 13.8768 52.5705 13.3708 52.3302 12.637C52.0393 11.7768 52.4693 10.7647 53.2915 10.3852C53.6836 10.2081 54.1263 10.1828 54.531 10.284L54.6575 7.88039C54.6702 7.56412 54.9358 7.32376 55.252 7.33641C55.5682 7.34907 55.8085 7.61473 55.7959 7.93099L55.6315 11.0683C55.6315 11.0683 55.6314 11.081 55.6441 11.081C55.7706 11.2961 55.7453 11.5617 55.5935 11.7388L55.5556 12.3587C55.5429 12.6244 55.5176 13.0165 55.252 13.3581C55.0623 13.5985 54.7967 13.7629 54.4551 13.8262C54.3287 13.8641 54.2022 13.8768 54.0884 13.8768ZM54.0251 11.3593C53.9366 11.3593 53.8354 11.372 53.7595 11.4099C53.4686 11.5491 53.2915 11.9539 53.3927 12.2702C53.4939 12.5738 53.886 12.8015 54.2022 12.7256C54.2907 12.7003 54.3413 12.675 54.3413 12.6623C54.3793 12.6117 54.3919 12.4093 54.4046 12.3081L54.4425 11.4858C54.3286 11.3973 54.1769 11.3593 54.0251 11.3593Z" fill="white" fill-opacity="0.2"/>
<path d="M60.4243 8.57297C60.3737 8.57297 60.3357 8.57297 60.2978 8.56032C59.8171 8.49707 59.4503 8.14285 59.21 7.51032C58.7547 6.34647 58.489 5.1067 58.4258 3.85429C58.3626 3.86694 58.312 3.86695 58.2487 3.8796C57.629 3.9049 57.2116 3.48743 56.9206 3.18381C56.7436 3.0067 56.5665 2.8296 56.4274 2.80429C56.1238 2.75369 55.9088 2.45008 55.972 2.14646C56.0226 1.84285 56.3262 1.62779 56.6297 1.69104C57.123 1.7796 57.4645 2.12116 57.7301 2.39947C57.8946 2.56393 58.0843 2.75369 58.1981 2.75369C58.2487 2.75369 58.3373 2.69044 58.3879 2.58923C58.4005 2.55128 58.4258 2.51333 58.4258 2.47538C58.4384 2.29827 58.4511 2.12116 58.4764 1.94405C58.5017 1.64044 58.7673 1.42538 59.0582 1.43803C59.3618 1.45068 59.6021 1.69104 59.6021 1.99465C59.6148 2.23501 59.5895 2.46273 59.5515 2.65249C59.5136 3.27237 59.5389 3.90489 59.6148 4.52477C59.7033 4.47417 59.8045 4.42357 59.9057 4.38562C60.4749 4.19586 61.1199 4.34767 61.5373 4.79044C62.3089 5.61273 61.9041 6.82719 61.7397 7.34587C61.3856 8.40852 60.7658 8.57297 60.4243 8.57297ZM59.9183 6.04285C60.0195 6.40971 60.1333 6.76393 60.2725 7.1055C60.3357 7.28261 60.399 7.37117 60.4369 7.40912C60.4875 7.35852 60.5761 7.21936 60.6646 6.96635C60.8164 6.49827 60.9934 5.84044 60.7152 5.54948C60.614 5.43562 60.4243 5.39767 60.2851 5.44827C60.146 5.49888 60.0321 5.65068 60.0068 5.78983C60.0068 5.87839 59.9689 5.96694 59.9183 6.04285Z" fill="white" fill-opacity="0.2"/>
</svg>
