<svg width="103" height="64" viewBox="0 0 103 64" fill="none" xmlns="http://www.w3.org/2000/svg">
<path d="M23.6469 44.6742C22.4687 44.6742 21.2308 44.1521 20.1719 43.1825C19.3218 42.4068 18.6805 41.4671 18.0541 40.5572C17.8602 40.2887 17.6664 40.0053 17.4725 39.7368C14.7134 35.9032 7.88279 32.0697 3.79636 29.7725C0.709167 28.0422 0.15735 27.6842 0.0231244 27.1621C-0.0365315 26.9384 0.0231244 26.6997 0.15735 26.5058C0.649511 25.8047 2.48393 25.5064 9.01625 24.7606C11.1042 24.5219 13.2817 24.2683 14.8476 24.0147C14.8924 24.0147 14.9222 23.9998 14.9669 23.9998C14.6985 23.6717 14.7134 23.1347 14.7283 22.7767C14.788 20.8077 15.7425 15.4079 16.9356 10.2169C19.1876 0.372019 20.1123 0.148264 20.6193 0.0289318C21.9914 -0.299232 24.0197 2.14708 28.643 8.24794C30.1792 10.2617 31.7601 12.35 33.0427 13.8416C34.206 15.1841 35.5184 16.7056 37.2037 17.4515C40.1865 18.779 45.3914 17.5857 48.8366 16.7802C51.6851 16.1239 52.8633 15.8554 53.2809 16.6758C53.9222 17.884 52.3861 19.9276 48.4637 24.6412C47.2557 26.1031 45.988 27.6096 45.1081 28.8328C43.1693 31.5178 40.3953 34.5757 38.889 34.9038C37.7257 35.1574 36.2492 35.5303 34.6832 35.9032C30.209 37.007 24.661 38.3645 21.0667 38.6479C20.6939 38.6777 20.3807 38.3943 20.3509 38.0363C20.321 37.6634 20.6044 37.3501 20.9623 37.3203C24.4373 37.0518 29.9406 35.6944 34.3551 34.6055C35.9211 34.2177 37.4125 33.8597 38.5907 33.5912C39.3065 33.4271 41.5884 31.4133 44.0044 28.0422C44.9142 26.7892 46.1819 25.2528 47.4048 23.7761C48.6129 22.3292 49.8507 20.8375 50.7456 19.5994C51.5957 18.421 51.8939 17.7945 51.9983 17.4962C51.4018 17.541 50.1937 17.8244 49.105 18.078C45.4809 18.9133 40.0075 20.1812 36.622 18.6597C34.6683 17.7945 33.2515 16.1537 31.9987 14.6919C30.6713 13.1704 29.0756 11.0672 27.5394 9.03853C26.0928 7.12921 24.5864 5.16022 23.3337 3.68349C21.8423 1.93825 21.1861 1.47584 20.9325 1.37142C20.4553 2.0725 19.3218 5.30939 17.8453 12.1113C16.7268 17.2426 16.0557 21.464 16.0258 22.8662C16.9952 22.7021 19.2174 22.1502 21.5738 21.5386C22.8266 20.3751 23.4977 18.8238 23.7811 17.2426C23.3486 16.5415 23.0503 15.7659 22.7968 15.035C21.9616 12.6632 20.3658 5.99556 21.1711 4.38457C21.3352 4.04149 21.5887 3.90724 21.7528 3.86249C22.0063 3.78791 22.2897 3.81774 22.5283 3.9669C22.9161 4.20557 23.8258 4.78731 25.1532 13.5284C25.3172 14.5726 25.3471 15.7361 25.183 16.9294C25.3918 17.2128 25.6453 17.4664 25.9436 17.6603C27.2262 18.5553 29.6125 18.9133 31.6408 19.0028C35.1455 18.1824 35.7868 18.1973 36.1597 18.4956C36.3387 18.6448 36.4431 18.8685 36.4281 19.0923C36.4132 19.2862 36.3237 19.6591 35.8018 19.9127C35.1008 20.2558 33.505 20.4199 31.7004 20.3602C29.4037 20.8972 26.5103 21.6579 24.2434 22.2397C23.5126 22.4336 22.8415 22.5977 22.23 22.7617C22.2002 22.7916 22.1704 22.8065 22.1406 22.8363C20.0824 24.5368 17.2786 24.9843 15.0415 25.3423C13.4457 25.5959 11.2534 25.8495 9.15048 26.0881C6.6151 26.3716 3.3042 26.7594 1.84263 27.1025C2.46902 27.4903 3.45334 28.0571 4.43766 28.5941C8.62849 30.936 15.6231 34.874 18.5463 38.9462C18.7551 39.2296 18.949 39.513 19.1428 39.7964C19.7543 40.6765 20.321 41.5118 21.0518 42.1831C21.8572 42.914 23.1249 43.5703 24.3031 43.2272C25.1979 42.9737 25.8989 42.2129 26.6446 41.4074C27.5842 40.3931 28.5685 39.3489 30.045 39.17C31.2381 39.0208 32.2821 39.5279 33.2962 40.0053C34.1612 40.4229 34.9815 40.8108 35.7868 40.7362C37.0396 40.6019 37.8002 39.4832 38.6951 38.1855C39.3811 37.1861 40.0821 36.1568 41.1111 35.4706C43.0201 34.2027 45.2572 34.5906 47.4197 34.9635C49.2393 35.2767 50.9544 35.5751 52.4308 34.9336C54.0714 34.2326 54.996 32.5768 55.9655 30.8167C56.8454 29.2355 57.7551 27.5947 59.2764 26.5356C61.1704 25.2081 64.3173 24.0893 66.9421 25.2826C68.6722 26.0732 69.9548 26.9831 71.0882 27.7886C72.8332 29.0267 74.2052 30.0112 76.5169 30.1305C76.8898 30.1454 77.1731 30.4587 77.1582 30.8316C77.1433 31.2045 76.8301 31.4879 76.4573 31.473C73.7429 31.3388 72.0875 30.1454 70.3127 28.8775C69.1792 28.072 68.001 27.2218 66.3903 26.4909C64.4068 25.5959 61.767 26.4163 60.037 27.6245C58.7693 28.5046 57.9788 29.9515 57.1287 31.4581C56.0848 33.3376 55.011 35.2767 52.9528 36.1568C51.1184 36.9474 49.1199 36.6043 47.196 36.2612C45.1976 35.9181 43.3184 35.59 41.8568 36.5745C41.0515 37.1115 40.4251 38.0363 39.8136 38.9313C38.8293 40.3782 37.8002 41.8699 35.936 42.0638C34.7578 42.1831 33.7287 41.6908 32.7295 41.2135C31.8496 40.7958 31.0293 40.3931 30.2239 40.4975C29.2396 40.6169 28.4641 41.4522 27.6438 42.3173C26.8086 43.2272 25.9287 44.1521 24.6908 44.5101C24.3627 44.6294 24.0048 44.6742 23.6469 44.6742ZM24.8847 18.5105C24.6461 19.3608 24.2882 20.1961 23.8109 20.9569C23.8557 20.9419 23.8855 20.9419 23.9302 20.927C25.4962 20.5243 26.8534 20.1663 28.0465 19.8679C26.9429 19.6144 25.9287 19.2414 25.2128 18.7343C25.0935 18.6746 24.9891 18.6 24.8847 18.5105ZM22.3195 6.18947C22.3493 6.81597 22.4537 7.71096 22.6625 8.93412C22.9757 10.6495 23.4232 12.5588 23.8855 13.9759C23.8706 13.8864 23.8557 13.7969 23.8557 13.7074C23.2442 9.70978 22.7073 7.39771 22.3195 6.18947Z" fill="white" fill-opacity="0.2"/>
<path d="M37.4578 56.2831C37.1297 56.2831 36.8463 56.0444 36.8016 55.7013C36.2796 51.9274 39.665 48.7055 43.0803 47.9C46.6 47.0646 50.2838 48.079 53.2517 48.8845C54.8624 49.317 56.6819 49.8242 58.3075 49.3021C60.1569 48.7204 61.3201 46.99 62.558 45.1702C63.7809 43.3504 65.0636 41.456 67.1366 40.5909C70.2238 39.308 73.5049 40.8594 76.3833 42.2168L76.6666 42.351C79.2169 43.5593 82.7068 44.5885 84.8395 42.709C85.9282 41.7394 86.3756 40.2329 86.838 38.6517C87.345 36.9065 87.8819 35.1016 89.3435 33.8784C91.0735 32.4464 93.4449 32.4315 95.5179 32.4315C95.8162 32.4315 96.1145 32.4315 96.4127 32.4315C97.4418 32.4166 100.827 32.1928 101.543 29.9404C101.648 29.5824 102.035 29.3885 102.378 29.5079C102.736 29.6123 102.93 30.0001 102.811 30.3432C102.14 32.4464 99.7535 33.7143 96.4276 33.774C96.1294 33.774 95.8162 33.774 95.503 33.774C93.5492 33.774 91.5359 33.774 90.1787 34.9077C89.0303 35.8623 88.5829 37.3987 88.1056 39.0246C87.6135 40.7251 87.0915 42.4853 85.7194 43.7084C83.6016 45.5879 80.2758 45.5432 76.085 43.5742L75.8016 43.4399C73.1618 42.1869 70.179 40.7848 67.6437 41.8439C65.9435 42.5598 64.8249 44.2007 63.6616 45.931C62.3641 47.8701 61.0069 49.8689 58.7102 50.5999C56.7117 51.2264 54.5939 50.6595 52.8937 50.1971C50.075 49.4364 46.5553 48.4817 43.3786 49.2275C40.5151 49.8988 37.7113 52.5987 38.114 55.5372C38.1587 55.9101 37.9052 56.2383 37.5473 56.298C37.5174 56.2831 37.4876 56.2831 37.4578 56.2831Z" fill="white" fill-opacity="0.2"/>
<path d="M66.2857 63.9353C66.1813 63.9353 66.0769 63.9055 65.9874 63.8608C65.6593 63.6967 65.5251 63.2939 65.6892 62.9658C68.8957 56.5815 77.2326 53.4192 83.8693 56.0445C84.6001 56.3428 85.3458 56.7008 86.0467 57.0439C87.9408 57.9687 89.7156 58.8339 91.5798 58.5505C93.9362 58.1776 95.6513 56.0296 97.2173 53.8518L101.781 47.4824C101.99 47.1841 102.422 47.1095 102.721 47.3332C103.019 47.5421 103.093 47.9746 102.87 48.273L98.306 54.6423C96.576 57.0588 94.6521 59.4455 91.7886 59.893C89.5068 60.251 87.4487 59.2366 85.4502 58.2671C84.7641 57.9389 84.0632 57.5809 83.3622 57.3124C77.337 54.9257 69.7905 57.8046 66.8674 63.5923C66.7779 63.8011 66.5393 63.9353 66.2857 63.9353Z" fill="white" fill-opacity="0.2"/>
</svg>
