<svg width="106" height="75" viewBox="0 0 106 75" fill="none" xmlns="http://www.w3.org/2000/svg">
<path d="M42.7138 57.6097C42.2557 57.6097 41.8434 57.3118 41.7288 56.8536C41.5685 56.3038 41.8892 55.731 42.4389 55.5707C44.8441 54.8834 47.2492 54.3335 49.6085 53.8066C54.1897 52.7757 58.5419 51.7905 62.7566 49.9119C71.0944 46.2234 78.6763 41.1374 85.6168 36.2117C91.5953 31.9505 96.2223 26.3604 100.574 20.7704C100.574 20.7475 100.597 20.7475 100.597 20.7246C101.124 20.0602 101.628 19.3729 102.155 18.7085C103.346 17.1048 103.69 16.6695 103.919 16.4862C104.331 16.1426 104.927 16.1655 105.293 16.532C105.66 16.8986 105.705 17.4943 105.385 17.9066C104.858 18.571 104.354 19.2354 103.827 19.9227C103.827 19.9456 103.804 19.9456 103.804 19.9685C102.796 21.3202 102.407 21.8472 102.178 22.0763C97.757 27.7809 93.0384 33.4854 86.8308 37.8842C79.7987 42.8785 72.1252 48.0333 63.627 51.7905C59.2062 53.7379 54.5791 54.7917 50.0895 55.8227C47.776 56.3496 45.3709 56.8995 43.0345 57.5638C42.8971 57.6097 42.8054 57.6097 42.7138 57.6097Z" fill="white" fill-opacity="0.2"/>
<path d="M38.1326 51.6517C37.6515 51.6517 37.2392 51.331 37.1247 50.8499C36.9872 50.3001 37.3538 49.7502 37.9035 49.6128C44.2256 48.1694 49.7688 45.2369 55.6328 42.1441C59.0687 40.3342 62.6191 38.4556 66.3299 36.9206C70.7737 35.0649 73.4995 33.255 76.9354 30.9411C78.2869 30.0247 79.6841 29.0854 81.3334 28.0545C84.8838 25.8322 88.7549 22.2811 91.9618 18.4781L91.9847 18.4552C92.1908 18.1573 93.2674 16.6224 94.3898 15.0187C95.4664 13.4837 96.5888 11.88 96.7949 11.5822C97.1156 11.124 97.7112 11.0094 98.1922 11.2843C98.6503 11.5822 98.8107 12.1778 98.5587 12.6589C95.1457 18.8676 88.3655 26.0613 82.4329 29.7956C80.8065 30.8037 79.4322 31.743 78.0807 32.6365C74.6906 34.9045 71.7586 36.8748 67.1316 38.7992C63.5125 40.3113 60.0078 42.1441 56.6177 43.954C50.8912 46.9781 44.9586 50.0939 38.3845 51.6059C38.2929 51.6288 38.2242 51.6517 38.1326 51.6517Z" fill="white" fill-opacity="0.2"/>
<path d="M36.232 45.5144C35.7738 45.5144 35.3616 45.1937 35.2241 44.7355C35.0867 44.1857 35.4074 43.6129 35.9571 43.4755C40.5841 42.2841 45.8067 39.4433 49.3342 37.4043C54.8088 34.2427 59.8023 31.4706 65.2997 28.4236C66.3763 27.8279 67.3842 27.2781 68.3692 26.7512C72.79 24.3456 76.2947 22.4441 79.8909 19.42C83.3955 16.4646 87.2437 12.9593 90.6338 9.8665C91.2294 9.31666 91.825 8.76682 92.3976 8.23989C92.4663 8.12534 92.5579 8.01079 92.6725 7.91915L93.52 7.25476C93.9552 6.91111 94.5966 6.95693 94.9402 7.39222C95.3067 7.82751 95.2609 8.44608 94.8485 8.83555C93.9323 9.66031 92.9932 10.5309 92.0311 11.4015C88.6181 14.5172 84.7699 18.0225 81.2424 21.0008C77.4858 24.1852 73.7292 26.2242 69.377 28.584C68.3921 29.1109 67.3842 29.6607 66.3076 30.2564C60.8102 33.3034 55.8396 36.0755 50.3879 39.2142C46.7688 41.3219 41.3629 44.2544 36.484 45.4915C36.4152 45.5144 36.3236 45.5144 36.232 45.5144Z" fill="white" fill-opacity="0.2"/>
<path d="M38.6368 37.838C38.1099 37.838 37.6518 37.4256 37.606 36.8987C37.5602 36.3259 37.9725 35.8219 38.5452 35.7761C44.3862 35.2721 50.525 31.4461 55.7705 27.7805C59.2522 25.3291 62.5507 22.4425 65.7346 19.6704C67.1319 18.4561 68.575 17.1732 70.041 15.959C73.7747 12.8203 77.2335 9.58997 80.5778 6.47422C82.7768 4.41232 85.0445 2.3046 87.3351 0.265609C87.7703 -0.123861 88.4116 -0.0780402 88.801 0.35725C89.1904 0.792539 89.1446 1.43402 88.7094 1.82349C86.4417 3.83957 84.174 5.94729 81.9979 7.98627C78.6308 11.1249 75.149 14.3782 71.3695 17.5397C69.9265 18.754 68.5063 20.014 67.109 21.2283C63.8793 24.0462 60.5579 26.9557 56.9846 29.4758C51.5329 33.3018 45.0963 37.3111 38.7513 37.838C38.7055 37.838 38.6826 37.838 38.6368 37.838Z" fill="white" fill-opacity="0.2"/>
<path d="M20.6327 74.1483C20.5869 74.1483 20.5411 74.1483 20.4953 74.1483C20.1059 74.1024 19.7852 73.8275 19.6478 73.4381L15.0207 59.0735L0.750296 55.1788C0.383799 55.0872 0.086004 54.7664 0.0172858 54.3769C-0.0514323 53.9875 0.0860208 53.598 0.406705 53.3689L12.4782 43.9987L12.0888 28.7177C12.0888 28.3283 12.2949 27.9617 12.6385 27.7784C12.9821 27.5952 13.3944 27.6181 13.7151 27.8472L25.7637 36.4384L39.8051 30.9171C40.1716 30.7796 40.5839 30.8484 40.8817 31.1233C41.1795 31.3982 41.2711 31.8106 41.1565 32.1772L36.5524 46.8625L45.6462 58.7069C45.8752 59.0048 45.921 59.4171 45.7607 59.7837C45.6003 60.1273 45.2567 60.3564 44.8673 60.3794L29.9555 60.8376L21.5032 73.6901C21.3199 73.965 20.9763 74.1483 20.6327 74.1483ZM3.29286 53.7125L16.1202 57.2178C16.4638 57.3094 16.7158 57.5614 16.8303 57.9051L20.9534 70.7576L28.5124 59.2568C28.6957 58.9818 29.0163 58.7986 29.337 58.7986L42.7829 58.3862L34.6054 47.7101C34.3993 47.4352 34.3306 47.0916 34.4451 46.7708L38.5682 33.6434L26.0156 38.569C25.695 38.7065 25.3285 38.6607 25.0307 38.4545L14.1961 30.7338L14.5626 44.4798C14.5626 44.8006 14.4252 45.1213 14.1732 45.3275L3.29286 53.7125Z" fill="white" fill-opacity="0.2"/>
</svg>
