<svg width="94" height="90" viewBox="0 0 94 90" fill="none" xmlns="http://www.w3.org/2000/svg">
<path d="M31.1906 60.5892C30.9704 60.5892 30.7501 60.5231 30.5739 60.3909C30.3316 60.2146 30.1994 59.9282 30.1994 59.6198C30.1553 55.8966 31.3669 52.0191 33.7458 48.406C35.6401 45.52 38.1953 42.8543 41.7857 40.0343C42.6007 39.3954 43.4378 38.7785 44.2307 38.1617C45.222 37.4346 46.2352 36.6636 47.2044 35.8925C48.5921 34.7689 49.9578 33.5352 51.2794 32.3455L57.0065 27.1682C58.9229 25.4278 61.0374 23.9076 63.4604 24.4584C65.8173 24.9871 67.4694 27.6309 67.0509 30.2085C66.39 34.3503 63.7468 35.6061 61.1917 36.8178C59.826 37.4567 58.4162 38.1396 57.3149 39.2852C56.9184 39.6818 56.4338 40.1444 55.9271 40.6512C54.5394 41.951 52.8433 43.6033 52.1385 44.837C47.8212 52.5919 40.0676 58.4962 31.455 60.6112C31.3449 60.5671 31.2787 60.5892 31.1906 60.5892ZM62.4912 26.309C61.1035 26.309 59.6938 27.4106 58.3501 28.6223L52.6231 33.7995C51.2794 35.0112 49.9137 36.267 48.46 37.4126C47.4687 38.2057 46.4335 38.9988 45.4422 39.7479C44.6493 40.3427 43.8122 40.9596 43.0412 41.5765C39.627 44.2642 37.2041 46.7758 35.4199 49.4856C33.5476 52.3276 32.4682 55.3458 32.2479 58.2759C39.8473 56.0508 46.5656 50.7193 50.4203 43.8016C51.2574 42.3035 53.0196 40.6291 54.5615 39.1531C55.0681 38.6684 55.5307 38.2277 55.9051 37.8532C57.2708 36.4653 58.9008 35.6722 60.3546 34.9892C62.7336 33.8656 64.6058 32.9624 65.1125 29.856C65.3327 28.468 64.4957 26.6615 63.064 26.3531C62.8437 26.309 62.6675 26.309 62.4912 26.309Z" fill="white" fill-opacity="0.2"/>
<path d="M68.7031 29.3491C68.615 29.3491 68.5269 29.3491 68.4609 29.3491C66.7648 29.261 65.1568 28.3137 64.1435 26.8376C63.2404 25.5157 62.8439 23.8193 63.0422 22.1009C63.1964 20.8011 63.703 19.8317 64.518 19.303C65.333 18.7742 66.2802 18.7742 66.919 18.8183C68.1745 18.9064 69.2538 19.2369 70.1349 19.7877C72.1173 21.0434 74.3862 24.1718 72.9544 26.9257C72.1394 28.3797 70.4653 29.3491 68.7031 29.3491ZM66.4564 20.735C66.0599 20.735 65.7956 20.8011 65.5973 20.9113C65.1788 21.1756 65.0466 21.8806 65.0026 22.2772C64.8704 23.5109 65.1347 24.7667 65.7735 25.692C66.4343 26.6613 67.4917 27.3002 68.549 27.3443C69.6283 27.3884 70.7076 26.8155 71.1702 25.9343C71.9411 24.4582 70.4653 22.2992 69.0556 21.3959C68.4609 21.0214 67.6899 20.8011 66.7647 20.735C66.6546 20.757 66.5445 20.735 66.4564 20.735Z" fill="white" fill-opacity="0.2"/>
<path d="M10.9034 54.5971C8.76681 54.5971 6.65217 54.2666 4.6477 53.4295C1.5639 52.1296 0 49.6622 0 46.0711C0 42.0174 0.198212 38.118 2.44498 34.9896C4.73581 31.8171 8.56853 30.4071 11.2558 29.636C24.6704 25.7366 39.3405 27.7414 49.5171 34.8794C49.9576 35.1878 50.0677 35.8047 49.7593 36.2674C49.451 36.708 48.8342 36.8181 48.3716 36.5097C38.6576 29.7242 24.6484 27.8295 11.7845 31.5527C7.95181 32.6543 5.48477 34.1304 4.03098 36.1572C2.11462 38.8009 1.9604 42.3699 1.9604 46.0711C1.9604 47.8336 2.31285 50.3011 5.39666 51.6009C9.86817 53.4735 15.0005 52.4601 19.8905 51.0942C20.9258 50.8078 21.9611 50.4773 22.9523 50.1909C26.741 49.0453 30.3094 47.9438 34.5166 48.0539C35.0672 48.076 35.4857 48.5166 35.4857 49.0673C35.4637 49.6181 35.0232 50.0587 34.4725 50.0367C30.5957 49.9486 27.1595 50.984 23.547 52.0856C22.5338 52.394 21.4985 52.7025 20.4412 53.0109C17.4455 53.8481 14.1414 54.5971 10.9034 54.5971Z" fill="white" fill-opacity="0.2"/>
<path d="M12.666 46.953C12.4458 46.953 12.2255 46.953 11.9832 46.931C10.0007 46.7988 8.34872 46.0497 7.33547 44.838C6.146 43.406 5.85961 41.247 6.63056 39.4625C7.35746 37.722 9.00949 36.2459 10.7056 35.7392C12.1814 35.3206 14.296 34.9902 16.0582 35.7613C16.3445 35.8934 16.5208 36.1138 16.6089 36.3781C16.9173 36.4883 17.2477 36.6425 17.5561 36.8187C19.12 37.7661 20.001 39.6828 19.7367 41.6215C19.4944 43.3179 18.4151 44.8821 16.8291 45.8514C15.6397 46.5785 14.23 46.953 12.666 46.953ZM10.3311 38.0965C9.53816 38.6033 8.83331 39.3964 8.48087 40.2556C7.99628 41.3792 8.17247 42.701 8.89937 43.5822C9.80248 44.6618 11.3224 44.9041 12.1594 44.9702C13.1286 45.0363 14.5603 44.9482 15.8379 44.1771C16.9173 43.5162 17.6662 42.4807 17.8204 41.3792C17.9746 40.2776 17.4459 39.0879 16.5869 38.5592C15.9481 38.1626 15.089 37.9864 14.1639 38.0525C12.3577 38.1626 11.9171 39.3303 11.851 39.5726C11.829 39.6167 11.829 39.6607 11.8069 39.7048C12.3136 39.3082 12.9964 39.1981 13.6793 39.4404C14.4282 39.7048 14.9789 40.3437 15.089 41.0707C15.1771 41.6876 15.0009 42.3045 14.5824 42.8112C14.1418 43.3399 13.481 43.6924 12.7982 43.7144C11.6748 43.7585 10.5734 43.0535 10.0668 41.9299C9.58222 40.8724 9.73639 39.7489 9.93463 39.0218C10.0007 38.7134 10.1329 38.405 10.3311 38.0965ZM12.1154 41.4673C12.2916 41.6215 12.4898 41.7316 12.688 41.7096C12.7982 41.7096 12.9303 41.6215 13.0184 41.5334C13.0625 41.4673 13.1066 41.4012 13.0845 41.3571C13.0625 41.3351 12.9965 41.291 12.9524 41.291C12.7101 41.4893 12.4017 41.5334 12.1154 41.4673Z" fill="white" fill-opacity="0.2"/>
<path d="M27.0489 45.3432C26.1679 45.3432 25.3087 45.0348 24.692 44.6162C24.6479 44.5942 24.6039 44.5501 24.5599 44.506C23.3924 43.3825 23.3043 42.0165 23.3484 40.937C23.4144 39.4389 24.5819 38.0289 25.5731 37.3019C27.2912 36.0241 29.2296 35.958 30.2869 37.1697C31.19 38.2052 31.6306 39.4389 30.8376 41.9945C30.4411 43.2503 29.6701 44.2857 28.6789 44.9026C28.1723 45.211 27.6216 45.3432 27.0489 45.3432ZM25.8594 43.0079C26.4542 43.3825 27.2031 43.4706 27.6216 43.2062C28.2163 42.8537 28.6789 42.1708 28.9432 41.3776C29.582 39.3508 29.1635 38.8881 28.7891 38.4696C28.4366 38.051 27.4454 38.3594 26.7626 38.8881C25.9696 39.483 25.3528 40.3863 25.3308 41.0251C25.2868 41.9945 25.4409 42.5673 25.8594 43.0079Z" fill="white" fill-opacity="0.2"/>
<path d="M46.3006 34.9884C46.0363 34.9884 45.75 34.8783 45.5737 34.658C38.3929 26.7048 32.2914 17.8924 36.058 7.49382C37.3356 3.96886 42.3578 -0.371234 45.7279 0.0253231C47.7544 0.267664 49.4946 1.08281 50.7281 2.40467C52.6225 4.43151 53.085 7.25148 53.4815 9.52067L56.8076 29.3926C56.8957 29.9434 56.5433 30.4501 55.9926 30.5382C55.4639 30.6263 54.9353 30.2738 54.8472 29.7231L51.5211 9.85113C51.1907 7.84631 50.7722 5.35681 49.2743 3.77058C48.3712 2.80122 47.0496 2.18436 45.4856 2.00811C43.4591 1.7878 39.0317 5.04838 37.8863 8.17678C34.4721 17.606 40.2432 25.8456 47.0055 33.3361C47.38 33.7327 47.3359 34.3716 46.9394 34.7461C46.7852 34.9003 46.5429 34.9884 46.3006 34.9884Z" fill="white" fill-opacity="0.2"/>
<path d="M45.1998 15.9732C44.8254 15.9732 44.4289 15.8851 44.0544 15.6868C42.7328 15.0039 42.4464 13.4397 42.6447 12.1839C42.8209 10.9061 43.702 9.20974 45.1998 8.48272C46.169 8.02007 47.2263 8.06413 48.1735 8.63694C48.9665 9.09959 49.4511 9.80458 49.5392 10.6638C49.7374 12.2059 48.6361 13.9023 47.6228 14.8717C47.0061 15.5106 46.125 15.9732 45.1998 15.9732ZM46.5435 10.1791C46.3893 10.1791 46.2131 10.2232 46.0589 10.2893C45.376 10.6197 44.7593 11.5671 44.6271 12.4703C44.539 13.0431 44.6492 13.7261 45.0016 13.9244C45.288 14.0786 45.8386 13.8803 46.2572 13.4617C46.9841 12.7567 47.6669 11.6111 47.6008 10.9061C47.5788 10.7519 47.5127 10.5536 47.1823 10.3553C46.94 10.2452 46.7418 10.1791 46.5435 10.1791Z" fill="white" fill-opacity="0.2"/>
<path d="M46.2354 89.2527C45.949 89.2527 45.6847 89.2307 45.4204 89.1646C43.7023 88.7901 42.667 87.3801 41.7419 85.9921C39.5171 82.5773 36.984 78.7219 36.3892 74.2717C36.0588 71.7381 36.3672 69.0944 36.6756 66.5388C37.0501 63.3443 37.4025 60.3041 36.5875 57.5722C36.4333 57.0435 36.7417 56.4927 37.2483 56.3385C37.7769 56.1843 38.3276 56.4927 38.4818 56.9994C39.407 60.1278 39.0105 63.4985 38.636 66.7591C38.3276 69.3147 38.0633 71.7161 38.3496 73.9853C38.8783 77.9949 41.2793 81.6521 43.3939 84.8906C44.0988 85.9481 44.8477 87.0056 45.8389 87.2259C46.742 87.4242 47.7553 86.8734 48.4381 86.3887C51.0153 84.5601 52.4691 81.6961 53.218 79.6252C54.2533 76.7832 54.6938 73.6108 55.0462 71.0552C56.478 60.8548 57.3371 50.0597 54.1432 40.2999C53.9669 39.7712 54.2533 39.2204 54.7819 39.0442C55.3106 38.8679 55.8612 39.1543 56.0375 39.6831C59.3636 49.8173 58.4605 60.8769 57.0067 71.3195C56.5441 74.5801 56.1036 77.5102 55.0683 80.3082C53.8568 83.6569 51.9404 86.3006 49.5615 87.997C48.4161 88.8341 47.2927 89.2527 46.2354 89.2527Z" fill="white" fill-opacity="0.2"/>
<path d="M47.9313 64.3323C47.3586 64.3323 46.7859 64.1781 46.3013 63.8476C45.266 63.1426 44.8916 61.9309 44.7153 61.0717C44.5171 60.1905 44.407 59.2872 44.3849 58.406C44.3629 57.679 44.3849 56.8197 44.7373 56.0046C45.4422 54.4184 46.4335 54.132 47.1383 54.176C49.2309 54.3082 50.9049 57.5908 51.2353 58.7144C51.6979 60.2345 51.4997 61.8208 50.7067 62.9223C50.0459 63.8256 48.9665 64.3323 47.9313 64.3323ZM47.0282 56.1588C46.9621 56.1588 46.7639 56.313 46.5436 56.8197C46.3454 57.2824 46.3453 57.8552 46.3453 58.3619C46.3674 59.133 46.4775 59.9261 46.6317 60.6752C46.8079 61.5123 47.0502 61.997 47.4026 62.2173C47.8652 62.5258 48.7022 62.2834 49.0987 61.7547C49.5393 61.1598 49.6274 60.2345 49.341 59.2872C48.9886 58.1196 47.6449 56.2029 47.0282 56.1588Z" fill="white" fill-opacity="0.2"/>
<path d="M45.8826 83.367C45.7504 83.367 45.6182 83.367 45.4861 83.3449C44.2966 83.2568 43.2613 82.7281 42.6225 81.8909C39.6709 78.1016 38.944 74.4004 40.4859 70.8974C41.367 68.8706 42.997 68.8265 43.6137 68.8045H43.6578C45.3759 68.7384 46.9839 69.5536 48.5478 71.294C49.8915 72.7701 50.2219 74.3343 49.539 75.9205C49.8254 76.0307 50.0677 76.295 50.1558 76.6255C50.7065 78.9828 50.288 81.0096 48.9884 82.2213C48.1733 82.9484 47.05 83.367 45.8826 83.367ZM41.6753 74.9952C41.7855 76.4933 42.4023 78.41 44.1644 80.6792C44.4728 81.0757 45.0014 81.3181 45.6182 81.3842C46.3671 81.4503 47.1161 81.2079 47.5786 80.7673C48.4597 79.9522 48.4157 78.4981 48.2835 77.6169C47.5125 78.2558 46.5434 78.4981 45.42 78.2998C44.3847 78.1016 42.5344 76.7356 41.6753 74.9952ZM43.2172 73.3208C43.2613 73.8055 43.5036 74.2902 43.834 74.7308C43.834 74.6868 43.812 74.6207 43.812 74.5766C43.7459 74.0479 44.0102 73.5632 44.4948 73.2988C44.7151 73.1887 44.9574 73.1005 45.1997 73.0785C44.9354 72.9463 44.649 72.8802 44.3847 72.8802C43.834 72.9023 43.3274 73.1666 43.2172 73.3208ZM43.834 70.7873C43.79 70.7873 43.7679 70.7873 43.7239 70.7873H43.6798C43.2173 70.8093 42.7767 70.8093 42.4023 71.4482C43.019 71.0737 43.7679 70.9195 44.3186 70.8974C44.4508 70.8974 44.5829 70.8974 44.6931 70.8974C44.4067 70.8313 44.1204 70.7873 43.834 70.7873Z" fill="white" fill-opacity="0.2"/>
<path d="M79.1437 54.243C76.0599 54.243 72.4694 53.7142 68.8129 52.128C59.2311 48.0082 57.8874 46.3779 56.1913 44.307C55.8609 43.8884 55.5085 43.4698 55.0459 42.9851C54.6715 42.5886 54.6935 41.9497 55.09 41.5752C55.4865 41.2006 56.1253 41.2227 56.4997 41.6192C56.9843 42.148 57.3588 42.5886 57.7332 43.0292C59.2531 44.8798 60.4646 46.3559 69.6059 50.2994C77.9542 53.8905 85.9941 51.5331 86.9853 50.7841C88.0647 49.969 88.4391 48.4488 88.5713 47.3252C89.0118 43.3156 87.0955 39.0636 83.8134 36.7504C80.5094 34.4151 76.4563 34.1287 73.6589 34.3049C69.694 34.5693 65.5089 35.2963 62.1828 36.2877C61.6541 36.4419 61.1034 36.1555 60.9492 35.6268C60.795 35.0981 61.0814 34.5473 61.61 34.3931C65.0683 33.3576 69.4077 32.6086 73.5268 32.3222C76.6546 32.1239 81.1702 32.4323 84.9588 35.1201C88.8576 37.896 91.0603 42.7648 90.5537 47.5235C90.3114 49.7046 89.4964 51.3789 88.1968 52.3703C87.3378 53.0092 83.8134 54.243 79.1437 54.243Z" fill="white" fill-opacity="0.2"/>
<path d="M77.9545 47.6792C77.2717 47.6792 76.4126 47.3928 75.3333 46.5336C73.9896 45.4541 73.6372 43.3832 74.5403 41.9291C75.4654 40.4751 77.4699 39.8803 79.0339 40.6293C79.0779 40.6513 79.1219 40.6734 79.166 40.7174C79.3202 40.8276 80.6859 41.841 80.8841 43.5594C81.0163 44.705 80.5757 45.8506 79.6065 46.9302C79.3422 47.2606 78.7915 47.6792 77.9545 47.6792ZM77.558 42.3257C77.0293 42.3257 76.4787 42.5901 76.2144 43.0087C75.8399 43.6035 75.9941 44.5729 76.5448 45.0135C77.1615 45.4982 77.8884 45.8947 78.1307 45.6303C78.7034 45.0135 78.9678 44.3966 78.9017 43.8238C78.8356 43.0968 78.2629 42.568 78.0646 42.4138C77.9325 42.3477 77.7562 42.3257 77.558 42.3257Z" fill="white" fill-opacity="0.2"/>
<path d="M67.7773 20.8657C67.2487 20.8657 66.8302 20.4691 66.7861 19.9403C66.5659 16.3052 67.1386 12.8243 68.5043 9.27737C69.5616 6.5235 70.9273 4.45259 72.6454 2.95448C74.8261 1.08185 77.6015 0.222645 80.0685 0.707326C82.9541 1.2581 85.2669 3.70354 85.4652 6.39131C85.5753 7.99957 84.9585 9.54174 83.8351 10.467C82.4915 11.5686 80.5091 11.6126 79.2535 10.5772C78.5487 10.0044 78.1301 9.10112 78.1301 8.13176C78.1301 7.22849 78.4825 6.41334 79.1213 5.8846C79.5399 5.53211 80.1566 5.5982 80.5091 6.01679C80.8615 6.43537 80.7954 7.05224 80.3769 7.40474C80.2007 7.55895 80.0905 7.80129 80.0905 8.10973C80.0905 8.48425 80.2447 8.83675 80.487 9.03503C81.0157 9.47565 81.9629 9.40955 82.5576 8.92487C83.1964 8.41816 83.5268 7.49286 83.4607 6.54553C83.3285 4.71696 81.6985 3.04261 79.672 2.64605C77.7777 2.29355 75.619 2.95448 73.9009 4.45259C72.4251 5.73038 71.2576 7.53692 70.3105 9.98236C69.0549 13.265 68.5263 16.4815 68.7245 19.8082C68.7466 20.3589 68.3501 20.8216 67.7994 20.8657C67.7994 20.8657 67.7994 20.8657 67.7773 20.8657Z" fill="white" fill-opacity="0.2"/>
<path d="M76.8306 24.9196C75.2667 24.9196 73.7027 24.8535 72.1608 24.7874C71.6102 24.7654 71.1917 24.3027 71.2137 23.752C71.2357 23.2012 71.6983 22.7826 72.249 22.8046C75.3108 22.9148 78.4827 23.047 81.5444 22.6724C84.9146 22.2539 87.7341 21.2404 89.9368 19.6762C90.6197 19.1916 92.2056 17.8917 92.0073 16.4157C91.8972 15.5344 91.1924 14.6972 89.8267 13.8601C89.5844 13.7058 89.32 13.5516 89.0557 13.4194C89.2099 13.5737 89.32 13.794 89.342 14.0363C89.4522 15.0497 88.3068 16.8563 86.9631 17.385C85.9058 17.8036 84.8926 17.4511 84.1437 16.4597C83.615 15.7547 83.4388 14.7854 83.6591 13.838C83.9014 12.7805 84.5842 11.8552 85.4873 11.3926C86.9631 10.6215 88.8134 10.9079 90.8839 12.2077C92.7783 13.3974 93.7695 14.6972 93.9677 16.1953C94.2761 18.6408 92.2937 20.4473 91.0602 21.3065C88.5931 23.069 85.4653 24.1926 81.7647 24.6552C80.1567 24.8535 78.4827 24.9196 76.8306 24.9196ZM87.2936 12.9348C86.9852 12.9348 86.6988 13.0009 86.4345 13.133C86.06 13.3313 85.7296 13.7719 85.6195 14.2566C85.5314 14.6532 85.5754 15.0057 85.7736 15.27C86.0159 15.6005 86.1481 15.5785 86.2142 15.5564C86.7208 15.4243 87.3376 14.521 87.4037 14.1905C87.3817 13.6618 87.7781 13.2212 88.2848 13.1551C88.3288 13.1551 88.3729 13.1551 88.4169 13.1551C88.0204 13.0229 87.646 12.9348 87.2936 12.9348Z" fill="white" fill-opacity="0.2"/>
</svg>
