<svg width="20" height="20" viewBox="0 0 20 20" fill="none" xmlns="http://www.w3.org/2000/svg">
<g clip-path="url(#clip0_1_4226)">
<path d="M19.3923 7.84907C18.0998 5.74407 15.1598 2.2124 9.9998 2.2124C4.8398 2.2124 1.8998 5.74407 0.607299 7.84907C0.207739 8.49532 -0.00390625 9.2401 -0.00390625 9.9999C-0.00390625 10.7597 0.207739 11.5045 0.607299 12.1507C1.8998 14.2557 4.8398 17.7874 9.9998 17.7874C15.1598 17.7874 18.0998 14.2557 19.3923 12.1507C19.7919 11.5045 20.0035 10.7597 20.0035 9.9999C20.0035 9.2401 19.7919 8.49532 19.3923 7.84907ZM17.9715 11.2782C16.8615 13.0832 14.349 16.1207 9.9998 16.1207C5.65063 16.1207 3.13813 13.0832 2.02813 11.2782C1.79074 10.8941 1.66501 10.4515 1.66501 9.9999C1.66501 9.54834 1.79074 9.1057 2.02813 8.72157C3.13813 6.91657 5.65063 3.87907 9.9998 3.87907C14.349 3.87907 16.8615 6.91324 17.9715 8.72157C18.2089 9.1057 18.3346 9.54834 18.3346 9.9999C18.3346 10.4515 18.2089 10.8941 17.9715 11.2782Z" fill="#7763E5"/>
<path d="M9.99968 5.83301C9.17559 5.83301 8.37 6.07738 7.6848 6.53522C6.9996 6.99306 6.46554 7.6438 6.15018 8.40516C5.83481 9.16652 5.7523 10.0043 5.91307 10.8126C6.07384 11.6208 6.47068 12.3632 7.0534 12.946C7.63612 13.5287 8.37855 13.9255 9.1868 14.0863C9.99505 14.2471 10.8328 14.1645 11.5942 13.8492C12.3555 13.5338 13.0063 12.9998 13.4641 12.3146C13.922 11.6293 14.1663 10.8238 14.1663 9.99967C14.165 8.89501 13.7256 7.83597 12.9445 7.05486C12.1634 6.27374 11.1043 5.83433 9.99968 5.83301ZM9.99968 12.4997C9.50522 12.4997 9.02187 12.3531 8.61075 12.0783C8.19963 11.8036 7.8792 11.4132 7.68998 10.9564C7.50076 10.4996 7.45125 9.9969 7.54771 9.51195C7.64418 9.027 7.88228 8.58154 8.23191 8.23191C8.58154 7.88228 9.027 7.64417 9.51195 7.54771C9.9969 7.45125 10.4996 7.50076 10.9564 7.68998C11.4132 7.87919 11.8036 8.19963 12.0783 8.61075C12.3531 9.02187 12.4997 9.50522 12.4997 9.99967C12.4997 10.6627 12.2363 11.2986 11.7674 11.7674C11.2986 12.2363 10.6627 12.4997 9.99968 12.4997Z" fill="#7763E5"/>
</g>
<defs>
<clipPath id="clip0_1_4226">
<rect width="20" height="20" fill="white"/>
</clipPath>
</defs>
</svg>
