<svg width="95" height="79" viewBox="0 0 95 79" fill="none" xmlns="http://www.w3.org/2000/svg">
<path d="M89.8216 63.4971C87.4824 67.4021 84.371 70.9763 80.3304 73.1072C75.3397 75.7391 69.4701 75.9404 63.8415 76.4311C51.3905 77.516 38.8547 80.2861 26.516 78.3037C14.1773 76.3213 1.66884 67.8619 0.161321 55.5375C-1.49008 42.0376 9.93753 30.954 16.1554 18.8381C18.3877 14.4885 20.054 9.72821 23.394 6.14633C38.1453 -9.67361 57.0474 9.3192 71.13 15.5016C91.1378 24.2852 102.131 42.9492 89.8216 63.4971Z" fill="#7763E5"/>
<path d="M29.3334 45.6542C29.442 45.6542 29.5511 45.6448 29.6595 45.6253C29.9952 45.5652 30.3084 45.4141 30.5653 45.1883L53.5348 24.9968C53.8438 25.526 54.4058 25.8941 55.0623 25.9262C55.2035 25.9331 55.3459 25.9239 55.4844 25.8991C56.3484 25.7445 56.9817 25.0239 57.0246 24.1458L57.1746 21.0021C57.2249 19.9705 56.4266 19.0902 55.3983 19.04L52.2308 18.8695C51.732 18.845 51.2514 19.0166 50.8807 19.3529C50.5102 19.689 50.2926 20.1494 50.2683 20.6492C50.237 21.2886 50.5319 21.8699 51.0062 22.2314L47.3309 25.4621C47.0534 25.706 47.0261 26.1288 47.2701 26.4062C47.5139 26.6837 47.9366 26.711 48.2143 26.467L52.7581 22.4729C52.9568 22.2982 53.0339 22.023 52.9549 21.7706C52.8759 21.5182 52.6558 21.336 52.393 21.3058L52.157 21.2786C52.1424 21.2769 52.1278 21.2757 52.1131 21.2749C51.8183 21.2606 51.5903 21.009 51.6047 20.7142C51.6116 20.5714 51.6737 20.4398 51.7796 20.3438C51.8856 20.2478 52.0232 20.199 52.162 20.2057L55.3297 20.3761C55.6245 20.3905 55.8525 20.642 55.8381 20.9376L55.6881 24.0812C55.676 24.328 55.4913 24.5385 55.2488 24.582C55.2092 24.5891 55.1683 24.5917 55.1274 24.5897C54.8326 24.5752 54.6046 24.3237 54.619 24.0288C54.6192 24.0258 54.6193 24.0227 54.6194 24.0197L54.6286 23.7555C54.6379 23.4886 54.4878 23.2418 54.2464 23.1275C54.0052 23.0132 53.7189 23.0532 53.5183 23.2297L29.6818 44.1834C29.6083 44.2479 29.519 44.2911 29.4238 44.3082C29.2371 44.3418 29.0513 44.2767 28.9265 44.1347C28.7316 43.913 28.7535 43.5741 28.9751 43.3793L45.856 28.5401C46.1335 28.2963 46.1607 27.8734 45.9167 27.596C45.6729 27.3185 45.2501 27.2912 44.9726 27.5353L28.0917 42.3744C27.3159 43.0564 27.2396 44.2423 27.9215 45.0181C28.2789 45.4248 28.7993 45.6542 29.3334 45.6542Z" fill="white"/>
<path d="M58.9224 28.177L59.7787 28.7632L59.2616 29.6629C59.0442 30.0411 59.0796 30.5059 59.3516 30.8469C59.6235 31.1879 60.0686 31.3259 60.4859 31.1981L61.478 30.8942L61.8591 31.8594C62.0193 32.265 62.4046 32.5272 62.8409 32.5272C63.2772 32.5272 63.6624 32.265 63.8227 31.8593L64.2037 30.8941L65.196 31.198C65.613 31.3257 66.0583 31.1879 66.3303 30.8468C66.6022 30.5058 66.6376 30.0411 66.4203 29.6628L65.9032 28.7632L66.7594 28.1769C67.1193 27.9305 67.2892 27.4964 67.1921 27.0711C67.0951 26.6458 66.7537 26.3284 66.3225 26.2626L65.2968 26.1058L65.3722 25.071C65.4039 24.636 65.1705 24.2325 64.7774 24.0432C64.3843 23.8538 63.9233 23.9229 63.603 24.219L62.8411 24.9233L62.079 24.219C61.7586 23.923 61.2978 23.8539 60.9047 24.0431C60.5117 24.2324 60.2782 24.6358 60.3098 25.071L60.3853 26.1058L59.3596 26.2626C58.9284 26.3285 58.587 26.6459 58.49 27.0711C58.3926 27.4965 58.5625 27.9305 58.9224 28.177ZM61.1984 27.3352C61.5434 27.2825 61.79 26.9733 61.7647 26.6252L61.6961 25.6873L62.3868 26.3255C62.6431 26.5624 63.0385 26.5625 63.295 26.3255L63.9855 25.6873L63.9171 26.6252C63.8918 26.9733 64.1382 27.2824 64.4833 27.3351L65.4129 27.4771L64.637 28.0084C64.349 28.2056 64.2611 28.5912 64.4349 28.8938L64.9035 29.7091L64.0043 29.4338C63.6704 29.3317 63.3143 29.5032 63.1862 29.8278L62.8409 30.7024L62.4955 29.8277C62.3924 29.5663 62.1414 29.4042 61.8733 29.4042C61.8084 29.4042 61.7424 29.4138 61.6773 29.4337L60.7783 29.7091L61.2468 28.8937C61.4207 28.5911 61.3327 28.2056 61.0447 28.0083L60.2688 27.477L61.1984 27.3352Z" fill="white"/>
<path d="M69.3314 59.2422H67.7517V36.305C67.7517 35.1935 66.8469 34.2891 65.7348 34.2891H60.2774C59.1653 34.2891 58.2606 35.1934 58.2606 36.305V45.5798C58.0855 45.5767 57.9848 45.5196 57.1821 45.5725V42.6152C57.1821 41.5031 56.2774 40.5983 55.1654 40.5983H49.707C48.5949 40.5983 47.6902 41.5031 47.6902 42.6152V59.2422H46.6129V48.0921C46.6129 46.9802 45.7082 46.0755 44.5963 46.0755H43.4286C43.0591 46.0755 42.7595 46.375 42.7595 46.7445C42.7595 47.114 43.0591 47.4135 43.4286 47.4135H44.5963C44.9704 47.4135 45.2748 47.718 45.2748 48.0921V59.2422H38.4587V48.0921C38.4587 47.718 38.763 47.4135 39.1371 47.4135H40.3024C40.6719 47.4135 40.9714 47.114 40.9714 46.7445C40.9714 46.375 40.6719 46.0755 40.3024 46.0755H39.1371C38.0252 46.0755 37.1206 46.9802 37.1206 48.0921V59.2422H36.0429V53.8427C36.0429 52.7308 35.1382 51.8262 34.0263 51.8262H28.5944C27.4825 51.8262 26.5778 52.7308 26.5778 53.8427V59.2422H24.9981C24.6286 59.2422 24.3291 59.5417 24.3291 59.9112C24.3291 60.2807 24.6286 60.5802 24.9981 60.5802H69.3314C69.701 60.5802 70.0004 60.2807 70.0004 59.9112C70.0004 59.5417 69.701 59.2422 69.3314 59.2422ZM27.9158 59.2422V53.8427C27.9158 53.4686 28.2203 53.1643 28.5944 53.1643H34.0264C34.4005 53.1643 34.705 53.4686 34.705 53.8427V59.2422H27.9158ZM59.5986 36.305C59.5986 35.9313 59.9031 35.6271 60.2774 35.6271H65.7348C66.1091 35.6271 66.4136 35.9312 66.4136 36.305V59.2422H59.5986V56.3084C61.716 55.5253 63.2296 53.4863 63.2296 51.1C63.2296 48.7138 61.716 46.6748 59.5986 45.8918V36.305ZM57.6786 56.651C57.8751 56.651 58.0692 56.6404 58.2605 56.6203V59.2421H57.1821V56.6275C57.3458 56.6422 57.5112 56.651 57.6786 56.651ZM61.8915 51.1C61.8915 53.423 60.0016 55.313 57.6786 55.313C55.3556 55.313 53.4657 53.423 53.4657 51.1C53.4657 48.777 55.3556 46.8871 57.6786 46.8871C60.0016 46.8871 61.8915 48.777 61.8915 51.1ZM49.0282 42.6152C49.0282 42.2409 49.3327 41.9363 49.707 41.9363H55.1653C55.5396 41.9363 55.844 42.2409 55.844 42.6152V45.8621C53.6823 46.6215 52.1277 48.6821 52.1277 51.1C52.1277 53.5179 53.6823 55.5786 55.844 56.3381V59.2422H49.0281V42.6152H49.0282Z" fill="white"/>
<path d="M57.1911 52.0928C57.3077 52.179 57.4474 52.2239 57.5889 52.2239C57.6546 52.2239 57.7206 52.2143 57.7847 52.1946L59.2683 51.7404C59.6216 51.6323 59.8202 51.2581 59.7122 50.9048C59.604 50.5516 59.2299 50.3529 58.8767 50.4609L58.2579 50.6504V49.4268C58.2579 49.0574 57.9585 48.7578 57.5889 48.7578C57.2194 48.7578 56.9199 49.0574 56.9199 49.4268V51.5548C56.9198 51.7671 57.0205 51.9667 57.1911 52.0928Z" fill="white"/>
</svg>
