<svg width="95" height="79" viewBox="0 0 95 79" fill="none" xmlns="http://www.w3.org/2000/svg">
<path d="M89.8216 63.4971C87.4824 67.4021 84.371 70.9763 80.3304 73.1072C75.3397 75.7391 69.4701 75.9404 63.8415 76.4311C51.3905 77.516 38.8547 80.2861 26.516 78.3037C14.1773 76.3213 1.66884 67.8619 0.161321 55.5375C-1.49008 42.0376 9.93753 30.954 16.1554 18.8381C18.3877 14.4885 20.054 9.72821 23.394 6.14633C38.1453 -9.67361 57.0474 9.3192 71.13 15.5016C91.1378 24.2852 102.131 42.9492 89.8216 63.4971Z" fill="#09A24F"/>
<path d="M48.8675 51.0518C48.743 50.9412 48.5769 50.8884 48.4106 50.906C48.0078 50.9493 47.6014 50.9712 47.2025 50.9712C41.0949 50.9712 36.126 46.0501 36.126 40.0013C36.126 33.9525 41.0949 29.0315 47.2025 29.0315C47.6014 29.0315 48.0079 29.0534 48.4106 29.0966C48.5768 29.1145 48.743 29.0616 48.8675 28.9508C48.9919 28.8401 49.0631 28.6823 49.0631 28.5167V19.5833C49.0631 19.2612 48.7994 19 48.4741 19H43.7719C43.4905 19 43.2485 19.1971 43.194 19.4705L42.4376 23.2697L38.6317 24.8332L35.3822 22.6751C35.1484 22.5199 34.8367 22.5501 34.6377 22.7471L29.7836 27.5544C29.5846 27.7514 29.5541 28.0603 29.7109 28.2918L31.89 31.51L30.3112 35.2792L26.4751 36.0283C26.199 36.0822 26 36.322 26 36.6006V43.3993C26 43.6779 26.199 43.9177 26.4751 43.9716L30.3112 44.7207L31.89 48.4899L29.7109 51.7081C29.5542 51.9395 29.5847 52.2484 29.7836 52.4455L34.6377 57.2528C34.8366 57.4498 35.1484 57.48 35.3822 57.3248L38.6317 55.1667L42.4376 56.7303L43.194 60.5294C43.2485 60.8028 43.4905 60.9999 43.7719 60.9999H48.4741C48.7994 60.9999 49.0631 60.7388 49.0631 60.4166V51.4859C49.0631 51.3203 48.992 51.1624 48.8675 51.0518ZM47.8851 59.8333H44.2562L43.5324 56.1983C43.4943 56.0068 43.3622 55.847 43.1802 55.7723L38.7916 53.9693C38.6094 53.8944 38.4016 53.9148 38.2378 54.0236L35.1284 56.0888L30.9591 51.9596L33.0443 48.8801C33.1541 48.7179 33.1747 48.512 33.0992 48.3317L31.2787 43.9852C31.2032 43.805 31.0418 43.6741 30.8485 43.6364L27.1782 42.9196V37.08L30.8485 36.3633C31.0418 36.3255 31.2032 36.1947 31.2787 36.0145L33.0992 31.668C33.1747 31.4876 33.1541 31.2817 33.0443 31.1196L30.9591 28.0401L35.1284 23.9109L38.2378 25.9761C38.4016 26.0848 38.6095 26.1052 38.7916 26.0304L43.1802 24.2274C43.3621 24.1527 43.4943 23.9928 43.5324 23.8014L44.2562 20.1664H47.8851V27.8837C47.6566 27.8711 47.4285 27.8647 47.2025 27.8647C40.4453 27.8647 34.948 33.3091 34.948 40.0012C34.948 46.6933 40.4453 52.1378 47.2025 52.1378C47.4285 52.1378 47.6566 52.1314 47.8851 52.1188V59.8332V59.8333ZM67.9505 38.5613C67.983 38.4046 68 38.2425 68 38.0765C68 37.2215 67.5475 36.4695 66.8676 36.042C67.2593 35.6142 67.4983 35.047 67.4983 34.4254C67.4983 33.0972 66.4072 32.0166 65.066 32.0166H59.9163C60.1944 29.717 60.5599 25.2483 58.5876 23.2633C57.8218 22.4926 56.8029 22.1721 55.5586 22.3105C54.8288 22.3917 54.3053 23.0231 54.367 23.748C54.8794 29.7716 53.4706 32.1621 48.8112 32.9815C48.5248 32.5352 48.0226 32.2376 47.4503 32.2376H44.4377C43.5484 32.2376 42.825 32.9541 42.825 33.8349V46.1676C42.825 47.0484 43.5484 47.7649 44.4377 47.7649H47.4503C48.1067 47.7649 48.6716 47.3739 48.9231 46.8154C49.1006 46.8294 49.2649 46.8469 49.4198 46.867C49.4555 46.8717 49.4911 46.8764 49.5257 46.8813C49.788 46.9185 50.0225 46.9639 50.2432 47.0149C50.5635 47.0891 50.8561 47.1752 51.1649 47.2664C51.6578 47.412 52.1673 47.5625 52.8641 47.6883C53.675 47.8345 54.5524 47.8896 55.455 47.8896H55.4552C56.9446 47.8896 58.5023 47.7394 59.9402 47.6009C60.5431 47.5428 61.1129 47.4879 61.6587 47.4452H64.2304C65.4763 47.4452 66.49 46.4414 66.49 45.2074C66.49 44.7235 66.3336 44.2754 66.069 43.909C66.8611 43.5409 67.4216 42.7622 67.4684 41.8511C67.4705 41.8101 67.4716 41.7689 67.4716 41.7274C67.4716 41.111 67.2363 40.5482 66.8504 40.1217C67.4071 39.778 67.8143 39.2181 67.9504 38.5613H67.9505ZM65.0395 42.9696H60.8417C60.1501 42.9696 59.5874 42.4124 59.5874 41.7275C59.5874 41.0425 60.1501 40.4853 60.8417 40.4853H65.0395C65.7311 40.4853 66.2937 41.0425 66.2937 41.7275C66.2937 42.4124 65.7311 42.9696 65.0395 42.9696ZM66.8155 38.2033C66.7511 38.8289 66.2161 39.3186 65.5677 39.3186H60.6945C60.0029 39.3186 59.4403 38.7614 59.4403 38.0765C59.4403 37.3915 60.0029 36.8343 60.6945 36.8343H65.5677C66.2162 36.8343 66.7511 37.324 66.8155 37.9496C66.8198 37.9913 66.822 38.0336 66.822 38.0765C66.822 38.1193 66.8198 38.1615 66.8155 38.2033ZM65.066 33.1833C65.7576 33.1833 66.3202 33.7406 66.3202 34.4255C66.3202 35.1104 65.7576 35.6676 65.066 35.6676H61.4097C60.7181 35.6676 60.1555 35.1104 60.1555 34.4255C60.1555 33.7406 60.7181 33.1833 61.4097 33.1833H65.066ZM54.5897 30.843C55.5335 29.2306 55.8269 27.0122 55.5409 23.6502C55.5333 23.5609 55.6003 23.4801 55.6902 23.47C56.5688 23.3723 57.2418 23.5723 57.748 24.0817C59.5293 25.8746 58.8786 30.8805 58.6647 32.5255C58.6644 32.5281 58.6645 32.5307 58.6641 32.5334C58.6627 32.5457 58.6619 32.5582 58.6613 32.5708C58.6608 32.5789 58.6603 32.587 58.6603 32.5951C58.6603 32.6062 58.6608 32.6175 58.6613 32.6288C58.6618 32.6381 58.6621 32.6474 58.663 32.6566C58.6633 32.6588 58.6632 32.6611 58.6635 32.6634C59.0376 36.0532 58.1673 37.7694 55.6595 38.587C55.3506 38.6876 55.1825 39.0175 55.2843 39.3234C55.3658 39.5689 55.5962 39.7245 55.8436 39.7245C55.9046 39.7245 55.9667 39.715 56.0278 39.695C56.9922 39.3807 57.7296 38.9498 58.2899 38.4395C58.3843 39.0549 58.7149 39.5941 59.1867 39.9645C58.7091 40.4045 58.4095 41.0319 58.4095 41.7275C58.4095 42.6866 58.9787 43.5165 59.8 43.9037C59.533 44.2711 59.3751 44.7213 59.3751 45.2075C59.3751 45.6655 59.515 46.0916 59.7544 46.4467C59.4758 46.4735 59.193 46.5006 58.907 46.5269C56.9196 46.7099 54.7945 46.8506 53.0755 46.5406C52.4423 46.4264 51.9642 46.2852 51.5019 46.1486C51.2211 46.0657 50.9451 45.9845 50.6467 45.9111C50.5662 45.8914 50.4848 45.8719 50.4005 45.8534C50.3938 45.8519 50.3866 45.8506 50.3798 45.8491C50.0769 45.7833 49.7437 45.7269 49.3571 45.6849C49.2625 45.6746 49.1648 45.6651 49.0633 45.6567V34.1215C51.811 33.6263 53.5748 32.5773 54.59 30.8429L54.5897 30.843ZM47.885 46.1677C47.885 46.4051 47.6901 46.5983 47.4503 46.5983H44.4377C44.1979 46.5983 44.003 46.4051 44.003 46.1677V33.835C44.003 33.5976 44.1979 33.4044 44.4377 33.4044H47.4503C47.6901 33.4044 47.885 33.5976 47.885 33.835V46.1677ZM64.2305 46.2786H61.6345C61.0381 46.2786 60.5529 45.7981 60.5529 45.2074C60.5529 44.6168 61.0381 44.1363 61.6345 44.1363H64.2305C64.8268 44.1363 65.312 44.6168 65.312 45.2074C65.312 45.7981 64.8269 46.2786 64.2305 46.2786ZM56.4886 49.6201C53.3207 49.6201 50.7433 52.1726 50.7433 55.31C50.7433 58.4474 53.3206 61 56.4886 61C59.6566 61 62.2338 58.4475 62.2338 55.31C62.2338 52.1725 59.6565 49.6201 56.4886 49.6201ZM56.4886 59.8333C53.9702 59.8333 51.9213 57.8042 51.9213 55.31C51.9213 52.8158 53.9702 50.7868 56.4886 50.7868C59.007 50.7868 61.0558 52.8159 61.0558 55.31C61.0558 57.8041 59.0069 59.8333 56.4886 59.8333ZM59.0073 53.3455C59.2373 53.5733 59.2373 53.9427 59.0073 54.1704L55.8731 57.2745C55.7619 57.3846 55.6118 57.4453 55.4567 57.4453C55.4311 57.4453 55.4054 57.4437 55.3798 57.4403C55.1982 57.4167 55.038 57.3108 54.9466 57.1537L53.8763 55.3178C53.7136 55.0388 53.8101 54.682 54.0919 54.5209C54.3735 54.3598 54.7338 54.4554 54.8964 54.7344L55.583 55.9119L58.1743 53.3454C58.4043 53.1177 58.7773 53.1177 59.0073 53.3454V53.3455Z" fill="white"/>
</svg>
