<svg width="60" height="60" viewBox="0 0 60 60" fill="none" xmlns="http://www.w3.org/2000/svg">
<path d="M35.0121 52.7695H24.9879C23.2195 54.2227 22.0898 56.5395 22.0898 59.0051H37.9102C37.9102 56.5395 36.7805 54.2227 35.0121 52.7695Z" fill="#FF3980"/>
<path d="M29.9998 21.2109C20.4748 21.2109 13.1283 26.5195 12.4697 35.6742L15.9771 34.4074H44.0225L47.5299 35.6754C46.8725 26.5195 39.5248 21.2109 29.9998 21.2109Z" fill="#4E5358"/>
<path d="M47.5299 35.6753C46.6403 34.6436 45.3031 34.1938 44.0225 34.4074L45.1158 41.9437C48.1346 41.5774 49.5118 37.9667 47.5299 35.6753Z" fill="#FFC089"/>
<path d="M12.47 35.6745V35.6757C10.497 37.9566 11.8464 41.5728 14.884 41.9452L15.9774 34.4077C14.6926 34.1923 13.3572 34.6487 12.47 35.6745Z" fill="#FFC089"/>
<path d="M45.2344 40.0674C45.2344 48.5466 38.3416 53.3974 30 53.3974C21.6063 53.3974 14.7656 48.4964 14.7656 40.0674C14.7656 36.3886 16.0875 33.0194 18.8965 30.5318C19.4953 30.001 20.3379 29.8451 21.0809 30.1416L26.3449 32.2474C28.4191 33.0771 30.6387 31.4236 30.4371 29.1982C30.3152 27.8576 31.4684 26.7432 32.802 26.926C40.0634 27.9266 45.2344 32.7692 45.2344 40.0674Z" fill="#FFD6A8"/>
<path d="M55.3043 11.4577C56.3051 12.2769 55.7262 13.8976 54.4336 13.8976H52.1344V20.0687C52.1344 21.6706 50.8359 22.969 49.234 22.969H48.0035C46.4016 22.969 45.1031 21.6706 45.1031 20.0687V13.8976H42.8039C41.5113 13.8976 40.9324 12.2769 41.9332 11.4577L46.1016 8.04756C47.5664 6.84873 49.6723 6.84873 51.1359 8.04756L55.3043 11.4577Z" fill="#53D8FF"/>
<path d="M18.067 11.739C19.0678 12.5569 18.4889 14.1788 17.1963 14.1788H14.8971V20.3499C14.8971 21.9519 13.5986 23.2503 11.9967 23.2503H10.7662C9.16425 23.2503 7.86582 21.9519 7.86582 20.3499V14.1788H5.5666C4.27402 14.1788 3.69511 12.5569 4.69589 11.739L8.86425 8.32881C10.3279 7.12998 12.4338 7.12998 13.8986 8.32881L18.067 11.739Z" fill="#FFF275"/>
<path d="M36.6861 5.30537C37.6869 6.12451 37.108 7.74521 35.8154 7.74521H33.5162V13.9163C33.5162 15.5183 32.2178 16.8167 30.6158 16.8167H29.3853C27.7834 16.8167 26.485 15.5183 26.485 13.9163V7.74521H24.1857C22.8932 7.74521 22.3143 6.12451 23.315 5.30537L27.4834 1.89521C28.9471 0.696387 31.0541 0.696387 32.5178 1.89521L36.6861 5.30537Z" fill="#04F2C8"/>
<path d="M25.7002 42.9258H34.2994C34.2994 45.3 32.374 47.2254 29.9998 47.2254C27.6256 47.2254 25.7002 45.3 25.7002 42.9258Z" fill="#FFC089"/>
<path d="M37.9102 59.8841H22.0898C21.6043 59.8841 21.2109 59.4907 21.2109 59.0052C21.2109 56.3318 22.4143 53.7469 24.43 52.0905C24.8048 51.7824 25.3587 51.8364 25.6671 52.2116C25.9753 52.5866 25.9211 53.1405 25.5461 53.4487C24.1533 54.5932 23.245 56.2969 23.0223 58.1263H36.9779C36.7553 56.2969 35.847 54.5932 34.4542 53.4487C34.0792 53.1405 34.0249 52.5867 34.3331 52.2116C34.6416 51.8366 35.195 51.7826 35.5703 52.0905C37.5859 53.7469 38.7893 56.3317 38.7893 59.0052C38.7891 59.4907 38.3955 59.8841 37.9102 59.8841Z" fill="black"/>
<path d="M46.6534 35.7364C46.3432 31.4129 44.4479 27.8432 41.1727 25.4129C40.7828 25.1235 40.7013 24.5731 40.9904 24.1833C41.2798 23.7935 41.8303 23.7121 42.22 24.0011C45.9192 26.746 48.0585 30.7605 48.4065 35.6104C48.4413 36.0946 48.077 36.5153 47.5929 36.55C47.1165 36.5858 46.6886 36.2265 46.6534 35.7364Z" fill="black"/>
<path d="M12.4697 36.5537C11.9627 36.5537 11.5565 36.1254 11.5931 35.6112C12.2863 25.975 20.0276 20.332 29.9997 20.332C31.9274 20.332 33.7869 20.5427 35.5267 20.9584C35.9987 21.0713 36.29 21.5454 36.1773 22.0175C36.0644 22.4896 35.5904 22.7807 35.1181 22.6682C33.5121 22.2845 31.79 22.0898 29.9997 22.0898C20.4825 22.0898 13.9467 27.4439 13.3469 35.7301C13.3179 36.1896 12.9362 36.5537 12.4697 36.5537Z" fill="black"/>
<path d="M44.2436 42.0509C44.1851 41.5691 44.5284 41.1309 45.0103 41.0725C47.2911 40.7958 48.4134 38.0412 46.8653 36.2515C46.1957 35.475 45.1738 35.1082 44.1662 35.2755C43.687 35.3566 43.2345 35.0319 43.1547 34.5532C43.0748 34.0744 43.3982 33.6216 43.877 33.5418C46.7465 33.0628 49.336 35.2851 49.336 38.1656C49.336 40.5412 47.5565 42.5341 45.222 42.8174C45.186 42.8219 44.3019 42.5312 44.2436 42.0509Z" fill="black"/>
<path d="M14.7771 42.8185C12.4323 42.531 10.6641 40.5309 10.6641 38.1657C10.6641 35.2751 13.2722 33.0632 16.1227 33.5419C16.6014 33.6222 16.9245 34.0754 16.8441 34.5541C16.7638 35.0328 16.3107 35.3553 15.8319 35.2755C14.0557 34.9777 12.4218 36.3556 12.4218 38.1657C12.4218 39.644 13.5262 40.8942 14.9907 41.0737C15.4725 41.1328 15.8153 41.5711 15.7562 42.0529C15.6973 42.5356 15.2579 42.8777 14.7771 42.8185Z" fill="black"/>
<path d="M20.6174 51.9201C20.198 51.6756 20.0561 51.1375 20.3005 50.7182C20.5449 50.2987 21.083 50.1569 21.5023 50.4012C28.9858 54.7618 42.8459 52.671 44.2444 41.8301C45.1792 34.6355 40.6373 28.8932 32.6821 27.7969C31.9147 27.6912 31.2414 28.3363 31.3124 29.1189C31.5737 32.0005 28.7003 34.1355 26.0185 33.0638L20.7543 30.9578C20.3235 30.7857 19.8349 30.8746 19.4796 31.1897C18.3251 32.212 17.4145 33.4202 16.7722 34.7813C15.2306 38.0421 15.2309 42.4364 16.9773 45.7686C17.2026 46.1984 17.0368 46.7296 16.6068 46.955C16.1771 47.1802 15.6458 47.0146 15.4204 46.5845C13.4041 42.7376 13.419 37.7617 15.1828 34.0307C15.927 32.4535 16.9805 31.0547 18.3138 29.8739C19.169 29.1157 20.3539 28.9056 21.4066 29.3254L26.6715 31.4316C28.1385 32.0181 29.704 30.8478 29.5619 29.2777C29.3888 27.3718 31.03 25.7961 32.9214 26.0554C41.7778 27.2759 47.0546 33.8428 45.9877 42.0557C45.2323 47.9104 41.084 52.0703 35.2369 53.6168C30.6193 54.841 24.9223 54.4281 20.6174 51.9201Z" fill="black"/>
<path d="M30.6157 17.6949H29.3853C27.3014 17.6949 25.606 15.9995 25.606 13.9156V8.62363H24.1855C23.2204 8.62363 22.3869 8.03617 22.0625 7.12715C21.738 6.21801 22.0111 5.23563 22.7582 4.62461L26.9266 1.2141C28.7078 -0.243359 31.2935 -0.243125 33.0746 1.2141L37.2429 4.62461C38.8805 5.96418 37.9355 8.62363 35.8155 8.62363H34.395V13.9156C34.395 15.9995 32.6996 17.6949 30.6157 17.6949ZM28.0395 2.57465L23.8711 5.98516C23.6267 6.1852 23.6826 6.43715 23.7178 6.53629C23.7534 6.63543 23.8696 6.86582 24.1854 6.86582H26.4848C26.9703 6.86582 27.3637 7.25922 27.3637 7.74473V13.9156C27.3637 15.0303 28.2705 15.9371 29.3852 15.9371H30.6156C31.7303 15.9371 32.6371 15.0303 32.6371 13.9156V7.74473C32.6371 7.25922 33.0305 6.86582 33.516 6.86582H35.8153C36.2846 6.86582 36.4918 6.28141 36.1298 5.98504L31.9614 2.57453C30.825 1.64488 29.176 1.64488 28.0395 2.57465Z" fill="black"/>
<path d="M49.2342 23.8473H48.0037C45.9199 23.8473 44.2244 22.152 44.2244 20.068V14.7761H42.804C40.6844 14.7761 39.7389 12.1167 41.3765 10.777L45.5449 7.36653C47.3262 5.90907 49.9119 5.90907 51.6929 7.36653L55.8613 10.777C57.4989 12.1166 56.5539 14.7761 54.4338 14.7761H53.0135V20.068C53.0135 22.152 51.318 23.8473 49.2342 23.8473ZM46.6581 8.72708L42.4896 12.1376C42.1277 12.4337 42.3347 13.0184 42.804 13.0184H45.1033C45.5889 13.0184 45.9823 13.4118 45.9823 13.8973V20.0681C45.9823 21.1828 46.889 22.0896 48.0037 22.0896H49.2342C50.3489 22.0896 51.2557 21.1828 51.2557 20.0681V13.8973C51.2557 13.4118 51.6491 13.0184 52.1346 13.0184H54.4339C54.9031 13.0184 55.1103 12.434 54.7483 12.1376L50.58 8.72708C49.4436 7.79743 47.7944 7.7972 46.6581 8.72708Z" fill="black"/>
<path d="M11.9966 24.1286H10.7661C8.6823 24.1286 6.98683 22.4332 6.98683 20.3493V15.0573H5.5664C4.60125 15.0573 3.76781 14.4699 3.44332 13.5608C3.11882 12.6517 3.39199 11.6693 4.13906 11.0583L8.30742 7.64778C10.0887 6.19021 12.6745 6.19044 14.4555 7.64778L18.6238 11.0583C19.3709 11.6694 19.6439 12.6518 19.3195 13.5608C18.9949 14.4699 18.1616 15.0573 17.1964 15.0573H15.776V20.3493C15.7759 22.4333 14.0804 24.1286 11.9966 24.1286ZM9.42035 9.00833L5.25199 12.4188C4.89011 12.715 5.09707 13.2996 5.5664 13.2996H7.86574C8.35124 13.2996 8.74464 13.693 8.74464 14.1785V20.3494C8.74464 21.4641 9.65144 22.3709 10.7661 22.3709H11.9966C13.1113 22.3709 14.0181 21.4641 14.0181 20.3494V14.1785C14.0181 13.693 14.4115 13.2996 14.897 13.2996H17.1963C17.6655 13.2996 17.8727 12.7152 17.5107 12.4188L13.3424 9.00833C12.2061 8.07868 10.5568 8.07856 9.42035 9.00833Z" fill="black"/>
<path d="M25.4852 38.8608C24.9997 38.8608 24.6063 38.4674 24.6063 37.9819C24.6063 37.3284 24.0748 36.7969 23.4213 36.7969C22.7679 36.7969 22.2363 37.3284 22.2363 37.9819C22.2363 38.4674 21.8429 38.8608 21.3574 38.8608C20.8719 38.8608 20.4785 38.4674 20.4785 37.9819C20.4785 36.3592 21.7987 35.0391 23.4213 35.0391C25.0439 35.0391 26.3641 36.3593 26.3641 37.9819C26.3641 38.4673 25.9707 38.8608 25.4852 38.8608Z" fill="black"/>
<path d="M38.6425 38.8608C38.157 38.8608 37.7636 38.4674 37.7636 37.9819C37.7636 37.3284 37.232 36.7969 36.5786 36.7969C35.9251 36.7969 35.3936 37.3284 35.3936 37.9819C35.3936 38.4674 35.0002 38.8608 34.5146 38.8608C34.0291 38.8608 33.6357 38.4674 33.6357 37.9819C33.6357 36.3592 34.956 35.0391 36.5786 35.0391C38.2011 35.0391 39.5214 36.3593 39.5214 37.9819C39.5214 38.4673 39.1279 38.8608 38.6425 38.8608Z" fill="black"/>
<path d="M30 48.1045C27.1444 48.1045 24.8213 45.7814 24.8213 42.9258C24.8213 42.4403 25.2147 42.0469 25.7002 42.0469H34.3C34.7855 42.0469 35.1789 42.4403 35.1789 42.9258C35.1788 45.7814 32.8557 48.1045 30 48.1045ZM26.6935 43.8047C27.0823 45.2666 28.4174 46.3467 30 46.3467C31.5827 46.3467 32.9177 45.2665 33.3066 43.8047H26.6935Z" fill="black"/>
<path d="M38.6426 23.8477C39.128 23.8477 39.5215 23.4542 39.5215 22.9688C39.5215 22.4833 39.128 22.0898 38.6426 22.0898C38.1572 22.0898 37.7637 22.4833 37.7637 22.9688C37.7637 23.4542 38.1572 23.8477 38.6426 23.8477Z" fill="black"/>
<path d="M18.2812 49.8867C18.7667 49.8867 19.1602 49.4932 19.1602 49.0078C19.1602 48.5224 18.7667 48.1289 18.2812 48.1289C17.7958 48.1289 17.4023 48.5224 17.4023 49.0078C17.4023 49.4932 17.7958 49.8867 18.2812 49.8867Z" fill="black"/>
</svg>
