<svg width="55" height="55" viewBox="0 0 55 55" fill="none" xmlns="http://www.w3.org/2000/svg">
<path d="M49.8032 51.8313C49.8032 52.3458 49.5958 52.8143 49.2579 53.1523C48.92 53.4902 48.4515 53.6975 47.937 53.6975H7.06264C6.03343 53.6975 5.19629 52.8604 5.19629 51.8312C5.19629 51.3166 5.40372 50.8481 5.74156 50.5101C6.07951 50.1723 6.54798 49.9648 7.06253 49.9648H47.9369C48.9661 49.965 49.8032 50.8021 49.8032 51.8313Z" fill="#ECE9EB"/>
<path d="M46.3007 44.7578C46.3007 47.6337 43.9694 49.9651 41.0936 49.9651H13.9054C11.0295 49.9651 8.69824 47.6337 8.69824 44.7579C8.69824 41.8821 11.0296 39.5508 13.9054 39.5508H41.0936C43.9694 39.5507 46.3007 41.882 46.3007 44.7578Z" fill="#72A3DB"/>
<path d="M43.3516 34.3282C43.3516 37.2041 41.0203 39.5354 38.1445 39.5354H16.8546C13.9787 39.5354 11.6475 37.2041 11.6475 34.3283C11.6475 31.4524 13.9788 29.1211 16.8546 29.1211H38.1444C41.0203 29.1209 43.3516 31.4523 43.3516 34.3282Z" fill="#ECE9EB"/>
<path d="M38.9278 23.9141C38.9278 26.79 36.5964 29.1214 33.7206 29.1214H21.2785C18.4026 29.1214 16.0713 26.79 16.0713 23.9142C16.0713 21.0383 18.4027 18.707 21.2785 18.707H33.7205C36.5964 18.7069 38.9278 21.0383 38.9278 23.9141Z" fill="#8D71C8"/>
<path d="M25.7715 11.7656H29.2276V18.7086H25.7715V11.7656Z" fill="#67625E"/>
<path d="M28.5046 1.92567L29.6564 4.25941C29.8197 4.59027 30.1353 4.81961 30.5004 4.87257L33.0758 5.24683C33.9953 5.38046 34.3624 6.51033 33.6971 7.15883L31.8335 8.97534C31.5693 9.23283 31.4487 9.60386 31.5111 9.96759L31.951 12.5326C32.1081 13.4484 31.147 14.1466 30.3245 13.7144L28.021 12.5032C27.6944 12.3315 27.3043 12.3315 26.9777 12.5032L24.6742 13.7143C23.8517 14.1466 22.8906 13.4483 23.0477 12.5325L23.4876 9.96748C23.55 9.60386 23.4293 9.23283 23.1652 8.97523L21.3016 7.15872C20.6364 6.51022 21.0034 5.38035 21.9229 5.24672L24.4983 4.87246C24.8634 4.8194 25.179 4.59005 25.3423 4.2593L26.4941 1.92556C26.9053 1.0925 28.0934 1.0925 28.5046 1.92567Z" fill="#FFBC42"/>
<path d="M47.9367 49.3514H44.6566C46.0276 48.2854 46.9147 46.6251 46.9147 44.7579C46.9147 41.7355 44.5994 39.2459 41.6497 38.9648C43.0532 37.901 43.9656 36.2214 43.9656 34.3283C43.9656 31.1182 41.3541 28.5071 38.1444 28.5071H37.2839C38.6549 27.4411 39.5419 25.781 39.5419 23.9139C39.5419 20.7038 36.9305 18.0927 33.7208 18.0927H29.8411V15.9109C29.8411 15.5719 29.5663 15.2969 29.2271 15.2969C28.8878 15.2969 28.6131 15.5719 28.6131 15.9109V18.0927H26.3862V15.9109C26.3862 15.5719 26.1114 15.2969 25.7722 15.2969C25.4329 15.2969 25.1582 15.5719 25.1582 15.9109V18.0927H21.2785C18.0686 18.0927 15.4573 20.704 15.4573 23.9139C15.4573 25.7811 16.3444 27.4411 17.7153 28.5071H16.8549C13.645 28.5071 11.0337 31.1183 11.0337 34.3283C11.0337 36.2214 11.946 37.901 13.3496 38.9648C10.3999 39.2459 8.08452 41.736 8.08452 44.7583C8.08452 46.6255 8.97161 48.2855 10.3425 49.3514H7.06229C5.68944 49.3514 4.58203 50.4563 4.58203 51.8315C4.58203 53.1991 5.69471 54.312 7.06229 54.312H47.9367C49.3057 54.312 50.417 53.211 50.417 51.8315C50.417 50.4639 49.3043 49.3514 47.9367 49.3514ZM16.6853 23.9137C16.6853 21.3808 18.7458 19.3206 21.2784 19.3206H33.7206C36.2533 19.3206 38.3138 21.3809 38.3138 23.9137C38.3138 26.4465 36.2532 28.5069 33.7206 28.5069H21.2784C18.7458 28.507 16.6853 26.4466 16.6853 23.9137ZM12.2615 34.3282C12.2615 31.7953 14.3221 29.735 16.8547 29.735H21.2784H33.7206H38.1444C40.6771 29.735 42.7375 31.7954 42.7375 34.3282C42.7375 36.8611 40.677 38.9213 38.1444 38.9213H16.8548C14.3221 38.9214 12.2615 36.8611 12.2615 34.3282ZM9.31235 44.7579C9.31235 42.225 11.3729 40.1647 13.9055 40.1647H41.0934C43.6261 40.1647 45.6866 42.2251 45.6866 44.7579V44.7583C45.6866 47.2912 43.626 49.3514 41.0934 49.3514H13.9055C11.3729 49.3514 9.31235 47.2907 9.31235 44.7579ZM47.9367 53.0839H7.06229C6.37168 53.0839 5.81008 52.5222 5.81008 51.8315C5.81008 51.1369 6.3662 50.5795 7.06229 50.5795H47.9367C48.6274 50.5795 49.189 51.1412 49.189 51.8315C49.189 52.5284 48.631 53.0839 47.9367 53.0839Z" fill="black"/>
<path d="M34.1256 7.59924C34.6019 7.13432 34.7701 6.45272 34.5644 5.82033C34.3586 5.18751 33.822 4.73537 33.164 4.63987L30.5888 4.26572C30.4235 4.24177 30.2806 4.13778 30.2068 3.98825L29.0551 1.65451C28.7607 1.05811 28.1647 0.6875 27.4994 0.6875C27.4992 0.6875 27.4992 0.6875 27.4992 0.6875C26.8341 0.6875 26.2378 1.05811 25.9432 1.65451L24.7918 3.98825C24.7178 4.13778 24.5749 4.24166 24.41 4.26572L21.8348 4.63987C21.1764 4.73537 20.6397 5.18794 20.434 5.82033C20.2283 6.45272 20.3964 7.13432 20.8729 7.59924L22.7366 9.41574C22.8561 9.53208 22.9105 9.69998 22.8822 9.86423L22.4423 12.429C22.3298 13.0851 22.5944 13.7354 23.1327 14.1264C23.6718 14.5176 24.3722 14.5674 24.9597 14.2583L27.2636 13.047C27.4111 12.9695 27.5872 12.969 27.7351 13.0475L30.0385 14.2579C30.6273 14.5677 31.3275 14.5169 31.8655 14.1264C32.4038 13.7355 32.6684 13.0851 32.5559 12.429L32.116 9.86423C32.0878 9.69998 32.1422 9.53208 32.2617 9.41574L34.1256 7.59924ZM31.4048 8.53628C30.9958 8.93481 30.8091 9.50888 30.9057 10.0721L31.3456 12.6369C31.3937 12.9172 31.2206 13.077 31.1439 13.1325C31.0671 13.1881 30.8621 13.3048 30.61 13.1709L28.3068 11.9605C27.8013 11.6946 27.1975 11.6943 26.692 11.96L24.3883 13.1713C24.1366 13.3037 23.9315 13.1881 23.8546 13.1325C23.7778 13.077 23.6047 12.9171 23.653 12.6369L24.0929 10.0721C24.1894 9.50888 24.0027 8.93481 23.5938 8.53628L21.7303 6.71978C21.5267 6.52104 21.5729 6.29009 21.602 6.20007C21.6314 6.10973 21.7299 5.89585 22.0114 5.85503L24.587 5.48088C25.1518 5.39849 25.64 5.04399 25.893 4.53181L27.0447 2.19807C27.1706 1.94305 27.4045 1.91544 27.4994 1.91544C27.5942 1.91544 27.8282 1.94305 27.9539 2.19807L29.1058 4.53181C29.3587 5.04389 29.8469 5.39849 30.4121 5.48088L32.9877 5.85503C33.269 5.89585 33.3675 6.10973 33.3967 6.19964C33.4261 6.28998 33.4722 6.52104 33.2685 6.71967L31.4048 8.53628Z" fill="black"/>
</svg>
