<svg width="60" height="60" viewBox="0 0 60 60" fill="none" xmlns="http://www.w3.org/2000/svg">
<g clip-path="url(#clip0_1_5325)">
<path d="M5.83596 21.9998L5.92198 21.8148L4.87174 19.9957C4.29542 18.9974 3.02827 18.5953 2.01003 19.1359C0.941159 19.7035 0.564166 21.0385 1.16405 22.0775L2.23983 23.9407L2.53901 23.9034L5.83596 21.9998Z" fill="#FFDFCF"/>
<path d="M57.9901 19.1359C56.972 18.5953 55.7048 18.9974 55.1284 19.9957L54.0781 21.8148L54.17 22.0033L57.467 23.9069L57.7602 23.9409L58.8359 22.0776C59.4359 21.0385 59.0589 19.7035 57.9901 19.1359Z" fill="#C96E59"/>
<path d="M21.6354 31.0685L21.67 31.434L28.1917 20.138C28.3828 19.749 28.6806 19.4416 29.0563 19.242C29.341 19.091 29.6488 19.0143 29.9716 19.0143C30.7045 19.0143 31.3904 19.4138 31.7616 20.057L38.3301 31.4339L38.3646 31.0684C38.474 29.9146 38.9518 28.8843 39.6757 28.0873V18.3779C39.6757 16.1219 37.8469 14.293 35.5908 14.293H24.4091C22.1532 14.293 20.3242 16.1218 20.3242 18.3779V28.0873C21.0483 28.8845 21.5261 29.9148 21.6354 31.0685Z" fill="#AF66DA"/>
<path d="M36.3945 14.3711V28.0799L38.3301 31.4324L38.3647 31.0669C38.474 29.9132 38.9518 28.8829 39.6758 28.0859V18.3764C39.6758 16.3956 38.2657 14.7445 36.3945 14.3711Z" fill="#9857BD"/>
<path d="M25.1582 33.4252H34.8419L30 25.0391L25.1582 33.4252Z" fill="#AF66DA"/>
<path d="M27.0527 30.1445L25.1582 33.4258H34.8419L32.9474 30.1445H27.0527Z" fill="#9857BD"/>
<path d="M29.7631 24.6285L28.2573 22.0203C27.9822 21.5439 27.9144 20.9903 28.0662 20.4614C28.0888 20.3833 28.1169 20.3079 28.1478 20.2341L28.0905 20.0781L21.6643 31.2086C21.6721 31.3246 21.6775 31.4413 21.6775 31.5593C21.6775 34.4117 19.357 36.7322 16.5046 36.7322C13.6523 36.7322 11.3318 34.4117 11.3318 31.5593C11.3318 31.4413 11.3371 31.3246 11.345 31.2085L5.92238 21.8161L2.24023 23.942L9.73461 36.9225C9.99172 37.3679 10.1271 37.8732 10.1271 38.3874V48.091C10.1271 48.7382 10.6517 49.2629 11.2989 49.2629H21.4868C21.4357 48.8846 21.4068 48.4994 21.4068 48.1074C21.4068 46.3268 21.9514 44.6711 22.8823 43.2977V38.3874C22.8823 37.8732 23.0177 37.3679 23.2748 36.9225L30.0003 25.2736L29.7631 24.6285Z" fill="#FE4FB7"/>
<path d="M29.7631 24.6271L28.8982 23.1289L20.8653 36.9212C20.6082 37.3665 20.4729 37.8718 20.4729 38.386V45.6287C20.4729 46.2759 19.9482 46.8005 19.301 46.8005H10.127V48.0896C10.127 48.7368 10.6516 49.2615 11.2988 49.2615H21.4866C21.4355 48.8832 21.4067 48.498 21.4067 48.106C21.4067 46.3255 21.9513 44.6697 22.8822 43.2963V38.386C22.8822 37.8718 23.0176 37.3665 23.2747 36.9212L30.0003 25.2723L29.7631 24.6271Z" fill="#FE2AA8"/>
<path d="M32.648 22.1038L32.9142 21.8148L31.8639 19.9957C31.2876 18.9974 30.0205 18.5953 29.0022 19.1359C27.9333 19.7035 27.5564 21.0385 28.1562 22.0775L29.232 23.9407L29.5734 23.879L32.648 22.1038Z" fill="#C96E59"/>
<path d="M16.5046 36.8295C19.4163 36.8295 21.7767 34.469 21.7767 31.5573C21.7767 28.6456 19.4163 26.2852 16.5046 26.2852C13.5928 26.2852 11.2324 28.6456 11.2324 31.5573C11.2324 34.469 13.5928 36.8295 16.5046 36.8295Z" fill="#FFDFCF"/>
<path d="M17.0728 26.3164C17.9547 27.2588 18.4955 28.5245 18.4955 29.917C18.4955 32.8288 16.1352 35.1891 13.2234 35.1891C13.0313 35.1891 12.842 35.1782 12.6553 35.1582C13.6174 36.1863 14.9855 36.8298 16.5046 36.8298C19.4164 36.8298 21.7768 34.4694 21.7768 31.5576C21.7768 28.8379 19.7172 26.5999 17.0728 26.3164Z" fill="#FFCEBF"/>
<path d="M56.3751 22.0767L55.9145 22.8744L57.7602 23.9399L58.836 22.0767C59.4359 21.0376 59.0589 19.7026 57.99 19.1351C57.2649 18.7502 56.4146 18.8452 55.7764 19.2915C56.6515 19.9215 56.9257 21.1229 56.3751 22.0767Z" fill="#BB5D4C"/>
<path d="M54.0782 21.8126L48.6555 31.205C48.6634 31.321 48.6687 31.4377 48.6687 31.5557C48.6687 34.408 46.3482 36.7286 43.4959 36.7286C40.6435 36.7286 38.323 34.408 38.323 31.5557C38.323 31.4377 38.3284 31.321 38.3362 31.2048L32.9136 21.8125L29.2314 23.9384L36.7258 36.9189C36.9829 37.3642 37.1183 37.8695 37.1183 38.3838V43.294C38.0493 44.6675 38.5938 46.3232 38.5938 48.1038C38.5938 48.4957 38.565 48.8809 38.5139 49.2592H48.7016C49.3488 49.2592 49.8734 48.7346 49.8734 48.0873V38.3838C49.8734 37.8695 50.0088 37.3642 50.2659 36.9189L57.7603 23.9384L54.0782 21.8126Z" fill="#05E39C"/>
<path d="M55.915 22.875L47.8054 36.9212C47.5483 37.3665 47.413 37.8718 47.413 38.3861V45.6287C47.413 46.2759 46.8883 46.8006 46.2411 46.8006H38.4951C38.5603 47.2263 38.5941 47.6624 38.5941 48.1061C38.5941 48.498 38.5653 48.8832 38.5142 49.2615H48.7019C49.3491 49.2615 49.8738 48.7369 49.8738 48.0896V38.3861C49.8738 37.8718 50.0091 37.3665 50.2662 36.9212L57.7606 23.9407L55.915 22.875Z" fill="#0ED290"/>
<path d="M43.4958 36.8295C46.4075 36.8295 48.7679 34.469 48.7679 31.5573C48.7679 28.6456 46.4075 26.2852 43.4958 26.2852C40.5841 26.2852 38.2236 28.6456 38.2236 31.5573C38.2236 34.469 40.5841 36.8295 43.4958 36.8295Z" fill="#C96E59"/>
<path d="M44.0641 26.3164C44.9461 27.2588 45.4869 28.5245 45.4869 29.917C45.4869 32.8288 43.1265 35.1891 40.2147 35.1891C40.0227 35.1891 39.8333 35.1782 39.6465 35.1582C40.6086 36.1863 41.9768 36.8298 43.496 36.8298C46.4077 36.8298 48.7681 34.4694 48.7681 31.5576C48.7681 28.8379 46.7086 26.5999 44.0641 26.3164Z" fill="#BB5D4C"/>
<path d="M29.9998 56.82C34.8107 56.82 38.7106 52.9201 38.7106 48.1092C38.7106 43.2984 34.8107 39.3984 29.9998 39.3984C25.189 39.3984 21.2891 43.2984 21.2891 48.1092C21.2891 52.9201 25.189 56.82 29.9998 56.82Z" fill="#FFE177"/>
<path d="M32.1603 39.668C34.1526 41.2643 35.4296 43.7162 35.4296 46.4678C35.4296 51.2787 31.5296 55.1786 26.7188 55.1786C25.9732 55.1786 25.2494 55.0845 24.5586 54.9082C26.0497 56.1029 27.9407 56.8192 30.0001 56.8192C34.8109 56.8192 38.7109 52.9192 38.7109 48.1084C38.7109 44.0433 35.9261 40.6289 32.1603 39.668Z" fill="#FFD15B"/>
<path d="M29.9996 14.2923C33.0672 14.2923 35.554 11.8055 35.554 8.73793C35.554 5.67036 33.0672 3.18359 29.9996 3.18359C26.9321 3.18359 24.4453 5.67036 24.4453 8.73793C24.4453 11.8055 26.9321 14.2923 29.9996 14.2923Z" fill="#FFDFCF"/>
<path d="M30.7031 3.23047C31.6741 4.23066 32.2731 5.59414 32.2731 7.09824C32.2731 10.1657 29.7864 12.6526 26.7188 12.6526C26.4804 12.6526 26.2461 12.6358 26.0156 12.6068C27.025 13.6463 28.4366 14.2932 30 14.2932C33.0675 14.2932 35.5543 11.8065 35.5543 8.73887C35.5543 5.90973 33.4384 3.57629 30.7031 3.23047Z" fill="#FFCEBF"/>
<path d="M27.3232 46.796C27.8086 46.796 28.2021 46.4025 28.2021 45.9171V45.0938C28.2021 44.6084 27.8086 44.2148 27.3232 44.2148C26.8379 44.2148 26.4443 44.6084 26.4443 45.0938V45.9171C26.4443 46.4025 26.8379 46.796 27.3232 46.796Z" fill="black"/>
<path d="M32.6758 44.2109C32.1903 44.2109 31.7969 44.6045 31.7969 45.0898V45.9132C31.7969 46.3986 32.1903 46.7921 32.6758 46.7921C33.1613 46.7921 33.5547 46.3986 33.5547 45.9132V45.0898C33.5547 44.6045 33.1612 44.2109 32.6758 44.2109Z" fill="black"/>
<path d="M32.5731 48.6137C32.0904 48.5665 31.6601 48.9198 31.6128 49.4029C31.5313 50.2357 30.8379 50.8637 29.9996 50.8637C29.1615 50.8637 28.468 50.2357 28.3865 49.4029C28.3392 48.9197 27.9091 48.5658 27.4262 48.6137C26.943 48.6609 26.5898 49.0909 26.637 49.5741C26.8071 51.3114 28.2527 52.6215 29.9996 52.6215C31.7465 52.6215 33.1922 51.3114 33.3621 49.5741C33.4095 49.0909 33.0561 48.6609 32.5731 48.6137Z" fill="black"/>
<path d="M59.8813 20.1866C59.6542 19.3958 59.1284 18.7475 58.4004 18.361C56.9651 17.5991 55.1927 18.125 54.3654 19.5577L53.3152 21.3768L52.025 23.6112C51.7823 24.0316 51.9264 24.5691 52.3467 24.8118C52.7668 25.0545 53.3047 24.9105 53.5473 24.4902L54.398 23.0169L56.5579 24.2639L49.5031 36.4832C49.1692 37.0614 48.9928 37.7199 48.9928 38.3875V48.0911C48.9928 48.2526 48.8614 48.3841 48.6998 48.3841H39.5824C39.585 48.292 39.5895 48.2003 39.5895 48.1075C39.5895 46.1559 39.0021 44.3396 37.9968 42.8233V38.3875C37.9968 37.7199 37.8203 37.0614 37.4865 36.4832L30.4317 24.2639L32.242 23.2186L32.5915 23.0169L37.352 31.2623C37.3473 31.3609 37.3445 31.4598 37.3445 31.5595C37.3445 34.9512 40.1039 37.7105 43.4955 37.7105C46.8872 37.7105 49.6466 34.9512 49.6466 31.5595C49.6466 31.4599 49.6438 31.3609 49.6391 31.2623L51.4982 28.0422C51.7409 27.6219 51.5968 27.0843 51.1765 26.8416C50.7559 26.5987 50.2185 26.743 49.9759 27.1633L49.0095 28.8372C48.0033 26.8075 45.9102 25.4084 43.4955 25.4084C42.4309 25.4084 41.4288 25.6805 40.5545 26.1586V18.3768C40.5545 15.6398 38.3277 13.4131 35.5908 13.4131H34.4119C35.6549 12.2394 36.433 10.5782 36.433 8.73781C36.433 5.19055 33.5471 2.30469 29.9999 2.30469C26.4526 2.30469 23.5668 5.19055 23.5668 8.73781C23.5668 10.5784 24.3449 12.2395 25.5879 13.4131H24.4091C21.6721 13.4131 19.4453 15.6398 19.4453 18.3768V19.9095C19.4453 20.3949 19.8388 20.7884 20.3242 20.7884C20.8096 20.7884 21.2031 20.3949 21.2031 19.9095V18.3768C21.2031 16.6091 22.6413 15.1709 24.4091 15.1709H35.5908C37.3586 15.1709 38.7967 16.6091 38.7967 18.3768V27.5962C38.4776 27.9739 38.2032 28.3902 37.9816 28.8373L33.6744 21.377L32.6242 19.5578C31.7967 18.125 30.0244 17.5992 28.5892 18.3612C28.0229 18.662 27.5797 19.1216 27.3035 19.6829L22.0181 28.8373C21.7965 28.3903 21.5221 27.9739 21.2031 27.5962V24.0111C21.2031 23.5257 20.8096 23.1322 20.3242 23.1322C19.8388 23.1322 19.4453 23.5257 19.4453 24.0111V26.1586C18.5711 25.6805 17.5689 25.4084 16.5042 25.4084C14.09 25.4084 11.9974 26.8071 10.991 28.8359L6.68449 21.3768L5.63426 19.5577C4.80692 18.1248 3.03469 17.5992 1.59926 18.361C0.871408 18.7475 0.345471 19.3959 0.118479 20.1867C-0.108631 20.9777 -0.00702926 21.8057 0.404299 22.5184L1.48008 24.3816L8.97434 37.3621C9.1541 37.6735 9.24914 38.0281 9.24914 38.3875V40.4155C9.24914 40.9009 9.64266 41.2944 10.128 41.2944C10.6134 41.2944 11.007 40.9009 11.007 40.4155V38.3875C11.007 37.72 10.8306 37.0616 10.4967 36.4832L3.44156 24.2638L5.60145 23.0168L10.3605 31.2597C10.3557 31.359 10.3529 31.4588 10.3529 31.5594C10.3529 34.9511 13.1122 37.7104 16.504 37.7104C19.8957 37.7104 22.6552 34.9511 22.6552 31.5594C22.6552 31.4596 22.6523 31.3606 22.6477 31.2621L27.545 22.7797L28.4699 24.3815L28.9849 25.2736L22.513 36.4831C22.1793 37.0614 22.0028 37.7198 22.0028 38.3874V42.8231C20.9974 44.3394 20.4101 46.1558 20.4101 48.1074C20.4101 48.2001 20.4144 48.2919 20.4171 48.384H11.2983C11.1368 48.384 11.0053 48.2525 11.0053 48.091V44.5169C11.0053 44.0315 10.6118 43.638 10.1264 43.638C9.64102 43.638 9.2475 44.0315 9.2475 44.5169V48.091C9.2475 49.2218 10.1675 50.1418 11.2983 50.1418H20.6293C21.5651 54.4553 25.41 57.6972 29.9998 57.6972C34.5894 57.6972 38.4345 54.4555 39.3702 50.1418H48.6998C49.8306 50.1418 50.7506 49.2218 50.7506 48.091V38.3874C50.7506 38.028 50.8457 37.6734 51.0254 37.362L58.5197 24.3815L59.5955 22.5182C60.0068 21.8057 60.1084 20.9776 59.8813 20.1866ZM25.3245 8.73758C25.3245 6.15957 27.4218 4.06227 29.9998 4.06227C32.5778 4.06227 34.6751 6.15957 34.6751 8.73758C34.6751 11.3156 32.5778 13.4129 29.9998 13.4129C27.4218 13.4129 25.3245 11.3156 25.3245 8.73758ZM47.8887 31.5594C47.8887 33.9819 45.9179 35.9526 43.4954 35.9526C41.0729 35.9526 39.1022 33.9819 39.1022 31.5594C39.1022 29.1369 41.0729 27.1661 43.4954 27.1661C45.9179 27.1661 47.8887 29.1369 47.8887 31.5594ZM2.56266 22.7415L1.92633 21.6393C1.75559 21.3437 1.71352 21 1.80774 20.6716C1.90196 20.3435 2.12051 20.0743 2.42321 19.9135C2.59863 19.8204 2.78942 19.7763 2.98008 19.7763C3.42539 19.7763 3.86942 20.0171 4.11153 20.4365L4.72231 21.4945L2.56266 22.7415ZM16.504 35.9527C14.0815 35.9527 12.1107 33.982 12.1107 31.5595C12.1107 29.137 14.0815 27.1662 16.504 27.1662C18.9265 27.1662 20.8973 29.137 20.8973 31.5595C20.8973 33.982 18.9265 35.9527 16.504 35.9527ZM33.184 32.5467H26.8155L29.9998 27.0314L33.184 32.5467ZM29.4132 19.9135C29.5887 19.8204 29.7795 19.7763 29.9701 19.7763C30.4153 19.7763 30.8595 20.0171 31.1017 20.4365L31.7125 21.4945L30.6326 22.118L29.5527 22.7415L28.9164 21.6393C28.7456 21.3437 28.7036 20.9998 28.7978 20.6716C28.892 20.3435 29.1105 20.0742 29.4132 19.9135ZM24.0354 37.362L25.8007 34.3044H34.1989L35.9643 37.362C36.144 37.6734 36.2391 38.028 36.2391 38.3874V40.8339C34.5606 39.3921 32.381 38.5176 29.9999 38.5176C27.6188 38.5176 25.4393 39.392 23.7607 40.8338V38.3873C23.7606 38.028 23.8556 37.6734 24.0354 37.362ZM29.9998 55.9394C25.6813 55.9394 22.1679 52.426 22.1679 48.1074C22.1679 43.7888 25.6813 40.2755 29.9998 40.2755C34.3184 40.2755 37.8316 43.7888 37.8316 48.1074C37.8316 52.426 34.3184 55.9394 29.9998 55.9394ZM58.0731 21.6393L57.4368 22.7415L55.2769 21.4945L55.8877 20.4366C56.2335 19.8378 56.9907 19.6032 57.5761 19.9135C57.8788 20.0743 58.0973 20.3435 58.1916 20.6716C58.286 21 58.2438 21.3437 58.0731 21.6393Z" fill="black"/>
</g>
<defs>
<clipPath id="clip0_1_5325">
<rect width="60" height="60" fill="white"/>
</clipPath>
</defs>
</svg>
