<svg width="50" height="50" viewBox="0 0 50 50" fill="none" xmlns="http://www.w3.org/2000/svg">
<g clip-path="url(#clip0_1_5491)">
<path d="M47.5188 24.9914C48.4567 25.2536 48.971 26.1915 48.729 27.1092L46.1271 36.5283C45.9557 37.0829 45.5926 37.5368 45.1186 37.8191L35.2558 43.5977L33.9448 49.0031L26.4619 46.0583L29.6588 35.8627C29.8201 35.4593 30.1025 35.0761 30.4655 34.8038L37.0408 29.7816C37.3534 29.5295 37.7265 29.4085 38.1098 29.4085C38.5938 29.4085 39.0678 29.6102 39.4006 29.9934C39.9855 30.6691 39.9855 31.7078 39.3401 32.3633L35.8508 35.8929L38.4022 37.0628L43.1319 33.5331C43.1319 33.5331 44.5135 28.8034 45.28 26.1713C45.5422 25.2334 46.5406 24.6989 47.4785 24.9611L47.5188 24.9914Z" fill="#ED664C"/>
<path d="M20.3407 35.8425L23.5376 46.0382L16.0547 48.9829L14.7437 43.5775L4.87079 37.809C4.39681 37.5267 4.03376 37.0729 3.86232 36.5182L1.26047 27.0991C1.02852 26.1814 1.54284 25.2435 2.47063 24.9813L2.51097 24.9611C3.44885 24.6989 4.43715 25.2334 4.70944 26.1713C5.47588 28.8034 6.85748 33.5331 6.85748 33.5331L11.5872 37.0628L14.1386 35.8929L10.6392 32.3431C10.3065 32.0103 10.1451 31.5767 10.1451 31.143C10.1451 30.7296 10.2964 30.306 10.5787 29.9833C11.1737 29.3076 12.2125 29.1967 12.9386 29.7715L19.5138 34.7937C19.897 35.066 20.1794 35.4391 20.3407 35.8425Z" fill="#ED664C"/>
<path d="M30.4859 17.7394C31.416 17.7394 32.1701 16.9854 32.1701 16.0552C32.1701 15.1251 31.416 14.3711 30.4859 14.3711C29.5558 14.3711 28.8018 15.1251 28.8018 16.0552C28.8018 16.9854 29.5558 17.7394 30.4859 17.7394Z" fill="#FDC75B"/>
<path d="M19.5142 17.7394C20.4444 17.7394 21.1984 16.9854 21.1984 16.0552C21.1984 15.1251 20.4444 14.3711 19.5142 14.3711C18.5841 14.3711 17.8301 15.1251 17.8301 16.0552C17.8301 16.9854 18.5841 17.7394 19.5142 17.7394Z" fill="#FDC75B"/>
<path d="M39.7845 15.4917C41.509 15.4917 42.9107 16.8935 42.9107 18.6281C42.9107 20.3626 41.509 21.7644 39.7845 21.7644C39.4315 21.7644 39.0987 21.7039 38.7861 21.6031C37.0414 26.9782 31.5352 30.9113 25.0003 30.9113C18.4654 30.9113 12.9591 26.9782 11.2145 21.6031C10.9019 21.714 10.5691 21.7644 10.2161 21.7644C8.49162 21.7644 7.08984 20.3626 7.08984 18.6281C7.08984 16.9036 8.49162 15.4917 10.2161 15.4917C10.4481 15.4917 10.6699 15.522 10.8817 15.5623C11.9507 10.3788 16.4485 6.28439 22.1766 5.26583C21.753 3.39008 20.4117 1.99839 18.657 1.35296C19.2419 1.14119 19.8873 1 20.5529 1C23.0842 1 25.2222 2.75474 25.8978 5.03388C32.5134 5.39693 37.9087 9.80395 39.0987 15.5522C39.3206 15.5119 39.5525 15.4917 39.7845 15.4917ZM32.1705 16.0565C32.1705 15.1186 31.4142 14.3723 30.4864 14.3723C29.5586 14.3723 28.8022 15.1287 28.8022 16.0565C28.8022 16.9843 29.5586 17.7406 30.4864 17.7406C31.4142 17.7406 32.1705 16.9843 32.1705 16.0565ZM21.1984 16.0565C21.1984 15.1186 20.442 14.3723 19.5142 14.3723C18.5763 14.3723 17.8301 15.1287 17.8301 16.0565C17.8301 16.9843 18.5864 17.7406 19.5142 17.7406C20.442 17.7406 21.1984 16.9843 21.1984 16.0565Z" fill="#FDC75B"/>
<path d="M39.4309 22.7511C39.5418 22.7612 39.6628 22.7612 39.7738 22.7612C42.0529 22.7612 43.9085 20.9056 43.9085 18.6164C43.9085 16.3675 42.1134 14.5321 39.8746 14.4716C38.2913 8.84429 33.017 4.68939 26.6233 4.08431C25.6148 1.65389 23.2147 0 20.5624 0C19.8262 0 19.0799 0.141186 18.3236 0.413473C17.9202 0.554659 17.658 0.937878 17.658 1.36144C17.658 1.78499 17.9202 2.16821 18.3236 2.3094C19.4732 2.73296 20.3607 3.51956 20.8649 4.52804C18.3135 5.17346 16.0041 6.39371 14.1183 8.11819C12.1719 9.8931 10.8004 12.0815 10.1247 14.4917C7.89598 14.5522 6.09082 16.3877 6.09082 18.6365C6.09082 20.9157 7.94641 22.7814 10.2256 22.7814C10.3365 22.7814 10.4575 22.7814 10.5684 22.7713C11.5769 25.2723 13.3922 27.501 15.7419 29.1146C18.4244 30.9601 21.6213 31.9282 24.9997 31.9282C28.378 31.9282 31.5749 30.9601 34.2574 29.1146C36.6072 27.4808 38.4224 25.2521 39.4309 22.7511ZM24.9997 29.8911C22.0347 29.8911 19.2312 29.044 16.8815 27.4304C14.6326 25.8875 12.9585 23.6991 12.1719 21.2787C12.0912 21.0266 11.9097 20.8048 11.6677 20.6837C11.5265 20.6132 11.3752 20.5728 11.2139 20.5728C11.1029 20.5728 10.992 20.593 10.8911 20.6232C10.6693 20.6938 10.4474 20.7342 10.2155 20.7342C9.04564 20.7342 8.09768 19.7761 8.09768 18.6063C8.09768 17.4365 9.04564 16.4784 10.2155 16.4784C10.3667 16.4784 10.518 16.4986 10.6592 16.5288C10.9214 16.5893 11.2038 16.5389 11.4256 16.3877C11.6576 16.2364 11.8089 16.0044 11.8694 15.7422C12.3534 13.4127 13.5938 11.2747 15.4595 9.58048C17.3454 7.86608 19.7254 6.70633 22.3474 6.24244C22.6197 6.19201 22.8617 6.04074 23.013 5.80879C23.1642 5.57685 23.2147 5.29447 23.1542 5.03227C22.9121 3.92295 22.3877 2.94474 21.6515 2.13796C23.1844 2.53126 24.4551 3.73134 24.9291 5.31464C25.0501 5.72812 25.4131 6.01049 25.8367 6.04074C28.8117 6.2021 31.6757 7.28116 33.8944 9.06616C36.0828 10.8209 37.5753 13.1908 38.1098 15.7624C38.1602 16.0246 38.3216 16.2566 38.5535 16.4078C38.7855 16.5591 39.0577 16.5994 39.3199 16.5389C39.4611 16.5087 39.6225 16.4885 39.7637 16.4885C40.9335 16.4885 41.8815 17.4466 41.8815 18.6164C41.8815 19.7862 40.9335 20.7443 39.7637 20.7443C39.5317 20.7443 39.3099 20.7039 39.088 20.6333C38.8359 20.5426 38.5535 20.5627 38.3115 20.6837C38.0694 20.8048 37.8879 21.0165 37.8072 21.2787C37.0206 23.6991 35.3466 25.8875 33.0977 27.4304C30.7681 29.0339 27.9646 29.8911 24.9997 29.8911Z" fill="black"/>
<path d="M22.2065 16.0559C22.2065 14.5734 20.9964 13.3633 19.5139 13.3633C18.0315 13.3633 16.8213 14.5734 16.8213 16.0559C16.8213 17.5384 18.0315 18.7485 19.5139 18.7485C20.9964 18.7485 22.2065 17.5384 22.2065 16.0559ZM18.8382 16.0559C18.8382 15.6828 19.1408 15.3802 19.5139 15.3802C19.887 15.3802 20.1896 15.6828 20.1896 16.0559C20.1896 16.429 19.887 16.7316 19.5139 16.7316C19.1408 16.7316 18.8382 16.429 18.8382 16.0559Z" fill="black"/>
<path d="M30.4856 13.3633C29.0031 13.3633 27.793 14.5734 27.793 16.0559C27.793 17.5384 29.0031 18.7485 30.4856 18.7485C31.968 18.7485 33.1782 17.5384 33.1782 16.0559C33.1782 14.5734 31.9781 13.3633 30.4856 13.3633ZM30.4856 16.7316C30.1125 16.7316 29.8099 16.429 29.8099 16.0559C29.8099 15.6828 30.1125 15.3802 30.4856 15.3802C30.8587 15.3802 31.1613 15.6828 31.1613 16.0559C31.1613 16.429 30.8587 16.7316 30.4856 16.7316Z" fill="black"/>
<path d="M25 25.7563C22.4688 25.7563 20.4115 23.6889 20.4115 21.1677H18.3945C18.3945 24.7982 21.3594 27.7732 25 27.7732C28.6406 27.7732 31.6055 24.7982 31.6055 21.1677H29.5886C29.5886 23.6889 27.5313 25.7563 25 25.7563Z" fill="black"/>
<path d="M47.8926 24.0506C47.8523 24.0304 47.8018 24.0102 47.7514 24.0001C47.0455 23.7984 46.2891 23.8892 45.6437 24.2422C44.9882 24.6052 44.5142 25.1901 44.3125 25.8961C43.6772 28.0945 42.5881 31.8158 42.2553 32.9352L38.2718 35.9001L37.5659 35.5774L40.0467 33.0562C41.0552 32.0477 41.1056 30.4039 40.1476 29.3148C39.6332 28.7299 38.887 28.387 38.0903 28.387C37.4751 28.387 36.8801 28.5988 36.4061 28.9719L29.841 33.984C29.3367 34.3571 28.9334 34.8916 28.7014 35.4765C28.6913 35.4967 28.6812 35.527 28.6812 35.5471L25.5046 45.7428C25.3432 46.247 25.6054 46.7916 26.0995 46.9832L33.5824 49.9279C33.7034 49.9783 33.8244 49.9985 33.9555 49.9985C34.1169 49.9985 34.2782 49.9582 34.4194 49.8876C34.6816 49.7565 34.8632 49.5145 34.9338 49.2321L36.1439 44.2401L45.6336 38.6835C46.3396 38.27 46.8539 37.6044 47.0959 36.8178C47.0959 36.8077 47.0959 36.7976 47.106 36.7875L49.7079 27.3684C49.7079 27.3583 49.7079 27.3583 49.7179 27.3483C50.081 25.9263 49.2843 24.4943 47.8926 24.0506ZM47.7615 26.844L45.1697 36.2329C45.079 36.5354 44.8874 36.7775 44.6252 36.9388L34.7623 42.7174C34.5304 42.8585 34.3589 43.0804 34.2883 43.3527L33.2496 47.6286L27.7131 45.4503L30.6175 36.1925C30.7183 35.9606 30.8797 35.7488 31.0814 35.6076L31.0915 35.5975L37.6667 30.5754C37.6768 30.5754 37.6768 30.5653 37.6869 30.5653C37.8482 30.4443 38.0096 30.414 38.1205 30.414C38.3323 30.414 38.5239 30.5048 38.655 30.656C38.9071 30.9384 38.897 31.3821 38.6348 31.6544L35.1355 35.1841C34.9035 35.416 34.8027 35.7488 34.8632 36.0715C34.9237 36.3942 35.1355 36.6665 35.438 36.8077L37.9894 37.9775C38.3222 38.1288 38.7155 38.0885 39.0181 37.8666L43.7478 34.337C43.9192 34.2059 44.0503 34.0243 44.1108 33.8126C44.1209 33.7621 45.5025 29.0526 46.2589 26.4406C46.3093 26.249 46.4404 26.0977 46.6219 25.9969C46.7833 25.9061 46.9749 25.8759 47.1463 25.9162C47.1766 25.9263 47.2169 25.9465 47.2472 25.9566C47.6405 26.0675 47.8624 26.4507 47.7615 26.844Z" fill="black"/>
<path d="M21.2994 35.5377C21.2893 35.5175 21.2792 35.4873 21.2792 35.4671C21.0473 34.8822 20.6439 34.3477 20.1396 33.9745L13.5745 28.9524C12.4349 28.0548 10.7911 28.2061 9.83307 29.2952C9.38934 29.7995 9.14731 30.4449 9.14731 31.1206C9.14731 31.8366 9.43977 32.5324 9.93392 33.0266L12.4248 35.5578L11.7189 35.8806L7.73545 32.9157C7.41274 31.8063 6.32359 28.0851 5.68825 25.8866C5.48656 25.1706 5.01258 24.5857 4.35707 24.2226C3.70157 23.8697 2.9553 23.7789 2.24937 23.9806C2.19895 23.9907 2.15861 24.0109 2.10818 24.031C0.716492 24.4748 -0.0801996 25.9068 0.28285 27.3388C0.28285 27.3489 0.28285 27.3489 0.292935 27.359L2.89479 36.7781C2.89479 36.7882 2.89479 36.7983 2.90487 36.8084C3.14691 37.595 3.66123 38.2606 4.36716 38.674L13.8569 44.2307L15.067 49.2226C15.1376 49.505 15.3192 49.747 15.5814 49.8781C15.7225 49.9487 15.8839 49.9891 16.0453 49.9891C16.1663 49.9891 16.2974 49.9689 16.4184 49.9185L23.9012 46.9737C24.3954 46.7821 24.6475 46.2376 24.4962 45.7333L21.2994 35.5377ZM16.7512 47.6292L15.7125 43.3533C15.6519 43.0911 15.4805 42.8592 15.2385 42.718L5.38571 36.9395C5.12351 36.7781 4.9319 36.5361 4.83105 36.2335L2.23928 26.8447C2.13844 26.4514 2.3603 26.0681 2.7536 25.9572C2.79394 25.9471 2.8242 25.937 2.85445 25.9169C3.03598 25.8866 3.2175 25.9068 3.37886 25.9975C3.56038 26.0984 3.69148 26.2497 3.74191 26.4514C4.49826 29.0532 5.87986 33.7628 5.88995 33.8132C5.95046 34.025 6.08156 34.2065 6.253 34.3376L10.9827 37.8672C11.2752 38.0891 11.6685 38.1294 12.0114 37.9782L14.5628 36.8084C14.8653 36.6672 15.0771 36.3949 15.1376 36.0722C15.1981 35.7495 15.0973 35.4167 14.8653 35.1847L11.3659 31.6248C11.2449 31.5038 11.1643 31.3223 11.1643 31.1307C11.1643 30.9491 11.2348 30.7676 11.3458 30.6365C11.5878 30.3541 12.0315 30.3138 12.324 30.5457L12.3341 30.5558L18.9093 35.578L18.9194 35.5881C19.1211 35.7394 19.2824 35.9512 19.3833 36.173L22.2877 45.4308L16.7512 47.6292Z" fill="black"/>
</g>
<defs>
<clipPath id="clip0_1_5491">
<rect width="50" height="50" fill="white"/>
</clipPath>
</defs>
</svg>
