<svg width="50" height="50" viewBox="0 0 50 50" fill="none" xmlns="http://www.w3.org/2000/svg">
<g clip-path="url(#clip0_1_5510)">
<path d="M38.3333 25.832H11.6667C10.7462 25.832 10 26.5782 10 27.4987C10 28.4192 10.7462 29.1654 11.6667 29.1654H38.3333C39.2538 29.1654 40 28.4192 40 27.4987C40 26.5782 39.2538 25.832 38.3333 25.832Z" fill="#FFEB3A"/>
<path d="M38.333 25.832H35.833C36.7535 25.832 37.4997 26.5782 37.4997 27.4987C37.4997 28.4192 36.7535 29.1654 35.833 29.1654H38.333C39.2535 29.1654 39.9997 28.4192 39.9997 27.4987C39.9997 26.5782 39.2535 25.832 38.333 25.832Z" fill="#FDD834"/>
<path d="M11.667 29.168H38.3337V32.5013C38.3337 34.7114 37.4557 36.8311 35.8929 38.3939C34.3301 39.9567 32.2105 40.8346 30.0003 40.8346H20.0003C15.398 40.8346 11.667 37.1037 11.667 32.5013V29.168Z" fill="#FFDC00"/>
<path d="M35.8333 29.168V32.5013C35.8333 37.1037 32.1024 40.8346 27.5 40.8346H30C32.2101 40.8346 34.3298 39.9567 35.8926 38.3939C37.4554 36.8311 38.3333 34.7114 38.3333 32.5013V29.168H35.8333Z" fill="#FEC108"/>
<path d="M29.167 45.832H20.8337C19.9132 45.832 19.167 46.5782 19.167 47.4987C19.167 48.4192 19.9132 49.1654 20.8337 49.1654H29.167C30.0875 49.1654 30.8337 48.4192 30.8337 47.4987C30.8337 46.5782 30.0875 45.832 29.167 45.832Z" fill="#FFEB3A"/>
<path d="M29.167 45.832H26.667C27.5875 45.832 28.3337 46.5782 28.3337 47.4987C28.3337 48.4192 27.5875 49.1654 26.667 49.1654H29.167C30.0875 49.1654 30.8337 48.4192 30.8337 47.4987C30.8337 46.5782 30.0875 45.832 29.167 45.832Z" fill="#FDD834"/>
<path d="M28.3337 40.832C27.2574 42.3249 27.2574 44.3391 28.3337 45.832H21.667C22.7433 44.3391 22.7433 42.3249 21.667 40.832H28.3337Z" fill="#FF9801"/>
<path d="M35.8336 14.9981C35.8319 20.7364 31.356 25.478 25.6274 25.8102C19.8988 26.1424 14.9048 21.95 14.2399 16.2504C13.5749 10.5508 17.4697 5.32136 23.1209 4.32592C28.7722 3.33048 34.2193 6.91437 35.5419 12.4981C35.7367 13.3172 35.8346 14.1562 35.8336 14.9981Z" fill="#FFE0B2"/>
<path d="M35.5417 12.499C34.3 7.13772 29.2122 3.57807 23.75 4.24903C29.211 4.88056 33.3314 9.505 33.3314 15.0024C33.3314 20.4997 29.211 25.1242 23.75 25.7557C29.2142 26.4261 34.3028 22.863 35.5417 17.499C35.9306 15.8551 35.9306 14.143 35.5417 12.499Z" fill="#DFC49C"/>
<path d="M14.1663 15C14.1653 15.8419 14.2632 16.681 14.458 17.5H13.333C11.9523 17.5 10.833 16.3807 10.833 15C10.833 13.6193 11.9523 12.5 13.333 12.5H14.458C14.2632 13.319 14.1653 14.1581 14.1663 15Z" fill="#DFC49C"/>
<path d="M39.167 15C39.167 16.3807 38.0477 17.5 36.667 17.5H35.542C35.9309 15.856 35.9309 14.144 35.542 12.5H36.667C38.0477 12.5 39.167 13.6193 39.167 15Z" fill="#DFC49C"/>
<path d="M13.333 5.83203C13.333 7.21274 12.2137 8.33203 10.833 8.33203C9.4523 8.33203 8.33301 7.21274 8.33301 5.83203C8.33301 3.33203 10.833 0.832031 10.833 0.832031C10.833 0.832031 13.333 3.33203 13.333 5.83203Z" fill="#02A9F4"/>
<path d="M41.667 5.83203C41.667 7.21274 40.5477 8.33203 39.167 8.33203C37.7863 8.33203 36.667 7.21274 36.667 5.83203C36.667 3.33203 39.167 0.832031 39.167 0.832031C39.167 0.832031 41.667 3.33203 41.667 5.83203Z" fill="#02A9F4"/>
<path d="M39.167 0.832031C38.7049 1.3148 38.2865 1.83769 37.917 2.39453C38.6515 3.3985 39.085 4.59078 39.167 5.83203C39.165 6.7216 38.6885 7.54251 37.917 7.98536C38.2954 8.21007 38.7269 8.32974 39.167 8.33203C40.5477 8.33203 41.667 7.21274 41.667 5.83203C41.667 3.33203 39.167 0.832031 39.167 0.832031Z" fill="#0377BC"/>
<path d="M38.3338 24.9987H30.9788C33.481 23.5014 35.3342 21.124 36.1754 18.332H36.6671C38.508 18.332 40.0004 16.8396 40.0004 14.9987C40.0004 13.1577 38.508 11.6654 36.6671 11.6654H36.1754C34.7564 6.93944 30.5199 3.61562 25.5921 3.36203C25.3955 3.34197 25.198 3.33196 25.0004 3.33203C19.8448 3.33987 15.3037 6.72618 13.8254 11.6654H13.3338C11.4928 11.6654 10.0004 13.1577 10.0004 14.9987C10.0004 16.8396 11.4928 18.332 13.3338 18.332H13.8254C14.6667 21.124 16.5199 23.5014 19.0221 24.9987H11.6671C10.4509 24.9964 9.41036 25.8716 9.20427 27.0702C8.99819 28.2688 9.68664 29.4413 10.8338 29.8454V32.4987C10.8397 37.5588 14.9403 41.6594 20.0004 41.6654H21.2029C21.7985 42.695 21.8052 43.9629 21.2204 44.9987H20.8338C19.4531 44.9987 18.3338 46.118 18.3338 47.4987C18.3338 48.8794 19.4531 49.9987 20.8338 49.9987H29.1671C30.5478 49.9987 31.6671 48.8794 31.6671 47.4987C31.6671 46.118 30.5478 44.9987 29.1671 44.9987H28.7796C28.192 43.9635 28.199 42.694 28.7979 41.6654H30.0004C35.0606 41.6594 39.1611 37.5588 39.1671 32.4987V29.8454C40.3142 29.4413 41.0027 28.2688 40.7966 27.0702C40.5905 25.8716 39.55 24.9964 38.3338 24.9987ZM36.6671 13.332C37.5876 13.332 38.3338 14.0782 38.3338 14.9987C38.3338 15.9192 37.5876 16.6654 36.6671 16.6654H36.5338C36.6183 16.1138 36.6629 15.5567 36.6671 14.9987C36.6629 14.4407 36.6183 13.8836 36.5338 13.332H36.6671ZM13.3338 16.6654C12.4133 16.6654 11.6671 15.9192 11.6671 14.9987C11.6671 14.0782 12.4133 13.332 13.3338 13.332H13.4671C13.3825 13.8836 13.338 14.4407 13.3338 14.9987C13.338 15.5567 13.3825 16.1138 13.4671 16.6654H13.3338ZM15.0004 14.9987C15.0064 9.47833 19.4801 5.00467 25.0004 4.9987C25.6861 4.91352 26.3727 5.14939 26.8612 5.63793C27.3497 6.12647 27.5856 6.81306 27.5004 7.4987C27.5004 8.3637 27.1521 9.9987 25.8338 9.9987C25.5316 10.0271 25.2316 9.92493 25.0096 9.71791C24.7877 9.51089 24.6648 9.21881 24.6721 8.91537C24.6659 8.74424 24.7121 8.57531 24.8046 8.4312C24.8469 8.36494 24.922 8.32695 25.0004 8.33203C25.4607 8.33203 25.8338 7.95894 25.8338 7.4987C25.8338 7.03846 25.4607 6.66537 25.0004 6.66537C24.3984 6.65866 23.8299 6.94213 23.4729 7.42703C23.1613 7.85945 22.9974 8.38077 23.0054 8.9137C22.9903 9.66151 23.286 10.3821 23.8221 10.9037C24.3582 11.4253 25.0867 11.7011 25.8338 11.6654C28.0221 11.6654 29.1671 9.56953 29.1671 7.4987C29.1697 6.91234 29.069 6.3301 28.8696 5.7787C33.4918 7.71817 35.964 12.7801 34.6516 17.6179C33.3393 22.4557 28.648 25.5744 23.6793 24.9122C18.7106 24.2499 14.9999 20.0113 15.0004 14.9987ZM30.0004 47.4987C30.0004 47.9589 29.6273 48.332 29.1671 48.332H20.8338C20.3735 48.332 20.0004 47.9589 20.0004 47.4987C20.0004 47.0385 20.3735 46.6654 20.8338 46.6654H29.1671C29.6273 46.6654 30.0004 47.0385 30.0004 47.4987ZM26.9446 44.9987H23.0563C23.4261 43.9163 23.414 42.7399 23.0221 41.6654H26.9788C26.5868 42.7399 26.5748 43.9163 26.9446 44.9987ZM37.5004 32.4987C37.4954 36.6387 34.1405 39.9936 30.0004 39.9987H20.0004C15.8604 39.9936 12.5055 36.6387 12.5004 32.4987V29.9987H37.5004V32.4987ZM38.3338 28.332H11.6671C11.2069 28.332 10.8338 27.9589 10.8338 27.4987C10.8338 27.0385 11.2069 26.6654 11.6671 26.6654H38.3338C38.794 26.6654 39.1671 27.0385 39.1671 27.4987C39.1671 27.9589 38.794 28.332 38.3338 28.332Z" fill="black"/>
<path d="M28.7141 20.0992C28.3074 19.8925 27.8101 20.0478 27.5933 20.4492C27.0126 21.2941 26.0208 21.7594 24.9999 21.6659C23.9797 21.7594 22.9884 21.2949 22.4074 20.4509C22.1895 20.0614 21.7033 19.9127 21.3048 20.1138C20.9063 20.3148 20.737 20.7942 20.9208 21.2009C21.7761 22.6171 23.3489 23.439 24.9999 23.3326C26.6515 23.4414 28.2261 22.621 29.0833 21.2051C29.2848 20.7976 29.12 20.3039 28.7141 20.0992Z" fill="black"/>
<path d="M21.6663 17.4987C22.1266 17.4987 22.4997 17.1256 22.4997 16.6654C22.4997 16.2051 22.1266 15.832 21.6663 15.832C21.2061 15.832 20.833 16.2051 20.833 16.6654C20.833 17.1256 21.2061 17.4987 21.6663 17.4987Z" fill="black"/>
<path d="M28.3333 17.4987C28.7936 17.4987 29.1667 17.1256 29.1667 16.6654C29.1667 16.2051 28.7936 15.832 28.3333 15.832C27.8731 15.832 27.5 16.2051 27.5 16.6654C27.5 17.1256 27.8731 17.4987 28.3333 17.4987Z" fill="black"/>
<path d="M14.1667 5.83316C14.1667 3.02066 11.535 0.355655 11.4225 0.243989C11.0971 -0.0813296 10.5696 -0.0813296 10.2442 0.243989C10.1317 0.355655 7.5 3.02066 7.5 5.83316C7.5 7.6741 8.99238 9.16649 10.8333 9.16649C12.6743 9.16649 14.1667 7.6741 14.1667 5.83316ZM9.16667 5.83316C9.32114 4.44536 9.90362 3.14002 10.8333 2.09816C11.763 3.14002 12.3455 4.44536 12.5 5.83316C12.5 6.75363 11.7538 7.49982 10.8333 7.49982C9.91286 7.49982 9.16667 6.75363 9.16667 5.83316Z" fill="black"/>
<path d="M38.5772 0.244111C38.4647 0.355777 35.833 3.02078 35.833 5.83328C35.833 7.67423 37.3254 9.16661 39.1663 9.16661C41.0073 9.16661 42.4997 7.67423 42.4997 5.83328C42.4997 3.02078 39.868 0.355777 39.7555 0.244111C39.4301 -0.0812075 38.9026 -0.0812075 38.5772 0.244111ZM39.1663 7.49994C38.2459 7.49994 37.4997 6.75375 37.4997 5.83328C37.6541 4.44548 38.2366 3.14014 39.1663 2.09828C40.0961 3.14014 40.6785 4.44548 40.833 5.83328C40.833 6.75375 40.0868 7.49994 39.1663 7.49994Z" fill="black"/>
<path d="M23.3333 35.0013H24.1667V37.5013C24.1667 37.9615 24.5398 38.3346 25 38.3346C25.4602 38.3346 25.8333 37.9615 25.8333 37.5013V35.0013H26.6667C27.1269 35.0013 27.5 34.6282 27.5 34.168C27.5 33.7077 27.1269 33.3346 26.6667 33.3346H25.8333V32.5013C25.8333 32.0411 25.4602 31.668 25 31.668C24.5398 31.668 24.1667 32.0411 24.1667 32.5013V33.3346H23.3333C22.8731 33.3346 22.5 33.7077 22.5 34.168C22.5 34.6282 22.8731 35.0013 23.3333 35.0013Z" fill="black"/>
</g>
<defs>
<clipPath id="clip0_1_5510">
<rect width="50" height="50" fill="white"/>
</clipPath>
</defs>
</svg>
