<svg width="50" height="50" viewBox="0 0 50 50" fill="none" xmlns="http://www.w3.org/2000/svg">
<g clip-path="url(#clip0_1_5540)">
<path d="M4.92607 15.5318C4.22871 14.7423 3.80469 13.7056 3.80469 12.5693C3.80469 10.4695 5.2502 8.70801 7.20029 8.22373C6.4752 7.42803 6.03301 6.36992 6.03301 5.20859C6.03301 2.73535 8.03799 0.730469 10.5111 0.730469H19.6807C22.1539 0.730469 24.1588 2.73545 24.1588 5.20859C24.1588 6.37002 23.7166 7.42803 22.9915 8.22373C24.9415 8.70801 26.3871 10.4695 26.3871 12.5693C26.3871 13.7056 25.9631 14.7423 25.2657 15.5318C26.8488 16.3941 27.9232 18.0728 27.9232 20.0023C27.9232 22.812 25.6455 25.0897 22.8358 25.0897H7.35596C4.54629 25.0897 2.26855 22.812 2.26855 20.0023C2.26865 18.0728 3.34297 16.3941 4.92607 15.5318Z" fill="#D9B1EE"/>
<path d="M13.2021 25.0898H7.35645C4.54687 25.0898 2.26855 22.8125 2.26855 20.0029C2.26855 19.0381 2.53711 18.1357 3.00391 17.3672C3.4707 16.5986 4.13477 15.9629 4.92676 15.5322C4.22949 14.7422 3.80469 13.7061 3.80469 12.5693C3.80469 11.5195 4.16602 10.5547 4.77148 9.79102C5.37695 9.02734 6.22559 8.46582 7.2002 8.22363C6.47559 7.42871 6.0332 6.37012 6.0332 5.20898C6.0332 3.97266 6.53418 2.85254 7.34473 2.04199C8.15527 1.23145 9.27539 0.730469 10.5117 0.730469H16.3574C15.1211 0.730469 14.001 1.23145 13.1904 2.04199C12.3799 2.85254 11.8789 3.97266 11.8789 5.20898C11.8789 7.1332 12.6249 7.68516 13.3495 8.48008C13.3148 10.0285 11.2227 9.02734 10.6172 9.79102C10.0117 10.5547 9.65039 11.5195 9.65039 12.5693C9.65039 13.7061 10.0742 14.7422 10.7725 15.5322C9.98047 15.9629 9.31641 16.5986 8.84961 17.3672C8.38281 18.1357 8.11426 19.0381 8.11426 20.0029C8.11426 22.8125 10.3926 25.0898 13.2021 25.0898Z" fill="#CB97E7"/>
<path d="M14.6479 21.1992H15.5432C18.7659 21.1992 21.3785 23.8118 21.3785 27.0346C21.3785 27.5884 20.9296 28.0374 20.3757 28.0374H9.81533C9.26152 28.0374 8.8125 27.5885 8.8125 27.0346C8.8125 23.8118 11.4251 21.1992 14.6479 21.1992Z" fill="#FE646F"/>
<path d="M13.9395 22.9043C12.8838 23.96 12.2305 25.4189 12.2305 27.0312C12.2305 27.585 12.6797 28.0342 13.2334 28.0342H9.81543C9.26172 28.0342 8.8125 27.585 8.8125 27.0312C8.8125 25.4189 9.46582 23.96 10.5215 22.9043C11.5781 21.8486 13.0371 21.1953 14.6484 21.1953H15.5439C15.9775 21.1953 16.3994 21.2422 16.8057 21.332C15.7002 21.5752 14.7119 22.1318 13.9395 22.9043Z" fill="#FD4755"/>
<path d="M21.1402 15.3969C20.8745 17.6721 19.3539 19.5643 17.2881 20.362V21.6913C17.2881 22.8802 16.364 23.8929 15.1759 23.9357C13.928 23.9808 12.9014 22.9827 12.9014 21.7439V20.362C10.625 19.4812 9.00977 17.2712 9.00977 14.6833V11.8747C9.00977 10.9034 9.2376 9.98467 9.64219 9.16983C9.78555 8.88125 10.1016 8.72657 10.4178 8.78887C10.7299 8.8503 11.0526 8.88252 11.3828 8.88252C12.5384 8.88252 13.6017 8.48848 14.4461 7.82744C14.7095 7.62129 15.0947 7.8128 15.0947 8.14727V8.59737C15.0947 11.7432 17.4825 14.3327 20.5461 14.6505C20.9158 14.689 21.1834 15.0277 21.1402 15.3969Z" fill="#FFDFCF"/>
<path d="M17.6201 20.2188C17.5107 20.2705 17.4004 20.3174 17.2881 20.3604V21.6896C17.2881 22.8785 16.364 23.8912 15.1759 23.9341C13.928 23.9791 12.9014 22.9811 12.9014 21.7422V20.3604C10.625 19.4795 9.00977 17.2695 9.00977 14.6816V11.873C9.00977 10.9018 9.2376 9.98301 9.64219 9.16816C9.78555 8.87959 10.1016 8.7249 10.4178 8.78721C10.7299 8.84863 11.0526 8.88086 11.3828 8.88086C12.082 8.88086 12.7461 8.7373 13.3496 8.47656C12.8682 9.34766 12.5938 10.3496 12.5938 11.415V14.2236C12.5938 15.9043 13.2754 17.4258 14.376 18.5283C15.2402 19.3926 16.3643 19.998 17.6201 20.2188Z" fill="#FFCEBF"/>
<path d="M38.3144 0.730469C33.436 0.730469 29.4814 4.68516 29.4814 9.56338V12.7929C29.4814 15.5683 31.7313 17.8181 34.5066 17.8181H42.1221C44.8975 17.8181 47.1473 15.5682 47.1473 12.7929V9.56338C47.1473 4.68516 43.1927 0.730469 38.3144 0.730469Z" fill="#D1A08F"/>
<path d="M39.4258 17.8184H34.5059C31.7305 17.8184 29.4814 15.5684 29.4814 12.793V9.56348C29.4814 4.68555 33.4355 0.730469 38.3145 0.730469C39.168 0.730469 39.9941 0.851562 40.7744 1.07812C35.794 0.843848 32.1837 7.3084 36.1195 10.8952L34.4004 12.7929C34.4004 15.5684 36.6504 17.8184 39.4258 17.8184Z" fill="#C68D7A"/>
<path d="M38.1499 21.1992H39.0451C42.2679 21.1992 44.8805 23.8118 44.8805 27.0346C44.8805 27.5884 44.4315 28.0374 43.8776 28.0374H33.3173C32.7635 28.0374 32.3145 27.5885 32.3145 27.0346C32.3146 23.8118 34.9271 21.1992 38.1499 21.1992Z" fill="#D9B1EE"/>
<path d="M37.4414 22.9082C36.3857 23.9639 35.7324 25.4228 35.7324 27.0352C35.7324 27.5889 36.1816 28.0381 36.7354 28.0381H33.3174C32.7637 28.0381 32.3145 27.5889 32.3145 27.0352C32.3145 25.4228 32.9678 23.9639 34.0234 22.9082C35.0801 21.8525 36.5391 21.1992 38.1504 21.1992H39.0459C39.4795 21.1992 39.9014 21.2461 40.3076 21.3359C39.2021 21.5791 38.2139 22.1357 37.4414 22.9082Z" fill="#CB97E7"/>
<path d="M44.6826 11.8738V14.658C44.6826 17.2459 43.0674 19.4568 40.7891 20.3367V21.6911C40.7891 22.8801 39.8649 23.8931 38.6767 23.9359C37.4288 23.9809 36.4023 22.9818 36.4023 21.744V20.3358C35.6045 20.0272 34.8877 19.5555 34.293 18.9617C33.1924 17.8602 32.5107 16.3387 32.5107 14.658V11.8738C32.5107 11.59 32.5301 11.3109 32.5676 11.0377C32.613 10.7074 32.96 10.5123 33.2685 10.6387C33.836 10.8711 34.4573 10.9988 35.1083 10.9988C36.3063 10.9988 37.4024 10.5645 38.2492 9.84562C38.4484 9.67648 38.7448 9.67648 38.944 9.84552C39.7915 10.5645 40.8878 10.9989 42.0857 10.9989C42.7363 10.9989 43.3571 10.871 43.9247 10.6388C44.2331 10.5126 44.5798 10.7075 44.6254 11.0375C44.6633 11.3108 44.6826 11.5899 44.6826 11.8738Z" fill="#FFDFCF"/>
<path d="M41.083 20.2144C40.9863 20.2593 40.8887 20.3003 40.7891 20.3384V21.6928C40.7891 22.8818 39.8649 23.8948 38.6767 23.9375C37.4288 23.9826 36.4023 22.9834 36.4023 21.7456V20.3374C35.6045 20.0288 34.8877 19.5572 34.293 18.9634C33.1924 17.8619 32.5107 16.3404 32.5107 14.6597V11.8755C32.5107 11.5916 32.5301 11.3127 32.5676 11.0395C32.613 10.7091 32.96 10.514 33.2687 10.6404C33.8362 10.8727 34.4575 11.0005 35.1084 11.0005C35.4551 11.0005 35.793 10.9644 36.1191 10.8951C36.1025 11.0757 36.0947 11.2583 36.0947 11.4429V14.2271C36.0947 15.9077 36.7764 17.4292 37.877 18.5308C38.7324 19.3863 39.8418 19.9888 41.083 20.2144Z" fill="#FFCEBF"/>
<path d="M35.2841 5.79495V9.63674C35.2841 12.6414 32.8483 15.0772 29.8437 15.0772H23.2998C20.2951 15.0772 17.8594 12.6414 17.8594 9.63674V5.79495C17.8594 3.02913 20.0779 0.732154 22.8438 0.730592C24.3264 0.729713 25.6585 1.37639 26.5722 2.40344C27.485 1.3763 28.8174 0.729615 30.3002 0.730592C33.0658 0.732447 35.2841 3.02932 35.2841 5.79495Z" fill="#596C76"/>
<path d="M29.3867 15.0772H23.2998C20.2949 15.0772 17.8594 12.6416 17.8594 9.63672V5.79492C17.8594 3.0293 20.0781 0.732424 22.8437 0.730471C23.9961 0.729494 25.0586 1.12012 25.9033 1.77735C24.7109 2.70899 23.9463 4.1709 23.9463 5.79492V9.63672C23.9463 12.6416 26.3818 15.0772 29.3867 15.0772Z" fill="#465A61"/>
<path d="M26.1235 21.1991H27.0187C30.2415 21.1991 32.8541 23.8117 32.8541 27.0344C32.8541 27.5883 32.4052 28.0373 31.8513 28.0373H21.2909C20.7371 28.0373 20.2881 27.5884 20.2881 27.0344C20.2882 23.8117 22.9008 21.1991 26.1235 21.1991Z" fill="#FFE177"/>
<path d="M25.415 22.9082C24.3594 23.9639 23.7061 25.4229 23.7061 27.0352C23.7061 27.5889 24.1553 28.0381 24.709 28.0381H21.291C20.7373 28.0381 20.2881 27.5889 20.2881 27.0352C20.2881 25.4229 20.9414 23.9639 21.9971 22.9082C23.0537 21.8525 24.5127 21.1992 26.124 21.1992H27.0195C27.4531 21.1992 27.875 21.2461 28.2812 21.3359C27.1758 21.5791 26.1875 22.1357 25.415 22.9082Z" fill="#FFD15B"/>
<path d="M32.6582 11.8789V14.6631C32.6582 17.251 31.043 19.4619 28.7646 20.3418V21.749C28.7646 22.96 27.7822 23.9424 26.5703 23.9424C25.3604 23.9424 24.3779 22.96 24.3779 21.749V20.3408C23.5791 20.0322 22.8633 19.5605 22.2676 18.9668C21.168 17.8652 20.4854 16.3438 20.4854 14.6631V11.8789C20.4854 11.0635 20.6455 10.2852 20.9375 9.5752C21.3428 10.2012 22.0469 10.6143 22.8477 10.6143C23.6182 10.6143 24.2979 10.2305 24.71 9.64551C25.1211 10.2305 25.8018 10.6143 26.5723 10.6143C27.3418 10.6143 28.0225 10.2305 28.4336 9.64551C28.8457 10.2305 29.5254 10.6143 30.2959 10.6143C31.0967 10.6143 31.8018 10.2002 32.2061 9.57422C32.498 10.2852 32.6582 11.0635 32.6582 11.8789Z" fill="#D1A08F"/>
<path d="M29.0586 20.2168C28.9619 20.2617 28.8643 20.3027 28.7646 20.3408V21.748C28.7646 22.959 27.7822 23.9414 26.5713 23.9414C25.3604 23.9414 24.3779 22.959 24.3779 21.748V20.3398C23.5801 20.0312 22.8633 19.5596 22.2676 18.9658C21.167 17.8643 20.4854 16.3428 20.4854 14.6621V11.8779C20.4854 11.0625 20.6455 10.2842 20.9375 9.57422C21.3428 10.2002 22.0469 10.6133 22.8477 10.6133C23.3574 10.6133 23.8281 10.4453 24.207 10.1602C24.1172 10.5742 24.0703 11.0049 24.0703 11.4453V14.2295C24.0703 15.9102 24.752 17.4316 25.8525 18.5332C26.708 19.3887 27.8174 19.9912 29.0586 20.2168Z" fill="#C68D7A"/>
<path d="M46.7057 28.0391H6.3495C5.76659 28.0391 5.29667 28.5249 5.32548 29.107C5.88182 40.3345 15.1621 49.2675 26.5275 49.2675C37.893 49.2675 47.1731 40.3345 47.7296 29.107C47.7585 28.5249 47.2885 28.0391 46.7057 28.0391Z" fill="#C8EFFE"/>
<path d="M31.8569 48.5921C22.711 46.2286 15.9578 37.9225 15.9578 28.0391H6.3495C5.76659 28.0391 5.29667 28.5249 5.32548 29.107C5.88182 40.3355 15.1621 49.2675 26.5263 49.2675C28.3677 49.2676 30.1543 49.0326 31.8569 48.5921Z" fill="#99E6FC"/>
<path d="M13.6572 13.6937V12.8223C13.6572 12.4178 13.3294 12.0898 12.9248 12.0898C12.5202 12.0898 12.1924 12.4178 12.1924 12.8223V13.6937C12.1924 14.0981 12.5202 14.4261 12.9248 14.4261C13.3294 14.4261 13.6572 14.0981 13.6572 13.6937Z" fill="black"/>
<path d="M17.2498 17.5844C17.6102 17.4007 17.7535 16.9597 17.5699 16.5993C17.3862 16.2389 16.9452 16.0956 16.5847 16.2792C15.6526 16.7542 14.5393 16.7542 13.6072 16.2792C13.2468 16.0955 12.8057 16.2389 12.622 16.5993C12.4383 16.9597 12.5817 17.4008 12.942 17.5844C13.6163 17.9281 14.3561 18.0998 15.0959 18.0998C15.8358 18.0998 16.5755 17.9281 17.2498 17.5844Z" fill="black"/>
<path d="M40.0866 16.2792C39.1543 16.7543 38.0413 16.7543 37.1091 16.2792C36.749 16.0958 36.3077 16.2388 36.124 16.5992C35.9403 16.9596 36.0836 17.4007 36.444 17.5844C37.1183 17.928 37.8579 18.0998 38.5978 18.0998C39.3374 18.0998 40.0774 17.9279 40.7517 17.5844C41.112 17.4007 41.2554 16.9596 41.0717 16.5993C40.888 16.2388 40.4471 16.0956 40.0866 16.2792Z" fill="black"/>
<path d="M37.0635 13.6937V12.8223C37.0635 12.4178 36.7356 12.0898 36.3311 12.0898C35.9265 12.0898 35.5986 12.4178 35.5986 12.8223V13.6937C35.5986 14.0981 35.9265 14.4261 36.3311 14.4261C36.7356 14.4261 37.0635 14.0981 37.0635 13.6937Z" fill="black"/>
<path d="M40.8643 12.0898C40.4597 12.0898 40.1318 12.4178 40.1318 12.8223V13.6937C40.1318 14.0981 40.4597 14.4261 40.8643 14.4261C41.2688 14.4261 41.5967 14.0981 41.5967 13.6937V12.8223C41.5967 12.4178 41.2688 12.0898 40.8643 12.0898Z" fill="black"/>
<path d="M28.0613 16.2792C27.1291 16.7542 26.0158 16.7542 25.0837 16.2792C24.7233 16.0956 24.2824 16.2389 24.0986 16.5993C23.9149 16.9597 24.0582 17.4008 24.4186 17.5844C25.0929 17.928 25.8326 18.0998 26.5725 18.0998C27.3123 18.0998 28.052 17.928 28.7264 17.5844C29.0867 17.4007 29.2301 16.9597 29.0464 16.5993C28.8627 16.2388 28.4217 16.0956 28.0613 16.2792Z" fill="black"/>
<path d="M25.0381 13.6937V12.8223C25.0381 12.4178 24.7103 12.0898 24.3057 12.0898C23.9011 12.0898 23.5732 12.4178 23.5732 12.8223V13.6937C23.5732 14.0981 23.9011 14.4261 24.3057 14.4261C24.7103 14.4261 25.0381 14.0981 25.0381 13.6937Z" fill="black"/>
<path d="M28.8389 12.0898C28.4343 12.0898 28.1064 12.4178 28.1064 12.8223V13.6937C28.1064 14.0981 28.4343 14.4261 28.8389 14.4261C29.2435 14.4261 29.5713 14.0981 29.5713 13.6937V12.8223C29.5713 12.4178 29.2434 12.0898 28.8389 12.0898Z" fill="black"/>
<path d="M47.9815 27.854C47.6508 27.5062 47.1858 27.3067 46.706 27.3067H45.5903C45.6042 27.2179 45.6133 27.1278 45.6133 27.0362C45.6133 26.1914 45.455 25.3683 45.1427 24.5897C44.992 24.2143 44.5653 24.0319 44.1902 24.1826C43.8147 24.3332 43.6325 24.7597 43.7831 25.1351C44.0255 25.7395 44.1484 26.3791 44.1484 27.0362C44.1484 27.1334 44.0986 27.1977 44.069 27.2273C44.0328 27.2636 43.9702 27.3067 43.8779 27.3067H33.5647C33.5786 27.2179 33.5874 27.1277 33.5874 27.0363C33.5874 26.4447 33.5088 25.8601 33.3535 25.2949C33.6066 24.5982 34.0134 23.9557 34.5417 23.4272C34.905 23.064 35.3219 22.7576 35.7733 22.5193C35.9097 23.0225 36.1792 23.4814 36.5657 23.8543C37.1164 24.3855 37.8333 24.6743 38.5951 24.6743C38.6313 24.6743 38.6677 24.6736 38.704 24.6724C39.9816 24.6262 41.0627 23.7151 41.4071 22.5117C41.5898 22.6074 41.7672 22.7139 41.9376 22.8318C42.0647 22.9198 42.21 22.962 42.3537 22.962C42.586 22.962 42.8145 22.8518 42.9566 22.6463C43.1868 22.3137 43.1038 21.8574 42.7712 21.6272C42.38 21.3565 41.9614 21.131 41.5225 20.9521V20.8227C42.7866 20.2225 43.8361 19.2478 44.53 18.026C46.5739 17.0871 47.8804 15.063 47.8804 12.7951V9.56563C47.8804 4.29121 43.5895 0.000195313 38.315 0.000195313C36.7058 0.000195313 35.134 0.403223 33.7355 1.16787C32.7788 0.436133 31.5896 0.00107422 30.3019 0.000195313C30.3006 0.000195313 30.2993 0.000195313 30.298 0.000195313C28.924 0.000195313 27.6028 0.495996 26.5728 1.38086C25.5418 0.495996 24.221 0.000195313 22.8481 0.000195313C22.847 0.000195313 22.8456 0.000195313 22.8443 0.000195313C22.2947 0.000195313 21.754 0.0792969 21.233 0.235547C20.7332 0.0795898 20.2127 0 19.6815 0H12.2206C11.816 0 11.4882 0.32793 11.4882 0.732422C11.4882 1.13691 11.816 1.46484 12.2206 1.46484H19.0489C17.8527 2.54326 17.1275 4.10723 17.1275 5.79707V9.63887C17.1275 10.8561 17.4753 12.0095 18.1072 12.9876C16.7205 12.0149 15.8277 10.4047 15.8277 8.60176V8.15156C15.8277 7.71377 15.5829 7.32236 15.1888 7.13018C14.796 6.93867 14.3385 6.98652 13.9946 7.25537C13.2428 7.84355 12.3398 8.15449 11.3834 8.15449C11.106 8.15449 10.8286 8.12764 10.56 8.07471C9.92324 7.94824 9.27617 8.26621 8.98594 8.84873C8.51611 9.79639 8.27793 10.8159 8.27793 11.8791V14.6877C8.27793 17.313 9.82246 19.7271 12.1695 20.8476V20.953C11.3642 21.2818 10.6235 21.7724 10.0045 22.3913C9.43818 22.9576 8.97832 23.6313 8.65205 24.3594H7.35635C4.95527 24.3594 3.00186 22.406 3.00186 20.0049C3.00186 19.2067 3.21934 18.4268 3.63105 17.7487C4.03115 17.0887 4.6002 16.5453 5.27656 16.1775C5.47246 16.071 5.60908 15.8811 5.64795 15.6614C5.68682 15.4418 5.62334 15.2165 5.47578 15.0493C4.871 14.3642 4.53789 13.4841 4.53789 12.5712C4.53789 11.7183 4.81738 10.9149 5.34658 10.2475C5.85898 9.6001 6.58027 9.13447 7.37764 8.93633C7.62803 8.87412 7.82725 8.68467 7.90195 8.43779C7.97676 8.19082 7.91611 7.92275 7.74229 7.73213C7.11299 7.0417 6.76641 6.14629 6.76641 5.21084C6.76641 4.20996 7.15596 3.26914 7.86338 2.56182C8.22256 2.20264 8.64131 1.925 9.10772 1.73682C9.48291 1.58555 9.66426 1.15869 9.51289 0.783594C9.36152 0.408496 8.93477 0.226855 8.55967 0.378418C7.90947 0.640723 7.32666 1.02686 6.82744 1.52607C5.84365 2.51016 5.30166 3.81875 5.30166 5.21094C5.30166 6.15703 5.55654 7.07383 6.03223 7.87295C5.32227 8.21445 4.69072 8.71592 4.19844 9.33789C3.46221 10.2665 3.07314 11.3846 3.07314 12.5713C3.07314 13.558 3.35273 14.5172 3.87197 15.3429C3.27578 15.7891 2.76729 16.3479 2.37881 16.989C1.82812 17.8957 1.53711 18.9386 1.53711 20.0049C1.53711 23.2137 4.14756 25.8242 7.35645 25.8242H8.19316C8.11885 26.2219 8.08008 26.6268 8.08008 27.0361C8.08008 27.1284 8.08945 27.2183 8.10332 27.3066H6.34951C5.86963 27.3066 5.40469 27.5061 5.07393 27.8539C4.74063 28.2044 4.57041 28.6627 4.59453 29.1436C4.77334 32.7646 5.85928 36.3138 7.73496 39.4071C7.94463 39.7531 8.39512 39.8633 8.74102 39.6536C9.08691 39.4439 9.19727 38.9935 8.9875 38.6476C7.2376 35.7616 6.22441 32.4502 6.05752 29.0706C6.05234 28.967 6.1041 28.8963 6.13545 28.8634C6.16807 28.829 6.23916 28.7715 6.34941 28.7715H13.8646C13.9525 32.5521 14.7214 36.1662 16.1156 39.3934C14.6045 40.2086 13.1833 41.2061 11.8809 42.3736C11.5495 42.0351 11.2273 41.6853 10.9177 41.3219C10.6554 41.014 10.1932 40.977 9.88516 41.2394C9.57734 41.5017 9.54033 41.964 9.80264 42.2719C13.9865 47.1826 20.0817 49.9993 26.5261 50C26.5267 50 26.5272 50.0001 26.5278 50.0001H26.5291C32.2021 49.9999 37.5855 47.8434 41.6881 43.9277C45.777 40.0252 48.1822 34.7747 48.4609 29.1443C48.4852 28.6627 48.3148 28.2045 47.9815 27.854ZM25.7954 48.1621C22.5873 46.6426 19.9008 43.7559 18.052 40.0668C20.4665 38.9697 23.0895 38.3495 25.7954 38.2544V48.1621ZM36.3197 40.7229C37.6688 41.4579 38.9399 42.3497 40.1102 43.3871C37.2394 45.9313 33.759 47.5962 30.0252 48.2374C32.2353 46.6983 34.1939 44.5133 35.7156 41.849C35.9263 41.4802 36.1276 41.1047 36.3197 40.7229ZM27.2603 48.1621V38.2544C29.9663 38.3495 32.5893 38.9697 35.0038 40.0668C33.1549 43.7559 30.4684 46.6426 27.2603 48.1621ZM27.2603 36.7887V28.7717L37.7257 28.7716C37.6354 32.3563 36.8859 35.7638 35.6194 38.737C33.014 37.5516 30.1818 36.8845 27.2603 36.7887ZM18.0211 20.9538V20.8482C19.1847 20.2962 20.1576 19.4306 20.8416 18.3585C21.1017 18.7603 21.4047 19.1385 21.7511 19.4855C22.3092 20.0417 22.9449 20.4901 23.646 20.8228V20.9544C22.84 21.2834 22.0993 21.7738 21.4809 22.3922C21.2442 22.6286 21.0282 22.8802 20.8329 23.1442C20.1179 22.1726 19.1444 21.4114 18.0211 20.9538ZM31.9263 14.663C31.9263 16.8598 30.5498 18.8673 28.5013 19.6584C28.2188 19.7675 28.0327 20.039 28.0327 20.3417V21.7489C28.0327 22.5545 27.3769 23.2099 26.5708 23.2099C25.7658 23.2099 25.1108 22.5545 25.1108 21.7489V20.3407C25.1108 20.0381 24.9247 19.7666 24.6424 19.6575C23.9449 19.3881 23.32 18.9812 22.7864 18.4493C21.7752 17.4362 21.2182 16.0915 21.2182 14.663V11.8788C21.2182 11.5544 21.2466 11.2346 21.3031 10.9212C21.762 11.1959 22.2933 11.3466 22.848 11.3466C23.5303 11.3466 24.1849 11.1132 24.71 10.6994C25.2347 11.1132 25.8895 11.3466 26.5726 11.3466C27.2551 11.3466 27.9096 11.1132 28.4342 10.6994C28.9593 11.1133 29.6139 11.3466 30.2961 11.3466C30.8511 11.3466 31.3822 11.196 31.8409 10.9212C31.8975 11.2347 31.926 11.5545 31.926 11.8788V14.663H31.9263ZM21.021 27.0363C21.021 25.6731 21.552 24.3918 22.5163 23.4283C22.8798 23.0648 23.2973 22.7581 23.7497 22.5197C24.0888 23.7602 25.2247 24.6748 26.5708 24.6748C27.9184 24.6748 29.0555 23.7594 29.3942 22.5182C30.5738 23.1378 31.4776 24.2036 31.8862 25.4976C32.043 25.9935 32.1226 26.5111 32.1226 27.0364C32.1226 27.1292 32.0775 27.1909 32.0508 27.2194C32.0464 27.2241 32.0421 27.2288 32.0378 27.2337L32.0433 27.2274C32.0072 27.2636 31.9448 27.3064 31.8534 27.3068H21.2901C21.1417 27.3059 21.021 27.185 21.021 27.0363ZM33.506 22.3915C33.1561 22.7414 32.8476 23.1307 32.5854 23.5481C31.8586 22.3885 30.7811 21.4753 29.4976 20.9531V20.8232C30.8276 20.1894 31.8997 19.1397 32.5797 17.8717C32.8934 18.4591 33.2939 19.0019 33.7765 19.4843C34.3332 20.0401 34.9688 20.4887 35.6708 20.8219V20.9534C34.8655 21.282 34.1249 21.7726 33.506 22.3915ZM40.5261 19.6576C40.2437 19.7667 40.0576 20.0381 40.0576 20.3408V21.6953C40.0576 22.5017 39.4267 23.1805 38.6514 23.2085C38.2492 23.2231 37.8708 23.0778 37.5828 22.8C37.2945 22.5219 37.1357 22.1483 37.1357 21.748V20.3398C37.1357 20.0373 36.9497 19.7659 36.6675 19.6567C35.969 19.3866 35.3445 18.9798 34.8118 18.4479C34.027 17.663 33.5151 16.6767 33.3261 15.5907C33.3673 15.2953 33.3894 14.9955 33.3907 14.6927C34.4599 13.9445 35.2445 12.9015 35.6656 11.7063C36.7332 11.5991 37.7537 11.1862 38.5981 10.5123C39.5872 11.3021 40.8195 11.7354 42.087 11.7354C42.7217 11.7354 43.3413 11.6305 43.9323 11.4233C43.9448 11.5745 43.9512 11.7266 43.9512 11.8779V14.6621C43.9512 15.5284 43.751 16.355 43.3563 17.1185C42.7533 18.2836 41.7481 19.1854 40.5261 19.6576ZM46.4154 9.56563V12.7951C46.4154 13.8689 46.0223 14.8692 45.3453 15.6359C45.3918 15.3139 45.4158 14.9883 45.4158 14.6621V11.8779C45.4158 11.5659 45.3945 11.2514 45.3523 10.9409C45.2992 10.5596 45.0771 10.2305 44.7431 10.0381C44.407 9.84463 44.0083 9.81777 43.648 9.96475C43.1529 10.1676 42.6276 10.2704 42.0868 10.2704C41.1114 10.2704 40.1639 9.92256 39.4189 9.29092C38.9422 8.88662 38.2511 8.88701 37.7773 9.29082C37.2607 9.72871 36.6467 10.03 35.9938 10.1737C36.0087 9.99697 36.0171 9.81865 36.0171 9.63877V5.79697C36.0171 4.46455 35.5698 3.23643 34.821 2.25605C35.9052 1.73691 37.0972 1.46494 38.3149 1.46494C42.7815 1.46504 46.4154 5.09893 46.4154 9.56563ZM18.5924 5.79707C18.5924 3.95391 19.7404 2.31182 21.451 1.70469C21.4576 1.70254 21.4643 1.70039 21.4708 1.69805C21.9107 1.54346 22.3728 1.46504 22.8446 1.46504H22.8475C24.0602 1.46504 25.2184 1.98516 26.0255 2.89229C26.1646 3.04854 26.3637 3.13789 26.5728 3.13789H26.5729C26.7821 3.13789 26.9813 3.04834 27.1202 2.89199C27.9263 1.98496 29.0842 1.46504 30.2978 1.46504H30.3007C32.6449 1.4667 34.5521 3.41006 34.5521 5.79707V9.63887C34.5521 10.8053 34.1323 11.8941 33.3909 12.7383V11.8788C33.3909 10.9842 33.2203 10.1151 32.8838 9.2959C32.7802 9.04365 32.545 8.86982 32.2734 8.84482C32.0032 8.82002 31.739 8.94775 31.5911 9.17676C31.306 9.61816 30.8219 9.88174 30.2962 9.88174C29.7954 9.88174 29.3229 9.63564 29.0326 9.22353C28.8954 9.02881 28.6722 8.91299 28.4339 8.91299C28.4337 8.91299 28.4336 8.91299 28.4334 8.91299C28.1951 8.91309 27.9717 9.0292 27.8347 9.22432C27.5453 9.63594 27.0734 9.88174 26.5726 9.88174C26.071 9.88174 25.5987 9.63594 25.3094 9.22432C25.1724 9.0293 24.949 8.91318 24.7105 8.91299C24.7104 8.91299 24.7103 8.91299 24.7102 8.91299C24.472 8.91299 24.2485 9.02891 24.1114 9.22363C23.821 9.63574 23.3487 9.88174 22.8479 9.88174C22.3225 9.88174 21.8383 9.61836 21.5526 9.17705C21.4046 8.94824 21.1413 8.82041 20.8704 8.8457C20.5991 8.8708 20.3641 9.04443 20.2605 9.29639C19.9239 10.1147 19.7532 10.9836 19.7532 11.8787V12.7381C19.0119 11.8939 18.5922 10.8052 18.5922 9.63877V5.79707H18.5924ZM9.74277 14.6877V11.8791C9.74277 11.0489 9.92744 10.253 10.2907 9.51465C10.6486 9.58408 11.0162 9.61934 11.3833 9.61934C12.4518 9.61934 13.4708 9.33086 14.365 8.77969C14.4467 11.9603 16.709 14.6378 19.7816 15.2758C19.8246 15.7602 19.918 16.2341 20.06 16.6914C19.5073 18.0635 18.4134 19.1465 17.0246 19.6832C16.7423 19.7923 16.5562 20.0637 16.5562 20.3664V21.6955C16.5562 22.5018 15.9253 23.1807 15.15 23.2087C14.7482 23.2231 14.3691 23.0782 14.0812 22.8004C13.7931 22.5225 13.6344 22.1488 13.6344 21.7483V20.3665C13.6344 20.064 13.4484 19.7927 13.1663 19.6834C11.1186 18.8909 9.74277 16.8833 9.74277 14.6877ZM9.54492 27.0361C9.54492 26.4523 9.64258 25.8804 9.83525 25.3355C10.0862 24.6245 10.5029 23.9646 11.0403 23.4271C11.4036 23.0639 11.8205 22.7575 12.272 22.5192C12.4082 23.0227 12.6777 23.4817 13.0643 23.8546C13.6148 24.3856 14.3318 24.6745 15.0939 24.6745C15.1301 24.6745 15.1665 24.6738 15.2029 24.6726C16.4801 24.6264 17.5609 23.7157 17.9057 22.5126C18.7978 22.979 19.5389 23.7033 20.0246 24.5954C19.7181 25.3614 19.5563 26.1862 19.5563 27.0363C19.5563 27.1285 19.5655 27.2184 19.5795 27.3067H9.81553C9.66631 27.3066 9.54492 27.1853 9.54492 27.0361ZM15.3301 28.7715L25.7954 28.7716V36.7886C22.8738 36.8844 20.0418 37.5515 17.4363 38.7368C16.1698 35.7637 15.4203 32.3563 15.3301 28.7715ZM17.34 41.8489C18.8603 44.5107 20.8166 46.694 23.0241 48.2329C19.284 47.5854 15.7962 45.9113 12.9453 43.3873C14.1156 42.3499 15.3868 41.458 16.736 40.723C16.9281 41.1047 17.1294 41.4802 17.34 41.8489ZM41.1752 42.374C39.8727 41.2062 38.4514 40.2087 36.94 39.3934C38.3343 36.1662 39.1031 32.5521 39.1911 28.7715H46.706C46.8162 28.7715 46.8874 28.8291 46.9201 28.8634C46.9514 28.8963 47.0031 28.9671 46.9978 29.0712C46.7493 34.0923 44.6875 38.7885 41.1752 42.374Z" fill="black"/>
</g>
<defs>
<clipPath id="clip0_1_5540">
<rect width="50" height="50" fill="white"/>
</clipPath>
</defs>
</svg>
