<svg width="50" height="50" viewBox="0 0 50 50" fill="none" xmlns="http://www.w3.org/2000/svg">
<g clip-path="url(#clip0_1_5371)">
<path d="M49.0254 22.123C49.0254 25.2432 48.3535 28.2061 47.1465 30.876C46.8906 31.4434 46.6094 31.998 46.3057 32.5381L45.7607 32.8115L22.2793 44.6182L17.002 39.7754L11.4404 34.6729L9.2998 32.709C9.10254 32.3652 8.91406 32.0166 8.73633 31.6611C8.73438 31.6582 8.73242 31.6543 8.73145 31.6514C7.29297 28.7852 6.48242 25.5479 6.48242 22.123C6.48242 10.7383 16.375 0.851562 27.7539 0.851562C39.502 0.851562 49.0254 10.376 49.0254 22.123Z" fill="#FCAD42"/>
<path d="M45.717 29.0039C43.215 26.502 39.8879 25.123 36.3488 25.123C31.2014 25.123 26.5393 28.2578 24.3771 32.7471C24.3889 32.585 24.3947 32.4209 24.3947 32.2568C24.3947 30.4893 23.7062 28.8271 22.4572 27.5771C21.2072 26.3271 19.5451 25.6387 17.7775 25.6387C16.01 25.6387 14.3479 26.3271 13.0979 27.5771L10.4125 30.2625C9.24365 27.6281 8.59375 24.7123 8.59375 21.6445C8.59375 12.125 15.5098 3.65332 24.4277 1.13281C14.5137 2.82227 6.48242 11.8643 6.48242 22.1221C6.48242 25.9756 7.50781 29.5908 9.2998 32.708L17.1974 39.8721C17.4386 39.4287 17.7315 39.0176 18.0665 38.6445L11.9503 31.832L14.6515 29.1309C15.5147 28.2676 16.6456 27.8359 17.7774 27.8359C18.9083 27.8359 20.0401 28.2676 20.9034 29.1309C21.7657 29.9941 22.1974 31.126 22.1974 32.2568C22.1974 33.3877 21.7657 34.5186 20.9034 35.3818L19.5255 37.4336C20.503 36.8398 21.6505 36.498 22.8771 36.498C23.7657 36.498 24.6114 36.6777 25.3819 37.002C26.0528 31.585 30.8907 27.3203 36.3487 27.3203C40.4649 27.3203 44.0558 29.5703 45.9562 32.9082L46.5011 32.6348C46.8048 32.0947 47.086 31.54 47.3419 30.9727C46.8713 30.2734 46.3273 29.6143 45.717 29.0039Z" fill="#F69500"/>
<path d="M36.6631 27.1328C31.2034 27.1328 26.3632 31.3999 25.6953 36.8193L28.8486 45.999C30.8486 47.999 33.6113 49.2363 36.6631 49.2363C42.5459 49.2363 47.7148 44.1125 47.7148 38.1846C47.7149 32.0811 42.7667 27.1328 36.6631 27.1328Z" fill="#8AE897"/>
<path d="M38.5996 27.2227L34.207 27.3027C34.9727 27.1279 35.7617 27.0352 36.5654 27.0352C37.2607 27.0352 37.9404 27.0996 38.5996 27.2227Z" fill="#54E072"/>
<path d="M42.1923 47.4793C40.7292 48.3718 39.0614 48.9322 37.3028 49.0373C34.2565 49.2192 31.425 48.1489 29.3093 46.2717L25.6143 37.2963C25.8923 32.8939 28.932 29.08 32.9646 27.6055C30.6816 29.0547 28.9223 31.3404 28.1919 34.1653C26.7192 39.86 30.3858 46.1477 36.1251 47.6313C38.1989 48.1679 40.2881 48.0773 42.1923 47.4793Z" fill="#54E072"/>
<path d="M34.207 27.3008C33.9736 27.3545 33.7412 27.415 33.5127 27.4844C33.6211 27.4229 33.7314 27.3643 33.8418 27.3076L34.207 27.3008Z" fill="#8AE897"/>
<path d="M12.167 31.5462L14.8677 28.8455C16.5939 27.1192 19.3929 27.1192 21.1191 28.8455C22.8454 30.5718 22.8454 33.3707 21.1191 35.0969L18.4185 37.7976L12.167 31.5462Z" fill="#B6E6FA"/>
<path d="M19.9346 36.2826L18.4189 37.7982L12.167 31.5462L14.8682 28.846C16.1348 27.5794 17.9785 27.2415 19.5518 27.8333C18.957 28.0472 18.3984 28.3919 17.9219 28.8685L15.2207 31.5687L19.9346 36.2826Z" fill="#8AD8F6"/>
<path d="M12.2195 31.5195L2.03787 37.2599C0.770873 38.0261 0.425756 39.7095 1.28894 40.9125C2.13406 42.0902 3.78542 42.3173 4.91589 41.4313L4.89665 41.4472C3.76667 42.4077 3.69704 44.1282 4.74578 45.1769C5.79275 46.2238 7.50984 46.1564 8.47156 45.0306L8.56658 44.9171L8.56804 44.9186C7.60886 46.0497 7.81941 47.7587 9.02439 48.6233C10.2274 49.4865 11.9108 49.1414 12.677 47.8744L18.4174 37.6928L12.2195 31.5195Z" fill="#E3EDF6"/>
<path d="M12.5459 47.5361L12.3575 47.8711C11.878 48.665 11.0391 49.0967 10.1827 49.0967C9.67192 49.0967 9.15532 48.9424 8.70512 48.6201C7.50004 47.7559 7.28911 46.0469 8.24907 44.916L8.24711 44.9141L8.15239 45.0273C7.6475 45.6182 6.93559 45.917 6.22075 45.917C5.57329 45.917 4.92485 45.6719 4.4268 45.1738C3.37797 44.125 3.44731 42.4053 4.57719 41.4443L4.59672 41.4287C4.13286 41.792 3.5811 41.9678 3.03422 41.9678C2.24711 41.9678 1.46782 41.6035 0.969769 40.9092C0.106488 39.707 0.451215 38.0234 1.71879 37.2568L2.61821 36.75C2.19145 37.5684 2.22563 38.5947 2.80668 39.4043C3.30473 40.0986 4.08305 40.4629 4.87016 40.4629C5.41801 40.4629 5.96977 40.2861 6.43364 39.9229L6.41411 39.9385C5.28422 40.8994 5.21489 42.6201 6.26274 43.668C6.76078 44.166 7.4102 44.4121 8.05864 44.4121C8.7725 44.4121 9.48442 44.1133 9.9893 43.5225L10.084 43.4092L10.085 43.4102C9.12602 44.541 9.33696 46.25 10.542 47.1152C10.9913 47.4375 11.5079 47.5918 12.0186 47.5918C12.1963 47.5918 12.3731 47.5732 12.5459 47.5361Z" fill="#C5D9EC"/>
<path d="M23.0943 49.1477C26.6667 49.1477 29.5627 46.2517 29.5627 42.6793C29.5627 39.1069 26.6667 36.2109 23.0943 36.2109C19.522 36.2109 16.626 39.1069 16.626 42.6793C16.626 46.2517 19.522 49.1477 23.0943 49.1477Z" fill="#FFEBD3"/>
<path d="M27.6133 47.3076C26.4473 48.4473 24.8525 49.1484 23.0937 49.1484C19.5215 49.1484 16.625 46.2529 16.625 42.6807C16.625 40.0986 18.1387 37.8691 20.3262 36.832C19.123 38.0068 18.377 39.6465 18.377 41.46C18.377 45.0322 21.2734 47.9277 24.8457 47.9277C25.8359 47.9277 26.7744 47.7051 27.6133 47.3076Z" fill="#FFD7A5"/>
<path d="M16.3115 30.5275L17.3472 29.4918L18.3829 30.5274L17.3472 31.5631L16.3115 30.5275Z" fill="white"/>
<path d="M30.7773 30.9102H32.2422V32.375H30.7773V30.9102Z" fill="white"/>
<path d="M19.7676 4.56641H21.2324V6.03125H19.7676V4.56641Z" fill="white"/>
<path d="M22.6973 4.56641H24.1621V6.03125H22.6973V4.56641Z" fill="white"/>
<path d="M50 22.1154C50 16.2218 47.7049 10.6808 43.5374 6.51328C39.3699 2.3458 33.829 0.0507812 27.9353 0.0507812C23.3366 0.0507812 18.9293 1.45166 15.19 4.10205C11.5332 6.69385 8.78193 10.2768 7.23398 14.4629L8.61161 14.9725C8.99111 13.9463 9.44892 12.9634 9.97587 12.0288C15.3527 11.4676 20.3245 15.1644 20.6399 20.6424H7.39159C7.49374 19.1986 7.74599 17.7738 8.1455 16.3903L6.73417 15.9829C6.16113 17.9676 5.8706 20.0309 5.8706 22.1154C5.8706 25.8259 6.80585 29.48 8.57831 32.7129L1.5912 36.6522C-1.24385 38.3563 -0.0464916 42.7278 3.25966 42.7504C2.72206 45.0062 4.91122 47.1837 7.16269 46.6351C7.18993 49.9286 11.5367 51.1241 13.249 48.3158L15.9014 43.6116C16.3382 47.1781 19.3836 49.9499 23.0663 49.9499C25.4255 49.9499 27.5238 48.8125 28.8424 47.0573C30.9896 48.9214 33.7044 49.9389 36.5753 49.9389C39.0635 49.9389 41.4432 49.1743 43.457 47.7278L42.6002 46.5348C41.0241 47.6668 39.1914 48.3199 37.2636 48.4459C37.4785 43.2297 41.6833 39.0263 46.8999 38.8133C46.789 40.4813 46.278 42.0955 45.4051 43.5186L46.6571 44.2866C47.7922 42.4364 48.3922 40.3047 48.3922 38.1219C48.3922 36.254 47.9558 34.4864 47.1809 32.9145C49.0251 29.6348 50 25.9005 50 22.1154ZM48.4778 20.6423H39.674C39.8948 16.8195 42.4486 13.5488 46.0973 12.4118C47.4301 14.8963 48.2678 17.6838 48.4778 20.6423ZM32.3455 1.99658C37.7931 3.18975 42.4404 6.54463 45.3392 11.1143C41.2506 12.5305 38.4192 16.2844 38.2025 20.6423H32.3455V1.99658ZM32.3455 22.1112H38.2297C38.3752 23.7557 38.9032 25.3424 39.7571 26.7411C38.7443 26.4575 37.6771 26.3054 36.5751 26.3054C35.0908 26.3054 33.6635 26.5819 32.3455 27.0882V22.1112ZM22.1117 20.6423C21.8197 14.8113 16.7636 10.2702 10.8888 10.5599C14.6686 5.01201 21.0378 1.51963 27.9353 1.51963C29.6438 1.51963 30.8767 1.76445 30.8767 1.76445V20.6423H27.9353V22.1112H30.8767V27.7719C27.9038 29.4118 25.6933 32.299 24.9933 35.7719C23.9214 35.4671 22.6859 35.4251 21.5875 35.6615C24.1207 33.2716 23.3606 28.7743 20.1989 27.3344C21.2852 25.7856 21.9343 23.988 22.0892 22.1113H26.4466V20.6424L22.1117 20.6423ZM20.5671 34.6044L18.3783 36.7933L13.1482 31.5632L15.3371 29.3743C16.0356 28.6758 16.9643 28.2911 17.952 28.2911C18.9399 28.2911 19.8685 28.6759 20.5672 29.3744C21.2657 30.073 21.6504 31.0016 21.6504 31.9895C21.6504 32.9772 21.2657 33.906 20.5671 34.6044ZM7.33954 22.1154C7.33954 22.1141 7.33954 22.1126 7.33954 22.1112H20.6141C20.4604 23.8479 19.7668 25.4829 18.7291 26.8802C17.1141 26.6326 15.4492 27.173 14.2983 28.3356L11.6567 30.9773L9.85976 31.9905C8.21122 28.9773 7.33954 25.5733 7.33954 22.1154ZM3.04794 41.2685C1.36884 41.0871 0.870696 38.7856 2.32314 37.9259L11.9857 32.4782L13.1741 33.6666L4.41288 40.8735C4.02695 41.1886 3.54433 41.3291 3.04794 41.2685ZM7.84491 44.6072C6.07656 46.4939 3.40527 43.8261 5.28827 42.0557C5.32294 42.0286 14.2177 34.7101 14.2177 34.7101L15.2592 35.7516L7.84491 44.6072ZM11.9866 47.5647C10.5364 49.7044 7.48154 47.4911 9.06025 45.4469L9.05868 45.4456L16.3018 36.7944L17.4253 37.9179L11.9866 47.5647ZM23.0662 48.4812C19.8946 48.4812 17.3143 45.9009 17.3143 42.7294C17.3143 39.5578 19.8946 36.9775 23.0662 36.9775C26.2378 36.9775 28.8181 39.5578 28.8181 42.7294C28.8181 45.9009 26.2379 48.4812 23.0662 48.4812ZM27.8838 37.3563C27.4317 36.9506 26.9279 36.602 26.3844 36.3194C27.1994 31.6728 31.0895 28.1648 35.779 27.8053C35.6536 32.435 32.3937 36.3726 27.8838 37.3563ZM35.7937 48.4412C33.4852 48.2699 31.3277 47.3411 29.6109 45.7752C30.0437 44.849 30.287 43.8173 30.287 42.7294C30.287 41.1915 29.8022 39.7656 28.9796 38.5932C33.7558 37.1964 37.1352 32.8521 37.2509 27.7971C42.3852 28.1297 46.5112 32.2231 46.8938 37.3439C40.8715 37.5612 36.0127 42.4192 35.7937 48.4412ZM46.3075 31.4282C45.3267 30.0067 44.0432 28.8098 42.5504 27.9313L42.5785 27.9012C40.9497 26.3815 39.9305 24.3104 39.7046 22.1112H48.531V22.1154C48.531 25.3576 47.7632 28.5581 46.3075 31.4282Z" fill="black"/>
<path d="M43.6641 45.6603L44.6699 46.7307C45.0514 46.3723 45.4109 45.9858 45.7388 45.5825L44.5986 44.6562C44.3122 45.0089 43.9977 45.3467 43.6641 45.6603Z" fill="black"/>
<path d="M20.6602 38.9531H22.1291V40.4221H20.6602V38.9531Z" fill="black"/>
<path d="M19.1914 41.8906H20.6604V43.3596H19.1914V41.8906Z" fill="black"/>
<path d="M22.126 41.8906H23.5949V43.3596H22.126V41.8906Z" fill="black"/>
</g>
<defs>
<clipPath id="clip0_1_5371">
<rect width="50" height="50" fill="white"/>
</clipPath>
</defs>
</svg>
