<svg width="50" height="50" viewBox="0 0 50 50" fill="none" xmlns="http://www.w3.org/2000/svg">
<g clip-path="url(#clip0_1_5467)">
<path d="M41.1671 24.9992C41.1671 33.9283 33.9288 41.1663 25.0001 41.1663C16.0714 41.1663 8.83301 33.9283 8.83301 24.9992C8.83301 16.0705 16.0714 8.83215 25.0001 8.83215C33.9288 8.83215 41.1671 16.0705 41.1671 24.9992Z" fill="#ECECED"/>
<path d="M38.5423 33.8297C17.8265 36.7026 12.465 19.2889 18.0558 10.3945C12.6023 12.9927 8.83301 18.5546 8.83301 24.9976C8.83301 33.9266 16.0714 41.1646 25.0001 41.1646C30.6695 41.1646 35.6561 38.246 38.5423 33.8297Z" fill="#DADADB"/>
<path d="M35.8497 24.9982C35.8497 30.9907 30.9921 35.8483 24.9996 35.8483C19.007 35.8483 14.1494 30.9907 14.1494 24.9982C14.1494 19.0061 19.007 14.1484 24.9996 14.1484C30.9921 14.1484 35.8497 19.0061 35.8497 24.9982Z" fill="#7FD7C3"/>
<path d="M31.1019 33.972C21.1238 32.7784 16.4054 25.722 16.0106 18.9219C14.8357 20.6557 14.1494 22.7476 14.1494 24.9998C14.1494 30.9923 19.007 35.85 24.9996 35.85C27.2624 35.85 29.3632 35.1568 31.1019 33.972Z" fill="#52B9C7"/>
<path d="M20.6992 25.2254C20.6992 24.1195 19.5735 23.2227 18.1846 23.2227C16.796 23.2227 15.6699 24.1195 15.6699 25.2254C15.6699 26.3313 16.796 27.2277 18.1846 27.2277C19.5735 27.2277 20.6992 26.3313 20.6992 25.2254Z" fill="white"/>
<path d="M34.3301 25.2254C34.3301 24.1195 33.204 23.2227 31.8154 23.2227C30.4265 23.2227 29.3008 24.1195 29.3008 25.2254C29.3008 26.3313 30.4265 27.2277 31.8154 27.2277C33.204 27.2277 34.3301 26.3313 34.3301 25.2254Z" fill="white"/>
<path d="M4.81852 22.8988L3.4521 42.0162C3.28158 44.4042 5.17253 46.4351 7.56663 46.4351C9.96073 46.4351 11.8521 44.4042 11.6812 42.0162L10.3147 22.8984H4.81852V22.8988Z" fill="#809FDD"/>
<path d="M7.56663 46.4349C5.17291 46.4349 3.28158 44.404 3.4521 42.016L4.13302 32.4922C5.35258 35.1396 8.83616 37.5566 11.3737 37.7118L11.6812 42.016C11.8521 44.404 9.96073 46.4349 7.56663 46.4349Z" fill="#5E82C9"/>
<path d="M7.56641 43.0392C7.16205 43.0392 6.83398 42.7115 6.83398 42.3068V38.7637C6.83398 38.3589 7.16205 38.0312 7.56641 38.0312C7.97076 38.0312 8.29883 38.3589 8.29883 38.7637V42.3068C8.29883 42.7115 7.97076 43.0392 7.56641 43.0392Z" fill="#809FDD"/>
<path d="M6.12831 5.00064C6.12831 4.18353 6.81038 3.5255 7.63588 3.56441C8.4095 3.60065 9.00459 4.26707 9.00459 5.04146V10.9901C9.00459 11.5184 9.43298 11.9468 9.96132 11.9468H10.5679C11.0962 11.9468 11.5246 11.5184 11.5246 10.9901V5.04146C11.5246 4.26707 12.1197 3.60065 12.8929 3.56441C13.7188 3.5255 14.4009 4.18353 14.4009 5.00064V19.0765C14.4009 22.1168 11.9358 24.5819 8.89549 24.5819H6.23741C3.1971 24.5819 0.732422 22.1168 0.732422 19.0765V5.00064C0.732422 4.20642 1.37634 3.5625 2.17056 3.5625C2.96478 3.5625 3.6087 4.20642 3.6087 5.00064V10.9901C3.6087 11.5184 4.03709 11.9468 4.56543 11.9468H5.17197C5.69992 11.9468 6.12831 11.5184 6.12831 10.9901V5.00064Z" fill="#91D1E0"/>
<path d="M38.9679 22.5117L37.6015 41.6291C37.431 44.0171 39.3219 46.0484 41.716 46.0484C44.1101 46.0484 46.0015 44.0171 45.831 41.6291L44.4642 22.5117H38.9679Z" fill="#809FDD"/>
<path d="M41.716 46.0483C39.3219 46.0483 37.431 44.017 37.6015 41.629L38.2821 32.1052C39.502 34.7526 42.9856 37.1696 45.5231 37.3249L45.8306 41.629C46.0015 44.017 44.1101 46.0483 41.716 46.0483Z" fill="#5E82C9"/>
<path d="M41.7168 42.6525C41.3124 42.6525 40.9844 42.3248 40.9844 41.92V38.377C40.9844 37.9726 41.3124 37.6445 41.7168 37.6445C42.1212 37.6445 42.4492 37.9726 42.4492 38.377V41.92C42.4492 42.3248 42.1212 42.6525 41.7168 42.6525Z" fill="#809FDD"/>
<path d="M41.7162 23.4084C45.8868 23.4084 49.2674 20.4592 49.2674 16.2886C49.2674 9.07465 45.8868 3.94922 41.7162 3.94922C37.546 3.94922 34.165 9.07426 34.165 16.2886C34.165 20.4592 37.546 23.4084 41.7162 23.4084Z" fill="#FDE77C"/>
<path d="M41.7167 20.2587C39.5301 20.2587 37.3164 18.8953 37.3164 16.2899C37.3164 13.4289 37.9313 10.8707 39.0483 9.08699C39.5121 8.34541 40.4761 7.10144 41.7167 7.10144C42.9572 7.10144 43.9212 8.34541 44.385 9.08699C45.5016 10.8707 46.1169 13.4289 46.1169 16.2899C46.1169 18.8953 43.9032 20.2587 41.7167 20.2587Z" fill="#FAB25F"/>
<path d="M8.89549 24.5819C9.87206 24.5819 10.7883 24.3263 11.5833 23.8807C7.52716 21.4218 5.76057 16.5058 4.99763 11.9464H4.56543C4.03709 11.9464 3.6087 11.5181 3.6087 10.9901V5.00064C3.6087 4.20642 2.96478 3.5625 2.17056 3.5625C1.37634 3.5625 0.732422 4.20642 0.732422 5.00064V19.0765C0.732422 22.1168 3.1971 24.5819 6.23741 24.5819H8.89549Z" fill="#56B9D1"/>
<path d="M36.5687 7.12109C35.0901 9.31683 34.165 12.5177 34.165 16.2905C34.165 20.4611 37.546 23.4102 41.7162 23.4102C43.8216 23.4102 45.7247 22.658 47.0942 21.377C38.605 21.261 35.85 14.3553 36.5687 7.12109Z" fill="#FAB25F"/>
<path d="M29.1527 23.7778C29.557 23.7778 29.8851 23.4497 29.8851 23.0453C29.8851 22.789 30.0934 22.5807 30.3493 22.5807C30.6057 22.5807 30.814 22.789 30.814 23.0453C30.814 23.4497 31.1417 23.7778 31.5464 23.7778C31.9508 23.7778 32.2788 23.4497 32.2788 23.0453C32.2788 21.9814 31.4133 21.1159 30.3493 21.1159C29.2858 21.1159 28.4203 21.9814 28.4203 23.0453C28.4203 23.4497 28.7479 23.7778 29.1527 23.7778ZM25 25.7549C25.6981 25.7549 26.3622 25.4524 26.8215 24.9252C27.0874 24.6204 27.0557 24.1577 26.7509 23.8918C26.4458 23.6263 25.9834 23.658 25.7175 23.9628C25.536 24.1707 25.2747 24.2901 25 24.2901C24.7253 24.2901 24.4637 24.1707 24.2825 23.9628C24.0166 23.658 23.5538 23.6263 23.2491 23.8918C22.9443 24.1577 22.9122 24.6204 23.1781 24.9252C23.6378 25.4524 24.3019 25.7549 25 25.7549ZM41.7164 3.21808C38.2542 3.21808 35.416 6.23932 34.148 10.7887C31.4213 9.02634 28.281 8.09975 25 8.09975C21.4447 8.09975 17.9955 9.21974 15.1333 11.2793V5.00259C15.1333 4.41208 14.888 3.83987 14.4608 3.43208C14.0274 3.01857 13.459 2.80724 12.8586 2.8347C11.6997 2.88925 10.7922 3.85933 10.7922 5.04341V10.9921C10.7922 11.1156 10.6915 11.216 10.5679 11.216H9.96132C9.83772 11.216 9.73701 11.1156 9.73701 10.9921V5.04341C9.73701 3.85933 8.82912 2.88925 7.67059 2.8347C7.07016 2.80609 6.50177 3.01857 6.06842 3.43208C5.64117 3.83987 5.39589 4.41208 5.39589 5.00259V10.9921C5.39589 11.1156 5.29518 11.216 5.17159 11.216H4.56505C4.44145 11.216 4.34113 11.1156 4.34113 10.9921V5.00259C4.34113 3.80592 3.36723 2.83203 2.17056 2.83203C0.973892 2.83203 0 3.80592 0 5.00259V19.0784C0 21.7075 1.63612 23.9605 3.94249 24.8768L3.0426 37.4657C3.01399 37.8693 3.31764 38.2195 3.72124 38.2484C3.73878 38.2496 3.75671 38.2504 3.77388 38.2504C4.15497 38.2504 4.47617 37.9559 4.50363 37.5702L5.38406 25.2563C5.6633 25.2945 5.94788 25.3162 6.23741 25.3162H8.89549C9.18503 25.3162 9.4696 25.2945 9.74884 25.2563L10.9505 42.0673C11.0184 43.0172 10.6987 43.924 10.0494 44.6209C9.40056 45.3178 8.51898 45.7016 7.56645 45.7016C6.6143 45.7016 5.73235 45.3178 5.08347 44.6209C4.43459 43.924 4.11453 43.0168 4.18243 42.0673L4.2572 41.0206C4.28619 40.617 3.98254 40.2664 3.57895 40.2378C3.17574 40.2061 2.82516 40.5125 2.79617 40.9161L2.72141 41.9628C2.62566 43.3029 3.09563 44.6358 4.01115 45.6192C4.92706 46.6022 6.22292 47.1664 7.56645 47.1664C8.91037 47.1664 10.2062 46.6026 11.1217 45.6188C12.0373 44.6358 12.5072 43.3029 12.4115 41.9628L11.9682 35.7571C13.2313 37.2852 14.7591 38.5891 16.4772 39.595C19.0529 41.1022 21.9997 41.8987 25 41.8987C27.7206 41.8987 30.4249 41.2365 32.8201 39.9837C34.4532 39.1296 35.9455 38.0005 37.2223 36.665L36.8713 41.5768C36.7756 42.9169 37.2456 44.2497 38.1615 45.2332C39.077 46.2166 40.3728 46.7808 41.7164 46.7808C43.0603 46.7808 44.3558 46.2166 45.2717 45.2332C46.1872 44.2497 46.6576 42.9169 46.5614 41.5768L45.2644 23.4283C46.1086 23.0656 46.8819 22.5697 47.5521 21.9524C49.1306 20.4987 50 18.4875 50 16.2899C50 8.83789 46.439 3.21808 41.7164 3.21808ZM15.1333 13.1306C17.8997 10.8288 21.3902 9.56459 25 9.56459C28.1742 9.56459 31.2042 10.5145 33.7929 12.3142C33.5583 13.5582 33.4328 14.8918 33.4328 16.2899C33.4328 16.5676 33.4469 16.8419 33.4743 17.1131C31.3583 14.8407 28.3424 13.4171 25 13.4171C20.8332 13.4171 17.1741 15.6288 15.1333 18.9396V13.1306ZM25 14.8819C30.579 14.8819 35.1177 19.4206 35.1177 24.9992C35.1177 30.5782 30.579 35.117 25 35.117C19.421 35.117 14.8823 30.5782 14.8823 24.9992C14.8823 19.4206 19.421 14.8819 25 14.8819ZM8.89549 23.8514H6.23741C3.60603 23.8514 1.46484 21.7102 1.46484 19.0784V5.00259C1.46484 4.61349 1.78146 4.29688 2.17056 4.29688C2.55966 4.29688 2.87628 4.61349 2.87628 5.00259V10.9921C2.87628 11.9232 3.63388 12.6808 4.56543 12.6808H5.17197C6.10313 12.6808 6.86073 11.9232 6.86073 10.9921V5.00259C6.86073 4.80804 6.93855 4.62646 7.0797 4.49181C7.22046 4.35753 7.40547 4.28734 7.60155 4.29802C7.97157 4.31519 8.27217 4.64973 8.27217 5.04341V10.9921C8.27217 11.9232 9.03015 12.6812 9.96132 12.6812H10.5679C11.4994 12.6812 12.257 11.9232 12.257 10.9921V5.04341C12.257 4.64973 12.5576 4.31519 12.9276 4.29764C13.1229 4.28772 13.3087 4.35753 13.4495 4.49181C13.5906 4.62646 13.6684 4.80766 13.6684 5.00259V19.0784C13.6684 21.7102 11.5273 23.8514 8.89549 23.8514ZM37.3993 34.1881C34.4929 38.102 29.874 40.4339 25 40.4339C22.2595 40.4339 19.5686 39.7068 17.2173 38.3305C14.9822 37.0228 13.102 35.1616 11.7668 32.943L11.1904 24.8768C12.1037 24.514 12.9112 23.9426 13.554 23.2204C13.4644 23.8003 13.4174 24.3942 13.4174 24.9992C13.4174 31.3858 18.6134 36.5818 25 36.5818C31.3866 36.5818 36.5826 31.3862 36.5826 24.9992C36.5826 24.0616 36.4697 23.1499 36.2583 22.2763C36.8362 22.7448 37.4779 23.1319 38.1687 23.4283L37.3993 34.1881ZM44.1994 44.2348C43.5505 44.9318 42.6689 45.3156 41.7164 45.3156C40.7642 45.3156 39.8823 44.9318 39.2334 44.2348C38.5845 43.5379 38.2645 42.6311 38.3324 41.6813L39.6034 23.8987C40.2824 24.0585 40.9908 24.1421 41.7164 24.1421C42.4419 24.1421 43.1503 24.0585 43.8293 23.8987L45.1004 41.6813C45.1683 42.6311 44.8483 43.5379 44.1994 44.2348ZM44.3027 22.2336C44.2688 22.2427 44.2356 22.2549 44.2036 22.2691C43.4399 22.533 42.6033 22.6772 41.7164 22.6772C40.8295 22.6772 39.9929 22.5327 39.2288 22.2687C39.1972 22.2549 39.164 22.2427 39.13 22.2336C36.6005 21.3173 34.8976 19.0643 34.8976 16.2899C34.8976 12.9807 35.6434 9.96704 36.998 7.80334C38.2576 5.79109 39.9334 4.68292 41.7164 4.68292C43.4998 4.68292 45.1756 5.79109 46.4352 7.80334C47.7894 9.96704 48.5352 12.981 48.5352 16.2899C48.5352 19.0643 46.8327 21.3173 44.3027 22.2336ZM18.4536 23.7778C18.858 23.7778 19.186 23.4497 19.186 23.0453C19.186 22.789 19.3943 22.5807 19.6507 22.5807C19.9066 22.5807 20.1149 22.789 20.1149 23.0453C20.1149 23.4497 20.443 23.7778 20.8473 23.7778C21.2517 23.7778 21.5797 23.4497 21.5797 23.0453C21.5797 21.9814 20.7142 21.1159 19.6507 21.1159C18.5867 21.1159 17.7212 21.9814 17.7212 23.0453C17.7212 23.4497 18.0492 23.7778 18.4536 23.7778ZM46.1029 11.1145C45.9793 10.7292 45.5669 10.5171 45.1817 10.6407C44.7964 10.7643 44.5843 11.1763 44.7079 11.5616C45.1504 12.9421 45.3838 14.5771 45.3838 16.2899C45.3838 17.8486 44.2364 19.5263 41.7164 19.5263C39.1964 19.5263 38.0486 17.8486 38.0486 16.2899C38.0486 13.5647 38.6238 11.1443 39.6687 9.47533C39.9776 8.98209 40.7955 7.83386 41.7164 7.83386C42.3538 7.83386 42.9424 8.39081 43.3235 8.85773C43.5795 9.17091 44.0407 9.21783 44.3539 8.96187C44.6674 8.70628 44.714 8.24471 44.4584 7.93114C43.6241 6.90918 42.6758 6.36902 41.7164 6.36902C40.1226 6.36902 38.9713 7.82814 38.427 8.69827C37.2383 10.5968 36.5837 13.2931 36.5837 16.2899C36.5837 17.7284 37.1552 18.9495 38.2366 19.8212C39.172 20.5757 40.4076 20.9908 41.7164 20.9908C43.0244 20.9908 44.2604 20.5757 45.1958 19.8212C46.2772 18.9495 46.8487 17.7284 46.8487 16.2899C46.8491 14.4272 46.5908 12.6373 46.1029 11.1145Z" fill="black"/>
</g>
<defs>
<clipPath id="clip0_1_5467">
<rect width="50" height="50" fill="white"/>
</clipPath>
</defs>
</svg>
