<svg width="50" height="50" viewBox="0 0 50 50" fill="none" xmlns="http://www.w3.org/2000/svg">
<path d="M4.8633 18.334L4.93498 18.1799L4.05979 16.664C3.57951 15.8321 2.52356 15.497 1.67502 15.9475C0.784299 16.4205 0.470139 17.533 0.970041 18.3988L1.86653 19.9515L2.11584 19.9204L4.8633 18.334Z" fill="#FFDFCF"/>
<path d="M48.3254 15.9474C47.477 15.4969 46.421 15.8319 45.9406 16.6639L45.0654 18.1798L45.142 18.3368L47.8895 19.9232L48.1338 19.9515L49.0303 18.3987C49.5303 17.5328 49.2161 16.4203 48.3254 15.9474Z" fill="#C96E59"/>
<path d="M18.0292 25.8897L18.058 26.1943L23.4928 16.7811C23.652 16.4568 23.9002 16.2007 24.2133 16.0344C24.4505 15.9085 24.707 15.8446 24.976 15.8446C25.5867 15.8446 26.1583 16.1775 26.4677 16.7135L31.9414 26.1942L31.9702 25.8896C32.0613 24.9282 32.4595 24.0696 33.0628 23.4055V15.3143C33.0628 13.4343 31.5388 11.9102 29.6587 11.9102H20.3406C18.4606 11.9102 16.9365 13.4342 16.9365 15.3143V23.4055C17.5399 24.0697 17.9381 24.9283 18.0292 25.8897Z" fill="#AF66DA"/>
<path d="M30.3291 11.9766V23.4006L31.9421 26.1943L31.9709 25.8897C32.062 24.9283 32.4602 24.0697 33.0635 23.4056V15.3144C33.0635 13.6637 31.8884 12.2877 30.3291 11.9766Z" fill="#9857BD"/>
<path d="M20.9648 27.8557H29.0346L24.9997 20.8672L20.9648 27.8557Z" fill="#AF66DA"/>
<path d="M22.5436 25.1211L20.9648 27.8555H29.0346L27.4559 25.1211H22.5436Z" fill="#9857BD"/>
<path d="M24.802 20.5226L23.5471 18.349C23.3179 17.9521 23.2613 17.4907 23.3879 17.05C23.4066 16.9849 23.4301 16.9221 23.4559 16.8606L23.4081 16.7306L18.0529 26.006C18.0595 26.1027 18.064 26.1999 18.064 26.2983C18.064 28.6752 16.1302 30.609 13.7532 30.609C11.3763 30.609 9.44248 28.6752 9.44248 26.2983C9.44248 26.1999 9.44697 26.1027 9.45352 26.0059L4.93467 18.1789L1.86621 19.9505L8.11152 30.7676C8.32578 31.1387 8.43857 31.5598 8.43857 31.9883V40.0746C8.43857 40.614 8.87578 41.0512 9.41514 41.0512H17.905C17.8624 40.736 17.8384 40.415 17.8384 40.0883C17.8384 38.6045 18.2922 37.2247 19.068 36.0802V31.9883C19.068 31.5598 19.1808 31.1387 19.395 30.7676L24.9996 21.0602L24.802 20.5226Z" fill="#FE4FB7"/>
<path d="M24.802 20.5221L24.0812 19.2736L17.3871 30.7671C17.1729 31.1382 17.0601 31.5593 17.0601 31.9878V38.0234C17.0601 38.5627 16.6229 38.9999 16.0835 38.9999H8.43848V40.0741C8.43848 40.6135 8.87568 41.0507 9.41504 41.0507H17.9049C17.8623 40.7355 17.8383 40.4145 17.8383 40.0878C17.8383 38.604 18.2921 37.2242 19.0679 36.0797V31.9878C19.0679 31.5593 19.1807 31.1382 19.3949 30.7671L24.9996 21.0597L24.802 20.5221Z" fill="#FE2AA8"/>
<path d="M27.2054 18.4206L27.4272 18.1798L26.552 16.6639C26.0717 15.8319 25.0157 15.4969 24.1672 15.9474C23.2765 16.4203 22.9623 17.5328 23.4622 18.3986L24.3587 19.9514L24.6432 19.8999L27.2054 18.4206Z" fill="#C96E59"/>
<path d="M13.7528 30.6933C16.1793 30.6933 18.1463 28.7263 18.1463 26.2998C18.1463 23.8734 16.1793 21.9064 13.7528 21.9064C11.3264 21.9064 9.35938 23.8734 9.35938 26.2998C9.35938 28.7263 11.3264 30.6933 13.7528 30.6933Z" fill="#FFDFCF"/>
<path d="M14.2262 21.9298C14.9611 22.7152 15.4118 23.7698 15.4118 24.9303C15.4118 27.3568 13.4448 29.3238 11.0184 29.3238C10.8583 29.3238 10.7005 29.3147 10.5449 29.298C11.3467 30.1547 12.4868 30.6909 13.7527 30.6909C16.1792 30.6909 18.1462 28.7239 18.1462 26.2975C18.1462 24.0311 16.4299 22.166 14.2262 21.9298Z" fill="#FFCEBF"/>
<path d="M46.9794 18.398L46.5956 19.0627L48.1337 19.9507L49.0302 18.398C49.5301 17.5321 49.2159 16.4196 48.3252 15.9467C47.7209 15.6259 47.0123 15.7051 46.4805 16.077C47.2098 16.602 47.4383 17.6032 46.9794 18.398Z" fill="#BB5D4C"/>
<path d="M45.065 18.1799L40.5461 26.0069C40.5526 26.1035 40.5571 26.2008 40.5571 26.2991C40.5571 28.6761 38.6233 30.6099 36.2464 30.6099C33.8694 30.6099 31.9356 28.6761 31.9356 26.2991C31.9356 26.2008 31.9401 26.1035 31.9467 26.0068L27.4278 18.1798L24.3594 19.9514L30.6047 30.7685C30.8189 31.1396 30.9317 31.5607 30.9317 31.9892V36.0811C31.7076 37.2256 32.1613 38.6054 32.1613 40.0892C32.1613 40.4158 32.1373 40.7368 32.0947 41.0521H40.5845C41.1238 41.0521 41.561 40.6149 41.561 40.0755V31.9892C41.561 31.5607 41.6738 31.1396 41.8881 30.7685L48.1334 19.9514L45.065 18.1799Z" fill="#05E39C"/>
<path d="M46.5957 19.0627L39.8377 30.7679C39.6234 31.139 39.5106 31.5601 39.5106 31.9886V38.0242C39.5106 38.5635 39.0734 39.0007 38.5341 39.0007H32.0791C32.1334 39.3555 32.1616 39.7189 32.1616 40.0886C32.1616 40.4153 32.1376 40.7363 32.095 41.0515H40.5848C41.1241 41.0515 41.5613 40.6143 41.5613 40.075V31.9886C41.5613 31.5601 41.6741 31.139 41.8884 30.7679L48.1337 19.9508L46.5957 19.0627Z" fill="#0ED290"/>
<path d="M36.246 30.6933C38.6724 30.6933 40.6395 28.7263 40.6395 26.2998C40.6395 23.8734 38.6724 21.9064 36.246 21.9064C33.8196 21.9064 31.8525 23.8734 31.8525 26.2998C31.8525 28.7263 33.8196 30.6933 36.246 30.6933Z" fill="#C96E59"/>
<path d="M36.7204 21.9298C37.4554 22.7152 37.9061 23.7698 37.9061 24.9303C37.9061 27.3568 35.9391 29.3238 33.5126 29.3238C33.3525 29.3238 33.1947 29.3147 33.0391 29.298C33.8408 30.1547 34.981 30.6909 36.247 30.6909C38.6734 30.6909 40.6404 28.7239 40.6404 26.2975C40.6404 24.0311 38.9241 22.166 36.7204 21.9298Z" fill="#BB5D4C"/>
<path d="M25.0002 47.35C29.0092 47.35 32.2592 44.1 32.2592 40.091C32.2592 36.082 29.0092 32.832 25.0002 32.832C20.9912 32.832 17.7412 36.082 17.7412 40.091C17.7412 44.1 20.9912 47.35 25.0002 47.35Z" fill="#FFE177"/>
<path d="M26.8006 33.0586C28.4608 34.3889 29.525 36.4321 29.525 38.7251C29.525 42.7342 26.275 45.9841 22.266 45.9841C21.6446 45.9841 21.0415 45.9057 20.4658 45.7588C21.7084 46.7544 23.2843 47.3513 25.0004 47.3513C29.0094 47.3513 32.2594 44.1013 32.2594 40.0923C32.2594 36.7047 29.9388 33.8594 26.8006 33.0586Z" fill="#FFD15B"/>
<path d="M24.9997 11.9096C27.556 11.9096 29.6283 9.83727 29.6283 7.28096C29.6283 4.72465 27.556 2.65234 24.9997 2.65234C22.4434 2.65234 20.3711 4.72465 20.3711 7.28096C20.3711 9.83727 22.4434 11.9096 24.9997 11.9096Z" fill="#FFDFCF"/>
<path d="M25.5859 2.69141C26.3951 3.5249 26.8942 4.66113 26.8942 5.91455C26.8942 8.4708 24.822 10.5432 22.2656 10.5432C22.067 10.5432 21.8718 10.5292 21.6797 10.505C22.5208 11.3713 23.6972 11.9104 25 11.9104C27.5563 11.9104 29.6286 9.83809 29.6286 7.28174C29.6286 4.92412 27.8653 2.97959 25.5859 2.69141Z" fill="#FFCEBF"/>
<path d="M22.7695 38.9947C23.174 38.9947 23.502 38.6668 23.502 38.2623V37.5762C23.502 37.1717 23.174 36.8438 22.7695 36.8438C22.365 36.8438 22.0371 37.1717 22.0371 37.5762V38.2623C22.0371 38.6668 22.365 38.9947 22.7695 38.9947Z" fill="black"/>
<path d="M27.2305 36.8438C26.8259 36.8438 26.498 37.1717 26.498 37.5762V38.2623C26.498 38.6668 26.8259 38.9947 27.2305 38.9947C27.6351 38.9947 27.9629 38.6668 27.9629 38.2623V37.5762C27.9629 37.1717 27.635 36.8438 27.2305 36.8438Z" fill="black"/>
<path d="M27.1445 40.5114C26.7423 40.4721 26.3837 40.7665 26.3443 41.1691C26.2764 41.8631 25.6985 42.3864 25 42.3864C24.3016 42.3864 23.7236 41.8631 23.6558 41.1691C23.6163 40.7664 23.2579 40.4715 22.8555 40.5114C22.4528 40.5508 22.1585 40.9091 22.1979 41.3117C22.3396 42.7595 23.5443 43.8513 25 43.8513C26.4558 43.8513 27.6605 42.7595 27.8021 41.3117C27.8416 40.9091 27.5471 40.5508 27.1445 40.5114Z" fill="black"/>
<path d="M49.9011 16.8234C49.7118 16.1645 49.2736 15.6242 48.667 15.3021C47.4709 14.6672 45.9939 15.1055 45.3045 16.2994L44.4293 17.8153L43.3542 19.6773C43.152 20.0276 43.272 20.4756 43.6223 20.6778C43.9724 20.8801 44.4206 20.7601 44.6228 20.4098L45.3316 19.182L47.1315 20.2212L41.2525 30.404C40.9743 30.8858 40.8273 31.4346 40.8273 31.9909V40.0772C40.8273 40.2118 40.7179 40.3214 40.5832 40.3214H32.9854C32.9875 40.2446 32.9912 40.1683 32.9912 40.0909C32.9912 38.4646 32.5018 36.951 31.664 35.6874V31.9909C31.664 31.4346 31.5169 30.8858 31.2388 30.404L25.3598 20.2212L26.8684 19.3501L27.1596 19.182L31.1267 26.0532C31.1228 26.1354 31.1204 26.2178 31.1204 26.3009C31.1204 29.1273 33.4199 31.4268 36.2463 31.4268C39.0727 31.4268 41.3722 29.1273 41.3722 26.3009C41.3722 26.2179 41.3698 26.1354 41.3659 26.0532L42.9151 23.3698C43.1174 23.0195 42.9974 22.5716 42.6471 22.3693C42.2966 22.1669 41.8487 22.2871 41.6466 22.6374L40.8412 24.0323C40.0027 22.3409 38.2585 21.175 36.2463 21.175C35.3591 21.175 34.524 21.4018 33.7954 21.8001V15.3153C33.7954 13.0345 31.9397 11.1789 29.659 11.1789H28.6766C29.7124 10.2008 30.3608 8.8165 30.3608 7.28281C30.3608 4.32676 27.956 1.92188 24.9999 1.92188C22.0438 1.92188 19.639 4.32676 19.639 7.28281C19.639 8.8166 20.2874 10.2009 21.3232 11.1789H20.3409C18.0601 11.1789 16.2044 13.0345 16.2044 15.3153V16.5926C16.2044 16.9971 16.5323 17.325 16.9368 17.325C17.3413 17.325 17.6692 16.9971 17.6692 16.5926V15.3153C17.6692 13.8422 18.8678 12.6437 20.3409 12.6437H29.659C31.1321 12.6437 32.3306 13.8422 32.3306 15.3153V22.9981C32.0646 23.3129 31.836 23.6598 31.6514 24.0324L28.062 17.8154L27.1868 16.2995C26.4973 15.1055 25.0203 14.6673 23.8243 15.3023C23.3524 15.5529 22.9831 15.9359 22.7529 16.4037L18.3484 24.0324C18.1638 23.6599 17.9351 23.3129 17.6692 22.9981V20.0105C17.6692 19.6061 17.3413 19.2781 16.9368 19.2781C16.5323 19.2781 16.2044 19.6061 16.2044 20.0105V21.8001C15.4759 21.4018 14.6407 21.175 13.7535 21.175C11.7417 21.175 9.99785 22.3405 9.15918 24.0312L5.57041 17.8153L4.69522 16.2994C4.00576 15.1053 2.52891 14.6673 1.33272 15.3021C0.726174 15.6242 0.287892 16.1646 0.0987321 16.8235C-0.0905257 17.4827 -0.00585772 18.1728 0.336916 18.7666L1.2334 20.3193L7.47861 31.1364C7.62842 31.3959 7.70762 31.6914 7.70762 31.9909V33.6809C7.70762 34.0854 8.03555 34.4133 8.44004 34.4133C8.84453 34.4133 9.17246 34.0854 9.17246 33.6809V31.9909C9.17246 31.4347 9.02549 30.8859 8.74727 30.404L2.86797 20.2211L4.66787 19.1819L8.63379 26.0511C8.62979 26.1338 8.62744 26.217 8.62744 26.3008C8.62744 29.1272 10.9269 31.4267 13.7533 31.4267C16.5798 31.4267 18.8793 29.1272 18.8793 26.3008C18.8793 26.2177 18.877 26.1352 18.873 26.053L22.9542 18.9844L23.7249 20.3192L24.1541 21.0626L18.7608 30.4039C18.4827 30.8858 18.3356 31.4345 18.3356 31.9908V35.6872C17.4979 36.9508 17.0084 38.4645 17.0084 40.0908C17.0084 40.1681 17.012 40.2445 17.0143 40.3213H9.41524C9.28067 40.3213 9.1711 40.2117 9.1711 40.0771V37.0987C9.1711 36.6942 8.84317 36.3663 8.43867 36.3663C8.03418 36.3663 7.70625 36.6942 7.70625 37.0987V40.0771C7.70625 41.0194 8.47295 41.7861 9.41524 41.7861H17.1911C17.9709 45.3808 21.175 48.0823 24.9998 48.0823C28.8245 48.0823 32.0287 45.3809 32.8085 41.7861H40.5832C41.5255 41.7861 42.2922 41.0194 42.2922 40.0771V31.9908C42.2922 31.6913 42.3714 31.3958 42.5212 31.1363L48.7664 20.3192L49.6629 18.7665C50.0057 18.1728 50.0903 17.4826 49.9011 16.8234ZM21.1037 7.28262C21.1037 5.13428 22.8515 3.38652 24.9998 3.38652C27.1481 3.38652 28.8959 5.13428 28.8959 7.28262C28.8959 9.43096 27.1481 11.1787 24.9998 11.1787C22.8515 11.1787 21.1037 9.43096 21.1037 7.28262ZM39.9072 26.3008C39.9072 28.3195 38.2649 29.9618 36.2462 29.9618C34.2274 29.9618 32.5852 28.3195 32.5852 26.3008C32.5852 24.282 34.2274 22.6397 36.2462 22.6397C38.2649 22.6397 39.9072 24.282 39.9072 26.3008ZM2.13555 18.9525L1.60528 18.0341C1.46299 17.7877 1.42793 17.5013 1.50645 17.2276C1.58496 16.9542 1.76709 16.7299 2.01934 16.5959C2.16553 16.5183 2.32451 16.4815 2.4834 16.4815C2.85449 16.4815 3.22451 16.6822 3.42627 17.0317L3.93526 17.9134L2.13555 18.9525ZM13.7533 29.9619C11.7346 29.9619 10.0923 28.3196 10.0923 26.3009C10.0923 24.2821 11.7346 22.6398 13.7533 22.6398C15.7721 22.6398 17.4145 24.2821 17.4145 26.3009C17.4145 28.3196 15.7721 29.9619 13.7533 29.9619ZM27.6533 27.1235H22.3463L24.9998 22.5274L27.6533 27.1235ZM24.511 16.5959C24.6572 16.5183 24.8162 16.4815 24.9751 16.4815C25.3461 16.4815 25.7162 16.6822 25.9181 17.0317L26.4271 17.9134L25.5271 18.433L24.6272 18.9525L24.097 18.0341C23.9547 17.7877 23.9196 17.5012 23.9981 17.2276C24.0767 16.9542 24.2588 16.7298 24.511 16.5959ZM20.0295 31.1363L21.5006 28.5883H28.4991L29.9702 31.1363C30.12 31.3958 30.1992 31.6913 30.1992 31.9908V34.0296C28.8005 32.828 26.9842 32.0993 24.9999 32.0993C23.0156 32.0993 21.1994 32.8279 19.8006 34.0295V31.9907C19.8005 31.6913 19.8797 31.3958 20.0295 31.1363ZM24.9998 46.6175C21.4011 46.6175 18.4732 43.6896 18.4732 40.0908C18.4732 36.492 21.4011 33.5643 24.9998 33.5643C28.5986 33.5643 31.5264 36.492 31.5264 40.0908C31.5264 43.6896 28.5986 46.6175 24.9998 46.6175ZM48.3942 18.0341L47.864 18.9525L46.0641 17.9134L46.573 17.0318C46.8612 16.5328 47.4923 16.3373 47.9801 16.5959C48.2323 16.7299 48.4145 16.9542 48.493 17.2276C48.5717 17.5013 48.5365 17.7877 48.3942 18.0341Z" fill="black"/>
</svg>
