<svg width="72" height="72" viewBox="0 0 72 72" fill="none" xmlns="http://www.w3.org/2000/svg">
<g clip-path="url(#clip0_1_6641)">
<path fill-rule="evenodd" clip-rule="evenodd" d="M36 50.952C35.5139 50.952 35.0626 50.7002 34.8108 50.2901C33.9026 48.8429 32.6782 47.0207 31.2604 44.9175C25.554 36.4456 17.7383 24.8509 17.7383 18.2655C17.7383 8.19413 25.929 0.00341797 36.0002 0.00341797C46.0716 0.00341797 54.2623 8.19413 54.2623 18.2655C54.2623 24.8508 46.4466 36.4514 40.7402 44.9175C39.3222 47.0207 38.0978 48.8429 37.1898 50.2901C36.9373 50.706 36.4864 50.952 36 50.952ZM36 2.81571C27.4813 2.81571 20.5504 9.74677 20.5504 18.2655C20.5504 23.9896 28.3955 35.637 33.5922 43.3472C34.4768 44.6655 35.2913 45.8665 36 46.9504C36.7089 45.8665 37.5234 44.6655 38.4081 43.3472C43.5991 35.637 51.444 23.9894 51.444 18.2655C51.4499 9.7466 44.5188 2.81571 36 2.81571Z" fill="white"/>
<path fill-rule="evenodd" clip-rule="evenodd" d="M35.9991 28.0253C30.4918 28.0253 26.0156 23.5433 26.0156 18.0416C26.0156 12.5343 30.4976 8.05811 35.9991 8.05811C41.5066 8.05811 45.9828 12.5401 45.9828 18.0416C45.9827 23.5433 41.5065 28.0253 35.9991 28.0253ZM35.9991 10.8647C32.0445 10.8647 28.8279 14.0813 28.8279 18.036C28.8279 21.9908 32.0445 25.2074 35.9991 25.2074C39.954 25.2074 43.1705 21.9908 43.1705 18.036C43.1704 14.0811 39.954 10.8647 35.9991 10.8647Z" fill="white"/>
<path fill-rule="evenodd" clip-rule="evenodd" d="M25.5997 71.9958C25.4532 71.9958 25.3009 71.9724 25.1544 71.9255L4.36124 64.9886C3.78706 64.7951 3.40039 64.2621 3.40039 63.6528V23.2265C3.40039 22.7754 3.61714 22.3477 3.9862 22.0841C4.35526 21.8206 4.82414 21.7501 5.25183 21.8908L23.5491 27.9899C23.889 28.1012 24.1702 28.3415 24.3401 28.6518C25.049 29.9583 25.8751 31.3938 26.8066 32.9171C26.9414 33.1396 27.0117 33.3918 27.0117 33.6494V70.5895C27.0117 71.0407 26.7949 71.4683 26.4259 71.732C26.1797 71.9019 25.8925 71.9958 25.5997 71.9958ZM6.21268 62.6451L24.1936 68.6387L24.1934 34.042C23.4259 32.7764 22.7522 31.6048 22.131 30.4856L6.21268 25.1718V62.6451Z" fill="white"/>
<path fill-rule="evenodd" clip-rule="evenodd" d="M25.5997 71.9977C25.3067 71.9977 25.0197 71.9038 24.7793 71.7341C24.4104 71.4703 24.1935 71.0426 24.1935 70.5915L24.1934 33.6514C24.1934 33.0188 24.6154 32.468 25.2188 32.2981C25.828 32.1282 26.4727 32.386 26.8007 32.9191C29.0154 36.5634 31.4468 40.1666 33.5854 43.3479C34.47 44.6662 35.2846 45.873 35.9933 46.9512C36.7022 45.873 37.5167 44.6662 38.4013 43.3479C40.5457 40.1666 42.9713 36.5634 45.186 32.9191C45.5141 32.3801 46.1585 32.1282 46.7679 32.2981C47.3771 32.468 47.7934 33.0188 47.7934 33.6514V63.6604C47.7934 64.264 47.4065 64.803 46.8323 64.9963L26.0393 71.9274C25.8983 71.9742 25.752 71.9977 25.5997 71.9977ZM27.0056 38.5259V68.6404L44.9867 62.6468V38.5259C43.5395 40.764 42.0806 42.9261 40.739 44.9238C39.3211 47.0271 38.0967 48.8493 37.1886 50.2964C36.9307 50.7065 36.4798 50.9583 35.9933 50.9583C35.5071 50.9583 35.0558 50.7065 34.804 50.2964C33.8958 48.8435 32.6714 47.0271 31.2536 44.9238C29.9118 42.9261 28.4586 40.764 27.0056 38.5259Z" fill="white"/>
<path fill-rule="evenodd" clip-rule="evenodd" d="M67.1913 71.9946C67.0449 71.9946 66.8927 71.9711 66.7462 71.9243L45.9532 64.9932C45.379 64.7999 44.9924 64.2668 44.9924 63.6574L44.9922 33.6483C44.9922 33.3906 45.0624 33.1386 45.1973 32.916C47.2713 29.5003 48.7887 26.6646 49.8315 24.245C50.1186 23.5711 50.8744 23.2371 51.5658 23.4657L67.6366 28.8207C68.2108 29.014 68.5975 29.5472 68.5975 30.1564V70.5884C68.5975 71.0397 68.3807 71.4672 68.0117 71.731C67.7713 71.9007 67.4843 71.9946 67.1913 71.9946ZM47.8045 62.6439L65.7854 68.6375L65.7852 31.1701L51.8821 26.5357C50.8686 28.7152 49.521 31.1877 47.8045 34.041V62.6439Z" fill="white"/>
</g>
<defs>
<clipPath id="clip0_1_6641">
<rect width="72" height="72" fill="white" transform="translate(0 -0.000488281)"/>
</clipPath>
</defs>
</svg>
