<svg width="20" height="20" viewBox="0 0 20 20" fill="none" xmlns="http://www.w3.org/2000/svg">
<g clip-path="url(#clip0_1_752)">
<path d="M14.3077 20C14.198 20.0006 14.0893 19.9796 13.9878 19.9381C13.8863 19.8966 13.7939 19.8355 13.716 19.7583L6.90771 12.95C6.51968 12.5629 6.21182 12.1031 6.00177 11.5969C5.79172 11.0907 5.68359 10.548 5.68359 9.99998C5.68359 9.45192 5.79172 8.90924 6.00177 8.40304C6.21182 7.89683 6.51968 7.43703 6.90771 7.04998L13.716 0.241658C13.7937 0.163959 13.886 0.102325 13.9875 0.0602752C14.089 0.018225 14.1978 -0.00341797 14.3077 -0.00341797C14.4176 -0.00341797 14.5264 0.018225 14.6279 0.0602752C14.7294 0.102325 14.8217 0.163959 14.8994 0.241658C14.9771 0.319357 15.0387 0.411599 15.0808 0.513117C15.1228 0.614635 15.1445 0.723442 15.1445 0.833324C15.1445 0.943207 15.1228 1.05201 15.0808 1.15353C15.0387 1.25505 14.9771 1.34729 14.8994 1.42499L8.09104 8.23332C7.62287 8.70207 7.35991 9.33748 7.35991 9.99998C7.35991 10.6625 7.62287 11.2979 8.09104 11.7666L14.8994 18.575C14.9775 18.6524 15.0395 18.7446 15.0818 18.8462C15.1241 18.9477 15.1459 19.0566 15.1459 19.1666C15.1459 19.2766 15.1241 19.3856 15.0818 19.4871C15.0395 19.5887 14.9775 19.6808 14.8994 19.7583C14.8215 19.8355 14.7292 19.8966 14.6276 19.9381C14.5261 19.9796 14.4174 20.0006 14.3077 20Z" fill="white"/>
</g>
<defs>
<clipPath id="clip0_1_752">
<rect width="20" height="20" fill="white"/>
</clipPath>
</defs>
</svg>
