<svg width="20" height="20" viewBox="0 0 20 20" fill="none" xmlns="http://www.w3.org/2000/svg">
<g clip-path="url(#clip0_1_756)">
<path d="M5.69131 20C5.80099 20.0006 5.90971 19.9796 6.01124 19.9381C6.11277 19.8966 6.20512 19.8355 6.28298 19.7583L13.0913 12.95C13.4793 12.5629 13.7872 12.1031 13.9973 11.5969C14.2073 11.0907 14.3154 10.548 14.3154 9.99998C14.3154 9.45192 14.2073 8.90924 13.9973 8.40304C13.7872 7.89683 13.4793 7.43703 13.0913 7.04998L6.28298 0.241658C6.20528 0.163959 6.11304 0.102325 6.01152 0.0602752C5.91 0.018225 5.8012 -0.00341797 5.69131 -0.00341797C5.58143 -0.00341797 5.47263 0.018225 5.37111 0.0602752C5.26959 0.102325 5.17735 0.163959 5.09965 0.241658C5.02195 0.319357 4.96031 0.411599 4.91827 0.513117C4.87621 0.614635 4.85457 0.723442 4.85457 0.833324C4.85457 0.943207 4.87621 1.05201 4.91827 1.15353C4.96031 1.25505 5.02195 1.34729 5.09965 1.42499L11.908 8.23332C12.3761 8.70207 12.6391 9.33748 12.6391 9.99998C12.6391 10.6625 12.3761 11.2979 11.908 11.7666L5.09965 18.575C5.02154 18.6524 4.95955 18.7446 4.91724 18.8462C4.87493 18.9477 4.85315 19.0566 4.85315 19.1666C4.85315 19.2766 4.87493 19.3856 4.91724 19.4871C4.95955 19.5887 5.02154 19.6808 5.09965 19.7583C5.17752 19.8355 5.26986 19.8966 5.37139 19.9381C5.47292 19.9796 5.58164 20.0006 5.69131 20Z" fill="#262626"/>
</g>
<defs>
<clipPath id="clip0_1_756">
<rect width="20" height="20" fill="white" transform="matrix(-1 0 0 1 20 0)"/>
</clipPath>
</defs>
</svg>
