<svg width="72" height="72" viewBox="0 0 72 72" fill="none" xmlns="http://www.w3.org/2000/svg">
<g clip-path="url(#clip0_1_6680)">
<path d="M52.2799 19.4917H19.7187C19.1362 19.4917 18.6641 19.9637 18.6641 20.5463C18.6641 21.1289 19.1362 21.6009 19.7187 21.6009H52.2799C52.8623 21.6009 53.3345 21.1289 53.3345 20.5463C53.3345 19.9639 52.8623 19.4917 52.2799 19.4917Z" fill="white"/>
<path d="M52.2799 27.5659H19.7187C19.1362 27.5659 18.6641 28.038 18.6641 28.6205C18.6641 29.2031 19.1362 29.6751 19.7187 29.6751H52.2799C52.8623 29.6751 53.3345 29.2031 53.3345 28.6205C53.3345 28.038 52.8623 27.5659 52.2799 27.5659Z" fill="white"/>
<path d="M52.2799 35.6401H19.7187C19.1362 35.6401 18.6641 36.1122 18.6641 36.6948C18.6641 37.2773 19.1362 37.7494 19.7187 37.7494H52.2799C52.8623 37.7494 53.3345 37.2773 53.3345 36.6948C53.3345 36.1122 52.8623 35.6401 52.2799 35.6401Z" fill="white"/>
<path d="M65.7939 68.06C65.532 69.1095 64.584 69.8904 63.4547 69.8904H52.076C51.4936 69.8904 51.0214 70.3625 51.0214 70.945C51.0214 71.5276 51.4936 71.9997 52.076 71.9997H63.4547C65.9425 71.9997 67.9672 69.9804 67.9769 67.4949C67.9771 67.4894 67.9773 67.4838 67.9773 67.4782C67.9773 67.4778 67.9773 67.4775 67.9773 67.4771V31.4979C67.9773 30.2853 67.4831 29.1026 66.6214 28.2497C66.6196 28.2479 66.618 28.2458 66.6162 28.244C66.6152 28.243 66.6141 28.2421 66.6131 28.2412C66.6115 28.2396 66.61 28.2379 66.6085 28.2364L62.4635 24.1682V21.7895C62.4635 21.2069 61.9914 20.7349 61.4089 20.7349C60.8265 20.7349 60.3543 21.2069 60.3543 21.7895V33.0046L41.1913 52.1334L38.1774 50.4774C36.8136 49.7278 35.1848 49.7277 33.8211 50.4773L30.8072 52.1334L11.6444 33.0046V14.7989C11.6444 13.4422 12.7483 12.3382 14.1051 12.3382H57.8934C59.2502 12.3382 60.3542 13.4422 60.3542 14.7989V17.3003C60.3542 17.8829 60.8264 18.355 61.4088 18.355C61.9912 18.355 62.4634 17.8828 62.4634 17.3003V14.7989C62.4634 12.279 60.4132 10.229 57.8934 10.229H48.2612L39.0668 1.20486C39.0568 1.19502 39.0465 1.18532 39.0363 1.17604C37.3049 -0.392663 34.6938 -0.392663 32.9626 1.17604C32.9521 1.18532 32.942 1.19502 32.932 1.20486L23.7375 10.229H14.1053C11.5854 10.229 9.53527 12.279 9.53527 14.7989V24.1682L5.39023 28.2364C5.38854 28.2381 5.38685 28.2399 5.38517 28.2417C5.38432 28.2426 5.38348 28.2431 5.38264 28.244C5.38109 28.2455 5.37982 28.2472 5.37842 28.2486C4.51617 29.1016 4.02148 30.2847 4.02148 31.4978V43.5325C4.02148 44.115 4.49367 44.5871 5.0761 44.5871C5.65852 44.5871 6.13071 44.115 6.13071 43.5325V31.4978C6.13071 31.2031 6.18752 30.9127 6.2896 30.6393L28.8818 53.1916L6.13071 65.6941V48.1286C6.13071 47.546 5.65852 47.074 5.0761 47.074C4.49367 47.074 4.02148 47.546 4.02148 48.1286V67.4769V67.478C4.02148 67.4835 4.02177 67.4892 4.02191 67.4948C4.03161 69.9803 6.05632 71.9995 8.54408 71.9995H47.4799C48.0623 71.9995 48.5345 71.5273 48.5345 70.9449C48.5345 70.3623 48.0623 69.8903 47.4799 69.8903H8.54408C7.41466 69.8903 6.46678 69.1095 6.20495 68.0599L34.8372 52.3257C35.5651 51.9258 36.4339 51.9256 37.1619 52.3258L65.7939 68.06ZM34.393 2.72631C35.3122 1.90625 36.6866 1.90625 37.6058 2.72631L45.2502 10.229H26.7486L34.393 2.72631ZM9.53513 30.8991L7.62797 28.9953L9.53513 27.1236V30.8991ZM65.7091 30.6393C65.8112 30.9127 65.868 31.2031 65.868 31.4978V65.6941L43.1169 53.1916L65.7091 30.6393ZM64.3706 28.9954L62.4634 30.8991V27.1236L64.3706 28.9954Z" fill="white"/>
</g>
<defs>
<clipPath id="clip0_1_6680">
<rect width="72" height="72" fill="white" transform="translate(0 -0.000488281)"/>
</clipPath>
</defs>
</svg>
