<svg width="72" height="72" viewBox="0 0 72 72" fill="none" xmlns="http://www.w3.org/2000/svg">
<g clip-path="url(#clip0_1_6665)">
<path d="M40.9844 -0.000488281C40.2076 -0.000488281 39.5781 0.629027 39.5781 1.40576C39.5781 2.18249 40.2076 2.81201 40.9844 2.81201C56.536 2.81201 69.1879 15.4644 69.1879 31.0155C69.1879 31.7923 69.818 32.4218 70.5941 32.4218C71.3709 32.4218 72.0004 31.7923 72.0004 31.0155C72.0004 13.9137 58.0868 -0.000488281 40.9844 -0.000488281Z" fill="white"/>
<path d="M62.1347 32.4238C62.9114 32.4238 63.5409 31.7937 63.5409 31.0175C63.5409 18.5794 53.422 8.46045 40.9844 8.46045C40.2076 8.46045 39.5781 9.09051 39.5781 9.8667C39.5781 10.6434 40.2076 11.2729 40.9844 11.2729C51.8713 11.2729 60.7284 20.1301 60.7284 31.0175C60.7284 31.7937 61.3579 32.4238 62.1347 32.4238Z" fill="white"/>
<path d="M52.2673 31.0168C52.2673 31.793 52.8968 32.4231 53.6736 32.4231C54.4503 32.4231 55.0798 31.793 55.0798 31.0168C55.0798 23.2446 48.7566 16.9214 40.9844 16.9214C40.2076 16.9214 39.5781 17.5509 39.5781 18.3271C39.5781 19.1038 40.2076 19.7333 40.9844 19.7333C47.2059 19.7333 52.2673 24.7947 52.2673 31.0168Z" fill="white"/>
<path d="M39.5781 26.7847C39.5781 27.5608 40.2076 28.1904 40.9844 28.1904C42.5411 28.1904 43.8079 29.4571 43.8079 31.0144C43.8079 31.7906 44.4374 32.4206 45.2141 32.4206C45.9903 32.4206 46.6204 31.7906 46.6204 31.0144C46.6204 27.9064 44.0919 25.3784 40.9844 25.3784C40.2076 25.3784 39.5781 26.0079 39.5781 26.7847Z" fill="white"/>
<path d="M26.3574 45.6558C26.3574 46.4325 25.7279 47.062 24.9512 47.062C24.1744 47.062 23.5449 46.4325 23.5449 45.6558C23.5449 44.8796 24.1744 44.2495 24.9512 44.2495C25.7279 44.2495 26.3574 44.8796 26.3574 45.6558Z" fill="white"/>
<path d="M38.5357 70.2919C44.9391 73.4302 52.6427 72.1245 57.7063 67.0609L60.6138 64.1533C62.1926 62.5762 62.1931 60.0214 60.6144 58.4432L49.3798 47.2097C47.8038 45.6315 45.2484 45.6293 43.6707 47.2091L38.8972 51.9832C37.9623 52.9182 36.5192 53.1088 35.4667 52.437C33.7507 51.34 32.0813 50.1304 30.5053 48.8417C29.9038 48.3501 29.0183 48.4391 28.5267 49.04C28.035 49.6415 28.124 50.5276 28.725 51.0186C30.3856 52.3766 32.1439 53.651 33.9528 54.8067C36.1089 56.1839 39.0246 55.8328 40.8857 53.9718L45.6604 49.1971C46.1377 48.7192 46.9112 48.7181 47.3907 49.1977L58.6259 60.4317C59.1043 60.9107 59.1054 61.6853 58.6259 62.1637L55.7178 65.0723C51.4996 69.2905 45.0924 70.3732 39.7734 67.7667C20.2875 58.2114 9.68569 43.0602 4.22329 32.0321C1.6102 26.7581 2.6951 20.3751 6.92318 16.1481L9.76754 13.3043C10.2443 12.8264 11.0183 12.8247 11.4973 13.3048L22.7336 24.5405C23.2093 25.0157 23.2142 25.7902 22.7325 26.2709L17.9589 31.045C16.0979 32.9061 15.7468 35.8218 17.124 37.9784C17.9353 39.2479 18.8098 40.5003 19.7239 41.7006C20.1941 42.3186 21.0763 42.4378 21.6943 41.9676C22.3123 41.4974 22.432 40.6152 21.9612 39.9966C21.0944 38.8579 20.2639 37.6692 19.4937 36.4645C18.8219 35.4115 19.0125 33.9684 19.9475 33.0335L24.7205 28.2605C26.2986 26.6845 26.3003 24.1285 24.7216 22.5515L13.4864 11.3169C11.911 9.73867 9.355 9.73647 7.77792 11.3163L4.93466 14.1596C-0.14761 19.2402 -1.44619 26.9246 1.70303 33.2807C7.35934 44.6993 18.3402 60.3889 38.5357 70.2919Z" fill="white"/>
</g>
<defs>
<clipPath id="clip0_1_6665">
<rect width="72" height="72" fill="white" transform="translate(0 -0.000488281)"/>
</clipPath>
</defs>
</svg>
