<svg width="49" height="52" viewBox="0 0 49 52" fill="none" xmlns="http://www.w3.org/2000/svg">
<path d="M46.1105 22.6177L42.0501 20.4029C41.2119 19.9456 40.1621 20.2547 39.7051 21.0927C39.2478 21.9307 39.5566 22.9807 40.3948 23.4379L44.4552 25.6527C44.6244 25.7449 44.6599 25.891 44.6599 25.9975C44.6599 26.104 44.6244 26.2499 44.4552 26.3423L4.34055 48.223C4.1783 48.3113 4.03979 48.2679 3.95198 48.2159C3.8644 48.1638 3.75977 48.0631 3.75977 47.8782V4.11658C3.75977 3.93175 3.8644 3.83103 3.95198 3.77895C4.03979 3.72686 4.17853 3.68353 4.34055 3.7718L33.0164 19.4133C33.8548 19.8705 34.9044 19.5614 35.3614 18.7235C35.8187 17.8855 35.5098 16.8355 34.6716 16.3782L5.99577 0.736761C4.79088 0.079464 3.36705 0.105506 2.18728 0.806131C1.00705 1.50676 0.302734 2.74414 0.302734 4.11658V47.878C0.302734 49.2504 1.00728 50.4878 2.18728 51.1884C2.79802 51.551 3.47398 51.7328 4.1511 51.7328C4.78235 51.7328 5.41476 51.5747 5.99577 51.2576L46.1105 29.3769C47.3481 28.7018 48.1169 27.4068 48.1169 25.9973C48.1169 24.5877 47.3481 23.2927 46.1105 22.6177Z" fill="white"/>
</svg>
