<svg width="52" height="42" viewBox="0 0 52 42" fill="none" xmlns="http://www.w3.org/2000/svg">
<mask id="path-1-inside-1_1_5641" fill="white">
<path fill-rule="evenodd" clip-rule="evenodd" d="M47.4284 22.0314H34.6668C33.5175 22.0314 32.4153 21.5748 31.6026 20.7622C30.79 19.9495 30.3334 18.8473 30.3334 17.698V4.69811C30.3334 3.54885 30.79 2.44666 31.6026 1.634C32.4153 0.82135 33.5175 0.364803 34.6668 0.364803H47.6667C48.816 0.364803 49.9181 0.82135 50.7308 1.634C51.5435 2.44666 52 3.54885 52 4.69811V19.1064C51.9987 23.0294 51.029 26.8914 49.177 30.3497C47.325 33.8081 44.6479 36.7558 41.3834 38.9313L37.5051 41.5312L35.1218 37.9346L39.0001 35.3346C41.2527 33.8251 43.1657 31.8623 44.6169 29.5717C46.0682 27.2811 47.0257 24.7129 47.4284 22.0314ZM17.0952 22.0314H4.3336C3.18433 22.0314 2.08213 21.5748 1.26948 20.7622C0.456829 19.9495 0.000282288 18.8473 0.000282288 17.698V4.69811C0.000282288 3.54885 0.456829 2.44666 1.26948 1.634C2.08213 0.82135 3.18433 0.364803 4.3336 0.364803H17.3335C18.4828 0.364803 19.585 0.82135 20.3976 1.634C21.2103 2.44666 21.6668 3.54885 21.6668 4.69811V19.1064C21.6655 23.0294 20.6958 26.8914 18.8438 30.3497C16.9918 33.8081 14.3148 36.7558 11.0502 38.9313L7.15024 41.5312L4.78859 37.9346L8.6669 35.3346C10.9195 33.8251 12.8325 31.8623 14.2838 29.5717C15.735 27.2811 16.6925 24.7129 17.0952 22.0314Z"/>
</mask>
<path d="M47.4284 22.0314L48.4173 22.1799L48.5897 21.0314H47.4284V22.0314ZM31.6026 20.7622L32.3098 20.055L32.3098 20.055L31.6026 20.7622ZM31.6026 1.634L32.3098 2.34111H32.3098L31.6026 1.634ZM50.7308 1.634L51.4379 0.926895L50.7308 1.634ZM52 19.1064L53 19.1067V19.1064H52ZM49.177 30.3497L48.2954 29.8777L49.177 30.3497ZM41.3834 38.9313L40.8288 38.0991L40.8265 38.1006L41.3834 38.9313ZM37.5051 41.5312L36.6715 42.0836L37.2268 42.9217L38.0619 42.3619L37.5051 41.5312ZM35.1218 37.9346L34.5649 37.104L33.7387 37.6578L34.2882 38.487L35.1218 37.9346ZM39.0001 35.3346L38.4434 34.5039L38.4432 34.504L39.0001 35.3346ZM44.6169 29.5717L43.7722 29.0365L44.6169 29.5717ZM17.0952 22.0314L18.0841 22.1799L18.2566 21.0314H17.0952V22.0314ZM1.26948 20.7622L1.97659 20.055V20.055L1.26948 20.7622ZM20.3976 1.634L21.1047 0.926895H21.1047L20.3976 1.634ZM21.6668 19.1064L22.6668 19.1067V19.1064H21.6668ZM18.8438 30.3497L17.9623 29.8777L18.8438 30.3497ZM11.0502 38.9313L10.4957 38.0991L10.4955 38.0992L11.0502 38.9313ZM7.15024 41.5312L6.31434 42.0801L6.86706 42.9219L7.70494 42.3633L7.15024 41.5312ZM4.78859 37.9346L4.23175 37.104L3.40903 37.6555L3.95269 38.4835L4.78859 37.9346ZM8.6669 35.3346L8.11021 34.5039L8.11007 34.504L8.6669 35.3346ZM14.2838 29.5717L13.439 29.0365L14.2838 29.5717ZM34.6668 23.0314H47.4284V21.0314H34.6668V23.0314ZM30.8955 21.4693C31.8957 22.4695 33.2523 23.0314 34.6668 23.0314V21.0314C33.7827 21.0314 32.9349 20.6802 32.3098 20.055L30.8955 21.4693ZM29.3334 17.698C29.3334 19.1125 29.8953 20.4691 30.8955 21.4693L32.3098 20.055C31.6846 19.4299 31.3334 18.5821 31.3334 17.698H29.3334ZM29.3334 4.69811V17.698H31.3334V4.69811H29.3334ZM30.8955 0.926895C29.8953 1.92708 29.3334 3.28363 29.3334 4.69811H31.3334C31.3334 3.81406 31.6846 2.96623 32.3098 2.34111L30.8955 0.926895ZM34.6668 -0.635197C33.2523 -0.635197 31.8957 -0.0732918 30.8955 0.926895L32.3098 2.34111C32.9349 1.71599 33.7827 1.3648 34.6668 1.3648V-0.635197ZM47.6667 -0.635197H34.6668V1.3648H47.6667V-0.635197ZM51.4379 0.926895C50.4377 -0.0732918 49.0812 -0.635197 47.6667 -0.635197V1.3648C48.5507 1.3648 49.3986 1.71599 50.0237 2.34111L51.4379 0.926895ZM53 4.69811C53 3.28363 52.4381 1.92709 51.4379 0.926895L50.0237 2.34111C50.6488 2.96622 51 3.81406 51 4.69811H53ZM53 19.1064V4.69811H51V19.1064H53ZM50.0585 30.8218C51.9883 27.2184 52.9986 23.1943 53 19.1067L51 19.106C50.9987 22.8644 50.0697 26.5644 48.2954 29.8777L50.0585 30.8218ZM41.9379 39.7634C45.3395 37.4967 48.1288 34.4253 50.0585 30.8218L48.2954 29.8777C46.5211 33.1909 43.9564 36.0149 40.8288 38.0991L41.9379 39.7634ZM38.0619 42.3619L41.9402 39.7619L40.8265 38.1006L36.9482 40.7006L38.0619 42.3619ZM34.2882 38.487L36.6715 42.0836L38.3387 40.9789L35.9553 37.3822L34.2882 38.487ZM38.4432 34.504L34.5649 37.104L35.6786 38.7652L39.5569 36.1652L38.4432 34.504ZM43.7722 29.0365C42.3954 31.2096 40.5805 33.0718 38.4434 34.5039L39.5568 36.1653C41.9249 34.5784 43.936 32.515 45.4617 30.1069L43.7722 29.0365ZM46.4394 21.8829C46.0574 24.4269 45.149 26.8633 43.7722 29.0365L45.4617 30.1069C46.9873 27.6988 47.9939 24.9989 48.4173 22.1799L46.4394 21.8829ZM4.3336 23.0314H17.0952V21.0314H4.3336V23.0314ZM0.562374 21.4693C1.56256 22.4695 2.91911 23.0314 4.3336 23.0314V21.0314C3.44954 21.0314 2.60171 20.6802 1.97659 20.055L0.562374 21.4693ZM-0.999718 17.698C-0.999718 19.1125 -0.437813 20.4691 0.562374 21.4693L1.97659 20.055C1.35147 19.4299 1.00028 18.5821 1.00028 17.698H-0.999718ZM-0.999718 4.69811V17.698H1.00028V4.69811H-0.999718ZM0.562374 0.926895C-0.437813 1.92708 -0.999718 3.28363 -0.999718 4.69811H1.00028C1.00028 3.81406 1.35147 2.96623 1.97659 2.34111L0.562374 0.926895ZM4.3336 -0.635197C2.91911 -0.635197 1.56256 -0.0732918 0.562374 0.926895L1.97659 2.34111C2.60171 1.71599 3.44954 1.3648 4.3336 1.3648V-0.635197ZM17.3335 -0.635197H4.3336V1.3648H17.3335V-0.635197ZM21.1047 0.926895C20.1046 -0.0732918 18.748 -0.635197 17.3335 -0.635197V1.3648C18.2176 1.3648 19.0654 1.71599 19.6905 2.34111L21.1047 0.926895ZM22.6668 4.69811C22.6668 3.28363 22.1049 1.92709 21.1047 0.926895L19.6905 2.34111C20.3156 2.96622 20.6668 3.81406 20.6668 4.69811H22.6668ZM22.6668 19.1064V4.69811H20.6668V19.1064H22.6668ZM19.7254 30.8218C21.6551 27.2184 22.6655 23.1943 22.6668 19.1067L20.6668 19.106C20.6656 22.8644 19.7366 26.5644 17.9623 29.8777L19.7254 30.8218ZM11.6048 39.7634C15.0063 37.4967 17.7957 34.4253 19.7254 30.8218L17.9623 29.8777C16.188 33.1909 13.6233 36.0149 10.4957 38.0991L11.6048 39.7634ZM7.70494 42.3633L11.6049 39.7633L10.4955 38.0992L6.59554 40.6992L7.70494 42.3633ZM3.95269 38.4835L6.31434 42.0801L7.98615 40.9824L5.62449 37.3857L3.95269 38.4835ZM8.11007 34.504L4.23175 37.104L5.34543 38.7652L9.22374 36.1652L8.11007 34.504ZM13.439 29.0365C12.0622 31.2096 10.2473 33.0718 8.11021 34.5039L9.22359 36.1653C11.5917 34.5784 13.6029 32.515 15.1285 30.1069L13.439 29.0365ZM16.1063 21.8829C15.7243 24.4269 14.8158 26.8633 13.439 29.0365L15.1285 30.1069C16.6541 27.6988 17.6608 24.9989 18.0841 22.1799L16.1063 21.8829Z" fill="#E0DBFF" mask="url(#path-1-inside-1_1_5641)"/>
</svg>
