<svg width="118" height="118" viewBox="0 0 118 118" fill="none" xmlns="http://www.w3.org/2000/svg">
<path d="M100.719 17.2808C89.5756 6.13715 74.7595 0 59 0C43.2405 0 28.4244 6.13715 17.2805 17.2808C6.13715 28.4244 0 43.2405 0 59C0 74.7595 6.13715 89.5756 17.2805 100.719C28.4244 111.863 43.2405 118 59 118C74.7595 118 89.5756 111.863 100.719 100.719C111.863 89.5756 118 74.7595 118 59C118 43.2405 111.863 28.4244 100.719 17.2808ZM98.2749 98.2749C87.7842 108.766 73.8362 114.543 59 114.543C44.1638 114.543 30.2158 108.766 19.7251 98.2749C9.23442 87.7842 3.45703 73.8362 3.45703 59C3.45703 44.1638 9.23442 30.2158 19.7251 19.7251C30.2158 9.23442 44.1638 3.45703 59 3.45703C73.8362 3.45703 87.7842 9.23442 98.2749 19.7251C108.766 30.2158 114.543 44.1638 114.543 59C114.543 73.8362 108.766 87.7842 98.2749 98.2749Z" fill="white"/>
</svg>
