<svg width="118" height="118" viewBox="0 0 118 118" fill="none" xmlns="http://www.w3.org/2000/svg">
<g clip-path="url(#clip0_1_5582)">
<path d="M100.719 17.2808C89.5756 6.13715 74.7595 0 59 0C43.2405 0 28.4244 6.13715 17.2805 17.2808C6.13715 28.4244 0 43.2405 0 59C0 74.7595 6.13715 89.5756 17.2805 100.719C28.4244 111.863 43.2405 118 59 118C74.7595 118 89.5756 111.863 100.719 100.719C111.863 89.5756 118 74.7595 118 59C118 43.2405 111.863 28.4244 100.719 17.2808ZM98.2749 98.2749C87.7842 108.766 73.8362 114.543 59 114.543C44.1638 114.543 30.2158 108.766 19.7251 98.2749C9.23442 87.7842 3.45703 73.8362 3.45703 59C3.45703 44.1638 9.23442 30.2158 19.7251 19.7251C30.2158 9.23442 44.1638 3.45703 59 3.45703C73.8362 3.45703 87.7842 9.23442 98.2749 19.7251C108.766 30.2158 114.543 44.1638 114.543 59C114.543 73.8362 108.766 87.7842 98.2749 98.2749Z" fill="white"/>
<path d="M74.3772 10.8645C72.9368 10.4048 71.4574 10.0056 69.9808 9.67809C69.0488 9.47136 68.1257 10.0595 67.9192 10.9915C67.7127 11.9236 68.3004 12.8468 69.2325 13.0533C70.6072 13.358 71.9845 13.7297 73.3258 14.1579C73.5007 14.2137 73.6777 14.2402 73.852 14.2402C74.5839 14.2402 75.2636 13.7714 75.4982 13.0369C75.7886 12.1275 75.2869 11.1549 74.3772 10.8645Z" fill="white"/>
<path d="M40.5859 102.319C30.0952 97.8543 21.5813 89.7376 16.6121 79.4645C16.1964 78.6051 15.1627 78.2456 14.3033 78.6611C13.4439 79.0769 13.0843 80.1105 13.5001 80.9699C18.8336 91.996 27.9719 100.708 39.2319 105.5C39.4527 105.594 39.6823 105.639 39.9081 105.639C40.5804 105.639 41.2195 105.244 41.4993 104.587C41.8733 103.708 41.4643 102.693 40.5859 102.319Z" fill="white"/>
<path d="M104.502 37.0365C99.9421 27.608 92.3634 19.6504 83.1613 14.6296C82.3233 14.1721 81.2733 14.4809 80.816 15.3189C80.3588 16.1569 80.6674 17.2069 81.5056 17.6642C90.0797 22.3422 97.1415 29.7566 101.39 38.5414C101.688 39.1584 102.305 39.5177 102.947 39.5177C103.199 39.5177 103.456 39.4621 103.698 39.3448C104.558 38.9295 104.918 37.8959 104.502 37.0365Z" fill="white"/>
</g>
<defs>
<clipPath id="clip0_1_5582">
<rect width="118" height="118" fill="white"/>
</clipPath>
</defs>
</svg>
