<svg width="44" height="62" viewBox="0 0 44 62" fill="none" xmlns="http://www.w3.org/2000/svg">
<path fill-rule="evenodd" clip-rule="evenodd" d="M12.774 0.575372C12.1255 1.53315 11.9958 3.86373 12.3849 7.79061C12.774 12.1325 13.0658 13.0584 14.0061 13.1861C15.2707 13.3457 15.4004 12.8349 15.0761 9.1315C14.8816 7.31173 14.7194 4.53418 14.7194 2.96981L14.6546 0.0964841L13.9088 0.000706495C13.3576 -0.0312194 13.0982 0.096484 12.774 0.575372Z" fill="white"/>
<path fill-rule="evenodd" clip-rule="evenodd" d="M20.556 13.4085C19.6481 13.6001 19.2266 13.9832 19.2266 14.6856C19.2266 15.5795 20.102 15.8349 23.4093 15.8349C26.7166 15.8349 28.1109 15.5156 28.3378 14.7813C28.6945 13.6639 27.9487 13.3766 24.4145 13.3128C22.6636 13.2808 20.9126 13.3128 20.556 13.4085Z" fill="white"/>
<path fill-rule="evenodd" clip-rule="evenodd" d="M0.745101 14.5576C-0.0655105 15.0046 -0.292482 16.1539 0.388432 16.4412C0.647828 16.537 2.72299 16.6967 4.99271 16.7924C8.91607 16.8882 9.17546 16.8563 9.69425 16.3455C10.3427 15.707 10.1806 15.0684 9.27274 14.7492C8.91607 14.6215 7.03545 14.4618 5.02513 14.3661C2.30148 14.2703 1.26389 14.3022 0.745101 14.5576Z" fill="white"/>
<path fill-rule="evenodd" clip-rule="evenodd" d="M13.5204 18.3269C13.1637 18.9335 13.034 19.7636 12.9692 23.2754C12.8395 27.8727 12.9367 28.6709 13.6176 28.9582C14.4607 29.3094 15.0767 28.2878 15.3037 26.0849C15.628 22.9562 15.5955 19.2208 15.2064 18.4546C14.7201 17.4968 14.0716 17.4649 13.5204 18.3269Z" fill="white"/>
<path fill-rule="evenodd" clip-rule="evenodd" d="M35.5046 26.3733C35.0182 26.8522 34.8885 30.6195 35.3424 31.4495C35.6991 32.12 36.834 32.0881 37.2231 31.3857C37.7094 30.4918 37.45 27.1396 36.834 26.501C36.2179 25.8625 36.0234 25.8306 35.5046 26.3733Z" fill="white"/>
<path fill-rule="evenodd" clip-rule="evenodd" d="M28.015 33.2355C27.3341 33.5229 27.2044 34.5764 27.7881 35.0234C28.3069 35.4703 33.1057 35.4703 33.6245 35.0553C34.273 34.5445 34.1108 33.5229 33.3327 33.2355C32.522 32.9163 28.8256 32.9163 28.015 33.2355Z" fill="white"/>
<path fill-rule="evenodd" clip-rule="evenodd" d="M38.7795 33.2993C38.0013 33.6505 37.8068 34.3529 38.2607 34.8956C38.6822 35.4064 41.6653 35.4064 42.865 34.8956C43.9998 34.4486 44.3241 33.7782 43.6432 33.2993C43.0271 32.8843 39.655 32.8843 38.7795 33.2993Z" fill="white"/>
<path fill-rule="evenodd" clip-rule="evenodd" d="M35.4718 36.6206C34.8233 37.2911 34.5314 40.2602 34.9854 41.3137C35.3745 42.2076 36.2499 42.3673 36.6715 41.5691C36.8336 41.2818 37.0281 40.1325 37.1254 39.0151C37.2551 37.323 37.1903 36.908 36.8336 36.5568C36.2499 35.9502 36.0554 35.9821 35.4718 36.6206Z" fill="white"/>
<path fill-rule="evenodd" clip-rule="evenodd" d="M14.9787 42.237C14.7193 42.5562 14.622 43.5459 14.6545 45.9403C14.6869 48.9414 14.7193 49.2287 15.2381 49.6757C16.5999 50.7292 17.2808 49.1329 17.0214 45.5572C16.9242 44.2483 16.6972 42.8755 16.5351 42.4924C16.2108 41.7261 15.4975 41.5984 14.9787 42.237Z" fill="white"/>
<path fill-rule="evenodd" clip-rule="evenodd" d="M6.77668 50.6344C4.53939 50.826 3.72878 51.2729 4.05303 52.1988C4.28 52.9331 5.51213 53.0927 8.88427 52.9012C11.8349 52.6777 13.0022 52.2946 12.8401 51.4964C12.6455 50.4748 11.381 50.2832 6.77668 50.6344Z" fill="white"/>
<path fill-rule="evenodd" clip-rule="evenodd" d="M19.4544 50.5725C18.0601 50.796 17.8656 52.0092 19.1625 52.4881C20.038 52.8074 23.9289 52.7754 24.545 52.4562C25.1611 52.105 25.1935 51.3388 24.6098 50.8918C24.2207 50.5406 20.7838 50.3491 19.4544 50.5725Z" fill="white"/>
<path fill-rule="evenodd" clip-rule="evenodd" d="M15.0122 54.4359C14.5259 55.0425 14.3637 60.5018 14.7853 61.3319C15.2716 62.2258 15.9201 62.2578 16.4713 61.4596C17.055 60.5976 17.1523 55.5853 16.6335 54.6275C16.2444 53.957 15.4986 53.8613 15.0122 54.4359Z" fill="white"/>
</svg>
