<svg width="114" height="120" viewBox="0 0 114 120" fill="none" xmlns="http://www.w3.org/2000/svg">
<g clip-path="url(#clip0_1_4163)">
<path fill-rule="evenodd" clip-rule="evenodd" d="M37.1822 0.51791C36.6658 1.03552 36.6227 1.72567 36.7088 5.90971C36.8379 10.9133 37.3113 12.6387 38.3872 12.6387C39.2479 12.6387 39.42 11.6466 39.42 6.5136C39.463 0.819851 38.7314 -1.03493 37.1822 0.51791Z" fill="#9B9B9B" fill-opacity="0.3"/>
<path fill-rule="evenodd" clip-rule="evenodd" d="M37.7414 19.928C37.4402 20.1437 37.139 21.3946 36.9668 23.7238C35.934 35.7583 31.2001 43.35 22.3349 47.2321C19.4515 48.4398 18.849 49.0437 19.2363 49.9927C19.4085 50.5103 19.7528 50.5966 21.3451 50.424C23.1525 50.2515 26.3371 50.726 28.2307 51.5024C29.5648 52.02 31.6305 53.9179 32.6203 55.5139C34.0404 57.7137 35.4606 62.6311 36.4504 68.6268C36.9668 71.7324 37.6554 74.5793 37.8705 75.0106C38.43 75.8733 39.8071 76.089 40.4096 75.3557C40.6248 75.0969 41.0551 72.8539 41.3134 70.3521C42.6905 58.749 45.746 53.2278 52.2443 50.5103C55.644 49.0869 55.9453 48.8712 55.8162 47.7497C55.7301 46.9301 55.3428 46.7145 52.1152 45.5498C47.7256 43.9539 45.6169 42.4873 44.1106 39.9855C41.9589 36.3622 39.8071 27.7784 39.8071 22.6886C39.8071 20.2299 38.9895 19.1516 37.7414 19.928ZM39.2907 35.8015C41.3134 42.1854 43.336 44.8597 47.7686 46.9301L50.3507 48.181L48.8445 49.0437C43.9385 51.9337 41.0121 56.4629 39.4198 63.6663L38.9464 65.6936L37.9997 61.8115C36.3213 54.91 33.0506 50.2946 28.8332 48.8712L27.0257 48.2673L28.0585 47.5772C28.618 47.1889 30.2103 45.7224 31.5444 44.2989C34.2556 41.5815 36.4074 37.8288 37.5263 33.9898C37.8275 32.9114 38.1288 32.1782 38.1718 32.3938C38.3009 32.6095 38.7313 34.1192 39.2907 35.8015Z" fill="#9B9B9B" fill-opacity="0.3"/>
<path fill-rule="evenodd" clip-rule="evenodd" d="M65.7145 45.6381C62.4008 46.0263 59.3022 46.889 59.5174 47.4498C59.7756 48.1831 62.0565 48.485 67.1777 48.3125C72.5571 48.2262 73.4608 47.9243 73.4608 46.5871C73.4178 45.2931 71.1799 45.0342 65.7145 45.6381Z" fill="#9B9B9B" fill-opacity="0.3"/>
<path fill-rule="evenodd" clip-rule="evenodd" d="M0.257889 49.2164C-0.000321666 49.5183 -0.0863919 50.0359 0.0427134 50.3379C0.817345 52.322 12.0065 51.7613 12.3938 49.734C12.4799 49.2595 12.1786 49.1301 10.4572 49.1301C9.3383 49.1301 6.67012 49.0438 4.5614 48.9144C1.3768 48.6988 0.645205 48.785 0.257889 49.2164Z" fill="#9B9B9B" fill-opacity="0.3"/>
<path fill-rule="evenodd" clip-rule="evenodd" d="M86.7151 53.572C86.0696 54.3485 86.8442 63.4498 87.6188 64.2262C88.0922 64.7007 88.1783 64.5713 88.6947 63.3635C89.3833 61.595 89.2972 54.521 88.5226 53.6152C87.9631 52.8387 87.3176 52.8387 86.7151 53.572Z" fill="#9B9B9B" fill-opacity="0.3"/>
<path fill-rule="evenodd" clip-rule="evenodd" d="M86.9739 71.0001C86.7157 71.4745 86.4144 72.8117 86.3284 74.1057C86.2423 75.7448 85.8119 77.2114 84.9082 79.1956C82.8425 83.7247 80.7338 85.407 76.5164 86.0108C73.8482 86.399 73.5039 86.5716 73.5039 87.4343C73.5039 88.4264 74.5368 89.0734 77.291 89.8929C81.8097 91.2732 82.9716 92.9555 84.7361 100.935C85.7689 105.508 86.0271 106.111 87.2321 106.111C88.2219 106.111 88.8244 104.774 89.3839 101.367C90.761 93.7319 92.3102 91.1438 96.5707 89.591C97.7327 89.1165 98.8946 88.5558 99.1098 88.3401C99.7984 87.4774 99.1098 86.4853 97.5605 86.0971C94.5911 85.3207 93.7304 84.9325 92.5685 83.8972C90.2876 81.9131 89.2978 79.0231 89.1687 73.8901C89.0826 71.7333 88.9535 70.9138 88.5662 70.655C87.7485 70.0511 87.5334 70.1374 86.9739 71.0001ZM90.8471 86.2265C91.6647 86.8735 92.5254 87.4343 92.7836 87.4774C93.0849 87.5637 92.5254 88.297 91.3635 89.3322C89.3408 91.187 88.4801 92.5673 87.6194 95.6298L87.0169 97.6571L86.1562 95.1553C85.0803 91.9634 83.9184 90.1086 82.154 88.8146L80.7338 87.7793L81.9388 87.0461C83.488 86.054 85.4246 83.8973 86.3714 82.0856L87.103 80.6622L88.2219 82.862C88.9965 84.3717 89.9003 85.5364 90.8471 86.2265Z" fill="#9B9B9B" fill-opacity="0.3"/>
<path fill-rule="evenodd" clip-rule="evenodd" d="M38.1715 82.6884C38.0855 83.3354 37.9994 85.5784 38.0855 87.6057C38.2146 91.4878 38.6879 92.6093 39.8929 92.1348C40.4094 91.9623 40.4954 91.3153 40.4954 87.7783C40.4954 83.2491 40.1081 81.4375 39.0753 81.4375C38.6019 81.4375 38.3437 81.7826 38.1715 82.6884Z" fill="#9B9B9B" fill-opacity="0.3"/>
<path fill-rule="evenodd" clip-rule="evenodd" d="M104.919 86.3135C104.015 86.4429 103.111 86.6586 102.982 86.8311C101.648 88.1251 111.847 89.5917 113.569 88.2977C114.387 87.6938 114.042 86.788 112.88 86.3135C111.847 85.9684 107.544 85.9684 104.919 86.3135Z" fill="#9B9B9B" fill-opacity="0.3"/>
<path fill-rule="evenodd" clip-rule="evenodd" d="M60.5931 87.0451C60.1197 87.2177 59.7754 87.5628 59.7754 87.8647C59.7754 88.8136 60.6361 89.1587 62.917 89.1156C67.0053 89.0293 70.4911 87.951 68.6837 87.2608C67.6508 86.8726 61.3677 86.7001 60.5931 87.0451Z" fill="#9B9B9B" fill-opacity="0.3"/>
<path fill-rule="evenodd" clip-rule="evenodd" d="M86.7154 110.511C86.5002 111.029 86.1559 113.228 85.9407 115.299C85.6395 118.707 85.6395 119.181 86.1559 119.699C87.7482 121.295 88.8671 117.369 88.3077 112.366C87.9634 109.562 87.3609 108.829 86.7154 110.511Z" fill="#9B9B9B" fill-opacity="0.3"/>
</g>
<defs>
<clipPath id="clip0_1_4163">
<rect width="114" height="120" fill="white"/>
</clipPath>
</defs>
</svg>
