<svg width="65" height="105" viewBox="0 0 65 105" fill="none" xmlns="http://www.w3.org/2000/svg">
<g clip-path="url(#clip0_1_4152)">
<path d="M33.3485 35.0349C30.2058 35.0349 27.6367 32.1571 27.6367 28.6288C27.6367 25.1004 30.2058 22.2227 33.3485 22.2227C36.4913 22.2227 39.0604 25.1004 39.0604 28.6288C39.0604 32.1571 36.4913 35.0349 33.3485 35.0349ZM33.3485 24.4748C31.428 24.4748 29.8815 26.3516 29.8815 28.6288C29.8815 30.9059 31.428 32.7827 33.3485 32.7827C35.2691 32.7827 36.8155 30.9059 36.8155 28.6288C36.8155 26.3516 35.2442 24.4748 33.3485 24.4748Z" fill="#848484" fill-opacity="0.3"/>
<path d="M29.3575 27.1271C29.0332 27.1271 28.7339 27.002 28.5095 26.7517C28.0854 26.2763 27.6864 25.8008 27.2623 25.3004C21.8249 19.1195 15.689 12.1128 16.0632 3.65474C16.1629 1.17738 17.4849 0.151407 18.7071 0.0262882C22.6729 -0.374093 26.1649 2.4536 27.8859 5.45646C29.582 8.40927 30.7792 11.3371 31.6771 14.6402C32.4005 17.2927 33.049 20.5458 33.4481 23.3235C33.5229 23.9491 33.0989 24.4996 32.4753 24.5997C31.8767 24.6748 31.303 24.2494 31.2032 23.6238C30.8291 20.9462 30.2055 17.7932 29.5072 15.2408C28.6591 12.1128 27.5118 9.36018 25.9154 6.58253C24.5685 4.23029 21.8748 1.97815 18.9066 2.27843C18.6322 2.30346 18.3329 2.77891 18.2831 3.75484C17.9588 11.287 23.7704 17.9433 28.9335 23.7989C29.3575 24.2744 29.7815 24.7749 30.2055 25.2503C30.6046 25.7258 30.5547 26.4264 30.1058 26.8268C29.8813 27.027 29.6319 27.1271 29.3575 27.1271Z" fill="#848484" fill-opacity="0.3"/>
<path d="M54.3003 33.5832C53.2278 33.5832 52.0555 33.5082 50.7335 33.3831C46.1691 32.9577 41.7792 31.7315 37.5639 30.5554C36.9653 30.3802 36.6161 29.7546 36.7907 29.1791C36.9653 28.5785 37.5889 28.2281 38.1625 28.4033C42.4776 29.6045 46.5681 30.7556 50.9331 31.1559C55.3978 31.5813 57.5179 31.4062 61.2343 29.6295C62.0823 29.2291 62.5812 28.6786 62.7059 28.0029C62.8555 27.1271 62.4066 26.2012 61.9077 25.7007C60.8352 24.6497 59.1641 23.9991 57.2435 23.899C55.3978 23.7989 53.4772 24.1743 51.6314 24.5246C49.237 25.0001 46.6928 25.2253 44.2485 25.4505C41.854 25.6757 39.3598 25.9009 37.0651 26.3514C36.5912 26.4515 36.0923 26.2262 35.8678 25.7758C35.6433 25.3504 35.7182 24.7999 36.0424 24.4495C37.6138 22.848 39.0605 21.4467 40.4822 20.0704C42.3529 18.2937 44.2734 16.4419 46.4185 14.0897C47.7155 12.6883 48.6633 11.1619 49.0624 9.88568C49.4116 8.73458 49.0873 7.35827 48.2393 6.48244C47.3912 5.60661 46.0194 5.25627 44.872 5.60661C43.0512 6.15713 41.854 8.15904 40.8064 10.1609C39.709 12.2129 38.6364 14.6152 37.5889 16.9174C36.5163 19.2696 35.4189 21.6969 34.2965 23.7989C33.9971 24.3495 33.3237 24.5496 32.775 24.2744C32.2262 23.9741 32.0267 23.2985 32.3011 22.7479C33.3985 20.696 34.471 18.2937 35.5186 15.9915C36.5912 13.6393 37.6886 11.2119 38.811 9.10994C40.0831 6.68263 41.5796 4.25532 44.2235 3.45456C46.194 2.87901 48.3889 3.42953 49.8356 4.90594C51.2823 6.38234 51.806 8.58444 51.2074 10.5613C50.534 12.7384 48.9377 14.6652 48.0647 15.6412C45.8697 18.0184 43.8993 19.8952 42.0286 21.6969C41.3801 22.3225 40.7316 22.9481 40.0582 23.5987C41.3801 23.4486 42.7021 23.3235 44.024 23.1984C46.4185 22.9731 48.9127 22.7479 51.2074 22.2975C53.1779 21.9221 55.2232 21.5218 57.3433 21.6219C59.8375 21.747 62.0075 22.6228 63.4791 24.0742C64.6015 25.2003 65.1752 26.8769 64.9008 28.3783C64.6514 29.8046 63.6786 30.9808 62.1821 31.6564C59.214 33.1078 57.019 33.5832 54.3003 33.5832Z" fill="#848484" fill-opacity="0.3"/>
<path d="M20.2283 49.6224C19.4801 49.6224 18.7567 49.4472 18.1082 49.0969C16.5867 48.221 15.6888 46.2942 15.9133 44.2923C16.1128 42.5156 17.0357 41.0142 17.8339 39.9131C19.5798 37.4608 21.5253 34.8583 23.9198 32.7813C19.8791 33.1066 15.6888 32.9315 10.9747 32.5561C8.4555 32.3559 5.43747 31.7804 4.19034 29.2279C2.91828 26.6255 4.56448 23.4725 6.90907 22.1712C9.12895 20.945 11.7479 20.9951 14.0177 21.1953C19.4302 21.7208 24.693 23.1221 29.6316 25.3743C30.2053 25.6245 30.4547 26.3001 30.1804 26.8757C29.9309 27.4512 29.2575 27.7015 28.6838 27.4262C23.9697 25.2742 18.9563 23.9229 13.7932 23.4224C11.8726 23.2472 9.67768 23.1722 7.9816 24.1231C6.58482 24.8988 5.48735 26.7756 6.18574 28.227C6.93401 29.7534 9.22872 30.1288 11.1493 30.304C17.8089 30.8545 23.3711 30.9796 28.9332 29.7785C29.5069 29.6533 30.0806 30.0037 30.2552 30.5542C30.4298 31.1297 30.1305 31.7053 29.5817 31.9305C25.3665 33.507 22.2487 37.5358 19.6796 41.1893C19.056 42.0902 18.3078 43.2663 18.1581 44.5175C18.0334 45.6185 18.4824 46.6695 19.2306 47.0949C19.8542 47.4453 20.7771 47.4203 21.6002 46.9949C22.523 46.5444 23.2963 45.7186 23.9198 44.9679C26.7882 41.5647 28.8335 37.2356 29.6566 32.7813C29.7813 32.1807 30.355 31.7804 30.9785 31.8805C31.5771 32.0056 31.9762 32.5811 31.8765 33.2067C30.9536 38.0363 28.7586 42.7408 25.6408 46.4193C24.8676 47.3452 23.8949 48.3712 22.5979 49.0218C21.8246 49.4222 21.0015 49.6224 20.2283 49.6224Z" fill="#848484" fill-opacity="0.3"/>
<path d="M39.1351 55.8542C38.1374 55.8542 37.1148 55.5789 36.2418 55.1785C32.8995 53.552 30.4801 49.7734 29.9563 45.2941C29.5073 41.4905 30.3803 37.3366 31.1785 33.7081L31.2034 33.558C31.3281 32.9574 31.9268 32.557 32.5254 32.7071C33.124 32.8323 33.5231 33.4328 33.3734 34.0334L33.3485 34.1836C32.6002 37.6619 31.7522 41.5906 32.1762 45.0439C32.5254 47.9467 34.0469 51.6252 37.2146 53.1766C38.312 53.7021 39.8585 53.9023 40.6317 53.1016C41.1555 52.551 41.2802 51.5751 41.3301 50.7243C41.5545 47.1459 40.8811 43.5174 39.5093 40.3144C37.9379 38.3125 36.4413 36.0603 34.9947 33.583C34.7203 33.1075 34.8201 32.4819 35.2691 32.1316C35.718 31.7813 36.3416 31.8313 36.7407 32.2067C38.6862 34.1335 40.2825 36.5108 41.4298 39.1383C42.2031 40.1142 42.9763 40.99 43.7495 41.8408C45.7449 43.9428 48.9874 46.5704 53.1029 47.0708C53.6017 47.1209 55.2729 47.271 55.8466 46.3702C56.4951 45.3442 55.223 43.6175 54.8239 43.092C51.0826 38.4126 45.2959 35.2596 39.6839 32.2317C38.8608 31.7813 38.0377 31.3308 37.2395 30.9054C36.6908 30.6051 36.4912 29.9295 36.7905 29.379C37.0899 28.8285 37.7633 28.6283 38.312 28.9285C39.1102 29.379 39.9083 29.8044 40.7314 30.2548C46.2687 33.2577 52.5542 36.6609 56.5699 41.6907C58.3159 43.8928 58.7399 45.9698 57.7422 47.5713C56.8692 48.9476 55.0983 49.5982 52.8285 49.2979C48.6631 48.7724 45.3458 46.4953 43.076 44.3432C43.525 46.4953 43.6747 48.6974 43.5499 50.8744C43.4751 52.0756 43.2506 53.577 42.228 54.6781C41.4548 55.4788 40.3074 55.8542 39.1351 55.8542Z" fill="#848484" fill-opacity="0.3"/>
<path d="M39.1098 103.15C39.0599 103.15 39.0349 103.15 38.9851 103.15C27.736 101.874 16.3373 101.849 5.08828 103.1C4.46472 103.175 3.91598 102.725 3.84116 102.099C3.76633 101.474 4.21529 100.923 4.83885 100.848C16.2625 99.5718 27.8108 99.5968 39.2345 100.898C39.858 100.973 40.2821 101.524 40.2322 102.149C40.1574 102.725 39.6834 103.15 39.1098 103.15Z" fill="#848484" fill-opacity="0.3"/>
<path d="M15.764 102.274C15.1405 102.274 14.6416 101.773 14.6416 101.147C14.6416 77.6751 22.3488 54.6031 30.7045 33.1827C30.929 32.6072 31.5775 32.3069 32.1512 32.5321C32.7249 32.7573 33.0242 33.4079 32.7997 33.9835C24.5438 55.2037 16.8864 78.0254 16.8864 101.147C16.8864 101.773 16.3876 102.274 15.764 102.274Z" fill="#848484" fill-opacity="0.3"/>
<path d="M15.8887 105.002C15.5894 105.002 15.2901 104.877 15.0656 104.627C7.13388 95.9687 1.7962 84.8081 0.0252883 73.1971C-0.0744815 72.5715 0.34954 71.9959 0.973101 71.9208C1.57172 71.8207 2.17034 72.2462 2.24517 72.8718C3.89137 83.5569 8.65537 93.8417 15.7141 101.999C16.7367 100.423 18.8568 97.4451 23.1968 91.5395C26.8135 86.6349 31.8518 79.9535 35.8426 74.8737C31.1285 74.9237 26.2149 77.4511 22.8227 81.6801C19.5802 85.709 17.6596 91.1141 16.9113 98.1708C16.8365 98.7964 16.2878 99.2469 15.6891 99.1718C15.0656 99.0967 14.6166 98.5462 14.6914 97.9456C15.4896 90.4385 17.5598 84.658 21.1017 80.2788C25.4666 74.8486 32.201 71.8958 38.2371 72.7967C38.6362 72.8467 38.9604 73.122 39.1101 73.4973C39.2597 73.8727 39.1849 74.2981 38.9355 74.6234C31.1784 84.2576 17.8841 102.4 16.9612 104.177C16.8614 104.502 16.637 104.777 16.3376 104.902C16.188 104.977 16.0383 105.002 15.8887 105.002Z" fill="#848484" fill-opacity="0.3"/>
<path d="M16.0383 94.141C15.5145 94.141 15.0656 93.7907 14.9408 93.2652C13.12 85.2326 7.80731 78.2009 0.748595 74.4723C0.199862 74.172 0.000322253 73.4964 0.274689 72.9459C0.573998 72.3953 1.24744 72.1951 1.79618 72.4704C9.42856 76.4992 15.1653 84.0815 17.1358 92.7647C17.2605 93.3653 16.8864 93.9659 16.2877 94.116C16.2129 94.141 16.1131 94.141 16.0383 94.141Z" fill="#848484" fill-opacity="0.3"/>
</g>
<defs>
<clipPath id="clip0_1_4152">
<rect width="65" height="105" fill="white"/>
</clipPath>
</defs>
</svg>
