<svg width="20" height="20" viewBox="0 0 20 20" fill="none" xmlns="http://www.w3.org/2000/svg">
<path d="M17.0783 6.63973L9.12833 0.806392C8.50741 0.351713 7.77269 0.0778869 7.00564 0.0152777C6.23859 -0.0473315 5.46919 0.103722 4.78275 0.451689C4.0963 0.799657 3.51965 1.33094 3.11672 1.98663C2.71378 2.64232 2.50032 3.39679 2.5 4.16639V15.8331C2.50014 16.603 2.71361 17.3579 3.11673 18.0138C3.51985 18.6698 4.09684 19.2013 4.78368 19.5492C5.47052 19.8972 6.24034 20.048 7.00771 19.985C7.77507 19.922 8.50996 19.6476 9.13083 19.1922L17.0808 13.3589C17.6086 12.9719 18.0377 12.466 18.3335 11.8823C18.6293 11.2985 18.7835 10.6533 18.7835 9.99889C18.7835 9.34447 18.6293 8.69926 18.3335 8.11551C18.0377 7.53176 17.6086 7.0259 17.0808 6.63889L17.0783 6.63973ZM16.0917 12.0147L8.14167 17.8481C7.76918 18.1202 7.32864 18.2841 6.86881 18.3214C6.40898 18.3587 5.9478 18.268 5.53631 18.0594C5.12482 17.8508 4.77907 17.5324 4.53734 17.1395C4.2956 16.7466 4.16731 16.2944 4.16667 15.8331V4.16639C4.16204 3.70418 4.28791 3.25004 4.52981 2.85616C4.77172 2.46228 5.11983 2.14463 5.53417 1.93973C5.88658 1.76047 6.27629 1.66682 6.67167 1.66639C7.20158 1.66842 7.71685 1.84046 8.14167 2.15723L16.0917 7.99056C16.4079 8.22281 16.6651 8.52623 16.8423 8.87628C17.0195 9.22634 17.1119 9.61319 17.1119 10.0056C17.1119 10.3979 17.0195 10.7848 16.8423 11.1348C16.6651 11.4849 16.4079 11.7883 16.0917 12.0206V12.0147Z" fill="#262626"/>
</svg>
