<svg width="225" height="177" viewBox="0 0 225 177" fill="none" xmlns="http://www.w3.org/2000/svg">
<path d="M80.7122 123.808C80.5873 123.864 80.4513 123.895 80.2792 123.911C79.6046 123.942 79.0269 123.451 78.9598 122.763C78.6376 117.937 79.4157 110.138 84.9065 100.42C93.0289 86.0595 106.105 77.2463 115.663 72.3634C128.942 65.5547 143.902 63.8649 156.691 67.7207C157.343 67.9092 157.716 68.6115 157.516 69.239C157.328 69.8916 156.626 70.264 155.998 70.0644C143.837 66.4082 129.54 68.0421 116.813 74.5452C107.58 79.2835 94.9205 87.8216 87.092 101.633C81.6151 111.314 81.2006 118.922 81.4527 122.581C81.4641 123.145 81.1618 123.608 80.7122 123.808Z" fill="#FFD600"/>
<path d="M67.8703 120.846C67.6705 120.935 67.4234 120.985 67.193 120.938C66.5239 120.847 66.0626 120.214 66.1538 119.545C67.771 108.319 69.0376 104.911 72.8034 98.1766C80.6402 84.1824 93.1614 72.1737 108.949 63.4702C124.901 54.6639 142.8 52.3841 158.008 57.1689C158.66 57.3573 159.008 58.0707 158.82 58.7233C158.631 59.3758 157.918 59.7232 157.265 59.5347C142.685 54.9496 125.511 57.1763 110.15 65.6297C94.7506 74.1303 82.5761 85.7751 74.9529 99.375C71.3728 105.788 70.1617 109.05 68.586 119.899C68.5418 120.337 68.245 120.679 67.8703 120.846Z" fill="#F57F29"/>
<path d="M60.2217 119.728C60.0718 119.795 59.8859 119.848 59.7026 119.84C59.0308 119.81 58.4808 119.246 58.5109 118.574C58.7082 109.806 61.5614 99.6763 63.5214 95.272C70.3329 79.8483 84.7687 66.3589 106.471 55.1426C115.33 50.5711 125.183 47.5622 134.952 46.4469C145.322 45.2729 155.245 46.1843 164.452 49.1201C165.116 49.3336 165.452 50.022 165.264 50.6745C165.051 51.3382 164.362 51.6745 163.71 51.486C146.394 45.9332 125.403 48.1229 107.597 57.3355C86.4078 68.2933 72.3326 81.3827 65.754 96.2537C63.8883 100.467 61.1625 110.21 60.9567 118.623C60.9348 119.112 60.6463 119.539 60.2217 119.728Z" fill="#F06098"/>
<path d="M49.6197 124.689C49.4449 124.766 49.2839 124.808 49.0645 124.786C48.3927 124.756 47.8427 124.192 47.8728 123.521C48.3992 108.23 54.5633 91.9575 64.8436 78.881C73.9449 67.2572 86.3897 57.2282 101.798 49.0829C115.213 41.9743 127.62 37.9785 139.687 36.9176C153.672 35.6614 167.794 39.014 178.467 46.1165C179.025 46.4966 179.187 47.2629 178.807 47.8211C178.427 48.3794 177.66 48.5408 177.102 48.1606C166.904 41.3855 153.327 38.1798 139.883 39.3746C128.16 40.4021 116.064 44.2894 102.937 51.2397C87.8539 59.2404 75.6756 69.061 66.7712 80.3877C56.8266 93.0753 50.8204 108.829 50.3297 123.594C50.3189 124.108 50.0194 124.511 49.6197 124.689Z" fill="#39B54A"/>
<path d="M37.754 136.557C37.6541 136.602 37.5791 136.635 37.4681 136.655C36.8019 136.772 36.1604 136.339 36.0322 135.648C33.9735 123.963 34.9183 111.898 38.853 99.7607C42.505 88.4672 48.7223 77.5583 56.8062 68.1533C64.3602 59.3733 73.7442 51.5448 84.6669 44.8871C94.5324 38.8796 105.689 33.8239 117.863 29.8421C132.82 24.9205 145.134 23.0016 156.567 23.8095C171.111 24.8186 183.724 30.4292 192.016 39.5791C192.483 40.0898 192.436 40.8589 191.926 41.3256C191.415 41.7923 190.646 41.7454 190.18 41.2348C182.282 32.5678 170.28 27.254 156.382 26.2862C145.294 25.4448 133.299 27.3413 118.653 32.1545C93.0981 40.5656 72.9235 53.1971 58.681 69.7433C42.1777 88.9421 34.6055 113.415 38.45 135.23C38.5475 135.785 38.2535 136.335 37.754 136.557Z" fill="#0072BC"/>
<path d="M83.3628 158.079C80.5902 159.313 77.4286 159.942 74.2915 159.752C70.5325 159.509 66.4884 160.711 63.4388 162.936C58.161 166.812 50.8354 167.768 45.6481 165.258C42.5573 163.76 40.7958 161.281 40.6634 158.227C40.5536 155.762 38.6868 153.719 35.6936 152.777C31.5786 151.466 29.1339 148.663 29.0123 145.095C28.8374 140.533 32.4769 136.07 38.2498 133.71C41.8773 132.245 44.6463 129.725 45.6024 126.965C47.0185 122.952 50.9863 119.63 56.2323 118.103C61.4782 116.576 66.6144 117.223 69.9612 119.834C72.2554 121.627 75.9231 122.269 79.7981 121.562C85.9326 120.418 91.3971 122.206 93.7287 126.167C95.549 129.248 95.0043 132.933 92.2358 136.26C90.2052 138.69 89.7405 141.412 90.991 143.549C92.5251 146.189 92.3881 149.243 90.5799 152.173C88.9629 154.658 86.3852 156.734 83.3628 158.079ZM74.451 157.286C80.7614 157.68 86.2727 154.329 88.4498 150.816C89.3733 149.327 90.1853 147.05 88.8319 144.749C87.0478 141.682 87.584 137.912 90.3249 134.656C92.3943 132.179 92.8425 129.555 91.5808 127.392C90.1134 124.903 86.0424 122.883 80.241 123.969C75.7109 124.818 71.3047 123.996 68.455 121.762C65.7831 119.659 61.3382 119.153 56.9222 120.46C52.4951 121.742 49.0516 124.562 47.9154 127.791C46.7099 131.201 43.4387 134.274 39.1756 135.992C33.7025 138.218 31.3618 142.104 31.4774 144.985C31.5622 147.462 33.3957 149.43 36.4722 150.425C40.515 151.708 43.0181 154.575 43.1646 158.132C43.2773 160.805 45.1688 162.298 46.7627 163.055C50.4894 164.839 56.9327 164.725 62.0579 160.977C65.4792 158.376 70.1423 157.019 74.451 157.286Z" fill="#83D3FF"/>
<path d="M178.779 97.3208C176.98 98.1213 175.123 98.5886 173.322 98.6423C169.927 98.7466 167.247 97.3653 165.76 94.7645C164.534 92.6161 161.883 91.7012 158.671 92.3524C154.349 93.1985 150.845 91.9148 149.025 88.8338C146.671 84.823 147.861 79.0252 152.05 74.0478C154.674 70.9341 156.013 67.2852 155.606 64.3535C155.015 60.0669 157.082 55.1655 161.128 51.2099C165.173 47.2543 170.144 45.3111 174.408 46.0171C177.348 46.5043 181.015 45.2614 184.189 42.7111C189.256 38.6301 195.105 37.5833 199.034 40.0246C202.059 41.9111 203.282 45.4672 202.319 49.7572C201.613 52.9449 202.461 55.5905 204.569 56.8972C207.119 58.4563 208.453 61.1849 208.252 64.5667C207.928 70.4279 203.213 76.7771 197.063 79.6343C193.513 81.2741 190.364 84.352 188.639 87.8733C186.543 92.039 182.825 95.5197 178.779 97.3208ZM167.964 49.4241C166.191 50.2135 164.423 51.4193 162.811 52.9749C159.368 56.3333 157.538 60.5599 158.007 64.033C158.517 67.6671 156.976 72.0047 153.911 75.6739C149.916 80.4152 149.633 85.0908 151.123 87.6306C152.384 89.7928 154.906 90.6162 158.153 89.9788C162.439 89.1188 166.063 90.4692 167.844 93.5973C169.161 95.8845 171.494 96.2832 173.209 96.2379C177.512 96.0887 183.412 92.8041 186.412 86.7694C188.378 82.7815 191.963 79.2703 196.012 77.4081C202.112 74.5732 205.531 68.741 205.773 64.4429C205.875 62.7215 205.526 60.3922 203.274 59.0301C200.2 57.1658 198.932 53.5099 199.881 49.2559C200.615 45.996 199.822 43.4754 197.703 42.1437C195.215 40.5873 190.531 40.7562 185.681 44.6511C181.96 47.6543 177.564 49.0724 173.954 48.4939C172.147 48.131 170.037 48.5013 167.964 49.4241Z" fill="#83D3FF"/>
</svg>
