<svg width="30" height="34" viewBox="0 0 30 34" fill="none" xmlns="http://www.w3.org/2000/svg">
<path d="M22.3051 11.3367C22.7205 12.1601 22.955 13.0803 23.1154 14.0373L23.1154 14.0374C23.2788 15.0108 23.3518 15.9626 23.1582 16.8553L23.1582 16.8553C23.012 17.5295 22.7104 18.2842 22.3251 19.1021C22.0606 19.6634 21.7664 20.235 21.4651 20.8202C21.3263 21.0898 21.1861 21.3622 21.0466 21.6378C20.6098 22.5009 20.1865 23.384 19.8815 24.2417C19.6535 24.8828 19.4847 25.5284 19.4309 26.1566C18.4435 26.0054 17.5114 26.0117 16.6202 26.0178L16.6008 26.0179C15.656 26.0243 14.7561 26.0292 13.8174 25.8734C13.888 23.639 12.9838 21.4831 12.1419 19.4759C12.0555 19.2698 11.9697 19.0653 11.8857 18.8625C10.9008 16.4835 10.1493 14.3192 10.8721 12.162L10.3985 12.0033L10.8721 12.162C11.6433 9.86051 13.8926 8.11541 16.3136 7.94075L16.3136 7.94075C18.7348 7.76573 21.2114 9.16961 22.3051 11.3367ZM22.3051 11.3367L22.7515 11.1115M22.3051 11.3367L22.7515 11.1115M22.7515 11.1115C21.5669 8.76425 18.9 7.25248 16.2776 7.44205L23.6468 16.9613C23.8606 15.9756 23.7754 14.9492 23.6085 13.9547C23.4443 12.9746 23.1992 11.9987 22.7515 11.1115Z" fill="#FFC329" stroke="#262626"/>
<path d="M13.2722 26.0645C13.2747 26.821 13.2771 27.578 13.2794 28.3349C13.2822 29.1605 13.3043 30.048 13.7929 30.713C14.211 31.2816 14.9083 31.5855 15.6035 31.7062C16.5529 31.871 17.5975 31.7125 18.3347 31.0921C19.462 30.1426 19.5646 28.4736 19.5799 26.9996" stroke="#262626" stroke-miterlimit="10" stroke-linecap="round" stroke-linejoin="round"/>
<path d="M13.526 29.6446C15.3726 29.747 17.2197 29.8496 19.0663 29.952" stroke="#262626" stroke-miterlimit="10" stroke-linecap="round" stroke-linejoin="round"/>
<path d="M13.1466 27.5015C15.2326 27.8166 17.3371 28.0095 19.4457 28.0781" stroke="#262626" stroke-miterlimit="10" stroke-linecap="round" stroke-linejoin="round"/>
<path d="M13.1931 26.1034C15.211 26.3326 17.241 26.4596 19.2718 26.4837" stroke="#262626" stroke-miterlimit="10" stroke-linecap="round" stroke-linejoin="round"/>
<path d="M14.8196 25.5632C15.2054 22.9216 15.1044 20.2099 14.5237 17.6045C14.1781 17.5507 13.8764 17.8749 13.7835 18.2121C13.6399 18.7358 13.8448 19.315 14.2204 19.7066C14.5958 20.0987 15.1193 20.3222 15.651 20.4318C16.0587 20.516 16.4943 20.5363 16.8812 20.3818C17.4921 20.1376 17.8589 19.5144 18.1128 18.9073C18.346 18.3491 18.5152 17.6797 18.1983 17.1641C17.6051 17.2019 17.3242 17.9065 17.2261 18.4927C16.8263 20.8834 17.1698 23.3285 17.5132 25.7284" stroke="#262626" stroke-miterlimit="10" stroke-linecap="round" stroke-linejoin="round"/>
<path d="M18.4279 10.3855C20.4588 10.9151 22.0106 12.9073 22.0278 15.006" stroke="#262626" stroke-miterlimit="10" stroke-linecap="round" stroke-linejoin="round"/>
<path d="M16.7476 6.0218C16.8658 5.04755 16.9843 4.07289 17.1025 3.09863" stroke="#262626" stroke-miterlimit="10" stroke-linecap="round" stroke-linejoin="round"/>
<path d="M21.8753 7.3705C22.3139 6.69484 22.8034 6.05227 23.3387 5.45044" stroke="#262626" stroke-miterlimit="10" stroke-linecap="round" stroke-linejoin="round"/>
<path d="M23.5877 8.39863C24.172 7.86992 24.8428 7.43673 25.5648 7.12137" stroke="#262626" stroke-miterlimit="10" stroke-linecap="round" stroke-linejoin="round"/>
<path d="M25.1744 13.3768C26.0523 13.2981 26.9301 13.2194 27.8074 13.1409" stroke="#262626" stroke-miterlimit="10" stroke-linecap="round" stroke-linejoin="round"/>
<path d="M9.84961 5.07129C10.4113 5.77538 10.9731 6.47947 11.5348 7.18356" stroke="#262626" stroke-miterlimit="10" stroke-linecap="round" stroke-linejoin="round"/>
<path d="M8.46191 6.40723C8.9483 6.74663 9.4345 7.08642 9.92089 7.42582" stroke="#262626" stroke-miterlimit="10" stroke-linecap="round" stroke-linejoin="round"/>
<path d="M5.62848 12.2169C6.63846 12.3201 7.64862 12.4229 8.6586 12.5261" stroke="#262626" stroke-miterlimit="10" stroke-linecap="round" stroke-linejoin="round"/>
<path d="M6.87583 18.3888C7.77169 17.9421 8.7365 17.6339 9.72548 17.4774" stroke="#262626" stroke-miterlimit="10" stroke-linecap="round" stroke-linejoin="round"/>
</svg>
