<svg width="54" height="44" viewBox="0 0 54 44" fill="none" xmlns="http://www.w3.org/2000/svg">
<path fill-rule="evenodd" clip-rule="evenodd" d="M51.2453 0.884914C50.905 1.70176 49.7138 10.3807 49.2713 15.4179C49.0671 17.4941 49.5095 19.5362 50.0881 19.332C50.905 19.0937 51.3815 17.0516 52.3685 9.32563C53.4236 0.816843 53.4236 0 52.2324 0C51.8239 0 51.5176 0.306316 51.2453 0.884914Z" fill="white"/>
<path fill-rule="evenodd" clip-rule="evenodd" d="M33.717 0.74988C32.798 0.954091 32.4917 1.70286 32.9002 2.92813C33.3426 4.2555 34.3977 5.10638 35.3507 4.8341C36.7121 4.49375 37.0524 2.24743 35.9293 1.02216C35.5209 0.545669 35.0103 0.511634 33.717 0.74988Z" fill="white"/>
<path fill-rule="evenodd" clip-rule="evenodd" d="M16.257 8.10145C15.7125 8.64601 15.8826 8.98636 17.21 10.4158C17.9248 11.1646 20.7837 14.5001 23.5746 17.8015C29.1564 24.4043 32.2536 27.7057 32.7641 27.7057C33.3086 27.7057 33.1385 26.2762 32.3897 24.9829C31.675 23.7236 21.6686 11.6411 19.3202 9.22461C17.9248 7.72706 16.9718 7.38671 16.257 8.10145Z" fill="white"/>
<path fill-rule="evenodd" clip-rule="evenodd" d="M36.7461 9.46174C36.2355 9.97227 36.3717 11.0954 37.3927 14.4649C39.0945 20.0807 39.5369 21.306 40.1836 22.0207C41.8513 23.7905 41.7833 21.4421 39.9794 15.2477C38.3117 9.3256 37.8012 8.44068 36.7461 9.46174Z" fill="white"/>
<path fill-rule="evenodd" clip-rule="evenodd" d="M4.72021 22.2234C4.10758 23.0403 4.17565 23.8912 4.82232 24.6059C5.57109 25.4227 6.62618 25.3887 7.44302 24.5378C8.73636 23.2785 8.02162 21.6448 6.18372 21.6448C5.40092 21.6108 5.02653 21.781 4.72021 22.2234Z" fill="white"/>
<path fill-rule="evenodd" clip-rule="evenodd" d="M12.037 26.1729C11.3563 26.9898 12.4454 27.8747 17.7889 30.6315C20.6479 32.095 23.4728 33.5586 24.0174 33.8308C25.4468 34.5796 27.2847 34.8179 27.2847 34.2733C27.2847 33.6947 25.7191 32.2993 23.5409 30.9719C21.0563 29.4743 13.4665 25.7305 12.8538 25.7305C12.5816 25.7645 12.2412 25.9687 12.037 26.1729Z" fill="white"/>
<path fill-rule="evenodd" clip-rule="evenodd" d="M0.294908 39.7544C-1.13457 41.218 2.47316 42.0008 14.6237 42.8176C22.0093 43.3281 23.1325 43.226 23.1325 42.239C23.1325 41.4222 21.3627 41.0478 15.3725 40.5713C12.1051 40.333 7.98685 39.9246 6.21702 39.7204C2.09877 39.2439 0.805435 39.2439 0.294908 39.7544Z" fill="white"/>
</svg>
