<svg width="11" height="20" viewBox="0 0 11 20" fill="none" xmlns="http://www.w3.org/2000/svg">
<path d="M9.30869 20C9.19901 20.0006 9.09029 19.9796 8.98876 19.9381C8.88723 19.8966 8.79488 19.8355 8.71702 19.7583L1.90869 12.95C1.52066 12.5629 1.2128 12.1031 1.00275 11.5969C0.792694 11.0907 0.68457 10.548 0.68457 9.99998C0.68457 9.45192 0.792694 8.90924 1.00275 8.40303C1.2128 7.89683 1.52066 7.43703 1.90869 7.04998L8.71702 0.241658C8.79472 0.163959 8.88696 0.102325 8.98848 0.0602752C9.09 0.018225 9.1988 -0.00341797 9.30869 -0.00341797C9.41857 -0.00341797 9.52737 0.018225 9.62889 0.0602752C9.73041 0.102325 9.82265 0.163959 9.90035 0.241658C9.97805 0.319357 10.0397 0.411599 10.0817 0.513117C10.1238 0.614635 10.1454 0.723442 10.1454 0.833324C10.1454 0.943207 10.1238 1.05201 10.0817 1.15353C10.0397 1.25505 9.97805 1.34729 9.90035 1.42499L3.09202 8.23332C2.62385 8.70207 2.36088 9.33748 2.36088 9.99998C2.36088 10.6625 2.62385 11.2979 3.09202 11.7666L9.90035 18.575C9.97846 18.6524 10.0405 18.7446 10.0828 18.8462C10.1251 18.9477 10.1469 19.0566 10.1469 19.1666C10.1469 19.2766 10.1251 19.3856 10.0828 19.4871C10.0405 19.5887 9.97846 19.6808 9.90035 19.7583C9.82248 19.8355 9.73014 19.8966 9.62861 19.9381C9.52708 19.9796 9.41836 20.0006 9.30869 20Z" fill="white"/>
</svg>
