<svg width="24" height="24" viewBox="0 0 24 24" fill="none" xmlns="http://www.w3.org/2000/svg">
<path d="M22.0031 0.75H1.99687C1.66694 0.752453 1.35122 0.884608 1.11791 1.11791C0.884608 1.35122 0.752453 1.66694 0.75 1.99687V22.0031C0.752453 22.3331 0.884608 22.6488 1.11791 22.8821C1.35122 23.1154 1.66694 23.2475 1.99687 23.25H12.7687V14.55H9.84375V11.1469H12.7687V8.64375C12.7687 5.7375 14.5406 4.15313 17.1469 4.15313C18.0187 4.15313 18.8906 4.15313 19.7625 4.28437V7.3125H17.9719C16.5563 7.3125 16.2844 7.9875 16.2844 8.97188V11.1375H19.6594L19.2188 14.5406H16.2844V23.25H22.0031C22.3331 23.2475 22.6488 23.1154 22.8821 22.8821C23.1154 22.6488 23.2475 22.3331 23.25 22.0031V1.99687C23.2475 1.66694 23.1154 1.35122 22.8821 1.11791C22.6488 0.884608 22.3331 0.752453 22.0031 0.75Z" fill="#525252"/>
<path d="M22.0031 0.75H1.99687C1.66694 0.752453 1.35122 0.884608 1.11791 1.11791C0.884608 1.35122 0.752453 1.66694 0.75 1.99687V22.0031C0.752453 22.3331 0.884608 22.6488 1.11791 22.8821C1.35122 23.1154 1.66694 23.2475 1.99687 23.25H12.7687V14.55H9.84375V11.1469H12.7687V8.64375C12.7687 5.7375 14.5406 4.15313 17.1469 4.15313C18.0187 4.15313 18.8906 4.15313 19.7625 4.28437V7.3125H17.9719C16.5563 7.3125 16.2844 7.9875 16.2844 8.97188V11.1375H19.6594L19.2188 14.5406H16.2844V23.25H22.0031C22.3331 23.2475 22.6488 23.1154 22.8821 22.8821C23.1154 22.6488 23.2475 22.3331 23.25 22.0031V1.99687C23.2475 1.66694 23.1154 1.35122 22.8821 1.11791C22.6488 0.884608 22.3331 0.752453 22.0031 0.75Z" fill="#262626"/>
</svg>
