<svg width="20" height="20" viewBox="0 0 20 20" fill="none" xmlns="http://www.w3.org/2000/svg">
<path d="M16.3812 2.50002H3.61875C3.32795 2.49827 3.04803 2.61046 2.83893 2.81255C2.62982 3.01465 2.50816 3.29058 2.5 3.58127V16.375C2.50656 16.6662 2.62772 16.9431 2.83718 17.1455C3.04663 17.348 3.32748 17.4596 3.61875 17.4563H16.3812C16.6725 17.4596 16.9534 17.348 17.1628 17.1455C17.3723 16.9431 17.4934 16.6662 17.5 16.375V3.58127C17.4918 3.29058 17.3702 3.01465 17.1611 2.81255C16.952 2.61046 16.672 2.49827 16.3812 2.50002ZM6.94375 15.2563H4.74375V8.12502H6.94375V15.2563ZM5.86875 7.13127C5.53097 7.13137 5.20655 6.99936 4.9648 6.76345C4.72306 6.52755 4.58316 6.20645 4.575 5.86877C4.56888 5.69723 4.59816 5.52626 4.66102 5.36653C4.72387 5.2068 4.81895 5.06172 4.94032 4.94034C5.0617 4.81897 5.20678 4.72389 5.36651 4.66104C5.52624 4.59818 5.69721 4.5689 5.86875 4.57502C6.19553 4.59777 6.50151 4.74364 6.72494 4.98317C6.94838 5.2227 7.07263 5.53808 7.07263 5.86565C7.07263 6.19321 6.94838 6.50858 6.72494 6.74812C6.50151 6.98765 6.19553 7.13352 5.86875 7.15627V7.13127ZM15.3 15.2125H13.125V11.725C13.125 10.8938 13.125 9.81252 11.9625 9.81252C10.8 9.81252 10.625 10.725 10.625 11.6438V15.175H8.4V8.12502H10.475V9.06252H10.5188C10.7314 8.69316 11.0416 8.38937 11.4152 8.18435C11.7889 7.97933 12.2117 7.88097 12.6375 7.90002C14.8812 7.90002 15.3 9.40002 15.3 11.3063V15.2125Z" fill="#525252"/>
<path d="M16.3812 2.50002H3.61875C3.32795 2.49827 3.04803 2.61046 2.83893 2.81255C2.62982 3.01465 2.50816 3.29058 2.5 3.58127V16.375C2.50656 16.6662 2.62772 16.9431 2.83718 17.1455C3.04663 17.348 3.32748 17.4596 3.61875 17.4563H16.3812C16.6725 17.4596 16.9534 17.348 17.1628 17.1455C17.3723 16.9431 17.4934 16.6662 17.5 16.375V3.58127C17.4918 3.29058 17.3702 3.01465 17.1611 2.81255C16.952 2.61046 16.672 2.49827 16.3812 2.50002ZM6.94375 15.2563H4.74375V8.12502H6.94375V15.2563ZM5.86875 7.13127C5.53097 7.13137 5.20655 6.99936 4.9648 6.76345C4.72306 6.52755 4.58316 6.20645 4.575 5.86877C4.56888 5.69723 4.59816 5.52626 4.66102 5.36653C4.72387 5.2068 4.81895 5.06172 4.94032 4.94034C5.0617 4.81897 5.20678 4.72389 5.36651 4.66104C5.52624 4.59818 5.69721 4.5689 5.86875 4.57502C6.19553 4.59777 6.50151 4.74364 6.72494 4.98317C6.94838 5.2227 7.07263 5.53808 7.07263 5.86565C7.07263 6.19321 6.94838 6.50858 6.72494 6.74812C6.50151 6.98765 6.19553 7.13352 5.86875 7.15627V7.13127ZM15.3 15.2125H13.125V11.725C13.125 10.8938 13.125 9.81252 11.9625 9.81252C10.8 9.81252 10.625 10.725 10.625 11.6438V15.175H8.4V8.12502H10.475V9.06252H10.5188C10.7314 8.69316 11.0416 8.38937 11.4152 8.18435C11.7889 7.97933 12.2117 7.88097 12.6375 7.90002C14.8812 7.90002 15.3 9.40002 15.3 11.3063V15.2125Z" fill="white"/>
</svg>
