<svg width="22" height="26" viewBox="0 0 22 26" fill="none" xmlns="http://www.w3.org/2000/svg">
<path fill-rule="evenodd" clip-rule="evenodd" d="M2.83438 0.75H19.1656C19.4945 0.750787 19.8201 0.816352 20.1236 0.942951C20.4272 1.06955 20.7028 1.2547 20.9348 1.48784C21.1668 1.72098 21.3507 1.99753 21.4758 2.3017C21.6009 2.60588 21.6649 2.93172 21.6641 3.26062V25.125L19.0438 22.8094L17.5691 21.4444L16.0091 19.9941L16.655 22.2487H2.83438C2.50548 22.248 2.17995 22.1824 1.87639 22.0558C1.57282 21.9292 1.29717 21.744 1.06517 21.5109C0.833163 21.2778 0.649353 21.0012 0.524232 20.697C0.399112 20.3929 0.335132 20.067 0.335945 19.7381V3.26062C0.335132 2.93172 0.399112 2.60588 0.524232 2.3017C0.649353 1.99753 0.833163 1.72098 1.06517 1.48784C1.29717 1.2547 1.57282 1.06955 1.87639 0.942951C2.17995 0.816352 2.50548 0.750787 2.83438 0.75ZM13.6569 15.6797C14.0225 16.1428 14.4613 16.6669 14.4613 16.6669C15.1868 16.6852 15.9057 16.526 16.5557 16.2032C17.2057 15.8803 17.7669 15.4036 18.1906 14.8144C18.1511 12.3436 17.551 9.9141 16.4356 7.70906C15.4541 6.93819 14.2575 6.49104 13.0109 6.42937L12.8403 6.62437C13.95 6.91967 14.9844 7.44725 15.875 8.17219C14.7402 7.54668 13.494 7.14922 12.2066 7.00219C11.3879 6.91197 10.5614 6.92016 9.74469 7.02656C9.67506 7.02866 9.60573 7.03682 9.53751 7.05094C8.58067 7.15973 7.64699 7.41886 6.77094 7.81875C6.32001 8.02594 6.05188 8.17219 6.05188 8.17219C6.99004 7.41097 8.08443 6.86585 9.25719 6.57562L9.13532 6.42937C7.88879 6.49104 6.69215 6.93819 5.71063 7.70906C4.59528 9.9141 3.9952 12.3436 3.95563 14.8144C4.37598 15.4041 4.93483 15.8815 5.58302 16.2046C6.23121 16.5276 6.94886 16.6864 7.67282 16.6669C7.67282 16.6669 8.12376 16.1184 8.48938 15.6553C7.63254 15.4392 6.87814 14.9305 6.35657 14.2172C6.35657 14.2172 6.47844 14.3025 6.69782 14.4244C6.71172 14.4394 6.72824 14.4518 6.74657 14.4609C6.76485 14.4731 6.78313 14.4823 6.80141 14.4914C6.81969 14.5005 6.83798 14.5097 6.85626 14.5219C7.14297 14.6802 7.44023 14.8187 7.74594 14.9362C8.32591 15.1652 8.9256 15.3406 9.53751 15.4603C10.5798 15.6605 11.6503 15.6647 12.6941 15.4725C13.3013 15.3663 13.8943 15.1904 14.4613 14.9484C14.9541 14.7625 15.4243 14.5212 15.8628 14.2294C15.3217 14.958 14.5403 15.4717 13.6569 15.6797ZM8.01064 11.1467C8.24857 11.012 8.52163 10.9523 8.79407 10.9753C8.96455 10.9824 9.13196 11.0231 9.28672 11.0949C9.44148 11.1668 9.58057 11.2684 9.69602 11.3941C9.81147 11.5197 9.90103 11.6669 9.95957 11.8272C10.0181 11.9874 10.0445 12.1577 10.0372 12.3281C10.0372 12.6016 9.95466 12.8686 9.80037 13.0943C9.64608 13.32 9.42724 13.4939 9.17249 13.5932C8.91773 13.6925 8.63894 13.7125 8.37261 13.6507C8.10627 13.5889 7.8648 13.4481 7.6798 13.2468C7.4948 13.0455 7.3749 12.793 7.33578 12.5224C7.29667 12.2518 7.34016 11.9757 7.46058 11.7302C7.58099 11.4848 7.77271 11.2814 8.01064 11.1467ZM12.4591 11.1467C12.697 11.012 12.9701 10.9523 13.2425 10.9753C13.413 10.9824 13.5804 11.0231 13.7352 11.0949C13.8899 11.1668 14.029 11.2684 14.1445 11.3941C14.2599 11.5197 14.3495 11.6669 14.408 11.8272C14.4665 11.9874 14.4929 12.1577 14.4856 12.3281C14.4856 12.6016 14.4031 12.8686 14.2488 13.0943C14.0945 13.32 13.8757 13.4939 13.6209 13.5932C13.3662 13.6925 13.0874 13.7125 12.821 13.6507C12.5547 13.5889 12.3132 13.4481 12.1282 13.2468C11.9432 13.0455 11.8233 12.793 11.7842 12.5224C11.7451 12.2518 11.7886 11.9757 11.909 11.7302C12.0294 11.4848 12.2212 11.2814 12.4591 11.1467Z" fill="#262626"/>
</svg>
