<svg width="20" height="20" viewBox="0 0 20 20" fill="none" xmlns="http://www.w3.org/2000/svg">
<path d="M2.5 2.5V17.5H17.5V2.5H2.5ZM14.9616 6.05406L14.1571 6.825C14.1231 6.85095 14.0968 6.88569 14.081 6.92548C14.0653 6.96527 14.0607 7.0086 14.0677 7.05081V12.7179C14.0607 12.7602 14.0653 12.8035 14.081 12.8433C14.0968 12.8831 14.1231 12.9178 14.1571 12.9437L14.9427 13.7149V13.8843H10.9909V13.7149L11.8048 12.925C11.8847 12.845 11.8848 12.8215 11.8848 12.6994V8.11875L9.62225 13.8661H9.31625L6.68169 8.11875V11.9707C6.67089 12.0506 6.67842 12.1319 6.70369 12.2085C6.72896 12.285 6.77132 12.3548 6.82756 12.4126L7.88606 13.6968V13.8661H4.88462V13.6968L5.94312 12.4125C5.99892 12.3547 6.04033 12.2846 6.06403 12.2078C6.08773 12.131 6.09305 12.0498 6.07956 11.9706V7.5165C6.08576 7.45553 6.07747 7.39395 6.05538 7.33678C6.03329 7.27962 5.99802 7.22847 5.95244 7.1875L5.01163 6.05406V5.88469H7.93306L10.1912 10.8371L12.1765 5.88469H14.9616V6.05406Z" fill="#525252"/>
<path d="M2.5 2.5V17.5H17.5V2.5H2.5ZM14.9616 6.05406L14.1571 6.825C14.1231 6.85095 14.0968 6.88569 14.081 6.92548C14.0653 6.96527 14.0607 7.0086 14.0677 7.05081V12.7179C14.0607 12.7602 14.0653 12.8035 14.081 12.8433C14.0968 12.8831 14.1231 12.9178 14.1571 12.9437L14.9427 13.7149V13.8843H10.9909V13.7149L11.8048 12.925C11.8847 12.845 11.8848 12.8215 11.8848 12.6994V8.11875L9.62225 13.8661H9.31625L6.68169 8.11875V11.9707C6.67089 12.0506 6.67842 12.1319 6.70369 12.2085C6.72896 12.285 6.77132 12.3548 6.82756 12.4126L7.88606 13.6968V13.8661H4.88462V13.6968L5.94312 12.4125C5.99892 12.3547 6.04033 12.2846 6.06403 12.2078C6.08773 12.131 6.09305 12.0498 6.07956 11.9706V7.5165C6.08576 7.45553 6.07747 7.39395 6.05538 7.33678C6.03329 7.27962 5.99802 7.22847 5.95244 7.1875L5.01163 6.05406V5.88469H7.93306L10.1912 10.8371L12.1765 5.88469H14.9616V6.05406Z" fill="white"/>
</svg>
