<svg width="20" height="20" viewBox="0 0 20 20" fill="none" xmlns="http://www.w3.org/2000/svg">
<path fill-rule="evenodd" clip-rule="evenodd" d="M4.55625 2.5H15.4438C15.663 2.50052 15.88 2.54423 16.0824 2.62863C16.2848 2.71303 16.4686 2.83647 16.6232 2.99189C16.7779 3.14732 16.9004 3.33168 16.9839 3.53447C17.0673 3.73725 17.1099 3.95448 17.1094 4.17375V18.75L15.3625 17.2063L14.3794 16.2962L13.3394 15.3294L13.77 16.8325H4.55625C4.33699 16.832 4.11997 16.7883 3.91759 16.7039C3.71522 16.6195 3.53145 16.496 3.37678 16.3406C3.22211 16.1852 3.09957 16.0008 3.01615 15.798C2.93274 15.5952 2.89009 15.378 2.89063 15.1587V4.17375C2.89009 3.95448 2.93274 3.73725 3.01615 3.53447C3.09957 3.33168 3.22211 3.14732 3.37678 2.99189C3.53145 2.83647 3.71522 2.71303 3.91759 2.62863C4.11997 2.54423 4.33699 2.50052 4.55625 2.5ZM11.7713 12.4531C12.015 12.7619 12.3075 13.1112 12.3075 13.1112C12.7912 13.1235 13.2705 13.0174 13.7038 12.8021C14.1371 12.5869 14.5113 12.269 14.7938 11.8763C14.7674 10.2291 14.3673 8.6094 13.6238 7.13938C12.9694 6.62546 12.1716 6.32736 11.3406 6.28625L11.2269 6.41625C11.9667 6.61312 12.6563 6.96483 13.25 7.44812C12.4935 7.03112 11.6627 6.76615 10.8044 6.66812C10.2586 6.60798 9.7076 6.61344 9.16313 6.68437C9.1167 6.68577 9.07049 6.69121 9.025 6.70062C8.38711 6.77316 7.76466 6.94591 7.18063 7.2125C6.88 7.35063 6.70125 7.44812 6.70125 7.44812C7.32669 6.94064 8.05629 6.57723 8.83813 6.38375L8.75688 6.28625C7.92586 6.32736 7.1281 6.62546 6.47375 7.13938C5.73019 8.6094 5.33013 10.2291 5.30375 11.8763C5.58398 12.2694 5.95655 12.5877 6.38868 12.803C6.82081 13.0184 7.29924 13.1242 7.78188 13.1112C7.78188 13.1112 8.0825 12.7456 8.32625 12.4369C7.75503 12.2928 7.25209 11.9537 6.90438 11.4781C6.90438 11.4781 6.98563 11.535 7.13188 11.6163C7.14114 11.6263 7.15216 11.6345 7.16438 11.6406C7.17657 11.6487 7.18875 11.6548 7.20094 11.6609C7.21313 11.667 7.22532 11.6731 7.2375 11.6813C7.42864 11.7868 7.62682 11.8791 7.83063 11.9575C8.21728 12.1101 8.61706 12.2271 9.025 12.3069C9.71986 12.4404 10.4335 12.4431 11.1294 12.315C11.5342 12.2442 11.9295 12.127 12.3075 11.9656C12.6361 11.8416 12.9495 11.6808 13.2419 11.4862C12.8811 11.972 12.3602 12.3145 11.7713 12.4531ZM8.00709 9.43112C8.16572 9.34132 8.34775 9.30151 8.52938 9.31689C8.64303 9.32163 8.75464 9.34873 8.85781 9.39663C8.96099 9.44453 9.05371 9.5123 9.13068 9.59606C9.20765 9.67982 9.26735 9.77793 9.30638 9.88477C9.34541 9.99162 9.36299 10.1051 9.35813 10.2188C9.35813 10.401 9.3031 10.5791 9.20025 10.7295C9.09739 10.88 8.95149 10.996 8.78166 11.0621C8.61182 11.1283 8.42596 11.1417 8.24841 11.1005C8.07085 11.0593 7.90987 10.9654 7.78653 10.8312C7.6632 10.697 7.58327 10.5287 7.55719 10.3483C7.53111 10.1679 7.56011 9.98381 7.64038 9.82016C7.72066 9.65651 7.84847 9.52092 8.00709 9.43112ZM10.9727 9.43112C11.1313 9.34132 11.3134 9.30151 11.495 9.31689C11.6087 9.32163 11.7203 9.34873 11.8234 9.39663C11.9266 9.44453 12.0193 9.5123 12.0963 9.59606C12.1733 9.67982 12.233 9.77793 12.272 9.88477C12.311 9.99162 12.3286 10.1051 12.3238 10.2188C12.3238 10.401 12.2687 10.5791 12.1659 10.7295C12.063 10.88 11.9171 10.996 11.7473 11.0621C11.5774 11.1283 11.3916 11.1417 11.214 11.1005C11.0365 11.0593 10.8755 10.9654 10.7522 10.8312C10.6288 10.697 10.5489 10.5287 10.5228 10.3483C10.4967 10.1679 10.5257 9.98381 10.606 9.82016C10.6863 9.65651 10.8141 9.52092 10.9727 9.43112Z" fill="white"/>
</svg>
