<svg width="24" height="24" viewBox="0 0 24 24" fill="none" xmlns="http://www.w3.org/2000/svg">
<path d="M21.5719 0.749969H2.42812C1.99193 0.747347 1.57204 0.915624 1.25839 1.21877C0.944735 1.52191 0.762245 1.93581 0.75 2.37184V21.5625C0.759845 21.9993 0.941584 22.4146 1.25577 22.7183C1.56995 23.0219 1.99122 23.1894 2.42812 23.1843H21.5719C22.0088 23.1894 22.4301 23.0219 22.7442 22.7183C23.0584 22.4146 23.2402 21.9993 23.25 21.5625V2.37184C23.2378 1.93581 23.0553 1.52191 22.7416 1.21877C22.428 0.915624 22.0081 0.747347 21.5719 0.749969ZM7.41562 19.8843H4.11563V9.18747H7.41562V19.8843ZM5.80313 7.69684C5.29646 7.69699 4.80983 7.49898 4.44721 7.14512C4.08459 6.79126 3.87474 6.30961 3.8625 5.80309C3.85332 5.54578 3.89724 5.28933 3.99152 5.04973C4.0858 4.81013 4.22842 4.59252 4.41048 4.41045C4.59255 4.22839 4.81016 4.08577 5.04976 3.99149C5.28936 3.89721 5.54581 3.85329 5.80313 3.86247C6.29329 3.8966 6.75226 4.11539 7.08741 4.47469C7.42257 4.834 7.60895 5.30706 7.60895 5.79841C7.60895 6.28976 7.42257 6.76282 7.08741 7.12212C6.75226 7.48142 6.29329 7.70021 5.80313 7.73434V7.69684ZM19.95 19.8187H16.6875V14.5875C16.6875 13.3406 16.6875 11.7187 14.9437 11.7187C13.2 11.7187 12.9375 13.0875 12.9375 14.4656V19.7625H9.6V9.18747H12.7125V10.5937H12.7781C13.0971 10.0397 13.5623 9.584 14.1228 9.27647C14.6833 8.96894 15.3176 8.8214 15.9562 8.84997C19.3219 8.84997 19.95 11.1 19.95 13.9593V19.8187Z" fill="#525252"/>
<path d="M21.5719 0.749969H2.42812C1.99193 0.747347 1.57204 0.915624 1.25839 1.21877C0.944735 1.52191 0.762245 1.93581 0.75 2.37184V21.5625C0.759845 21.9993 0.941584 22.4146 1.25577 22.7183C1.56995 23.0219 1.99122 23.1894 2.42812 23.1843H21.5719C22.0088 23.1894 22.4301 23.0219 22.7442 22.7183C23.0584 22.4146 23.2402 21.9993 23.25 21.5625V2.37184C23.2378 1.93581 23.0553 1.52191 22.7416 1.21877C22.428 0.915624 22.0081 0.747347 21.5719 0.749969ZM7.41562 19.8843H4.11563V9.18747H7.41562V19.8843ZM5.80313 7.69684C5.29646 7.69699 4.80983 7.49898 4.44721 7.14512C4.08459 6.79126 3.87474 6.30961 3.8625 5.80309C3.85332 5.54578 3.89724 5.28933 3.99152 5.04973C4.0858 4.81013 4.22842 4.59252 4.41048 4.41045C4.59255 4.22839 4.81016 4.08577 5.04976 3.99149C5.28936 3.89721 5.54581 3.85329 5.80313 3.86247C6.29329 3.8966 6.75226 4.11539 7.08741 4.47469C7.42257 4.834 7.60895 5.30706 7.60895 5.79841C7.60895 6.28976 7.42257 6.76282 7.08741 7.12212C6.75226 7.48142 6.29329 7.70021 5.80313 7.73434V7.69684ZM19.95 19.8187H16.6875V14.5875C16.6875 13.3406 16.6875 11.7187 14.9437 11.7187C13.2 11.7187 12.9375 13.0875 12.9375 14.4656V19.7625H9.6V9.18747H12.7125V10.5937H12.7781C13.0971 10.0397 13.5623 9.584 14.1228 9.27647C14.6833 8.96894 15.3176 8.8214 15.9562 8.84997C19.3219 8.84997 19.95 11.1 19.95 13.9593V19.8187Z" fill="#262626"/>
</svg>
