<svg width="24" height="24" viewBox="0 0 24 24" fill="none" xmlns="http://www.w3.org/2000/svg">
<path d="M0.75 0.75V23.25H23.25V0.75H0.75ZM19.4423 6.08109L18.2357 7.2375C18.1846 7.27643 18.1452 7.32854 18.1215 7.38822C18.0979 7.4479 18.091 7.5129 18.1015 7.57622V16.0769C18.091 16.1402 18.0979 16.2052 18.1215 16.2649C18.1452 16.3246 18.1846 16.3767 18.2357 16.4156L19.4141 17.5724V17.8265H13.4863V17.5724L14.7072 16.3875C14.8271 16.2675 14.8271 16.2322 14.8271 16.0492V9.17812L11.4334 17.7992H10.9744L7.02253 9.17812V14.956C7.00634 15.0759 7.01763 15.1979 7.05553 15.3127C7.09344 15.4276 7.15698 15.5323 7.24134 15.6189L8.82909 17.5452V17.7992H4.32694V17.5452L5.91469 15.6188C5.99837 15.532 6.0605 15.4268 6.09605 15.3117C6.1316 15.1965 6.13958 15.0746 6.11934 14.9558V8.27475C6.12863 8.18329 6.11621 8.09093 6.08307 8.00518C6.04994 7.91942 5.99703 7.8427 5.92866 7.78125L4.51744 6.08109V5.82703H8.89959L12.2868 13.2557L15.2648 5.82703H19.4423V6.08109Z" fill="#525252"/>
<path d="M0.75 0.75V23.25H23.25V0.75H0.75ZM19.4423 6.08109L18.2357 7.2375C18.1846 7.27643 18.1452 7.32854 18.1215 7.38822C18.0979 7.4479 18.091 7.5129 18.1015 7.57622V16.0769C18.091 16.1402 18.0979 16.2052 18.1215 16.2649C18.1452 16.3246 18.1846 16.3767 18.2357 16.4156L19.4141 17.5724V17.8265H13.4863V17.5724L14.7072 16.3875C14.8271 16.2675 14.8271 16.2322 14.8271 16.0492V9.17812L11.4334 17.7992H10.9744L7.02253 9.17812V14.956C7.00634 15.0759 7.01763 15.1979 7.05553 15.3127C7.09344 15.4276 7.15698 15.5323 7.24134 15.6189L8.82909 17.5452V17.7992H4.32694V17.5452L5.91469 15.6188C5.99837 15.532 6.0605 15.4268 6.09605 15.3117C6.1316 15.1965 6.13958 15.0746 6.11934 14.9558V8.27475C6.12863 8.18329 6.11621 8.09093 6.08307 8.00518C6.04994 7.91942 5.99703 7.8427 5.92866 7.78125L4.51744 6.08109V5.82703H8.89959L12.2868 13.2557L15.2648 5.82703H19.4423V6.08109Z" fill="#262626"/>
</svg>
