<svg width="28" height="28" viewBox="0 0 28 28" fill="none" xmlns="http://www.w3.org/2000/svg">
<path d="M21 12.25H19.25V7C19.25 5.60761 18.6969 4.27226 17.7123 3.28769C16.7277 2.30312 15.3924 1.75 14 1.75C12.6076 1.75 11.2723 2.30312 10.2877 3.28769C9.30312 4.27226 8.75 5.60761 8.75 7V12.25H7C6.53587 12.25 6.09075 12.4344 5.76256 12.7626C5.43437 13.0908 5.25 13.5359 5.25 14V24.5C5.25 24.9641 5.43437 25.4092 5.76256 25.7374C6.09075 26.0656 6.53587 26.25 7 26.25H21C21.4641 26.25 21.9092 26.0656 22.2374 25.7374C22.5656 25.4092 22.75 24.9641 22.75 24.5V14C22.75 13.5359 22.5656 13.0908 22.2374 12.7626C21.9092 12.4344 21.4641 12.25 21 12.25ZM10.5 7C10.5 6.07174 10.8687 5.1815 11.5251 4.52513C12.1815 3.86875 13.0717 3.5 14 3.5C14.9283 3.5 15.8185 3.86875 16.4749 4.52513C17.1313 5.1815 17.5 6.07174 17.5 7V12.25H10.5V7ZM21 24.5H7V14H21V24.5Z" fill="#961111"/>
<path d="M21 12.25H19.25V7C19.25 5.60761 18.6969 4.27226 17.7123 3.28769C16.7277 2.30312 15.3924 1.75 14 1.75C12.6076 1.75 11.2723 2.30312 10.2877 3.28769C9.30312 4.27226 8.75 5.60761 8.75 7V12.25H7C6.53587 12.25 6.09075 12.4344 5.76256 12.7626C5.43437 13.0908 5.25 13.5359 5.25 14V24.5C5.25 24.9641 5.43437 25.4092 5.76256 25.7374C6.09075 26.0656 6.53587 26.25 7 26.25H21C21.4641 26.25 21.9092 26.0656 22.2374 25.7374C22.5656 25.4092 22.75 24.9641 22.75 24.5V14C22.75 13.5359 22.5656 13.0908 22.2374 12.7626C21.9092 12.4344 21.4641 12.25 21 12.25ZM10.5 7C10.5 6.07174 10.8687 5.1815 11.5251 4.52513C12.1815 3.86875 13.0717 3.5 14 3.5C14.9283 3.5 15.8185 3.86875 16.4749 4.52513C17.1313 5.1815 17.5 6.07174 17.5 7V12.25H10.5V7ZM21 24.5H7V14H21V24.5Z" fill="#262626"/>
</svg>
