<svg width="28" height="28" viewBox="0 0 28 28" fill="none" xmlns="http://www.w3.org/2000/svg">
<path fill-rule="evenodd" clip-rule="evenodd" d="M22.4584 3.94239C22.0267 3.65395 21.5192 3.5 21 3.5C20.3038 3.5 19.6361 3.77656 19.1438 4.26884C18.6516 4.76113 18.375 5.42881 18.375 6.125C18.375 6.64418 18.529 7.15169 18.8174 7.58337C19.1058 8.01505 19.5158 8.3515 19.9955 8.55018C20.4751 8.74886 21.0029 8.80085 21.5121 8.69956C22.0213 8.59827 22.489 8.34827 22.8562 7.98116C23.2233 7.61404 23.4733 7.14631 23.5746 6.63711C23.6758 6.12791 23.6239 5.60011 23.4252 5.12046C23.2265 4.6408 22.8901 4.23083 22.4584 3.94239ZM18.5694 2.48732C19.2888 2.00659 20.1347 1.75 21 1.75C22.1603 1.75 23.2731 2.21094 24.0936 3.03141C24.9141 3.85188 25.375 4.96468 25.375 6.125C25.375 6.99029 25.1184 7.83615 24.6377 8.55562C24.1569 9.27508 23.4737 9.83584 22.6742 10.167C21.8748 10.4981 20.9951 10.5847 20.1465 10.4159C19.2978 10.2471 18.5183 9.83045 17.9064 9.21859C17.2946 8.60674 16.8779 7.82719 16.7091 6.97852C16.5403 6.12985 16.6269 5.25019 16.958 4.45076C17.2892 3.65133 17.8499 2.96805 18.5694 2.48732ZM21 12.25H22.75C23.9099 12.2513 25.0219 12.7127 25.8421 13.5329C26.6623 14.3531 27.1237 15.4651 27.125 16.625V20.125H25.375V16.625C25.3742 15.929 25.0974 15.2618 24.6053 14.7697C24.1132 14.2776 23.446 14.0008 22.75 14H21V12.25ZM20.125 26.25H18.375V24.5C18.3742 23.804 18.0974 23.1368 17.6053 22.6447C17.1132 22.1526 16.446 21.8758 15.75 21.875H12.25C11.554 21.8758 10.8868 22.1526 10.3947 22.6447C9.90257 23.1368 9.62576 23.804 9.625 24.5V26.25H7.875V24.5C7.87637 23.3401 8.33774 22.2281 9.15792 21.4079C9.97809 20.5877 11.0901 20.1264 12.25 20.125H15.75C16.9099 20.1264 18.0219 20.5877 18.8421 21.4079C19.6623 22.2281 20.1236 23.3401 20.125 24.5V26.25ZM15.4584 11.8174C15.0267 11.529 14.5192 11.375 14 11.375C13.3038 11.375 12.6361 11.6516 12.1438 12.1438C11.6516 12.6361 11.375 13.3038 11.375 14C11.375 14.5192 11.529 15.0267 11.8174 15.4584C12.1058 15.8901 12.5158 16.2265 12.9955 16.4252C13.4751 16.6239 14.0029 16.6758 14.5121 16.5746C15.0213 16.4733 15.489 16.2233 15.8562 15.8562C16.2233 15.489 16.4733 15.0213 16.5746 14.5121C16.6758 14.0029 16.6239 13.4751 16.4252 12.9955C16.2265 12.5158 15.8901 12.1058 15.4584 11.8174ZM11.5694 10.3623C12.2888 9.88159 13.1347 9.625 14 9.625C15.1603 9.625 16.2731 10.0859 17.0936 10.9064C17.9141 11.7269 18.375 12.8397 18.375 14C18.375 14.8653 18.1184 15.7112 17.6377 16.4306C17.1569 17.1501 16.4737 17.7108 15.6742 18.042C14.8748 18.3731 13.9951 18.4597 13.1465 18.2909C12.2978 18.1221 11.5183 17.7054 10.9064 17.0936C10.2946 16.4817 9.87788 15.7022 9.70907 14.8535C9.54026 14.0049 9.6269 13.1252 9.95803 12.3258C10.2892 11.5263 10.8499 10.8431 11.5694 10.3623ZM7 12.25H5.25C4.0901 12.2514 2.97809 12.7127 2.15792 13.5329C1.33774 14.3531 0.876366 15.4651 0.875 16.625V20.125H2.625V16.625C2.62576 15.929 2.90257 15.2618 3.39469 14.7697C3.88681 14.2776 4.55404 14.0008 5.25 14H7V12.25ZM8.45837 3.94239C8.02669 3.65395 7.51917 3.5 7 3.5C6.3038 3.5 5.63612 3.77656 5.14384 4.26884C4.65156 4.76113 4.375 5.42881 4.375 6.125C4.375 6.64418 4.52895 7.15169 4.81739 7.58337C5.10583 8.01505 5.5158 8.3515 5.99545 8.55018C6.47511 8.74886 7.00291 8.80085 7.51211 8.69956C8.02131 8.59827 8.48904 8.34827 8.85615 7.98116C9.22326 7.61404 9.47327 7.14631 9.57456 6.63711C9.67584 6.12791 9.62386 5.60011 9.42518 5.12046C9.2265 4.6408 8.89005 4.23083 8.45837 3.94239ZM4.56938 2.48732C5.28884 2.00659 6.1347 1.75 7 1.75C8.16032 1.75 9.27312 2.21094 10.0936 3.03141C10.9141 3.85188 11.375 4.96468 11.375 6.125C11.375 6.99029 11.1184 7.83615 10.6377 8.55562C10.1569 9.27508 9.47366 9.83584 8.67424 10.167C7.87481 10.4981 6.99514 10.5847 6.14648 10.4159C5.29781 10.2471 4.51826 9.83045 3.9064 9.21859C3.29455 8.60674 2.87787 7.82719 2.70906 6.97852C2.54025 6.12985 2.62689 5.25019 2.95802 4.45076C3.28916 3.65133 3.84991 2.96805 4.56938 2.48732Z" fill="#262626"/>
</svg>
