<svg width="44" height="60" viewBox="0 0 44 60" fill="none" xmlns="http://www.w3.org/2000/svg">
<path d="M7.88207 39.3342C6.24607 38.3232 4.74607 37.1912 3.26207 35.9712C2.96307 35.7252 2.62007 35.5062 2.34007 35.2382C2.13907 35.0452 1.94707 34.7242 1.71407 34.5772C1.50407 34.4452 1.25207 34.3952 1.00707 34.4442C0.91407 34.4632 0.131074 34.9982 0.305074 35.0772C-0.452926 34.7332 0.43107 36.4042 0.50607 36.5222C0.71207 36.8442 0.964074 37.1532 1.20807 37.4472C1.68607 38.0232 2.22207 38.5552 2.75907 39.0762C3.83607 40.1222 4.98007 41.0962 6.18207 41.9952C6.79207 42.4512 7.48507 42.4572 8.12507 42.0752C8.51907 41.8402 8.72007 41.4932 8.77407 41.0452C8.86807 40.2732 8.51207 39.7232 7.88207 39.3342Z" fill="#FFBF00"/>
<path d="M14.5614 20.1345C13.1434 18.5705 11.3774 17.2875 9.82645 15.8525C8.28545 14.4275 6.83045 12.6005 4.92345 11.6655C4.21245 11.3175 3.81945 12.0395 3.93645 12.5715C3.93045 12.5715 3.92445 12.5705 3.91745 12.5705C4.60445 14.6355 6.34944 16.2895 7.77244 17.8805C9.16244 19.4335 10.5734 21.1905 12.2364 22.4565C13.6864 23.5605 15.8614 21.5665 14.5614 20.1345Z" fill="#FFBF00"/>
<path d="M20.8331 6.17348C20.5471 5.87248 20.2111 5.60348 19.9081 5.31748C19.3581 4.79648 18.8151 4.26648 18.2801 3.73048C17.1041 2.55548 16.0601 1.24548 14.7681 0.195479C14.0221 -0.411521 13.3211 0.531479 13.5081 1.16748H13.5051C14.6661 4.16548 17.1431 6.82248 19.2601 9.19048C19.7551 9.74448 20.5231 10.0055 21.2321 9.69548L21.3641 9.63748C21.7141 9.48448 22.1021 9.14948 22.1161 8.72848C22.1411 7.98448 21.3431 6.70948 20.8331 6.17348Z" fill="#FFBF00"/>
<path d="M28.1661 24.4073C27.9071 24.1603 27.6481 23.9123 27.3891 23.6653C27.0031 23.2953 26.6181 22.9233 26.2331 22.5523C25.5321 21.8783 24.8321 21.2033 24.1321 20.5283C22.6331 19.0813 21.2121 17.4063 19.4671 16.2483C19.4631 16.2623 19.4601 16.2763 19.4561 16.2903C18.8701 15.8553 17.8021 16.4023 18.2111 17.2043C19.1351 19.0143 20.5781 20.5713 21.8611 22.1353C23.2101 23.7783 24.5041 25.5333 26.0031 27.0413C26.3411 26.4243 26.6801 25.8083 27.0181 25.1913C27.4011 24.9303 27.7831 24.6683 28.1661 24.4073Z" fill="#FFBF00"/>
<path d="M23.0903 39.1794C21.4123 37.9614 19.8163 36.6384 18.2533 35.2754C16.6493 33.8764 15.0753 31.9904 13.2393 30.9394L13.2353 30.9483C12.7663 30.7143 12.0643 31.1753 12.3743 31.8473C13.2283 33.7003 15.0893 35.3034 16.4963 36.7594C18.0673 38.3844 19.7153 39.9333 21.3373 41.5063C22.8293 42.9533 24.8513 40.4584 23.0903 39.1794Z" fill="#FFBF00"/>
<path d="M33.8743 39.0815C33.6173 37.0165 31.0293 35.5555 29.5483 34.2615C27.7283 32.6715 25.8653 30.5365 23.6553 29.5205C22.6773 29.0705 22.1013 30.5695 22.7123 31.1495C23.9103 33.1135 25.9243 34.7505 27.4903 36.4065C28.8863 37.8825 30.3583 40.3785 32.4853 40.5985C33.3543 40.6895 33.9753 39.8935 33.8743 39.0815Z" fill="#FFBF00"/>
<path d="M32.963 52.1897C31.003 50.3397 29.104 48.3617 26.979 46.6957C26.903 46.5887 26.8 46.5067 26.678 46.4497C26.665 46.4397 26.652 46.4277 26.639 46.4177C26.638 46.4227 26.637 46.4267 26.637 46.4317C25.868 46.1167 24.529 46.7027 25.405 47.9217C26.598 49.5807 28.094 51.0507 29.475 52.5547C30.116 53.2537 30.757 53.9507 31.399 54.6487C31.802 55.0857 32.205 55.5227 32.608 55.9597C32.725 56.0867 32.842 56.2127 32.959 56.3397C33.031 56.5537 33.143 56.7547 33.278 56.9177C33.585 57.2887 34.05 57.4747 34.527 57.4417C35.156 57.3987 35.781 56.9767 35.919 56.3277C36.299 54.5357 34.086 53.2497 32.963 52.1897Z" fill="#FFBF00"/>
<path d="M24.3047 57.4926C23.3757 56.2346 21.6257 55.5026 20.3977 54.5226C19.0697 53.4626 17.8987 52.2336 16.6097 51.1286C16.6047 51.1386 16.5997 51.1486 16.5947 51.1576C16.1007 50.7206 15.1197 51.2226 15.5497 52.0386C16.3167 53.4926 17.3877 54.7296 18.5287 55.9026C19.7827 57.1916 21.3587 59.0026 23.1567 59.3896C24.1887 59.6136 24.8927 58.2886 24.3047 57.4926Z" fill="#FFBF00"/>
<path d="M43.1187 34.3143C41.6587 33.1953 40.0387 32.2713 38.5597 31.1603C37.0507 30.0263 35.5857 28.6273 33.8417 27.8903C33.3727 27.6923 32.9847 28.2973 33.1847 28.6923C34.0157 30.3383 35.4957 31.6423 36.8067 32.9143C38.2037 34.2703 39.5677 35.7853 41.1007 36.9803C42.8017 38.3073 44.8277 35.6233 43.1187 34.3143Z" fill="#FFBF00"/>
<path d="M34.6565 11.1646C34.0015 10.5376 33.3405 9.91659 32.6705 9.30459C31.4825 8.21759 30.2365 6.86058 28.7405 6.22858C28.0585 5.74858 27.0875 6.68959 27.4835 7.41559C28.2685 8.85759 29.7755 9.92759 30.9185 11.0926C32.0785 12.2756 33.1695 13.5216 34.3145 14.7186C34.7095 15.1316 35.4515 15.3396 35.9715 15.0126C36.0545 14.9606 36.1385 14.9076 36.2215 14.8556C36.3435 14.7596 36.4325 14.6396 36.4895 14.4956C36.4225 12.9026 35.6945 12.1586 34.6565 11.1646Z" fill="#FFBF00"/>
<path d="M39.2987 23.4932C38.1787 22.0602 36.7077 20.8682 35.3367 19.6802C33.8547 18.3952 32.3427 16.9902 30.6697 15.9602C29.7247 15.3782 28.9347 16.6652 29.6247 17.2312C30.8257 18.4722 32.1887 19.5662 33.4327 20.7662C34.8397 22.1232 36.1127 23.6912 37.6047 24.9472C38.5387 25.7322 40.1147 24.5372 39.2987 23.4932Z" fill="#FFBF00"/>
<path d="M17.3461 45.9416C16.9471 44.8826 15.7961 44.3936 14.8861 43.8136C13.9731 43.2306 13.0461 42.4476 11.9911 42.1556C11.6641 42.0656 11.1971 42.3966 11.4191 42.7636C12.0411 43.7976 13.1241 44.5416 14.0221 45.3296C14.7441 45.9636 15.4851 46.9156 16.5061 46.9626C17.0581 46.9886 17.5661 46.5266 17.3461 45.9416Z" fill="#FFBF00"/>
</svg>
