<svg width="105" height="60" viewBox="0 0 105 60" fill="none" xmlns="http://www.w3.org/2000/svg">
<path d="M18.9771 8.01395C18.3051 2.41695 10.4131 -1.50606 7.42207 4.73694C6.35207 6.96994 6.52607 10.0539 8.72007 11.5599C10.8961 13.0529 13.2971 11.965 14.2271 9.69495C14.7071 8.52295 12.8171 7.98895 12.3351 9.14695C9.30506 9.66295 8.18205 8.73396 8.96705 6.35996C9.42505 4.68496 10.539 3.76595 12.307 3.60395C14.588 3.53895 16.3351 5.49995 16.8321 7.53495C17.6641 10.9409 16.0031 15.3689 12.6981 16.7719C9.64507 18.0679 6.30306 16.943 4.18406 14.502C1.87606 11.843 1.66205 8.91495 2.22605 5.62195C2.25505 5.45595 2.06705 5.25795 1.90205 5.38095C-3.39295 9.31195 3.57007 17.9649 8.16007 18.9829C14.7411 20.4409 19.7321 14.308 18.9771 8.01395Z" fill="#87AEC6"/>
<path d="M77.2569 0.393634C75.3849 -0.419366 73.124 0.0776584 71.63 1.41866C68.826 3.93666 67.8669 11.7356 73.0369 12.0636C73.2309 12.0756 73.2889 11.7867 73.1239 11.7027C68.5729 9.41265 71.2659 -0.33635 76.5069 1.93465C78.4409 2.77265 79.1339 5.94465 78.4779 7.80965C77.8779 9.51565 75.8059 10.4206 74.3319 9.02864C73.6389 8.30264 73.3859 7.44666 73.5729 6.46166C73.7639 5.11966 74.4739 4.82766 75.7009 5.58666C75.8779 6.24166 76.8649 6.44865 77.1039 5.70265C77.6739 3.92765 75.7769 2.60263 74.1339 3.21663C71.9299 4.03963 71.2879 6.92766 72.1729 8.90166C73.0599 10.8797 75.332 11.9297 77.406 11.2247C79.493 10.5157 80.4569 8.25166 80.3959 6.18566C80.3279 3.94566 79.4479 1.34463 77.2569 0.393634Z" fill="#FFBF00"/>
<path d="M104.3 53.3177C103.519 51.3587 99.3798 49.5607 98.0868 51.8487C97.9958 52.0097 98.1948 52.1617 98.3398 52.0797C99.3758 51.4927 101.442 52.0357 102.305 52.7867C103.709 54.0077 103.076 55.9987 101.866 57.0587C101.037 57.7837 99.6138 58.5937 98.4738 58.3147C96.9228 57.9357 97.0438 56.6277 97.6668 55.5867C97.9788 54.9837 98.4608 54.6297 99.1148 54.5257C100.068 54.8697 100.383 55.3497 100.059 55.9647C99.8098 56.6697 100.771 57.0067 101.177 56.4807C101.892 55.5547 101.622 54.2297 100.677 53.5417C99.5978 52.7557 98.1108 53.0737 97.1658 53.9077C94.6848 56.0987 95.7738 60.2347 99.3698 59.8647C102.309 59.5617 105.54 56.4277 104.3 53.3177Z" fill="#FFAA8A"/>
</svg>
