<svg width="60" height="60" viewBox="0 0 60 60" fill="none" xmlns="http://www.w3.org/2000/svg">
<g clip-path="url(#clip0_1_3112)">
<path d="M60 31.2439C60 26.925 56.8789 23.2626 52.6723 22.5305C49.9406 16.1188 44.5815 10.974 37.7906 8.69911L39.9224 6.56688C40.568 5.92235 40.7252 4.97641 40.3235 4.15715C39.8975 3.28833 38.9811 2.81899 38.1012 3.01165L32.3468 4.27903C31.8446 3.51344 30.9817 3.00473 29.9999 3.00473C29.0181 3.00473 28.1551 3.51344 27.653 4.27903L21.8987 3.01176C21.0156 2.81911 20.1019 3.28833 19.6764 4.15727C19.2746 4.97653 19.4319 5.92247 20.077 6.56653L22.209 8.69934C15.4184 10.9742 10.0594 16.119 7.32773 22.5305C3.12105 23.2626 0 26.925 0 31.2439C0 35.2229 2.71242 38.7312 6.51117 39.775C9.69281 49.7719 19.0178 57.0315 30 57.0315C40.9822 57.0315 50.3072 49.7719 53.4888 39.775C57.2876 38.7313 60 35.2229 60 31.2439ZM38.4497 4.59532C38.6181 4.55946 38.787 4.70665 38.8678 4.87083C38.9618 5.06348 38.928 5.26833 38.7765 5.41985L36.4528 7.74356C36.057 8.13942 35.8389 8.66676 35.8389 9.22844C35.8389 9.79012 36.0568 10.3175 36.4528 10.7129L38.7765 13.037C38.928 13.1886 38.9624 13.3939 38.8678 13.5861C38.7871 13.7502 38.6239 13.8975 38.4497 13.8616L32.8083 12.6189V5.83798L38.4497 4.59532ZM28.8134 5.81313C28.8134 5.15852 29.3455 4.62649 30 4.62649C30.6546 4.62649 31.1866 5.15864 31.1866 5.81313V12.6438C31.1866 13.2984 30.6545 13.8304 30 13.8304C29.3454 13.8304 28.8134 13.2982 28.8134 12.6438V5.81313ZM21.1323 4.87094C21.213 4.70676 21.3768 4.55899 21.5504 4.59544L27.1918 5.83809V12.6191L21.5504 13.8618C21.3826 13.8972 21.2132 13.7509 21.1323 13.5863C21.0379 13.3941 21.0721 13.1888 21.2236 13.0373L23.5473 10.7136C23.9432 10.3177 24.1612 9.79036 24.1612 9.22868C24.1612 8.667 23.9433 8.13965 23.5473 7.74426L21.2231 5.4195C21.0721 5.26833 21.0383 5.0636 21.1323 4.87094ZM1.62164 31.2439C1.62164 28.0575 3.69855 25.3043 6.63141 24.3602C5.79293 26.8546 5.34105 29.5067 5.34105 32.2315C5.34105 34.1757 5.57191 36.0657 5.99461 37.8821C3.39738 36.7564 1.62164 34.1539 1.62164 31.2439ZM30 55.4098C17.2973 55.4098 6.96258 45.0123 6.96258 32.2315C6.96258 22.8576 12.672 14.4072 21.1226 10.8447L20.077 11.8906C19.4319 12.5357 19.2746 13.4811 19.6764 14.2999C20.0385 15.0378 20.7521 15.4886 21.5002 15.4886C21.6327 15.4886 21.7662 15.4743 21.8987 15.4454L27.6531 14.178C28.1552 14.9436 29.0182 15.4523 30 15.4523C30.9818 15.4523 31.8448 14.9436 32.3469 14.178L38.1013 15.4454C38.2343 15.4744 38.3673 15.4886 38.4998 15.4886C39.2479 15.4886 39.9615 15.0378 40.3236 14.2999C40.7254 13.4812 40.5681 12.5357 39.923 11.8906L38.8778 10.8449C47.3282 14.4074 53.0374 22.8578 53.0374 32.2315C53.0374 45.0123 42.7027 55.4098 30 55.4098ZM54.0055 37.8821C54.4282 36.0656 54.6591 34.1757 54.6591 32.2315C54.6591 29.5067 54.2072 26.8547 53.3688 24.3603C56.3016 25.3046 58.3785 28.0581 58.3785 31.2439C58.3784 34.1539 56.6026 36.7564 54.0055 37.8821ZM18.4237 23.1215C16.421 23.1215 14.7915 25.2889 14.7915 27.9536C14.7915 30.6183 16.421 32.7863 18.4237 32.7863C20.4265 32.7863 22.056 30.6183 22.056 27.9536C22.056 25.2889 20.4265 23.1215 18.4237 23.1215ZM18.4237 24.7431C19.2563 24.7431 19.9882 25.6014 20.2884 26.7817C19.6629 26.521 18.9887 26.379 18.3018 26.379C17.7095 26.379 17.133 26.4806 16.5879 26.6723C16.9046 25.5488 17.6173 24.7431 18.4237 24.7431ZM18.4237 31.1647C17.4579 31.1647 16.6264 30.0093 16.4493 28.5353C17.0067 28.1914 17.6379 28.0006 18.3019 28.0006C19.0511 28.0006 19.7745 28.2502 20.3769 28.6873C20.1625 30.0877 19.3561 31.1647 18.4237 31.1647ZM41.5767 23.1215C39.5734 23.1215 37.9439 25.2889 37.9439 27.9536C37.9439 30.6183 39.5734 32.7863 41.5767 32.7863C43.5795 32.7863 45.2089 30.6183 45.2089 27.9536C45.2089 25.2889 43.5795 23.1215 41.5767 23.1215ZM41.5767 24.7431C42.4073 24.7431 43.1381 25.5975 43.4395 26.7738C42.8193 26.5183 42.1519 26.3791 41.4722 26.3791C40.8725 26.3791 40.2892 26.4835 39.7382 26.68C40.054 25.5524 40.7685 24.7431 41.5767 24.7431ZM41.5767 31.1647C40.6131 31.1647 39.7826 30.0148 39.6027 28.5459C40.1641 28.1951 40.8015 28.0006 41.4722 28.0006C42.2149 28.0006 42.9321 28.2463 43.5315 28.6764C43.3198 30.0822 42.5116 31.1647 41.5767 31.1647ZM37.9736 40.2547C37.9736 44.6513 34.3966 48.2282 30 48.2282C25.6034 48.2282 22.0264 44.6513 22.0264 40.2547C22.0264 39.807 22.3896 39.4438 22.8373 39.4438C23.2849 39.4438 23.6481 39.807 23.6481 40.2547C23.6481 43.757 26.4975 46.6066 30 46.6066C33.5025 46.6066 36.3519 43.7572 36.3519 40.2547C36.3519 39.807 36.7151 39.4438 37.1627 39.4438C37.6104 39.4438 37.9736 39.807 37.9736 40.2547Z" fill="white"/>
</g>
<defs>
<clipPath id="clip0_1_3112">
<rect width="60" height="60" fill="white"/>
</clipPath>
</defs>
</svg>
