<svg width="60" height="60" viewBox="0 0 60 60" fill="none" xmlns="http://www.w3.org/2000/svg">
<path d="M57.3423 21.9413C57.0536 20.6071 56.2803 19.4274 55.1719 18.6305C54.0636 17.8336 52.699 17.4761 51.3423 17.6273L54.0003 13.4573C54.0867 13.3243 54.1169 13.1625 54.0843 13.0073C54.0516 12.8522 53.9589 12.7163 53.8263 12.6293L41.1123 4.44531C40.5613 4.08739 39.945 3.84192 39.2988 3.72299C38.6526 3.60406 37.9893 3.61402 37.3469 3.7523C36.7046 3.89057 36.0959 4.15445 35.5559 4.52874C35.0159 4.90303 34.5552 5.38037 34.2003 5.93331L26.0343 18.6413C25.9486 18.775 25.9194 18.9373 25.9531 19.0925C25.9869 19.2477 26.0808 19.3832 26.2143 19.4693L31.5723 22.9253C31.6729 22.9911 31.7909 23.0252 31.911 23.0232C32.0312 23.0211 32.148 22.9831 32.2462 22.9139C32.3445 22.8447 32.4197 22.7476 32.4622 22.6352C32.5046 22.5228 32.5123 22.4002 32.4843 22.2833C32.3517 21.7177 32.3365 21.1308 32.4397 20.5591C32.5429 19.9874 32.7623 19.4429 33.0843 18.9593C33.7233 18.0408 34.6938 17.406 35.7914 17.1887C36.8891 16.9713 38.0282 17.1883 38.9691 17.7941C39.9099 18.3998 40.579 19.3469 40.8355 20.436C41.092 21.5252 40.9159 22.6714 40.3443 23.6333C40.0323 24.1222 39.624 24.5424 39.1444 24.8683C38.6647 25.1943 38.1237 25.4192 37.5543 25.5293C37.436 25.5511 37.327 25.6079 37.2414 25.6925C37.1558 25.777 37.0976 25.8853 37.0743 26.0033C37.0554 26.1181 37.0702 26.236 37.1171 26.3425C37.164 26.4491 37.2408 26.5397 37.3383 26.6033L42.6003 30.0293C42.734 30.115 42.8963 30.1442 43.0515 30.1105C43.2067 30.0767 43.3422 29.9828 43.4283 29.8493L46.6863 24.7913C47.123 26.1359 48.0591 27.2617 49.3014 27.9366C50.5437 28.6115 51.9976 28.7839 53.3633 28.4185C54.729 28.053 55.9024 27.1774 56.6416 25.9723C57.3809 24.7672 57.6295 23.3243 57.3363 21.9413H57.3423ZM55.5723 25.4453C55.0694 26.2243 54.3288 26.8205 53.4605 27.1456C52.5921 27.4706 51.6421 27.5073 50.7513 27.2501C49.8605 26.9928 49.0762 26.4555 48.5148 25.7175C47.9534 24.9796 47.6446 24.0805 47.6343 23.1533C47.634 23.0239 47.5918 22.8981 47.5141 22.7946C47.4365 22.6912 47.3274 22.6156 47.2033 22.5791C47.0791 22.5427 46.9465 22.5474 46.8252 22.5925C46.704 22.6375 46.6005 22.7206 46.5303 22.8293L42.7503 28.6973L39.0243 26.2973C39.9151 25.8784 40.6776 25.2286 41.2324 24.4155C41.7873 23.6024 42.1144 22.6555 42.1797 21.6733C42.245 20.691 42.0461 19.7092 41.6038 18.8298C41.1614 17.9504 40.4917 17.2054 39.6642 16.6722C38.8367 16.1391 37.8815 15.8372 36.8979 15.7979C35.9142 15.7586 34.938 15.9834 34.0706 16.4488C33.2032 16.9143 32.4762 17.6035 31.9651 18.4448C31.4541 19.2862 31.1775 20.249 31.1643 21.2333L27.3663 18.7853L35.2263 6.59931C35.7698 5.75523 36.6263 5.16159 37.6075 4.94893C38.5886 4.73628 39.6141 4.92202 40.4583 5.46531L52.6623 13.3253L49.4583 18.2993C49.3885 18.4077 49.3556 18.5357 49.3642 18.6642C49.3728 18.7928 49.4227 18.9152 49.5063 19.0133C49.5896 19.1114 49.7022 19.1801 49.8275 19.2092C49.9529 19.2384 50.0842 19.2265 50.2023 19.1753C51.0523 18.7889 52.0048 18.6887 52.9166 18.8897C53.8285 19.0908 54.6504 19.5823 55.2591 20.2904C55.8678 20.9985 56.2303 21.8849 56.2922 22.8166C56.3541 23.7483 56.112 24.6749 55.6023 25.4573L55.5723 25.4453Z" fill="white"/>
<path d="M42.0004 37.0193H35.4844C35.3545 37.0183 35.2278 37.0595 35.1233 37.1367C35.0188 37.2139 34.9422 37.323 34.905 37.4474C34.8678 37.5719 34.872 37.7051 34.917 37.8269C34.962 37.9488 35.0453 38.0528 35.1544 38.1233C35.9312 38.6339 36.5225 39.3815 36.8406 40.2549C37.1587 41.1284 37.1866 42.0811 36.9201 42.9717C36.6536 43.8622 36.1069 44.643 35.3613 45.1982C34.6157 45.7533 33.711 46.0532 32.7814 46.0532C31.8518 46.0532 30.947 45.7533 30.2015 45.1982C29.4559 44.643 28.9092 43.8622 28.6427 42.9717C28.3762 42.0811 28.4041 41.1284 28.7222 40.2549C29.0403 39.3815 29.6316 38.6339 30.4084 38.1233C30.5175 38.0528 30.6008 37.9488 30.6458 37.8269C30.6907 37.7051 30.6949 37.5719 30.6577 37.4474C30.6205 37.323 30.5439 37.2139 30.4395 37.1367C30.335 37.0595 30.2083 37.0183 30.0784 37.0193H23.1004V32.5853C23.9357 33.1101 24.8963 33.4015 25.8824 33.4291C26.8684 33.4568 27.8439 33.2197 28.7073 32.7425C29.5706 32.2653 30.2904 31.5655 30.7915 30.7158C31.2927 29.8662 31.5571 28.8977 31.5571 27.9113C31.5571 26.9248 31.2927 25.9564 30.7915 25.1067C30.2904 24.2571 29.5706 23.5573 28.7073 23.0801C27.8439 22.6029 26.8684 22.3658 25.8824 22.3935C24.8963 22.4211 23.9357 22.7125 23.1004 23.2373V18.1193C23.1004 17.9602 23.0372 17.8075 22.9247 17.695C22.8121 17.5825 22.6595 17.5193 22.5004 17.5193H7.38639C6.06451 17.5209 4.79722 18.0467 3.86251 18.9814C2.9278 19.9161 2.40198 21.1834 2.40039 22.5053V52.7333C2.40198 54.0552 2.9278 55.3225 3.86251 56.2572C4.79722 57.1919 6.06451 57.7177 7.38639 57.7193H37.6144C38.9363 57.7177 40.2036 57.1919 41.1383 56.2572C42.073 55.3225 42.5988 54.0552 42.6004 52.7333V37.6193C42.6004 37.4602 42.5372 37.3075 42.4247 37.195C42.3121 37.0825 42.1595 37.0193 42.0004 37.0193ZM3.60039 22.5053C3.60198 21.5017 4.00137 20.5396 4.71104 19.8299C5.42071 19.1203 6.38277 18.7209 7.38639 18.7193H21.9004V24.4973C21.9015 24.6164 21.938 24.7326 22.0053 24.8309C22.0726 24.9292 22.1677 25.0052 22.2784 25.0493C22.3888 25.0937 22.5099 25.1044 22.6264 25.0798C22.7428 25.0552 22.8494 24.9966 22.9324 24.9113C23.3329 24.4924 23.8144 24.1593 24.3477 23.9324C24.881 23.7054 25.4548 23.5894 26.0344 23.5913C27.1515 23.6329 28.2089 24.106 28.9845 24.911C29.7601 25.7161 30.1934 26.7904 30.1934 27.9083C30.1934 29.0262 29.7601 30.1005 28.9845 30.9055C28.2089 31.7106 27.1515 32.1836 26.0344 32.2253C25.4556 32.2278 24.8825 32.112 24.3501 31.885C23.8177 31.658 23.3373 31.3246 22.9384 30.9053C22.8549 30.8188 22.7473 30.7594 22.6296 30.7348C22.5119 30.7102 22.3896 30.7215 22.2784 30.7673C22.1677 30.8114 22.0726 30.8874 22.0053 30.9857C21.938 31.084 21.9015 31.2001 21.9004 31.3193V37.0193H16.5964C17.1994 36.1966 17.5627 35.223 17.646 34.2064C17.7292 33.1898 17.5292 32.17 17.068 31.2602C16.6069 30.3504 15.9027 29.5862 15.0336 29.0523C14.1644 28.5185 13.1644 28.2358 12.1444 28.2358C11.1244 28.2358 10.1243 28.5185 9.25522 29.0523C8.38609 29.5862 7.68189 30.3504 7.22074 31.2602C6.7596 32.17 6.55955 33.1898 6.64281 34.2064C6.72607 35.223 7.08936 36.1966 7.69239 37.0193H3.60039V22.5053ZM3.60039 52.7333V38.2193H9.10239C9.22642 38.2188 9.34725 38.1799 9.44825 38.1079C9.54925 38.0359 9.62546 37.9344 9.66639 37.8173C9.70656 37.6994 9.70908 37.572 9.6736 37.4527C9.63813 37.3334 9.56641 37.228 9.46839 37.1513C8.76296 36.5957 8.2482 35.834 7.99569 34.9723C7.74319 34.1106 7.7655 33.1915 8.05952 32.3431C8.35353 31.4946 8.90464 30.7588 9.63621 30.2381C10.3678 29.7174 11.2434 29.4375 12.1414 29.4375C13.0394 29.4375 13.915 29.7174 14.6466 30.2381C15.3781 30.7588 15.9292 31.4946 16.2233 32.3431C16.5173 33.1915 16.5396 34.1106 16.2871 34.9723C16.0346 35.834 15.5198 36.5957 14.8144 37.1513C14.7199 37.2268 14.6505 37.329 14.6152 37.4447C14.5798 37.5603 14.5803 37.6839 14.6164 37.7993C14.6577 37.9173 14.7348 38.0195 14.837 38.0916C14.9392 38.1637 15.0613 38.202 15.1864 38.2013H21.9004V44.5493C21.0874 43.9038 20.1089 43.5006 19.0772 43.386C18.0455 43.2714 17.0024 43.4501 16.0676 43.9015C15.1328 44.3529 14.3442 45.0587 13.7924 45.9379C13.2406 46.8172 12.9479 47.8342 12.9479 48.8723C12.9479 49.9104 13.2406 50.9274 13.7924 51.8066C14.3442 52.6859 15.1328 53.3917 16.0676 53.8431C17.0024 54.2945 18.0455 54.4731 19.0772 54.3586C20.1089 54.244 21.0874 53.8408 21.9004 53.1953V56.5193H7.38639C6.38277 56.5177 5.42071 56.1183 4.71104 55.4086C4.00137 54.699 3.60198 53.7369 3.60039 52.7333ZM41.4004 52.7333C41.3988 53.7369 40.9994 54.699 40.2897 55.4086C39.5801 56.1183 38.618 56.5177 37.6144 56.5193H23.1004V51.7193C23.1064 51.5869 23.0685 51.4563 22.9926 51.3478C22.9166 51.2392 22.8068 51.1589 22.6804 51.1193C22.5587 51.0809 22.4279 51.0823 22.3071 51.1233C22.1862 51.1643 22.0816 51.2428 22.0084 51.3473C21.4809 52.0991 20.7276 52.6633 19.8577 52.958C18.9879 53.2526 18.0468 53.2623 17.171 52.9858C16.2952 52.7092 15.5303 52.1607 14.9875 51.42C14.4446 50.6792 14.1519 49.7847 14.1519 48.8663C14.1519 47.9479 14.4446 47.0534 14.9875 46.3126C15.5303 45.5718 16.2952 45.0234 17.171 44.7468C18.0468 44.4702 18.9879 44.48 19.8577 44.7746C20.7276 45.0693 21.4809 45.6334 22.0084 46.3853C22.0816 46.4898 22.1862 46.5683 22.3071 46.6093C22.4279 46.6503 22.5587 46.6517 22.6804 46.6133C22.8068 46.5737 22.9166 46.4933 22.9926 46.3848C23.0685 46.2763 23.1064 46.1456 23.1004 46.0133V38.2133H28.5004C27.8358 39.0212 27.4144 40.0014 27.2855 41.0396C27.1565 42.0778 27.3253 43.1313 27.772 44.0773C28.2188 45.0233 28.9252 45.8228 29.8089 46.3828C30.6926 46.9427 31.7172 47.24 32.7634 47.24C33.8096 47.24 34.8342 46.9427 35.7179 46.3828C36.6016 45.8228 37.308 45.0233 37.7548 44.0773C38.2015 43.1313 38.3703 42.0778 38.2413 41.0396C38.1123 40.0014 37.691 39.0212 37.0264 38.2133H41.4004V52.7333Z" fill="white"/>
</svg>
