<svg width="18" height="26" viewBox="0 0 18 26" fill="none" xmlns="http://www.w3.org/2000/svg">
<path d="M16 11.25H14.25V6C14.25 4.60761 13.6969 3.27226 12.7123 2.28769C11.7277 1.30312 10.3924 0.75 9 0.75C7.60761 0.75 6.27226 1.30312 5.28769 2.28769C4.30312 3.27226 3.75 4.60761 3.75 6V11.25H2C1.53587 11.25 1.09075 11.4344 0.762563 11.7626C0.434374 12.0908 0.25 12.5359 0.25 13V23.5C0.25 23.9641 0.434374 24.4092 0.762563 24.7374C1.09075 25.0656 1.53587 25.25 2 25.25H16C16.4641 25.25 16.9092 25.0656 17.2374 24.7374C17.5656 24.4092 17.75 23.9641 17.75 23.5V13C17.75 12.5359 17.5656 12.0908 17.2374 11.7626C16.9092 11.4344 16.4641 11.25 16 11.25ZM5.5 6C5.5 5.07174 5.86875 4.1815 6.52513 3.52513C7.1815 2.86875 8.07174 2.5 9 2.5C9.92826 2.5 10.8185 2.86875 11.4749 3.52513C12.1313 4.1815 12.5 5.07174 12.5 6V11.25H5.5V6ZM16 23.5H2V13H16V23.5Z" fill="#961111"/>
<path d="M16 11.25H14.25V6C14.25 4.60761 13.6969 3.27226 12.7123 2.28769C11.7277 1.30312 10.3924 0.75 9 0.75C7.60761 0.75 6.27226 1.30312 5.28769 2.28769C4.30312 3.27226 3.75 4.60761 3.75 6V11.25H2C1.53587 11.25 1.09075 11.4344 0.762563 11.7626C0.434374 12.0908 0.25 12.5359 0.25 13V23.5C0.25 23.9641 0.434374 24.4092 0.762563 24.7374C1.09075 25.0656 1.53587 25.25 2 25.25H16C16.4641 25.25 16.9092 25.0656 17.2374 24.7374C17.5656 24.4092 17.75 23.9641 17.75 23.5V13C17.75 12.5359 17.5656 12.0908 17.2374 11.7626C16.9092 11.4344 16.4641 11.25 16 11.25ZM5.5 6C5.5 5.07174 5.86875 4.1815 6.52513 3.52513C7.1815 2.86875 8.07174 2.5 9 2.5C9.92826 2.5 10.8185 2.86875 11.4749 3.52513C12.1313 4.1815 12.5 5.07174 12.5 6V11.25H5.5V6ZM16 23.5H2V13H16V23.5Z" fill="#262626"/>
</svg>
