<svg width="26" height="22" viewBox="0 0 26 22" fill="none" xmlns="http://www.w3.org/2000/svg">
<path fill-rule="evenodd" clip-rule="evenodd" d="M2.5 14.5H23.5C23.9639 14.4994 24.4087 14.3148 24.7367 13.9867C25.0648 13.6587 25.2494 13.2139 25.25 12.75V2.25C25.2488 1.78623 25.0641 1.3418 24.7361 1.01386C24.4082 0.685931 23.9638 0.501178 23.5 0.5H2.5C2.03623 0.501178 1.5918 0.685931 1.26386 1.01386C0.935931 1.3418 0.751178 1.78623 0.75 2.25V12.75C0.751178 13.2138 0.935931 13.6582 1.26386 13.9861C1.5918 14.3141 2.03623 14.4988 2.5 14.5ZM2.5 2.25H23.5V12.75H2.5V2.25ZM11.0555 10.4101C11.6311 10.7947 12.3078 11 13 11C13.9279 10.999 14.8176 10.6299 15.4737 9.97372C16.1299 9.31757 16.499 8.42794 16.5 7.5C16.5 6.80777 16.2947 6.13108 15.9101 5.55551C15.5256 4.97993 14.9789 4.53133 14.3394 4.26642C13.6999 4.00152 12.9961 3.9322 12.3172 4.06725C11.6383 4.2023 11.0146 4.53564 10.5251 5.02513C10.0356 5.51461 9.7023 6.13825 9.56725 6.81719C9.43221 7.49612 9.50152 8.19985 9.76642 8.83939C10.0313 9.47894 10.4799 10.0256 11.0555 10.4101ZM12.0278 6.04493C12.3155 5.85264 12.6539 5.75 13 5.75C13.464 5.75047 13.9088 5.93499 14.2369 6.26308C14.565 6.59117 14.7495 7.03602 14.75 7.5C14.75 7.84612 14.6474 8.18446 14.4551 8.47225C14.2628 8.76004 13.9895 8.98434 13.6697 9.11679C13.3499 9.24924 12.9981 9.2839 12.6586 9.21638C12.3191 9.14885 12.0073 8.98218 11.7626 8.73744C11.5178 8.4927 11.3512 8.18088 11.2836 7.84141C11.2161 7.50194 11.2508 7.15008 11.3832 6.83031C11.5157 6.51054 11.74 6.23722 12.0278 6.04493ZM20 5.75C19.6539 5.75 19.3155 5.85264 19.0278 6.04493C18.74 6.23722 18.5157 6.51053 18.3832 6.8303C18.2508 7.15007 18.2161 7.50194 18.2836 7.84141C18.3512 8.18087 18.5178 8.49269 18.7626 8.73744C19.0073 8.98218 19.3191 9.14885 19.6586 9.21637C19.9981 9.2839 20.3499 9.24924 20.6697 9.11679C20.9895 8.98434 21.2628 8.76003 21.4551 8.47225C21.6474 8.18446 21.75 7.84612 21.75 7.5C21.75 7.03587 21.5656 6.59075 21.2374 6.26256C20.9093 5.93437 20.4641 5.75 20 5.75ZM0.75 16.25H25.25V18H0.75V16.25ZM0.75 19.75H25.25V21.5H0.75V19.75ZM6 5.75C5.65388 5.75 5.31554 5.85264 5.02775 6.04493C4.73997 6.23722 4.51567 6.51053 4.38321 6.8303C4.25076 7.15007 4.2161 7.50194 4.28363 7.84141C4.35115 8.18087 4.51782 8.49269 4.76256 8.73744C5.00731 8.98218 5.31913 9.14885 5.65859 9.21637C5.99806 9.2839 6.34993 9.24924 6.6697 9.11679C6.98947 8.98434 7.26278 8.76003 7.45507 8.47225C7.64737 8.18446 7.75 7.84612 7.75 7.5C7.75 7.03587 7.56563 6.59075 7.23744 6.26256C6.90925 5.93437 6.46413 5.75 6 5.75Z" fill="#262626"/>
</svg>
