<svg width="82" height="70" viewBox="0 0 82 70" fill="none" xmlns="http://www.w3.org/2000/svg">
<path opacity="0.5" d="M81.6323 31.7641C80.6169 29.9365 79.6016 28.312 78.3832 26.6875C77.9771 26.6875 77.7741 26.4845 77.7741 26.4845L64.7781 24.6569L58.8892 12.6762C58.4831 11.864 57.8739 11.0517 57.4678 10.2395C56.8586 9.22417 55.8433 7.80273 54.4219 8.81804C53.2035 9.83336 51.579 12.8793 51.579 12.8793L45.8932 24.4539L33.1003 26.2814C33.1003 26.2814 32.8972 26.2814 32.6942 26.2814C32.085 27.0937 31.4758 27.9059 30.6635 28.9212C30.0544 29.7335 29.6483 30.5457 29.0391 31.358C29.8513 32.1702 30.4605 32.7794 31.2728 33.5917C31.4758 33.7947 31.6789 33.9978 31.8819 34.2009L40.2075 42.3234L37.9738 54.9132L37.7707 56.1316C37.5677 57.35 37.5677 58.7714 37.7707 59.9898C38.1769 61.6143 40.0044 61.0051 41.2228 60.599C42.2381 60.1929 43.4565 59.5837 44.4718 58.9745C44.6749 58.7714 45.081 58.7714 45.2841 58.5684L55.4372 53.2887L65.5903 58.5684C65.7934 58.7714 66.1995 58.7714 66.4026 58.9745C67.4179 59.5837 68.6363 59.9898 69.6516 60.599C70.6669 61.0051 72.4944 61.6143 73.1036 59.9898C73.5097 58.3653 73.3067 56.5377 72.9006 54.7102L70.6669 42.1203L81.0231 31.9672C81.2262 32.1702 81.4292 31.9672 81.6323 31.7641Z" fill="#661812"/>
<path d="M81.4291 27.9003C80.2107 27.0881 78.3832 26.6819 76.9617 26.4789L64.5749 24.6513L58.8891 13.2798C58.483 12.4676 58.0769 11.6553 57.4677 10.8431C56.8585 9.82775 55.8432 8.60938 54.6248 9.42163C53.4065 10.4369 52.5942 12.0614 51.985 13.2798L46.5023 24.4483L34.3186 26.2758C32.8971 26.4789 31.0696 26.885 29.8512 27.6973C28.6328 28.5095 29.6481 29.9309 30.4603 30.7432C31.2726 31.5554 32.0849 32.3677 32.694 33.1799C32.8971 33.383 33.1002 33.5861 33.3033 33.7891L41.2227 41.5055L39.1921 53.4862V53.6893L38.989 54.7046C38.7859 55.923 38.7859 57.1413 38.989 58.3597C39.3951 59.9842 41.2227 59.375 42.238 58.9689C43.2533 58.5628 44.2686 57.9536 45.2839 57.5475C45.487 57.3444 45.6901 57.3444 46.0962 57.1413L55.6402 52.0648L65.1841 57.1413C65.3871 57.3444 65.5902 57.3444 65.9963 57.5475C67.0116 58.1566 68.0269 58.5628 69.0422 58.9689C70.0575 59.375 71.8851 59.9842 72.2912 58.3597C72.6974 56.7352 72.4943 54.9076 72.0882 53.4862L70.0575 41.5055L80.0077 31.9616C80.4138 31.5554 80.6168 31.3524 81.023 30.9463C81.6322 30.134 82.6474 28.7126 81.4291 27.9003Z" fill="#ED9335"/>
<path d="M81.0228 27.0917C79.8044 26.2795 76.5554 25.6703 76.5554 25.6703L64.1685 23.8427L58.4828 12.4712C58.0767 11.659 57.6705 10.8467 57.0613 10.0345C56.4522 9.01915 55.4369 7.80078 54.2185 8.61303C53.0001 9.62835 51.5787 12.4712 51.5787 12.4712L46.096 23.6397L33.9122 25.4672C33.9122 25.4672 30.6632 26.0764 29.2418 27.0917C28.0234 27.904 29.0387 29.3254 29.851 30.1377C30.6632 30.9499 31.4755 31.7622 32.0847 32.5744C32.2877 32.7775 32.4908 32.9805 32.6938 33.1836L40.6133 40.9L38.5826 52.8807L38.3796 54.099C38.1766 55.3174 38.1766 56.7389 38.3796 57.7542C38.7857 59.3787 40.6133 58.7695 41.6286 58.3634C42.6439 57.9572 43.6592 57.3481 44.6745 56.9419C44.8776 56.7389 45.0807 56.7389 45.4868 56.5358L55.0307 51.4592L64.5747 56.5358C64.7777 56.7389 64.9808 56.7389 65.3869 56.9419C66.4022 57.5511 67.4175 57.9572 68.4329 58.3634C69.4482 58.7695 71.2757 59.3787 71.6819 57.7542C72.088 56.1297 71.8849 54.3021 71.4788 52.8807L69.4482 40.9L79.3982 31.356C79.8043 30.9499 80.0074 30.7468 80.4135 30.3407C81.2258 29.5285 82.4442 28.107 81.0228 27.0917Z" fill="#F8CB36"/>
<path d="M76.9622 27.9036C75.9469 27.0914 74.3223 26.8883 73.1039 26.6852L62.3416 25.0607L57.4682 15.3137C57.062 14.7046 56.6559 13.8923 56.2498 13.2831C55.8436 12.4709 54.8283 11.2525 53.813 12.0647C52.7977 12.877 51.9855 14.2984 51.5794 15.5168L46.9089 25.0607L36.3497 26.6852C35.1313 26.8883 33.5067 27.0914 32.4914 27.9036C31.4761 28.7159 32.2884 29.9342 32.8976 30.5434C33.5068 31.1526 34.319 31.9649 34.9282 32.5741C35.1313 32.7771 35.3344 32.9802 35.3344 32.9802L42.2385 39.6813L40.4109 50.0374V50.2405L40.2078 51.0528C40.0048 52.0681 40.0048 53.2864 40.2078 54.3018C40.614 55.7232 42.0354 55.114 43.0507 54.7079C44.066 54.3018 44.8782 53.8956 45.6905 53.4895C45.8936 53.2864 46.0967 53.2864 46.2997 53.0834L54.6253 48.616L62.9508 53.0834C63.1539 53.2864 63.357 53.2864 63.56 53.4895C64.3723 53.8956 65.3876 54.3018 66.1998 54.7079C67.0121 55.114 68.6366 55.5201 69.0427 54.3018C69.4488 52.8803 69.2458 51.4589 68.8397 50.0374L67.0121 39.6813L75.5407 31.3557C75.7438 31.1526 76.1499 30.7465 76.353 30.3404C77.1652 29.7312 78.1805 28.5128 76.9622 27.9036Z" fill="#FFF060"/>
<path d="M52.7966 13.2812L46.9078 25.0589C46.9078 25.0589 34.7241 26.6834 33.0996 27.4956L46.9078 26.6834C46.9078 26.6834 47.9232 26.8864 48.5324 25.6681C48.7354 24.0436 52.7966 13.2812 52.7966 13.2812Z" fill="white"/>
<path d="M52.3906 50.0355L54.6243 48.8171L65.3866 54.2998L55.2335 48.411C55.2335 48.411 55.0304 48.0048 54.2182 48.411C53.609 49.0202 52.3906 50.0355 52.3906 50.0355Z" fill="white"/>
<path opacity="0.5" d="M35.1299 53.078C34.9268 51.6566 34.5207 50.4382 34.3176 49.0168C34.1146 48.8137 33.9115 48.8137 33.9115 48.8137L25.992 44.5494L24.9767 35.4116C24.9767 34.8024 24.7736 34.1932 24.5706 33.3809C24.3675 32.5687 24.1645 31.3503 22.9461 31.7564C21.9308 32.1626 20.1032 33.7871 20.1032 33.7871L13.6052 39.879L4.87355 38.0514C4.87355 38.0514 4.87354 38.0514 4.67048 38.0514C4.06129 38.4575 3.45211 38.8636 2.84293 39.2698C2.23374 39.6759 1.82758 40.082 1.21839 40.4881C1.42145 41.0973 1.82756 41.9096 2.03063 42.5188C2.03063 42.7218 2.2337 42.9249 2.2337 43.128L5.68579 50.2351L1.21839 57.7485L0.8123 58.5607C0.406175 59.373 0 60.1852 0 60.9975C0 62.2158 1.21838 62.2158 2.03063 62.2158C2.84288 62.2158 3.65515 62.0128 4.4674 62.0128C4.67046 62.0128 4.8735 62.0128 5.07656 62.0128L12.793 60.9975L18.0726 66.8863C18.2757 67.0893 18.2756 67.0893 18.4787 67.2924C19.0879 67.9016 19.6971 68.5108 20.3063 69.12C20.9154 69.7291 21.9308 70.5414 22.54 69.5261C23.1491 68.5108 23.5553 67.2924 23.7583 66.074L25.3828 57.5454L34.5206 53.4841C34.7237 53.2811 34.9268 53.078 35.1299 53.078Z" fill="#661812"/>
<path d="M35.9426 50.4348C35.3334 49.6225 34.3181 49.0133 33.3028 48.4042L25.7894 44.3429L24.9772 35.8143C24.9772 35.2051 24.7741 34.5959 24.7741 33.9867C24.5711 33.1745 24.368 32.1591 23.3527 32.3622C22.3373 32.7683 21.5251 33.5806 20.7129 34.1898L14.621 40.0786L6.29541 38.251C5.2801 38.048 4.06171 37.8449 3.0464 38.048C2.03109 38.251 2.43725 39.4694 2.64031 40.0786C2.84338 40.6878 3.2495 41.5 3.65563 42.1092C3.65563 42.3123 3.8587 42.5153 3.8587 42.5153L7.10765 49.4195L2.84339 56.5267C2.84339 56.5267 2.84339 56.5267 2.84339 56.7297L2.43724 57.3389C2.03111 58.1512 1.625 58.9634 1.625 59.7757C1.625 60.791 2.84338 60.994 3.65563 60.994C4.46788 60.994 5.28009 60.791 6.09234 60.791C6.2954 60.791 6.4985 60.791 6.70156 60.791L14.0118 59.7757L18.8853 65.2584C19.0884 65.4614 19.0883 65.4614 19.2914 65.6645C19.9006 66.2737 20.3068 66.8829 20.9159 67.289C21.5251 67.8982 22.5405 68.5074 23.1496 67.6951C23.7588 66.8829 23.9619 65.4614 24.165 64.4461L25.7894 56.3236L34.5211 52.4654C34.9272 52.2623 35.1303 52.2623 35.3334 52.0593C35.5365 52.0593 36.5517 51.247 35.9426 50.4348Z" fill="#ED9335"/>
<path d="M35.7394 50.0285C35.1303 49.2163 33.0996 47.9979 33.0996 47.9979L25.5863 43.9366L24.7741 35.408C24.7741 34.7988 24.571 34.1896 24.571 33.5805C24.3679 32.7682 24.1649 31.7529 23.1496 31.956C22.1343 32.3621 20.5097 33.7835 20.5097 33.7835L14.4179 39.6723L6.09229 37.8448C6.09229 37.8448 3.85865 37.4386 2.84334 37.6417C1.82802 37.8448 2.23413 39.0631 2.43719 39.6723C2.64025 40.2815 3.04638 41.0938 3.4525 41.703C3.4525 41.906 3.65558 42.1091 3.65558 42.1091L6.90459 49.0132L2.64026 56.1204L2.23411 56.9327C1.82799 57.7449 1.42188 58.5572 1.42188 59.3694C1.42188 60.3847 2.64025 60.5878 3.4525 60.5878C4.26475 60.5878 5.07703 60.3847 5.88928 60.3847C6.09234 60.3847 6.29538 60.3847 6.49844 60.3847L13.8087 59.3694L18.6822 64.8521C18.8853 65.0552 18.8853 65.0552 19.0883 65.2582C19.6975 65.8674 20.1036 66.4766 20.7128 66.8827C21.322 67.4919 22.3373 68.1011 22.9465 67.2889C23.5557 66.4766 23.7588 65.0552 23.9618 64.0398L25.5863 55.9173L34.318 52.0592C34.7242 51.8561 34.9272 51.8561 35.3334 51.653C35.3334 51.45 36.3486 50.8408 35.7394 50.0285Z" fill="#F8CB36"/>
<path d="M33.1002 49.416C32.491 48.6038 31.6788 48.1976 30.8665 47.5884L24.3685 43.9333L23.5563 36.42C23.5563 35.8108 23.3532 35.4047 23.3532 34.7955C23.1501 34.1863 22.9471 33.171 22.1349 33.3741C21.3226 33.5771 20.5103 34.3894 19.9012 34.9986L14.6215 40.0751L7.51433 38.4506C6.70208 38.2476 5.68678 38.0445 4.67146 38.2476C3.85921 38.4506 4.06225 39.466 4.26531 40.0751C4.46838 40.6843 4.87449 41.2935 5.07755 41.9027C5.07755 42.1058 5.28063 42.1058 5.28063 42.3088L8.12349 48.1976L4.46839 54.4926C4.46839 54.4926 4.46839 54.4926 4.46839 54.6956L4.06224 55.3048C3.65611 55.914 3.45306 56.7263 3.25 57.3355C3.25 58.3508 4.26535 58.3508 4.87454 58.3508C5.48373 58.3508 6.29598 58.3508 6.90516 58.1477C7.10823 58.1477 7.31125 58.1477 7.31125 58.1477L13.6062 57.3355L17.8705 62.209C18.0736 62.412 18.0736 62.412 18.2766 62.6151C18.6827 63.0212 19.292 63.6304 19.6981 64.0365C20.1042 64.4426 21.1195 65.2549 21.5256 64.4426C22.1348 63.6304 22.3379 62.6151 22.5409 61.5998L23.9624 54.4926L31.4757 51.2436C31.6787 51.0405 32.0849 51.0405 32.288 50.8375C32.6941 50.6344 33.5063 50.2283 33.1002 49.416Z" fill="#FFF060"/>
<path d="M20.9169 34.1914L14.2158 40.2833C14.2158 40.2833 5.89025 38.4557 4.67188 38.4557L13.6066 41.0955C13.6066 41.0955 14.2158 41.5017 15.0281 40.6894C15.8403 40.2833 20.9169 34.1914 20.9169 34.1914Z" fill="white"/>
<path d="M11.9805 57.7481L13.6049 57.545L19.0877 63.6369L14.0111 57.342C14.0111 57.342 14.0111 56.9358 13.4019 57.1389C12.7927 57.545 11.9805 57.7481 11.9805 57.7481Z" fill="white"/>
<path opacity="0.5" d="M32.8971 3.93798C32.0849 3.53185 31.0696 2.92267 30.2573 2.51655C30.0543 2.51655 30.0543 2.51655 30.0543 2.51655L23.7593 4.95329L18.0736 1.09511C17.6674 0.892045 17.2613 0.485917 16.8552 0.282855C16.4491 0.079792 15.4337 -0.326329 15.2306 0.485922C15.0276 1.29817 15.0276 3.12573 15.0276 3.12573L15.4337 9.8268L10.1541 13.888C10.1541 13.888 10.1541 13.888 9.95107 14.0911C9.95107 14.7003 9.748 15.1064 9.748 15.7156C9.748 16.1217 9.74798 16.7309 9.54492 17.137C10.1541 17.3401 10.5602 17.3401 11.1694 17.5432C11.3725 17.5432 11.3725 17.5432 11.5755 17.7462L17.2613 19.1677L19.495 25.2596L19.6981 25.8687C19.9011 26.4779 20.3072 27.0871 20.7134 27.4932C21.3226 28.1024 21.9317 27.2902 22.3378 26.8841C22.744 26.4779 23.1501 25.8687 23.3532 25.4626C23.3532 25.2596 23.5562 25.2596 23.5562 25.0565L26.6022 20.183L32.288 19.9799C32.491 19.9799 32.491 19.9799 32.694 19.9799C33.3032 19.9799 33.9124 19.9799 34.5216 19.7769C35.1308 19.7769 36.1461 19.5738 35.9431 18.5585C35.74 17.7462 35.1308 16.934 34.5216 16.3248L30.4603 11.2482L32.491 4.14105C32.8971 4.14105 32.8971 3.93798 32.8971 3.93798Z" fill="#661812"/>
<path d="M31.8816 2.11439C31.0694 2.11439 30.2571 2.31745 29.4449 2.52052L23.5561 4.95726L18.2764 1.30214C17.8703 1.09907 17.4642 0.896015 17.0581 0.48989C16.652 0.286828 15.8397 -0.119301 15.4336 0.69295C15.2305 1.5052 15.2305 2.31745 15.2305 3.1297L15.6366 9.42464L10.7631 13.2828C10.154 13.689 9.54474 14.2981 9.13861 15.1104C8.73249 15.7196 9.54474 16.1257 10.1539 16.3288C10.7631 16.5318 11.1693 16.7349 11.7785 16.7349C11.9815 16.7349 11.9815 16.7349 12.1846 16.938L17.6673 18.3594L19.6979 24.2482C19.6979 24.2482 19.6979 24.2482 19.6979 24.4513L19.901 24.8574C20.104 25.4666 20.5102 26.0758 20.9163 26.4819C21.5255 27.0911 22.1346 26.2788 22.5408 25.8727C22.9469 25.4666 23.1499 24.8574 23.5561 24.4513C23.5561 24.2482 23.7591 24.2482 23.7591 24.0451L26.8051 19.3747L32.2878 19.1716C32.4909 19.1716 32.4908 19.1716 32.6939 19.1716C33.3031 19.1716 33.9122 19.1716 34.5214 18.9686C35.1306 18.9686 35.9429 18.7655 35.7398 17.9533C35.5368 17.141 34.9276 16.3288 34.3184 15.7196L30.4602 11.0491L32.2878 4.34807C32.2878 4.14501 32.4908 3.94195 32.4908 3.53583C32.4908 3.1297 32.6939 2.31745 31.8816 2.11439Z" fill="#ED9335"/>
<path d="M31.4753 1.90735C30.6631 1.90735 29.0386 2.31348 29.0386 2.31348L23.1498 4.75023L17.8702 1.09511C17.4641 0.892045 17.0579 0.68898 16.6518 0.282855C16.2457 0.079792 15.4334 -0.326329 15.0273 0.485922C14.8243 1.29817 14.8242 2.92267 14.8242 2.92267L15.2303 9.21761L10.3568 13.0758C10.3568 13.0758 9.13849 14.2942 8.73236 14.9034C8.32624 15.5125 9.13849 15.9187 9.74767 16.1217C10.3569 16.3248 10.763 16.5279 11.3722 16.5279C11.5752 16.5279 11.5752 16.5279 11.7783 16.5279L17.261 17.9493L19.2916 23.8381L19.4947 24.4473C19.6977 25.0565 20.1038 25.6657 20.51 26.0718C21.1192 26.681 21.7284 25.8687 22.1345 25.4626C22.5406 25.0565 22.7437 24.4473 23.1498 24.0412C23.1498 23.8381 23.3528 23.8381 23.3528 23.6351L26.3988 18.9646L31.8815 18.7616C32.0845 18.7616 32.0846 18.7616 32.2876 18.7616C32.8968 18.7616 33.506 18.7616 34.1152 18.5585C34.7244 18.5585 35.5366 18.3554 35.3336 17.5432C35.1305 16.7309 34.5213 15.9187 33.9121 15.3095L30.0539 10.6391L31.8815 3.93798C31.8815 3.73492 32.0846 3.53186 32.0846 3.12573C32.0846 2.92267 32.2876 2.11042 31.4753 1.90735Z" fill="#F8CB36"/>
<path d="M29.8507 3.32527C29.2415 3.32527 28.4293 3.52834 27.8201 3.7314L22.7435 5.76203L18.0731 2.71609C17.667 2.51302 17.4639 2.30996 17.0578 2.1069C16.6517 1.90384 15.8394 1.49771 15.6363 2.1069C15.4333 2.71609 15.4333 3.52834 15.4333 4.13753L15.8394 9.62022L11.5751 13.0723C10.9659 13.4784 10.3567 14.0876 10.1536 14.6968C9.95055 15.306 10.5598 15.7121 10.9659 15.7121C11.372 15.9152 11.9812 15.9152 12.3873 16.1182C12.5904 16.1182 12.5904 16.1182 12.7935 16.1182L17.4639 17.3366L19.2914 22.4132C19.2914 22.4132 19.2914 22.4132 19.2914 22.6162L19.4945 23.0223C19.6976 23.6315 19.9006 24.0377 20.3067 24.4438C20.7129 24.8499 21.3221 24.4438 21.7282 24.0377C21.9313 23.6315 22.3374 23.2254 22.5404 22.8193C22.5404 22.6162 22.7435 22.6162 22.7435 22.4132L25.3833 18.3519L30.2569 18.1488C30.4599 18.1488 30.4599 18.1488 30.6629 18.1488C31.2721 18.1488 31.6783 18.1488 32.2875 17.9458C32.6936 17.9458 33.5059 17.7427 33.3028 16.9305C33.0997 16.3213 32.6936 15.509 32.0844 15.1029L28.6323 11.0416L30.2569 5.15284C30.2569 4.94978 30.4599 4.74672 30.4599 4.54365C30.4599 4.13753 30.4599 3.32527 29.8507 3.32527Z" fill="#FFF060"/>
<path d="M15.434 2.91797L15.8401 9.61904C15.8401 9.61904 10.7635 13.4772 10.3574 14.2895L16.2462 10.4313C16.2462 10.4313 16.8554 10.2282 16.6524 9.61904C16.4493 8.80679 15.434 2.91797 15.434 2.91797Z" fill="white"/>
<path d="M24.5703 19.3707L25.1795 18.3554L31.2714 18.1523H25.3826C25.3826 18.1523 25.1795 17.9493 24.9765 18.3554C24.9765 18.5585 24.5703 19.3707 24.5703 19.3707Z" fill="white"/>
</svg>
