<svg width="54" height="41" viewBox="0 0 54 41" fill="none" xmlns="http://www.w3.org/2000/svg">
<path d="M52.3828 0.280825C55.2248 1.36283 53.6498 23.2538 47.1358 25.5898C40.6218 27.9258 43.7158 12.6388 43.7158 12.6388C43.7158 12.6388 28.3617 22.1398 27.5247 11.9538C26.6887 1.76783 49.1068 -0.966175 52.3828 0.280825Z" fill="#FFBF00"/>
<path d="M34.6135 25.3477C35.1565 25.8617 37.5115 37.7947 34.3335 40.1597C31.1555 42.5247 31.2315 32.5117 31.2315 32.5117C31.2315 32.5117 22.1205 38.7407 21.7705 35.1147C21.4215 31.4887 34.6135 25.3477 34.6135 25.3477Z" fill="#FF7A7B"/>
<path d="M23.2495 21.0141C23.2495 21.0141 5.12152 31.0841 0.851516 25.9391C-3.41948 20.7941 9.81354 20.5991 8.87154 20.4111C7.92954 20.2241 -1.27844 14.0741 0.90956 9.43915C3.09756 4.80314 23.2495 21.0141 23.2495 21.0141Z" fill="#87AEC6"/>
</svg>
