<svg width="50" height="65" viewBox="0 0 50 65" fill="none" xmlns="http://www.w3.org/2000/svg">
<path d="M39.976 18.8891L39.9761 18.8892C41.2412 20.8052 42.3349 22.819 42.7846 24.9958L43.2743 24.8947L42.7846 24.9958C43.1205 26.6213 43.1885 28.5465 43.1405 30.6383C43.1074 32.0755 43.0205 33.5697 42.9324 35.0859C42.8921 35.7787 42.8515 36.4761 42.8157 37.1748C42.7021 39.3905 42.6374 41.6056 42.7923 43.6483C42.9286 45.4445 43.2364 47.1347 43.8477 48.5895C41.3943 49.1711 39.2699 50.1303 37.1915 51.0687L37.1742 51.0766C35.0338 52.043 32.9411 52.9864 30.5251 53.5393C28.7341 48.6693 24.783 44.9385 20.9863 41.3535C20.6182 41.0059 20.2516 40.6597 19.8885 40.3139C15.6207 36.25 11.8353 32.2489 11.3191 26.7717L10.8213 26.8187L11.3191 26.7717C10.771 20.9575 14.0054 14.9461 19.1603 12.201L19.1604 12.2009C24.3153 9.45483 31.1086 10.1253 35.6275 13.8255C37.3392 15.2272 38.7309 17.0026 39.976 18.8891Z" fill="#FFC329" stroke="#262626"/>
<path d="M29.9561 53.6805C30.6661 55.2675 31.3761 56.8555 32.0861 58.4435C32.8611 60.1755 33.7341 62.0195 35.3801 62.9615C36.7881 63.7665 38.5361 63.7555 40.1091 63.3615C42.2571 62.8235 44.3041 61.5175 45.2751 59.5275C46.7591 56.4825 45.42 52.8805 44.079 49.7695" stroke="#262626" stroke-width="1.4" stroke-miterlimit="10" stroke-linecap="round" stroke-linejoin="round"/>
<path d="M33.8232 60.9642C37.7982 59.4592 41.7743 57.9542 45.7493 56.4492" stroke="#262626" stroke-width="1.4" stroke-miterlimit="10" stroke-linecap="round" stroke-linejoin="round"/>
<path d="M31.0293 56.8162C35.7053 55.5352 40.3063 53.9802 44.8003 52.1602" stroke="#262626" stroke-width="1.4" stroke-miterlimit="10" stroke-linecap="round" stroke-linejoin="round"/>
<path d="M29.8291 53.8435C34.2821 52.4455 38.6651 50.8215 42.9541 48.9805" stroke="#262626" stroke-width="1.4" stroke-miterlimit="10" stroke-linecap="round" stroke-linejoin="round"/>
<path d="M32.738 51.1836C31.088 45.2746 28.35 39.6716 24.703 34.7386C23.927 34.9476 23.595 35.9096 23.714 36.7046C23.9 37.9386 24.87 38.9646 26.024 39.4376C27.178 39.9116 28.486 39.8936 29.705 39.6286C30.64 39.4256 31.574 39.0626 32.243 38.3776C33.299 37.2956 33.489 35.6446 33.457 34.1326C33.427 32.7426 33.159 31.1786 32.013 30.3906C30.802 31.0226 30.868 32.7646 31.208 34.0876C32.595 39.4826 35.594 44.2996 38.551 49.0216" stroke="#262626" stroke-width="1.4" stroke-miterlimit="10" stroke-linecap="round" stroke-linejoin="round"/>
<path d="M25.1533 13.6125C29.9133 12.8335 35.0293 15.5734 37.0203 19.9664" stroke="#262626" stroke-width="1.4" stroke-miterlimit="10" stroke-linecap="round" stroke-linejoin="round"/>
<path d="M18.5903 8.33919C17.9313 6.18219 17.2723 4.02419 16.6133 1.86719" stroke="#262626" stroke-width="1.4" stroke-miterlimit="10" stroke-linecap="round" stroke-linejoin="round"/>
<path d="M30.6191 6.397C30.9111 4.569 31.3412 2.763 31.9052 1" stroke="#262626" stroke-width="1.4" stroke-miterlimit="10" stroke-linecap="round" stroke-linejoin="round"/>
<path d="M35.1768 6.96641C35.9118 5.31141 36.9177 3.77641 38.1407 2.44141" stroke="#262626" stroke-width="1.4" stroke-miterlimit="10" stroke-linecap="round" stroke-linejoin="round"/>
<path d="M43.1426 15.9363C44.9136 14.9533 46.6846 13.9703 48.4546 12.9883" stroke="#262626" stroke-width="1.4" stroke-miterlimit="10" stroke-linecap="round" stroke-linejoin="round"/>
<path d="M3.21484 12.7734C5.05084 13.7294 6.88684 14.6854 8.72284 15.6414" stroke="#262626" stroke-width="1.4" stroke-miterlimit="10" stroke-linecap="round" stroke-linejoin="round"/>
<path d="M1.54395 16.8711C2.88195 17.1311 4.21992 17.3921 5.55792 17.6521" stroke="#262626" stroke-width="1.4" stroke-miterlimit="10" stroke-linecap="round" stroke-linejoin="round"/>
<path d="M1 31.7121C3.218 30.9881 5.43599 30.2631 7.65399 29.5391" stroke="#262626" stroke-width="1.4" stroke-miterlimit="10" stroke-linecap="round" stroke-linejoin="round"/>
<path d="M9.36719 43.5104C10.8332 41.7374 12.5732 40.1914 14.5052 38.9414" stroke="#262626" stroke-width="1.4" stroke-miterlimit="10" stroke-linecap="round" stroke-linejoin="round"/>
</svg>
