<svg width="30" height="52" viewBox="0 0 30 52" fill="none" xmlns="http://www.w3.org/2000/svg">
<path d="M8.24596 11.9268C6.89189 11.8331 6.69409 9.53945 6.37182 8.55954C5.76809 6.72521 4.57928 4.43505 5.08135 2.49177C5.08965 2.45936 5.13668 2.44487 5.16227 2.46487C7.6256 4.34609 7.34346 8.32783 9.04608 10.7228C9.47347 11.3234 8.87182 11.9703 8.24596 11.9268ZM12.1933 4.04818C11.6857 2.76622 11.3096 1.40565 10.6159 0.208508C10.3974 -0.168012 9.81233 0.00162884 9.80957 0.428489C9.80058 1.86216 10.2522 3.26204 10.6595 4.62538C11.0129 5.80941 11.2625 7.36998 12.3469 8.08923C12.712 8.33197 13.1622 8.15128 13.248 7.7189C13.4963 6.47211 12.6435 5.18601 12.1933 4.04818ZM14.2556 17.1691C14.0032 16.2265 13.3386 15.4445 12.9202 14.559C12.2916 13.2302 11.9188 11.822 11.5018 10.4221C11.4126 10.1215 10.952 10.229 10.923 10.509C10.6899 12.7744 11.2881 16.4416 13.2279 17.927C13.7169 18.3015 14.3988 17.7057 14.2556 17.1691ZM16.7438 8.52092C16.3628 7.62789 16.0903 6.29145 15.2369 5.75563C15.0813 5.65771 14.9084 5.70115 14.8227 5.86527C14.3393 6.79416 14.9022 8.18921 15.1885 9.13189C15.5447 10.3049 15.9229 11.6131 16.7694 12.5226C17.1968 12.9819 18.1048 12.5951 18.0288 11.9565C17.8863 10.76 17.2148 9.62428 16.7438 8.52092ZM23.0474 15.8355C22.611 14.8928 22.2023 13.5081 21.2998 12.9295C21.1352 12.824 20.8462 12.8771 20.7957 13.0957C20.5509 14.1549 21.1781 15.3865 21.5308 16.3864C21.9188 17.485 22.1373 18.8856 23.1103 19.5945C23.4409 19.8358 24.0501 19.6234 24.1207 19.2048C24.3205 18.018 23.5377 16.8961 23.0474 15.8355ZM24.3703 7.54995C23.9201 5.29359 22.5667 2.9869 21.4748 0.981547C21.2749 0.613992 20.7639 0.813288 20.8047 1.20774C21.0439 3.52754 21.5377 6.20318 22.8434 8.17888C23.3088 8.88296 24.5349 8.37402 24.3703 7.54995ZM26.5633 11.3007C26.2894 10.7049 26.064 9.75046 25.4077 9.49187C25.2604 9.43394 25.1131 9.50772 25.0197 9.61944C24.5771 10.1525 24.9271 11.1986 25.0813 11.8006C25.3019 12.6647 25.4305 13.928 26.4277 14.1811C26.7202 14.2556 27.0965 14.1149 27.2327 13.8336C27.6698 12.9336 26.9388 12.1178 26.5633 11.3007ZM20.564 24.3796C20.138 23.179 19.2155 22.1653 18.553 21.0798C17.9181 20.0399 17.4063 18.9366 16.8337 17.8636C16.6373 17.4946 16.0723 17.6926 16.1456 18.1036C16.4008 19.5352 16.9153 20.8944 17.5211 22.2149C17.9817 23.219 18.4838 24.3761 19.3683 25.0657C19.862 25.4505 20.8309 25.1319 20.564 24.3796ZM10.1228 21.7826C9.88979 20.7482 9.28882 19.9413 8.78122 19.0249C8.2833 18.1256 7.8573 17.2091 7.50945 16.2416C7.34762 15.7906 6.70374 15.912 6.77083 16.4037C7.04399 18.418 7.47417 21.0488 9.18647 22.3542C9.57928 22.6528 10.237 22.288 10.1228 21.7826ZM15.3842 27.3255C14.7189 26.1284 14.277 24.7989 13.5619 23.6383C13.4333 23.4293 13.0481 23.541 13.0433 23.7838C13.0205 24.8906 13.3718 25.9856 13.712 27.0304C14.145 28.3613 14.7148 30.2894 15.9734 31.0528C16.4589 31.3473 16.9963 30.9631 16.943 30.4218C16.8344 29.3212 15.9139 28.2785 15.3842 27.3255ZM25.2576 34.1774C24.8814 33.2188 24.2334 32.4327 23.6649 31.5831C23.1269 30.7797 22.6753 29.7619 21.9084 29.1606C21.7369 29.0261 21.4381 29.1468 21.4305 29.3723C21.3946 30.4384 22.037 31.5576 22.4914 32.4975C22.916 33.376 23.3309 34.2367 24.0301 34.9311C24.5377 35.4352 25.5343 34.8814 25.2576 34.1774ZM26.0557 25.234C25.5239 24.3244 25.0266 23.3583 24.2549 22.6246C23.9865 22.3701 23.6103 22.5763 23.638 22.93C23.7237 24.0217 24.1968 25.0643 24.584 26.0774C24.943 27.0173 25.1698 28.2227 26.2216 28.5578C26.5847 28.6737 26.9277 28.4427 27.0563 28.1103C27.4464 27.0986 26.5488 26.0774 26.0557 25.234ZM29.0211 18.9469C28.7161 18.4925 28.5411 17.8898 28.0114 17.6539C27.9008 17.6043 27.7251 17.6512 27.6442 17.7374C27.1345 18.2849 27.4166 19.2255 27.676 19.8324C27.945 20.462 28.3966 21.1688 29.1207 21.3095C29.3247 21.3488 29.4899 21.3502 29.6691 21.2329C29.7479 21.1812 29.9824 20.7399 29.9582 20.7454C30.2258 20.6889 29.1262 19.1035 29.0211 18.9469ZM28.6345 34.3332C28.1311 33.5381 27.6124 32.7527 27.0965 31.9658C26.7887 31.4969 25.9568 31.881 26.1954 32.4155C26.5882 33.2954 26.9803 34.1753 27.3945 35.0456C27.7168 35.7234 27.9741 36.4627 28.6919 36.7985C28.9921 36.9392 29.3904 36.7358 29.4305 36.3999C29.5259 35.6 29.0474 34.9849 28.6345 34.3332ZM19.7618 37.7778C19.49 36.913 18.7424 36.2855 18.2397 35.5593C17.7902 34.9104 17.3911 34.2243 17.055 33.5105C16.8476 33.0692 16.2196 33.3754 16.2971 33.8084C16.5951 35.4745 17.3136 37.8357 19.0135 38.548C19.5149 38.7584 19.9029 38.2267 19.7618 37.7778ZM25.8939 41.1671C25.1573 40.1762 24.3952 39.2087 23.6283 38.2412C23.3614 37.9046 22.9105 38.2832 23.0412 38.6335C23.4962 39.8507 24.0412 41.012 24.7334 42.1146C25.2424 42.9256 25.7438 43.9772 26.6891 44.3165C27.0667 44.4524 27.4575 44.1986 27.4319 43.7827C27.3696 42.7697 26.4768 41.9512 25.8939 41.1671ZM10.9679 32.1851C10.322 31.1907 9.5945 30.2453 8.89257 29.2902C8.60557 28.8999 8.09587 29.3771 8.25217 29.7557C8.66987 30.7666 9.0592 31.7927 9.52254 32.7837C9.92296 33.6402 10.2508 34.6842 11.0965 35.1849C11.4914 35.4193 12.0779 35.2035 12.0876 34.6953C12.1069 33.7319 11.4776 32.9699 10.9679 32.1851ZM4.40988 21.4702C3.2861 19.5083 2.37324 17.5808 1.52677 15.4845C1.40436 15.181 0.971411 15.2859 0.928534 15.5803C0.577222 17.9801 1.55373 20.6495 3.27572 22.3487C3.86078 22.9266 4.81721 22.1825 4.40988 21.4702ZM17.109 43.5311C16.3586 41.987 14.9465 40.7465 14.0073 39.2956C13.7646 38.9204 13.2424 39.1694 13.3835 39.5935C13.9492 41.2933 14.6747 43.2842 16.1657 44.3834C16.7127 44.7854 17.3787 44.0869 17.109 43.5311ZM24.3703 48.5872C23.5744 47.4887 22.815 46.1467 21.6622 45.3978C21.4194 45.2406 21.0979 45.4474 21.1442 45.7329C21.3579 47.0383 22.2445 48.2175 22.9125 49.3354C23.4948 50.3091 23.9146 51.4904 24.9934 51.9593C25.3862 52.1297 25.8607 51.7345 25.8558 51.3407C25.842 50.2491 24.9893 49.4416 24.3703 48.5872ZM10.6498 41.5292C10.2113 40.5286 9.30127 39.7245 8.66434 38.8377C7.92368 37.8074 7.266 36.7206 6.53433 35.6841C6.34069 35.4097 5.88149 35.6483 5.94926 35.9593C6.23211 37.2447 6.75769 38.4308 7.41536 39.5666C8.01979 40.6106 8.66017 41.7795 9.68644 42.4511C10.3054 42.8566 10.9043 42.1105 10.6498 41.5292ZM3.60491 30.4322C3.22109 29.6536 2.81651 28.904 2.37944 28.1537C1.96865 27.4483 1.41471 26.7166 1.02882 25.9705C1.0392 25.9381 1.04956 25.9056 1.05993 25.8725C1.10627 25.7284 1.05789 25.6112 0.950694 25.514C0.316534 24.9382 -0.137134 25.8367 0.0378306 26.4194C0.537828 28.0793 1.46795 29.7143 2.3331 31.21C2.82134 32.052 4.01984 31.2755 3.60491 30.4322Z" fill="white"/>
</svg>
