<svg width="34" height="86" viewBox="0 0 34 86" fill="none" xmlns="http://www.w3.org/2000/svg">
<path d="M25.2089 46.5836C29.0469 38.3326 25.7399 26.0386 18.6929 20.2246C19.3909 17.4636 19.2709 14.4246 18.3809 11.7076C15.8459 3.96358 8.13887 -0.943423 0.0808721 0.152577C-0.0381279 0.168577 -0.0201602 0.358576 0.0978398 0.361576C5.81984 0.501576 11.3239 2.58158 14.6979 7.42658C16.9199 10.6176 18.1019 15.2236 17.3499 19.2336C16.8209 18.8816 16.2799 18.5546 15.7169 18.2786C11.3369 16.1266 3.27687 16.0946 1.64087 21.9876C0.0488696 27.7216 7.66587 29.6836 11.7399 28.2436C14.9289 27.1156 17.0398 24.7136 18.1658 21.8376C22.7218 25.8366 24.4648 32.1006 24.8918 37.9946C25.0858 40.6696 25.0599 43.2906 24.0909 45.6446C23.5319 45.2026 22.9558 44.7736 22.3478 44.3746C18.1918 41.6466 10.6449 41.0596 8.99188 47.1046C7.44288 52.7706 13.6419 55.3346 18.1599 53.4236C20.9279 52.2526 22.9619 50.3986 24.3679 48.1406C25.3419 49.1176 26.2289 50.1856 27.0319 51.2746C34.3539 61.1996 33.4499 74.2026 26.1749 83.9076C25.6099 84.6616 26.7518 85.4686 27.3478 84.7616C36.5608 73.8126 35.9509 56.1716 25.2089 46.5836ZM12.7289 26.0126C11.0349 26.9836 8.73486 27.4706 6.80786 26.9926C-0.417138 24.3016 5.87385 18.6726 8.28485 18.5926C11.3179 18.0276 14.4469 19.0926 16.9059 20.8316C16.9139 20.8376 16.9208 20.8436 16.9288 20.8496C16.2098 22.9496 14.8699 24.7866 12.7289 26.0126ZM22.2389 48.5396C21.4079 49.4376 20.4288 50.1996 19.4048 50.8596C18.5358 51.5206 17.5708 52.0076 16.5118 52.3186C13.3518 53.8716 5.55989 46.9976 14.7259 44.0246C16.9249 43.3106 19.1309 44.3426 20.9769 45.4436C21.8019 45.9356 22.5749 46.5166 23.3049 47.1516C23.0009 47.6286 22.6519 48.0936 22.2389 48.5396Z" fill="white"/>
</svg>
