<svg width="83" height="49" viewBox="0 0 83 49" fill="none" xmlns="http://www.w3.org/2000/svg">
<path fill-rule="evenodd" clip-rule="evenodd" d="M7.32722 0.0842165C6.38245 0.298938 4.08494 1.11488 3.22605 1.54432C0.799702 2.7897 -0.230976 5.06575 0.606437 7.40621C0.821158 7.98596 1.03588 8.8019 1.12177 9.23134C1.25061 10.0043 3.16164 13.8478 4.17083 15.308C4.49291 15.8233 4.83646 16.1024 5.18001 16.1668C5.58798 16.2313 5.80271 16.4674 6.12479 17.0687C7.41312 19.5809 16.3885 35.277 16.7964 35.7494C17.3118 36.3506 17.0756 36.2647 23.2381 38.0899C24.3117 38.412 25.7074 38.8843 26.3945 39.1635C27.6613 39.6788 28.284 39.6788 28.4987 39.185C28.5631 39.0132 28.692 36.8874 28.7779 34.504C28.8423 32.0992 28.9711 29.9519 29.0355 29.7587C29.1214 29.4581 28.9067 29.0286 28.2411 28.0194C27.7472 27.2679 26.738 25.7005 25.9865 24.498C25.2565 23.3171 22.8516 19.7097 20.6829 16.446C18.5142 13.2037 16.6891 10.4553 16.6032 10.3264C16.5388 10.1976 16.4529 9.78962 16.3884 9.38165C16.3455 8.88779 15.8946 7.92154 14.9713 6.3326C13.5327 3.86331 12.6094 2.61793 12.2014 2.61793C12.0511 2.61793 11.9223 2.46762 11.8578 2.29585C11.6646 1.67315 10.2689 0.556602 9.30265 0.277464C8.42229 -0.0231455 7.99286 -0.0660884 7.32722 0.0842165ZM9.10942 1.37254C9.36708 1.4799 9.86094 1.75904 10.183 2.01671L10.7842 2.46762L9.32414 2.7897C6.87632 3.30503 4.7291 4.46453 2.68925 6.35408L1.63711 7.32032L1.50828 6.86941C1.27209 5.90316 1.52974 4.55042 2.08802 3.86331C2.73218 3.06884 4.44995 2.1026 6.16772 1.58727C7.69224 1.15782 8.40084 1.09341 9.10942 1.37254ZM13.7259 6.43996C14.5848 7.83565 15.2719 9.01662 15.2719 9.05956C15.2719 9.10251 14.6922 9.16693 14.005 9.16693C11.6431 9.20987 9.15234 10.1332 7.47752 11.5933C6.57569 12.3877 5.48062 14.1485 5.48062 14.8356C5.48062 15.2221 5.45915 15.2221 5.15854 14.9429C4.98677 14.7926 4.23523 13.4613 3.48371 11.9798C1.89477 8.90926 1.89476 8.82337 3.18309 7.44916C4.10639 6.46144 5.4162 5.51666 7.02661 4.70072C8.44377 3.99214 9.15234 3.82036 10.8057 3.86331L12.1799 3.90626L13.7259 6.43996ZM15.4222 10.627C15.4651 10.7344 17.505 13.8693 19.9743 17.584C22.4221 21.2987 24.7411 24.863 25.1276 25.4857C25.5141 26.1084 25.9436 26.817 26.0939 27.0317C26.3301 27.4182 26.33 27.4612 26.0294 27.4182C25.0847 27.3109 24.6982 27.5256 23.9896 28.5133C23.7963 28.7924 23.5816 28.5563 22.1215 26.1514C20.2534 23.1023 16.732 17.5411 14.2412 13.6761C13.2965 12.216 12.502 10.9276 12.4805 10.7988C12.3517 10.3264 15.2719 10.1546 15.4222 10.627ZM11.6216 10.9706C11.6216 11.0565 13.3394 13.7405 15.4222 16.9398C17.505 20.1392 19.9743 24.0256 20.9191 25.5502L22.6369 28.363L21.778 28.6851C20.8761 29.0072 20.2105 29.8016 20.2105 30.5317C20.2105 30.7249 20.1676 30.8967 20.0602 30.8967C19.8455 30.8967 14.3271 21.5778 11.9867 17.2619C10.8057 15.0932 9.6462 13.0319 9.41001 12.6884C9.19529 12.3233 9.00206 11.9798 9.00206 11.9368C9.00206 11.7865 11.1278 10.7988 11.4069 10.7988C11.5143 10.7988 11.6216 10.8847 11.6216 10.9706ZM11.6216 18.2282C12.8885 20.5257 15.1431 24.3907 16.6247 26.8385C18.9007 30.6605 19.2228 31.2617 18.9007 31.2617C18.2995 31.2617 17.3976 31.9274 17.1185 32.593C16.9682 32.9366 16.8179 33.1942 16.7964 33.1728C16.7535 33.1298 15.0572 30.1237 13.0173 26.452C10.9775 22.8017 8.67995 18.7864 7.90696 17.5196C7.15543 16.2527 6.53276 15.1362 6.53276 15.0288C6.53276 14.6423 7.09104 13.6975 7.71373 13.0534L8.3364 12.3877L8.78734 13.2252C9.06647 13.6761 10.3118 15.9306 11.6216 18.2282ZM26.5233 28.728C27.554 29.1575 27.7257 29.4366 27.6184 30.4887C27.5754 31.0041 27.4681 31.863 27.4037 32.3783L27.3178 33.3231L26.5448 33.4304C25.2779 33.6237 23.1951 35.1697 22.873 36.1574C22.7872 36.458 22.6368 36.4365 20.7473 35.8568C17.7627 34.9764 17.5479 34.8691 17.5479 34.2678C17.5479 32.7648 18.278 32.0992 19.6308 32.3783C20.8761 32.6145 21.0479 32.5071 21.0479 31.3476C21.0479 30.5102 21.1123 30.2955 21.4988 29.9519C22.1 29.3937 22.5295 29.4151 23.324 29.9734C23.8608 30.3384 24.0325 30.4029 24.3331 30.2096C24.5479 30.1022 24.6982 29.8446 24.6982 29.6299C24.6982 29.1145 25.1706 28.4489 25.5571 28.4489C25.7503 28.4704 26.1798 28.5777 26.5233 28.728Z" fill="white"/>
<path fill-rule="evenodd" clip-rule="evenodd" d="M9.90342 5.92349C9.3022 6.15968 9.43102 7.01857 10.0537 7.10446C10.5905 7.16887 10.977 6.7609 10.8267 6.28851C10.6979 5.85907 10.4187 5.73024 9.90342 5.92349Z" fill="white"/>
<path fill-rule="evenodd" clip-rule="evenodd" d="M4.44999 8.88714C4.17085 9.42395 4.5144 9.96075 5.11562 9.89633C5.4377 9.85339 5.60948 9.72455 5.63096 9.44542C5.75979 8.62948 4.81502 8.17856 4.44999 8.88714Z" fill="white"/>
<path fill-rule="evenodd" clip-rule="evenodd" d="M60.3847 31.3289C58.8387 31.7368 56.9706 33.4117 56.1117 35.1724C55.4676 36.4822 55.1025 38.4576 55.2099 39.8533C55.2529 40.476 55.3602 41.1201 55.4031 41.249C55.5964 41.7643 50.7222 43.8042 47.3511 44.663C44.9677 45.2643 40.7162 45.4146 38.4617 44.9851C36.0353 44.5342 33.5445 43.525 30.9893 41.979C29.8084 41.2705 29.4434 41.2275 29.4434 41.7858C29.4434 43.2459 34.5967 45.7152 39.0629 46.3808C43.5291 47.025 48.7039 46.0587 53.8786 43.568L55.8326 42.6232L56.262 43.2674C57.2497 44.8134 59.1608 46.0802 61.4368 46.6385C62.0166 46.7888 63.2619 46.8747 64.5932 46.8747C67.0196 46.8532 68.8877 46.4667 71.2281 45.5005C72.495 44.9851 72.5379 44.9851 72.7097 45.3072C73.2035 46.1661 74.7281 47.433 75.7158 47.8195C76.9612 48.2704 79.044 48.6998 80.0317 48.6783C81.7065 48.6354 83.0807 47.8195 81.4703 47.8195C80.1605 47.8195 77.1974 47.1323 75.9949 46.5741C74.9643 46.0802 73.8692 44.9637 73.8692 44.4483C73.8692 44.341 74.363 43.8471 74.9428 43.2888C76.9611 41.4637 77.4336 39.338 75.952 38.7153C74.8784 38.2644 73.633 39.0374 72.8385 40.6907C72.495 41.3993 72.2803 42.0864 72.2373 42.6876L72.1944 43.5894L71.2281 44.0189C67.2343 45.8011 62.7251 46.0158 59.8693 44.5557C58.4951 43.8471 57.2498 42.5803 57.2498 41.8717C57.2498 41.7858 57.808 41.3349 58.5166 40.8625C60.9215 39.2091 63.2834 36.5895 63.8632 34.8718C64.7006 32.5313 62.9184 30.6847 60.3847 31.3289ZM62.4031 32.9178C62.6607 33.154 62.8325 33.5405 62.8325 33.8411C62.8325 35.1724 60.7497 37.8134 58.1945 39.703C56.8203 40.7122 56.7988 40.7337 56.6915 40.3257C55.9829 37.8349 57.6792 34.1202 60.0841 32.9393C61.2436 32.3595 61.8663 32.3595 62.4031 32.9178ZM75.6084 40.1754C75.6084 40.6907 74.8569 41.8073 74.1698 42.3441C73.4827 42.8809 73.3753 42.6876 73.7618 41.6569C74.2771 40.3257 75.6084 39.2521 75.6084 40.1754Z" fill="#FFD335"/>
</svg>
