<svg width="82" height="49" viewBox="0 0 82 49" fill="none" xmlns="http://www.w3.org/2000/svg">
<path d="M23.3239 45.2828C27.8705 43.0566 32.6204 38.9966 39.2168 38.8195C46.1405 38.6339 50.4895 42.1053 50.4895 42.1053C51.02 41.9587 55.7479 36.9291 62.3699 34.0385C67.6057 31.7528 74.4259 31.32 78.498 32.0998C78.913 32.1792 79.7538 31.9072 80.0775 32.1792C80.392 32.4441 81.2873 34.3629 81.2873 34.3629C69.4161 32.2479 58.9757 37.1961 50.9485 44.2791C47.4119 42.6961 42.7569 40.5329 38.9073 40.9735C37.1047 41.1803 28.3415 45.1936 22.498 49.0007C17.0674 38.8486 8.6868 26.1005 1.36719 13.8213C2.54014 13.3319 2.14207 12.5995 3.31502 12.1094C11.1057 24.5649 16.595 34.54 23.3239 45.2828Z" fill="#FF484C"/>
<path d="M80.201 32.3485C70.4321 29.8035 57.2711 34.6264 50.4898 42.1047C46.1514 38.6042 39.946 37.5758 34.7109 39.4896C30.6353 40.9792 27.1597 43.3796 23.3745 45.5017C16.5457 34.3629 9.97551 23.5506 3.14746 12.4118C7.59136 6.23401 16.5932 4.66937 23.6146 6.3268C28.1258 7.39138 32.292 9.57579 36.2522 11.984C36.8684 10.4052 41.2096 4.37825 50.7717 2.43042C54.9585 1.57762 59.3861 0.111429 63.3441 1.72211C70.2012 11.3607 74.1174 22.2034 80.201 32.3485Z" stroke="white" stroke-width="1.4" stroke-miterlimit="10" stroke-linecap="round" stroke-linejoin="round"/>
<path d="M78.1524 28.8854C68.3835 26.3405 56.1355 30.5457 49.3542 38.024C45.0158 34.5235 37.8974 34.1127 32.6616 36.0265C28.586 37.5161 25.1104 39.9165 21.3252 42.0386" stroke="white" stroke-width="1.4" stroke-miterlimit="10" stroke-linecap="round" stroke-linejoin="round"/>
<path d="M36.3262 12.0508C40.9542 22.0102 44.9916 27.7957 49.6196 37.7558" stroke="white" stroke-width="1.4" stroke-miterlimit="10" stroke-linecap="round" stroke-linejoin="round"/>
<path d="M2.77854 12.5039C2.10494 12.6944 1.48448 13.067 1 13.572C4.08042 18.7922 7.25504 23.9777 10.5359 29.0747" stroke="white" stroke-width="1.4" stroke-miterlimit="10" stroke-linecap="round" stroke-linejoin="round"/>
<path d="M14.4736 35.4219C15.6374 37.17 16.7027 38.9839 17.6638 40.851" stroke="white" stroke-width="1.4" stroke-miterlimit="10" stroke-linecap="round" stroke-linejoin="round"/>
<path d="M79.6621 31.1641C80.2061 32.3873 80.4979 33.204 81.0411 34.4265C78.6265 34.0447 76.1744 33.8988 73.7314 33.993" stroke="white" stroke-width="1.4" stroke-miterlimit="10" stroke-linecap="round" stroke-linejoin="round"/>
<path d="M41.5664 13.7633C44.9542 10.6248 49.2543 8.48288 53.8009 7.67188" stroke="white" stroke-width="1.4" stroke-miterlimit="10" stroke-linecap="round" stroke-linejoin="round"/>
<path d="M56.7949 6.91925C57.7476 6.86542 58.6946 6.71739 59.6182 6.47656" stroke="white" stroke-width="1.4" stroke-miterlimit="10" stroke-linecap="round" stroke-linejoin="round"/>
<path d="M44.2178 17.834C49.9217 13.5544 56.9269 11.0342 64.0496 10.6992" stroke="white" stroke-width="1.4" stroke-miterlimit="10" stroke-linecap="round" stroke-linejoin="round"/>
<path d="M57.8662 16.4473C59.9238 15.5655 62.1685 15.1228 64.4067 15.1582" stroke="white" stroke-width="1.4" stroke-miterlimit="10" stroke-linecap="round" stroke-linejoin="round"/>
<path d="M49.2324 26.0587C51.1363 24.771 53.2074 23.7313 55.3777 22.9727" stroke="white" stroke-width="1.4" stroke-miterlimit="10" stroke-linecap="round" stroke-linejoin="round"/>
<path d="M59.6328 21.393C61.9518 20.1146 64.5917 19.4254 67.2393 19.4062" stroke="white" stroke-width="1.4" stroke-miterlimit="10" stroke-linecap="round" stroke-linejoin="round"/>
<path d="M52.2637 30.634C52.7836 30.2671 53.3042 29.8995 53.8333 29.5454C59.2801 25.8976 65.6627 23.6587 72.1946 23.1055" stroke="white" stroke-width="1.4" stroke-miterlimit="10" stroke-linecap="round" stroke-linejoin="round"/>
<path d="M9.33887 14.3003C16.5565 10.285 25.9472 10.5237 32.9516 14.8989" stroke="white" stroke-width="1.4" stroke-miterlimit="10" stroke-linecap="round" stroke-linejoin="round"/>
<path d="M20.4951 17.3274C24.5849 16.6871 28.834 17.0901 32.7304 18.4883" stroke="white" stroke-width="1.4" stroke-miterlimit="10" stroke-linecap="round" stroke-linejoin="round"/>
<path d="M17.2578 25.8525C24.1468 23.3253 31.7016 22.641 38.9326 23.8884" stroke="white" stroke-width="1.4" stroke-miterlimit="10" stroke-linecap="round" stroke-linejoin="round"/>
<path d="M27.75 32.3547C29.5328 31.514 31.458 30.9749 33.4186 30.7695" stroke="white" stroke-width="1.4" stroke-miterlimit="10" stroke-linecap="round" stroke-linejoin="round"/>
</svg>
