<svg width="89" height="87" viewBox="0 0 89 87" fill="none" xmlns="http://www.w3.org/2000/svg">
<path d="M69.3258 74.9458C70.1238 74.4108 74.4128 75.1198 74.5118 73.9588C74.6108 72.7978 70.7038 71.9969 70.8028 70.8369C70.9018 69.6759 69.5998 63.5929 69.1568 63.5549C68.7148 63.5169 66.0918 69.9018 65.4828 70.0728C64.8738 70.2438 59.9148 70.9349 59.9258 71.6779C59.9368 72.4209 64.1428 73.5969 64.2338 74.2729C64.3248 74.9489 64.0478 81.6819 64.6988 81.8859C65.3488 82.0899 68.7328 75.3428 69.3258 74.9458Z" fill="#FFAA8A"/>
<path d="M10.0704 45.3169C11.0764 45.6929 17.0694 48.2519 17.2844 47.1009C17.4994 45.9499 13.8094 42.5959 14.0334 42.0299C14.2574 41.4639 16.0614 34.0179 15.5104 33.6199C14.9594 33.2219 8.33044 38.2909 7.72644 38.5209C7.12244 38.7509 0.439444 36.2119 0.0284437 36.9279C-0.383556 37.6439 3.81742 41.8599 3.75842 42.5569C3.69942 43.2529 0.252448 49.3909 1.13245 50.0499C2.01045 50.7099 8.94844 44.8979 10.0704 45.3169Z" fill="#FFBF00"/>
<path d="M64.076 15.3076C70.079 18.7666 86.981 18.1946 88.526 30.2536C90.071 42.3116 83.933 64.9406 81.903 64.0656C79.873 63.1906 74.574 51.2806 68.784 53.3596C62.994 55.4386 31.639 80.3606 23.997 79.4756C16.355 78.5906 19.686 50.4826 23.862 39.8946C28.038 29.3076 26.413 29.8706 22.419 28.3606C18.425 26.8506 10.576 22.9086 11.125 19.2136C11.674 15.5186 35.851 0.741569 41.289 0.0355686C46.729 -0.669431 53.599 9.26957 64.076 15.3076Z" fill="#91C6A8"/>
<path d="M46.8857 8.9709C48.3617 7.7419 49.9548 6.74791 51.6048 5.83691C51.2228 5.50891 50.8488 5.18991 50.4798 4.87891C49.3618 5.50691 48.2858 6.2109 47.2588 6.9979C45.8488 8.0789 42.4488 10.3279 42.1088 12.2279C41.7068 14.4709 43.4007 14.3929 44.9137 15.0889C50.6477 17.7249 48.2008 21.2379 46.5798 25.6769C45.3268 29.1089 43.9077 32.4759 42.5647 35.8729C41.2077 39.3059 37.7998 44.5599 40.7228 47.8879C40.9098 48.1009 41.2478 48.1699 41.5018 48.0399C46.5558 45.4409 50.5567 40.5999 54.4637 36.5729C57.0437 33.9149 66.5638 21.6189 70.7538 24.6269C72.0338 25.5459 72.0028 27.7099 74.2298 26.5499C76.2908 25.4759 76.5457 22.0439 76.3077 19.0209C76.0057 18.9289 75.7037 18.8409 75.4007 18.7539C75.3447 20.3599 75.1897 21.9669 74.6247 23.2129C73.5897 25.4949 72.3018 25.1009 71.1498 23.0939C70.0848 21.2379 68.6168 22.1079 66.6078 23.4209C62.4438 26.1409 58.8807 30.2679 55.4247 33.7959C53.4427 35.8189 51.4827 37.8649 49.4607 39.8479C48.2147 41.0699 45.5348 44.5789 43.9068 44.9459C39.7658 45.8799 42.3928 39.9089 43.1368 37.9779C44.1228 35.4219 45.1728 32.8909 46.1778 30.3419C47.6498 26.6079 50.5868 21.3609 50.3298 17.2409C50.1768 14.7839 49.0047 14.8469 47.0597 13.9059C45.4767 13.1399 44.0408 13.9159 43.3348 13.0729C42.3058 11.8439 45.4717 10.1469 46.8857 8.9709Z" fill="#FFF2E8"/>
<path d="M31.7275 10.0853C29.8035 11.8533 22.6725 17.2923 25.5105 20.7673C26.5655 22.0593 28.3815 21.8903 29.8485 21.8573C31.5155 21.8203 33.1385 21.3633 34.7875 21.2883C36.8385 21.1963 37.2185 20.7823 38.4465 21.5143C39.4185 22.0943 39.0225 23.7773 38.5095 25.5953C36.0055 34.4693 32.4985 42.9873 29.1735 51.5673C27.6015 55.6243 24.3235 62.9463 27.1785 67.0813C30.2495 71.5293 35.7325 65.4133 38.2425 63.4083C45.0645 57.9583 51.8375 52.4463 58.5615 46.8763C61.6485 44.3183 64.6655 41.6493 67.8265 39.1823C69.7905 37.6493 72.5745 35.8643 74.4935 37.7463C75.3335 38.5703 75.7635 40.6243 76.3705 41.6843C79.0455 46.3593 82.1725 44.6103 83.0445 39.8673C84.0525 34.3843 84.4925 27.9713 83.4355 22.1783C82.9495 21.8473 82.4385 21.5423 81.9115 21.2563C82.2535 28.6493 82.6935 43.0053 78.6615 42.0693C76.6995 41.6133 76.6875 35.8713 74.8225 34.6713C73.3715 33.7373 72.4665 34.2653 71.0485 34.7713C68.0665 35.8373 65.0825 39.0743 62.7175 41.0473C59.4885 43.7413 56.2515 46.4253 53.0015 49.0933C49.7515 51.7613 46.4905 54.4163 43.2185 57.0573C41.4565 58.4793 39.6905 59.8974 37.9225 61.3103C36.7575 62.2413 34.0235 65.3673 32.6075 65.5403C24.0835 66.5773 31.2155 51.0193 31.9805 49.1083C33.4305 45.4873 34.8325 41.8483 36.1385 38.1713C37.4665 34.4333 38.7675 30.6633 39.8815 26.8553C40.3825 25.1413 41.3345 22.7923 40.5555 20.9713C39.9255 19.4993 39.0785 19.2893 37.6565 19.0363C36.1775 18.7743 33.8325 20.0293 32.5895 19.9363C26.0265 21.2463 24.3735 17.4143 38.5405 6.66234C41.0255 4.77634 43.7295 3.27034 46.4435 1.75634C45.8625 1.37334 45.2985 1.04434 44.7495 0.777344C40.0025 3.21934 35.6285 6.50034 31.7275 10.0853Z" fill="#FFF2E8"/>
<path d="M80.4452 70.5241C80.7142 70.8581 81.0812 71.1221 81.4912 71.3341C81.3222 71.5821 81.1602 71.8361 80.9812 72.0771C80.2652 73.0351 81.7652 74.0381 82.3022 72.9991C82.4992 72.6171 82.6822 72.2341 82.8562 71.8481C83.1462 71.9281 83.4302 71.9941 83.6952 72.0501C84.2112 72.1591 84.4681 71.3651 83.9721 71.1621C83.7321 71.0641 83.4982 70.9561 83.2662 70.8421C83.4412 70.3651 83.5972 69.8811 83.7072 69.3751C83.8082 68.9121 83.2192 68.7611 82.9802 69.1081C82.7252 69.4781 82.4832 69.8571 82.2382 70.2341C81.8762 69.9801 81.5362 69.7111 81.1242 69.5271C80.5262 69.2581 80.0832 70.0751 80.4452 70.5241Z" fill="#FFC095"/>
<path d="M45.3209 83.0516C45.7889 83.3286 46.2639 83.5896 46.7439 83.8416C46.5539 84.1266 46.3629 84.4096 46.1569 84.6836C45.3699 85.7256 47.1369 86.9536 47.7779 85.8556C48.0019 85.4716 48.2229 85.0736 48.4289 84.6646C48.9399 84.9106 49.4839 85.1406 50.0149 85.0806C50.3359 85.0446 50.5469 84.6836 50.3509 84.3996C50.0329 83.9406 49.5049 83.6576 49.0019 83.3746C49.3419 82.4796 49.5649 81.5476 49.5589 80.5986C49.5569 80.2626 49.1569 80.1966 48.9769 80.4356C48.4889 81.0826 48.0589 81.7716 47.6289 82.4616C47.2389 82.1756 46.8549 81.8816 46.4779 81.5756C45.5159 80.7946 44.3079 82.4526 45.3209 83.0516Z" fill="#FFC095"/>
<path d="M6.35325 58.0452C6.89525 58.5312 7.45729 58.9902 8.02329 59.4442C7.77829 59.8232 7.53126 60.2022 7.28526 60.5812C6.57626 61.6762 8.23529 62.6832 8.78129 61.5192C8.94629 61.1682 9.10626 60.8152 9.26926 60.4632C9.81026 60.9482 10.4152 61.5252 11.0982 61.5462C11.4032 61.5552 11.7513 61.3372 11.6853 60.9782C11.5243 60.1052 10.6392 59.5012 9.98624 58.9122C10.0892 58.6892 10.1923 58.4662 10.2953 58.2432C10.7173 57.3292 11.2593 56.4132 11.4703 55.4252C11.5753 55.1432 11.1853 54.9352 10.9843 55.1322C10.1943 55.9032 9.63825 56.9692 9.03025 57.8922C9.01325 57.9182 8.99629 57.9442 8.97929 57.9702C8.49529 57.5182 8.00627 57.0702 7.49827 56.6422C6.60427 55.8872 5.48725 57.2692 6.35325 58.0452Z" fill="#FFC095"/>
<path d="M2.43051 26.6617C2.98151 27.1587 3.56853 27.5837 4.17953 27.9907C3.94053 28.3837 3.71852 28.7787 3.52352 29.1697C3.07552 30.0637 4.31253 30.7127 4.86453 29.9097C5.09353 29.5767 5.31053 29.2217 5.52053 28.8617C5.91353 29.1027 6.31855 29.3217 6.74655 29.4507C7.10955 29.5597 7.41051 29.0677 7.19351 28.7777C6.90051 28.3847 6.51554 28.0537 6.12954 27.7297C6.60354 26.7847 7.01755 25.8037 7.34255 24.8517C7.44955 24.5397 7.00951 24.3017 6.79251 24.5357C6.17951 25.1957 5.56652 25.9477 5.00552 26.7357C4.52652 26.2997 4.04454 25.8707 3.53054 25.4667C2.71954 24.8287 1.64351 25.9517 2.43051 26.6617Z" fill="#FFC095"/>
</svg>
