<svg width="44" height="50" viewBox="0 0 44 50" fill="none" xmlns="http://www.w3.org/2000/svg">
<path d="M3.64048 32.6822C2.40048 32.8012 1.57448 34.3082 1.26848 35.9082C0.919482 37.0552 0.915487 38.2942 1.27349 39.5072C1.41949 40.0032 2.13648 40.3602 2.61148 40.1162C4.13648 39.3332 4.84049 37.9582 5.17849 36.3232C5.44049 35.0582 5.65548 32.4892 3.64048 32.6822Z" fill="#FF7A7B"/>
<path d="M7.71767 17.6544C7.03467 16.7704 5.94966 17.2364 5.31866 17.9044C4.69566 18.5624 4.35666 19.3903 4.28366 20.2293C4.02766 21.1974 4.03866 22.2124 4.51666 23.0274C5.03266 23.9074 6.10466 23.8704 6.82466 23.2874C7.56266 22.6894 7.99467 21.5764 8.14867 20.6624C8.30167 19.7554 8.31267 18.4244 7.71767 17.6544Z" fill="#FF7A7B"/>
<path d="M3.29978 6.42636C3.10078 6.03136 2.5318 5.82839 2.1398 6.06739C0.385796 7.14039 -1.06721 10.4204 1.05479 11.8874C1.19179 11.9824 1.41779 11.9294 1.43579 11.7474C1.43979 11.7484 1.4418 11.7504 1.4458 11.7504C2.5678 11.9564 3.31379 10.7054 3.60479 9.79538C3.96679 8.66138 3.83178 7.48036 3.29978 6.42636Z" fill="#FF7A7B"/>
<path d="M15.1958 0.4468C14.9618 -0.1092 14.1617 -0.111205 13.7807 0.247795C13.3807 0.158795 12.9368 0.276791 12.6508 0.643791C11.6438 1.93579 10.7118 3.4208 10.7218 5.1148C10.7268 5.8208 10.9647 6.49581 11.4227 6.92181C11.4307 6.96881 11.4308 7.0158 11.4408 7.0638C11.4968 7.3518 11.8588 7.53981 12.1288 7.45281C12.2118 7.42581 12.2788 7.3868 12.3528 7.3518C12.4878 7.3678 12.6278 7.3748 12.7798 7.3608C15.8918 7.0708 16.0848 2.5638 15.1958 0.4468Z" fill="#FF7A7B"/>
<path d="M17.848 11.6514C17.806 11.3554 17.699 11.0544 17.549 10.7844C17.365 10.0604 16.892 9.60335 15.914 9.82635C14.883 10.0624 14.462 11.0494 14.365 12.1894C14.266 12.4904 14.19 12.7854 14.136 13.0464C13.826 14.5494 14.292 15.9184 15.172 17.1374C15.31 17.3284 15.654 17.2053 15.569 16.9583C15.513 16.7943 15.467 16.6254 15.429 16.4534C15.871 16.6844 16.438 16.5514 16.765 16.0444C17.596 14.7574 18.066 13.1934 17.848 11.6514Z" fill="#FF7A7B"/>
<path d="M27.3887 1.20461C27.0567 0.930611 26.5187 0.776607 26.1747 1.15661C24.3657 3.15661 23.9357 5.94259 25.5067 8.21459C25.6917 8.48259 26.1237 8.2626 26.0157 7.9536C25.9387 7.7326 25.8807 7.50759 25.8337 7.27959C26.3357 7.84359 27.2167 7.77659 27.5717 7.07259C28.5037 5.22559 29.2747 2.76061 27.3887 1.20461Z" fill="#FF7A7B"/>
<path d="M24.3495 18.9694C24.2785 18.1854 23.9915 17.1804 23.3675 16.7324C22.9445 16.0904 22.0115 16.2234 21.5275 16.7464C21.2695 17.0254 21.0595 17.3314 20.8735 17.6494C20.3785 18.4294 20.1205 19.4514 20.0435 20.2134C19.9295 21.3434 20.1845 22.3864 20.9425 23.1504C21.0525 23.3334 21.1575 23.5194 21.2915 23.6904C21.6815 24.1904 22.5825 24.3214 22.9795 23.7284C23.9235 22.3214 24.5055 20.6864 24.3495 18.9694Z" fill="#FF7A7B"/>
<path d="M14.9579 24.7108C14.7959 24.0678 13.8889 23.8558 13.3979 24.2218C11.4479 25.6738 9.80289 29.0028 10.7579 31.4508C10.8719 32.4358 11.2619 33.3978 12.3759 33.3548C13.8059 33.2998 14.5549 31.1128 14.8979 29.9967C15.4389 28.2387 15.4029 26.4808 14.9579 24.7108Z" fill="#FF7A7B"/>
<path d="M13.586 39.9528C12.911 40.1278 12.418 40.8718 12.074 41.6448C11.23 42.6618 10.756 44.3228 11.16 45.5158C11.26 45.8118 11.424 46.0518 11.628 46.2378C11.736 46.5848 11.878 46.9268 12.057 47.2618C12.134 47.4068 12.37 47.4238 12.489 47.3328C12.538 47.2948 12.588 47.2568 12.637 47.2198C12.982 47.2878 13.35 47.2018 13.553 46.8978C13.701 46.6778 13.838 46.4448 13.969 46.2078C15.242 44.9818 16.27 39.2578 13.586 39.9528Z" fill="#FF7A7B"/>
<path d="M22.7776 31.8484C22.5976 31.5974 22.3846 31.4284 22.1586 31.3224C21.6536 30.9334 20.8586 31.1053 20.4436 31.6103C20.4356 31.6193 20.4306 31.6303 20.4226 31.6403C20.2886 31.7503 20.1626 31.8724 20.0536 32.0164C19.6556 32.5444 19.4096 33.1984 19.2626 33.8874C19.1096 34.4154 19.0046 34.9583 18.9966 35.5153C18.9906 36.0093 19.0346 36.6304 19.1866 37.2104C19.2816 37.9904 19.5116 38.9854 20.2906 39.0824C20.4976 39.1084 20.6866 39.0534 20.8286 38.9494C23.2996 39.2644 23.7786 33.2414 22.7776 31.8484Z" fill="#FF7A7B"/>
<path d="M32.2838 14.4451C30.6408 13.6561 29.7718 15.8571 29.4038 18.0521C29.0858 19.0441 28.9328 20.0931 29.1418 21.0481C29.1598 21.1301 29.1918 21.2081 29.2198 21.2881C29.2298 21.3741 29.2388 21.4621 29.2518 21.5271C29.4458 22.4821 30.2338 24.1111 31.4488 23.2461C31.8438 22.9651 32.0778 22.4291 32.2178 21.8291C32.8858 20.8831 33.1058 19.2791 33.2098 18.3571C33.3398 17.2061 33.5998 15.0771 32.2838 14.4451Z" fill="#FF7A7B"/>
<path d="M43.3719 10.0868C43.2489 8.92484 42.5569 7.42186 41.1179 8.13286C39.7919 8.78786 39.0609 10.9449 38.8189 12.2799C38.5039 14.0159 38.8139 15.8348 39.7109 17.3548C39.9559 17.7698 40.4629 17.6669 40.7059 17.3299C40.9959 16.9289 41.1759 16.5259 41.2949 16.1119C41.6369 16.0599 41.9719 15.8488 42.1359 15.5608C43.0769 13.9078 43.5739 11.9978 43.3719 10.0868Z" fill="#FF7A7B"/>
<path d="M34.0323 31.3532C33.8513 30.6822 33.4183 30.2322 32.9123 30.0272C32.8903 30.0062 32.8743 29.9832 32.8513 29.9622C32.6843 29.8172 32.4383 29.7962 32.2123 29.8542C32.0273 29.8082 31.8293 29.8142 31.6583 29.9052C30.0133 30.7742 29.5563 33.2752 29.8093 34.9772C30.0293 36.4602 31.5843 37.6442 32.8463 36.3382C33.9953 35.1512 34.4583 32.9272 34.0323 31.3532Z" fill="#FF7A7B"/>
<path d="M28.9045 42.3272C28.6305 41.8402 27.9775 41.7192 27.5575 42.0992C27.2955 42.3362 27.0345 42.6332 26.7875 42.9672C26.5485 43.1892 26.3605 43.5002 26.2145 43.8622C25.3505 45.4482 24.9685 47.4632 26.1915 48.7422C26.1935 48.7452 26.1965 48.7462 26.1995 48.7492C26.3435 48.9442 26.5295 49.1112 26.7815 49.2272C27.5575 49.5832 28.3765 49.1802 28.8785 48.5592C30.2475 46.8612 29.8975 44.0912 28.9045 42.3272Z" fill="#FF7A7B"/>
</svg>
