<svg width="45" height="32" viewBox="0 0 45 32" fill="none" xmlns="http://www.w3.org/2000/svg">
<path d="M43.5855 29.4223C37.4175 30.2833 30.2935 28.0543 28.2545 22.7293C31.7825 20.6663 35.1155 17.3333 35.1715 13.3813C35.2115 10.5643 32.5255 7.51329 29.6785 9.50129C27.7785 10.8273 26.3795 15.2443 26.0305 17.2593C25.7595 18.8213 25.7756 20.3613 26.0896 21.8343C23.2696 23.2373 19.9525 23.9123 17.0645 22.9633C13.0085 21.6293 10.5515 17.2803 10.3645 12.9423C13.0785 12.7693 15.7925 11.5953 17.7615 9.19029C19.3575 7.24129 22.0035 2.13629 18.6645 0.367292C14.8425 -1.65671 10.7365 5.22429 9.66855 7.84529C9.15355 9.10929 8.84055 10.3733 8.70855 11.6083C3.82055 11.2843 0.584549 6.58229 1.54755 1.53029C1.66755 0.899292 0.787549 0.559293 0.567549 1.20929C-1.68845 7.88729 3.14555 12.4203 8.64355 12.9203C8.60755 20.9573 16.1586 27.3553 24.8465 24.3203C25.4226 24.1193 26.0226 23.8713 26.6315 23.5843C26.9636 24.4263 27.3895 25.2423 27.9395 26.0153C31.6525 31.2333 38.1315 32.3583 43.9145 30.3913C44.4925 30.1943 44.1315 29.3453 43.5855 29.4223ZM17.8475 6.30429C16.4355 10.3343 13.2645 10.9693 11.1065 11.4323C10.8615 11.4853 10.6235 11.5093 10.3835 11.5413C10.5495 9.27029 11.3046 6.70229 13.0746 4.59129C16.2565 0.796293 19.9275 0.368291 17.8475 6.30429ZM28.0665 14.6883C28.8255 12.1683 31.3735 8.87429 33.2685 12.4243C34.7995 15.2913 31.9496 17.5603 29.5686 19.5373C29.0975 19.9283 28.3195 20.5193 27.7785 20.8703C27.5725 19.4293 27.5255 16.4863 28.0665 14.6883Z" fill="#FFC095"/>
</svg>
