<svg width="32" height="68" viewBox="0 0 32 68" fill="none" xmlns="http://www.w3.org/2000/svg">
<path d="M29.2857 66.0226C18.8777 65.0026 15.4447 53.9596 17.7427 45.0206C18.0377 43.8746 18.4097 42.6986 18.8567 41.5506C20.6877 42.3496 22.7477 42.6206 24.9017 42.1426C28.0477 41.4426 32.7047 37.8586 30.7427 34.1056C28.8197 30.4276 23.7417 32.4006 21.5437 34.5496C20.1037 35.9576 18.9187 37.6596 17.9917 39.5356C16.7607 38.7156 15.7227 37.6026 14.8987 36.3016C12.2767 32.1576 12.4827 27.0586 13.7317 22.5116C13.8017 22.2556 13.8877 21.9936 13.9657 21.7336C15.5697 21.4236 17.1677 20.6586 18.6877 19.3996C20.2837 18.0786 26.5177 12.3066 22.8777 9.88463C18.7777 7.15563 15.1297 14.8096 14.0807 17.3376C13.6757 18.3156 13.2967 19.3166 12.9567 20.3346C10.9217 20.4666 8.87269 19.9506 7.20369 18.6366C1.90569 14.4666 0.476686 6.46463 1.09269 0.233631C1.12169 -0.0543687 0.66369 -0.08238 0.59969 0.18462C-0.95731 6.62262 0.495696 13.6656 5.2147 18.5366C7.4007 20.7936 9.9177 21.9276 12.4737 21.8916C11.2347 26.2436 10.8787 30.8226 12.6937 35.1066C13.6947 37.4696 15.3567 39.4826 17.4177 40.7906C13.0477 51.2766 16.3387 66.1446 29.0077 67.4006C29.8997 67.4896 30.1877 66.1116 29.2857 66.0226ZM16.0027 16.4286C16.5387 15.1676 17.2197 13.9866 18.0467 12.8866C22.1827 8.52765 23.1097 12.5856 21.4267 14.3036C20.2557 17.3466 17.5027 19.4216 14.4977 20.1066C14.9427 18.8476 15.4517 17.5906 16.0027 16.4286ZM20.6137 37.9716C21.1117 37.2956 21.6087 36.6186 22.1067 35.9426C24.3277 32.9876 29.1837 32.0946 29.8767 35.2406C30.5697 38.3856 23.2877 41.1646 21.3817 40.8726C20.6787 40.7646 20.0157 40.5726 19.3937 40.3096C19.7607 39.4996 20.1557 38.7066 20.6137 37.9716Z" fill="#FF6D1C"/>
</svg>
