<svg width="53" height="83" viewBox="0 0 53 83" fill="none" xmlns="http://www.w3.org/2000/svg">
<path d="M4.24824 25.5995C4.01224 24.2575 3.40926 22.2645 2.20326 21.4825C1.14626 20.7975 0.100232 21.5585 0.0142322 22.6995C-0.101768 24.2315 0.503237 25.9255 1.39424 27.1575C1.48524 27.2835 1.61225 27.4215 1.75425 27.5435C2.06425 27.8685 2.41324 28.1115 2.81224 28.1885C4.42324 28.5005 4.43724 26.6695 4.24824 25.5995Z" fill="#7763E5"/>
<path d="M17.0532 2.39033C16.6192 1.44333 15.9743 0.0913314 14.7843 0.00433141C14.4403 -0.0206686 14.1482 0.064331 13.9022 0.213331C13.7462 0.285331 13.6113 0.394332 13.5123 0.552332C13.2473 0.879332 13.0923 1.31633 13.0693 1.77733C13.0553 2.05733 13.0803 2.34233 13.1333 2.62933C13.1233 4.60433 13.9723 6.61333 15.8273 7.55533C16.7823 8.04033 18.1142 7.74233 18.2652 6.52333C18.4252 5.22233 17.5792 3.53833 17.0532 2.39033Z" fill="#7763E5"/>
<path d="M28.2807 3.73076C27.6497 2.79576 26.3107 1.45977 25.2227 2.68077C24.2657 3.75477 25.1237 6.00576 25.6497 7.05776C26.3027 8.36276 27.3007 9.36176 28.5617 10.0848C28.7597 10.1978 28.9727 9.92176 28.8037 9.76176C28.7687 9.72876 28.7387 9.69076 28.7037 9.65676C29.3377 9.75076 29.8777 9.17976 29.9257 8.53176C30.0587 6.74876 29.2527 5.17277 28.2807 3.73076Z" fill="#7763E5"/>
<path d="M25.2962 14.1C24.7502 13.222 23.6153 11.887 22.5573 12.624C22.1323 12.775 21.7873 13.121 21.7853 13.607C21.7793 15.121 22.0392 16.554 22.7612 17.9C23.2952 18.896 24.1842 20.299 25.5022 20.032C26.1852 19.894 26.5483 19.429 26.5573 18.734C26.5783 17.107 26.1582 15.485 25.2962 14.1Z" fill="#7763E5"/>
<path d="M15.2332 15.1632C14.5972 13.8672 12.4532 11.6462 11.3282 13.7622C10.7852 14.7822 11.0912 16.0012 11.6902 17.1132C11.7422 17.3072 11.7892 17.5022 11.8542 17.6952C12.1992 18.7062 12.8792 20.2922 14.1042 20.4102C16.6552 20.6572 15.8602 16.4402 15.2332 15.1632Z" fill="#7763E5"/>
<path d="M6.32335 10.6244C5.98135 9.13939 5.20635 7.82839 4.11235 6.77439C3.67635 6.35439 2.73034 6.3174 2.56434 7.0644C2.54834 7.1384 2.54435 7.21039 2.53035 7.28439C2.38235 7.42739 2.26434 7.61339 2.20234 7.84839C1.80334 9.34839 1.92435 10.9264 2.61735 12.3254C3.15235 13.4044 4.23733 14.6374 5.57933 14.0074C6.85333 13.4074 6.58135 11.7454 6.32335 10.6244Z" fill="#7763E5"/>
<path d="M8.86256 25.8287C7.89956 26.4967 8.23754 28.1757 8.66654 29.4977C8.84154 30.9657 9.51056 32.5587 10.3846 33.5807C11.3776 34.7417 13.1776 34.7747 13.5706 33.0777C13.9496 31.4357 11.4236 24.0517 8.86256 25.8287Z" fill="#7763E5"/>
<path d="M25.2338 30.2207C24.8298 29.0477 23.6338 26.5497 22.0018 26.9887C20.3818 27.4247 21.1618 29.7967 21.4968 30.8237C21.6368 31.2517 21.8068 31.7317 22.0138 32.2087C22.0318 32.2497 22.0498 32.2897 22.0678 32.3297C22.3088 32.8667 22.6018 33.3877 22.9718 33.8167C23.2658 34.2017 23.5828 34.5707 23.9458 34.9007C24.3338 35.2527 24.8268 35.3317 25.2598 34.9897C26.5918 33.9377 25.6878 31.5397 25.2338 30.2207Z" fill="#7763E5"/>
<path d="M36.8528 19.2393C36.3608 18.0403 34.1178 13.9963 32.5988 16.4283C31.9968 17.3923 32.5238 18.8353 32.8858 19.7863C33.0098 20.1133 33.1508 20.4253 33.3068 20.7243C33.3388 20.8123 33.3798 20.8953 33.4148 20.9813C33.4648 21.1173 33.5138 21.2523 33.5818 21.3783C34.0208 22.2953 34.6438 23.0893 35.5038 23.5703C36.3238 24.0293 37.2868 23.6933 37.5478 22.7563C37.8478 21.6873 37.2538 20.2163 36.8528 19.2393Z" fill="#7763E5"/>
<path d="M35.78 32.6249C35.404 31.0799 34.861 29.0869 33.272 28.3639C31.96 27.7669 31.093 28.7389 31.129 30.0099C31.156 30.9699 31.359 32.0289 31.723 33.0199C31.723 33.0289 31.719 33.0359 31.72 33.0459C31.791 34.1459 32.36 35.5899 33.406 36.1279C33.429 36.1399 33.452 36.1429 33.475 36.1539C33.589 36.3349 33.701 36.5169 33.821 36.6939C34.095 37.0959 34.645 37.3189 35.117 37.1459C36.926 36.4799 36.121 34.0299 35.78 32.6249Z" fill="#7763E5"/>
<path d="M44.8485 28.6696C44.6595 28.2676 44.4384 27.8746 44.2044 27.4896C43.9214 26.9576 43.5535 26.3586 43.0785 25.9516C42.9525 25.8076 42.8295 25.6596 42.6955 25.5246C42.2465 25.0706 41.6725 25.1586 41.3255 25.5116C39.7845 26.0056 40.8765 29.4566 41.3915 30.4546C41.8465 31.3356 42.5495 32.5466 43.5605 32.8706C44.4575 33.1576 45.3615 32.6316 45.5985 31.7306C45.8645 30.7166 45.2665 29.5586 44.8485 28.6696Z" fill="#7763E5"/>
<path d="M32.2888 42.7767C31.7048 41.8987 30.5978 40.3177 29.3438 40.8427C28.5108 41.1917 28.3658 42.0377 28.4628 42.8557C28.4108 42.9567 28.3548 43.0547 28.3178 43.1737C27.8888 44.5587 28.8088 46.3437 29.6798 47.3807C30.2268 48.0317 31.1628 48.5807 31.9908 48.5677C32.6438 48.6197 33.2438 48.1837 33.3908 47.5617C33.4178 47.4997 33.4458 47.4427 33.4698 47.3737C33.9518 45.9427 33.0798 43.9657 32.2888 42.7767Z" fill="#7763E5"/>
<path d="M16.9937 37.5287C16.6357 37.5067 16.1607 37.7447 16.0767 38.1297C16.0147 38.4107 15.9667 38.7118 15.9307 39.0238C15.3287 40.1538 15.8707 42.1848 16.3947 43.2458C16.7987 44.2818 17.4527 45.1667 18.4417 45.6607C18.5747 45.7277 18.7707 45.6147 18.7167 45.4517C18.7137 45.4437 18.7107 45.4367 18.7077 45.4288C18.8027 45.4437 18.8977 45.4617 18.9977 45.4607C20.0737 45.4517 20.6677 44.4957 20.7287 43.5067C20.8567 41.4147 19.3747 37.6767 16.9937 37.5287Z" fill="#7763E5"/>
<path d="M8.87394 40.5997C8.35294 39.3737 7.20394 36.8797 5.51194 37.1537C4.96694 37.2417 4.63195 37.4917 4.43195 37.8287C4.08795 38.1007 3.82293 38.5087 3.74393 39.0627C3.44993 41.1217 6.25093 48.1797 9.15693 45.4877C10.3909 44.3447 9.41794 41.8817 8.87394 40.5997Z" fill="#7763E5"/>
<path d="M45.629 41.2836C45.064 40.2266 44.001 38.5676 42.666 38.4116C41.102 38.2276 40.509 40.0086 40.536 41.2476C40.57 42.8396 41.436 44.3956 42.349 45.6516C42.798 46.2686 43.342 47.1616 44.11 47.1396C44.386 47.2956 44.68 47.4216 44.998 47.5016C48.703 48.4346 46.346 42.6276 45.629 41.2836Z" fill="#7763E5"/>
<path d="M42.0309 53.7324C41.3799 52.0414 40.3139 50.6105 38.8699 49.5175C38.4509 49.2005 37.8099 49.4084 37.5429 49.8134C36.6299 51.2034 37.2079 53.0245 37.7189 54.4755C37.9919 55.2485 38.3929 56.3125 38.9759 57.1575C39.0779 57.3315 39.1789 57.5024 39.2799 57.6614C39.9969 58.7964 41.6999 60.2814 42.4999 58.2994C43.0389 56.9674 42.5199 55.0024 42.0309 53.7324Z" fill="#7763E5"/>
<path d="M26.2484 51.3822C25.5184 50.4742 24.3254 49.3752 23.1144 50.1842C21.9554 50.9592 22.3484 52.9402 22.5794 54.0912C22.7314 54.8492 22.9814 55.6052 23.3184 56.3192C23.9654 58.3772 25.2224 60.1882 27.2674 59.7062C30.8404 58.8632 27.4744 52.9062 26.2484 51.3822Z" fill="#7763E5"/>
<path d="M21.2083 66.8102C21.1453 66.5102 21.0733 66.2122 21.0023 65.9142C20.9713 63.8402 20.5273 61.8461 19.5373 59.9711C18.9423 58.8441 17.3093 56.0882 15.6863 57.4022C14.1103 58.6782 15.6613 62.6802 16.4053 64.0932C16.8403 64.9192 17.5483 66.1232 18.4363 66.8702C18.5783 67.0782 18.7213 67.2862 18.8743 67.4912C18.8843 67.5052 18.9003 67.5132 18.9113 67.5272C18.9473 67.5802 18.9833 67.6362 19.0193 67.6892C19.6853 68.6622 21.4623 68.0152 21.2083 66.8102Z" fill="#7763E5"/>
<path d="M30.027 66.4329C28.314 67.3329 29.517 70.0869 30.001 71.3669C30.454 72.5639 31.427 75.6209 33.108 75.5239C33.503 75.5009 33.791 75.3579 34.008 75.1479C34.446 74.9649 34.78 74.5959 34.928 74.0919C35.529 72.0289 33.158 64.7859 30.027 66.4329Z" fill="#7763E5"/>
<path d="M52.9384 69.5227C52.6154 67.7407 51.3924 65.2627 49.8774 64.1597C48.8724 63.4277 47.8324 63.6817 47.3644 64.4857C45.7534 65.1677 46.5364 67.6967 46.9364 68.9507C47.4344 70.5107 48.2654 73.0787 50.2584 73.1747C52.2524 73.2707 53.2534 71.2677 52.9384 69.5227Z" fill="#7763E5"/>
<path d="M51.9614 57.5347C51.9624 55.8387 51.2604 54.1567 50.1384 52.8967C49.8944 52.6227 49.6094 52.4937 49.3244 52.4577C48.7624 52.0887 47.8754 52.2567 47.7274 53.0127C47.5144 54.0987 47.5844 55.1407 47.8574 56.1237C48.0314 56.9217 48.3654 57.6747 48.8314 58.3547C48.8764 58.5437 48.9514 58.7307 49.0954 58.8987C49.2454 59.0737 49.3974 59.2487 49.5494 59.4227C49.7684 59.6747 50.0204 59.8077 50.2774 59.8587C51.1284 60.3587 52.1074 59.5807 52.0734 58.6387C52.0604 58.2727 52.0174 57.9037 51.9614 57.5347Z" fill="#7763E5"/>
<path d="M40.3983 65.4455C40.1743 64.8995 39.8713 64.3845 39.5153 63.9285C39.4813 63.8855 39.4383 63.8595 39.4003 63.8225C39.2543 63.6365 39.1033 63.4535 38.9403 63.2785C38.5103 62.8195 37.6183 62.8525 37.4193 63.5455C37.3723 63.7115 37.3443 63.8915 37.3123 64.0675C36.7503 64.7805 36.8283 65.9085 37.0483 66.7985C37.4213 68.3035 38.3333 69.4185 39.5953 70.2805C40.3523 70.7975 41.2013 69.9625 41.2103 69.2245C41.2253 67.9005 40.9453 66.6145 40.3983 65.4455Z" fill="#7763E5"/>
<path d="M14.398 48.1925C13.979 47.4145 12.996 46.2525 12.108 47.2175C11.825 47.5255 11.704 47.9105 11.701 48.3225C11.675 48.3885 11.652 48.4555 11.641 48.5235C11.365 50.3395 12.2 52.0515 13.78 52.9785C14.48 53.3895 15.379 52.8045 15.354 52.0155C15.313 50.6985 15.027 49.3615 14.398 48.1925Z" fill="#7763E5"/>
<path d="M45.1079 76.9671C45.0619 76.9061 45.0129 76.8431 44.9609 76.7791C44.8489 76.5981 44.7519 76.4111 44.6209 76.2381C43.8509 75.2241 42.2729 74.5071 41.5069 75.8121C41.2819 76.1101 41.2089 76.4721 41.2329 76.8561C41.2149 77.9041 41.7779 79.1461 42.1739 79.9581C42.7779 81.1961 43.6799 82.2151 44.9759 82.7381C45.8929 83.1081 46.6909 82.3741 46.6649 81.4611C46.6189 79.8541 46.0809 78.2541 45.1079 76.9671Z" fill="#7763E5"/>
</svg>
