<svg width="73" height="28" viewBox="0 0 73 28" fill="none" xmlns="http://www.w3.org/2000/svg">
<path d="M44.0602 11.5664C39.8856 5.23032 29.7202 2.14155 22.516 4.53965C20.8628 2.83206 18.6549 1.57768 16.3387 1.00706C9.73797 -0.620506 2.88859 2.64165 0.143571 8.79546C0.102901 8.88626 0.245517 8.95732 0.299226 8.87559C2.89978 4.9103 6.78105 1.95308 11.6924 1.71303C14.927 1.55505 18.7106 2.7524 21.2261 5.04824C20.7452 5.26546 20.2767 5.50213 19.8349 5.77676C16.3939 7.9112 12.8479 13.5695 16.3126 17.317C19.6836 20.9635 24.4049 16.4673 25.1644 12.9657C25.7583 10.2245 24.9774 7.68063 23.4297 5.62117C28.2577 4.17656 33.4625 5.70949 37.8296 8.00559C39.8118 9.04753 41.6594 10.2205 42.9055 11.9395C42.3476 12.1382 41.7915 12.3546 41.2428 12.6067C37.4911 14.3297 33.7758 19.3824 37.3408 23.2089C40.6824 26.7952 45.2108 23.5621 45.8303 19.5406C46.2097 17.0767 45.7839 14.8284 44.7969 12.8442C45.9156 12.5891 47.0609 12.4354 48.1843 12.35C58.4245 11.5695 67.2521 17.9342 70.9555 27.3296C71.2433 28.0594 72.3149 27.6113 72.074 26.8804C68.3354 15.573 55.5564 8.23048 44.0602 11.5664ZM24.0143 11.2868C23.9625 12.9068 23.3025 14.74 22.1211 15.8856C17.0542 19.7848 15.8117 12.8775 16.8088 11.1455C17.7339 8.76206 19.8571 7.02914 22.1654 6.06469C22.1732 6.0617 22.1805 6.05945 22.1882 6.05647C23.3634 7.48763 24.0806 9.23994 24.0143 11.2868ZM44.1493 14.5183C44.423 15.4987 44.5354 16.5234 44.556 17.5348C44.6449 18.4376 44.5685 19.3313 44.3262 20.2136C44.0463 23.1217 35.7647 25.5771 37.6627 17.8166C38.1176 15.9544 39.8138 14.8566 41.4017 14.0425C42.1113 13.6786 42.8613 13.3906 43.6308 13.1566C43.8362 13.5807 44.0135 14.0311 44.1493 14.5183Z" fill="#FFD335"/>
</svg>
