<svg width="66" height="47" viewBox="0 0 66 47" fill="none" xmlns="http://www.w3.org/2000/svg">
<path d="M12.531 11.0017C9.72142 11.9712 6.39002 13.387 4.26066 15.5355C3.781 16.0191 4.23637 16.8197 4.90395 16.5586C7.69669 15.4662 10.3475 13.8444 13.1171 12.6505C14.1433 12.2077 13.6066 10.6304 12.531 11.0017Z" fill="#FFD335"/>
<path d="M17.1757 17.0554C15.9255 17.4385 14.7907 18.19 13.6838 18.8757C12.6371 19.5232 11.3514 20.198 10.6474 21.2243C10.3525 21.6556 10.8607 22.3137 11.2999 22.0192C12.4589 21.7519 13.502 21.0156 14.5585 20.4802C15.7259 19.8884 16.9763 19.4098 18.0517 18.6607C18.949 18.0357 18.1399 16.7598 17.1757 17.0554Z" fill="#FFD335"/>
<path d="M27.3973 5.67604C26.2805 6.16944 25.1978 6.65474 24.1552 7.29644C23.2516 7.85242 21.7068 8.4972 21.5924 9.67448C21.5729 9.87905 21.6491 10.0504 21.8316 10.1509C22.7363 10.646 23.784 9.99224 24.6316 9.61887C25.9417 9.0413 27.1406 8.35858 28.3409 7.58115C29.4663 6.85058 28.6791 5.11062 27.3973 5.67604Z" fill="#FFD335"/>
<path d="M30.515 12.0879C28.6875 12.6286 26.6704 13.5769 25.5531 15.1968C25.0453 15.9332 25.7526 17.0932 26.6677 16.6651C28.2749 15.9138 29.7325 14.8925 31.3882 14.2087C32.608 13.7061 31.756 11.7217 30.515 12.0879Z" fill="#FFD335"/>
<path d="M37.4076 5.42328C36.4991 5.72317 35.7233 6.30618 34.8783 6.74611C34.1022 7.15041 33.3339 7.49644 32.598 7.9728C32.2882 8.1722 32.4298 8.62539 32.7872 8.64199C34.5318 8.71939 36.9278 8.18819 38.2837 7.02958C39.0744 6.35351 38.4301 5.08481 37.4076 5.42328Z" fill="#FFD335"/>
<path d="M41.6662 12.3904C40.4946 12.3024 39.6969 12.9624 38.7097 13.5333C37.7346 14.098 36.7895 14.6715 35.8596 15.3074C35.2539 15.7219 35.8922 16.4889 36.477 16.3107C37.5503 15.9835 38.5807 15.5755 39.6219 15.1596C40.6414 14.7526 41.6052 14.518 42.2353 13.579C42.514 13.1648 42.1695 12.4277 41.6662 12.3904Z" fill="#FFD335"/>
<path d="M28.2102 20.8967C27.2733 20.7974 26.4527 21.2827 25.6619 21.7414C24.813 22.2339 24.0822 22.7957 23.4291 23.5315C22.9747 24.0431 23.4423 24.9979 24.1547 24.6121C24.9247 24.1957 25.719 23.7912 26.5344 23.4703C27.2539 23.1868 28.0555 23.0969 28.6664 22.6031C29.2951 22.0951 29.0622 20.9867 28.2102 20.8967Z" fill="#FFD335"/>
<path d="M17.0916 23.1866C15.9602 23.6095 14.956 24.1986 13.9205 24.8177C13.1255 25.2934 12.3252 25.6645 11.8723 26.5038C11.7524 26.7263 11.8944 27.0443 12.1505 27.0851C13.0617 27.2286 13.7965 26.8601 14.6353 26.5279C15.8481 26.0489 16.9866 25.5577 18.0938 24.8619C19.0824 24.242 18.085 22.8157 17.0916 23.1866Z" fill="#FFD335"/>
<path d="M50.7788 5.12734C49.6934 5.5349 48.6455 6.06683 47.6147 6.59874C46.7681 7.0349 45.8601 7.45151 45.3141 8.25871C45.1533 8.49657 45.1901 8.90851 45.5453 8.95292C46.5449 9.07867 47.429 8.72726 48.3586 8.37485C49.4603 7.95626 50.583 7.52478 51.6257 6.97449C52.7898 6.35891 52.0012 4.66796 50.7788 5.12734Z" fill="#FFD335"/>
<path d="M52.6075 14.2105C51.1563 14.0575 49.9934 14.9542 48.7729 15.6469C47.5324 16.3523 46.2851 17.0202 45.1738 17.921C44.6784 18.322 45.0964 19.175 45.7155 19.0353C47.2184 18.6966 48.6059 18.0575 50.021 17.4653C51.2526 16.9494 52.5082 16.6192 53.2221 15.4317C53.4972 14.9744 53.1333 14.2652 52.6075 14.2105Z" fill="#FFD335"/>
<path d="M38.6912 20.9597C37.5241 21.0507 36.5932 21.7213 35.5967 22.2796C35.1893 22.5075 34.7075 22.7223 34.5988 23.2242C34.5689 23.3646 34.5405 23.7129 34.6636 23.8281C35.389 24.5075 36.0609 24.1055 36.8959 23.7862C37.8477 23.4217 38.6987 23.1412 39.4286 22.4028C39.9822 21.8441 39.4145 20.9031 38.6912 20.9597Z" fill="#FFD335"/>
<path d="M61.0772 14.9281C59.9001 14.9233 58.7929 15.6242 57.886 16.3494C57.5072 16.6525 55.6914 18.2119 56.7213 18.7365C57.3814 19.072 58.0831 18.4778 58.6179 18.1327C59.6264 17.4819 60.7891 17.0748 61.6588 16.2547C62.1734 15.7679 61.7286 14.9299 61.0772 14.9281Z" fill="#FFD335"/>
<path d="M50.9714 22.7494C50.7801 22.5935 50.5135 22.5221 50.27 22.5523C50.1567 22.5664 49.6128 22.8775 49.653 22.8978C49.6282 22.7986 49.6023 22.6986 49.5775 22.5994C49.4898 22.6313 49.403 22.663 49.3154 22.6958C49.1048 22.7282 48.837 22.8897 48.6414 22.9834C48.178 23.2051 47.7462 23.4892 47.3359 23.7979C46.7054 24.2727 46.1345 24.7858 45.7719 25.4933C45.5042 26.0153 45.9411 26.6891 46.5549 26.4112C47.3115 26.0683 47.9903 25.6021 48.7503 25.2667C49.5714 24.9041 50.4663 24.6991 51.1196 24.0668C51.4861 23.7121 51.3278 23.0394 50.9714 22.7494Z" fill="#FFD335"/>
<path d="M39.8444 27.1231C37.6335 26.5772 34.1385 27.8668 32.5129 29.3477C31.769 30.0245 32.3697 31.4076 33.4196 30.9719C34.6064 30.4782 35.6737 29.7519 36.8626 29.2588C37.9125 28.8231 39.0733 28.588 40.046 27.9983C40.4383 27.7599 40.2195 27.2158 39.8444 27.1231Z" fill="#FFD335"/>
<path d="M25.277 27.8128C24.1607 28.1325 23.1625 28.6586 22.1282 29.1759C20.9455 29.7673 19.6163 30.2315 18.7752 31.2863C18.5453 31.5751 18.7091 32.0903 19.1079 32.1168C20.2552 32.1939 21.1736 31.744 22.2281 31.3287C23.5493 30.8081 24.8887 30.3553 26.0958 29.599C26.9474 29.0654 26.2269 27.5401 25.277 27.8128Z" fill="#FFD335"/>
<path d="M45.3658 30.3162C44.211 30.7961 42.6989 31.4198 41.8889 32.404C41.5824 32.7765 41.9223 33.3904 42.3788 33.3985C43.6208 33.4201 45.0632 32.6788 46.1514 32.1214C47.272 31.5471 46.5469 29.8246 45.3658 30.3162Z" fill="#FFD335"/>
<path d="M59.0305 24.409C58.0837 24.6304 57.2375 25.1661 56.3802 25.6112C55.5956 26.0191 54.7863 26.414 54.1946 27.0841C53.919 27.3963 54.1751 27.9621 54.5834 27.9788C55.4706 28.0159 56.3285 27.6996 57.1575 27.4098C58.1126 27.0752 59.0976 26.8166 59.9424 26.2507C60.852 25.6429 60.0026 24.1811 59.0305 24.409Z" fill="#FFD335"/>
<path d="M33.2495 34.1399C31.1645 34.9347 28.7244 35.7714 27.0566 37.3004C26.8103 37.5261 27.0305 37.9409 27.3398 37.9326C29.6101 37.8706 31.9387 36.7958 34.0059 35.924C35.1594 35.4372 34.4129 33.6972 33.2495 34.1399Z" fill="#FFD335"/>
<path d="M52.397 31.8478C51.5367 32.2132 50.7161 32.6813 49.8856 33.1116C49.2934 33.4191 48.659 33.6895 48.1497 34.1266C47.7709 34.452 47.9766 35.1112 48.5141 35.0551C49.3058 34.972 50.0723 34.6395 50.825 34.3887C51.5843 34.1347 52.3564 33.9017 53.0939 33.5886C54.2054 33.1165 53.5102 31.3743 52.397 31.8478Z" fill="#FFD335"/>
<path d="M40.9765 37.4376C40.2479 37.6465 39.5873 38.0952 38.9226 38.4523C38.6518 38.597 38.3568 38.7257 38.1017 38.8961C37.9056 39.0041 37.7489 39.1508 37.6302 39.3345C37.6275 39.3421 37.6263 39.3464 37.6235 39.354C37.547 39.4377 37.4904 39.5361 37.4742 39.6335C37.4086 40.0464 37.8278 40.4156 38.2043 40.4593C38.7882 40.527 39.4625 40.1154 39.9909 39.9055C40.6293 39.6517 41.2825 39.4359 41.8515 39.043C42.7642 38.4133 41.9341 37.1624 40.9765 37.4376Z" fill="#FFD335"/>
<path d="M21.8241 34.1553C20.4523 34.5001 19.084 35.0129 17.8869 35.7796C17.3271 36.1383 17.4551 37.2622 18.2525 37.166C19.6424 36.9967 21.0295 36.5608 22.29 35.9565C23.1817 35.5276 22.9188 33.8802 21.8241 34.1553Z" fill="#FFD335"/>
<path d="M12.3322 29.2689C11.7133 29.433 11.1709 29.7124 10.6228 30.0395C10.0655 30.3723 9.3458 30.7514 8.94248 31.2701C8.75557 31.5096 8.87489 31.8773 9.20734 31.8791C9.8083 31.8828 10.4521 31.625 11.0174 31.4288C11.7253 31.1829 12.3694 30.9098 12.9753 30.4678C13.5585 30.0409 12.9705 29.1004 12.3322 29.2689Z" fill="#FFD335"/>
<path d="M5.44345 22.9143C4.88494 23.1661 4.41239 23.4899 3.91005 23.8404C3.44572 24.1648 2.94327 24.5204 2.668 25.0224C2.52456 25.2836 2.74447 25.7087 3.0515 25.716C3.60868 25.7305 4.13498 25.4804 4.63083 25.2418C5.15285 24.9904 5.67941 24.7473 6.14381 24.4006C6.84383 23.8767 6.35549 22.5031 5.44345 22.9143Z" fill="#FFD335"/>
</svg>
