<svg width="37" height="86" viewBox="0 0 37 86" fill="none" xmlns="http://www.w3.org/2000/svg">
<g clip-path="url(#clip0_1_2744)">
<path d="M35.4072 85.3915C34.9784 85.858 34.4883 85.9797 34.1412 86.0203C33.0181 86.1014 32.283 85.1887 31.9767 84.783C23.666 74.2764 16.1312 63.0396 9.57661 51.3769C9.43367 51.1132 9.41325 50.8292 9.49493 50.5858C8.73941 50.809 7.90222 50.9712 7.06502 50.9104C5.26811 50.809 3.28743 49.5311 3.10365 47.5434C3.00155 46.3264 3.51204 44.5415 6.61579 42.9392C12.272 39.9981 18.6428 38.3146 25.0137 38.0104C25.4017 37.9901 25.8101 37.9901 26.198 37.9698C27.9133 37.909 29.5468 37.8684 31.0783 37.4019C32.6301 36.9354 34.4271 35.7995 34.8354 33.9943C35.3051 32.0066 33.8145 30.0189 32.0992 29.2076C30.3636 28.3962 28.097 28.3962 25.6671 29.1873C22.1754 30.3231 19.2963 32.6151 16.2538 35.0288C14.3139 36.5703 12.3128 38.1524 10.1484 39.4099C7.41215 41.0123 4.9414 41.2354 3.20575 40.059C1.59261 38.9637 0.877934 36.7123 1.49052 34.5623C2.04184 32.5948 3.51204 31.0939 4.57385 30.1203C9.39283 25.7392 15.8862 23.3458 22.4204 23.5892C22.788 23.6094 23.1555 23.6297 23.5027 23.65C24.5849 23.7109 25.6059 23.7717 26.6064 23.6094C27.9337 23.4066 28.9955 22.7576 29.4243 21.8854C30.139 20.4656 29.0772 18.5387 27.6478 17.7679C26.2593 17.0175 24.442 16.8755 21.9304 17.3217C17.1931 18.1533 12.7825 20.2222 9.1478 23.3255C9.00486 23.4472 8.84151 23.5892 8.69857 23.7109C7.71844 24.5627 6.71789 25.4349 5.39063 25.9014C3.73665 26.4896 1.42926 26.1854 0.428706 24.441C-0.388071 23.0009 -0.0205209 21.1146 1.42926 19.208C4.02253 15.841 6.53411 13.2245 12.905 12.7377C14.3752 12.6363 15.682 12.8189 16.8459 13.0014C18.2549 13.2042 19.48 13.3868 20.6235 12.9811C21.5424 12.6566 22.4204 11.683 22.9309 10.466C23.4006 9.33019 23.4822 8.17406 23.0943 7.38302C22.4408 5.96321 20.3989 5.51699 18.847 5.57784C16.7234 5.65897 14.661 6.30802 12.8846 7.46416C12.4966 7.70755 12.129 7.99151 11.7411 8.27548C10.9447 8.86368 10.1279 9.45189 9.18864 9.87783C7.12628 10.7906 4.67595 10.9123 3.83875 9.0868C3.40994 8.15378 2.634 5.21274 4.02253 2.67736C4.67595 1.50095 5.61524 0.628778 6.67705 0.223118C8.02473 -0.30424 9.84206 -0.10141 10.5363 1.3184C10.6384 1.54151 10.6997 1.76463 10.6997 1.98774C12.0065 1.84576 13.0683 2.45425 13.4767 3.61038C13.6197 4.03633 13.6197 4.44199 13.4971 4.84765C15.1715 4.13774 16.948 3.7118 18.7858 3.65095C21.0523 3.56982 23.8498 4.3 24.932 6.61227C25.5446 7.93066 25.4833 9.63444 24.7891 11.2976C24.054 13.042 22.7471 14.4009 21.3178 14.908C19.6842 15.4759 18.1528 15.2528 16.5396 15.0094C15.437 14.8472 14.2935 14.6849 13.0479 14.766C7.47341 15.1717 5.45189 17.2811 3.02197 20.4656C2.67484 20.9118 1.57219 22.4736 2.16436 23.508C2.59317 24.2585 3.81833 24.4005 4.69637 24.0759C5.65608 23.7311 6.47286 23.0212 7.35089 22.2505C7.51425 22.1085 7.65718 21.9868 7.82054 21.8448C11.7411 18.4981 16.4784 16.267 21.5628 15.3745C23.4414 15.05 26.198 14.766 28.5871 16.0439C30.8741 17.2609 32.4668 20.283 31.2008 22.7981C30.4657 24.2585 28.8934 25.2726 26.9127 25.5972C25.708 25.7797 24.5236 25.7189 23.3801 25.658C23.033 25.6377 22.6859 25.6175 22.3388 25.5972C16.3354 25.3741 10.3525 27.5646 5.92153 31.6009C5.0435 32.392 3.83875 33.6292 3.40994 35.1099C3.08323 36.2255 3.30785 37.7264 4.32882 38.416C5.75818 39.3896 7.94306 38.3755 9.12738 37.6859C11.1897 36.4892 13.1296 34.9476 15.0082 33.467C18.0711 31.0533 21.2157 28.5382 25.0545 27.3009C27.9541 26.3476 30.772 26.3882 32.9569 27.4024C35.7747 28.7208 37.4083 31.7429 36.7957 34.4406C36.1831 37.0571 33.7532 38.6594 31.6704 39.2882C29.8939 39.8358 28.0358 39.8967 26.2593 39.9373C25.8713 39.9576 25.4833 39.9576 25.0954 39.9778C19.0104 40.2618 12.9254 41.8844 7.53467 44.6835C6.37076 45.292 5.00266 46.2453 5.08434 47.3609C5.16601 48.233 6.22782 48.8618 7.16712 48.9226C8.37186 48.9835 9.63787 48.4359 10.7814 47.9288L26.8106 40.8703C27.8112 40.4241 29.6897 39.5925 31.3641 40.3835C33.2631 41.2759 33.6511 43.6288 33.8553 44.7646L35.4276 54.0137C35.5501 54.7642 35.8156 56.3259 34.815 57.3807C33.4878 58.8005 31.2825 58.0297 30.5474 57.766L23.8702 55.3726C22.7676 54.9873 22.5634 55.2104 22.5634 55.2104C22.4613 55.3118 22.645 55.8594 23.0943 56.2448C24.3807 57.3807 26.2797 57.7255 28.2604 58.0297C30.3432 58.334 32.6914 58.6788 34.4883 60.0986C35.6318 60.991 36.4282 62.4514 36.5711 63.8712C36.6732 65.0071 36.3465 66.0821 35.6522 66.8731C34.2637 68.4349 31.9563 68.516 30.2615 67.9075C28.8321 67.3802 27.6886 66.4675 26.586 65.575C26.4431 65.4533 26.3001 65.3316 26.1572 65.2302C25.3608 64.6014 24.3807 64.1958 23.8089 64.2769C23.6252 64.2972 23.5231 64.3783 23.4414 64.5C23.1964 64.8651 23.5027 65.5953 23.9315 66.0618C25.075 67.2991 26.8514 67.7453 28.73 68.2321C30.5269 68.6986 32.3851 69.1651 33.9166 70.3821C35.6726 71.7816 36.7957 74.1344 36.9999 76.8321C37.1633 79.1646 36.714 81.3958 36.2648 83.566C36.0402 84.4585 35.7339 85.0264 35.4072 85.3915ZM10.9243 50.0179C11.0672 50.0991 11.1897 50.2208 11.2918 50.383C17.7852 61.9646 25.2791 73.1203 33.5286 83.5255C33.7532 83.8297 33.8961 83.9311 33.9574 83.9717C34.0187 83.8906 34.1412 83.6675 34.2637 83.1604C34.6721 81.1118 35.1213 79.0024 34.958 76.9538C34.7946 74.8038 33.937 72.958 32.6301 71.9033C31.4458 70.95 29.8735 70.5443 28.1991 70.1184C26.1163 69.591 23.9723 69.0434 22.4408 67.3802C21.5016 66.366 20.8686 64.6825 21.767 63.3642C22.1754 62.7557 22.7676 62.3906 23.5027 62.2689C24.8708 62.066 26.4226 62.8368 27.4028 63.6278C27.5457 63.7495 27.7091 63.8712 27.852 63.9929C28.873 64.8245 29.8531 65.5953 30.9558 66.0009C31.9767 66.366 33.4061 66.366 34.1412 65.5142C34.57 65.0274 34.6108 64.4189 34.57 63.9929C34.4883 63.1005 33.9574 62.1675 33.2427 61.5995C31.8542 60.5043 29.8735 60.2203 27.9745 59.9363C25.6671 59.5915 23.4618 59.1656 21.7466 57.6646C20.6031 56.6708 20.0314 54.9467 21.0523 53.8109C21.7874 52.9995 22.9513 52.8576 24.544 53.4255L31.2416 55.7986C32.6301 56.2854 33.161 56.1434 33.3652 55.9406C33.6511 55.6363 33.5694 54.9264 33.4673 54.2571L31.895 45.008C31.6704 43.7302 31.3641 42.4929 30.5269 42.0873C29.751 41.7222 28.6279 42.1481 27.6478 42.5943L11.6186 49.6528C11.3735 49.8354 11.1489 49.9165 10.9243 50.0179ZM5.6765 8.31604C5.88069 8.74199 7.18754 8.64057 8.39228 8.11321C8.53522 8.05236 8.67815 7.97123 8.82109 7.8901C8.47396 7.93067 8.10641 7.97123 7.75928 8.0118C6.98334 8.09293 6.22782 8.17406 5.6765 8.31604ZM5.26811 6.36887C5.96237 6.18633 6.73831 6.12548 7.55509 6.04434C8.80067 5.92265 10.1892 5.78067 10.9039 5.29387C11.251 5.05048 11.6186 4.50283 11.5981 4.32029C11.5573 4.19859 11.4756 3.95519 10.9039 4.01604C10.3117 4.09717 9.71954 4.34057 9.00486 4.80708C8.53522 5.11133 7.92264 4.96934 7.61634 4.52312C7.31005 4.05661 7.45299 3.44812 7.90222 3.14387C8.33102 2.85991 8.63732 2.3934 8.69857 2.17029C8.49438 1.92689 7.8818 1.92689 7.41215 2.10944C6.77915 2.35283 6.2074 2.92076 5.7786 3.67123C5.32937 4.56368 5.20685 5.53727 5.26811 6.36887Z" fill="white" fill-opacity="0.3"/>
</g>
<defs>
<clipPath id="clip0_1_2744">
<rect width="37" height="86" fill="white"/>
</clipPath>
</defs>
</svg>
