<svg width="79" height="107" viewBox="0 0 79 107" fill="none" xmlns="http://www.w3.org/2000/svg">
<g clip-path="url(#clip0_1_2747)">
<path d="M15.2056 107C11.4198 107 7.75925 104.734 4.03608 100.043C2.15885 97.6506 0.187765 94.723 4.17735e-05 91.2917C-0.0938196 89.1825 0.657071 87.0419 2.06499 85.4994C3.19133 84.2402 4.66182 83.5162 6.22618 83.4532C7.00836 83.4217 7.66539 84.0198 7.69668 84.8068C7.72796 85.5938 7.13351 86.2549 6.35133 86.2864C5.35014 86.3179 4.59925 86.916 4.16123 87.4197C3.28519 88.3955 2.75331 89.8436 2.84717 91.1658C2.97232 93.8101 4.66182 96.2655 6.28875 98.3117C9.44876 102.278 12.3585 104.198 15.2369 104.198C15.2369 104.198 15.2369 104.198 15.2682 104.198C18.6785 104.198 21.4317 101.46 22.7458 99.8227C27.5327 93.9675 29.0658 85.342 27.0947 77.0628C25.1549 77.9442 23.0899 78.2905 21.1501 78.0072C17.5208 77.5035 14.5173 74.7018 14.0167 71.3335C13.7351 69.4447 14.3608 67.43 15.6749 65.8875C16.8638 64.5338 18.4594 63.7468 20.1177 63.7468C20.149 63.7468 20.1802 63.7468 20.2115 63.7468C23.1838 63.8098 25.8432 66.0763 27.7204 70.2002C28.0959 70.9872 28.4088 71.8057 28.7216 72.6241C30.7866 70.7983 32.2258 68.3429 33.2583 66.3911C35.0729 62.9598 36.0741 59.9378 36.2618 57.262C35.4484 57.3249 34.6662 57.2934 33.8527 57.199C31.7565 56.9786 30.067 56.3176 28.8468 55.2473C27.1573 53.7677 26.469 51.4697 27.1886 49.5494C27.5953 48.3847 28.5026 47.4717 29.7228 46.9366C31.1307 46.3385 32.7577 46.307 34.1343 46.8736C36.168 47.7236 37.7949 49.7698 38.5458 52.4141C38.7022 52.9178 38.7961 53.3899 38.8899 53.9251C42.7695 52.7918 46.1486 49.8642 47.5878 46.0237C48.5264 43.4738 48.589 40.6721 47.9006 38.0593C44.9909 39.4759 40.9549 40.6721 37.2943 39.0351C35.1355 38.0907 33.446 35.8872 33.008 33.4632C32.6325 31.4485 33.1644 29.5597 34.4472 28.269C37.1066 25.5618 41.5806 26.3488 44.6155 28.5209C46.6179 29.9375 48.2135 31.8577 49.3398 34.0298C53.6575 31.1967 56.8488 27.1987 58.2254 22.7286C58.3192 22.3823 58.4444 22.036 58.507 21.6897C56.7862 22.1619 55.1905 22.1934 53.72 21.8471C51.8741 21.4379 50.1846 20.1787 49.1834 18.5732C48.3699 17.2196 48.1196 15.7086 48.4638 14.292C49.2147 11.3958 52.4686 9.50704 55.5973 10.2311C58.1941 10.8292 60.4155 13.0643 61.2602 15.9289C61.3854 16.4011 61.5105 16.9048 61.5731 17.4085C64.0135 16.0863 65.7656 14.6383 66.9545 13.0013C67.7054 11.9625 68.206 10.8292 68.4563 9.7274C67.6741 9.97924 66.8919 10.0737 66.1097 10.0107C64.3577 9.91628 62.6369 8.81448 61.7295 7.20901C60.9787 5.88686 60.9161 4.43878 61.5105 3.21107C62.5117 1.22784 65.1086 0.314925 67.3299 1.16488C68.9256 1.763 70.2084 3.17959 70.8967 5.00542C71.0218 4.8795 71.147 4.78506 71.2721 4.65914C71.585 4.37582 71.8666 4.09251 72.1794 3.77771C73.6187 2.39259 75.1204 0.944521 77.0915 0.126046C77.8111 -0.157273 78.6246 0.189005 78.9375 0.913042C79.219 1.63708 78.8749 2.45555 78.1553 2.77035C76.6848 3.36847 75.4333 4.5647 74.1505 5.8239C73.8377 6.1387 73.5248 6.4535 73.2119 6.73681C72.6175 7.30345 72.023 7.77565 71.4598 8.18489C71.4286 10.3885 70.6777 12.6865 69.2385 14.6697C67.7054 16.8104 65.4214 18.6047 62.324 20.2102C62.0737 20.3361 61.8234 20.462 61.5731 20.5879C61.448 21.5638 61.229 22.5712 60.9161 23.61C59.2891 28.8357 55.5034 33.5262 50.4349 36.7056C51.4987 40.074 51.4987 43.7571 50.2472 47.0625C48.4325 51.9104 44.0836 55.5935 39.109 56.8527C39.0151 60.1266 37.92 63.7153 35.7612 67.7762C34.541 70.0428 32.8515 72.9389 30.2547 75.0796C30.067 75.237 29.848 75.4258 29.629 75.5518C32.1006 84.9328 30.4111 94.8804 24.9046 101.617C22.0575 105.08 18.6159 107 15.2056 107ZM20.1177 66.6115C18.9913 66.6115 18.1779 67.3355 17.8024 67.7762C17.0202 68.6577 16.6448 69.8854 16.8012 70.9242C17.1141 73.0334 19.1478 74.8592 21.5256 75.2055C23.0587 75.4258 24.7169 75.111 26.2812 74.2926C25.9371 73.3167 25.5616 72.3408 25.1236 71.3964C24.3101 69.6336 22.5893 66.643 20.149 66.6115H20.1177ZM31.9755 49.329C31.5688 49.329 31.1933 49.4235 30.8179 49.5809C30.4737 49.7383 30.0044 50.0216 29.7854 50.5882C29.5038 51.3752 29.8792 52.477 30.6614 53.1696C31.4436 53.8621 32.6012 54.2714 34.103 54.4288C34.76 54.4917 35.4171 54.5232 36.1054 54.4603C36.0428 54.051 35.949 53.6418 35.8238 53.264C35.2919 51.4382 34.2594 50.0846 33.008 49.5494C32.6951 49.392 32.3509 49.329 31.9755 49.329ZM38.7961 29.3708C37.8575 29.3708 37.0127 29.6227 36.387 30.2523C35.5422 31.1337 35.6048 32.2984 35.7299 32.928C36.0115 34.4391 37.0753 35.8557 38.3893 36.4538C41.1739 37.6815 44.4903 36.6112 46.8682 35.415C45.9608 33.5891 44.6155 31.9837 42.9573 30.8189C41.7371 29.9689 40.1727 29.3708 38.7961 29.3708ZM54.2519 12.9069C52.844 12.9069 51.4674 13.7883 51.1545 14.9845C50.9355 15.8345 51.2484 16.59 51.5299 17.0937C52.1244 18.0696 53.1882 18.8251 54.2832 19.0769C55.5973 19.3917 57.0678 19.2343 58.7886 18.6047C58.7573 17.9436 58.6634 17.2826 58.4757 16.6844C57.9438 14.8271 56.5046 13.3161 54.909 12.9383C54.6899 12.9383 54.4709 12.9069 54.2519 12.9069ZM65.5466 3.65179C64.8895 3.65179 64.2325 3.96659 63.9822 4.47026C63.7319 4.94246 63.9196 5.44614 64.1074 5.79242C64.5454 6.54793 65.4214 7.11457 66.2349 7.17753C66.9232 7.20901 67.6741 7.05161 68.4563 6.67385C68.425 6.57941 68.3937 6.4535 68.3624 6.35906C67.987 5.09986 67.2361 4.15547 66.2975 3.77771C66.0472 3.71475 65.7969 3.65179 65.5466 3.65179Z" fill="white" fill-opacity="0.3"/>
</g>
<defs>
<clipPath id="clip0_1_2747">
<rect width="79" height="107" fill="white"/>
</clipPath>
</defs>
</svg>
