<svg width="142" height="84" viewBox="0 0 142 84" fill="none" xmlns="http://www.w3.org/2000/svg">
<path fill-rule="evenodd" clip-rule="evenodd" d="M12.6228 0.144804C10.9983 0.514003 7.04791 1.91696 5.57112 2.65535C1.39917 4.79671 -0.372978 8.71021 1.0669 12.7345C1.4361 13.7313 1.80529 15.1343 1.95297 15.8727C2.17449 17.2018 5.46035 23.8104 7.19559 26.321C7.74939 27.2071 8.34011 27.687 8.93083 27.7978C9.6323 27.9085 10.0015 28.3147 10.5553 29.3484C12.7705 33.668 28.203 60.6565 28.9045 61.4687C29.7905 62.5025 29.3844 62.3548 39.9804 65.493C41.8264 66.0468 44.2262 66.859 45.4077 67.339C47.5859 68.225 48.6566 68.2251 49.0258 67.3759C49.1366 67.0805 49.3581 63.4255 49.5058 59.3274C49.6165 55.1923 49.838 51.5004 49.9488 51.1681C50.0965 50.6512 49.7273 49.9128 48.5828 48.1776C47.7336 46.8854 45.9984 44.1902 44.7062 42.1227C43.4509 40.0921 39.3159 33.8896 35.587 28.2777C31.8581 22.7028 28.7199 17.9771 28.5722 17.7556C28.4614 17.5341 28.3138 16.8326 28.203 16.1311C28.1292 15.282 27.3538 13.6206 25.7663 10.8885C23.2926 6.6427 21.7051 4.50135 21.0036 4.50135C20.7452 4.50135 20.5237 4.24291 20.4129 3.94755C20.0806 2.87687 17.6808 0.957041 16.0194 0.477083C14.5057 -0.0397955 13.7673 -0.113635 12.6228 0.144804ZM15.6872 2.39692C16.1302 2.58152 16.9794 3.06147 17.5332 3.50451L18.5669 4.27983L16.0564 4.83363C11.8475 5.7197 8.15551 7.71338 4.64812 10.9623L2.83905 12.6237L2.61753 11.8484C2.21141 10.187 2.65445 7.86106 3.61437 6.67962C4.72196 5.31359 7.67555 3.65219 10.6291 2.76611C13.2505 1.9908 14.4688 1.91696 15.6872 2.39692ZM23.6249 11.0731C25.1017 13.4729 26.2832 15.5035 26.2832 15.5773C26.2832 15.6511 25.2863 15.7619 24.1049 15.7619C20.0437 15.8357 15.761 17.4233 12.8813 19.9339C11.3306 21.2999 9.4477 24.3273 9.4477 25.5088C9.4477 26.1733 9.41078 26.1733 8.8939 25.6934C8.59855 25.4349 7.30635 23.1459 6.01416 20.5984C3.28209 15.3189 3.28209 15.1712 5.49728 12.8083C7.08484 11.11 9.33695 9.48553 12.1059 8.08258C14.5426 6.86422 15.761 6.56886 18.6038 6.6427L20.9667 6.71654L23.6249 11.0731ZM26.5416 18.2725C26.6154 18.4571 30.1228 23.8474 34.3686 30.2345C38.5775 36.6216 42.5648 42.7503 43.2294 43.821C43.894 44.8917 44.6324 46.11 44.8908 46.4792C45.2969 47.1438 45.2969 47.2176 44.78 47.1438C43.1555 46.9592 42.491 47.3284 41.2726 49.0267C40.9403 49.5067 40.5712 49.1006 38.0606 44.9655C34.8486 39.7229 28.7937 30.1607 24.511 23.5151C22.8865 21.0045 21.5205 18.7893 21.4836 18.5678C21.2621 17.7556 26.2832 17.4602 26.5416 18.2725ZM20.0068 18.8632C20.0068 19.0109 22.9604 23.6258 26.5416 29.1269C30.1228 34.628 34.3686 41.3105 35.9931 43.9318L38.9467 48.7683L37.4699 49.3221C35.9193 49.8759 34.7747 51.2419 34.7747 52.4972C34.7747 52.8295 34.7009 53.1248 34.5163 53.1248C34.1471 53.1248 24.6587 37.1016 20.6344 29.6807C18.6038 25.9518 16.6102 22.4075 16.204 21.8168C15.8348 21.1891 15.5026 20.5984 15.5026 20.5246C15.5026 20.2661 19.1576 18.5678 19.6376 18.5678C19.8222 18.5678 20.0068 18.7155 20.0068 18.8632ZM20.0068 31.379C22.1851 35.3294 26.0616 41.975 28.6091 46.1839C32.5226 52.7556 33.0764 53.7894 32.5226 53.7894C31.4889 53.7894 29.9382 54.9339 29.4583 56.0784C29.1998 56.6691 28.9414 57.1122 28.9045 57.0752C28.8306 57.0014 25.914 51.8326 22.4066 45.5193C18.8992 39.2429 14.9488 32.3389 13.6197 30.1607C12.3275 27.9824 11.2568 26.0626 11.2568 25.878C11.2568 25.2134 12.2167 23.5889 13.2874 22.4813L14.3581 21.3368L15.1334 22.7767C15.6133 23.5151 17.7916 27.3917 20.0068 31.379ZM45.6292 49.3959C47.4013 50.1343 47.6967 50.6143 47.5121 52.4233C47.4383 53.3094 47.2537 54.7862 47.1429 55.6723L46.9952 57.2968L45.6661 57.4814C43.4878 57.8136 39.9066 60.4719 39.3528 62.1702C39.2051 62.6871 38.9467 62.6501 35.6977 61.6533C30.5659 60.1396 30.1967 59.955 30.1967 58.9212C30.1967 56.3369 31.4519 55.1923 33.7779 55.6723C35.9193 56.0784 36.2146 55.8938 36.2146 53.9001C36.2146 52.4603 36.3254 52.0911 36.9899 51.5003C38.0237 50.5404 38.7621 50.5774 40.1281 51.5373C41.0511 52.1649 41.3465 52.2757 41.8634 51.9434C42.2326 51.7588 42.491 51.3157 42.491 50.9465C42.491 50.0605 43.3032 48.916 43.9678 48.916C44.337 48.9529 45.0385 49.1744 45.6292 49.3959Z" fill="#7763E5"/>
<path fill-rule="evenodd" clip-rule="evenodd" d="M17.0529 10.1867C16.0192 10.5928 16.2407 12.0696 17.3114 12.2173C18.2344 12.328 18.8989 11.6265 18.6405 10.8143C18.419 10.0759 17.939 9.85439 17.0529 10.1867Z" fill="#7763E5"/>
<path fill-rule="evenodd" clip-rule="evenodd" d="M7.6751 15.2825C7.19514 16.2055 7.78586 17.1285 8.81961 17.0177C9.37341 16.9439 9.66877 16.7223 9.70569 16.2424C9.92721 14.8394 8.30273 14.0641 7.6751 15.2825Z" fill="#7763E5"/>
<path fill-rule="evenodd" clip-rule="evenodd" d="M103.889 53.8635C101.231 54.565 98.0188 57.4448 96.542 60.4722C95.4344 62.7243 94.8067 66.1209 94.9913 68.5207C95.0652 69.5914 95.2498 70.699 95.3236 70.9205C95.6559 71.8066 87.2751 75.314 81.4787 76.7908C77.3806 77.8245 70.0704 78.083 66.1938 77.3446C62.0219 76.5693 57.7392 74.834 53.3457 72.1758C51.3151 70.9574 50.6875 70.8836 50.6875 71.8435C50.6875 74.3541 59.5483 78.5998 67.2276 79.7444C74.907 80.852 83.8046 79.1906 92.7023 74.9079L96.062 73.2834L96.8004 74.391C98.4987 77.0492 101.785 79.2275 105.698 80.1874C106.695 80.4458 108.836 80.5935 111.125 80.5935C115.297 80.5566 118.509 79.892 122.534 78.2306C124.712 77.3446 124.786 77.3446 125.081 77.8984C125.93 79.3752 128.552 81.5534 130.25 82.218C132.391 82.9933 135.972 83.7317 137.671 83.6948C140.55 83.6209 142.913 82.218 140.144 82.218C137.892 82.218 132.797 81.0366 130.73 80.0766C128.958 79.2275 127.075 77.3077 127.075 76.4216C127.075 76.237 127.924 75.3878 128.921 74.4279C132.391 71.2897 133.203 67.6346 130.656 66.564C128.81 65.7887 126.669 67.1178 125.303 69.9606C124.712 71.179 124.343 72.3604 124.269 73.3941L124.195 74.9448L122.534 75.6832C115.666 78.7475 107.913 79.1167 103.003 76.6062C100.64 75.3878 98.4987 73.2095 98.4987 71.9912C98.4987 71.8435 99.4587 71.0682 100.677 70.256C104.812 67.4131 108.873 62.9089 109.87 59.9553C111.273 55.931 108.246 52.7559 103.889 53.8635ZM107.323 56.5956C107.766 57.0017 108.061 57.6663 108.061 58.1832C108.061 60.4722 104.48 65.0133 100.086 68.2623C97.7234 69.9975 97.6865 70.0344 97.5019 69.333C96.2836 65.0503 99.2002 58.6631 103.335 56.6325C105.329 55.6357 106.4 55.6357 107.323 56.5956ZM130.028 69.0745C130.028 69.9606 128.736 71.8804 127.555 72.8034C126.373 73.7264 126.189 73.3941 126.853 71.622C127.739 69.333 130.028 67.487 130.028 69.0745Z" fill="white"/>
</svg>
