<svg width="27" height="37" viewBox="0 0 27 37" fill="none" xmlns="http://www.w3.org/2000/svg">
<path d="M4.86253 24.2664C3.85327 23.6427 2.9279 22.9443 2.0124 22.1917C1.82795 22.0399 1.61635 21.9048 1.44361 21.7395C1.31962 21.6204 1.20117 21.4224 1.05743 21.3317C0.927877 21.2503 0.772415 21.2194 0.621272 21.2497C0.563899 21.2614 0.0808608 21.5914 0.188203 21.6402C-0.279415 21.428 0.265932 22.4588 0.3122 22.5316C0.439284 22.7302 0.594747 22.9209 0.745274 23.1022C1.04016 23.4576 1.37082 23.7858 1.7021 24.1072C2.36651 24.7525 3.07226 25.3534 3.81379 25.908C4.1901 26.1893 4.61762 26.193 5.01244 25.9573C5.25551 25.8123 5.3795 25.5983 5.41282 25.3219C5.47081 24.8456 5.25119 24.5063 4.86253 24.2664Z" fill="#FFBF00"/>
<path d="M8.9833 12.4216C8.10852 11.4567 7.01905 10.6652 6.06222 9.77994C5.11156 8.90084 4.21396 7.77375 3.03751 7.19693C2.59889 6.98225 2.35644 7.42766 2.42862 7.75585C2.42492 7.75585 2.42122 7.75524 2.4169 7.75524C2.84072 9.02916 3.91722 10.0495 4.79509 11.031C5.65259 11.9891 6.52306 13.073 7.54898 13.854C8.4435 14.5351 9.78528 13.305 8.9833 12.4216Z" fill="#FFBF00"/>
<path d="M12.8522 3.80848C12.6758 3.62279 12.4685 3.45685 12.2816 3.28041C11.9423 2.959 11.6073 2.63204 11.2772 2.30137C10.5517 1.5765 9.90769 0.768349 9.11064 0.120593C8.65042 -0.253872 8.21797 0.327875 8.33333 0.720231H8.33148C9.04771 2.56973 10.5758 4.20886 11.8818 5.66971C12.1872 6.01148 12.661 6.17249 13.0983 5.98125L13.1798 5.94547C13.3957 5.85108 13.6351 5.64441 13.6437 5.38469C13.6591 4.92571 13.1668 4.13915 12.8522 3.80848Z" fill="#FFBF00"/>
<path d="M17.3762 15.0553C17.2164 14.903 17.0567 14.75 16.8969 14.5976C16.6587 14.3693 16.4212 14.1398 16.1837 13.911C15.7513 13.4952 15.3194 13.0788 14.8876 12.6623C13.9628 11.7697 13.0862 10.7363 12.0097 10.022C12.0072 10.0306 12.0054 10.0392 12.0029 10.0479C11.6414 9.77952 10.9826 10.117 11.2349 10.6117C11.8049 11.7283 12.6951 12.6889 13.4866 13.6537C14.3188 14.6673 15.1171 15.75 16.0418 16.6803C16.2504 16.2996 16.4595 15.9196 16.668 15.539C16.9043 15.378 17.1399 15.2164 17.3762 15.0553Z" fill="#FFBF00"/>
<path d="M14.2449 24.1705C13.2097 23.4191 12.2251 22.6029 11.2609 21.7621C10.2714 20.899 9.30037 19.7355 8.16773 19.0872L8.16526 19.0927C7.87592 18.9483 7.44285 19.2327 7.6341 19.6473C8.16094 20.7904 9.30901 21.7794 10.177 22.6776C11.1462 23.6801 12.1628 24.6356 13.1635 25.606C14.0839 26.4987 15.3313 24.9595 14.2449 24.1705Z" fill="#FFBF00"/>
<path d="M20.8975 24.1098C20.7389 22.8359 19.1423 21.9346 18.2287 21.1363C17.1059 20.1554 15.9566 18.8383 14.5932 18.2115C13.9899 17.9339 13.6346 18.8586 14.0115 19.2164C14.7506 20.4281 15.993 21.4379 16.9591 22.4595C17.8203 23.3701 18.7284 24.9099 20.0406 25.0456C20.5767 25.1018 20.9598 24.6107 20.8975 24.1098Z" fill="#FFBF00"/>
<path d="M20.3356 32.1978C19.1265 31.0565 17.955 29.8363 16.644 28.8085C16.5972 28.7425 16.5336 28.6919 16.4584 28.6567C16.4503 28.6506 16.4423 28.6432 16.4343 28.637C16.4337 28.6401 16.4331 28.6425 16.4331 28.6456C15.9587 28.4513 15.1326 28.8128 15.673 29.5648C16.409 30.5883 17.3319 31.4951 18.1839 32.423C18.5793 32.8542 18.9747 33.2842 19.3708 33.7148C19.6194 33.9844 19.868 34.254 20.1166 34.5235C20.1888 34.6019 20.261 34.6796 20.3332 34.758C20.3776 34.89 20.4467 35.014 20.53 35.1145C20.7194 35.3434 21.0062 35.4582 21.3005 35.4378C21.6885 35.4113 22.0741 35.1509 22.1592 34.7506C22.3937 33.6451 21.0284 32.8517 20.3356 32.1978Z" fill="#FFBF00"/>
<path d="M14.994 35.4687C14.4209 34.6926 13.3413 34.241 12.5837 33.6365C11.7645 32.9825 11.042 32.2244 10.2469 31.5427C10.2438 31.5488 10.2407 31.555 10.2376 31.5606C9.93284 31.291 9.32766 31.6007 9.59293 32.1041C10.0661 33.0011 10.7268 33.7642 11.4307 34.4878C12.2043 35.283 13.1766 36.4002 14.2858 36.639C14.9224 36.7772 15.3567 35.9598 14.994 35.4687Z" fill="#FFBF00"/>
<path d="M26.6011 21.1705C25.7004 20.4802 24.701 19.9102 23.7886 19.2248C22.8576 18.5252 21.9539 17.6622 20.878 17.2075C20.5886 17.0854 20.3493 17.4586 20.4727 17.7023C20.9853 18.7177 21.8983 19.5222 22.7071 20.3069C23.5689 21.1434 24.4104 22.078 25.3561 22.8152C26.4055 23.6339 27.6554 21.9781 26.6011 21.1705Z" fill="#FFBF00"/>
<path d="M21.3792 6.88756C20.9752 6.50076 20.5674 6.11766 20.1541 5.74011C19.4212 5.06953 18.6525 4.23238 17.7296 3.84249C17.3089 3.54637 16.7098 4.12689 16.9541 4.57476C17.4384 5.46435 18.3681 6.12445 19.0732 6.84315C19.7888 7.57295 20.4619 8.34162 21.1683 9.08006C21.4119 9.33485 21.8697 9.46316 22.1905 9.26144C22.2417 9.22936 22.2935 9.19666 22.3447 9.16458C22.42 9.10536 22.4749 9.03133 22.51 8.94249C22.4687 7.95975 22.0196 7.50077 21.3792 6.88756Z" fill="#FFBF00"/>
<path d="M24.2445 14.4922C23.5536 13.6082 22.6461 12.8728 21.8003 12.14C20.886 11.3472 19.9533 10.4805 18.9212 9.84505C18.3382 9.48601 17.8508 10.28 18.2765 10.6291C19.0174 11.3947 19.8583 12.0696 20.6257 12.8099C21.4937 13.6471 22.279 14.6144 23.1994 15.3892C23.7756 15.8735 24.7479 15.1363 24.2445 14.4922Z" fill="#FFBF00"/>
<path d="M10.7008 28.3409C10.4547 27.6876 9.74463 27.386 9.18324 27.0282C8.62 26.6685 8.04813 26.1854 7.39728 26.0053C7.19555 25.9498 6.90746 26.154 7.04441 26.3804C7.42813 27.0183 8.09624 27.4773 8.65023 27.9634C9.09564 28.3545 9.55277 28.9418 10.1826 28.9708C10.5232 28.9868 10.8366 28.7018 10.7008 28.3409Z" fill="#FFBF00"/>
</svg>
