<svg width="36" height="32" viewBox="0 0 36 32" fill="none" xmlns="http://www.w3.org/2000/svg">
<path d="M5.3542 31.9961C3.22281 32.1613 -2.34396 17.7723 1.09564 14.3327C4.53525 10.8931 7.1559 21.5395 7.1559 21.5395C7.1559 21.5395 14.0653 10.8924 17.654 17.1172C21.2426 23.3419 7.81106 31.8056 5.3542 31.9961Z" fill="#91C6A8"/>
<path d="M9.12979 10.733C8.62998 10.5692 3.55246 3.68997 4.86279 1.23311C6.17312 -1.22375 9.12979 5.16409 9.12979 5.16409C9.12979 5.16409 13.053 -1.53025 14.3634 0.670737C15.6737 2.87031 9.12979 10.733 9.12979 10.733Z" fill="#FF7A7B"/>
<path d="M17.6543 10.0766C17.6543 10.0766 26.1567 -1.76411 30.4152 0.225281C34.6738 2.21467 26.3204 6.30944 26.9756 6.14565C27.6308 5.98186 35.3289 7.12839 35.3289 10.7318C35.3296 14.3352 17.6543 10.0766 17.6543 10.0766Z" fill="#FB9600"/>
</svg>
