<svg width="39" height="31" viewBox="0 0 39 31" fill="none" xmlns="http://www.w3.org/2000/svg">
<path d="M12.3348 21.4415C13.6527 19.8623 13.3526 17.0507 13.618 15.1748C14.17 11.2659 15.0341 9.57847 15.7017 9.40004C15.135 9.4789 14.5683 9.48557 14.0022 9.40805C12.4818 12.3432 13.1227 20.308 10.7109 21.3105C9.16708 22.202 8.12788 20.2526 8.19003 18.7569C7.82313 17.9944 7.8933 16.216 7.86323 15.1855C7.80308 13.1064 8.01828 11.028 7.98219 8.94827C7.96481 7.94582 8.00558 6.56979 7.71019 5.37621C7.30253 5.06879 6.89086 4.8242 6.47852 4.64844C6.89487 5.42834 7.12676 6.53771 7.1428 7.69988C7.19359 8.52656 7.17488 9.36795 7.16486 10.194C7.12743 13.3136 6.77056 16.5001 7.54378 19.5642C8.14659 21.9494 10.2691 23.9162 12.3348 21.4415Z" fill="#FB9600"/>
<path d="M5.04466 30.2228C1.95778 24.5502 0.261638 18.3197 0.857092 11.7349C0.966025 10.5293 1.95644 5.60462 3.14334 4.62891C2.71897 4.81002 2.30797 5.0613 1.91635 5.38142C0.72811 7.78395 0.117952 11.1128 0.0524583 12.2763C-0.28236 18.1954 0.973377 24.6131 4.17052 29.7249C4.46524 29.9214 4.75796 30.0884 5.04466 30.2228Z" fill="#FB9600"/>
<path d="M4.31185 10.1656C4.30784 10.1429 4.27242 10.1423 4.27042 10.1663C3.81197 16.7237 4.77966 24.1104 8.26952 29.8718C8.4513 29.6486 8.60701 29.3786 8.72664 29.0491C8.74134 29.0077 8.75872 28.9702 8.77342 28.9288C5.5736 23.2409 5.48137 16.7898 4.31185 10.1656Z" fill="#FB9600"/>
<path d="M34.3018 20.3942C35.7955 15.3285 32.7941 11.038 29.5235 7.53408C29.1158 7.09701 28.6894 6.66328 28.3306 6.18544C28.1588 5.94887 27.9864 5.71163 27.8146 5.47505C26.2107 3.60448 26.1419 2.12753 27.8708 1.00345C29.7881 0.755512 30.9984 1.47861 32.5001 2.70895C33.3816 3.43138 34.2002 4.25607 34.904 5.1556C36.6308 7.36233 37.7088 9.98741 38.2909 12.7147C38.4493 11.8894 38.5402 11.0273 38.5515 10.1284C37.5117 6.45011 35.184 3.1507 31.93 0.983403C30.6823 0.152707 29.2455 -0.151352 28.0726 0.0698555C27.4471 0.385293 26.8276 0.772229 26.2227 1.21799C25.7563 1.93841 25.6286 2.97762 26.0537 4.34629C26.7126 6.46748 28.4569 7.95645 29.9138 9.5343C31.2718 11.0059 32.452 12.6479 33.0668 14.5793C33.4865 15.8965 33.6476 17.1576 33.546 18.5156C33.5573 19.4024 33.3756 20.2558 33.002 21.0758C31.1615 24.4247 28.5691 22.9471 27.8728 20.8459C25.4716 17.7156 25.9441 13.236 25.1882 9.63789C24.9189 8.35676 24.417 6.86644 22.8839 6.68132C17.9198 6.08387 20.7333 14.6996 21.1584 16.6637C21.2666 17.33 21.3749 17.9963 21.4832 18.6626C22.0519 20.4577 21.7371 22.4118 19.8752 23.1863C18.0134 23.9602 17.4513 20.989 17.3177 18.6152C17.2274 17.0132 17.3243 15.4053 17.3243 13.8021C17.3243 12.7642 17.7033 10.351 16.92 9.11327C16.5658 9.23089 16.211 9.32846 15.8574 9.3866C16.2263 9.42136 16.5157 9.94329 16.6206 10.8381C16.9193 13.3904 16.4255 16.1672 16.4415 17.4276C16.4656 19.3309 16.5297 25.6577 20.1893 24.15C24.0942 22.5407 21.8086 16.0476 21.2025 13.3349C21.1196 12.9654 20.7748 11.864 20.8028 10.3256C20.8309 8.78647 21.5934 7.73523 22.4936 7.79605C23.3938 7.85753 24.0902 8.56127 24.4397 10.3102C24.7892 12.0598 24.7725 14.5947 25.0131 15.678C25.5511 18.1052 26.4099 21.154 28.0826 23.0974C28.5698 23.6628 29.0817 23.991 29.595 24.1487C31.1501 23.2605 32.8242 22.0028 34.3018 20.3942Z" fill="#FB9600"/>
<path d="M22.8796 12.8379C22.8702 12.7978 22.8154 12.8085 22.8174 12.8479C23.054 17.1711 24.0685 21.6106 25.5762 25.8042C25.8582 25.724 26.1516 25.6338 26.4577 25.5315C25.0141 21.3901 23.8894 17.1892 22.8796 12.8379Z" fill="#FB9600"/>
<path d="M29.7861 18.1929C28.7629 13.0797 26.6611 7.93046 23.6819 3.53906C23.4687 3.77564 23.2588 4.01621 23.0557 4.26549C25.636 8.75178 27.8293 13.2768 29.6297 18.249C29.6631 18.3392 29.8035 18.2817 29.7861 18.1929Z" fill="#FB9600"/>
<path d="M30.2034 3.48359C30.1373 3.43013 30.0571 3.53372 30.1099 3.59454C33.4541 7.44862 34.9718 12.0184 37.0261 16.4613C37.2406 16.0269 37.4344 15.5771 37.6095 15.114C35.9094 10.75 33.7795 6.38134 30.2034 3.48359Z" fill="#FB9600"/>
<path d="M10.2839 7.71094C9.85083 11.0992 10.0146 14.5543 11.1741 17.7996C11.1908 17.8457 11.2583 17.819 11.2529 17.7749C10.876 14.5095 10.6835 11.3859 11.0137 8.22819C10.7704 8.06981 10.5272 7.90007 10.2839 7.71094Z" fill="#FB9600"/>
<path d="M19.4404 18.8188C19.4624 18.8957 19.5754 18.8756 19.5633 18.7948C19.0494 15.2782 18.7113 11.8384 18.5709 8.36328C18.3236 8.5083 18.0764 8.63059 17.8291 8.74754C17.9741 12.1712 18.5001 15.5923 19.4404 18.8188Z" fill="#FB9600"/>
<path d="M15.9336 23.1591C15.5427 19.8584 15.2968 16.545 15.006 13.2015C14.9994 13.1266 14.8918 13.144 14.8817 13.2088C14.4019 16.3478 14.4527 19.6806 14.8437 22.96C15.2045 22.974 15.5681 23.0395 15.9336 23.1591Z" fill="#FB9600"/>
</svg>
