<svg width="107" height="94" viewBox="0 0 107 94" fill="none" xmlns="http://www.w3.org/2000/svg">
<path d="M0 93.3788C0 93.3788 4.14402 56.8928 26.524 33.4088C48.903 9.9238 64.652 6.43182 65.757 8.17782C66.862 9.92382 57.192 29.4568 41.996 46.7668C26.8 64.0768 10.775 73.2248 0 93.3788Z" fill="#FFC095"/>
<path d="M9.66992 93.3773C9.66992 93.3773 33.7069 57.6863 60.7839 43.0603C87.8599 28.4343 106.648 33.1713 106.648 35.6383C106.648 38.1043 77.3609 53.4243 58.1589 61.0983C38.9569 68.7723 17.4059 81.5123 9.66992 93.3773Z" fill="#FFBF00"/>
<path d="M15.748 35.6379C15.748 35.6379 21.55 18.3109 29.01 8.17695C36.47 -1.95705 45.587 -2.78606 38.404 6.33094C31.221 15.4489 20.445 28.4749 15.748 35.6379Z" fill="#FF7A7B"/>
<path d="M49.4561 46.6367C49.4561 46.6367 73.7691 14.4417 85.9261 8.17568C98.0831 1.90968 76.4451 27.2297 49.4561 46.6367Z" fill="#FF804C"/>
<path d="M43.9297 74.9476C43.9297 74.9476 76.8357 57.9976 89.3937 59.1026C101.951 60.2076 96.4247 63.7996 87.3077 64.6286C78.1897 65.4566 53.8757 70.3476 43.9297 74.9476Z" fill="#FFAA8A"/>
<path d="M0.484375 92.5019C1.01237 91.5429 1.54938 90.6019 2.10138 89.6909C14.8364 64.7609 35.7104 45.4539 56.6224 27.1899C57.3434 26.0569 58.0234 24.9529 58.6674 23.8789C35.9534 43.7579 12.9554 64.4989 0.484375 92.5019Z" fill="#FF7A7B"/>
<path d="M65.7576 8.17831C65.6386 7.99031 65.3406 7.86831 64.8946 7.82031C37.7646 29.9483 13.2096 57.7483 0.595551 90.7953C2.91455 83.6193 5.08355 76.4813 8.28955 69.5613C12.1626 61.2033 16.8416 53.2053 22.2146 45.7233C27.4346 38.4543 33.3275 31.6733 39.8055 25.5003C46.3695 19.2443 53.6476 14.2223 60.8636 8.79031C60.9906 8.69431 61.0305 8.56031 61.0215 8.42731C59.9215 8.75331 58.6466 9.22032 57.2086 9.85132C43.2956 18.3823 31.2166 31.5393 21.8556 44.5543C14.0026 55.4733 6.54755 68.4683 2.18555 81.8663C0.835547 87.5073 0.236547 91.5813 0.0605469 92.9073C14.4845 59.3133 37.5265 31.4103 65.8315 8.44031C65.8185 8.33131 65.7966 8.24031 65.7576 8.17831Z" fill="#FF7A7B"/>
<path d="M104.83 34.1936C104.67 34.1296 104.495 34.0686 104.315 34.0086C104.283 33.9976 104.253 33.9866 104.22 33.9756C104.033 33.9146 103.835 33.8546 103.627 33.7976C103.602 33.7906 103.577 33.7836 103.551 33.7756C103.328 33.7146 103.094 33.6556 102.848 33.5986C102.839 33.5966 102.831 33.5946 102.823 33.5926C102.567 33.5336 102.299 33.4776 102.02 33.4246H102.018C74.4214 41.2326 48.4514 56.1056 26.9514 75.2456C23.0994 78.2146 19.4624 81.4186 16.1444 84.9186C35.6024 61.0256 61.1704 43.0846 90.2134 33.2266H90.2124C89.3974 33.3166 88.5554 33.4286 87.6894 33.5616C87.6764 33.5636 87.6624 33.5656 87.6494 33.5676C86.7784 33.7026 85.8824 33.8596 84.9604 34.0426L84.9574 34.0436C61.4864 42.7756 40.0764 57.1866 23.2974 75.7626C23.2904 75.7716 23.2834 75.7796 23.2764 75.7876C22.8104 76.3336 22.3574 76.8716 21.9104 77.4046C21.7404 77.6076 21.5744 77.8076 21.4074 78.0076C21.0844 78.3956 20.7664 78.7806 20.4544 79.1606C20.3104 79.3366 20.1644 79.5136 20.0224 79.6866C19.5994 80.2036 19.1864 80.7136 18.7864 81.2116C18.6704 81.3556 18.5604 81.4946 18.4474 81.6366C18.1384 82.0226 17.8354 82.4036 17.5414 82.7766C17.4114 82.9406 17.2824 83.1036 17.1564 83.2656C16.8274 83.6846 16.5054 84.0966 16.1954 84.4966C16.1454 84.5606 16.0934 84.6276 16.0444 84.6906C15.6874 85.1526 15.3464 85.5966 15.0164 86.0296C14.9184 86.1586 14.8234 86.2836 14.7274 86.4106C14.4824 86.7336 14.2444 87.0486 14.0154 87.3536C13.9324 87.4646 13.8464 87.5786 13.7654 87.6866C13.4834 88.0636 13.2134 88.4276 12.9584 88.7726C12.8734 88.8866 12.7964 88.9926 12.7154 89.1036C12.5394 89.3436 12.3684 89.5766 12.2064 89.7986C12.1154 89.9246 12.0244 90.0485 11.9374 90.1675C11.7964 90.3625 11.6644 90.5456 11.5354 90.7236C11.3644 90.9606 11.2054 91.1835 11.0574 91.3915C10.9964 91.4775 10.9314 91.5686 10.8744 91.6496C10.7564 91.8156 10.6464 91.9716 10.5454 92.1156C10.5394 92.1246 10.5324 92.1336 10.5264 92.1426C10.5274 92.1406 10.5304 92.1376 10.5304 92.1376C10.8394 91.7136 11.1684 91.2876 11.5104 90.8616L11.5124 90.8586C11.6734 90.6416 11.8304 90.4216 11.9924 90.2056C12.1444 90.0456 12.3024 89.8896 12.4554 89.7306C13.1134 88.9716 13.8204 88.2106 14.5724 87.4506L14.5734 87.4496C14.9484 87.0696 15.3354 86.6906 15.7324 86.3116L15.7344 86.3096C16.1314 85.9306 16.5394 85.5516 16.9584 85.1726C20.0054 82.1746 23.1304 79.2636 26.3484 76.4616C36.9564 68.3096 49.1594 61.8956 60.8234 56.0946C73.9494 49.5666 87.4724 44.2996 101.312 39.8616L101.316 39.8586C101.692 39.6266 102.052 39.4016 102.393 39.1826C102.398 39.1796 102.403 39.1766 102.408 39.1736C102.749 38.9556 103.073 38.7446 103.377 38.5406C103.379 38.5396 103.382 38.5376 103.384 38.5356C103.997 38.1256 104.534 37.7476 104.984 37.4056C89.0774 42.1956 73.5804 48.6246 58.8704 56.0916C50.2904 60.4466 41.4614 65.1576 33.2614 70.6976C41.1384 64.4206 49.4754 58.7176 58.2454 53.6546C73.0864 45.0826 88.6014 38.9276 104.83 34.1936ZM12.7824 89.1696C12.8824 89.0386 12.9854 88.9116 13.0854 88.7816C15.1574 86.4126 17.3644 84.1636 19.6974 82.0336C17.3284 84.3626 15.0184 86.7396 12.7824 89.1696Z" fill="#FB9600"/>
<path d="M10.525 92.1445C10.516 92.1575 10.509 92.1675 10.5 92.1805C10.504 92.1745 10.508 92.1685 10.513 92.1625C10.517 92.1575 10.52 92.1515 10.525 92.1445Z" fill="#FB9600"/>
<path d="M9.88303 93.0665C9.87903 93.0715 9.87705 93.0755 9.87305 93.0805C9.88405 93.0645 9.89605 93.0475 9.90805 93.0315C9.95005 92.9685 9.99405 92.9065 10.037 92.8435C9.97805 92.9285 9.92703 93.0015 9.88303 93.0665Z" fill="#FB9600"/>
</svg>
