<svg width="51" height="68" viewBox="0 0 51 68" fill="none" xmlns="http://www.w3.org/2000/svg">
<g clip-path="url(#clip0_1_4257)">
<path d="M9.81642 67.9983C7.37246 67.9983 5.0093 66.5579 2.60573 63.577C1.39385 62.0566 0.121376 60.196 0.000187668 58.0154C-0.0604064 56.675 0.424346 55.3146 1.33326 54.3343C2.06039 53.5341 3.00969 53.0739 4.01959 53.0339C4.52454 53.0139 4.9487 53.394 4.9689 53.8942C4.9891 54.3943 4.60534 54.8145 4.10039 54.8345C3.45405 54.8545 2.9693 55.2346 2.68652 55.5547C2.12098 56.1749 1.77761 57.0951 1.83821 57.9354C1.919 59.6159 3.00969 61.1763 4.05999 62.4767C6.09999 64.9974 7.97841 66.2178 9.83662 66.2178C9.83662 66.2178 9.83662 66.2178 9.85682 66.2178C12.0584 66.2178 13.8358 64.4773 14.6841 63.437C17.7744 59.7159 18.7641 54.2343 17.4917 48.9727C16.2394 49.5329 14.9063 49.753 13.654 49.5729C11.3111 49.2528 9.37207 47.4723 9.0489 45.3317C8.86712 44.1313 9.27108 42.8509 10.1194 41.8706C10.8869 41.0104 11.917 40.5102 12.9875 40.5102C13.0077 40.5102 13.0279 40.5102 13.0481 40.5102C14.9669 40.5503 16.6838 41.9907 17.8956 44.6115C18.138 45.1116 18.34 45.6318 18.542 46.1519C19.875 44.9916 20.8041 43.4311 21.4707 42.1907C22.6422 40.0101 23.2885 38.0895 23.4097 36.389C22.8845 36.429 22.3796 36.409 21.8544 36.349C20.5012 36.209 19.4105 35.7889 18.6228 35.1087C17.5321 34.1684 17.0877 32.708 17.5523 31.4876C17.8148 30.7474 18.4006 30.1672 19.1883 29.8271C20.0972 29.447 21.1475 29.427 22.0362 29.7871C23.3491 30.3272 24.3994 31.6276 24.8841 33.3081C24.9851 33.6282 25.0457 33.9283 25.1063 34.2684C27.6109 33.5482 29.7923 31.6876 30.7214 29.2469C31.3273 27.6265 31.3677 25.8459 30.9234 24.1854C29.0449 25.0857 26.4394 25.8459 24.0762 24.8056C22.6826 24.2054 21.5919 22.805 21.3091 21.2646C21.0667 19.9842 21.4101 18.7839 22.2382 17.9636C23.955 16.2431 26.8434 16.7433 28.8026 18.1237C30.0952 19.0239 31.1253 20.2443 31.8525 21.6247C34.6398 19.8242 36.7 17.2834 37.5887 14.4426C37.6493 14.2225 37.7301 14.0024 37.7705 13.7824C36.6596 14.0825 35.6295 14.1025 34.6802 13.8824C33.4885 13.6223 32.3978 12.8221 31.7515 11.8018C31.2263 10.9415 31.0647 9.98127 31.2869 9.081C31.7717 7.24046 33.8723 6.0401 35.8921 6.50024C37.5685 6.88035 39.0026 8.30077 39.5479 10.1213C39.6287 10.4214 39.7095 10.7415 39.7499 11.0616C41.3253 10.2213 42.4564 9.30106 43.2239 8.26076C43.7087 7.60056 44.0319 6.88035 44.1935 6.18015C43.6885 6.34019 43.1836 6.40021 42.6786 6.3602C41.5475 6.30018 40.4366 5.59998 39.8509 4.57968C39.3661 3.73943 39.3257 2.81916 39.7095 2.03893C40.3558 0.778557 42.0323 0.198387 43.4663 0.738546C44.4964 1.11866 45.3245 2.01892 45.7689 3.17926C45.8497 3.09924 45.9305 3.03922 46.0113 2.9592C46.2133 2.77915 46.395 2.59909 46.597 2.39903C47.5261 1.51878 48.4956 0.598504 49.7681 0.0783513C50.2327 -0.101702 50.7578 0.118363 50.9598 0.578498C51.1416 1.03863 50.9194 1.55879 50.4548 1.75885C49.5055 2.13896 48.6976 2.89918 47.8695 3.69942C47.6675 3.89948 47.4655 4.09953 47.2635 4.27959C46.8798 4.63969 46.496 4.93978 46.1325 5.19986C46.1123 6.60027 45.6275 8.0607 44.6984 9.32107C43.7087 10.6815 42.2342 11.8218 40.2346 12.8421C40.0731 12.9221 39.9115 13.0022 39.7499 13.0822C39.6691 13.7024 39.5277 14.3425 39.3257 15.0027C38.2754 18.3237 35.8315 21.3046 32.5594 23.3252C33.2461 25.4658 33.2461 27.8065 32.4382 29.9071C31.2667 32.988 28.4592 35.3287 25.2477 36.129C25.1871 38.2096 24.4802 40.4902 23.0865 43.071C22.2988 44.5114 21.2081 46.352 19.5317 47.7124C19.4105 47.8124 19.2691 47.9324 19.1277 48.0125C20.7234 53.9742 19.6327 60.2961 16.0778 64.5773C14.2398 66.778 12.018 67.9983 9.81642 67.9983ZM12.9875 42.3308C12.2604 42.3308 11.7352 42.7909 11.4929 43.071C10.9879 43.6312 10.7455 44.4114 10.8465 45.0716C11.0485 46.412 12.3614 47.5723 13.8964 47.7924C14.8861 47.9324 15.9566 47.7324 16.9665 47.2122C16.7443 46.592 16.502 45.9719 16.2192 45.3717C15.694 44.2513 14.5832 42.3508 13.0077 42.3308H12.9875ZM20.6426 31.3475C20.38 31.3475 20.1376 31.4076 19.8952 31.5076C19.6731 31.6076 19.3701 31.7877 19.2287 32.1478C19.0469 32.6479 19.2893 33.3481 19.7942 33.7883C20.2992 34.2284 21.0465 34.4885 22.016 34.5885C22.4402 34.6285 22.8643 34.6485 23.3087 34.6085C23.2683 34.3484 23.2077 34.0884 23.1269 33.8483C22.7836 32.6879 22.117 31.8277 21.3091 31.4876C21.1071 31.3876 20.8849 31.3475 20.6426 31.3475ZM25.0457 18.6638C24.4398 18.6638 23.8944 18.8239 23.4905 19.224C22.9451 19.7841 22.9855 20.5244 23.0663 20.9245C23.2481 21.8848 23.9348 22.785 24.7832 23.1651C26.5808 23.9454 28.7218 23.2652 30.2568 22.5049C29.6711 21.3446 28.8026 20.3243 27.7321 19.5841C26.9443 19.0439 25.9344 18.6638 25.0457 18.6638ZM35.0236 8.20074C34.1146 8.20074 33.2259 8.76091 33.0239 9.52113C32.8826 10.0613 33.0845 10.5414 33.2663 10.8615C33.6501 11.4817 34.3368 11.9618 35.0438 12.1219C35.8921 12.322 36.8414 12.2219 37.9523 11.8218C37.9321 11.4017 37.8715 10.9816 37.7503 10.6014C37.4069 9.4211 36.4778 8.46082 35.4477 8.22075C35.3063 8.22075 35.1649 8.20074 35.0236 8.20074ZM42.315 2.31901C41.8909 2.31901 41.4667 2.51907 41.3051 2.83916C41.1436 3.13925 41.2647 3.45935 41.3859 3.67941C41.6687 4.15955 42.2342 4.51966 42.7594 4.55967C43.2038 4.57968 43.6885 4.47965 44.1935 4.23958C44.1733 4.17956 44.1531 4.09953 44.1329 4.03952C43.8905 3.23928 43.4057 2.6391 42.7998 2.39903C42.6382 2.35902 42.4766 2.31901 42.315 2.31901Z" fill="#FFC9A7"/>
</g>
<defs>
<clipPath id="clip0_1_4257">
<rect width="51" height="68" fill="white"/>
</clipPath>
</defs>
</svg>
