<svg width="126" height="74" viewBox="0 0 126 74" fill="none" xmlns="http://www.w3.org/2000/svg">
<g clip-path="url(#clip0_1_4250)">
<path d="M64.637 73.9982C62.9996 73.9982 60.2287 73.9227 58.6922 71.9588C58.3143 71.5055 57.4075 70.725 56.6014 70.0452C55.5938 69.1891 54.6366 68.3834 54.1076 67.7036C53.503 66.8979 52.9237 66.218 52.4199 65.6389C50.4047 63.247 49.0696 61.6607 50.0772 57.9343C50.2284 57.33 50.8581 56.9775 51.4627 57.1285C52.0672 57.2796 52.4199 57.9091 52.2687 58.5134C51.5634 61.1068 52.2184 61.8873 54.158 64.1786C54.687 64.808 55.2663 65.4879 55.9213 66.3439C56.2991 66.8223 57.2311 67.628 58.0876 68.333C59.07 69.1639 59.9769 69.9445 60.4806 70.5739C61.3623 71.6818 63.2264 71.7573 64.8889 71.7573L119.324 71.6063C120.357 71.6063 121.44 71.5559 121.969 71.002C122.423 70.5488 122.549 69.6927 122.649 68.7611C123.959 55.7941 124.085 44.3378 123.103 33.7628C122.7 29.4572 122.045 24.9754 119.954 21.2238C117.183 16.1881 111.667 12.2854 104.79 10.4725C98.5426 8.83593 91.9681 8.91147 85.2172 9.18843C81.2623 9.3395 77.7106 9.56611 74.5114 10.7999C68.0124 13.3177 63.9065 19.7383 61.6142 24.6985C58.1884 32.0506 56.9037 39.4028 57.8861 45.9744C58.9944 53.4776 63.3523 60.15 69.2467 63.3728C73.0756 65.4627 77.9373 66.3943 83.2775 66.067C87.9377 65.7648 92.4467 64.6318 97.7869 63.0203C102.875 61.4845 108.593 59.4702 112.07 55.2401C115.647 50.8842 116.15 45.1435 115.949 41.0898C115.294 27.8962 112.976 20.2922 102.195 15.3824C96.9809 13.0156 83.2775 10.8754 78.9701 14.3249C78.3907 14.8033 77.8869 15.1306 77.509 15.4076C76.5014 16.1377 76.0228 16.4651 75.1664 17.9254C71.4886 24.1697 67.3071 31.2449 66.098 38.8489C65.5942 42.0214 65.4179 46.6542 67.5086 50.6828C70.6322 56.7257 78.8189 60.0493 86.124 58.2364C92.7993 56.5746 98.719 51.2116 101.994 43.8846C103.429 40.6365 104.89 35.7519 103.606 30.9428C102.674 27.4178 100.205 24.2453 97.0312 22.4576C93.8573 20.6699 89.8773 20.1915 86.3759 21.1735C81.5898 22.5331 77.5846 26.5869 75.9221 31.7485C74.9397 34.8455 74.99 37.7914 76.0732 40.0574C77.3075 42.6005 80.028 44.2119 82.4463 43.7839C83.0508 43.6832 83.6554 44.086 83.7561 44.7155C83.8569 45.3198 83.4539 45.9241 82.8241 46.0248C79.3983 46.6291 75.6954 44.5392 74.0328 41.0646C72.6978 38.2698 72.597 34.7196 73.7557 31.0687C75.6198 25.202 80.2295 20.5692 85.7461 18.9829C89.8773 17.7995 94.4115 18.3535 98.1396 20.4685C101.893 22.5835 104.664 26.184 105.772 30.3385C107.233 35.7771 105.621 41.1905 104.034 44.7658C100.482 52.7223 93.9832 58.5889 86.653 60.4018C78.2395 62.4916 69.1208 58.74 65.4934 51.69C63.6042 48.0642 63.05 43.4817 63.8561 38.446C65.1408 30.4392 69.4231 23.1626 73.2268 16.742C74.3351 14.8788 75.0908 14.3249 76.1992 13.5443C76.577 13.2674 77.0304 12.9652 77.5594 12.5372C82.8493 8.30718 97.3335 10.674 103.127 13.3177C108.971 15.9867 112.75 19.4865 115.042 24.3711C117.334 29.2558 117.914 35.2231 118.191 40.9639C118.417 45.4205 117.838 51.7403 113.808 56.6753C109.928 61.4089 103.833 63.5491 98.4419 65.1857C93.681 66.6209 88.5926 68.0057 83.4035 68.333C77.635 68.7107 72.3451 67.6784 68.1384 65.362C61.5386 61.7362 56.8533 54.6359 55.619 46.3017C54.5862 39.2769 55.9213 31.4715 59.5234 23.7417C63.0752 16.1126 67.9621 10.9006 73.655 8.68486C77.1816 7.30003 80.9349 7.07343 85.0912 6.92235C92.0184 6.67057 98.7945 6.56985 105.319 8.282C112.775 10.2459 118.821 14.5767 121.894 20.1411C124.161 24.2453 124.866 29.0292 125.294 33.5613C126.302 44.2874 126.176 55.8696 124.841 68.9877C124.74 69.9948 124.589 71.5055 123.531 72.5882C122.272 73.8472 120.407 73.8472 119.274 73.8472L64.8385 73.9982C64.7881 73.9982 64.7126 73.9982 64.637 73.9982Z" fill="#ECC2FF"/>
<path d="M51.1603 59.3185C51.0092 59.3185 50.8329 59.2934 50.6817 59.2178C46.3491 57.1784 44.8629 55.441 42.9736 53.2505C41.966 52.0923 40.8577 50.783 39.0944 49.1716C37.054 47.2832 35.996 45.9235 34.6861 43.5819C32.6457 39.9562 33.3007 34.9456 36.2983 31.4206C38.7921 28.4747 42.6713 26.5611 47.2811 26.0072C51.4122 25.5036 55.619 26.1331 59.2211 26.7626C59.8257 26.8633 60.2539 27.4676 60.1531 28.0719C60.0524 28.6761 59.4478 29.1042 58.8433 29.0035C55.3922 28.3992 51.387 27.7949 47.5582 28.2481C43.5278 28.7265 40.1523 30.3631 38.0364 32.881C35.6937 35.6506 35.1144 39.6792 36.6761 42.474C37.8601 44.6142 38.7921 45.7976 40.6561 47.5098C42.5202 49.2219 43.6789 50.5816 44.7117 51.7901C46.5758 53.9303 47.7849 55.3403 51.6893 57.2035C52.2435 57.4805 52.4954 58.1351 52.2183 58.7143C51.9916 59.0668 51.5886 59.3185 51.1603 59.3185Z" fill="#ECC2FF"/>
<path d="M37.6087 32.479C37.0545 32.479 36.4248 32.3027 35.7698 31.9754C27.3564 27.5691 21.3612 18.6055 20.5299 9.16356C20.3788 7.47659 20.3032 5.00908 21.4872 2.91926C22.6207 0.904966 25.2405 -0.630931 27.6839 0.250321C28.0114 0.376214 28.2633 0.628001 28.364 0.955323C28.9182 2.59193 28.4396 4.53069 27.1801 5.71408C26.0213 6.82194 24.2832 7.24998 22.7215 6.82194C22.6711 7.5773 22.7215 8.30748 22.7718 8.93695C23.5527 17.6488 29.0693 25.8822 36.8278 29.9611C37.1805 30.1374 37.4576 30.1877 37.5835 30.2129C37.9362 29.7849 38.5659 29.659 39.0697 29.9611C39.5987 30.2884 39.775 30.9934 39.4476 31.5222C39.0445 32.1516 38.3896 32.479 37.6087 32.479ZM23.2001 4.60622C24.0062 4.90837 25.0138 4.70694 25.6183 4.10265C26.0969 3.64944 26.3488 2.94443 26.3236 2.26461C25.2153 2.18908 24.0313 3.04515 23.4772 4.02712C23.3512 4.20337 23.2756 4.4048 23.2001 4.60622Z" fill="#ECC2FF"/>
<path d="M34.8624 38.9001C34.812 38.9001 34.7868 38.9001 34.7364 38.9001C27.6329 38.1447 20.7308 35.1988 15.2898 30.5912C11.2594 27.192 7.98474 22.8361 5.76802 18.027C5.01233 18.5306 4.13068 18.7572 3.24903 18.6313C2.21625 18.4551 1.25903 17.8256 0.62928 16.8688C-0.000467558 15.912 -0.176797 14.7538 0.150672 13.7467C0.452951 12.7395 1.25903 11.8834 2.31701 11.4302C3.37498 10.977 4.53372 11.0022 5.49093 11.4806C5.76802 11.6316 5.99473 11.8834 6.0703 12.1856C6.19625 12.664 6.34739 13.1675 6.52372 13.6459C7.10309 13.6711 7.55651 14.1495 7.5817 14.7286C7.60689 15.1567 7.53132 15.5847 7.40537 15.9624C9.47094 20.8974 12.7204 25.3792 16.8012 28.8287C21.9148 33.1342 28.3634 35.9038 35.0135 36.6088C35.6433 36.6844 36.0967 37.2383 36.0211 37.8678C35.9204 38.4469 35.4417 38.9001 34.8624 38.9001ZM3.87878 13.369C3.65207 13.369 3.42536 13.4193 3.19865 13.52C2.77042 13.6963 2.44295 14.0488 2.31701 14.4265C2.19106 14.8042 2.29182 15.2574 2.54371 15.6602C2.79561 16.0631 3.17346 16.3149 3.5765 16.3904C3.95435 16.4408 4.40777 16.2897 4.76043 15.9624C4.81081 15.9372 4.836 15.8868 4.88638 15.8365C4.5841 15.0308 4.30701 14.225 4.05511 13.3942C3.97954 13.369 3.92916 13.369 3.87878 13.369Z" fill="#ECC2FF"/>
<path d="M43.1502 36.9093C43.0746 36.9093 43.0243 36.9093 42.9487 36.8841C42.3441 36.7834 41.9159 36.1791 42.0167 35.5748L42.7976 31.1182C42.8983 30.5139 43.5029 30.0859 44.1074 30.1866C44.712 30.2873 45.1402 30.8916 45.0395 31.4959L44.2586 35.9525C44.183 36.5316 43.7044 36.9093 43.1502 36.9093Z" fill="#ECC2FF"/>
</g>
<defs>
<clipPath id="clip0_1_4250">
<rect width="126" height="74" fill="white"/>
</clipPath>
</defs>
</svg>
