<svg width="61" height="37" viewBox="0 0 61 37" fill="none" xmlns="http://www.w3.org/2000/svg">
<path d="M12.2525 2.67368C9.31652 3.13568 5.78852 3.94567 3.31552 5.68767C2.75852 6.07967 3.06652 6.94768 3.76952 6.80768C6.71052 6.22168 9.60452 5.08968 12.5405 4.39968C13.6285 4.14368 13.3765 2.49668 12.2525 2.67368Z" fill="#87AEC6"/>
<path d="M15.7641 9.44892C14.4661 9.60692 13.2171 10.1479 12.0071 10.6289C10.8631 11.0829 9.47907 11.5219 8.60607 12.4089C8.24007 12.7819 8.62506 13.5189 9.10906 13.3059C10.2971 13.2459 11.4531 12.7039 12.5871 12.3619C13.8401 11.9839 15.1551 11.7319 16.3451 11.1829C17.3381 10.7249 16.7651 9.32692 15.7641 9.44892Z" fill="#87AEC6"/>
<path d="M27.8211 0.0395752C26.6351 0.329575 25.4841 0.617576 24.3451 1.06658C23.3581 1.45558 21.7242 1.81958 21.4052 2.95858C21.3502 3.15658 21.3951 3.33858 21.5571 3.46958C22.3611 4.11558 23.5071 3.65558 24.4071 3.43658C25.7981 3.09758 27.0981 2.63558 28.4161 2.08058C29.6521 1.55858 29.1821 -0.292425 27.8211 0.0395752Z" fill="#87AEC6"/>
<path d="M29.7672 6.89759C27.8732 7.10959 25.7212 7.68959 24.3372 9.08859C23.7082 9.72459 24.2012 10.9906 25.1772 10.7296C26.8912 10.2716 28.5052 9.52159 30.2552 9.13859C31.5442 8.85759 31.0532 6.75459 29.7672 6.89759Z" fill="#87AEC6"/>
<path d="M37.7226 1.54331C36.7756 1.67931 35.9096 2.11731 35.0006 2.40231C34.1656 2.66431 33.3486 2.87031 32.5406 3.21031C32.2006 3.35231 32.2606 3.82331 32.6096 3.90231C34.3136 4.28431 36.7656 4.18131 38.3036 3.27831C39.2006 2.75131 38.7886 1.38931 37.7226 1.54331Z" fill="#87AEC6"/>
<path d="M40.6929 9.14892C39.5549 8.85692 38.6538 9.36692 37.5818 9.75592C36.5228 10.1409 35.4919 10.5399 34.4649 11.0029C33.7959 11.3049 34.2898 12.1719 34.8968 12.0989C36.0108 11.9649 37.0968 11.7439 38.1948 11.5169C39.2698 11.2949 40.2598 11.2329 41.0448 10.4189C41.3918 10.0599 41.1819 9.27392 40.6929 9.14892Z" fill="#87AEC6"/>
<path d="M25.9537 15.1647C25.0487 14.9027 24.1558 15.2367 23.2968 15.5497C22.3748 15.8857 21.5567 16.3107 20.7847 16.9207C20.2477 17.3447 20.5408 18.3667 21.3098 18.1117C22.1408 17.8367 22.9938 17.5777 23.8528 17.4047C24.6108 17.2517 25.4157 17.3037 26.1037 16.9247C26.8117 16.5347 26.7767 15.4027 25.9537 15.1647Z" fill="#87AEC6"/>
<path d="M14.6064 15.473C13.4184 15.691 12.3264 16.095 11.1984 16.523C10.3324 16.852 9.47937 17.077 8.88637 17.824C8.72937 18.022 8.81336 18.36 9.05836 18.445C9.93036 18.746 10.7184 18.512 11.6024 18.332C12.8804 18.073 14.0874 17.789 15.2994 17.298C16.3814 16.861 15.6494 15.282 14.6064 15.473Z" fill="#87AEC6"/>
<path d="M50.9375 3.59577C49.7975 3.80677 48.6725 4.14677 47.5645 4.48977C46.6545 4.77077 45.6875 5.02177 45.0085 5.72077C44.8085 5.92677 44.7725 6.33877 45.1145 6.44477C46.0765 6.74377 47.0085 6.55277 47.9855 6.36877C49.1435 6.14977 50.3245 5.92177 51.4475 5.56277C52.7015 5.16077 52.2215 3.35777 50.9375 3.59577Z" fill="#87AEC6"/>
<path d="M51.1466 12.8581C49.7446 12.4531 48.4426 13.1321 47.1196 13.6001C45.7746 14.0771 44.4295 14.5161 43.1775 15.2081C42.6195 15.5161 42.8816 16.4291 43.5156 16.4001C45.0546 16.3301 46.5326 15.9441 48.0296 15.6091C49.3326 15.3171 50.6266 15.2121 51.5376 14.1681C51.8886 13.7661 51.6546 13.0041 51.1466 12.8581Z" fill="#87AEC6"/>
<path d="M36.2621 17.0637C35.0971 16.9487 34.063 17.4457 32.984 17.8207C32.543 17.9737 32.0311 18.1007 31.8361 18.5757C31.7821 18.7088 31.693 19.0467 31.794 19.1817C32.389 19.9777 33.1211 19.6997 33.9991 19.5317C35.0001 19.3397 35.8871 19.2127 36.7351 18.6138C37.3781 18.1608 36.9841 17.1347 36.2621 17.0637Z" fill="#87AEC6"/>
<path d="M59.3579 15.0496C58.1999 14.8386 56.9869 15.3346 55.9669 15.8896C55.5409 16.1216 53.4799 17.3386 54.4019 18.0356C54.9929 18.4816 55.7879 18.0196 56.3749 17.7736C57.4819 17.3096 58.6979 17.1126 59.6979 16.4576C60.2899 16.0686 59.9989 15.1656 59.3579 15.0496Z" fill="#87AEC6"/>
<path d="M48.0376 20.9818C47.8766 20.7948 47.6266 20.6778 47.3816 20.6648C47.2676 20.6588 46.6776 20.8698 46.7136 20.8968C46.7066 20.7948 46.6986 20.6918 46.6916 20.5898C46.5996 20.6058 46.5086 20.6218 46.4166 20.6388C46.2036 20.6338 45.9116 20.7458 45.7026 20.8038C45.2076 20.9408 44.7326 21.1448 44.2746 21.3768C43.5706 21.7338 42.9186 22.1388 42.4376 22.7718C42.0826 23.2388 42.3946 23.9788 43.0476 23.8128C43.8526 23.6078 44.6026 23.2678 45.4096 23.0708C46.2816 22.8578 47.1986 22.8128 47.9526 22.3048C48.3756 22.0198 48.3376 21.3298 48.0376 20.9818Z" fill="#87AEC6"/>
<path d="M36.3168 23.3357C34.2358 22.4107 30.5688 23.0677 28.7088 24.2407C27.8578 24.7767 28.2068 26.2437 29.3168 25.9987C30.5718 25.7207 31.7498 25.1927 33.0068 24.9157C34.1168 24.6707 35.3008 24.6427 36.3618 24.2327C36.7898 24.0667 36.6698 23.4927 36.3168 23.3357Z" fill="#87AEC6"/>
<path d="M21.8541 21.4616C20.6991 21.5806 19.6241 21.9236 18.5151 22.2516C17.2471 22.6266 15.8571 22.8506 14.8441 23.7416C14.5671 23.9856 14.6381 24.5216 15.0261 24.6176C16.1421 24.8946 17.1251 24.6126 18.2361 24.3886C19.6281 24.1076 21.0261 23.8966 22.3471 23.3636C23.2791 22.9876 22.8371 21.3596 21.8541 21.4616Z" fill="#87AEC6"/>
<path d="M41.1928 27.4465C39.9718 27.7165 38.3738 28.0655 37.4038 28.8925C37.0368 29.2055 37.2638 29.8695 37.7118 29.9575C38.9308 30.1965 40.4808 29.7195 41.6498 29.3615C42.8538 28.9925 42.4418 27.1695 41.1928 27.4465Z" fill="#87AEC6"/>
<path d="M55.6814 24.0248C54.7104 24.0768 53.7834 24.4558 52.8614 24.7438C52.0174 25.0078 51.1514 25.2548 50.4514 25.8108C50.1254 26.0698 50.2784 26.6718 50.6774 26.7598C51.5444 26.9518 52.4444 26.7908 53.3114 26.6508C54.3104 26.4888 55.3254 26.4068 56.2564 25.9978C57.2584 25.5588 56.6784 23.9708 55.6814 24.0248Z" fill="#87AEC6"/>
<path d="M28.5944 29.0865C26.4024 29.5035 23.8534 29.8995 21.9434 31.1125C21.6614 31.2915 21.8054 31.7385 22.1114 31.7845C24.3574 32.1215 26.8384 31.4715 29.0264 30.9755C30.2474 30.6985 29.8174 28.8545 28.5944 29.0865Z" fill="#87AEC6"/>
<path d="M47.8473 30.1874C46.9363 30.3964 46.0463 30.7134 45.1533 30.9914C44.5163 31.1904 43.8443 31.3454 43.2663 31.6864C42.8363 31.9404 42.9233 32.6254 43.4623 32.6644C44.2563 32.7214 45.0693 32.5284 45.8543 32.4134C46.6463 32.2964 47.4473 32.2024 48.2283 32.0234C49.4053 31.7534 49.0263 29.9164 47.8473 30.1874Z" fill="#87AEC6"/>
<path d="M35.6233 33.6891C34.8693 33.7671 34.1403 34.0931 33.4233 34.3281C33.1313 34.4231 32.8183 34.4981 32.5373 34.6211C32.3253 34.6931 32.1453 34.8101 31.9963 34.9701C31.9923 34.9771 31.9903 34.9811 31.9863 34.9881C31.8963 35.0571 31.8233 35.1441 31.7903 35.2371C31.6533 35.6321 32.0013 36.0691 32.3643 36.1781C32.9273 36.3471 33.6633 36.0601 34.2203 35.9461C34.8933 35.8081 35.5743 35.7101 36.2033 35.4231C37.2123 34.9631 36.6143 33.5861 35.6233 33.6891Z" fill="#87AEC6"/>
<path d="M17.3426 27.1004C15.9316 27.1994 14.4946 27.4644 13.1816 28.0094C12.5676 28.2644 12.4966 29.3934 13.2986 29.4384C14.6966 29.5154 16.1386 29.3294 17.4856 28.9554C18.4386 28.6894 18.4686 27.0214 17.3426 27.1004Z" fill="#87AEC6"/>
<path d="M8.85394 20.627C8.21594 20.68 7.63295 20.86 7.03595 21.086C6.42895 21.316 5.65395 21.563 5.16595 22.003C4.93995 22.206 4.99296 22.589 5.31996 22.649C5.91096 22.758 6.58997 22.617 7.18097 22.523C7.92097 22.405 8.60295 22.249 9.27695 21.92C9.92595 21.602 9.51194 20.573 8.85394 20.627Z" fill="#87AEC6"/>
<path d="M3.18613 13.1607C2.59213 13.3107 2.07013 13.5467 1.51413 13.8037C1.00013 14.0417 0.443126 14.3037 0.0841256 14.7497C-0.102874 14.9817 0.0391223 15.4387 0.340122 15.4997C0.886122 15.6117 1.44812 15.4577 1.97812 15.3097C2.53612 15.1537 3.09713 15.0067 3.61513 14.7467C4.39613 14.3537 4.15613 12.9157 3.18613 13.1607Z" fill="#87AEC6"/>
</svg>
