<svg width="17" height="73" viewBox="0 0 17 73" fill="none" xmlns="http://www.w3.org/2000/svg">
<path d="M8.388 16.892C4.587 18.681 0 12.465 0 10.135C0 7.80499 4.42701 11.067 5.12601 10.135C5.82501 9.20299 5.59201 4.06697 7.45601 0.925973C9.32001 -2.21503 11.11 3.37799 10.914 6.63999C10.718 9.90199 12.349 7.232 15.146 8.451C17.941 9.668 12.349 15.028 8.388 16.892Z" fill="#FF7A7B"/>
<path d="M7.9504 71.8806C5.2024 73.2196 0.932399 68.6186 1.1654 66.2886C1.3984 63.9586 6.07639 66.5216 4.55239 63.2596C3.02939 59.9976 5.6474 50.9106 7.9494 53.7066C10.2524 56.5026 9.78039 61.6286 12.9294 60.6966C16.0774 59.7636 21.0264 65.5116 7.9504 71.8806Z" fill="#FB9600"/>
</svg>
