<svg width="121" height="89" viewBox="0 0 121 89" fill="none" xmlns="http://www.w3.org/2000/svg">
<path d="M1 79.4803C5.19575 78.2827 9.63309 77.078 13.8643 78.1451C18.0954 79.2123 21.8519 83.4512 20.7339 87.6514C19.5344 88.7721 17.7001 86.9722 17.5039 85.3457C16.9286 80.5799 21.3199 76.5977 25.8118 74.8527C30.3037 73.1078 35.3156 72.6345 39.4433 70.1539C45.6314 66.4362 48.5058 59.0375 49.9278 51.9829C51.3504 44.9284 51.7989 37.5339 54.9688 31.0675C56.903 27.122 60.2202 23.4269 64.5853 22.7999C68.9503 22.1728 73.8716 26.0894 72.8613 30.3629C69.7857 31.9358 66.0462 28.0707 66.8433 24.7211C67.6403 21.3716 71.3104 19.3861 74.7629 19.2013C78.2155 19.0165 81.5738 20.1789 84.9349 20.9879C92.5138 22.8118 100.795 22.7907 107.804 19.3882C114.812 15.9858 120.21 8.75846 119.994 1" stroke="#FF6D1C" stroke-width="1.4" stroke-miterlimit="10" stroke-linecap="round" stroke-linejoin="round"/>
</svg>
