<svg width="157" height="71" viewBox="0 0 157 71" fill="none" xmlns="http://www.w3.org/2000/svg">
<path d="M1.01338 69.834C0.735376 63.929 4.82338 58.323 10.2184 55.908C15.6144 53.492 22.0024 53.96 27.4624 56.226C30.2814 57.396 33.0144 59.127 34.5414 61.77C36.0684 64.413 36.0564 68.11 33.8804 70.25C31.4424 67.807 30.5184 64.092 31.0514 60.682C32.5704 50.956 44.1894 46.051 54.0064 46.777C63.8234 47.503 73.0514 51.917 82.8414 52.938C99.0464 54.628 115.87 45.976 123.921 31.811C126.153 27.884 127.776 23.362 127.086 18.898C126.396 14.434 122.818 10.2 118.306 9.98C117.08 15.757 122.752 21.3 128.645 21.685C134.538 22.07 140.063 18.642 144.215 14.442C148.366 10.242 151.584 5.193 155.743 1" stroke="#09A24F" stroke-width="1.4" stroke-miterlimit="10" stroke-linecap="round" stroke-linejoin="round"/>
</svg>
