<svg width="115" height="61" viewBox="0 0 115 61" fill="none" xmlns="http://www.w3.org/2000/svg">
<path d="M14.5757 60.4565C13.4006 60.4565 12.198 60.2379 11.0775 59.7733C7.85254 58.4614 5.80278 55.7831 4.65492 53.7333C3.23375 51.1917 2.38652 48.3766 1.64861 45.8623C0.828708 43.1019 -0.100515 39.959 0.00880566 36.7067C0.118126 33.3998 1.7033 29.0543 4.95558 27.3052C8.31717 25.5014 13.0726 27.1685 15.8602 29.6555C18.4293 31.9513 20.2604 35.3402 21.4903 40.0136C22.2282 42.8013 22.6928 45.671 22.8841 48.5406C23.1847 53.1867 22.2282 56.439 19.9871 58.4614C18.6206 59.8006 16.6255 60.4565 14.5757 60.4565ZM8.1805 29.0543C7.44259 29.0543 6.75933 29.1909 6.15807 29.5189C3.88968 30.7214 2.57786 34.1923 2.49587 36.8433C2.41388 39.6857 3.2611 42.61 4.02635 45.2064C4.76426 47.6934 5.52949 50.2624 6.814 52.5581C7.77055 54.2526 9.43769 56.4937 12.0067 57.5322C14.2478 58.4341 16.8168 58.1062 18.3746 56.7123C20.0144 55.2365 20.6977 52.6128 20.4517 48.7593C20.2877 46.0536 19.8231 43.3479 19.1399 40.6969C18.0193 36.4881 16.4342 33.5091 14.2478 31.5413C12.854 30.2841 10.3396 29.0543 8.1805 29.0543Z" fill="#0072BC" fill-opacity="0.3"/>
<path d="M12.1161 49.3311C11.0776 49.3311 9.95701 48.9758 9.27376 48.4839C8.1259 47.664 7.60663 46.6254 7.22401 45.6962C6.07614 42.8812 7.14201 38.9457 9.43774 37.5792C11.0229 36.65 12.772 37.1146 14.1659 38.8364C14.7944 39.6016 15.2044 40.5855 15.423 41.8153C15.7237 43.4005 15.669 45.0676 15.2591 46.6254C14.9311 47.91 14.3025 48.7298 13.428 49.1125C13.0453 49.2491 12.608 49.3311 12.1161 49.3311ZM11.0775 39.5743C10.8862 39.5743 10.7769 39.6563 10.6949 39.6836C9.57441 40.3668 8.7545 42.9905 9.49242 44.7397C9.84771 45.6142 10.1757 46.0788 10.7223 46.4614C11.1596 46.7894 12.1708 46.9261 12.4987 46.7894C12.4987 46.7894 12.7174 46.6801 12.9087 45.9695C13.2366 44.767 13.264 43.4551 13.0453 42.2253C12.8813 41.4054 12.6354 40.7768 12.2801 40.3395C11.7335 39.7383 11.3508 39.5743 11.0775 39.5743Z" fill="#0072BC" fill-opacity="0.3"/>
<path d="M21.463 47.3677C21.0257 47.3677 20.5884 47.1217 20.3698 46.7118C20.0418 46.1105 20.2878 45.3726 20.889 45.0446C21.4356 44.7713 23.4307 43.9788 27.9402 42.2297C41.7966 36.8456 70.6024 25.6676 83.0923 17.7966C83.6662 17.4413 84.4315 17.6053 84.7868 18.1792C85.1421 18.7531 84.9781 19.5184 84.4041 19.8737C71.6956 27.854 42.7531 39.114 28.8148 44.5254C25.3985 45.8646 22.4469 46.9851 22.0369 47.2311C21.8456 47.313 21.6543 47.3677 21.463 47.3677Z" fill="#0072BC" fill-opacity="0.3"/>
<path d="M17.5822 34.8464C17.0902 34.8464 16.6256 34.5458 16.4343 34.0812C16.1884 33.4526 16.489 32.742 17.1176 32.4687C19.7686 31.3755 25.3439 29.3531 32.4224 26.7567C48.0279 21.0448 71.6411 12.4085 78.2003 8.58225C78.7742 8.22696 79.5395 8.44559 79.8947 9.01952C80.25 9.59346 80.0314 10.3587 79.4575 10.714C72.7069 14.6495 49.941 22.9852 33.297 29.0798C26.2458 31.6488 20.6978 33.6986 18.0741 34.7645C17.9101 34.8191 17.7462 34.8464 17.5822 34.8464Z" fill="#0072BC" fill-opacity="0.3"/>
<path d="M86.4536 28.6192C86.3443 28.6192 86.2077 28.5919 86.0983 28.5645C85.4424 28.3732 85.0871 27.69 85.2784 27.0341C86.0983 24.2464 84.7045 22.06 82.9007 19.2997C82.2995 18.3978 81.6982 17.4412 81.1516 16.4573C79.8398 14.0523 78.6646 11.8932 77.4894 9.76145C76.3415 7.6297 75.1663 5.49795 73.8545 3.0929C73.5265 2.49164 73.7452 1.75374 74.3464 1.42578C74.9477 1.09782 75.6856 1.31645 76.0136 1.91772C77.3254 4.32276 78.5006 6.45451 79.6485 8.58626C80.8236 10.718 81.9715 12.8771 83.3107 15.2821C83.83 16.2114 84.4039 17.1132 84.9778 17.9878C86.8636 20.8848 88.804 23.8638 87.6562 27.7446C87.4649 28.2912 86.9729 28.6192 86.4536 28.6192Z" fill="#0072BC" fill-opacity="0.3"/>
<path d="M17.9372 59.6924C17.4453 59.6924 16.9533 59.3918 16.7893 58.8998C16.5433 58.2712 16.8713 57.5607 17.5272 57.3147C26.9561 53.8438 37.2049 49.5529 47.1257 45.3988C52.0724 43.3217 56.7186 41.3813 61.2827 39.5228C71.1762 35.5053 79.0746 31.3511 84.8139 27.2243C89.542 22.9608 94.0514 18.5333 98.4516 14.2425C102.606 10.1703 106.569 6.28944 110.641 2.57255C104.082 2.40857 98.2329 2.54521 91.6191 2.68186L88.8861 2.73653C84.7865 2.81852 76.7788 3.55644 75.3303 3.66576C56.3633 13.1493 35.7837 19.8178 15.8874 26.2677C12.9085 27.2243 9.95681 28.2082 7.03249 29.1647C6.37657 29.3833 5.6933 29.0281 5.47465 28.3721C5.25601 27.7162 5.61131 27.033 6.26723 26.8143C9.19155 25.8578 12.1432 24.9012 15.1222 23.9173C35.0185 17.4674 55.5707 10.7989 74.4284 1.3427C74.5651 1.26071 74.7017 1.23338 74.8657 1.20605C75.2483 1.17872 84.2673 0.331487 88.8314 0.249497L91.5644 0.194834C99.2441 0.0308531 105.858 -0.133121 113.811 0.16751C114.303 0.19484 114.768 0.522801 114.932 0.987412C115.096 1.45202 114.959 1.99861 114.576 2.32658C109.712 6.6174 105.093 11.1542 100.173 15.9643C95.7732 20.2824 91.2091 24.7646 86.4264 29.0554C86.399 29.0827 86.3717 29.1101 86.317 29.1374C80.4137 33.4282 72.2967 37.6644 62.2119 41.7639C57.6751 43.6223 53.0017 45.5628 48.0822 47.6125C38.1341 51.7667 27.858 56.0848 18.3745 59.5557C18.2105 59.6651 18.0738 59.6924 17.9372 59.6924Z" fill="#0072BC" fill-opacity="0.3"/>
<path d="M106.378 9.40666C104.164 9.40666 100.83 7.84884 99.4631 6.15437C98.0966 4.48724 97.9326 3.50337 97.8233 1.39895C97.796 0.715699 98.3153 0.141764 98.9985 0.114434C99.6818 0.0871042 100.256 0.606372 100.283 1.28962C100.365 3.09341 100.474 3.50336 101.376 4.6239C102.278 5.74443 104.929 6.97428 106.378 6.97428C106.405 6.97428 106.432 6.97428 106.46 6.97428C107.116 6.97428 107.662 7.52088 107.689 8.17681C107.717 8.86006 107.17 9.40665 106.487 9.43398C106.432 9.40665 106.405 9.40666 106.378 9.40666Z" fill="#1A1A1A" fill-opacity="0.3"/>
</svg>
