<svg width="94" height="130" viewBox="0 0 94 130" fill="none" xmlns="http://www.w3.org/2000/svg">
<path d="M77.0198 130C76.8522 130 76.6608 129.952 76.4932 129.88C69.2176 126.554 63.6891 119.613 62.0617 111.763C61.8463 110.686 61.6309 109.322 61.9181 107.982C59.9316 106.474 58.1367 104.487 57.4187 102.812C55.9588 99.4376 55.8391 95.369 57.0118 90.4149C57.4187 88.7157 57.9213 87.0403 58.4238 85.4129C59.0461 83.3547 59.7162 81.2246 60.1231 79.0946C61.3915 72.3934 60.1949 65.1417 56.8203 59.2303C55.863 60.2354 54.2834 60.6423 52.8475 60.1636C51.6269 59.7568 50.8371 58.7995 50.7892 57.6268C50.7414 56.6694 51.1722 55.76 52.0098 55.1377C52.9432 54.4197 54.2356 54.1565 55.3604 54.4676C55.3126 54.2283 55.2647 53.965 55.1929 53.7017C54.1877 49.8246 52.1295 46.3065 49.3772 43.4345C49.1139 43.5063 48.8746 43.602 48.6113 43.6738C41.4075 46.2347 37.5064 54.2522 36.8124 61.0731C36.0226 68.7795 38.2723 76.7492 40.2587 83.8094C40.4023 84.3599 40.1869 84.9342 39.7083 85.2454C39.2296 85.5565 38.6074 85.4847 38.1766 85.1257C27.4546 75.6243 17.6182 58.4405 12.688 49.0348C5.98675 36.2068 0.81723 23.259 0.673633 18.9272C0.6497 18.3288 0.697565 17.4433 1.29589 16.845C1.75062 16.3663 2.3968 16.0791 3.16266 15.9834C2.92333 15.409 3.11479 14.7389 3.66525 14.4038C25.3246 0.714192 56.2938 -3.66554 82.5243 3.20322C83.0987 3.34682 83.4816 3.87334 83.4816 4.44773C83.4816 5.04606 83.0748 5.54865 82.5004 5.69225C75.7274 7.31969 68.715 9.01893 62.7318 12.6567C56.2459 16.6057 52.0337 22.565 51.4594 28.5961C51.0764 32.4732 52.2491 36.5897 54.5706 40.2036C57.4905 40.2514 60.6735 40.8258 64.096 41.9507C70.0792 43.9132 75.6077 46.9527 80.49 50.9495C81.0883 51.4281 81.7345 52.0264 82.4286 52.6726C86.7365 53.1513 91.1881 54.2283 93.0788 58.2969C94.2993 60.9295 93.9643 64.2801 92.1214 68.0137C89.8957 72.513 86.5451 76.3662 82.3807 79.1903C81.6627 79.669 80.8969 80.1477 80.1789 80.6024C79.9874 80.722 79.796 80.8417 79.6284 80.9614C79.2455 84.7188 80.3225 88.8353 82.7158 92.2817C83.0269 92.7364 83.362 93.1672 83.697 93.6219C84.7262 94.9622 85.7792 96.3503 86.3775 98.0734C87.2631 100.634 86.6647 104.081 84.08 105.373C82.3329 106.259 80.0353 105.923 78.2164 104.559C76.7326 103.434 75.7752 101.855 74.9137 100.467C71.8742 95.5126 69.3612 90.2474 71.563 85.2932C72.7358 82.6606 74.9137 80.9374 77.2591 79.4297C77.5463 77.8501 78.0728 76.3184 78.8147 74.9542C79.6284 73.4943 80.6576 72.1541 81.6627 70.8856C83.1945 68.9231 84.6544 67.0803 85.133 64.8784C85.9228 61.1449 83.6492 57.6507 81.2559 55.1617C80.5379 55.0899 79.8438 55.042 79.1498 54.9941H79.0541C70.6057 54.3719 63.6412 52.0264 58.352 48.0057C56.3656 46.4979 54.6424 44.7508 53.2304 42.8362C52.9193 42.8601 52.6321 42.8841 52.3449 42.908C54.8339 45.8517 56.7007 49.322 57.6819 53.0795C58.017 54.3479 58.1367 55.4489 58.0409 56.4301C58.4478 56.9327 58.7828 57.4832 59.07 57.9857C62.7318 64.4476 64.0481 72.3216 62.66 79.6211C62.2292 81.8708 61.5591 84.0727 60.9129 86.2027C60.4342 87.7823 59.9316 89.4336 59.5487 91.0611C58.4956 95.4647 58.5914 99.0068 59.812 101.855C60.3863 103.171 61.7266 104.583 63.1147 105.684C63.9045 104.823 65.0054 104.296 66.1063 104.32C67.2072 104.344 68.2603 104.99 68.8825 105.995C69.4091 106.857 69.4809 107.838 69.0979 108.676C68.8107 109.585 68.0449 110.16 67.0636 110.231C66.2978 110.279 65.3405 110.016 64.3592 109.561C64.3592 110.16 64.4789 110.758 64.5985 111.308C66.0585 118.369 71.0365 124.615 77.5941 127.607C78.2403 127.894 78.5275 128.66 78.2164 129.306C77.9771 129.737 77.4984 130 77.0198 130ZM65.2687 107.096C65.867 107.407 66.3696 107.599 66.6807 107.623C66.6807 107.599 66.7046 107.599 66.7046 107.575C66.7525 107.503 66.6807 107.359 66.6329 107.24C66.4893 107 66.226 106.833 66.0106 106.809C65.7713 106.833 65.508 106.929 65.2687 107.096ZM76.948 82.7085C75.6316 83.7137 74.5068 84.8385 73.8845 86.2984C72.1614 90.1516 74.4111 94.7228 77.0915 99.0786C77.8574 100.323 78.6472 101.616 79.7481 102.453C80.6097 103.099 81.9021 103.53 82.9073 103.028C84.2236 102.357 84.4629 100.347 83.9364 98.8632C83.4816 97.5469 82.5722 96.3742 81.6388 95.1297C81.2798 94.675 80.9208 94.1963 80.5858 93.7176C78.2403 90.391 76.9958 86.4899 76.948 82.7085ZM3.23446 18.5682C3.01906 20.5546 6.32181 30.9415 14.0761 46.1389C21.3756 60.403 29.3932 72.3934 36.5252 79.9323C34.9217 73.8772 33.5814 67.3196 34.2516 60.8098C34.6824 56.6216 36.1183 52.4333 38.2962 49.0588C40.6177 45.4688 43.6811 42.8601 47.2232 41.4481C45.7155 40.2275 44.0641 39.1984 42.293 38.4086C41.2639 37.9539 40.2109 37.5709 39.086 37.188C37.2192 36.5418 35.2807 35.8478 33.5336 34.7229C31.5471 33.4305 30.2308 31.9228 29.6086 30.1996C29.4889 30.3432 29.3692 30.5107 29.2735 30.6543C28.4598 31.7792 27.8375 33.1433 27.3589 34.5793C28.5555 38.5522 28.8906 43.0994 28.9624 45.9235C29.0581 49.2502 28.8666 55.9754 27.4785 57.6507C26.9281 58.3208 26.1862 58.3687 25.7075 58.2011C24.8698 57.89 24.4869 56.9806 24.2237 56.1429C23.0988 52.5051 22.4048 42.2857 24.6784 34.6272C24.3194 33.5741 23.8886 32.6168 23.386 31.7792C19.7961 25.8917 9.33736 19.1426 4.40717 18.5682C3.76098 18.4485 3.40199 18.5203 3.23446 18.5682ZM84.9894 55.6643C86.9519 58.3447 88.364 61.6954 87.5742 65.381C86.9759 68.1572 85.2766 70.3352 83.6013 72.4412C82.6201 73.6858 81.6867 74.8585 80.9926 76.1509C80.7772 76.5338 80.5858 76.9406 80.4182 77.3714C80.5618 77.2757 80.7294 77.18 80.873 77.0603C84.6544 74.4995 87.7178 70.9813 89.7521 66.8888C90.7812 64.7827 91.7864 61.7911 90.6855 59.3739C89.7042 57.2438 87.5502 56.2147 84.9894 55.6643ZM54.3552 56.9088C54.0681 56.9088 53.7569 57.0045 53.5415 57.172C53.4458 57.2438 53.3261 57.3635 53.3261 57.5071C53.3261 57.6028 53.4219 57.6746 53.6373 57.7464C54.1159 57.89 54.7142 57.7704 54.9536 57.4592C55.0254 57.3635 55.0732 57.2917 55.145 57.196C55.0014 57.1002 54.8339 57.0284 54.6664 56.9566C54.5706 56.9088 54.4749 56.9088 54.3552 56.9088ZM26.0186 40.9694C25.8272 42.5969 25.7554 44.1046 25.7314 45.3013C25.6596 48.3408 25.8511 50.9495 26.1383 52.8402C26.4494 49.8725 26.5452 45.3252 26.0186 40.9694ZM56.581 42.8841C57.5623 43.985 58.6392 44.9902 59.8359 45.8996C64.4789 49.4178 70.6057 51.5717 78.001 52.2897C73.5734 48.7955 68.5954 46.1389 63.2344 44.3679C60.8889 43.602 58.6632 43.0994 56.581 42.8841ZM31.7386 27.8063C31.7386 27.9499 31.7625 28.1174 31.7625 28.261C31.954 29.8645 33.031 31.3005 34.9217 32.545C36.4055 33.5023 38.1048 34.1007 39.9237 34.7468C41.0485 35.1537 42.2212 35.5606 43.3461 36.0632C45.8351 37.188 48.1327 38.7437 50.1191 40.5865C50.5978 40.4908 51.1004 40.419 51.603 40.3472C49.4729 36.5897 48.4917 32.4014 48.8746 28.3568C49.5208 21.5119 54.2116 14.8107 61.3676 10.4549C66.1303 7.55902 71.3955 5.85978 76.6608 4.4956C52.5603 -0.338858 25.3246 4.04087 5.69955 16.127C11.5871 17.3955 21.7346 24.0967 25.5639 30.3911C25.7075 30.6304 25.8511 30.8936 25.9947 31.133C26.3537 30.415 26.7366 29.7449 27.1913 29.1226C27.7657 28.3089 28.4598 27.4952 29.2496 26.6814C29.6325 23.642 31.6907 21.0093 33.031 19.5973C35.2807 17.204 40.0433 14.0448 43.7529 11.8909C51.8662 7.17609 53.015 7.96588 53.5655 8.3488C54.092 8.7078 54.4988 9.47365 53.9963 10.5267C53.374 11.8191 50.9807 13.4944 46.0266 16.8689C41.4554 19.9802 35.5679 24.001 31.7386 27.8063ZM47.3908 12.8003C43.1068 15.074 37.3868 18.6878 34.8738 21.3683C34.6345 21.6316 34.3234 21.9667 33.9883 22.3974C37.3389 19.693 41.1682 17.0843 44.5427 14.7628C45.5001 14.1166 46.4813 13.4465 47.3908 12.8003Z" fill="#0072BC" fill-opacity="0.3"/>
</svg>
