<svg width="90" height="90" viewBox="0 0 90 90" fill="none" xmlns="http://www.w3.org/2000/svg">
<path d="M78.75 15.4688C77.2582 15.4688 75.8274 16.0614 74.7725 17.1163C73.7176 18.1712 73.125 19.6019 73.125 21.0938V38.8884L70.1972 42.6094C69.976 41.6876 69.4509 40.8673 68.7064 40.2805C67.962 39.6937 67.0416 39.3747 66.0938 39.375H65.9095C65.3312 39.3761 64.7593 39.4956 64.2289 39.7261C63.6986 39.9565 63.221 40.2931 62.8256 40.7152L45.4852 59.2945C45.3116 59.4946 45.1496 59.7045 45 59.9231C44.8504 59.7045 44.6884 59.4946 44.5148 59.2945L27.1744 40.7166C26.7793 40.2941 26.3018 39.9571 25.7714 39.7264C25.241 39.4956 24.6689 39.376 24.0905 39.375H23.9062C22.9584 39.3747 22.038 39.6937 21.2936 40.2805C20.5491 40.8673 20.024 41.6876 19.8028 42.6094L16.875 38.8884V21.0938C16.875 19.6019 16.2824 18.1712 15.2275 17.1163C14.1726 16.0614 12.7418 15.4688 11.25 15.4688C9.75816 15.4688 8.32742 16.0614 7.27252 17.1163C6.21763 18.1712 5.625 19.6019 5.625 21.0938V45C5.62492 45.2353 5.68391 45.467 5.79656 45.6736L14.2341 61.1423C14.299 61.2598 14.3799 61.3677 14.4745 61.463L25.4841 72.4711C25.8768 72.8622 26.1881 73.3274 26.4001 73.8395C26.612 74.3517 26.7203 74.9009 26.7188 75.4552V87.1875C26.7188 87.5605 26.8669 87.9181 27.1306 88.1819C27.3944 88.4456 27.752 88.5938 28.125 88.5938H61.875C62.248 88.5938 62.6056 88.4456 62.8694 88.1819C63.1331 87.9181 63.2812 87.5605 63.2812 87.1875V75.4552C63.2797 74.9009 63.388 74.3517 63.5999 73.8395C63.8119 73.3274 64.1232 72.8622 64.5159 72.4711L75.5255 61.463C75.6201 61.3677 75.701 61.2598 75.7659 61.1423L84.2034 45.6736C84.3161 45.467 84.3751 45.2353 84.375 45V21.0938C84.375 19.6019 83.7824 18.1712 82.7275 17.1163C81.6726 16.0614 80.2418 15.4688 78.75 15.4688ZM27.4725 70.4827L16.6064 59.625L8.4375 44.6414V21.0938C8.4375 20.3478 8.73382 19.6325 9.26126 19.105C9.78871 18.5776 10.5041 18.2812 11.25 18.2812C11.9959 18.2812 12.7113 18.5776 13.2387 19.105C13.7662 19.6325 14.0625 20.3478 14.0625 21.0938V39.375C14.0626 39.6902 14.1686 39.9963 14.3634 40.2441L29.8322 59.9316L32.0428 58.1934L22.5 46.0477V43.5938C22.5 43.2208 22.6482 42.8631 22.9119 42.5994C23.1756 42.3357 23.5333 42.1875 23.9062 42.1875H24.0905C24.2833 42.1876 24.4741 42.2273 24.6509 42.3042C24.8278 42.3812 24.9869 42.4936 25.1184 42.6347L42.4589 61.2141C43.1892 61.994 43.595 63.0228 43.5938 64.0913V85.7812H29.5312V75.4552C29.5339 74.5314 29.3533 73.6162 28.9999 72.7627C28.6465 71.9092 28.1274 71.1342 27.4725 70.4827ZM81.5625 44.6414L73.3936 59.625L62.5275 70.4897C61.8735 71.1404 61.3548 71.9142 61.0014 72.7665C60.6481 73.6187 60.467 74.5326 60.4688 75.4552V85.7812H46.4062V64.0913C46.405 63.0228 46.8108 61.994 47.5411 61.2141L64.883 42.6333C65.0145 42.4927 65.1734 42.3805 65.35 42.3039C65.5266 42.2272 65.717 42.1876 65.9095 42.1875H66.0938C66.4667 42.1875 66.8244 42.3357 67.0881 42.5994C67.3518 42.8631 67.5 43.2208 67.5 43.5938V46.0477L57.9572 58.1934L60.1678 59.9316L75.6366 40.2441C75.8314 39.9963 75.9374 39.6902 75.9375 39.375V21.0938C75.9375 20.3478 76.2338 19.6325 76.7613 19.105C77.2887 18.5776 78.0041 18.2812 78.75 18.2812C79.4959 18.2812 80.2113 18.5776 80.7387 19.105C81.2662 19.6325 81.5625 20.3478 81.5625 21.0938V44.6414Z" fill="white"/>
<path d="M68.3791 15.1608L73.9366 10.7142C74.5624 10.2162 75.0674 9.58304 75.4139 8.86222C75.7605 8.14139 75.9395 7.35153 75.9377 6.55174C75.9316 5.69052 75.722 4.84293 75.326 4.07815C74.9793 3.3831 74.4698 2.78209 73.8409 2.32625C73.212 1.87041 72.4823 1.57324 71.7139 1.46001C70.9455 1.34678 70.1611 1.42086 69.4274 1.67593C68.6938 1.931 68.0326 2.35951 67.5002 2.92502C66.9617 2.3528 66.2916 1.92076 65.5481 1.66644C64.8047 1.41213 64.0103 1.34323 63.2342 1.46575C62.4581 1.58827 61.7236 1.8985 61.0946 2.36946C60.4656 2.84042 59.9612 3.45788 59.6252 4.16815C59.0797 5.25915 58.9249 6.50427 59.1867 7.69562C59.4485 8.88698 60.1111 9.95248 61.0638 10.7142L66.6213 15.1608C66.8707 15.3605 67.1807 15.4693 67.5002 15.4693C67.8197 15.4693 68.1297 15.3605 68.3791 15.1608ZM62.8202 8.51768C62.5246 8.28246 62.2861 7.98344 62.1224 7.64299C61.9588 7.30254 61.8742 6.92948 61.8752 6.55174C61.8801 6.12451 61.9882 5.70481 62.1902 5.3283C62.3566 4.9948 62.6126 4.71427 62.9296 4.5182C63.2465 4.32212 63.6118 4.21825 63.9845 4.21825C64.3573 4.21825 64.7226 4.32212 65.0395 4.5182C65.3565 4.71427 65.6125 4.9948 65.7789 5.3283L66.2416 6.25361C66.3715 6.47155 66.5558 6.65201 66.7764 6.77733C66.9971 6.90265 67.2464 6.96854 67.5002 6.96854C67.7539 6.96854 68.0033 6.90265 68.2239 6.77733C68.4445 6.65201 68.6288 6.47155 68.7588 6.25361L69.2214 5.3283C69.3871 4.99428 69.643 4.71332 69.9601 4.51723C70.2772 4.32113 70.6429 4.21775 71.0158 4.21877C71.4062 4.22287 71.7873 4.33867 72.114 4.55249C72.4407 4.7663 72.6994 5.06918 72.8594 5.42533C73.1173 5.94087 73.1906 6.52929 73.067 7.09234C72.9434 7.6554 72.6303 8.15901 72.1802 8.51908L67.5002 12.2625L62.8202 8.51768Z" fill="white"/>
<path d="M22.5002 2.92502C21.9617 2.3528 21.2916 1.92076 20.5481 1.66644C19.8047 1.41213 19.0103 1.34323 18.2342 1.46575C17.4581 1.58827 16.7236 1.8985 16.0946 2.36946C15.4656 2.84042 14.9612 3.45788 14.6252 4.16815C14.0797 5.25915 13.9249 6.50427 14.1867 7.69562C14.4485 8.88698 15.1111 9.95248 16.0638 10.7142L21.6213 15.1608C21.8707 15.3605 22.1807 15.4693 22.5002 15.4693C22.8197 15.4693 23.1297 15.3605 23.3791 15.1608L28.9366 10.7142C29.5624 10.2162 30.0674 9.58304 30.4139 8.86222C30.7605 8.14139 30.9395 7.35153 30.9377 6.55174C30.9316 5.69052 30.722 4.84293 30.326 4.07815C29.9793 3.3831 29.4698 2.78209 28.8409 2.32625C28.212 1.87041 27.4823 1.57324 26.7139 1.46001C25.9455 1.34678 25.1611 1.42086 24.4274 1.67593C23.6938 1.931 23.0326 2.35951 22.5002 2.92502ZM27.8594 5.42533C28.1173 5.94087 28.1906 6.52929 28.067 7.09234C27.9434 7.6554 27.6303 8.15901 27.1802 8.51908L22.5002 12.2625L17.8202 8.51768C17.5246 8.28246 17.2861 7.98344 17.1224 7.64299C16.9588 7.30254 16.8742 6.92948 16.8752 6.55174C16.8802 6.12451 16.9882 5.70481 17.1902 5.3283C17.3566 4.9948 17.6126 4.71427 17.9296 4.5182C18.2465 4.32212 18.6118 4.21825 18.9845 4.21825C19.3573 4.21825 19.7226 4.32212 20.0395 4.5182C20.3565 4.71427 20.6125 4.9948 20.7789 5.3283L21.2416 6.25361C21.3715 6.47155 21.5558 6.65201 21.7764 6.77733C21.9971 6.90265 22.2464 6.96854 22.5002 6.96854C22.7539 6.96854 23.0033 6.90265 23.2239 6.77733C23.4445 6.65201 23.6288 6.47155 23.7588 6.25361L24.2214 5.3283C24.3871 4.99428 24.643 4.71332 24.9601 4.51723C25.2773 4.32113 25.6429 4.21775 26.0158 4.21877C26.4062 4.22287 26.7873 4.33867 27.114 4.55249C27.4407 4.7663 27.6994 5.06918 27.8594 5.42533Z" fill="white"/>
<path d="M45 40.7812C46.1189 40.7812 47.1919 40.3368 47.9831 39.5456C48.7743 38.7544 49.2188 37.6814 49.2188 36.5625H46.4062C46.4062 36.9355 46.2581 37.2931 45.9944 37.5569C45.7306 37.8206 45.373 37.9688 45 37.9688C44.627 37.9688 44.2694 37.8206 44.0056 37.5569C43.7419 37.2931 43.5938 36.9355 43.5938 36.5625H40.7812C40.7813 37.6814 41.2257 38.7544 42.0169 39.5456C42.8081 40.3368 43.8811 40.7812 45 40.7812Z" fill="white"/>
<path d="M39.375 26.7188H36.5625V30.9375H39.375V26.7188Z" fill="white"/>
<path d="M53.4375 26.7188H50.625V30.9375H53.4375V26.7188Z" fill="white"/>
<path d="M28.125 36.5624H29.1094C30.2683 39.8513 32.4192 42.6997 35.2654 44.7145C38.1116 46.7293 41.5128 47.8113 45 47.8113C48.4872 47.8113 51.8884 46.7293 54.7346 44.7145C57.5808 42.6997 59.7317 39.8513 60.8906 36.5624H61.875C63.3668 36.5624 64.7976 35.9698 65.8525 34.9149C66.9074 33.86 67.5 32.4292 67.5 30.9374C67.5 29.4456 66.9074 28.0148 65.8525 26.9599C64.7976 25.905 63.3668 25.3124 61.875 25.3124H60.9047C60.5246 24.2269 60.0325 23.184 59.4366 22.2004C59.7633 21.9069 60.0618 21.5834 60.3281 21.2343C61.2741 19.9778 61.7857 18.4477 61.7857 16.8749C61.7857 15.3021 61.2741 13.772 60.3281 12.5155C59.3351 11.1608 57.8584 10.2406 56.2047 9.94605C54.5511 9.65146 52.8475 10.0051 51.4477 10.9335L47.5312 13.5196C46.8064 12.9592 45.9162 12.6552 45 12.6552C44.0838 12.6552 43.1936 12.9592 42.4688 13.5196L38.5453 10.9307C37.1461 10.0037 35.4436 9.65111 33.7912 9.94622C32.1389 10.2413 30.6637 11.1614 29.6719 12.5155C28.7242 13.7726 28.2116 15.3041 28.2116 16.8784C28.2116 18.4527 28.7242 19.9842 29.6719 21.2413C29.9396 21.5898 30.24 21.9119 30.5691 22.2032C29.9717 23.1858 29.4778 24.2278 29.0953 25.3124H28.125C26.6332 25.3124 25.2024 25.905 24.1475 26.9599C23.0926 28.0148 22.5 29.4456 22.5 30.9374C22.5 32.4292 23.0926 33.86 24.1475 34.9149C25.2024 35.9698 26.6332 36.5624 28.125 36.5624ZM61.875 28.1249C62.6209 28.1249 63.3363 28.4212 63.8637 28.9487C64.3912 29.4761 64.6875 30.1915 64.6875 30.9374C64.6875 31.6833 64.3912 32.3987 63.8637 32.9261C63.3363 33.4536 62.6209 33.7499 61.875 33.7499H61.6205C61.9542 31.8902 61.9599 29.9865 61.6373 28.1249H61.875ZM53.003 13.2791C53.8082 12.7495 54.7866 12.5509 55.7346 12.7246C56.6825 12.8982 57.527 13.4308 58.0922 14.2115C58.6625 14.9826 58.9703 15.9164 58.9703 16.8756C58.9703 17.8347 58.6625 18.7686 58.0922 19.5397C57.5264 20.3192 56.6821 20.8508 55.7347 21.0241C54.7873 21.1975 53.8095 20.9993 53.0044 20.4707L49.0781 17.8846C49.2581 17.2235 49.2581 16.5263 49.0781 15.8652L53.003 13.2791ZM45 15.4686C45.2781 15.4686 45.55 15.5511 45.7813 15.7056C46.0125 15.8602 46.1928 16.0798 46.2992 16.3367C46.4056 16.5937 46.4335 16.8765 46.3792 17.1492C46.325 17.422 46.191 17.6726 45.9944 17.8693C45.7977 18.0659 45.5471 18.1999 45.2743 18.2541C45.0016 18.3084 44.7188 18.2805 44.4619 18.1741C44.2049 18.0677 43.9853 17.8874 43.8307 17.6562C43.6762 17.4249 43.5938 17.153 43.5938 16.8749C43.5938 16.5019 43.7419 16.1442 44.0056 15.8805C44.2694 15.6168 44.627 15.4686 45 15.4686ZM31.9092 14.21C32.4748 13.4303 33.3191 12.8985 34.2666 12.7251C35.2141 12.5517 36.192 12.7502 36.997 13.2791L40.9219 15.8652C40.7419 16.5263 40.7419 17.2235 40.9219 17.8846L37.0027 20.4707C36.1975 21.0003 35.219 21.1989 34.2711 21.0252C33.3231 20.8516 32.4786 20.319 31.9134 19.5383C31.3425 18.7676 31.0339 17.834 31.0332 16.8749C31.0324 15.9157 31.3395 14.9817 31.9092 14.21ZM34.9453 23.9061C36.2271 23.9038 37.4797 23.5237 38.5467 22.8135L42.4702 20.2246C43.195 20.7849 44.0852 21.0889 45.0014 21.0889C45.9176 21.0889 46.8078 20.7849 47.5327 20.2246L51.4561 22.8135C52.5223 23.5232 53.7739 23.9032 55.0547 23.9061C55.7151 23.9028 56.371 23.798 56.9995 23.5954C58.3021 25.7271 59.0134 28.1673 59.06 30.6651C59.1067 33.1628 58.4872 35.6279 57.2651 37.8068C56.0431 39.9857 54.2627 41.7997 52.107 43.0623C49.9513 44.3248 47.4982 44.9903 45 44.9903C42.5018 44.9903 40.0487 44.3248 37.893 43.0623C35.7374 41.7997 33.9569 39.9857 32.7349 37.8068C31.5128 35.6279 30.8933 33.1628 30.94 30.6651C30.9866 28.1673 31.6979 25.7271 33.0005 23.5954C33.629 23.7979 34.2849 23.9027 34.9453 23.9061ZM28.125 28.1249H28.3627C28.0401 29.9865 28.0458 31.8902 28.3795 33.7499H28.125C27.3791 33.7499 26.6637 33.4536 26.1363 32.9261C25.6088 32.3987 25.3125 31.6833 25.3125 30.9374C25.3125 30.1915 25.6088 29.4761 26.1363 28.9487C26.6637 28.4212 27.3791 28.1249 28.125 28.1249Z" fill="white"/>
</svg>
