<svg width="90" height="90" viewBox="0 0 90 90" fill="none" xmlns="http://www.w3.org/2000/svg">
<g clip-path="url(#clip0_1_3279)">
<path d="M27.2904 42.3395C26.7755 42.8543 26.7757 43.6892 27.2906 44.2039C28.597 45.5102 30.3133 46.1635 32.0296 46.1635C33.7457 46.1635 35.4619 45.5102 36.7684 44.2039C37.2833 43.689 37.2835 42.8542 36.7686 42.3395C36.2535 41.8244 35.419 41.8244 34.904 42.3393C33.319 43.9242 30.74 43.9242 29.155 42.3393C28.6401 41.8244 27.8053 41.8244 27.2904 42.3395Z" fill="white"/>
<path d="M23.0373 33.5976C23.0373 32.5316 23.9048 31.6642 24.971 31.6642C26.0372 31.6642 26.9047 32.5316 26.9047 33.5976C26.9047 34.3257 27.495 34.916 28.2232 34.916C28.9513 34.916 29.5416 34.3257 29.5416 33.5976C29.5416 31.0776 27.4912 29.0273 24.971 29.0273C22.4508 29.0273 20.4004 31.0776 20.4004 33.5976C20.4004 34.3257 20.9907 34.916 21.7188 34.916C22.447 34.916 23.0373 34.3257 23.0373 33.5976Z" fill="white"/>
<path d="M62.1333 55.4343C62.6482 54.9194 62.6482 54.0846 62.1333 53.5697C61.6184 53.055 60.7835 53.0548 60.2686 53.5697C59.1603 54.6779 57.3572 54.6779 56.2488 53.5697C55.7337 53.0548 54.899 53.055 54.3842 53.5697C53.8693 54.0846 53.8694 54.9194 54.3842 55.4343C55.4524 56.5024 56.8554 57.0363 58.2586 57.0363C59.6618 57.0363 61.065 56.5024 62.1333 55.4343Z" fill="white"/>
<path d="M55.3174 48.3455C56.0456 48.3455 56.6359 47.7552 56.6359 47.0271C56.6359 44.9142 54.9168 43.1953 52.8038 43.1953C50.6908 43.1953 48.9717 44.9142 48.9717 47.0271C48.9717 47.7552 49.562 48.3455 50.2901 48.3455C51.0183 48.3455 51.6086 47.7552 51.6086 47.0271C51.6086 46.3682 52.1447 45.8322 52.8038 45.8322C53.4628 45.8322 53.999 46.3682 53.999 47.0271C53.999 47.7552 54.5893 48.3455 55.3174 48.3455Z" fill="white"/>
<path d="M61.2013 48.3455C61.9294 48.3455 62.5197 47.7552 62.5197 47.0271C62.5197 46.3682 63.0559 45.8322 63.7149 45.8322C64.374 45.8322 64.9101 46.3682 64.9101 47.0271C64.9101 47.7552 65.5004 48.3455 66.2286 48.3455C66.9567 48.3455 67.547 47.7552 67.547 47.0271C67.547 44.9142 65.8279 43.1953 63.7149 43.1953C61.6019 43.1953 59.8828 44.9142 59.8828 47.0271C59.8828 47.7552 60.4731 48.3455 61.2013 48.3455Z" fill="white"/>
<path d="M89.2828 66.5872C88.5707 65.8746 87.4878 65.7723 86.5753 66.0583C83.9213 63.2118 80.6374 61.1944 76.5845 62.4078L72.5996 63.6009C71.522 62.0982 70.2058 60.7641 68.719 59.6647C69.1569 59.1537 69.558 58.6101 69.9184 58.0384C73.0751 60.3392 77.2141 61.17 81.0053 60.1931C82.9153 59.7011 83.9591 57.4297 83.0897 55.642C81.5815 52.3907 79.6183 49.5918 76.3006 47.9604C76.4549 47.5408 76.5393 47.0878 76.5393 46.6153C76.5393 45.5914 76.1432 44.6583 75.4961 43.9613V32.7134C75.4961 28.5364 73.5816 24.9973 69.9594 22.4788C66.8218 20.2972 62.6701 19.0958 58.2688 19.0958C56.6053 19.0958 54.9855 19.2697 53.4484 19.6054V16.6022C53.4484 5.74876 44.6964 3.6832 41.6694 3.29698C41.0891 2.80336 40.4489 2.35913 39.7547 1.97221C35.4703 -0.416285 26.6063 -0.98304 19.7565 2.26684C19.0987 2.57887 18.8183 3.36537 19.1305 4.02318C19.4424 4.681 20.2287 4.96139 20.8869 4.64918C26.7858 1.85038 34.7414 2.19634 38.4707 4.27544C42.0087 6.24784 43.9155 10.7168 41.7958 14.4243C39.2298 18.9119 33.7438 20.4586 25.4905 19.0216C19.3909 17.9595 15.0954 22.509 14.6703 28.3313C14.6063 28.5169 13.5187 28.394 13.2481 28.4044V16.6022C13.2481 12.8705 14.4578 9.78302 16.8436 7.42529C17.3615 6.91356 17.3664 6.07872 16.8545 5.56084C16.3428 5.04313 15.508 5.03803 14.9901 5.54994C12.0846 8.42116 10.6114 12.1397 10.6114 16.6022V29.3514C9.49076 30.2041 8.76579 31.5518 8.76579 33.0655C8.76579 35.6377 10.8584 37.7304 13.4306 37.7304H14.5989C14.4921 42.2327 16.0457 46.6513 19.0667 50.0117C15.0143 52.8777 12.0573 56.9534 10.6005 61.696C7.41535 61.4346 5.4528 64.0075 3.44771 66.0308C1.64707 65.2614 -0.422889 66.9842 0.0753067 68.8982L5.31076 89.0087C5.48058 89.6605 6.27235 90.1204 6.91891 89.9525C7.62349 89.769 8.04609 89.0491 7.86274 88.3444L2.7129 68.5638L37.6962 79.4621C37.8709 79.5166 37.9946 79.676 38.0041 79.8589L38.4668 88.7452C38.5046 89.4724 39.1231 90.0313 39.8521 89.9933C40.5791 89.9555 41.138 89.3353 41.1002 88.6081L40.7321 81.5389C42.0351 82.2813 43.5242 82.6844 45.055 82.6844C46.5858 82.6844 48.0749 82.2811 49.3781 81.5387L49.01 88.6081C48.9722 89.3353 49.5309 89.9555 50.2581 89.9933C50.9201 90.0274 51.6094 89.3979 51.6434 88.7452L52.106 79.8589C52.1155 79.676 52.2395 79.5166 52.4142 79.4621L74.5699 72.56C75.2651 72.3434 75.6531 71.6042 75.4365 70.9089C75.2199 70.2137 74.4807 69.8253 73.7855 70.0423L51.63 76.9444C50.8693 77.1814 50.1289 77.4226 49.5716 78.0419C47.199 80.6782 42.9117 80.6782 40.5389 78.042C39.9815 77.4227 39.2412 77.1814 38.4804 76.9444L6.2843 66.9146C7.57356 65.6137 8.91047 63.8123 11.0189 64.444L29.7073 70.0394C35.1032 71.7527 38.9569 73.7504 41.1617 75.9772C43.4488 78.2871 46.6241 78.317 48.8839 75.9566C51.6523 73.0652 56.5272 71.2449 60.055 70.114C65.8122 68.3715 71.5786 66.6591 77.3411 64.9337C79.6967 64.2284 82.1669 65.1148 83.7389 66.9418L78.5514 68.5579C77.8561 68.7744 77.4682 69.5136 77.6847 70.2089C77.9013 70.9042 78.6404 71.2925 79.3358 71.0756L87.2633 68.6059L81.1159 88.2835C80.8988 88.9786 81.2862 89.718 81.9811 89.9351C82.622 90.1357 83.4307 89.7168 83.6327 89.0699L89.8877 69.0474C90.16 68.1757 89.9283 67.2331 89.2828 66.5872ZM69.9001 64.409L64.1512 66.1303C64.3568 65.5138 64.4683 64.8546 64.4683 64.1699V63.0062C65.2915 62.5887 66.0675 62.0906 66.7858 61.5228C67.9518 62.3318 69.0039 63.3076 69.9001 64.409ZM59.2903 67.5901C56.9773 68.2887 54.6869 66.3791 54.687 64.0168C55.8269 64.3232 57.0247 64.4867 58.26 64.4867C59.4948 64.4867 60.6919 64.3234 61.8312 64.0171C61.8247 65.6343 60.8556 67.0893 59.2903 67.5901ZM27.0206 55.0675C28.608 55.5446 30.29 55.8011 32.0309 55.8011C32.4802 55.7839 32.9295 55.7667 33.379 55.7494C32.6523 57.391 33.4388 59.3769 35.0976 60.0553C34.2309 60.7253 33.1537 61.1076 32.0295 61.1076C29.2676 61.1076 27.0206 58.8606 27.0206 56.0987V55.0675ZM36.1712 57.6396C35.7851 57.4785 35.6614 57.1971 35.8002 56.7952C37.1932 53.8843 38.871 51.3376 42.0126 50.0415C42.7579 50.4504 43.6457 50.5855 44.4877 50.52C44.4823 52.2626 44.7716 54.0107 45.3978 55.6405C42.8156 57.6958 39.3616 58.4617 36.1712 57.6396ZM44.4877 47.8831H43.8842C43.1849 47.8831 42.6162 47.3142 42.6162 46.6151C42.6162 45.916 43.1851 45.3471 43.8842 45.3471H44.4877V47.8831ZM48.2799 55.6524C47.8276 53.9265 47.1246 52.5774 47.1246 50.7158V44.2424C47.7054 40.6791 49.2299 40.2463 52.8961 39.9888C57.7165 39.65 61.5753 38.2162 64.055 35.8427C64.3103 35.6513 64.5369 35.678 64.7348 35.9229C65.5515 37.2787 66.6402 38.6179 67.971 39.9031C69.124 41.0168 69.3768 43.2564 69.377 44.022C69.3655 46.2512 69.3944 48.4853 69.3944 50.716C69.3944 56.7773 64.3238 61.85 58.2588 61.85C53.8909 61.8498 50.1027 59.3219 48.2799 55.6524ZM73.9024 46.6151C73.9024 47.3142 73.3335 47.8831 72.6344 47.8831H72.0309V45.3471H72.6344C73.3335 45.3473 73.9024 45.916 73.9024 46.6151ZM79.9076 55.1285L80.7182 56.7952C80.8571 57.1973 80.7335 57.4787 80.3473 57.6396C77.157 58.4614 73.7029 57.6956 71.1208 55.6405C71.7491 54.0051 72.0272 52.2668 72.0309 50.52C72.8728 50.5854 73.7603 50.4503 74.5057 50.0416C76.8729 51.0196 78.781 52.8118 79.9076 55.1285ZM72.8594 32.7132V42.7169C72.5449 42.699 72.2236 42.7072 71.9091 42.7104C71.7241 41.3891 71.2131 39.3687 69.8029 38.0065C68.6372 36.8806 67.692 35.7217 66.9936 34.5624C66.0116 32.9324 63.6205 32.6086 62.2317 33.938C60.2022 35.8807 56.9099 37.0636 52.7113 37.3586C48.9084 37.6258 45.1881 38.2818 44.589 42.7104C44.2813 42.7072 43.967 42.6993 43.6594 42.7169V33.891C43.6594 25.8654 51.0035 21.7327 58.269 21.7327C67.8476 21.7325 72.8594 27.2565 72.8594 32.7132ZM44.0852 15.7331C45.6766 12.9499 45.7227 9.47679 44.2968 6.62157C47.332 7.73205 50.8117 10.366 50.8117 16.6022V20.3698C49.3779 20.8963 48.0512 21.5796 46.8718 22.4076C45.5149 20.6577 43.7492 19.3797 41.7394 18.6723C42.6588 17.8384 43.4419 16.858 44.0852 15.7331ZM13.4308 35.0935C12.3126 35.0935 11.4029 34.1837 11.4029 33.0655C11.4029 31.9473 12.3126 31.0376 13.4308 31.0376H14.5991V35.0935H13.4308ZM17.2358 29.9624C17.2358 25.7722 19.0307 20.5739 25.0384 21.6193C29.4921 22.3949 34.4368 22.6361 38.6468 20.6992C41.1267 20.8861 43.3305 22.1049 44.8539 24.111C43.2827 25.7088 42.179 27.6121 41.5722 29.7626C40.8567 29.2978 40.0038 29.0276 39.089 29.0276C36.5686 29.0276 34.5183 31.0778 34.5183 33.5978C34.5183 34.326 35.1087 34.9163 35.8368 34.9163C36.5649 34.9163 37.1552 34.326 37.1552 33.5978C37.1552 32.5318 38.0228 31.6645 39.089 31.6645C40.3204 31.6645 41.0225 32.7777 41.0225 33.8907V43.961C40.3756 44.6582 39.9793 45.5911 39.9793 46.6149C39.9793 47.0871 40.0635 47.5399 40.2179 47.9594C37.9799 49.0583 36.12 50.7604 34.8242 52.9009C33.908 53.0756 32.9707 53.1641 32.0289 53.1641C23.9856 53.1641 17.236 46.4171 17.236 38.3709L17.2358 29.9624ZM30.4741 67.5165L13.165 62.3339C14.5112 58.098 17.3123 54.3642 21.0168 51.872C22.0478 52.7146 23.1767 53.4416 24.3837 54.0332V56.0989C24.3837 60.3148 27.8136 63.7447 32.0302 63.7447C34.4825 63.7447 36.7894 62.5526 38.2184 60.5895C41.1902 60.7073 44.1968 59.7902 46.6 58.0386C46.9599 58.6094 47.3603 59.1521 47.7975 59.6624C43.7288 62.6505 41.1742 67.1637 40.7085 72.1836C38.2165 70.4403 34.8434 68.9033 30.4945 67.5231C30.4878 67.5207 30.4809 67.5186 30.4741 67.5165ZM46.9791 74.1333C46.3335 74.8075 45.6847 75.152 45.0506 75.1573C44.4733 75.1547 43.8746 74.8871 43.2684 74.3439C43.1963 69.2521 45.5094 64.4355 49.732 61.5219C50.4504 62.0901 51.2267 62.5881 52.0503 63.006V64.1701C52.0503 66.2724 53.1007 68.134 54.7043 69.2579C51.8928 70.4383 49.007 72.015 46.9791 74.1333Z" fill="white"/>
</g>
<defs>
<clipPath id="clip0_1_3279">
<rect width="90" height="90" fill="white"/>
</clipPath>
</defs>
</svg>
