<svg width="90" height="90" viewBox="0 0 90 90" fill="none" xmlns="http://www.w3.org/2000/svg">
<g clip-path="url(#clip0_1_3294)">
<path d="M79.5982 38.3025C83.2525 38.1089 86.1762 34.4168 86.1762 29.9069C86.1762 25.7925 83.7428 22.3593 80.5423 21.6404V20.5671C80.843 20.2787 81.117 19.9588 81.3594 19.601C81.5276 19.3525 81.6059 19.0531 81.5812 18.753C81.1534 13.6059 78.8167 8.83234 74.9997 5.31259C71.162 1.77361 66.1673 -0.175781 60.9351 -0.175781H55.2153C43.7881 -0.175781 34.4916 9.08915 34.4916 20.4765V20.7663C34.4916 21.1755 34.6825 21.5621 35.008 21.812C35.4722 22.1684 36.0071 22.4678 36.5962 22.7012C36.6443 22.7205 36.6923 22.7349 36.7404 22.7527V32.3589C36.7404 38.2339 38.7028 43.1633 42.4149 46.6144C43.4963 47.6196 44.7179 48.4814 46.05 49.1914C45.4876 49.7462 44.9726 50.3415 44.5084 50.9739C42.8756 51.6496 41.1068 52.0053 39.2803 52.0053C38.9473 52.0053 38.6163 51.9908 38.2874 51.9661V47.7899C38.2874 46.4427 37.1867 45.3468 35.834 45.3468H33.8592C33.8407 43.2718 32.1371 41.5888 30.0449 41.5888H22.7802C20.688 41.5888 18.9837 43.2718 18.9652 45.3468H16.9911C15.6377 45.3468 14.5377 46.4427 14.5377 47.7899V66.2676H6.32058C4.96788 66.2676 3.86719 67.3635 3.86719 68.7107V87.3813C3.86719 88.7285 4.96788 89.8244 6.32058 89.8244H54.0727C54.173 89.8244 54.2712 89.8127 54.3659 89.7908C55.4234 89.6768 56.3806 89.238 57.1379 88.5802C57.8946 89.2366 58.8497 89.6754 59.9058 89.7901C60.0013 89.8127 60.1015 89.8237 60.2038 89.8237H75.3691C78.8229 89.8237 81.6327 87.0346 81.6327 83.6054C81.6327 80.5203 79.3571 77.9543 76.3853 77.4709V74.8823C76.3853 74.1544 75.7955 73.5639 75.067 73.5639C74.3384 73.5639 73.7486 74.1544 73.7486 74.8823V77.3879H65.206C64.4892 75.4522 62.6194 74.1029 60.4586 74.1029C59.1883 74.1029 58.0271 74.5712 57.1372 75.3416C56.248 74.5712 55.0869 74.1029 53.8173 74.1029C51.6564 74.1029 49.7867 75.4522 49.0698 77.3879H48.7299V73.7383C49.6775 73.8599 50.6265 73.9217 51.5727 73.9217C59.8914 73.9217 67.9155 69.3156 71.8219 61.4116C72.398 60.2457 72.4838 58.928 72.0622 57.7017C71.6399 56.4712 70.7596 55.4804 69.5834 54.9118C67.1692 53.7459 64.2399 54.7491 63.0534 57.1489C61.9232 59.4355 60.1448 61.3073 57.9111 62.5618C57.276 62.9181 57.05 63.7222 57.4064 64.3567C57.7635 64.9918 58.5668 65.2177 59.202 64.8614C61.9012 63.3452 64.0504 61.0827 65.4175 58.3169C65.9648 57.2087 67.3195 56.7472 68.436 57.2863C68.9744 57.5458 69.376 57.9976 69.5683 58.5579C69.7592 59.1141 69.7201 59.7129 69.4578 60.2437C65.5645 68.1216 57.0363 72.2778 48.7299 71.0707V70.7864C49.3871 69.9199 49.8183 68.8727 49.9343 67.7206C49.9673 67.3971 49.9721 67.0737 49.9522 66.7531C50.8524 66.8519 51.7615 66.8739 52.6699 66.8121C53.3964 66.762 53.9443 66.1323 53.8949 65.4059C53.8448 64.6794 53.2158 64.1342 52.4887 64.1809C51.3399 64.2605 50.1891 64.1768 49.0685 63.9461C49.03 63.8836 48.9909 63.8211 48.9504 63.7593L47.6038 60.2388C47.1987 59.167 46.1578 58.4474 45.0124 58.4474C44.7879 58.4474 44.5661 58.4769 44.3485 58.5305C44.687 55.1872 46.2333 52.3623 48.6599 50.336C49.8437 50.7542 51.0893 51.0673 52.3815 51.2712C52.9343 53.761 55.1734 55.6308 57.8445 55.6308C60.4531 55.6308 62.6497 53.8482 63.2663 51.4456C65.2555 51.241 67.1678 50.7322 68.9496 49.9604C71.9647 52.2401 73.7479 55.6665 73.7479 59.7657V68.7306C73.7479 69.4585 74.3384 70.049 75.0663 70.049C75.7948 70.049 76.3847 69.4585 76.3847 68.7306V59.7657C76.3847 55.2977 74.6927 51.4559 71.4875 48.6304C75.2462 46.2896 78.1713 42.6779 79.5982 38.3025ZM58.0361 79.1285C58.0361 77.8115 59.123 76.7397 60.4592 76.7397C61.6925 76.7397 62.7266 77.6502 62.8653 78.8566C62.9422 79.5226 63.5052 80.0246 64.1747 80.0246H75.3691C77.3693 80.0246 78.996 81.6313 78.996 83.6061C78.996 85.5809 77.3693 87.1877 75.3691 87.1877H60.3858C60.3549 87.1836 60.324 87.1801 60.2924 87.1781C59.0269 87.0936 58.0361 86.0478 58.0361 84.7988V79.1285ZM48.7306 80.0246H50.1019C50.772 80.0246 51.3351 79.5226 51.4113 78.8566C51.55 77.6502 52.5848 76.7397 53.818 76.7397C54.5493 76.7397 55.205 77.0624 55.65 77.5698C55.4879 78.0608 55.3993 78.5847 55.3993 79.1285V84.7988C55.3993 85.3399 55.4879 85.8624 55.65 86.3527C55.24 86.8203 54.6516 87.1334 53.9842 87.1781C53.9526 87.1801 53.9217 87.1836 53.8908 87.1877H48.7306V80.0246ZM38.2874 54.6097C38.617 54.6296 38.948 54.642 39.2803 54.642C40.4401 54.642 41.5785 54.5177 42.6854 54.2836C42.0695 55.8567 41.711 57.5699 41.6513 59.3895C40.8699 59.4753 40.0789 59.5192 39.2803 59.5192C38.948 59.5192 38.617 59.5096 38.2874 59.4938V54.6097ZM38.501 74.5932C38.6548 74.5932 38.9864 74.7807 39.064 74.9118L40.7092 77.7353C40.7827 77.863 40.7827 78.2283 40.7092 78.3567L39.064 81.1795C38.9864 81.3107 38.6548 81.4988 38.501 81.4988H35.2106C35.0561 81.4988 34.7244 81.3107 34.6468 81.1795L33.0016 78.356C32.9281 78.2283 32.9281 77.863 33.0016 77.7353L34.6468 74.9118C34.7244 74.7807 35.0561 74.5925 35.2106 74.5925H38.501V74.5932ZM22.7802 44.2256H30.0449C30.6828 44.2256 31.2033 44.7254 31.2218 45.3468H21.6033C21.6218 44.7254 22.1416 44.2256 22.7802 44.2256ZM17.1744 47.9836H35.6507V66.2676H17.1744V47.9836ZM24.9809 87.1877H6.50391V68.9043H24.9809V87.1877ZM46.0939 87.1877H27.6176V68.9043H36.5111C36.4493 69.089 36.4046 69.282 36.3847 69.4832L36.3476 69.8492C36.2673 70.6546 36.5564 71.4127 37.0769 71.9558H35.2106C34.114 71.9558 32.9185 72.6411 32.3685 73.5845L30.724 76.408C30.1706 77.357 30.1706 78.7351 30.724 79.684L32.3685 82.5075C32.9192 83.4509 34.114 84.1362 35.2106 84.1362H38.501C39.5975 84.1362 40.793 83.4509 41.3423 82.5068L42.9875 79.684C43.5403 78.7351 43.5403 77.3576 42.9875 76.408L41.343 73.5845C41.216 73.3682 41.0546 73.1657 40.8692 72.981L43.1001 73.2055C43.3137 73.2268 43.53 73.2378 43.7435 73.2378C44.5744 73.2378 45.3681 73.0785 46.0939 72.7887V87.1877ZM44.4679 63.0095C44.7398 62.649 44.8078 62.1738 44.6485 61.7508L44.5174 61.4055C44.5043 61.3711 44.5057 61.3368 44.5208 61.3032C44.5359 61.2702 44.5613 61.2462 44.5963 61.2331L44.9651 61.0937C44.9815 61.0875 44.9973 61.0841 45.0131 61.0841C45.0221 61.0841 45.1058 61.0869 45.1402 61.1761L46.5437 64.8449C46.5821 64.9472 46.6336 65.0433 46.6961 65.1326C47.1754 65.8137 47.3937 66.6398 47.312 67.4569C47.1314 69.2497 45.5975 70.6017 43.7435 70.6017C43.6179 70.6017 43.4908 70.5949 43.3645 70.5825L38.996 70.143C38.9809 70.1417 38.9699 70.1279 38.9713 70.1135L39.0084 69.7482C39.0105 69.7283 39.029 69.7235 39.0379 69.7235H39.0386L42.1938 70.0407C42.9168 70.1156 43.5643 69.5862 43.6378 68.8618L43.6611 68.6276C43.6968 68.2795 43.5918 67.9314 43.3707 67.6608C43.1496 67.3896 42.8296 67.2179 42.4815 67.1829L38.6301 66.795C38.6177 66.7936 38.6047 66.7778 38.606 66.7654L38.6424 66.4001C38.6445 66.3802 38.6644 66.3775 38.6726 66.3754L42.524 66.7634C42.8722 66.7977 43.2196 66.6933 43.4908 66.4722C43.7614 66.2511 43.933 65.9312 43.968 65.5837L43.9914 65.3489C44.0642 64.6245 43.5361 63.9776 42.8117 63.9049L39.6559 63.5876C39.6429 63.5863 39.6298 63.5705 39.6312 63.5574L39.6683 63.1921C39.6703 63.1722 39.6902 63.1701 39.6978 63.1681L43.2745 63.5279C43.2835 63.5286 43.2999 63.5299 43.3082 63.5313C43.7593 63.5684 44.1967 63.3706 44.4679 63.0095ZM57.8452 52.994C56.7548 52.994 55.8024 52.4083 55.2902 51.5397C55.525 51.5466 55.7598 51.5507 55.9967 51.5507H60.3933C59.8797 52.4138 58.9308 52.994 57.8452 52.994ZM61.2846 48.914H55.9967C45.901 48.914 39.3771 42.4162 39.3771 32.3589V23.1331C40.7044 23.0164 41.9836 22.4266 43.1633 21.3664C43.3817 21.1707 43.5959 20.9599 43.8081 20.7326C43.8829 20.9832 43.9756 21.2236 44.0848 21.4515C44.6451 22.6188 45.6393 23.4401 46.9605 23.8253C49.1062 24.4529 51.274 23.5314 53.428 21.0835C53.967 22.3655 55.067 23.3075 56.6834 23.8177C57.3927 24.0409 58.0958 24.1521 58.7907 24.1514C61.0978 24.1514 63.3068 22.9285 65.272 20.5376C65.9387 19.726 66.4908 18.8835 66.9227 18.1412C67.4795 18.9089 68.2218 19.7624 69.1632 20.5095C69.7338 20.9613 70.5633 20.8658 71.0158 20.2952C71.4683 19.7246 71.3721 18.8958 70.8015 18.4433C68.9496 16.9746 68.0536 14.9009 68.0467 14.8838C67.8414 14.3928 67.3614 14.0735 66.83 14.0735C66.8265 14.0735 66.8224 14.0735 66.819 14.0735C66.2834 14.0783 65.8034 14.4072 65.605 14.9044C65.5734 14.984 62.3791 22.8489 57.4765 21.3025C56.268 20.9214 55.1412 20.1654 55.9397 17.445C56.1265 16.8084 55.8113 16.1321 55.203 15.8664C54.596 15.5999 53.8846 15.8272 53.5433 16.3964C51.4031 19.9684 49.2751 21.7557 47.6993 21.295C47.0923 21.1171 46.6995 20.8047 46.462 20.311C45.9943 19.3367 46.1571 17.686 46.8966 15.8959C47.1692 15.2353 46.8664 14.478 46.2134 14.1875C45.5618 13.8977 44.7955 14.1793 44.4878 14.8247C41.2118 21.6939 38.4694 20.607 37.5678 20.2499C37.4154 20.1895 37.2712 20.1229 37.1339 20.0508C37.3618 10.3134 45.3853 2.46094 55.2153 2.46094H60.9351C70.1018 2.46094 77.8994 9.45444 78.9053 18.4735C78.5387 18.8897 78.0868 19.189 77.5334 19.3847C76.9875 19.5784 76.4485 19.7178 75.9294 19.7995C75.2105 19.9128 74.7195 20.5877 74.8328 21.3073C74.9468 22.0263 75.6211 22.5179 76.3407 22.4039C76.8543 22.3222 77.3782 22.2 77.9056 22.0379V22.8228C77.9056 23.1743 78.0456 23.5115 78.2949 23.7587C78.5421 24.0038 78.8758 24.1411 79.2239 24.1411C79.2507 24.1418 79.2768 24.1404 79.3091 24.1391C81.643 24.1494 83.5395 26.7325 83.5395 29.9069C83.5395 33.0868 81.6354 35.6741 79.2953 35.6741C79.145 35.6741 78.9912 35.6624 78.825 35.637C78.1589 35.5354 77.5252 35.9515 77.3521 36.6017C75.4281 43.8513 68.8212 48.914 61.2846 48.914Z" fill="white"/>
<path d="M65.334 27.3516C64.6055 27.3516 64.0156 27.9414 64.0156 28.6699V30.8322C64.0156 31.5607 64.6055 32.1505 65.334 32.1505C66.0618 32.1505 66.6523 31.5607 66.6523 30.8322V28.6699C66.6523 27.9414 66.0618 27.3516 65.334 27.3516Z" fill="white"/>
<path d="M45.8545 27.3516C45.126 27.3516 44.5361 27.9414 44.5361 28.6699V30.8322C44.5361 31.5607 45.126 32.1505 45.8545 32.1505C46.5823 32.1505 47.1729 31.5607 47.1729 30.8322V28.6699C47.1729 27.9414 46.5823 27.3516 45.8545 27.3516Z" fill="white"/>
<path d="M55.5925 34.0491H56.4473C57.1759 34.0491 57.7657 33.4586 57.7657 32.7307C57.7657 32.0022 57.1759 31.4124 56.4473 31.4124H56.0566V30.1895C56.0566 29.4609 55.4661 28.8711 54.7383 28.8711C54.0098 28.8711 53.4199 29.4609 53.4199 30.1895V31.8518C53.4199 33.0631 54.3943 34.0491 55.5925 34.0491Z" fill="white"/>
<path d="M60.7928 36.1367H50.9895C49.6368 36.1367 48.5361 37.2326 48.5361 38.5798C48.5361 42.6049 51.8355 45.8795 55.8908 45.8795C59.9468 45.8795 63.2462 42.6049 63.2462 38.5798C63.2462 37.2333 62.1455 36.1367 60.7928 36.1367ZM55.8908 43.2435C53.355 43.2435 51.2793 41.2557 51.1763 38.7734H60.606C60.5023 41.2557 58.4273 43.2435 55.8908 43.2435Z" fill="white"/>
<path d="M31.5116 54.1229L29.2011 53.7926L28.1711 51.7361C27.8367 51.068 27.1631 50.6526 26.4126 50.6526C25.6621 50.6526 24.9885 51.068 24.6541 51.7354L23.6241 53.7926L21.3108 54.1236C20.5685 54.2307 19.9615 54.7381 19.726 55.4495C19.4919 56.1574 19.6896 56.9498 20.228 57.4662L21.8889 59.0613L21.4982 61.3093C21.3698 62.0434 21.6802 62.798 22.2824 63.2272C22.6189 63.4702 23.0171 63.5986 23.4332 63.5986C23.7504 63.5986 24.0663 63.5217 24.341 63.3775L26.4126 62.3043L28.4773 63.3741C28.7575 63.521 29.0733 63.5986 29.3913 63.5986C29.808 63.5986 30.2063 63.4702 30.5373 63.2313C31.1449 62.7973 31.4553 62.0427 31.3269 61.3093L30.9362 59.0613L32.5958 57.4669C33.1349 56.9498 33.3326 56.1574 33.0985 55.4495C32.865 54.7388 32.2573 54.2314 31.5116 54.1229ZM28.6037 57.6461C28.2871 57.9496 28.1429 58.3904 28.2185 58.8223L28.4952 60.414L27.0189 59.649C26.8294 59.5502 26.6206 59.5014 26.4126 59.5014C26.2045 59.5014 25.9965 59.5502 25.8063 59.649L24.3307 60.414L24.6074 58.8223C24.6822 58.3904 24.538 57.9496 24.2215 57.6454L23.0659 56.5358L24.6809 56.3051C25.1086 56.2433 25.4787 55.9762 25.6724 55.5903L26.4126 54.1126L27.1528 55.5903C27.3464 55.9768 27.7172 56.244 28.145 56.3051L29.7593 56.5358L28.6037 57.6461Z" fill="white"/>
<path d="M14.4432 83.6657C14.7913 84.0063 15.2527 84.1944 15.7423 84.1944C16.2312 84.1944 16.6926 84.007 17.0414 83.6664L21.7601 79.0508C22.5689 78.2597 23.0146 77.2051 23.0146 76.0803C23.0146 74.9556 22.5689 73.9009 21.7601 73.1099C20.9581 72.3257 19.8944 71.8945 18.7649 71.8945C17.6354 71.8945 16.5711 72.3264 15.7698 73.1099L15.7423 73.1367L15.7155 73.1099C14.9142 72.3264 13.8499 71.8945 12.7204 71.8945C11.5901 71.8945 10.5265 72.3257 9.72521 73.1099C8.91634 73.9009 8.4707 74.9556 8.4707 76.0803C8.4707 77.2051 8.91634 78.2597 9.72521 79.0515L14.4432 83.6657ZM11.5682 74.9947C11.8737 74.6954 12.283 74.5306 12.7197 74.5306C13.1564 74.5306 13.5656 74.6954 13.8719 74.9947L14.8201 75.9231C15.3324 76.4237 16.1515 76.4237 16.6638 75.9231L17.6127 74.9954C17.919 74.6961 18.3275 74.5306 18.7649 74.5306C19.2016 74.5306 19.6102 74.6954 19.9164 74.9947C20.2137 75.2852 20.3772 75.6711 20.3772 76.0803C20.3778 76.4896 20.2137 76.8755 19.9164 77.1659L15.7423 81.248L11.5682 77.1659C11.2708 76.8755 11.1067 76.4896 11.1074 76.0803C11.1074 75.6711 11.2708 75.2852 11.5682 74.9947Z" fill="white"/>
<path d="M79.1832 34.0384C79.3947 34.0384 79.6096 33.9876 79.8087 33.8798C82.6247 32.3582 82.1639 29.1708 81.5274 27.6979C81.2383 27.0298 80.4624 26.7215 79.7936 27.0113C79.1255 27.3004 78.8179 28.0763 79.107 28.7444C79.1434 28.8275 79.9735 30.794 78.5549 31.5603C77.9143 31.9064 77.676 32.7063 78.0221 33.347C78.2604 33.7878 78.7142 34.0384 79.1832 34.0384Z" fill="white"/>
</g>
<defs>
<clipPath id="clip0_1_3294">
<rect width="90" height="90" fill="white"/>
</clipPath>
</defs>
</svg>
