<svg width="90" height="90" viewBox="0 0 90 90" fill="none" xmlns="http://www.w3.org/2000/svg">
<path d="M45.0003 10.6895C27.8082 10.6895 13.8213 24.6764 13.8213 41.8685C13.8213 48.8152 16.0567 55.3887 20.2858 60.8785C24.1059 65.8371 29.4068 69.5772 35.3206 71.5131V78.7938C35.3206 79.7646 36.1075 80.5516 37.0784 80.5516H52.9222C53.8931 80.5516 54.6801 79.7646 54.6801 78.7938V71.5131C60.5939 69.5774 65.8947 65.8373 69.7148 60.8785C73.9439 55.3887 76.1793 48.815 76.1793 41.8685C76.1793 24.6764 62.1924 10.6895 45.0003 10.6895ZM51.1644 77.0362H38.8362V73.6566H51.1644V77.0362ZM52.4499 68.5162C51.7122 68.7221 51.1952 69.3807 51.1657 70.141H38.835C38.8056 69.3807 38.2886 68.7221 37.5507 68.5162C25.6491 65.1964 17.3369 54.2384 17.3369 41.8685C17.3369 26.6149 29.7467 14.2051 45.0003 14.2051C60.2539 14.2051 72.6637 26.6149 72.6637 41.8685C72.6637 54.2386 64.3515 65.1966 52.4499 68.5162Z" fill="white"/>
<path d="M46.7227 17.7276C46.7016 17.6151 46.6664 17.5044 46.6225 17.3989C46.5785 17.2917 46.524 17.1897 46.4607 17.0948C46.3975 16.9981 46.3236 16.9085 46.2428 16.8276C46.1619 16.7468 46.0723 16.6729 45.9756 16.6097C45.8807 16.5464 45.7787 16.4919 45.6715 16.4479C45.566 16.404 45.4553 16.3706 45.3428 16.3478C45.116 16.3021 44.8822 16.3021 44.6572 16.3478C44.5447 16.3706 44.434 16.404 44.3268 16.4479C44.2213 16.4919 44.1193 16.5464 44.0244 16.6097C43.9277 16.6729 43.8381 16.7468 43.7572 16.8276C43.6764 16.9085 43.6025 16.9981 43.5393 17.0948C43.476 17.1897 43.4215 17.2917 43.3775 17.3989C43.3336 17.5044 43.3002 17.6151 43.2773 17.7276C43.2545 17.8401 43.2422 17.9562 43.2422 18.0704C43.2422 18.1847 43.2545 18.3007 43.2773 18.4132C43.3002 18.5257 43.3336 18.6364 43.3775 18.7437C43.4215 18.8491 43.476 18.9511 43.5393 19.046C43.6025 19.1427 43.6764 19.2323 43.7572 19.3132C43.8381 19.3942 43.9277 19.4679 44.0244 19.5329C44.1193 19.5962 44.2213 19.6507 44.3268 19.6946C44.434 19.7386 44.5447 19.772 44.6572 19.7948C44.7697 19.8177 44.8857 19.8282 45 19.8282C45.1143 19.8282 45.2303 19.8177 45.3428 19.7948C45.4553 19.772 45.566 19.7386 45.6715 19.6946C45.7787 19.6507 45.8807 19.5962 45.9756 19.5329C46.0723 19.4679 46.1619 19.3942 46.2428 19.3132C46.3236 19.2323 46.3975 19.1427 46.4607 19.046C46.524 18.9511 46.5785 18.8491 46.6225 18.7437C46.6664 18.6364 46.7016 18.5257 46.7227 18.4132C46.7455 18.3007 46.7578 18.1847 46.7578 18.0704C46.7578 17.9562 46.7455 17.8401 46.7227 17.7276Z" fill="white"/>
<path d="M68.7981 40.1106C67.8273 40.1106 67.0403 40.8975 67.0403 41.8684C67.0403 54.0214 57.1531 63.9085 45.0001 63.9085C32.8471 63.9085 22.96 54.0214 22.96 41.8684C22.96 32.1382 29.4857 23.4365 38.8293 20.7071C39.7611 20.4348 40.296 19.4587 40.0238 18.5269C39.7516 17.5951 38.7757 17.0602 37.8437 17.3325C32.646 18.8507 27.965 22.0738 24.6626 26.4082C21.2487 30.8889 19.4443 36.2349 19.4443 41.8684C19.4443 55.9599 30.9086 67.4241 45.0001 67.4241C59.0916 67.4241 70.5559 55.9599 70.5559 41.8684C70.5559 40.8975 69.7689 40.1106 68.7981 40.1106Z" fill="white"/>
<path d="M62.539 37.5963L59.3522 36.8516C59.1677 36.3253 58.9539 35.8095 58.7124 35.3071L60.4391 32.5268C60.8701 31.8332 60.7664 30.9341 60.189 30.3564L56.5679 26.7353C55.9903 26.1579 55.0911 26.0544 54.3975 26.485L51.6173 28.2119C51.115 27.9702 50.599 27.7566 50.0728 27.5721L49.328 24.3853C49.142 23.5901 48.4329 23.0276 47.6162 23.0276H42.4952C41.6785 23.0276 40.9694 23.5901 40.7834 24.3853L40.0386 27.5721C39.5123 27.7566 38.9966 27.9702 38.4942 28.2119L35.7141 26.485C35.0204 26.0544 34.1213 26.1581 33.5437 26.7353L29.9226 30.3564C29.3452 30.9341 29.2414 31.8332 29.6723 32.5268L31.3992 35.3071C31.1575 35.8095 30.9439 36.3253 30.7593 36.8516L27.5726 37.5963C26.7773 37.7821 26.2148 38.4912 26.2148 39.3079V44.429C26.2148 45.2456 26.7773 45.9547 27.5726 46.1405L30.7593 46.8853C30.9439 47.4116 31.1576 47.9273 31.3992 48.4299L29.6723 51.2102C29.2414 51.9039 29.3452 52.8032 29.9226 53.3806L33.5437 57.0017C34.1213 57.5791 35.0204 57.6829 35.7142 57.2518L38.4944 55.525C38.9968 55.7667 39.5125 55.9802 40.0388 56.165L40.7836 59.3517C40.9694 60.147 41.6785 60.7095 42.4952 60.7095H47.6162C48.4329 60.7095 49.142 60.147 49.328 59.3517L50.0728 56.165C50.599 55.9804 51.1148 55.7667 51.6172 55.525L54.3973 57.2518C55.0913 57.6829 55.9904 57.5791 56.5679 57.0017L60.189 53.3806C60.7664 52.803 60.8701 51.9039 60.4391 51.2102L58.7124 48.4299C58.9539 47.9275 59.1677 47.4116 59.3522 46.8853L62.539 46.1405C63.3342 45.9547 63.8967 45.2456 63.8967 44.429V39.3079C63.8967 38.4912 63.3342 37.7821 62.539 37.5963ZM60.3811 43.0348L57.5742 43.6908C56.9458 43.8378 56.4483 44.3172 56.2785 44.9398C56.0217 45.8802 55.6466 46.786 55.163 47.632C54.8428 48.1924 54.8554 48.8834 55.1961 49.4319L56.7171 51.881L55.0679 53.5302L52.6188 52.009C52.0703 51.6683 51.3795 51.6557 50.8189 51.9761C49.9731 52.4595 49.0675 52.835 48.1269 53.0916C47.5042 53.2614 47.0249 53.7589 46.8781 54.3873L46.2219 57.1942H43.8895L43.2335 54.3873C43.0865 53.7589 42.6071 53.2614 41.9845 53.0916C41.0439 52.835 40.1383 52.4595 39.2924 51.9761C38.7319 51.6557 38.0409 51.6683 37.4926 52.009L35.0435 53.5302L33.3943 51.881L34.9153 49.4319C35.256 48.8834 35.2686 48.1926 34.9484 47.632C34.4648 46.786 34.0895 45.8804 33.8329 44.9398C33.663 44.3172 33.1656 43.8378 32.5372 43.6908L29.7303 43.0348V40.7024L32.5372 40.0464C33.1656 39.8994 33.663 39.4201 33.8329 38.7976C34.0895 37.857 34.465 36.9512 34.9484 36.1054C35.2688 35.545 35.2562 34.854 34.9155 34.3057L33.3945 31.8566L35.0436 30.2074L37.4928 31.7284C38.0412 32.0692 38.732 32.0817 39.2926 31.7613C40.1381 31.2779 41.0439 30.9026 41.9847 30.6458C42.6073 30.476 43.0867 29.9785 43.2336 29.3501L43.8895 26.543H46.2219L46.8779 29.3501C47.0249 29.9785 47.5042 30.476 48.1267 30.6458C49.0675 30.9026 49.9731 31.2779 50.8188 31.7613C51.3792 32.0816 52.07 32.0691 52.6186 31.7284L55.0678 30.2074L56.7169 31.8566L55.1959 34.3057C54.8552 34.8541 54.8426 35.545 55.163 36.1054C55.6464 36.9512 56.0217 37.8568 56.2785 38.7976C56.4483 39.4202 56.9458 39.8994 57.5742 40.0464L60.3811 40.7024V43.0348Z" fill="white"/>
<path d="M45.0558 33.6008C40.4971 33.6008 36.7881 37.3098 36.7881 41.8685C36.7881 46.4272 40.4971 50.1362 45.0558 50.1362C49.6147 50.1362 53.3237 46.4272 53.3237 41.8685C53.3237 37.3096 49.6147 33.6008 45.0558 33.6008ZM45.0558 46.6206C42.4354 46.6206 40.3037 44.4889 40.3037 41.8685C40.3037 39.2482 42.4356 37.1165 45.0558 37.1165C47.6761 37.1165 49.808 39.2482 49.808 41.8685C49.808 44.4889 47.6761 46.6206 45.0558 46.6206Z" fill="white"/>
<path d="M85.2528 40.2529H80.498C79.5272 40.2529 78.7402 41.0399 78.7402 42.0107C78.7402 42.9816 79.5272 43.7686 80.498 43.7686H85.2528C86.2236 43.7686 87.0106 42.9816 87.0106 42.0107C87.0106 41.0399 86.2236 40.2529 85.2528 40.2529Z" fill="white"/>
<path d="M9.50178 40.2529H4.74707C3.77623 40.2529 2.98926 41.0399 2.98926 42.0107C2.98926 42.9816 3.77623 43.7686 4.74707 43.7686H9.50178C10.4726 43.7686 11.2596 42.9816 11.2596 42.0107C11.2596 41.0399 10.4726 40.2529 9.50178 40.2529Z" fill="white"/>
<path d="M45 0C44.0292 0 43.2422 0.786973 43.2422 1.75781V6.51252C43.2422 7.48336 44.0292 8.27033 45 8.27033C45.9708 8.27033 46.7578 7.48336 46.7578 6.51252V1.75781C46.7578 0.786973 45.9708 0 45 0Z" fill="white"/>
<path d="M45 81.7297C44.0292 81.7297 43.2422 82.5167 43.2422 83.4875V88.2423C43.2422 89.2131 44.0292 90.0001 45 90.0001C45.9708 90.0001 46.7578 89.2131 46.7578 88.2423V83.4875C46.7578 82.5167 45.9708 81.7297 45 81.7297Z" fill="white"/>
<path d="M74.7057 69.2309L72.5868 67.1119C71.9004 66.4256 70.7874 66.4256 70.1008 67.1119C69.4143 67.7983 69.4143 68.9113 70.1008 69.5979L72.2198 71.717C72.5631 72.0603 73.0129 72.2318 73.4627 72.2318C73.9126 72.2318 74.3626 72.0603 74.7057 71.717C75.3921 71.0305 75.3921 69.9175 74.7057 69.2309Z" fill="white"/>
<path d="M19.8992 14.4235L17.7802 12.3045C17.0938 11.6182 15.9807 11.6182 15.2941 12.3045C14.6077 12.9909 14.6077 14.104 15.2941 14.7906L17.4133 16.9096C17.7566 17.2529 18.2065 17.4245 18.6563 17.4245C19.1061 17.4245 19.5561 17.2529 19.8992 16.9096C20.5857 16.2232 20.5857 15.1101 19.8992 14.4235Z" fill="white"/>
<path d="M19.8991 67.112C19.2126 66.4256 18.0996 66.4256 17.4132 67.112L15.2941 69.231C14.6077 69.9175 14.6077 71.0305 15.2941 71.7171C15.6374 72.0604 16.0872 72.232 16.5371 72.232C16.9869 72.232 17.4369 72.0604 17.78 71.7171L19.8991 69.5981C20.5855 68.9116 20.5855 67.7986 19.8991 67.112Z" fill="white"/>
<path d="M74.7059 12.3045C74.0195 11.6182 72.9064 11.6182 72.2198 12.3045L70.1008 14.4235C69.4143 15.11 69.4143 16.223 70.1008 16.9096C70.4441 17.2529 70.8941 17.4245 71.3439 17.4245C71.7937 17.4245 72.2437 17.2529 72.5868 16.9096L74.7059 14.7906C75.3923 14.1041 75.3923 12.9911 74.7059 12.3045Z" fill="white"/>
</svg>
