<?xml version="1.0" encoding="UTF-8"?>
<svg id="Layer_1" xmlns="http://www.w3.org/2000/svg" xmlns:xlink="http://www.w3.org/1999/xlink" version="1.1" viewBox="0 0 171 39">
  <!-- Generator: Adobe Illustrator 30.1.0, SVG Export Plug-In . SVG Version: 2.1.1 Build 136)  -->
  <defs>
    <style>
      .st0 {
        fill: none;
      }

      .st1, .st2 {
        fill: #39c;
      }

      .st2 {
        font-family: Alfarn2, 'Alfarn 2';
        font-size: 32px;
        letter-spacing: 0em;
      }

      .st3 {
        fill: #ece04c;
      }

      .st4 {
        fill: #c64754;
      }

      .st5 {
        clip-path: url(#clippath-1);
      }

      .st6 {
        fill: #603745;
      }

      .st7 {
        fill: #f9ead6;
      }

      .st8 {
        fill: #e7ad4b;
      }

      .st9 {
        fill: #939;
        font-family: Montserrat-Medium, Montserrat;
        font-size: 6.2px;
        font-weight: 500;
        letter-spacing: 0em;
      }

      .st10 {
        fill: #fc3;
      }

      .st11 {
        clip-path: url(#clippath);
      }
    </style>
    <clipPath id="clippath">
      <rect class="st0" x="42" y="6" width="129" height="27"/>
    </clipPath>
    <clipPath id="clippath-1">
      <path class="st0" d="M31.8,19.8c0-6.9,2-17-12.5-17S6.8,12.9,6.8,19.8s3.5,10,8.3,11.8c.1,1.6,1.4,2.9,3.1,2.9h2.2c1.6,0,3-1.3,3.1-2.9,4.8-1.7,8.3-6.3,8.3-11.8Z"/>
    </clipPath>
  </defs>
  <g class="st11">
    <text class="st2" transform="translate(42 28.3)"><tspan x="0" y="0">ADM</tspan></text>
  </g>
  <path class="st3" d="M31.8,19.8c0-6.9-5.6-12.5-12.5-12.5s-12.5,5.6-12.5,12.5,3.5,10,8.3,11.8c.1,1.6,1.4,2.9,3.1,2.9h2.2c1.6,0,3-1.3,3.1-2.9,4.8-1.7,8.3-6.3,8.3-11.8Z"/>
  <path class="st10" d="M23.5,36.8c0,.8-.7,1.5-1.5,1.5h-5.3c-.8,0-1.5-.7-1.5-1.5h0c0-.8.7-1.5,1.5-1.5h5.3c.8,0,1.5.7,1.5,1.5h0Z"/>
  <g class="st5">
    <polygon class="st8" points="17.4 12.5 17.4 33.1 10.8 33.1 10.8 12.5 9.8 12.5 9.8 34.5 18.4 34.5 18.4 12.5 17.4 12.5"/>
    <path class="st7" d="M10.8,13.3v19.7h6.5V13.3s-.7.3-3.3.3-3.2-.3-3.2-.3Z"/>
    <polygon class="st4" points="17.4 30.1 17.4 33.1 10.8 33.1 10.8 30.1 9.8 30.1 9.8 34.5 18.4 34.5 18.4 30.1 17.4 30.1"/>
    <rect class="st1" x="19.6" y="6.6" width="9.3" height="28.1"/>
    <rect class="st7" x="19.6" y="13.4" width="9.3" height="14"/>
    <rect class="st8" x="21.3" y="9" width="5.8" height="14.9"/>
  </g>
  <path class="st6" d="M34.6,22.8c-.6,0-1-.5-1-1h0c0-.6.5-1,1-1h1.7c.6,0,1,.5,1,1h0c0,.6-.5,1-1,1h-1.7Z"/>
  <path class="st10" d="M19.9,4c0,.6-.5,1-1,1h0c-.6,0-1-.5-1-1v-1.7c0-.6.5-1,1-1h0c.6,0,1,.5,1,1v1.7Z"/>
  <path class="st10" d="M34.6,22.8c-.6,0-1-.5-1-1h0c0-.6.5-1,1-1h1.7c.6,0,1,.5,1,1h0c0,.6-.5,1-1,1h-1.7Z"/>
  <path class="st10" d="M32.1,10c-.4.4-1,.4-1.4,0h0c-.4-.4-.4-1,0-1.4l1.2-1.2c.4-.4,1-.4,1.4,0h0c.4.4.4,1,0,1.4l-1.2,1.2Z"/>
  <path class="st10" d="M3.8,22.8c.6,0,1-.5,1-1h0c0-.6-.5-1-1-1h-1.7c-.6,0-1,.5-1,1h0c0,.6.5,1,1,1h1.7Z"/>
  <path class="st10" d="M6.3,10c.4.4,1,.4,1.4,0h0c.4-.4.4-1,0-1.4l-1.2-1.2c-.4-.4-1-.4-1.4,0h0c-.4.4-.4,1,0,1.4l1.2,1.2Z"/>
  <text class="st9" transform="translate(42.5 35.3)"><tspan x="0" y="0">ALTERNATIVE DELIVERY MODE</tspan></text>
</svg>