<?xml version="1.0" encoding="UTF-8"?>
<svg id="Layer_1" xmlns="http://www.w3.org/2000/svg" xmlns:xlink="http://www.w3.org/1999/xlink" version="1.1" viewBox="0 0 171 39">
  <!-- Generator: Adobe Illustrator 30.1.0, SVG Export Plug-In . SVG Version: 2.1.1 Build 136)  -->
  <defs>
    <style>
      .st0 {
        fill: none;
      }

      .st1 {
        fill: #39c;
      }

      .st2 {
        fill: #ece04c;
      }

      .st3 {
        fill: #c64754;
      }

      .st4 {
        fill: #603745;
      }

      .st5 {
        fill: #f9ead6;
      }

      .st6 {
        fill: #939;
      }

      .st7 {
        fill: #e7ad4b;
      }

      .st8 {
        fill: #fc3;
      }

      .st9 {
        clip-path: url(#clippath);
      }
    </style>
    <clipPath id="clippath">
      <path class="st0" d="M31.8,19.8c0-6.9,2-17-12.5-17S6.8,12.9,6.8,19.8s3.5,10,8.3,11.8c.1,1.6,1.4,2.9,3.1,2.9h2.2c1.6,0,3-1.3,3.1-2.9,4.8-1.7,8.3-6.3,8.3-11.8Z"/>
    </clipPath>
  </defs>
  <rect class="st0" x="42" y="6" width="129" height="27"/>
  <path class="st1" d="M48.1,5.9h12.2l5.6,22.4h-7.3l-.9-3.5h-7.1l-.9,3.5h-7.3l5.6-22.4ZM52,19.3h4.5l-1.9-7.6h-.7l-1.9,7.6Z"/>
  <path class="st1" d="M71.3,5.9h11c6.5,0,11.3,3.9,11.3,11.2s-4.9,11.2-11.3,11.2h-11V5.9ZM81.5,22.5c3.5,0,5.1-2.1,5.1-5.4s-1.5-5.4-5.3-5.4h-2.6v10.9h2.9Z"/>
  <path class="st1" d="M99.2,5.9h7l5.6,7.1h.3l5.6-7.1h7v22.4h-7v-12.9h-.3l-5.2,6.8h-.3l-5.2-6.8h-.3v12.9h-7V5.9Z"/>
  <path class="st2" d="M31.8,19.8c0-6.9-5.6-12.5-12.5-12.5s-12.5,5.6-12.5,12.5,3.5,10,8.3,11.8c.1,1.6,1.4,2.9,3.1,2.9h2.2c1.6,0,3-1.3,3.1-2.9,4.8-1.7,8.3-6.3,8.3-11.8Z"/>
  <path class="st8" d="M23.5,36.8c0,.8-.7,1.5-1.5,1.5h-5.3c-.8,0-1.5-.7-1.5-1.5h0c0-.8.7-1.5,1.5-1.5h5.3c.8,0,1.5.7,1.5,1.5h0Z"/>
  <g class="st9">
    <polygon class="st7" points="17.4 12.5 17.4 33.1 10.8 33.1 10.8 12.5 9.8 12.5 9.8 34.5 18.4 34.5 18.4 12.5 17.4 12.5"/>
    <path class="st5" d="M10.8,13.3v19.7h6.5V13.3s-.7.3-3.3.3-3.2-.3-3.2-.3Z"/>
    <polygon class="st3" points="17.4 30.1 17.4 33.1 10.8 33.1 10.8 30.1 9.8 30.1 9.8 34.5 18.4 34.5 18.4 30.1 17.4 30.1"/>
    <rect class="st1" x="19.6" y="6.6" width="9.3" height="28.1"/>
    <rect class="st5" x="19.6" y="13.4" width="9.3" height="14"/>
    <rect class="st7" x="21.3" y="9" width="5.8" height="14.9"/>
  </g>
  <path class="st4" d="M34.6,22.8c-.6,0-1-.5-1-1h0c0-.6.5-1,1-1h1.7c.6,0,1,.5,1,1h0c0,.6-.5,1-1,1h-1.7Z"/>
  <path class="st8" d="M19.9,4c0,.6-.5,1-1,1h0c-.6,0-1-.5-1-1v-1.7c0-.6.5-1,1-1h0c.6,0,1,.5,1,1v1.7Z"/>
  <path class="st8" d="M34.6,22.8c-.6,0-1-.5-1-1h0c0-.6.5-1,1-1h1.7c.6,0,1,.5,1,1h0c0,.6-.5,1-1,1h-1.7Z"/>
  <path class="st8" d="M32.1,10c-.4.4-1,.4-1.4,0h0c-.4-.4-.4-1,0-1.4l1.2-1.2c.4-.4,1-.4,1.4,0h0c.4.4.4,1,0,1.4l-1.2,1.2Z"/>
  <path class="st8" d="M3.8,22.8c.6,0,1-.5,1-1h0c0-.6-.5-1-1-1h-1.7c-.6,0-1,.5-1,1h0c0,.6.5,1,1,1h1.7Z"/>
  <path class="st8" d="M6.3,10c.4.4,1,.4,1.4,0h0c.4-.4.4-1,0-1.4l-1.2-1.2c-.4-.4-1-.4-1.4,0h0c-.4.4-.4,1,0,1.4l1.2,1.2Z"/>
  <path class="st6" d="M45.9,34.2h-2.3l-.5,1.1h-.6l2-4.3h.6l2,4.3h-.6l-.5-1.1ZM45.7,33.7l-.9-2.1-.9,2.1h1.9Z"/>
  <path class="st6" d="M48.2,31h.6v3.8h2.3v.5h-3v-4.3Z"/>
  <path class="st6" d="M52.9,31.5h-1.5v-.5h3.6v.5h-1.5v3.8h-.6v-3.8Z"/>
  <path class="st6" d="M59.3,34.8v.5h-3.1v-4.3h3v.5h-2.4v1.3h2.2v.5h-2.2v1.4h2.5Z"/>
  <path class="st6" d="M63.8,35.3l-.9-1.3c0,0-.2,0-.3,0h-1.1v1.3h-.6v-4.3h1.7c1.1,0,1.8.6,1.8,1.5s-.3,1.1-.9,1.4l1,1.4h-.7ZM63.8,32.5c0-.6-.4-1-1.2-1h-1v1.9h1c.8,0,1.2-.4,1.2-1Z"/>
  <path class="st6" d="M69.6,31v4.3h-.5l-2.6-3.2v3.2h-.6v-4.3h.5l2.6,3.2v-3.2h.6Z"/>
  <path class="st6" d="M74.2,34.2h-2.3l-.5,1.1h-.6l2-4.3h.6l2,4.3h-.6l-.5-1.1ZM74,33.7l-.9-2.1-.9,2.1h1.9Z"/>
  <path class="st6" d="M77.2,31.5h-1.5v-.5h3.6v.5h-1.5v3.8h-.6v-3.8Z"/>
  <path class="st6" d="M80.5,31h.6v4.3h-.6v-4.3Z"/>
  <path class="st6" d="M86.7,31l-1.9,4.3h-.6l-1.9-4.3h.7l1.6,3.5,1.6-3.5h.6Z"/>
  <path class="st6" d="M90.9,34.8v.5h-3.1v-4.3h3v.5h-2.4v1.3h2.2v.5h-2.2v1.4h2.5Z"/>
  <path class="st6" d="M94.7,31h1.8c1.4,0,2.3.9,2.3,2.2s-.9,2.2-2.3,2.2h-1.8v-4.3ZM96.5,34.8c1.1,0,1.8-.7,1.8-1.6s-.7-1.6-1.8-1.6h-1.2v3.2h1.2Z"/>
  <path class="st6" d="M103.5,34.8v.5h-3.1v-4.3h3v.5h-2.4v1.3h2.2v.5h-2.2v1.4h2.5Z"/>
  <path class="st6" d="M105.1,31h.6v3.8h2.3v.5h-3v-4.3Z"/>
  <path class="st6" d="M109.3,31h.6v4.3h-.6v-4.3Z"/>
  <path class="st6" d="M115.5,31l-1.9,4.3h-.6l-1.9-4.3h.7l1.6,3.5,1.6-3.5h.6Z"/>
  <path class="st6" d="M119.7,34.8v.5h-3.1v-4.3h3v.5h-2.4v1.3h2.2v.5h-2.2v1.4h2.5Z"/>
  <path class="st6" d="M124.1,35.3l-.9-1.3c0,0-.2,0-.3,0h-1.1v1.3h-.6v-4.3h1.7c1.1,0,1.8.6,1.8,1.5s-.3,1.1-.9,1.4l1,1.4h-.7ZM124.1,32.5c0-.6-.4-1-1.2-1h-1v1.9h1c.8,0,1.2-.4,1.2-1Z"/>
  <path class="st6" d="M127.9,33.8v1.5h-.6v-1.5l-1.7-2.8h.7l1.4,2.3,1.4-2.3h.6l-1.7,2.8Z"/>
  <path class="st6" d="M137,35.3v-3.1s-1.6,2.6-1.6,2.6h-.3l-1.6-2.6v3.1h-.6v-4.3h.5l1.8,3,1.8-3h.5v4.3s-.6,0-.6,0Z"/>
  <path class="st6" d="M139.1,33.2c0-1.3,1-2.2,2.3-2.2s2.3.9,2.3,2.2-1,2.2-2.3,2.2-2.3-.9-2.3-2.2ZM143.1,33.2c0-1-.7-1.7-1.7-1.7s-1.7.7-1.7,1.7.7,1.7,1.7,1.7,1.7-.7,1.7-1.7Z"/>
  <path class="st6" d="M145.2,31h1.8c1.4,0,2.3.9,2.3,2.2s-.9,2.2-2.3,2.2h-1.8v-4.3ZM147,34.8c1.1,0,1.8-.7,1.8-1.6s-.7-1.6-1.8-1.6h-1.2v3.2h1.2Z"/>
  <path class="st6" d="M154,34.8v.5h-3.1v-4.3h3v.5h-2.4v1.3h2.2v.5h-2.2v1.4h2.5Z"/>
</svg>