<svg width="237" height="46" viewBox="0 0 237 46" fill="none" xmlns="http://www.w3.org/2000/svg">
<path d="M101.173 8.55029V12.8567C99.3996 11.8434 97.4997 11.2101 95.4731 11.2101C94.3332 11.2101 93.4466 11.4635 92.8133 11.9701C92.18 12.4767 91.9267 13.11 91.9267 13.87C91.9267 14.63 92.3066 15.2633 92.9399 15.7699C93.5732 16.2765 94.5865 16.7832 95.9798 17.4165C96.8664 17.7964 97.753 18.1764 98.2596 18.5564C98.8929 18.9364 99.5262 19.3164 100.16 19.9497C100.919 20.4563 101.426 21.2163 101.679 21.9762C102.059 22.7362 102.186 23.6228 102.186 24.6361C102.186 26.7893 101.426 28.4359 99.9062 29.7025C98.5129 31.0957 96.4864 31.729 93.9532 31.729C91.2933 31.729 89.0135 31.2224 87.2402 30.2091V25.6494C89.2668 27.1693 91.5467 27.8026 93.9532 27.8026C95.0931 27.8026 95.8531 27.5492 96.6131 27.0426C97.373 26.536 97.6263 25.776 97.6263 24.8894C97.6263 24.5094 97.4997 24.1294 97.373 23.7495C97.2464 23.3695 96.8664 23.1162 96.3597 22.7362C95.8531 22.3562 95.4731 22.2295 95.2198 21.9762C94.9665 21.8496 94.3332 21.5962 93.5732 21.2163C93.3199 21.0896 93.1932 20.9629 93.0666 20.9629C92.18 20.583 91.42 20.203 90.9134 19.823C90.4067 19.443 89.7734 19.063 89.1401 18.5564C88.5068 18.0498 88.0002 17.4165 87.7469 16.6565C87.3669 15.8966 87.2402 15.0099 87.2402 14.1233C87.2402 12.0968 88.0002 10.4502 89.5201 9.18359C91.04 7.91699 93.0666 7.28369 95.4731 7.28369C97.6263 7.41035 99.5262 7.79033 101.173 8.55029Z" fill="#110C2D"/>
<path d="M111.306 16.656V25.7755C111.306 26.5355 111.56 27.0421 111.94 27.5488C112.32 27.9287 112.953 28.1821 113.586 28.1821C114.473 28.1821 115.36 27.9287 116.119 27.4221V31.0952C115.233 31.4752 114.22 31.7285 112.953 31.7285C109.027 31.7285 107.127 29.8286 107.127 25.9022V16.656H104.467V13.4895H107.127V9.18311H111.433V13.4895H115.866V16.656H111.306Z" fill="#110C2D"/>
<path d="M130.686 13.4893H134.992V31.4749H130.686V28.5618C129.799 30.5883 127.899 31.7283 125.112 31.7283C123.339 31.7283 121.819 31.2216 120.806 30.2083C119.793 29.1951 119.286 27.6751 119.286 25.7753V13.4893H123.593V24.6353C123.593 25.7752 123.846 26.6619 124.479 27.1685C124.986 27.8018 125.746 28.0551 126.759 28.0551C128.026 28.0551 128.912 27.6751 129.672 26.7885C130.306 25.9019 130.686 24.762 130.686 22.9887V13.4893Z" fill="#110C2D"/>
<path d="M151.711 6.39648H156.017V31.4751H151.711V28.6886C150.444 30.7152 148.671 31.7284 146.265 31.7284C143.858 31.7284 142.085 30.8418 140.692 29.0686C139.298 27.2953 138.665 25.1421 138.665 22.4823C138.665 19.6958 139.425 17.4159 140.818 15.7693C142.212 14.1227 144.111 13.2361 146.391 13.2361C148.671 13.2361 150.571 14.2494 151.838 16.2759V6.39648H151.711ZM147.278 28.0553C148.544 28.0553 149.558 27.5487 150.444 26.5354C151.331 25.5221 151.711 24.1288 151.711 22.2289C151.711 20.4557 151.204 19.0625 150.318 18.1758C149.431 17.2892 148.418 16.7826 147.278 16.7826C146.011 16.7826 144.998 17.2892 144.111 18.3025C143.225 19.3158 142.845 20.709 142.845 22.4823C142.845 24.1288 143.225 25.3954 144.111 26.4087C144.998 27.5487 146.011 28.0553 147.278 28.0553Z" fill="#110C2D"/>
<path d="M165.642 31.095L158.549 13.4893H163.235L165.388 19.1889C166.022 20.8355 166.528 22.3554 166.908 23.4954C167.288 24.6353 167.542 25.3953 167.668 25.6486L167.795 26.1552C168.048 25.2686 168.808 22.9887 170.075 19.1889L171.975 13.4893H176.408L169.948 30.9683C168.175 35.7814 165.388 38.1879 161.715 38.1879C161.082 38.1879 160.449 38.1879 159.942 38.0612V34.5148C160.322 34.6414 160.702 34.6414 161.209 34.6414C163.235 34.6414 164.755 33.5015 165.642 31.095Z" fill="#110C2D"/>
<path d="M183.248 6.39648V16.5293C184.262 14.376 186.035 13.2361 188.695 13.2361C190.468 13.2361 191.861 13.7427 192.874 14.8827C193.888 16.0226 194.521 17.5425 194.521 19.6958V31.4751H190.215V20.4557C190.215 19.3158 189.961 18.4292 189.328 17.7959C188.695 17.1626 188.061 16.7826 187.048 16.7826C186.035 16.7826 185.148 17.1626 184.262 17.9225C183.502 18.6825 182.995 19.9491 182.995 21.7223V31.3484H178.688V6.39648H183.248Z" fill="#110C2D"/>
<path d="M210.101 13.4893H214.407V31.4749H210.101V28.5618C209.214 30.5883 207.314 31.7283 204.528 31.7283C202.754 31.7283 201.234 31.2216 200.221 30.2083C199.208 29.1951 198.701 27.6751 198.701 25.7753V13.4893H203.008V24.6353C203.008 25.7752 203.261 26.6619 203.894 27.1685C204.401 27.8018 205.161 28.0551 206.174 28.0551C207.441 28.0551 208.327 27.6751 209.087 26.7885C209.721 25.9019 210.101 24.762 210.101 22.9887V13.4893Z" fill="#110C2D"/>
<path d="M223.4 6.39648V16.2759C224.666 14.2494 226.439 13.2361 228.846 13.2361C231.126 13.2361 232.899 14.1227 234.419 15.7693C235.812 17.4159 236.572 19.6958 236.572 22.4823C236.572 25.0155 235.939 27.1687 234.546 29.0686C233.152 30.8418 231.252 31.7284 228.973 31.7284C226.566 31.7284 224.793 30.7152 223.526 28.6886V31.4751H219.22V6.39648H223.4ZM227.833 28.0553C229.099 28.0553 230.112 27.5487 230.872 26.5354C231.759 25.5221 232.139 24.2555 232.139 22.6089C232.139 20.8357 231.759 19.4424 230.872 18.4292C229.986 17.4159 228.973 16.9092 227.833 16.9092C226.693 16.9092 225.679 17.4159 224.793 18.3025C223.906 19.1891 223.4 20.5824 223.4 22.3556C223.4 24.2555 223.779 25.6488 224.666 26.662C225.426 27.5487 226.566 28.0553 227.833 28.0553Z" fill="#110C2D"/>
<path d="M46.3499 32.1423H0.699219V31.2107H46.3499C47.8638 31.2107 47.8638 30.6284 47.8638 30.2791V29.6968H48.9119V30.2791C48.9119 31.0942 48.4461 32.1423 46.3499 32.1423Z" fill="#553CDF"/>
<path d="M38.3129 24.6895H4.65723V25.7376H38.3129V24.6895Z" fill="#553CDF"/>
<path d="M52.2888 45.1843C52.1724 45.1843 52.0559 45.1843 52.0559 45.1843C51.823 45.0678 51.5901 44.8349 51.5901 44.4855V39.3615C51.5901 37.3817 50.7749 35.402 49.261 34.0045C47.7471 32.607 45.8838 31.9083 43.7876 32.0248L4.54199 32.1412V31.0931L43.7876 30.9767C46.1167 30.8602 48.3294 31.6754 49.9597 33.3058C51.5901 34.9362 52.5218 37.0324 52.5218 39.3615V43.7868L67.661 28.6475C69.2914 27.0172 70.223 24.921 70.223 22.5918C70.223 19.0982 68.1268 16.0703 64.9825 14.6729L65.3319 13.7412C68.942 15.2551 71.1547 18.7488 71.1547 22.5918C71.1547 25.1539 70.1066 27.5994 68.3597 29.3463L52.7547 44.9513C52.6382 45.1843 52.5218 45.1843 52.2888 45.1843Z" fill="#553CDF"/>
<path d="M50.0752 46H1.28027V44.9519H50.0752C51.5892 44.9519 51.5892 44.3696 51.5892 44.0203V43.438H52.6373V44.0203C52.6373 44.9519 52.1714 46 50.0752 46Z" fill="#553CDF"/>
<path d="M42.507 38.4307H5.70703V39.4788H42.507V38.4307Z" fill="#553CDF"/>
<path d="M0.116456 17.3519L17.9342 1.86329C19.0987 0.698734 20.8456 0 22.476 0H57.5291C62.5367 0 66.6127 4.07595 66.6127 9.08355C66.6127 11.5291 65.681 13.8582 63.9342 15.4886L48.3291 31.0937C48.2127 31.2101 47.9798 31.0937 47.9798 30.9772V25.8532C47.9798 21.3114 44.2532 17.8177 39.7114 17.9342L0.465823 18.1671C0 18.1671 -0.116456 17.5848 0.116456 17.3519Z" fill="#553CDF"/>
</svg>
