<svg width="144" height="28" viewBox="0 0 144 28" fill="none" xmlns="http://www.w3.org/2000/svg">
<path d="M61.5832 5.20457V7.82587C60.5039 7.20909 59.3474 6.82361 58.1139 6.82361C57.42 6.82361 56.8803 6.9778 56.4948 7.28619C56.1093 7.59458 55.9551 7.98007 55.9551 8.44265C55.9551 8.90523 56.1864 9.29072 56.5719 9.59911C56.9574 9.9075 57.5742 10.2159 58.4222 10.6014C58.9619 10.8327 59.5016 11.064 59.81 11.2952C60.1955 11.5265 60.581 11.7578 60.9665 12.1433C61.429 12.4517 61.7374 12.9143 61.8916 13.3769C62.1229 13.8395 62.2 14.3791 62.2 14.9959C62.2 16.3066 61.7374 17.3088 60.8123 18.0798C59.9642 18.9279 58.7306 19.3134 57.1887 19.3134C55.5697 19.3134 54.1819 19.005 53.1025 18.3882V15.6127C54.3361 16.5379 55.7238 16.9233 57.1887 16.9233C57.8826 16.9233 58.3452 16.7691 58.8077 16.4608C59.2703 16.1524 59.4245 15.6898 59.4245 15.1501C59.4245 14.9188 59.3474 14.6875 59.2703 14.4562C59.1932 14.2249 58.9619 14.0707 58.6535 13.8395C58.3452 13.6082 58.1139 13.5311 57.9597 13.3769C57.8055 13.2998 57.42 13.1456 56.9574 12.9143C56.8032 12.8372 56.7261 12.7601 56.649 12.7601C56.1093 12.5288 55.6467 12.2975 55.3384 12.0662C55.03 11.8349 54.6445 11.6036 54.259 11.2952C53.8735 10.9869 53.5651 10.6014 53.4109 10.1388C53.1796 9.6762 53.1025 9.13652 53.1025 8.59684C53.1025 7.36329 53.5651 6.36102 54.4903 5.59005C55.4155 4.81908 56.649 4.43359 58.1139 4.43359C59.4245 4.51069 60.581 4.74198 61.5832 5.20457Z" fill="#FF6D1C"/>
<path d="M67.7511 10.1386V15.6896C67.7511 16.1522 67.9053 16.4606 68.1366 16.7689C68.3679 17.0002 68.7534 17.1544 69.1389 17.1544C69.6786 17.1544 70.2182 17.0002 70.6808 16.6918V18.9277C70.1412 19.159 69.5244 19.3131 68.7534 19.3131C66.3634 19.3131 65.2069 18.1567 65.2069 15.7667V10.1386H63.5879V8.21115H65.2069V5.58984H67.8282V8.21115H70.5266V10.1386H67.7511Z" fill="#FF6D1C"/>
<path d="M79.5471 8.21094H82.1685V19.1587H79.5471V17.3855C79.0075 18.6191 77.851 19.3129 76.1549 19.3129C75.0755 19.3129 74.1503 19.0045 73.5336 18.3878C72.9168 17.771 72.6084 16.8458 72.6084 15.6894V8.21094H75.2297V14.9955C75.2297 15.6894 75.3839 16.229 75.7694 16.5374C76.0778 16.9229 76.5404 17.0771 77.1571 17.0771C77.9281 17.0771 78.4678 16.8458 78.9304 16.3061C79.3159 15.7665 79.5471 15.0726 79.5471 13.9932V8.21094Z" fill="#FF6D1C"/>
<path d="M92.3453 3.89453H94.9666V19.1598H92.3453V17.4636C91.5743 18.6972 90.495 19.314 89.0301 19.314C87.5653 19.314 86.4859 18.7743 85.6379 17.6949C84.7898 16.6156 84.4043 15.3049 84.4043 13.6859C84.4043 11.9897 84.8669 10.602 85.7149 9.59972C86.563 8.59746 87.7195 8.05778 89.1072 8.05778C90.495 8.05778 91.6514 8.67456 92.4224 9.90811V3.89453H92.3453ZM89.6469 17.0782C90.4179 17.0782 91.0347 16.7698 91.5743 16.153C92.114 15.5362 92.3453 14.6881 92.3453 13.5317C92.3453 12.4523 92.0369 11.6043 91.4972 11.0646C90.9576 10.5249 90.3408 10.2165 89.6469 10.2165C88.8759 10.2165 88.2592 10.5249 87.7195 11.1417C87.1798 11.7584 86.9485 12.6065 86.9485 13.6859C86.9485 14.6881 87.1798 15.4591 87.7195 16.0759C88.2592 16.7698 88.8759 17.0782 89.6469 17.0782Z" fill="#FF6D1C"/>
<path d="M100.825 18.9274L96.5078 8.21094H99.3604L100.671 11.6803C101.057 12.6826 101.365 13.6077 101.596 14.3016C101.828 14.9955 101.982 15.4581 102.059 15.6123L102.136 15.9207C102.29 15.381 102.753 13.9932 103.524 11.6803L104.68 8.21094H107.379L103.447 18.8504C102.367 21.78 100.671 23.2449 98.4352 23.2449C98.0498 23.2449 97.6643 23.2449 97.3559 23.1678V21.0091C97.5872 21.0862 97.8185 21.0862 98.1269 21.0862C99.3604 21.0862 100.286 20.3923 100.825 18.9274Z" fill="#FF6D1C"/>
<path d="M111.542 3.89453V10.0623C112.159 8.75165 113.238 8.05778 114.857 8.05778C115.937 8.05778 116.785 8.36617 117.401 9.06004C118.018 9.75392 118.404 10.6791 118.404 11.9897V19.1598H115.782V12.4523C115.782 11.7584 115.628 11.2188 115.243 10.8333C114.857 10.4478 114.472 10.2165 113.855 10.2165C113.238 10.2165 112.699 10.4478 112.159 10.9104C111.696 11.373 111.388 12.1439 111.388 13.2233V19.0827H108.767V3.89453H111.542Z" fill="#FF6D1C"/>
<path d="M127.887 8.21094H130.508V19.1587H127.887V17.3855C127.347 18.6191 126.191 19.3129 124.495 19.3129C123.415 19.3129 122.49 19.0045 121.873 18.3878C121.257 17.771 120.948 16.8458 120.948 15.6894V8.21094H123.57V14.9955C123.57 15.6894 123.724 16.229 124.109 16.5374C124.418 16.9229 124.88 17.0771 125.497 17.0771C126.268 17.0771 126.808 16.8458 127.27 16.3061C127.656 15.7665 127.887 15.0726 127.887 13.9932V8.21094Z" fill="#FF6D1C"/>
<path d="M135.982 3.89453V9.90811C136.753 8.67456 137.832 8.05778 139.297 8.05778C140.685 8.05778 141.764 8.59746 142.689 9.59972C143.537 10.602 144 11.9897 144 13.6859C144 15.2278 143.614 16.5385 142.766 17.6949C141.918 18.7743 140.762 19.314 139.374 19.314C137.909 19.314 136.83 18.6972 136.059 17.4636V19.1598H133.438V3.89453H135.982ZM138.68 17.0782C139.451 17.0782 140.068 16.7698 140.53 16.153C141.07 15.5362 141.301 14.7652 141.301 13.763C141.301 12.6836 141.07 11.8355 140.53 11.2188C139.991 10.602 139.374 10.2936 138.68 10.2936C137.986 10.2936 137.369 10.602 136.83 11.1417C136.29 11.6813 135.982 12.5294 135.982 13.6088C135.982 14.7652 136.213 15.6133 136.753 16.2301C137.215 16.7698 137.909 17.0782 138.68 17.0782Z" fill="#FF6D1C"/>
<path d="M28.2131 19.5628H0.425781V18.9957H28.2131C29.1346 18.9957 29.1346 18.6413 29.1346 18.4286V18.0742H29.7726V18.4286C29.7726 18.9249 29.4891 19.5628 28.2131 19.5628Z" fill="#FF6D1C"/>
<path d="M23.321 15.0273H2.83496V15.6653H23.321V15.0273Z" fill="#FF6D1C"/>
<path d="M31.8279 27.5025C31.7571 27.5025 31.6862 27.5025 31.6862 27.5025C31.5444 27.4316 31.4026 27.2899 31.4026 27.0772V23.9582C31.4026 22.7532 30.9064 21.5481 29.9849 20.6975C29.0634 19.8468 27.9292 19.4215 26.6533 19.4924L2.76465 19.5633V18.9253L26.6533 18.8544C28.071 18.7835 29.4178 19.2797 30.4102 20.2721C31.4026 21.2645 31.9697 22.5405 31.9697 23.9582V26.6519L41.1849 17.4367C42.1773 16.4443 42.7444 15.1683 42.7444 13.7506C42.7444 11.624 41.4685 9.781 39.5545 8.93037L39.7672 8.36328C41.9647 9.2848 43.3115 11.4114 43.3115 13.7506C43.3115 15.3101 42.6735 16.7987 41.6102 17.862L32.1115 27.3608C32.0406 27.5025 31.9697 27.5025 31.8279 27.5025Z" fill="#FF6D1C"/>
<path d="M30.4806 28.0009H0.779297V27.3629H30.4806C31.4021 27.3629 31.4021 27.0085 31.4021 26.7958V26.4414H32.0401V26.7958C32.0401 27.3629 31.7565 28.0009 30.4806 28.0009Z" fill="#FF6D1C"/>
<path d="M25.8736 23.3906H3.47363V24.0286H25.8736V23.3906Z" fill="#FF6D1C"/>
<path d="M0.0708861 10.562L10.9165 1.13418C11.6253 0.425317 12.6886 0 13.681 0H35.0177C38.0658 0 40.5468 2.48101 40.5468 5.52912C40.5468 7.01772 39.9798 8.43545 38.9165 9.42785L29.4177 18.9266C29.3468 18.9975 29.2051 18.9266 29.2051 18.8557V15.7367C29.2051 12.9722 26.9367 10.8456 24.1722 10.9165L0.283544 11.0582C0 11.0582 -0.0708861 10.7038 0.0708861 10.562Z" fill="#FF6D1C"/>
</svg>
